<svg xmlns="http://www.w3.org/2000/svg" xmlns:xlink="http://www.w3.org/1999/xlink" version="1.1" id="Layer_1" x="0px" y="0px" width="236.671px" height="220.153px" viewBox="0 0 236.671 220.153" enable-background="new 0 0 236.671 220.153" xml:space="preserve">
<line fill="none" stroke="#B3B3B3" stroke-width="0.5" stroke-linecap="square" stroke-miterlimit="10" x1="223.092" y1="1.939" x2="19.847" y2="1.939"/>
<line fill="none" stroke="#B3B3B3" stroke-width="0.5" stroke-linecap="square" stroke-miterlimit="10" x1="223.092" y1="27.725" x2="19.847" y2="27.725"/>
<line fill="none" stroke="#B3B3B3" stroke-width="0.5" stroke-linecap="square" stroke-miterlimit="10" x1="223.092" y1="53.509" x2="19.847" y2="53.509"/>
<line fill="none" stroke="#B3B3B3" stroke-width="0.5" stroke-linecap="square" stroke-miterlimit="10" x1="223.092" y1="79.294" x2="19.847" y2="79.294"/>
<line fill="none" stroke="#B3B3B3" stroke-width="0.5" stroke-linecap="square" stroke-miterlimit="10" x1="223.092" y1="105.08" x2="19.847" y2="105.08"/>
<line fill="none" stroke="#B3B3B3" stroke-width="0.5" stroke-linecap="square" stroke-miterlimit="10" x1="223.092" y1="130.865" x2="19.847" y2="130.865"/>
<line fill="none" stroke="#B3B3B3" stroke-width="0.5" stroke-linecap="square" stroke-miterlimit="10" x1="223.092" y1="156.649" x2="19.847" y2="156.649"/>
<line fill="none" stroke="#B3B3B3" stroke-width="0.5" stroke-linecap="square" stroke-miterlimit="10" x1="223.092" y1="182.434" x2="19.847" y2="182.434"/>
<g>
	<path d="M2.187,0.168h0.385v3.193H3.28v0.358H2.572v1.174H2.18V3.719H0V3.307L2.187,0.168z M2.18,0.79H2.167L0.385,3.361H2.18V0.79   z"/>
	<path d="M6.267,0.354c0.214,0.151,0.38,0.343,0.5,0.577c0.119,0.234,0.2,0.495,0.243,0.783c0.042,0.288,0.064,0.569,0.064,0.844   c0,0.279-0.021,0.562-0.064,0.851C6.967,3.697,6.886,3.958,6.767,4.191c-0.119,0.234-0.286,0.425-0.5,0.574   s-0.494,0.223-0.84,0.223c-0.342,0-0.621-0.075-0.837-0.223S4.206,4.426,4.087,4.191c-0.119-0.234-0.2-0.495-0.243-0.783   C3.801,3.121,3.78,2.839,3.78,2.565c0-0.279,0.021-0.562,0.064-0.851c0.043-0.288,0.124-0.549,0.243-0.783   C4.206,0.697,4.374,0.505,4.59,0.354c0.216-0.15,0.495-0.226,0.837-0.226C5.773,0.128,6.053,0.204,6.267,0.354z M4.779,0.695   c-0.162,0.14-0.285,0.313-0.368,0.52C4.328,1.422,4.272,1.647,4.246,1.89C4.219,2.133,4.205,2.355,4.205,2.558   c0,0.207,0.014,0.431,0.041,0.671c0.027,0.241,0.082,0.466,0.166,0.675c0.083,0.209,0.206,0.384,0.368,0.523   c0.162,0.14,0.378,0.209,0.648,0.209s0.486-0.07,0.648-0.209c0.162-0.139,0.285-0.314,0.368-0.523   c0.083-0.209,0.138-0.434,0.165-0.675c0.027-0.241,0.041-0.464,0.041-0.671c0-0.203-0.013-0.425-0.041-0.668   C6.581,1.647,6.526,1.422,6.443,1.215c-0.083-0.207-0.206-0.38-0.368-0.52C5.913,0.556,5.697,0.486,5.427,0.486   S4.941,0.556,4.779,0.695z"/>
	<path d="M9.332,0.226c0.137,0.065,0.249,0.155,0.334,0.27s0.149,0.25,0.189,0.405c0.041,0.155,0.061,0.323,0.061,0.503   S9.895,1.751,9.854,1.907c-0.04,0.155-0.104,0.29-0.189,0.405s-0.197,0.205-0.334,0.27C9.194,2.647,9.031,2.68,8.842,2.68   S8.49,2.647,8.353,2.582c-0.138-0.065-0.249-0.155-0.334-0.27S7.87,2.062,7.83,1.907S7.769,1.584,7.769,1.404   s0.02-0.348,0.061-0.503s0.104-0.29,0.189-0.405s0.197-0.205,0.334-0.27c0.137-0.065,0.3-0.098,0.489-0.098   S9.194,0.161,9.332,0.226z M8.488,0.523c-0.092,0.061-0.166,0.14-0.219,0.236C8.214,0.856,8.177,0.962,8.157,1.077   c-0.021,0.115-0.03,0.226-0.03,0.334s0.01,0.218,0.03,0.331c0.02,0.113,0.057,0.216,0.111,0.311   c0.054,0.095,0.127,0.172,0.219,0.233s0.21,0.091,0.354,0.091c0.139,0,0.255-0.031,0.348-0.091s0.165-0.138,0.219-0.233   c0.054-0.094,0.092-0.198,0.115-0.311c0.022-0.112,0.034-0.223,0.034-0.331S9.546,1.191,9.524,1.077S9.463,0.856,9.409,0.759   S9.282,0.583,9.19,0.523S8.981,0.432,8.842,0.432C8.698,0.432,8.58,0.462,8.488,0.523z M11.961,0L8.91,5.116H8.586L11.644,0H11.961   z M12.295,2.541c0.137,0.065,0.249,0.155,0.334,0.27s0.148,0.25,0.189,0.405s0.061,0.323,0.061,0.503   c0,0.18-0.021,0.348-0.061,0.503c-0.041,0.155-0.104,0.29-0.189,0.405s-0.197,0.204-0.334,0.267s-0.3,0.095-0.489,0.095   s-0.353-0.032-0.49-0.095s-0.249-0.152-0.334-0.267s-0.148-0.25-0.189-0.405c-0.041-0.155-0.061-0.323-0.061-0.503   c0-0.18,0.02-0.348,0.061-0.503s0.104-0.291,0.189-0.405s0.197-0.205,0.334-0.27c0.137-0.065,0.301-0.098,0.49-0.098   S12.158,2.476,12.295,2.541z M11.451,2.838c-0.092,0.061-0.166,0.139-0.219,0.236c-0.054,0.097-0.091,0.203-0.112,0.317   c-0.02,0.115-0.03,0.226-0.03,0.334c0,0.108,0.01,0.219,0.03,0.331c0.021,0.112,0.058,0.216,0.112,0.311   c0.054,0.094,0.127,0.172,0.219,0.233c0.092,0.061,0.21,0.091,0.354,0.091c0.139,0,0.255-0.03,0.348-0.091   c0.092-0.061,0.165-0.139,0.219-0.233c0.054-0.095,0.092-0.198,0.115-0.311s0.034-0.223,0.034-0.331   c0-0.108-0.011-0.219-0.034-0.334s-0.061-0.22-0.115-0.317c-0.054-0.097-0.127-0.175-0.219-0.236   c-0.092-0.061-0.208-0.091-0.348-0.091C11.662,2.747,11.543,2.777,11.451,2.838z"/>
</g>
<g>
	<path d="M6.51,29.433c0.052,0.153,0.128,0.283,0.229,0.392c0.102,0.108,0.228,0.192,0.378,0.253c0.15,0.061,0.32,0.091,0.509,0.091   c0.158,0,0.308-0.022,0.453-0.068c0.144-0.045,0.272-0.112,0.384-0.202c0.113-0.09,0.203-0.2,0.27-0.331   c0.068-0.13,0.102-0.279,0.102-0.445c0-0.171-0.029-0.318-0.088-0.442c-0.059-0.124-0.14-0.227-0.243-0.31   c-0.104-0.083-0.224-0.146-0.361-0.186s-0.285-0.061-0.442-0.061H7.344v-0.358h0.357c0.108,0,0.22-0.017,0.334-0.05   s0.218-0.085,0.311-0.155c0.092-0.07,0.167-0.159,0.226-0.267c0.058-0.108,0.087-0.236,0.087-0.385   c0-0.158-0.027-0.292-0.081-0.402c-0.054-0.11-0.128-0.203-0.223-0.277c-0.094-0.074-0.204-0.128-0.327-0.162   c-0.124-0.034-0.258-0.051-0.402-0.051c-0.175,0-0.331,0.029-0.466,0.088c-0.135,0.059-0.249,0.141-0.341,0.246   c-0.092,0.106-0.161,0.232-0.206,0.378c-0.045,0.146-0.065,0.307-0.061,0.483H6.129c0-0.225,0.035-0.432,0.105-0.621   c0.069-0.189,0.168-0.352,0.297-0.489S6.815,25.856,7,25.777c0.184-0.079,0.391-0.118,0.621-0.118c0.185,0,0.365,0.024,0.54,0.071   c0.176,0.047,0.332,0.12,0.469,0.216s0.248,0.22,0.331,0.371c0.083,0.151,0.125,0.332,0.125,0.543c0,0.256-0.068,0.479-0.206,0.668   c-0.138,0.189-0.334,0.315-0.591,0.378v0.013c0.311,0.05,0.55,0.179,0.719,0.388c0.169,0.209,0.253,0.469,0.253,0.78   c0,0.234-0.044,0.44-0.132,0.618s-0.206,0.327-0.354,0.449c-0.148,0.122-0.322,0.212-0.52,0.273   C8.057,30.489,7.85,30.52,7.634,30.52c-0.243,0-0.467-0.036-0.671-0.108c-0.205-0.072-0.38-0.175-0.527-0.311   c-0.146-0.135-0.256-0.301-0.331-0.5c-0.074-0.198-0.103-0.425-0.084-0.682h0.425C6.438,29.108,6.458,29.28,6.51,29.433z"/>
	<path d="M12.268,25.885c0.214,0.151,0.38,0.343,0.5,0.577c0.119,0.234,0.2,0.495,0.243,0.783c0.042,0.288,0.064,0.569,0.064,0.844   c0,0.279-0.021,0.562-0.064,0.851c-0.043,0.288-0.124,0.549-0.243,0.783c-0.119,0.234-0.286,0.425-0.5,0.574   s-0.494,0.223-0.84,0.223c-0.342,0-0.621-0.075-0.837-0.223s-0.384-0.339-0.503-0.574c-0.119-0.234-0.2-0.495-0.243-0.783   c-0.042-0.288-0.064-0.569-0.064-0.844c0-0.279,0.021-0.562,0.064-0.851c0.043-0.288,0.124-0.549,0.243-0.783   c0.119-0.234,0.287-0.426,0.503-0.577c0.216-0.15,0.495-0.226,0.837-0.226C11.774,25.659,12.054,25.735,12.268,25.885z    M10.78,26.226c-0.162,0.14-0.285,0.313-0.368,0.52c-0.083,0.207-0.139,0.432-0.166,0.675c-0.027,0.243-0.041,0.466-0.041,0.668   c0,0.207,0.014,0.431,0.041,0.671c0.027,0.241,0.082,0.466,0.166,0.675c0.083,0.209,0.206,0.384,0.368,0.523   c0.162,0.14,0.378,0.209,0.648,0.209s0.486-0.07,0.648-0.209c0.162-0.139,0.285-0.314,0.368-0.523   c0.083-0.209,0.138-0.434,0.165-0.675c0.027-0.241,0.041-0.464,0.041-0.671c0-0.203-0.013-0.425-0.041-0.668   c-0.027-0.243-0.082-0.468-0.165-0.675c-0.083-0.207-0.206-0.38-0.368-0.52c-0.162-0.139-0.378-0.209-0.648-0.209   S10.942,26.087,10.78,26.226z"/>
</g>
<g>
	<path d="M6.042,55.957c0.004-0.234,0.045-0.441,0.121-0.621c0.077-0.18,0.178-0.342,0.304-0.486   c0.125-0.144,0.268-0.276,0.425-0.395c0.158-0.119,0.32-0.234,0.486-0.344s0.332-0.223,0.496-0.337   c0.164-0.115,0.312-0.237,0.442-0.368c0.131-0.131,0.229-0.265,0.294-0.402c0.065-0.137,0.098-0.3,0.098-0.489   c0-0.153-0.028-0.289-0.084-0.409c-0.056-0.119-0.133-0.22-0.229-0.304c-0.097-0.083-0.209-0.146-0.337-0.189   c-0.128-0.042-0.264-0.064-0.408-0.064c-0.194,0-0.359,0.036-0.496,0.108c-0.138,0.072-0.249,0.169-0.334,0.291   c-0.085,0.121-0.147,0.261-0.186,0.418c-0.038,0.157-0.055,0.324-0.05,0.5H6.156c-0.005-0.243,0.023-0.467,0.084-0.672   c0.061-0.205,0.154-0.381,0.28-0.53s0.285-0.264,0.476-0.348c0.191-0.083,0.415-0.125,0.671-0.125c0.207,0,0.399,0.028,0.577,0.084   s0.333,0.14,0.466,0.25c0.133,0.11,0.236,0.249,0.311,0.415s0.111,0.36,0.111,0.581c0,0.198-0.033,0.378-0.098,0.54   c-0.065,0.162-0.153,0.31-0.264,0.445c-0.11,0.135-0.236,0.26-0.378,0.375c-0.142,0.115-0.291,0.222-0.449,0.321   c-0.112,0.077-0.245,0.161-0.398,0.253c-0.153,0.092-0.3,0.195-0.442,0.307c-0.142,0.113-0.267,0.235-0.375,0.368   s-0.176,0.278-0.203,0.435h2.626v0.392H6.042z"/>
	<path d="M12.268,51.417c0.214,0.151,0.38,0.343,0.5,0.577c0.119,0.234,0.2,0.495,0.243,0.783c0.042,0.288,0.064,0.569,0.064,0.844   c0,0.279-0.021,0.562-0.064,0.851c-0.043,0.288-0.124,0.549-0.243,0.783c-0.119,0.234-0.286,0.425-0.5,0.574   s-0.494,0.223-0.84,0.223c-0.342,0-0.621-0.075-0.837-0.223s-0.384-0.339-0.503-0.574c-0.119-0.234-0.2-0.495-0.243-0.783   c-0.042-0.288-0.064-0.569-0.064-0.844c0-0.279,0.021-0.562,0.064-0.851c0.043-0.288,0.124-0.549,0.243-0.783   c0.119-0.234,0.287-0.426,0.503-0.577c0.216-0.15,0.495-0.226,0.837-0.226C11.774,51.191,12.054,51.267,12.268,51.417z    M10.78,51.758c-0.162,0.14-0.285,0.313-0.368,0.52c-0.083,0.207-0.139,0.432-0.166,0.675c-0.027,0.243-0.041,0.466-0.041,0.668   c0,0.207,0.014,0.431,0.041,0.671c0.027,0.241,0.082,0.466,0.166,0.675c0.083,0.209,0.206,0.384,0.368,0.523   c0.162,0.14,0.378,0.209,0.648,0.209s0.486-0.07,0.648-0.209c0.162-0.139,0.285-0.314,0.368-0.523   c0.083-0.209,0.138-0.434,0.165-0.675c0.027-0.241,0.041-0.464,0.041-0.671c0-0.203-0.013-0.425-0.041-0.668   c-0.027-0.243-0.082-0.468-0.165-0.675c-0.083-0.207-0.206-0.38-0.368-0.52c-0.162-0.139-0.378-0.209-0.648-0.209   S10.942,51.619,10.78,51.758z"/>
</g>
<g>
	<path d="M6.956,77.644c0.15-0.016,0.281-0.053,0.392-0.111c0.11-0.059,0.202-0.147,0.276-0.267s0.127-0.287,0.159-0.503h0.344   v4.725H7.702v-3.51H6.453v-0.304C6.638,77.67,6.805,77.66,6.956,77.644z"/>
	<path d="M12.268,76.949c0.214,0.151,0.38,0.343,0.5,0.577c0.119,0.234,0.2,0.495,0.243,0.783c0.042,0.288,0.064,0.569,0.064,0.844   c0,0.279-0.021,0.562-0.064,0.851c-0.043,0.288-0.124,0.549-0.243,0.783c-0.119,0.234-0.286,0.425-0.5,0.574   s-0.494,0.223-0.84,0.223c-0.342,0-0.621-0.075-0.837-0.223s-0.384-0.339-0.503-0.574c-0.119-0.234-0.2-0.495-0.243-0.783   c-0.042-0.288-0.064-0.569-0.064-0.844c0-0.279,0.021-0.562,0.064-0.851c0.043-0.288,0.124-0.549,0.243-0.783   c0.119-0.234,0.287-0.426,0.503-0.577c0.216-0.15,0.495-0.226,0.837-0.226C11.774,76.723,12.054,76.798,12.268,76.949z    M10.78,77.29c-0.162,0.14-0.285,0.313-0.368,0.52c-0.083,0.207-0.139,0.432-0.166,0.675c-0.027,0.243-0.041,0.466-0.041,0.668   c0,0.207,0.014,0.431,0.041,0.671c0.027,0.241,0.082,0.466,0.166,0.675c0.083,0.209,0.206,0.384,0.368,0.523   c0.162,0.14,0.378,0.209,0.648,0.209s0.486-0.07,0.648-0.209c0.162-0.139,0.285-0.314,0.368-0.523   c0.083-0.209,0.138-0.434,0.165-0.675c0.027-0.241,0.041-0.464,0.041-0.671c0-0.203-0.013-0.425-0.041-0.668   c-0.027-0.243-0.082-0.468-0.165-0.675c-0.083-0.207-0.206-0.38-0.368-0.52c-0.162-0.139-0.378-0.209-0.648-0.209   S10.942,77.15,10.78,77.29z"/>
</g>
<g>
	<path d="M12.268,102.48c0.214,0.15,0.38,0.343,0.5,0.577s0.2,0.495,0.243,0.783c0.042,0.288,0.064,0.569,0.064,0.844   c0,0.278-0.021,0.562-0.064,0.851c-0.043,0.288-0.124,0.549-0.243,0.782c-0.119,0.234-0.286,0.426-0.5,0.574   s-0.494,0.223-0.84,0.223c-0.342,0-0.621-0.074-0.837-0.223s-0.384-0.34-0.503-0.574c-0.119-0.233-0.2-0.494-0.243-0.782   c-0.042-0.288-0.064-0.569-0.064-0.844c0-0.279,0.021-0.562,0.064-0.851c0.043-0.288,0.124-0.549,0.243-0.783   s0.287-0.427,0.503-0.577s0.495-0.227,0.837-0.227C11.774,102.253,12.054,102.33,12.268,102.48z M10.78,102.821   c-0.162,0.14-0.285,0.312-0.368,0.52c-0.083,0.207-0.139,0.433-0.166,0.675c-0.027,0.243-0.041,0.466-0.041,0.669   c0,0.207,0.014,0.431,0.041,0.671c0.027,0.241,0.082,0.466,0.166,0.676c0.083,0.209,0.206,0.384,0.368,0.522   c0.162,0.14,0.378,0.21,0.648,0.21s0.486-0.07,0.648-0.21c0.162-0.139,0.285-0.313,0.368-0.522c0.083-0.21,0.138-0.435,0.165-0.676   c0.027-0.24,0.041-0.464,0.041-0.671c0-0.203-0.013-0.426-0.041-0.669c-0.027-0.242-0.082-0.468-0.165-0.675   c-0.083-0.207-0.206-0.38-0.368-0.52s-0.378-0.209-0.648-0.209S10.942,102.681,10.78,102.821z"/>
</g>
<g>
	<path d="M2.423,130.5h3.375v0.391H2.423V130.5z"/>
	<path d="M6.956,128.707c0.15-0.016,0.281-0.053,0.392-0.111c0.11-0.059,0.202-0.147,0.276-0.267s0.127-0.286,0.159-0.503h0.344   v4.726H7.702v-3.51H6.453v-0.305C6.638,128.733,6.805,128.723,6.956,128.707z"/>
	<path d="M12.268,128.011c0.214,0.151,0.38,0.344,0.5,0.577c0.119,0.234,0.2,0.495,0.243,0.783c0.042,0.288,0.064,0.569,0.064,0.844   c0,0.279-0.021,0.562-0.064,0.851c-0.043,0.288-0.124,0.549-0.243,0.783s-0.286,0.425-0.5,0.573s-0.494,0.224-0.84,0.224   c-0.342,0-0.621-0.075-0.837-0.224s-0.384-0.339-0.503-0.573s-0.2-0.495-0.243-0.783c-0.042-0.288-0.064-0.569-0.064-0.844   c0-0.279,0.021-0.562,0.064-0.851c0.043-0.288,0.124-0.549,0.243-0.783c0.119-0.233,0.287-0.426,0.503-0.577   c0.216-0.15,0.495-0.226,0.837-0.226C11.774,127.786,12.054,127.861,12.268,128.011z M10.78,128.352   c-0.162,0.14-0.285,0.313-0.368,0.521c-0.083,0.207-0.139,0.432-0.166,0.675s-0.041,0.466-0.041,0.668   c0,0.207,0.014,0.431,0.041,0.672s0.082,0.466,0.166,0.675c0.083,0.209,0.206,0.384,0.368,0.523s0.378,0.209,0.648,0.209   s0.486-0.069,0.648-0.209s0.285-0.314,0.368-0.523c0.083-0.209,0.138-0.434,0.165-0.675c0.027-0.241,0.041-0.465,0.041-0.672   c0-0.202-0.013-0.425-0.041-0.668c-0.027-0.243-0.082-0.468-0.165-0.675c-0.083-0.207-0.206-0.381-0.368-0.521   c-0.162-0.139-0.378-0.209-0.648-0.209S10.942,128.213,10.78,128.352z"/>
</g>
<g>
	<path d="M2.423,156.031h3.375v0.391H2.423V156.031z"/>
	<path d="M6.042,158.083c0.004-0.234,0.045-0.441,0.121-0.621c0.077-0.18,0.178-0.342,0.304-0.486   c0.125-0.144,0.268-0.275,0.425-0.395c0.158-0.119,0.32-0.234,0.486-0.345s0.332-0.223,0.496-0.337   c0.164-0.115,0.312-0.237,0.442-0.368c0.131-0.131,0.229-0.265,0.294-0.401c0.065-0.138,0.098-0.301,0.098-0.489   c0-0.153-0.028-0.289-0.084-0.409c-0.056-0.119-0.133-0.22-0.229-0.304c-0.097-0.083-0.209-0.146-0.337-0.188   s-0.264-0.064-0.408-0.064c-0.194,0-0.359,0.036-0.496,0.108c-0.138,0.072-0.249,0.169-0.334,0.29s-0.147,0.261-0.186,0.419   c-0.038,0.157-0.055,0.323-0.05,0.499H6.156c-0.005-0.243,0.023-0.467,0.084-0.672c0.061-0.204,0.154-0.381,0.28-0.529   s0.285-0.265,0.476-0.348c0.191-0.083,0.415-0.125,0.671-0.125c0.207,0,0.399,0.028,0.577,0.084c0.178,0.057,0.333,0.14,0.466,0.25   s0.236,0.249,0.311,0.415c0.074,0.167,0.111,0.36,0.111,0.581c0,0.197-0.033,0.378-0.098,0.54c-0.065,0.161-0.153,0.31-0.264,0.445   c-0.11,0.135-0.236,0.26-0.378,0.374c-0.142,0.115-0.291,0.222-0.449,0.321c-0.112,0.076-0.245,0.16-0.398,0.253   c-0.153,0.092-0.3,0.194-0.442,0.307c-0.142,0.113-0.267,0.235-0.375,0.368s-0.176,0.278-0.203,0.436h2.626v0.392H6.042z"/>
	<path d="M12.268,153.542c0.214,0.151,0.38,0.344,0.5,0.577c0.119,0.234,0.2,0.495,0.243,0.783c0.042,0.288,0.064,0.569,0.064,0.844   c0,0.279-0.021,0.562-0.064,0.851c-0.043,0.288-0.124,0.549-0.243,0.783s-0.286,0.425-0.5,0.573s-0.494,0.224-0.84,0.224   c-0.342,0-0.621-0.075-0.837-0.224s-0.384-0.339-0.503-0.573s-0.2-0.495-0.243-0.783c-0.042-0.288-0.064-0.569-0.064-0.844   c0-0.279,0.021-0.562,0.064-0.851c0.043-0.288,0.124-0.549,0.243-0.783c0.119-0.233,0.287-0.426,0.503-0.577   c0.216-0.15,0.495-0.226,0.837-0.226C11.774,153.317,12.054,153.392,12.268,153.542z M10.78,153.883   c-0.162,0.14-0.285,0.313-0.368,0.521c-0.083,0.207-0.139,0.432-0.166,0.675s-0.041,0.466-0.041,0.668   c0,0.207,0.014,0.431,0.041,0.672s0.082,0.466,0.166,0.675c0.083,0.209,0.206,0.384,0.368,0.523s0.378,0.209,0.648,0.209   s0.486-0.069,0.648-0.209s0.285-0.314,0.368-0.523c0.083-0.209,0.138-0.434,0.165-0.675c0.027-0.241,0.041-0.465,0.041-0.672   c0-0.202-0.013-0.425-0.041-0.668c-0.027-0.243-0.082-0.468-0.165-0.675c-0.083-0.207-0.206-0.381-0.368-0.521   c-0.162-0.139-0.378-0.209-0.648-0.209S10.942,153.745,10.78,153.883z"/>
</g>
<g>
	<path d="M2.423,181.562h3.375v0.392H2.423V181.562z"/>
	<path d="M6.51,182.622c0.052,0.153,0.128,0.283,0.229,0.392c0.102,0.108,0.228,0.192,0.378,0.253   c0.15,0.061,0.32,0.092,0.509,0.092c0.158,0,0.308-0.022,0.453-0.068c0.144-0.045,0.272-0.112,0.384-0.202   c0.113-0.09,0.203-0.2,0.27-0.331c0.068-0.13,0.102-0.278,0.102-0.445c0-0.171-0.029-0.318-0.088-0.442   c-0.059-0.123-0.14-0.227-0.243-0.31c-0.104-0.084-0.224-0.146-0.361-0.187c-0.137-0.04-0.285-0.061-0.442-0.061H7.344v-0.357   h0.357c0.108,0,0.22-0.017,0.334-0.051c0.115-0.033,0.218-0.085,0.311-0.155c0.092-0.069,0.167-0.158,0.226-0.267   c0.058-0.108,0.087-0.236,0.087-0.385c0-0.157-0.027-0.291-0.081-0.401c-0.054-0.11-0.128-0.203-0.223-0.277   c-0.094-0.074-0.204-0.128-0.327-0.161c-0.124-0.034-0.258-0.051-0.402-0.051c-0.175,0-0.331,0.029-0.466,0.088   c-0.135,0.059-0.249,0.141-0.341,0.246s-0.161,0.231-0.206,0.378c-0.045,0.146-0.065,0.307-0.061,0.482H6.129   c0-0.225,0.035-0.432,0.105-0.621c0.069-0.188,0.168-0.352,0.297-0.489c0.128-0.137,0.285-0.245,0.469-0.324   c0.184-0.078,0.391-0.118,0.621-0.118c0.185,0,0.365,0.024,0.54,0.071c0.176,0.047,0.332,0.119,0.469,0.216   s0.248,0.221,0.331,0.371c0.083,0.151,0.125,0.332,0.125,0.544c0,0.256-0.068,0.479-0.206,0.668   c-0.138,0.189-0.334,0.315-0.591,0.378v0.014c0.311,0.05,0.55,0.179,0.719,0.388c0.169,0.21,0.253,0.47,0.253,0.78   c0,0.233-0.044,0.439-0.132,0.617s-0.206,0.327-0.354,0.449c-0.148,0.121-0.322,0.212-0.52,0.273   c-0.198,0.061-0.405,0.091-0.621,0.091c-0.243,0-0.467-0.036-0.671-0.108c-0.205-0.071-0.38-0.175-0.527-0.311   c-0.146-0.135-0.256-0.301-0.331-0.499s-0.103-0.425-0.084-0.682h0.425C6.438,182.297,6.458,182.469,6.51,182.622z"/>
	<path d="M12.268,179.075c0.214,0.15,0.38,0.343,0.5,0.577s0.2,0.495,0.243,0.783c0.042,0.288,0.064,0.569,0.064,0.844   c0,0.278-0.021,0.562-0.064,0.851c-0.043,0.288-0.124,0.549-0.243,0.782c-0.119,0.234-0.286,0.426-0.5,0.574   s-0.494,0.223-0.84,0.223c-0.342,0-0.621-0.074-0.837-0.223s-0.384-0.34-0.503-0.574c-0.119-0.233-0.2-0.494-0.243-0.782   c-0.042-0.288-0.064-0.569-0.064-0.844c0-0.279,0.021-0.562,0.064-0.851c0.043-0.288,0.124-0.549,0.243-0.783   s0.287-0.427,0.503-0.577s0.495-0.227,0.837-0.227C11.774,178.848,12.054,178.924,12.268,179.075z M10.78,179.416   c-0.162,0.14-0.285,0.312-0.368,0.52c-0.083,0.207-0.139,0.433-0.166,0.675c-0.027,0.243-0.041,0.466-0.041,0.669   c0,0.207,0.014,0.431,0.041,0.671c0.027,0.241,0.082,0.466,0.166,0.676c0.083,0.209,0.206,0.384,0.368,0.522   c0.162,0.14,0.378,0.21,0.648,0.21s0.486-0.07,0.648-0.21c0.162-0.139,0.285-0.313,0.368-0.522c0.083-0.21,0.138-0.435,0.165-0.676   c0.027-0.24,0.041-0.464,0.041-0.671c0-0.203-0.013-0.426-0.041-0.669c-0.027-0.242-0.082-0.468-0.165-0.675   c-0.083-0.207-0.206-0.38-0.368-0.52s-0.378-0.209-0.648-0.209S10.942,179.276,10.78,179.416z"/>
</g>
<g>
	<path d="M2.423,207.093h3.375v0.392H2.423V207.093z"/>
	<path d="M8.188,204.42h0.385v3.192h0.708v0.358H8.573v1.174H8.181v-1.174h-2.18v-0.412L8.188,204.42z M8.181,205.042H8.167   l-1.782,2.571h1.795V205.042z"/>
	<path d="M12.268,204.606c0.214,0.15,0.38,0.343,0.5,0.577s0.2,0.495,0.243,0.783c0.042,0.288,0.064,0.569,0.064,0.844   c0,0.278-0.021,0.562-0.064,0.851c-0.043,0.288-0.124,0.549-0.243,0.782c-0.119,0.234-0.286,0.426-0.5,0.574   s-0.494,0.223-0.84,0.223c-0.342,0-0.621-0.074-0.837-0.223s-0.384-0.34-0.503-0.574c-0.119-0.233-0.2-0.494-0.243-0.782   c-0.042-0.288-0.064-0.569-0.064-0.844c0-0.279,0.021-0.562,0.064-0.851c0.043-0.288,0.124-0.549,0.243-0.783   s0.287-0.427,0.503-0.577s0.495-0.227,0.837-0.227C11.774,204.379,12.054,204.456,12.268,204.606z M10.78,204.947   c-0.162,0.14-0.285,0.312-0.368,0.52c-0.083,0.207-0.139,0.433-0.166,0.675c-0.027,0.243-0.041,0.466-0.041,0.669   c0,0.207,0.014,0.431,0.041,0.671c0.027,0.241,0.082,0.466,0.166,0.676c0.083,0.209,0.206,0.384,0.368,0.522   c0.162,0.14,0.378,0.21,0.648,0.21s0.486-0.07,0.648-0.21c0.162-0.139,0.285-0.313,0.368-0.522c0.083-0.21,0.138-0.435,0.165-0.676   c0.027-0.24,0.041-0.464,0.041-0.671c0-0.203-0.013-0.426-0.041-0.669c-0.027-0.242-0.082-0.468-0.165-0.675   c-0.083-0.207-0.206-0.38-0.368-0.52s-0.378-0.209-0.648-0.209S10.942,204.807,10.78,204.947z"/>
</g>
<g>
	<path d="M14.406,217.878h3.375v0.392h-3.375V217.878z"/>
	<path d="M20.171,215.206h0.385v3.192h0.708v0.358h-0.708v1.174h-0.392v-1.174h-2.18v-0.412L20.171,215.206z M20.164,215.827H20.15   l-1.782,2.571h1.795V215.827z"/>
	<path d="M24.251,215.391c0.214,0.15,0.38,0.343,0.5,0.577s0.2,0.495,0.243,0.783c0.042,0.288,0.064,0.569,0.064,0.844   c0,0.278-0.021,0.562-0.064,0.851c-0.043,0.288-0.124,0.549-0.243,0.782c-0.119,0.234-0.286,0.426-0.5,0.574   s-0.494,0.223-0.84,0.223c-0.342,0-0.621-0.074-0.837-0.223s-0.384-0.34-0.503-0.574c-0.119-0.233-0.2-0.494-0.243-0.782   c-0.042-0.288-0.064-0.569-0.064-0.844c0-0.279,0.021-0.562,0.064-0.851c0.043-0.288,0.124-0.549,0.243-0.783   s0.287-0.427,0.503-0.577s0.495-0.227,0.837-0.227C23.757,215.165,24.037,215.241,24.251,215.391z M22.763,215.732   c-0.162,0.14-0.285,0.312-0.368,0.52c-0.083,0.207-0.139,0.433-0.166,0.675c-0.027,0.243-0.041,0.466-0.041,0.669   c0,0.207,0.014,0.431,0.041,0.671c0.027,0.241,0.082,0.466,0.166,0.676c0.083,0.209,0.206,0.384,0.368,0.522   c0.162,0.14,0.378,0.21,0.648,0.21s0.486-0.07,0.648-0.21c0.162-0.139,0.285-0.313,0.368-0.522c0.083-0.21,0.138-0.435,0.165-0.676   c0.027-0.24,0.041-0.464,0.041-0.671c0-0.203-0.013-0.426-0.041-0.669c-0.027-0.242-0.082-0.468-0.165-0.675   c-0.083-0.207-0.206-0.38-0.368-0.52s-0.378-0.209-0.648-0.209S22.925,215.592,22.763,215.732z"/>
</g>
<g>
	<path d="M39.812,217.878h3.375v0.392h-3.375V217.878z"/>
	<path d="M43.899,218.938c0.052,0.153,0.128,0.283,0.229,0.392c0.102,0.108,0.228,0.192,0.378,0.253   c0.15,0.061,0.32,0.092,0.509,0.092c0.158,0,0.308-0.022,0.453-0.068c0.144-0.045,0.272-0.112,0.384-0.202   c0.113-0.09,0.203-0.2,0.27-0.331c0.068-0.13,0.102-0.278,0.102-0.445c0-0.171-0.029-0.318-0.088-0.442   c-0.059-0.123-0.14-0.227-0.243-0.31c-0.104-0.084-0.224-0.146-0.361-0.187c-0.137-0.04-0.285-0.061-0.442-0.061h-0.357v-0.357   h0.357c0.108,0,0.22-0.017,0.334-0.051c0.115-0.033,0.218-0.085,0.311-0.155c0.092-0.069,0.167-0.158,0.226-0.267   c0.058-0.108,0.087-0.236,0.087-0.385c0-0.157-0.027-0.291-0.081-0.401c-0.054-0.11-0.128-0.203-0.223-0.277   c-0.094-0.074-0.204-0.128-0.327-0.161c-0.124-0.034-0.258-0.051-0.402-0.051c-0.175,0-0.331,0.029-0.466,0.088   c-0.135,0.059-0.249,0.141-0.341,0.246s-0.161,0.231-0.206,0.378c-0.045,0.146-0.065,0.307-0.061,0.482h-0.425   c0-0.225,0.035-0.432,0.105-0.621c0.069-0.188,0.168-0.352,0.297-0.489c0.128-0.137,0.285-0.245,0.469-0.324   c0.184-0.078,0.391-0.118,0.621-0.118c0.185,0,0.365,0.024,0.54,0.071c0.176,0.047,0.332,0.119,0.469,0.216   s0.248,0.221,0.331,0.371c0.083,0.151,0.125,0.332,0.125,0.544c0,0.256-0.068,0.479-0.206,0.668   c-0.138,0.189-0.334,0.315-0.591,0.378v0.014c0.311,0.05,0.55,0.179,0.719,0.388c0.169,0.21,0.253,0.47,0.253,0.78   c0,0.233-0.044,0.439-0.132,0.617s-0.206,0.327-0.354,0.449c-0.148,0.121-0.322,0.212-0.52,0.273   c-0.198,0.061-0.405,0.091-0.621,0.091c-0.243,0-0.467-0.036-0.671-0.108c-0.205-0.071-0.38-0.175-0.527-0.311   c-0.146-0.135-0.256-0.301-0.331-0.499s-0.103-0.425-0.084-0.682h0.425C43.826,218.614,43.847,218.786,43.899,218.938z"/>
	<path d="M49.657,215.391c0.214,0.15,0.38,0.343,0.5,0.577s0.2,0.495,0.243,0.783c0.042,0.288,0.064,0.569,0.064,0.844   c0,0.278-0.021,0.562-0.064,0.851c-0.043,0.288-0.124,0.549-0.243,0.782c-0.119,0.234-0.286,0.426-0.5,0.574   s-0.494,0.223-0.84,0.223c-0.342,0-0.621-0.074-0.837-0.223s-0.384-0.34-0.503-0.574c-0.119-0.233-0.2-0.494-0.243-0.782   c-0.042-0.288-0.064-0.569-0.064-0.844c0-0.279,0.021-0.562,0.064-0.851c0.043-0.288,0.124-0.549,0.243-0.783   s0.287-0.427,0.503-0.577s0.495-0.227,0.837-0.227C49.163,215.165,49.443,215.241,49.657,215.391z M48.168,215.732   c-0.162,0.14-0.285,0.312-0.368,0.52c-0.083,0.207-0.139,0.433-0.166,0.675c-0.027,0.243-0.041,0.466-0.041,0.669   c0,0.207,0.014,0.431,0.041,0.671c0.027,0.241,0.082,0.466,0.166,0.676c0.083,0.209,0.206,0.384,0.368,0.522   c0.162,0.14,0.378,0.21,0.648,0.21s0.486-0.07,0.648-0.21c0.162-0.139,0.285-0.313,0.368-0.522c0.083-0.21,0.138-0.435,0.165-0.676   c0.027-0.24,0.041-0.464,0.041-0.671c0-0.203-0.013-0.426-0.041-0.669c-0.027-0.242-0.082-0.468-0.165-0.675   c-0.083-0.207-0.206-0.38-0.368-0.52s-0.378-0.209-0.648-0.209S48.331,215.592,48.168,215.732z"/>
</g>
<g>
	<path d="M65.217,217.878h3.375v0.392h-3.375V217.878z"/>
	<path d="M68.835,219.93c0.004-0.233,0.045-0.44,0.121-0.621c0.077-0.18,0.178-0.342,0.304-0.485   c0.125-0.145,0.268-0.276,0.425-0.396c0.158-0.119,0.32-0.233,0.486-0.344s0.332-0.223,0.496-0.338   c0.164-0.114,0.312-0.237,0.442-0.367c0.131-0.131,0.229-0.265,0.294-0.402c0.065-0.137,0.098-0.3,0.098-0.489   c0-0.152-0.028-0.289-0.084-0.408s-0.133-0.221-0.229-0.304s-0.209-0.146-0.337-0.189c-0.128-0.042-0.264-0.063-0.408-0.063   c-0.194,0-0.359,0.036-0.496,0.107c-0.138,0.072-0.249,0.169-0.334,0.291c-0.085,0.121-0.147,0.261-0.186,0.418   s-0.055,0.324-0.05,0.5H68.95c-0.005-0.243,0.023-0.467,0.084-0.672c0.061-0.205,0.154-0.382,0.28-0.53s0.285-0.264,0.476-0.348   c0.191-0.083,0.415-0.125,0.671-0.125c0.207,0,0.399,0.028,0.577,0.085c0.178,0.056,0.333,0.14,0.466,0.25   c0.133,0.109,0.236,0.248,0.311,0.415c0.074,0.166,0.111,0.359,0.111,0.58c0,0.198-0.033,0.378-0.098,0.54   c-0.065,0.162-0.153,0.311-0.264,0.445c-0.11,0.135-0.236,0.26-0.378,0.375c-0.142,0.114-0.291,0.222-0.449,0.32   c-0.112,0.077-0.245,0.161-0.398,0.253c-0.153,0.093-0.3,0.195-0.442,0.308s-0.267,0.235-0.375,0.368s-0.176,0.277-0.203,0.435   h2.626v0.392H68.835z"/>
	<path d="M75.062,215.391c0.214,0.15,0.38,0.343,0.5,0.577s0.2,0.495,0.243,0.783c0.042,0.288,0.064,0.569,0.064,0.844   c0,0.278-0.021,0.562-0.064,0.851c-0.043,0.288-0.124,0.549-0.243,0.782c-0.119,0.234-0.286,0.426-0.5,0.574   s-0.494,0.223-0.84,0.223c-0.342,0-0.621-0.074-0.837-0.223s-0.384-0.34-0.503-0.574c-0.119-0.233-0.2-0.494-0.243-0.782   c-0.042-0.288-0.064-0.569-0.064-0.844c0-0.279,0.021-0.562,0.064-0.851c0.043-0.288,0.124-0.549,0.243-0.783   s0.287-0.427,0.503-0.577s0.495-0.227,0.837-0.227C74.568,215.165,74.848,215.241,75.062,215.391z M73.574,215.732   c-0.162,0.14-0.285,0.312-0.368,0.52c-0.083,0.207-0.139,0.433-0.166,0.675c-0.027,0.243-0.041,0.466-0.041,0.669   c0,0.207,0.014,0.431,0.041,0.671c0.027,0.241,0.082,0.466,0.166,0.676c0.083,0.209,0.206,0.384,0.368,0.522   c0.162,0.14,0.378,0.21,0.648,0.21s0.486-0.07,0.648-0.21c0.162-0.139,0.285-0.313,0.368-0.522c0.083-0.21,0.138-0.435,0.165-0.676   c0.027-0.24,0.041-0.464,0.041-0.671c0-0.203-0.013-0.426-0.041-0.669c-0.027-0.242-0.082-0.468-0.165-0.675   c-0.083-0.207-0.206-0.38-0.368-0.52s-0.378-0.209-0.648-0.209S73.736,215.592,73.574,215.732z"/>
</g>
<g>
	<path d="M90.623,217.878h3.375v0.392h-3.375V217.878z"/>
	<path d="M95.156,216.086c0.15-0.016,0.281-0.053,0.392-0.111c0.11-0.059,0.202-0.147,0.276-0.267s0.127-0.287,0.159-0.503h0.344   v4.725h-0.425v-3.51h-1.249v-0.304C94.837,216.112,95.005,216.102,95.156,216.086z"/>
	<path d="M100.468,215.391c0.214,0.15,0.38,0.343,0.499,0.577s0.2,0.495,0.243,0.783s0.064,0.569,0.064,0.844   c0,0.278-0.021,0.562-0.064,0.851s-0.124,0.549-0.243,0.782c-0.119,0.234-0.285,0.426-0.499,0.574s-0.494,0.223-0.841,0.223   c-0.342,0-0.621-0.074-0.837-0.223s-0.384-0.34-0.503-0.574c-0.119-0.233-0.2-0.494-0.243-0.782s-0.064-0.569-0.064-0.844   c0-0.279,0.021-0.562,0.064-0.851s0.124-0.549,0.243-0.783s0.287-0.427,0.503-0.577s0.495-0.227,0.837-0.227   C99.974,215.165,100.254,215.241,100.468,215.391z M98.979,215.732c-0.162,0.14-0.285,0.312-0.368,0.52s-0.139,0.433-0.165,0.675   c-0.027,0.243-0.041,0.466-0.041,0.669c0,0.207,0.014,0.431,0.041,0.671c0.026,0.241,0.082,0.466,0.165,0.676   c0.083,0.209,0.206,0.384,0.368,0.522c0.162,0.14,0.378,0.21,0.647,0.21c0.271,0,0.486-0.07,0.648-0.21   c0.162-0.139,0.284-0.313,0.368-0.522c0.083-0.21,0.138-0.435,0.165-0.676c0.027-0.24,0.04-0.464,0.04-0.671   c0-0.203-0.013-0.426-0.04-0.669c-0.027-0.242-0.082-0.468-0.165-0.675c-0.084-0.207-0.206-0.38-0.368-0.52   s-0.378-0.209-0.648-0.209C99.357,215.523,99.142,215.592,98.979,215.732z"/>
</g>
<g>
	<path d="M122.31,215.391c0.214,0.15,0.38,0.343,0.499,0.577s0.2,0.495,0.243,0.783s0.064,0.569,0.064,0.844   c0,0.278-0.021,0.562-0.064,0.851s-0.124,0.549-0.243,0.782c-0.119,0.234-0.285,0.426-0.499,0.574s-0.494,0.223-0.841,0.223   c-0.342,0-0.621-0.074-0.837-0.223s-0.384-0.34-0.503-0.574c-0.119-0.233-0.2-0.494-0.243-0.782   c-0.042-0.288-0.063-0.569-0.063-0.844c0-0.279,0.021-0.562,0.063-0.851c0.043-0.288,0.124-0.549,0.243-0.783   s0.287-0.427,0.503-0.577s0.495-0.227,0.837-0.227C121.815,215.165,122.096,215.241,122.31,215.391z M120.821,215.732   c-0.162,0.14-0.285,0.312-0.368,0.52s-0.139,0.433-0.165,0.675c-0.027,0.243-0.041,0.466-0.041,0.669   c0,0.207,0.014,0.431,0.041,0.671c0.026,0.241,0.082,0.466,0.165,0.676c0.083,0.209,0.206,0.384,0.368,0.522   c0.162,0.14,0.378,0.21,0.647,0.21c0.271,0,0.486-0.07,0.648-0.21c0.162-0.139,0.284-0.313,0.368-0.522   c0.083-0.21,0.138-0.435,0.165-0.676c0.027-0.24,0.04-0.464,0.04-0.671c0-0.203-0.013-0.426-0.04-0.669   c-0.027-0.242-0.082-0.468-0.165-0.675c-0.084-0.207-0.206-0.38-0.368-0.52s-0.378-0.209-0.648-0.209   C121.199,215.523,120.983,215.592,120.821,215.732z"/>
</g>
<g>
	<path d="M144.279,216.086c0.15-0.016,0.281-0.053,0.392-0.111s0.202-0.147,0.276-0.267s0.128-0.287,0.159-0.503h0.344v4.725h-0.425   v-3.51h-1.249v-0.304C143.961,216.112,144.129,216.102,144.279,216.086z"/>
	<path d="M149.592,215.391c0.214,0.15,0.38,0.343,0.499,0.577s0.2,0.495,0.243,0.783s0.064,0.569,0.064,0.844   c0,0.278-0.021,0.562-0.064,0.851s-0.124,0.549-0.243,0.782c-0.119,0.234-0.285,0.426-0.499,0.574s-0.494,0.223-0.841,0.223   c-0.342,0-0.621-0.074-0.837-0.223s-0.384-0.34-0.503-0.574c-0.119-0.233-0.2-0.494-0.243-0.782   c-0.042-0.288-0.063-0.569-0.063-0.844c0-0.279,0.021-0.562,0.063-0.851c0.043-0.288,0.124-0.549,0.243-0.783   s0.287-0.427,0.503-0.577s0.495-0.227,0.837-0.227C149.098,215.165,149.378,215.241,149.592,215.391z M148.104,215.732   c-0.162,0.14-0.285,0.312-0.368,0.52s-0.139,0.433-0.165,0.675c-0.027,0.243-0.041,0.466-0.041,0.669   c0,0.207,0.014,0.431,0.041,0.671c0.026,0.241,0.082,0.466,0.165,0.676c0.083,0.209,0.206,0.384,0.368,0.522   c0.162,0.14,0.378,0.21,0.647,0.21c0.271,0,0.486-0.07,0.648-0.21c0.162-0.139,0.284-0.313,0.368-0.522   c0.083-0.21,0.138-0.435,0.165-0.676c0.027-0.24,0.04-0.464,0.04-0.671c0-0.203-0.013-0.426-0.04-0.669   c-0.027-0.242-0.082-0.468-0.165-0.675c-0.084-0.207-0.206-0.38-0.368-0.52s-0.378-0.209-0.648-0.209   C148.481,215.523,148.266,215.592,148.104,215.732z"/>
</g>
<g>
	<path d="M168.77,219.93c0.005-0.233,0.045-0.44,0.121-0.621c0.077-0.18,0.178-0.342,0.305-0.485   c0.125-0.145,0.268-0.276,0.425-0.396s0.319-0.233,0.486-0.344c0.166-0.11,0.331-0.223,0.496-0.338   c0.164-0.114,0.312-0.237,0.441-0.367c0.131-0.131,0.229-0.265,0.294-0.402c0.065-0.137,0.098-0.3,0.098-0.489   c0-0.152-0.028-0.289-0.084-0.408c-0.057-0.119-0.133-0.221-0.229-0.304s-0.209-0.146-0.338-0.189   c-0.128-0.042-0.264-0.063-0.408-0.063c-0.193,0-0.358,0.036-0.496,0.107c-0.138,0.072-0.249,0.169-0.334,0.291   c-0.086,0.121-0.147,0.261-0.186,0.418s-0.056,0.324-0.051,0.5h-0.425c-0.005-0.243,0.023-0.467,0.084-0.672s0.154-0.382,0.28-0.53   s0.284-0.264,0.476-0.348c0.191-0.083,0.415-0.125,0.672-0.125c0.207,0,0.399,0.028,0.577,0.085c0.178,0.056,0.333,0.14,0.466,0.25   c0.133,0.109,0.236,0.248,0.311,0.415c0.074,0.166,0.111,0.359,0.111,0.58c0,0.198-0.033,0.378-0.098,0.54   c-0.065,0.162-0.153,0.311-0.264,0.445s-0.236,0.26-0.378,0.375c-0.142,0.114-0.291,0.222-0.449,0.32   c-0.112,0.077-0.245,0.161-0.398,0.253c-0.152,0.093-0.3,0.195-0.441,0.308s-0.267,0.235-0.375,0.368   c-0.107,0.133-0.176,0.277-0.202,0.435h2.626v0.392H168.77z"/>
	<path d="M174.996,215.391c0.214,0.15,0.381,0.343,0.5,0.577s0.2,0.495,0.243,0.783c0.042,0.288,0.063,0.569,0.063,0.844   c0,0.278-0.021,0.562-0.063,0.851c-0.043,0.288-0.124,0.549-0.243,0.782c-0.119,0.234-0.286,0.426-0.5,0.574   s-0.493,0.223-0.84,0.223c-0.342,0-0.621-0.074-0.837-0.223s-0.384-0.34-0.503-0.574c-0.119-0.233-0.2-0.494-0.243-0.782   s-0.064-0.569-0.064-0.844c0-0.279,0.021-0.562,0.064-0.851s0.124-0.549,0.243-0.783s0.287-0.427,0.503-0.577   s0.495-0.227,0.837-0.227C174.503,215.165,174.782,215.241,174.996,215.391z M173.508,215.732c-0.162,0.14-0.284,0.312-0.367,0.52   c-0.084,0.207-0.139,0.433-0.166,0.675c-0.026,0.243-0.04,0.466-0.04,0.669c0,0.207,0.014,0.431,0.04,0.671   c0.027,0.241,0.082,0.466,0.166,0.676c0.083,0.209,0.205,0.384,0.367,0.522c0.162,0.14,0.378,0.21,0.648,0.21   c0.27,0,0.485-0.07,0.647-0.21c0.162-0.139,0.285-0.313,0.368-0.522c0.083-0.21,0.139-0.435,0.165-0.676   c0.027-0.24,0.041-0.464,0.041-0.671c0-0.203-0.014-0.426-0.041-0.669c-0.026-0.242-0.082-0.468-0.165-0.675   s-0.206-0.38-0.368-0.52s-0.378-0.209-0.647-0.209C173.886,215.523,173.67,215.592,173.508,215.732z"/>
</g>
<g>
	<path d="M194.645,218.938c0.052,0.153,0.129,0.283,0.229,0.392c0.102,0.108,0.228,0.192,0.379,0.253   c0.15,0.061,0.32,0.092,0.509,0.092c0.158,0,0.309-0.022,0.453-0.068c0.144-0.045,0.271-0.112,0.384-0.202   c0.113-0.09,0.203-0.2,0.271-0.331c0.067-0.13,0.102-0.278,0.102-0.445c0-0.171-0.029-0.318-0.088-0.442   c-0.059-0.123-0.14-0.227-0.243-0.31c-0.104-0.084-0.224-0.146-0.361-0.187c-0.137-0.04-0.284-0.061-0.442-0.061h-0.357v-0.357   h0.357c0.108,0,0.22-0.017,0.335-0.051c0.114-0.033,0.218-0.085,0.311-0.155c0.092-0.069,0.167-0.158,0.226-0.267   s0.088-0.236,0.088-0.385c0-0.157-0.027-0.291-0.081-0.401s-0.128-0.203-0.223-0.277s-0.204-0.128-0.327-0.161   c-0.124-0.034-0.258-0.051-0.402-0.051c-0.175,0-0.33,0.029-0.466,0.088c-0.135,0.059-0.248,0.141-0.341,0.246   c-0.092,0.105-0.16,0.231-0.205,0.378c-0.046,0.146-0.065,0.307-0.062,0.482h-0.425c0-0.225,0.035-0.432,0.104-0.621   c0.069-0.188,0.169-0.352,0.297-0.489c0.129-0.137,0.285-0.245,0.47-0.324c0.184-0.078,0.391-0.118,0.62-0.118   c0.185,0,0.365,0.024,0.54,0.071c0.176,0.047,0.332,0.119,0.47,0.216c0.137,0.097,0.247,0.221,0.331,0.371   c0.083,0.151,0.124,0.332,0.124,0.544c0,0.256-0.068,0.479-0.205,0.668c-0.138,0.189-0.335,0.315-0.591,0.378v0.014   c0.311,0.05,0.55,0.179,0.719,0.388c0.169,0.21,0.253,0.47,0.253,0.78c0,0.233-0.044,0.439-0.132,0.617s-0.205,0.327-0.354,0.449   c-0.148,0.121-0.321,0.212-0.52,0.273c-0.198,0.061-0.405,0.091-0.621,0.091c-0.243,0-0.467-0.036-0.671-0.108   c-0.205-0.071-0.381-0.175-0.527-0.311c-0.146-0.135-0.256-0.301-0.33-0.499s-0.103-0.425-0.085-0.682h0.426   C194.572,218.614,194.593,218.786,194.645,218.938z"/>
	<path d="M200.402,215.391c0.214,0.15,0.381,0.343,0.5,0.577s0.2,0.495,0.243,0.783c0.042,0.288,0.063,0.569,0.063,0.844   c0,0.278-0.021,0.562-0.063,0.851c-0.043,0.288-0.124,0.549-0.243,0.782c-0.119,0.234-0.286,0.426-0.5,0.574   s-0.493,0.223-0.84,0.223c-0.342,0-0.621-0.074-0.837-0.223s-0.384-0.34-0.503-0.574c-0.119-0.233-0.2-0.494-0.243-0.782   s-0.064-0.569-0.064-0.844c0-0.279,0.021-0.562,0.064-0.851s0.124-0.549,0.243-0.783s0.287-0.427,0.503-0.577   s0.495-0.227,0.837-0.227C199.909,215.165,200.188,215.241,200.402,215.391z M198.914,215.732c-0.162,0.14-0.284,0.312-0.367,0.52   c-0.084,0.207-0.139,0.433-0.166,0.675c-0.026,0.243-0.04,0.466-0.04,0.669c0,0.207,0.014,0.431,0.04,0.671   c0.027,0.241,0.082,0.466,0.166,0.676c0.083,0.209,0.205,0.384,0.367,0.522c0.162,0.14,0.378,0.21,0.648,0.21   c0.27,0,0.485-0.07,0.647-0.21c0.162-0.139,0.285-0.313,0.368-0.522c0.083-0.21,0.139-0.435,0.165-0.676   c0.027-0.24,0.041-0.464,0.041-0.671c0-0.203-0.014-0.426-0.041-0.669c-0.026-0.242-0.082-0.468-0.165-0.675   s-0.206-0.38-0.368-0.52s-0.378-0.209-0.647-0.209C199.292,215.523,199.076,215.592,198.914,215.732z"/>
</g>
<g>
	<path d="M218.728,215.206h0.385v3.192h0.709v0.358h-0.709v1.174h-0.392v-1.174h-2.18v-0.412L218.728,215.206z M218.721,215.827   h-0.014l-1.781,2.571h1.795V215.827z"/>
	<path d="M222.808,215.391c0.214,0.15,0.381,0.343,0.5,0.577s0.2,0.495,0.243,0.783c0.042,0.288,0.063,0.569,0.063,0.844   c0,0.278-0.021,0.562-0.063,0.851c-0.043,0.288-0.124,0.549-0.243,0.782c-0.119,0.234-0.286,0.426-0.5,0.574   s-0.493,0.223-0.84,0.223c-0.342,0-0.621-0.074-0.837-0.223s-0.384-0.34-0.503-0.574c-0.119-0.233-0.2-0.494-0.243-0.782   s-0.064-0.569-0.064-0.844c0-0.279,0.021-0.562,0.064-0.851s0.124-0.549,0.243-0.783s0.287-0.427,0.503-0.577   s0.495-0.227,0.837-0.227C222.314,215.165,222.594,215.241,222.808,215.391z M221.319,215.732c-0.162,0.14-0.284,0.312-0.367,0.52   c-0.084,0.207-0.139,0.433-0.166,0.675c-0.026,0.243-0.04,0.466-0.04,0.669c0,0.207,0.014,0.431,0.04,0.671   c0.027,0.241,0.082,0.466,0.166,0.676c0.083,0.209,0.205,0.384,0.367,0.522c0.162,0.14,0.378,0.21,0.648,0.21   c0.27,0,0.485-0.07,0.647-0.21c0.162-0.139,0.285-0.313,0.368-0.522c0.083-0.21,0.139-0.435,0.165-0.676   c0.027-0.24,0.041-0.464,0.041-0.671c0-0.203-0.014-0.426-0.041-0.669c-0.026-0.242-0.082-0.468-0.165-0.675   s-0.206-0.38-0.368-0.52s-0.378-0.209-0.647-0.209C221.697,215.523,221.481,215.592,221.319,215.732z"/>
	<path d="M225.872,215.263c0.138,0.064,0.249,0.155,0.334,0.27c0.086,0.115,0.149,0.25,0.189,0.405s0.061,0.322,0.061,0.503   c0,0.18-0.021,0.348-0.061,0.503s-0.104,0.29-0.189,0.404c-0.085,0.115-0.196,0.205-0.334,0.271   c-0.137,0.065-0.3,0.098-0.489,0.098c-0.188,0-0.352-0.032-0.489-0.098s-0.249-0.155-0.334-0.271   c-0.086-0.114-0.148-0.249-0.189-0.404c-0.04-0.155-0.061-0.323-0.061-0.503c0-0.181,0.021-0.348,0.061-0.503   c0.041-0.155,0.104-0.29,0.189-0.405c0.085-0.114,0.196-0.205,0.334-0.27c0.138-0.065,0.301-0.099,0.489-0.099   C225.572,215.165,225.735,215.198,225.872,215.263z M225.028,215.56c-0.092,0.061-0.165,0.14-0.219,0.236   c-0.055,0.097-0.092,0.202-0.111,0.317c-0.021,0.114-0.03,0.226-0.03,0.334c0,0.107,0.01,0.218,0.03,0.33   c0.02,0.113,0.057,0.217,0.111,0.311c0.054,0.095,0.127,0.173,0.219,0.233c0.093,0.061,0.211,0.091,0.354,0.091   c0.14,0,0.256-0.03,0.348-0.091c0.093-0.061,0.165-0.139,0.22-0.233c0.054-0.094,0.092-0.197,0.114-0.311   c0.022-0.112,0.034-0.223,0.034-0.33c0-0.108-0.012-0.22-0.034-0.334c-0.022-0.115-0.061-0.221-0.114-0.317   c-0.055-0.097-0.127-0.176-0.22-0.236c-0.092-0.061-0.208-0.092-0.348-0.092C225.239,215.468,225.121,215.5,225.028,215.56z    M228.502,215.037l-3.052,5.116h-0.323l3.058-5.116H228.502z M228.836,217.578c0.137,0.065,0.248,0.155,0.334,0.271   c0.085,0.114,0.148,0.25,0.188,0.405c0.041,0.155,0.062,0.322,0.062,0.503c0,0.18-0.021,0.348-0.062,0.503   c-0.04,0.154-0.104,0.29-0.188,0.404c-0.086,0.115-0.197,0.204-0.334,0.267c-0.138,0.063-0.301,0.095-0.489,0.095   c-0.189,0-0.353-0.031-0.49-0.095c-0.137-0.062-0.248-0.151-0.334-0.267c-0.085-0.114-0.148-0.25-0.188-0.404   c-0.041-0.155-0.061-0.323-0.061-0.503c0-0.181,0.02-0.348,0.061-0.503c0.04-0.155,0.104-0.291,0.188-0.405   c0.086-0.115,0.197-0.205,0.334-0.271c0.138-0.064,0.301-0.098,0.49-0.098C228.535,217.48,228.698,217.513,228.836,217.578z    M227.992,217.875c-0.093,0.061-0.166,0.139-0.22,0.235c-0.054,0.098-0.091,0.203-0.111,0.317c-0.021,0.115-0.03,0.227-0.03,0.334   c0,0.108,0.01,0.219,0.03,0.331s0.058,0.216,0.111,0.311s0.127,0.172,0.22,0.233c0.092,0.061,0.21,0.091,0.354,0.091   c0.139,0,0.255-0.03,0.348-0.091c0.092-0.062,0.165-0.139,0.219-0.233s0.093-0.198,0.115-0.311s0.033-0.223,0.033-0.331   c0-0.107-0.011-0.219-0.033-0.334c-0.022-0.114-0.062-0.22-0.115-0.317c-0.054-0.097-0.127-0.175-0.219-0.235   c-0.093-0.062-0.209-0.092-0.348-0.092C228.202,217.784,228.084,217.814,227.992,217.875z"/>
</g>
<g>
	<path d="M208.644,113.951c0.065,0.125,0.151,0.227,0.259,0.304c0.107,0.078,0.234,0.135,0.379,0.173   c0.146,0.037,0.295,0.056,0.45,0.056c0.104,0,0.218-0.009,0.337-0.026c0.12-0.017,0.233-0.051,0.338-0.101   c0.105-0.05,0.192-0.119,0.263-0.206c0.07-0.088,0.104-0.199,0.104-0.334c0-0.146-0.046-0.263-0.139-0.353   c-0.092-0.09-0.214-0.165-0.363-0.226c-0.15-0.06-0.32-0.112-0.51-0.157c-0.19-0.045-0.383-0.095-0.578-0.149   c-0.2-0.051-0.395-0.111-0.585-0.185c-0.189-0.072-0.359-0.166-0.51-0.281c-0.15-0.114-0.271-0.259-0.364-0.431   c-0.092-0.173-0.139-0.382-0.139-0.626c0-0.275,0.06-0.515,0.177-0.717s0.271-0.371,0.461-0.506c0.19-0.136,0.405-0.235,0.646-0.3   c0.239-0.065,0.479-0.098,0.72-0.098c0.28,0,0.549,0.031,0.807,0.094c0.257,0.062,0.485,0.163,0.686,0.304   c0.2,0.14,0.359,0.318,0.477,0.536s0.176,0.481,0.176,0.791h-1.14c-0.01-0.16-0.044-0.292-0.102-0.397   c-0.058-0.104-0.134-0.188-0.229-0.247c-0.095-0.061-0.204-0.103-0.326-0.128s-0.256-0.037-0.401-0.037   c-0.095,0-0.189,0.01-0.285,0.029c-0.095,0.021-0.181,0.056-0.259,0.105c-0.077,0.05-0.141,0.112-0.19,0.188   c-0.051,0.075-0.075,0.17-0.075,0.285c0,0.104,0.02,0.189,0.06,0.255c0.04,0.064,0.119,0.125,0.236,0.18   c0.117,0.056,0.28,0.11,0.487,0.165c0.208,0.056,0.479,0.125,0.814,0.21c0.1,0.021,0.238,0.057,0.416,0.109   c0.178,0.052,0.354,0.136,0.528,0.251s0.326,0.269,0.454,0.461c0.127,0.192,0.191,0.438,0.191,0.739   c0,0.245-0.048,0.472-0.143,0.682c-0.095,0.211-0.236,0.392-0.424,0.544c-0.188,0.153-0.42,0.271-0.697,0.356   s-0.6,0.128-0.964,0.128c-0.295,0-0.581-0.037-0.859-0.109c-0.277-0.072-0.522-0.186-0.734-0.341   c-0.213-0.155-0.382-0.353-0.507-0.593s-0.185-0.524-0.18-0.854h1.14C208.546,113.673,208.579,113.826,208.644,113.951z"/>
	<path d="M214.888,115.21c-0.243,0.105-0.517,0.158-0.821,0.158c-0.24,0-0.467-0.035-0.679-0.105   c-0.213-0.07-0.396-0.174-0.552-0.312c-0.155-0.137-0.277-0.305-0.367-0.502s-0.135-0.424-0.135-0.679   c0-0.19,0.032-0.364,0.097-0.521c0.065-0.157,0.154-0.3,0.267-0.428c0.112-0.127,0.241-0.241,0.387-0.341   c0.145-0.101,0.295-0.188,0.449-0.263c-0.145-0.175-0.266-0.35-0.363-0.525c-0.098-0.175-0.146-0.38-0.146-0.614   c0-0.186,0.039-0.353,0.116-0.503s0.182-0.278,0.312-0.386s0.278-0.19,0.446-0.248c0.167-0.058,0.341-0.086,0.521-0.086   c0.204,0,0.396,0.027,0.573,0.082c0.178,0.056,0.333,0.137,0.465,0.244c0.133,0.107,0.237,0.241,0.315,0.401   c0.077,0.16,0.116,0.345,0.116,0.555c0,0.315-0.092,0.58-0.273,0.795c-0.183,0.215-0.409,0.396-0.68,0.54l0.69,0.848   c0.055-0.1,0.098-0.204,0.128-0.312c0.029-0.107,0.052-0.216,0.067-0.326h0.922c-0.024,0.24-0.08,0.473-0.165,0.697   c-0.085,0.226-0.202,0.433-0.353,0.623l1.088,1.268h-1.305l-0.436-0.533C215.358,114.949,215.13,115.106,214.888,115.21z    M213.818,113.05c-0.09,0.056-0.17,0.12-0.24,0.195c-0.069,0.075-0.126,0.157-0.168,0.248c-0.043,0.09-0.064,0.189-0.064,0.3   c0,0.095,0.021,0.187,0.064,0.273c0.042,0.088,0.099,0.163,0.168,0.226c0.07,0.062,0.151,0.112,0.244,0.149   c0.093,0.038,0.188,0.057,0.289,0.057c0.189,0,0.355-0.044,0.498-0.132c0.143-0.087,0.276-0.201,0.401-0.341l-0.915-1.117   C214.001,112.949,213.908,112.996,213.818,113.05z M214.812,110.718c-0.098-0.1-0.212-0.15-0.342-0.15s-0.242,0.044-0.337,0.132   c-0.096,0.087-0.143,0.201-0.143,0.341c0,0.17,0.045,0.315,0.135,0.436s0.185,0.242,0.285,0.367   c0.149-0.095,0.278-0.197,0.386-0.308c0.107-0.109,0.162-0.263,0.162-0.457C214.959,110.938,214.91,110.818,214.812,110.718z"/>
	<path d="M220.164,109.916c0.335,0,0.619,0.049,0.854,0.146s0.427,0.227,0.574,0.387c0.147,0.159,0.255,0.342,0.322,0.547   s0.102,0.418,0.102,0.638c0,0.215-0.034,0.427-0.102,0.634s-0.175,0.392-0.322,0.551c-0.147,0.16-0.339,0.289-0.574,0.387   s-0.52,0.146-0.854,0.146h-1.238v1.92h-1.177v-5.355H220.164z M219.841,112.436c0.136,0,0.266-0.01,0.391-0.03   c0.125-0.02,0.234-0.059,0.33-0.116c0.095-0.058,0.171-0.139,0.229-0.244c0.058-0.104,0.086-0.242,0.086-0.412   s-0.028-0.308-0.086-0.412c-0.058-0.105-0.134-0.187-0.229-0.244c-0.096-0.058-0.205-0.097-0.33-0.116s-0.255-0.03-0.391-0.03   h-0.915v1.605H219.841z"/>
	<path d="M225.901,110.898l-0.21,1.192l0.015,0.016c0.145-0.146,0.3-0.249,0.465-0.312s0.353-0.094,0.562-0.094   c0.26,0,0.49,0.048,0.69,0.143c0.199,0.095,0.368,0.223,0.506,0.383s0.242,0.349,0.315,0.566c0.072,0.217,0.108,0.448,0.108,0.693   c0,0.27-0.053,0.521-0.157,0.754c-0.105,0.232-0.246,0.434-0.424,0.604s-0.384,0.302-0.619,0.394   c-0.234,0.093-0.484,0.137-0.75,0.132c-0.255,0-0.498-0.034-0.731-0.102c-0.232-0.067-0.438-0.171-0.618-0.312   c-0.18-0.14-0.324-0.313-0.432-0.521c-0.107-0.207-0.163-0.448-0.169-0.724h1.065c0.025,0.24,0.115,0.432,0.271,0.574   c0.154,0.143,0.352,0.214,0.592,0.214c0.141,0,0.267-0.029,0.379-0.087c0.112-0.057,0.207-0.132,0.285-0.225   c0.077-0.093,0.138-0.2,0.18-0.322c0.043-0.123,0.064-0.249,0.064-0.379c0-0.135-0.021-0.263-0.061-0.383s-0.1-0.225-0.18-0.314   s-0.176-0.16-0.285-0.21c-0.11-0.05-0.237-0.075-0.383-0.075c-0.189,0-0.345,0.033-0.465,0.102   c-0.12,0.067-0.232,0.173-0.338,0.318h-0.96l0.518-2.902h2.933v0.877H225.901z"/>
	<path d="M228.8,111.337c0.103-0.348,0.241-0.627,0.416-0.837s0.379-0.359,0.611-0.45c0.232-0.09,0.479-0.135,0.739-0.135   c0.265,0,0.514,0.045,0.746,0.135c0.232,0.091,0.438,0.24,0.615,0.45c0.177,0.21,0.317,0.489,0.42,0.837   c0.102,0.348,0.153,0.775,0.153,1.286c0,0.524-0.052,0.964-0.153,1.316c-0.103,0.353-0.243,0.634-0.42,0.844   c-0.178,0.21-0.383,0.359-0.615,0.449c-0.232,0.091-0.481,0.136-0.746,0.136c-0.261,0-0.507-0.045-0.739-0.136   c-0.232-0.09-0.437-0.239-0.611-0.449s-0.313-0.491-0.416-0.844s-0.153-0.792-0.153-1.316   C228.646,112.113,228.697,111.685,228.8,111.337z M229.726,113.167c0.011,0.212,0.042,0.417,0.094,0.614   c0.053,0.198,0.137,0.366,0.252,0.507c0.114,0.14,0.279,0.21,0.495,0.21c0.22,0,0.389-0.07,0.506-0.21   c0.117-0.141,0.202-0.309,0.255-0.507c0.053-0.197,0.084-0.402,0.094-0.614c0.01-0.213,0.015-0.395,0.015-0.544   c0-0.09-0.001-0.199-0.003-0.326c-0.003-0.128-0.013-0.259-0.03-0.395c-0.018-0.135-0.043-0.269-0.075-0.4   c-0.032-0.133-0.081-0.252-0.146-0.356c-0.064-0.105-0.147-0.19-0.247-0.255c-0.101-0.065-0.223-0.098-0.367-0.098   c-0.146,0-0.267,0.032-0.364,0.098c-0.098,0.064-0.178,0.149-0.24,0.255c-0.062,0.104-0.111,0.224-0.146,0.356   c-0.035,0.132-0.061,0.266-0.075,0.4c-0.016,0.136-0.024,0.267-0.026,0.395c-0.003,0.127-0.004,0.236-0.004,0.326   C229.711,112.773,229.716,112.955,229.726,113.167z"/>
	<path d="M232.97,111.337c0.103-0.348,0.241-0.627,0.416-0.837s0.379-0.359,0.611-0.45c0.232-0.09,0.479-0.135,0.739-0.135   c0.265,0,0.514,0.045,0.746,0.135c0.232,0.091,0.438,0.24,0.615,0.45c0.177,0.21,0.317,0.489,0.42,0.837   c0.102,0.348,0.153,0.775,0.153,1.286c0,0.524-0.052,0.964-0.153,1.316c-0.103,0.353-0.243,0.634-0.42,0.844   c-0.178,0.21-0.383,0.359-0.615,0.449c-0.232,0.091-0.481,0.136-0.746,0.136c-0.261,0-0.507-0.045-0.739-0.136   c-0.232-0.09-0.437-0.239-0.611-0.449s-0.313-0.491-0.416-0.844s-0.153-0.792-0.153-1.316   C232.816,112.113,232.867,111.685,232.97,111.337z M233.896,113.167c0.011,0.212,0.042,0.417,0.094,0.614   c0.053,0.198,0.137,0.366,0.252,0.507c0.114,0.14,0.279,0.21,0.495,0.21c0.22,0,0.389-0.07,0.506-0.21   c0.117-0.141,0.202-0.309,0.255-0.507c0.053-0.197,0.084-0.402,0.094-0.614c0.01-0.213,0.015-0.395,0.015-0.544   c0-0.09-0.001-0.199-0.003-0.326c-0.003-0.128-0.013-0.259-0.03-0.395c-0.018-0.135-0.043-0.269-0.075-0.4   c-0.032-0.133-0.081-0.252-0.146-0.356c-0.064-0.105-0.147-0.19-0.247-0.255c-0.101-0.065-0.223-0.098-0.367-0.098   c-0.146,0-0.267,0.032-0.364,0.098c-0.098,0.064-0.178,0.149-0.24,0.255c-0.062,0.104-0.111,0.224-0.146,0.356   c-0.035,0.132-0.061,0.266-0.075,0.4c-0.016,0.136-0.024,0.267-0.026,0.395c-0.003,0.127-0.004,0.236-0.004,0.326   C233.881,112.773,233.886,112.955,233.896,113.167z"/>
</g>
<g>
	<path d="M103.396,11.081c-0.255,0.107-0.513,0.161-0.772,0.161c-0.41,0-0.778-0.071-1.106-0.214   c-0.327-0.143-0.604-0.339-0.828-0.589c-0.226-0.25-0.397-0.543-0.518-0.881c-0.12-0.337-0.18-0.701-0.18-1.091   c0-0.4,0.06-0.771,0.18-1.114c0.12-0.343,0.292-0.642,0.518-0.896c0.225-0.255,0.501-0.455,0.828-0.6   c0.328-0.145,0.696-0.217,1.106-0.217c0.275,0,0.541,0.041,0.799,0.124s0.49,0.204,0.697,0.364c0.208,0.16,0.379,0.357,0.515,0.593   c0.135,0.235,0.217,0.505,0.247,0.81h-1.125c-0.07-0.3-0.205-0.525-0.405-0.675s-0.442-0.225-0.728-0.225   c-0.265,0-0.49,0.051-0.675,0.154s-0.335,0.24-0.45,0.413s-0.198,0.369-0.251,0.589s-0.079,0.447-0.079,0.683   c0,0.225,0.026,0.443,0.079,0.656c0.053,0.212,0.136,0.404,0.251,0.574s0.266,0.306,0.45,0.409s0.41,0.154,0.675,0.154   c0.391,0,0.691-0.099,0.904-0.296c0.212-0.198,0.336-0.484,0.371-0.859h-1.186V8.227h2.25v2.895h-0.75l-0.119-0.607   C103.884,10.784,103.65,10.973,103.396,11.081z"/>
	<path d="M105.826,8.343c0.095-0.252,0.229-0.467,0.404-0.645c0.175-0.177,0.385-0.315,0.63-0.413   c0.245-0.097,0.521-0.146,0.825-0.146s0.581,0.049,0.829,0.146c0.247,0.098,0.458,0.235,0.634,0.413   c0.175,0.178,0.31,0.393,0.404,0.645c0.096,0.252,0.143,0.534,0.143,0.844s-0.047,0.59-0.143,0.84   c-0.095,0.25-0.229,0.464-0.404,0.642c-0.176,0.177-0.387,0.313-0.634,0.409c-0.248,0.095-0.524,0.143-0.829,0.143   s-0.58-0.048-0.825-0.143c-0.245-0.095-0.455-0.231-0.63-0.409c-0.175-0.178-0.31-0.391-0.404-0.642   c-0.096-0.25-0.143-0.53-0.143-0.84S105.73,8.595,105.826,8.343z M106.793,9.64c0.03,0.148,0.081,0.28,0.154,0.397   c0.072,0.118,0.168,0.211,0.288,0.281c0.12,0.07,0.271,0.105,0.45,0.105s0.331-0.035,0.454-0.105   c0.122-0.07,0.22-0.164,0.292-0.281c0.072-0.117,0.124-0.25,0.154-0.397c0.029-0.147,0.045-0.298,0.045-0.454   c0-0.155-0.016-0.308-0.045-0.458c-0.03-0.15-0.082-0.282-0.154-0.397c-0.072-0.115-0.17-0.208-0.292-0.281   c-0.123-0.072-0.274-0.109-0.454-0.109s-0.33,0.037-0.45,0.109c-0.12,0.073-0.216,0.167-0.288,0.281   c-0.073,0.115-0.124,0.248-0.154,0.397c-0.029,0.15-0.045,0.303-0.045,0.458C106.748,9.342,106.764,9.493,106.793,9.64z"/>
	<path d="M111.48,5.767v5.355h-1.064V5.767H111.48z"/>
	<path d="M115.073,10.626c-0.125,0.21-0.289,0.361-0.491,0.454c-0.202,0.092-0.432,0.139-0.687,0.139   c-0.29,0-0.545-0.057-0.765-0.169s-0.401-0.265-0.544-0.458s-0.25-0.414-0.322-0.664s-0.108-0.51-0.108-0.78   c0-0.26,0.036-0.511,0.108-0.753c0.072-0.243,0.18-0.457,0.322-0.642c0.143-0.185,0.321-0.333,0.536-0.446   c0.215-0.112,0.465-0.168,0.75-0.168c0.23,0,0.449,0.049,0.656,0.146c0.208,0.098,0.371,0.242,0.491,0.432h0.016v-1.95h1.064v5.355   h-1.013v-0.495H115.073z M115.028,8.71c-0.03-0.147-0.081-0.278-0.153-0.39c-0.073-0.112-0.167-0.204-0.281-0.274   c-0.115-0.07-0.261-0.105-0.436-0.105s-0.322,0.035-0.442,0.105c-0.12,0.07-0.217,0.163-0.289,0.278   c-0.072,0.115-0.125,0.246-0.157,0.394s-0.049,0.301-0.049,0.461c0,0.15,0.018,0.3,0.053,0.45c0.035,0.15,0.091,0.284,0.169,0.401   c0.077,0.118,0.175,0.212,0.292,0.285c0.117,0.072,0.259,0.109,0.424,0.109c0.175,0,0.321-0.035,0.438-0.105   c0.118-0.07,0.212-0.164,0.281-0.281c0.07-0.117,0.12-0.251,0.15-0.401s0.045-0.305,0.045-0.465   C115.073,9.012,115.059,8.858,115.028,8.71z"/>
</g>
<line fill="none" stroke="#000000" stroke-width="1.5" stroke-miterlimit="10" x1="19.847" y1="105.08" x2="226.127" y2="105.08"/>
<line fill="none" stroke="#000000" stroke-width="0.5" stroke-miterlimit="10" x1="121.54" y1="208.219" x2="121.54" y2="1.939"/>
<line fill="none" stroke="#000000" stroke-width="1.5" stroke-miterlimit="10" x1="121.54" y1="208.219" x2="121.54" y2="1.939"/>
<line fill="none" stroke="#F47920" stroke-width="2.5" stroke-linecap="round" stroke-linejoin="round" stroke-miterlimit="10" x1="28.179" y1="75.356" x2="216.045" y2="99.181"/>
<path fill="#7A9AA8" d="M138.508,24.031c0,1.511-1.22,2.72-2.72,2.72c-1.501,0-2.72-1.208-2.72-2.72c0-1.5,1.219-2.72,2.72-2.72  C137.288,21.312,138.508,22.531,138.508,24.031z"/>
<path fill="#7A9AA8" d="M162.834,25.675c0,1.511-1.22,2.72-2.72,2.72s-2.72-1.209-2.72-2.72c0-1.5,1.22-2.72,2.72-2.72  S162.834,24.175,162.834,25.675z"/>
<path fill="#7A9AA8" d="M164.9,43.646c0,1.511-1.22,2.72-2.72,2.72s-2.72-1.209-2.72-2.72c0-1.5,1.22-2.72,2.72-2.72  S164.9,42.146,164.9,43.646z"/>
<path fill="#7A9AA8" d="M192.075,40.613c0,1.511-1.219,2.72-2.72,2.72c-1.5,0-2.719-1.208-2.719-2.72c0-1.5,1.219-2.72,2.719-2.72  C190.856,37.893,192.075,39.113,192.075,40.613z"/>
<path fill="#7A9AA8" d="M197.335,49.27c0,1.511-1.219,2.72-2.72,2.72c-1.5,0-2.72-1.208-2.72-2.72c0-1.5,1.22-2.72,2.72-2.72  C196.116,46.55,197.335,47.769,197.335,49.27z"/>
<path fill="#7A9AA8" d="M150.285,59.46c0,1.511-1.219,2.72-2.72,2.72c-1.5,0-2.72-1.209-2.72-2.72c0-1.5,1.22-2.72,2.72-2.72  C149.066,56.741,150.285,57.96,150.285,59.46z"/>
<path fill="#7A9AA8" d="M136.808,59.292c0,1.511-1.22,2.72-2.72,2.72s-2.72-1.208-2.72-2.72c0-1.5,1.22-2.72,2.72-2.72  S136.808,57.792,136.808,59.292z"/>
<path fill="#7A9AA8" d="M67.933,43.667c0,1.511-1.22,2.72-2.72,2.72c-1.5,0-2.72-1.208-2.72-2.72c0-1.5,1.219-2.72,2.72-2.72  C66.713,40.947,67.933,42.167,67.933,43.667z"/>
<path fill="#7A9AA8" d="M29.683,94.917c0,1.511-1.22,2.72-2.72,2.72c-1.5,0-2.72-1.208-2.72-2.72c0-1.5,1.219-2.72,2.72-2.72  C28.463,92.197,29.683,93.417,29.683,94.917z"/>
<path fill="#7A9AA8" d="M94.058,101.542c0,1.511-1.22,2.72-2.72,2.72c-1.5,0-2.72-1.209-2.72-2.72c0-1.5,1.219-2.72,2.72-2.72  C92.838,98.822,94.058,100.042,94.058,101.542z"/>
<path fill="#7A9AA8" d="M100.683,120.667c0,1.511-1.22,2.72-2.72,2.72c-1.5,0-2.72-1.209-2.72-2.72c0-1.5,1.219-2.72,2.72-2.72  C99.463,117.947,100.683,119.167,100.683,120.667z"/>
<path fill="#7A9AA8" d="M116.308,114.417c0,1.511-1.22,2.72-2.72,2.72s-2.72-1.209-2.72-2.72c0-1.5,1.22-2.72,2.72-2.72  S116.308,112.917,116.308,114.417z"/>
<path fill="#7A9AA8" d="M127.933,110.647c0,1.511-1.22,2.72-2.72,2.72s-2.72-1.209-2.72-2.72c0-1.5,1.22-2.72,2.72-2.72  S127.933,109.147,127.933,110.647z"/>
<path fill="#7A9AA8" d="M127.722,105.147c0,1.511-1.22,2.72-2.72,2.72s-2.72-1.209-2.72-2.72c0-1.5,1.22-2.72,2.72-2.72  S127.722,103.647,127.722,105.147z"/>
<path fill="#7A9AA8" d="M129.097,85.272c0,1.511-1.22,2.72-2.72,2.72s-2.72-1.208-2.72-2.72c0-1.5,1.22-2.72,2.72-2.72  S129.097,83.772,129.097,85.272z"/>
<path fill="#7A9AA8" d="M165.097,82.647c0,1.511-1.22,2.72-2.72,2.72s-2.72-1.208-2.72-2.72c0-1.5,1.22-2.72,2.72-2.72  S165.097,81.147,165.097,82.647z"/>
<path fill="#7A9AA8" d="M152.847,93.397c0,1.511-1.22,2.72-2.72,2.72s-2.72-1.208-2.72-2.72c0-1.5,1.22-2.72,2.72-2.72  S152.847,91.897,152.847,93.397z"/>
<path fill="#7A9AA8" d="M159.597,104.76c0,1.511-1.22,2.72-2.72,2.72s-2.72-1.209-2.72-2.72c0-1.5,1.22-2.72,2.72-2.72  S159.597,103.26,159.597,104.76z"/>
<path fill="#7A9AA8" d="M144.722,120.335c0,1.511-1.22,2.72-2.72,2.72s-2.72-1.209-2.72-2.72c0-1.5,1.22-2.72,2.72-2.72  S144.722,118.835,144.722,120.335z"/>
<path fill="#7A9AA8" d="M167.269,145.585c0,1.511-1.22,2.72-2.72,2.72s-2.72-1.209-2.72-2.72c0-1.5,1.22-2.72,2.72-2.72  S167.269,144.085,167.269,145.585z"/>
<path fill="#7A9AA8" d="M209.144,162.71c0,1.511-1.22,2.72-2.72,2.72s-2.72-1.209-2.72-2.72c0-1.5,1.22-2.72,2.72-2.72  S209.144,161.21,209.144,162.71z"/>
<path fill="#7A9AA8" d="M183.269,117.005c0,1.511-1.22,2.72-2.72,2.72s-2.72-1.209-2.72-2.72c0-1.5,1.22-2.72,2.72-2.72  S183.269,115.505,183.269,117.005z"/>
<path fill="#7A9AA8" d="M177.644,103.505c0,1.511-1.22,2.72-2.72,2.72s-2.72-1.209-2.72-2.72c0-1.5,1.22-2.72,2.72-2.72  S177.644,102.005,177.644,103.505z"/>
<path fill="#7A9AA8" d="M197.269,103.005c0,1.511-1.22,2.72-2.72,2.72s-2.72-1.209-2.72-2.72c0-1.5,1.22-2.72,2.72-2.72  S197.269,101.505,197.269,103.005z"/>
<path fill="#7A9AA8" d="M207.644,104.3c0,1.511-1.22,2.72-2.72,2.72s-2.72-1.209-2.72-2.72c0-1.5,1.22-2.72,2.72-2.72  S207.644,102.8,207.644,104.3z"/>
<path fill="#7A9AA8" d="M204.675,110.731c0,1.511-1.22,2.72-2.72,2.72s-2.72-1.209-2.72-2.72c0-1.5,1.22-2.72,2.72-2.72  S204.675,109.231,204.675,110.731z"/>
<path fill="#7A9AA8" d="M202.105,126.731c0,1.511-1.22,2.72-2.72,2.72c-1.501,0-2.72-1.209-2.72-2.72c0-1.5,1.219-2.72,2.72-2.72  C200.886,124.011,202.105,125.231,202.105,126.731z"/>
<path fill="#7A9AA8" d="M220.533,103.145c0,1.511-1.22,2.72-2.72,2.72s-2.72-1.209-2.72-2.72c0-1.5,1.22-2.72,2.72-2.72  S220.533,101.645,220.533,103.145z"/>
<polyline fill="none" stroke="#000000" stroke-width="0.5" stroke-linecap="square" stroke-miterlimit="10" points="19.847,1.939   19.847,208.219 223.092,208.219 "/>
<line fill="none" stroke="#000000" stroke-width="0.5" stroke-linecap="square" stroke-miterlimit="10" x1="19.847" y1="1.939" x2="16.692" y2="1.939"/>
<line fill="none" stroke="#000000" stroke-width="0.5" stroke-linecap="square" stroke-miterlimit="10" x1="19.847" y1="27.725" x2="16.692" y2="27.725"/>
<line fill="none" stroke="#000000" stroke-width="0.5" stroke-linecap="square" stroke-miterlimit="10" x1="19.847" y1="53.509" x2="16.692" y2="53.509"/>
<line fill="none" stroke="#000000" stroke-width="0.5" stroke-linecap="square" stroke-miterlimit="10" x1="19.847" y1="79.294" x2="16.692" y2="79.294"/>
<line fill="none" stroke="#000000" stroke-width="0.5" stroke-linecap="square" stroke-miterlimit="10" x1="19.847" y1="105.08" x2="16.692" y2="105.08"/>
<line fill="none" stroke="#000000" stroke-width="0.5" stroke-linecap="square" stroke-miterlimit="10" x1="19.847" y1="130.865" x2="16.692" y2="130.865"/>
<line fill="none" stroke="#000000" stroke-width="0.5" stroke-linecap="square" stroke-miterlimit="10" x1="19.847" y1="156.649" x2="16.692" y2="156.649"/>
<line fill="none" stroke="#000000" stroke-width="0.5" stroke-linecap="square" stroke-miterlimit="10" x1="19.847" y1="182.434" x2="16.692" y2="182.434"/>
<line fill="none" stroke="#000000" stroke-width="0.5" stroke-linecap="square" stroke-miterlimit="10" x1="19.847" y1="208.219" x2="16.692" y2="208.219"/>
<line fill="none" stroke="#000000" stroke-width="0.5" stroke-linecap="square" stroke-miterlimit="10" x1="19.847" y1="208.219" x2="19.847" y2="211.374"/>
<line fill="none" stroke="#000000" stroke-width="0.5" stroke-linecap="square" stroke-miterlimit="10" x1="45.252" y1="208.219" x2="45.252" y2="211.374"/>
<line fill="none" stroke="#000000" stroke-width="0.5" stroke-linecap="square" stroke-miterlimit="10" x1="70.658" y1="208.219" x2="70.658" y2="211.374"/>
<line fill="none" stroke="#000000" stroke-width="0.5" stroke-linecap="square" stroke-miterlimit="10" x1="96.064" y1="208.219" x2="96.064" y2="211.374"/>
<line fill="none" stroke="#000000" stroke-width="0.5" stroke-linecap="square" stroke-miterlimit="10" x1="121.47" y1="208.219" x2="121.47" y2="211.374"/>
<line fill="none" stroke="#000000" stroke-width="0.5" stroke-linecap="square" stroke-miterlimit="10" x1="146.875" y1="208.219" x2="146.875" y2="211.374"/>
<line fill="none" stroke="#000000" stroke-width="0.5" stroke-linecap="square" stroke-miterlimit="10" x1="172.28" y1="208.219" x2="172.28" y2="211.374"/>
<line fill="none" stroke="#000000" stroke-width="0.5" stroke-linecap="square" stroke-miterlimit="10" x1="197.687" y1="208.219" x2="197.687" y2="211.374"/>
<line fill="none" stroke="#000000" stroke-width="0.5" stroke-linecap="square" stroke-miterlimit="10" x1="223.092" y1="208.219" x2="223.092" y2="211.374"/>
</svg>