<svg xmlns="http://www.w3.org/2000/svg" xmlns:xlink="http://www.w3.org/1999/xlink" version="1.1" id="Layer_1" x="0px" y="0px" width="193.984px" height="192.437px" viewBox="0 0 193.984 192.437" enable-background="new 0 0 193.984 192.437" xml:space="preserve">
<g>
	<path d="M56.767,0.32c0.24,0,0.457,0.039,0.649,0.116s0.357,0.184,0.495,0.319c0.137,0.135,0.242,0.291,0.315,0.469   c0.072,0.177,0.109,0.369,0.109,0.574c0,0.315-0.066,0.587-0.199,0.817c-0.133,0.23-0.349,0.405-0.649,0.525v0.015   c0.145,0.04,0.265,0.101,0.36,0.184c0.095,0.083,0.173,0.18,0.232,0.292c0.06,0.113,0.104,0.236,0.131,0.372   c0.027,0.135,0.046,0.27,0.056,0.405c0.005,0.085,0.01,0.185,0.015,0.3c0.005,0.115,0.014,0.232,0.026,0.352   c0.012,0.12,0.032,0.234,0.06,0.341c0.027,0.108,0.068,0.199,0.124,0.274h-1.177c-0.065-0.17-0.105-0.373-0.12-0.607   s-0.038-0.46-0.067-0.675c-0.04-0.28-0.125-0.485-0.255-0.615c-0.13-0.13-0.342-0.195-0.637-0.195h-1.178v2.092h-1.177V0.32H56.767   z M56.347,2.742c0.27,0,0.473-0.06,0.607-0.18c0.135-0.12,0.203-0.315,0.203-0.585c0-0.26-0.067-0.449-0.203-0.566   c-0.135-0.118-0.337-0.176-0.607-0.176h-1.29v1.507H56.347z"/>
	<path d="M60.322,4.745c0.16,0.155,0.39,0.233,0.69,0.233c0.215,0,0.4-0.054,0.555-0.162c0.155-0.107,0.25-0.221,0.285-0.341h0.938   c-0.15,0.465-0.38,0.798-0.69,0.998c-0.31,0.2-0.685,0.3-1.125,0.3c-0.305,0-0.58-0.049-0.825-0.146   c-0.245-0.098-0.453-0.236-0.623-0.416c-0.17-0.18-0.301-0.395-0.394-0.645c-0.093-0.25-0.139-0.525-0.139-0.825   c0-0.29,0.048-0.56,0.143-0.81c0.095-0.25,0.23-0.466,0.405-0.648c0.175-0.183,0.383-0.327,0.626-0.432s0.511-0.157,0.806-0.157   c0.33,0,0.618,0.063,0.863,0.191c0.245,0.127,0.446,0.299,0.604,0.514c0.158,0.215,0.271,0.46,0.341,0.735   c0.07,0.275,0.095,0.562,0.075,0.862H60.06C60.074,4.34,60.162,4.59,60.322,4.745z M61.525,2.705   c-0.127-0.14-0.321-0.21-0.581-0.21c-0.17,0-0.311,0.029-0.424,0.086c-0.112,0.058-0.203,0.129-0.27,0.214s-0.115,0.175-0.143,0.27   c-0.027,0.095-0.043,0.18-0.048,0.255h1.732C61.742,3.05,61.653,2.845,61.525,2.705z"/>
	<path d="M65.617,1.797V2.51h-0.78v1.92c0,0.18,0.03,0.3,0.09,0.36c0.06,0.06,0.18,0.09,0.36,0.09c0.06,0,0.117-0.002,0.172-0.008   c0.055-0.005,0.107-0.012,0.158-0.022v0.825c-0.09,0.015-0.19,0.025-0.3,0.03c-0.11,0.005-0.217,0.008-0.322,0.008   c-0.165,0-0.321-0.011-0.469-0.034s-0.278-0.066-0.39-0.131S63.934,5.39,63.869,5.27c-0.065-0.12-0.098-0.278-0.098-0.473V2.51   h-0.645V1.797h0.645V0.635h1.065v1.163H65.617z"/>
	<path d="M68.751,5.675v-0.54h-0.022c-0.135,0.225-0.31,0.388-0.525,0.487c-0.215,0.1-0.435,0.15-0.66,0.15   c-0.285,0-0.519-0.038-0.701-0.113c-0.183-0.075-0.326-0.181-0.431-0.319c-0.105-0.137-0.179-0.305-0.221-0.502   c-0.042-0.197-0.064-0.416-0.064-0.656V1.797h1.065v2.19c0,0.32,0.05,0.559,0.15,0.716c0.1,0.157,0.277,0.236,0.532,0.236   c0.29,0,0.5-0.086,0.63-0.259c0.13-0.172,0.195-0.457,0.195-0.852V1.797h1.065v3.877H68.751z"/>
	<path d="M71.586,1.797v0.72h0.015c0.05-0.12,0.117-0.231,0.202-0.333s0.183-0.19,0.293-0.263c0.11-0.072,0.227-0.128,0.352-0.168   s0.255-0.06,0.39-0.06c0.07,0,0.147,0.013,0.232,0.038v0.99c-0.05-0.01-0.11-0.019-0.18-0.026c-0.07-0.007-0.138-0.011-0.203-0.011   c-0.195,0-0.36,0.033-0.495,0.098c-0.135,0.065-0.244,0.154-0.326,0.266c-0.083,0.113-0.141,0.244-0.176,0.394   s-0.052,0.312-0.052,0.487v1.748h-1.065V1.797H71.586z"/>
	<path d="M74.639,1.797v0.54h0.022c0.135-0.225,0.31-0.389,0.525-0.491s0.435-0.154,0.66-0.154c0.285,0,0.519,0.039,0.701,0.116   s0.326,0.185,0.431,0.322c0.105,0.138,0.179,0.305,0.221,0.503c0.042,0.197,0.064,0.416,0.064,0.656v2.385h-1.065v-2.19   c0-0.32-0.05-0.559-0.15-0.716c-0.1-0.158-0.278-0.236-0.533-0.236c-0.29,0-0.5,0.086-0.63,0.259s-0.195,0.457-0.195,0.851v2.033   h-1.065V1.797H74.639z"/>
	<path d="M80.181,2.896c0.095-0.252,0.229-0.467,0.405-0.645c0.175-0.177,0.385-0.315,0.63-0.413   c0.245-0.097,0.52-0.146,0.825-0.146c0.305,0,0.581,0.049,0.829,0.146c0.248,0.098,0.458,0.235,0.634,0.413   c0.175,0.178,0.31,0.393,0.405,0.645c0.095,0.252,0.143,0.534,0.143,0.844s-0.047,0.59-0.143,0.84   c-0.095,0.25-0.23,0.464-0.405,0.642c-0.175,0.177-0.386,0.313-0.634,0.409c-0.248,0.095-0.524,0.143-0.829,0.143   c-0.305,0-0.58-0.048-0.825-0.143c-0.245-0.095-0.455-0.231-0.63-0.409c-0.175-0.178-0.31-0.391-0.405-0.642   c-0.095-0.25-0.143-0.53-0.143-0.84S80.086,3.148,80.181,2.896z M81.148,4.193c0.03,0.148,0.081,0.28,0.154,0.397   c0.072,0.118,0.168,0.211,0.289,0.281c0.12,0.07,0.27,0.105,0.45,0.105c0.18,0,0.331-0.035,0.454-0.105   c0.123-0.07,0.22-0.164,0.292-0.281c0.072-0.117,0.124-0.25,0.154-0.397c0.03-0.147,0.045-0.298,0.045-0.454   c0-0.155-0.015-0.308-0.045-0.458S82.859,3,82.787,2.885c-0.072-0.115-0.17-0.208-0.292-0.281   c-0.123-0.072-0.274-0.109-0.454-0.109c-0.18,0-0.33,0.037-0.45,0.109c-0.12,0.073-0.216,0.167-0.289,0.281   C81.229,3,81.178,3.132,81.148,3.282s-0.045,0.303-0.045,0.458C81.104,3.895,81.119,4.046,81.148,4.193z"/>
	<path d="M85.753,1.797v0.54h0.022c0.135-0.225,0.31-0.389,0.525-0.491s0.435-0.154,0.66-0.154c0.285,0,0.519,0.039,0.701,0.116   s0.326,0.185,0.431,0.322c0.105,0.138,0.179,0.305,0.221,0.503c0.042,0.197,0.064,0.416,0.064,0.656v2.385h-1.065v-2.19   c0-0.32-0.05-0.559-0.15-0.716c-0.1-0.158-0.278-0.236-0.533-0.236c-0.29,0-0.5,0.086-0.63,0.259s-0.195,0.457-0.195,0.851v2.033   h-1.065V1.797H85.753z"/>
	<path d="M54.663,13.711c0.047,0.083,0.109,0.15,0.184,0.203c0.075,0.052,0.162,0.091,0.259,0.116   c0.098,0.025,0.199,0.038,0.304,0.038c0.075,0,0.154-0.009,0.236-0.026s0.158-0.045,0.225-0.083s0.124-0.087,0.169-0.15   c0.045-0.062,0.067-0.141,0.067-0.236c0-0.16-0.106-0.28-0.319-0.36s-0.509-0.16-0.889-0.24c-0.155-0.035-0.307-0.076-0.454-0.124   c-0.148-0.047-0.279-0.11-0.394-0.188s-0.208-0.175-0.277-0.292c-0.07-0.118-0.105-0.261-0.105-0.431   c0-0.25,0.049-0.455,0.146-0.615c0.098-0.16,0.226-0.286,0.386-0.379c0.16-0.092,0.34-0.157,0.54-0.195   c0.2-0.038,0.405-0.056,0.615-0.056s0.414,0.02,0.611,0.06c0.197,0.04,0.374,0.107,0.528,0.202   c0.155,0.095,0.284,0.222,0.387,0.379c0.102,0.158,0.164,0.356,0.184,0.596h-1.013c-0.015-0.205-0.092-0.344-0.232-0.416   c-0.14-0.073-0.305-0.109-0.495-0.109c-0.06,0-0.125,0.004-0.195,0.011c-0.07,0.007-0.134,0.024-0.191,0.049   s-0.106,0.061-0.146,0.109c-0.04,0.047-0.06,0.111-0.06,0.191c0,0.095,0.035,0.173,0.105,0.232c0.07,0.06,0.161,0.109,0.274,0.146   c0.112,0.038,0.241,0.071,0.386,0.101c0.145,0.03,0.292,0.063,0.442,0.098c0.155,0.035,0.306,0.078,0.454,0.127   c0.147,0.05,0.279,0.116,0.394,0.199c0.115,0.083,0.207,0.185,0.277,0.308c0.07,0.123,0.105,0.274,0.105,0.454   c0,0.255-0.051,0.469-0.154,0.642c-0.103,0.172-0.236,0.311-0.401,0.416s-0.354,0.179-0.566,0.221   c-0.213,0.042-0.429,0.064-0.649,0.064c-0.225,0-0.445-0.022-0.66-0.068c-0.215-0.045-0.406-0.12-0.574-0.225   s-0.305-0.244-0.413-0.417s-0.166-0.389-0.176-0.648h1.013C54.592,13.53,54.616,13.628,54.663,13.711z"/>
	<path d="M59.924,10.797v0.712h-0.78v1.92c0,0.18,0.03,0.3,0.09,0.36c0.06,0.06,0.18,0.09,0.36,0.09c0.06,0,0.117-0.002,0.172-0.008   c0.055-0.005,0.107-0.012,0.158-0.022v0.825c-0.09,0.015-0.19,0.025-0.3,0.03c-0.11,0.005-0.217,0.008-0.322,0.008   c-0.165,0-0.321-0.011-0.469-0.034s-0.278-0.066-0.39-0.131s-0.201-0.158-0.266-0.277c-0.065-0.12-0.098-0.278-0.098-0.473V11.51   h-0.645v-0.712h0.645V9.635h1.065v1.163H59.924z"/>
	<path d="M60.457,11.896c0.095-0.252,0.229-0.467,0.405-0.645c0.175-0.177,0.385-0.315,0.63-0.413   c0.245-0.097,0.52-0.146,0.825-0.146c0.305,0,0.581,0.049,0.829,0.146c0.248,0.098,0.458,0.235,0.634,0.413   c0.175,0.178,0.31,0.393,0.405,0.645c0.095,0.252,0.143,0.534,0.143,0.844s-0.047,0.59-0.143,0.84   c-0.095,0.25-0.23,0.464-0.405,0.642c-0.175,0.177-0.386,0.313-0.634,0.409c-0.248,0.095-0.524,0.143-0.829,0.143   c-0.305,0-0.58-0.048-0.825-0.143c-0.245-0.095-0.455-0.231-0.63-0.409c-0.175-0.178-0.31-0.391-0.405-0.642   c-0.095-0.25-0.143-0.53-0.143-0.84S60.362,12.148,60.457,11.896z M61.424,13.193c0.03,0.148,0.081,0.28,0.154,0.397   c0.072,0.118,0.168,0.211,0.289,0.281c0.12,0.07,0.27,0.105,0.45,0.105c0.18,0,0.331-0.035,0.454-0.105   c0.123-0.07,0.22-0.164,0.292-0.281c0.072-0.117,0.124-0.25,0.154-0.397c0.03-0.147,0.045-0.298,0.045-0.454   c0-0.155-0.015-0.308-0.045-0.458S63.135,12,63.063,11.885c-0.072-0.115-0.17-0.208-0.292-0.281   c-0.123-0.072-0.274-0.109-0.454-0.109c-0.18,0-0.33,0.037-0.45,0.109c-0.12,0.073-0.216,0.167-0.289,0.281   c-0.073,0.115-0.124,0.248-0.154,0.397s-0.045,0.303-0.045,0.458C61.379,12.895,61.395,13.046,61.424,13.193z"/>
	<path d="M66.869,11.495c-0.17,0-0.312,0.039-0.427,0.116c-0.115,0.078-0.209,0.178-0.281,0.3c-0.073,0.123-0.124,0.257-0.154,0.405   s-0.045,0.294-0.045,0.439c0,0.14,0.015,0.282,0.045,0.427s0.079,0.276,0.146,0.394c0.068,0.117,0.159,0.214,0.274,0.289   c0.115,0.075,0.255,0.113,0.42,0.113c0.255,0,0.451-0.071,0.589-0.214s0.224-0.334,0.259-0.574h1.027   c-0.07,0.515-0.27,0.907-0.6,1.177c-0.33,0.27-0.752,0.405-1.267,0.405c-0.29,0-0.557-0.049-0.799-0.146   c-0.243-0.098-0.449-0.233-0.619-0.409c-0.17-0.175-0.303-0.384-0.397-0.626c-0.095-0.242-0.143-0.508-0.143-0.798   c0-0.3,0.043-0.579,0.131-0.836c0.088-0.257,0.216-0.48,0.387-0.667c0.17-0.188,0.377-0.334,0.622-0.439   c0.245-0.105,0.525-0.157,0.84-0.157c0.23,0,0.451,0.03,0.664,0.09s0.402,0.151,0.57,0.274s0.304,0.275,0.409,0.458   s0.165,0.398,0.18,0.648h-1.042C67.587,11.717,67.324,11.495,66.869,11.495z"/>
	<path d="M70.484,9.32v2.873l1.343-1.395h1.26l-1.462,1.425l1.627,2.453h-1.29l-1.065-1.732l-0.413,0.397v1.335h-1.065V9.32H70.484z   "/>
</g>
<g>
	<path d="M162.374,98.492c0.239,0,0.456,0.039,0.648,0.117c0.192,0.077,0.357,0.184,0.495,0.318s0.242,0.291,0.314,0.469   c0.073,0.178,0.109,0.369,0.109,0.573c0,0.315-0.066,0.588-0.199,0.818c-0.132,0.229-0.349,0.404-0.648,0.524v0.016   c0.145,0.04,0.265,0.101,0.36,0.184c0.095,0.082,0.172,0.18,0.232,0.292c0.06,0.112,0.104,0.236,0.131,0.371   c0.027,0.136,0.046,0.271,0.057,0.405c0.005,0.085,0.01,0.186,0.015,0.3c0.005,0.115,0.014,0.232,0.026,0.353   s0.032,0.234,0.06,0.342s0.069,0.198,0.124,0.273h-1.178c-0.064-0.17-0.104-0.372-0.12-0.607c-0.015-0.235-0.037-0.46-0.067-0.675   c-0.04-0.28-0.125-0.485-0.255-0.615s-0.343-0.195-0.638-0.195h-1.177v2.093h-1.178v-5.355H162.374z M161.954,100.915   c0.27,0,0.472-0.06,0.607-0.18c0.135-0.12,0.202-0.315,0.202-0.585c0-0.26-0.067-0.449-0.202-0.566   c-0.136-0.117-0.338-0.177-0.607-0.177h-1.29v1.508H161.954z"/>
	<path d="M165.928,102.917c0.16,0.154,0.39,0.232,0.69,0.232c0.215,0,0.399-0.054,0.555-0.161s0.25-0.222,0.285-0.342h0.938   c-0.15,0.465-0.38,0.798-0.69,0.998c-0.31,0.199-0.685,0.3-1.125,0.3c-0.305,0-0.58-0.049-0.825-0.146   c-0.244-0.098-0.452-0.236-0.622-0.416s-0.302-0.396-0.394-0.646c-0.093-0.25-0.139-0.524-0.139-0.824   c0-0.29,0.047-0.561,0.143-0.811c0.095-0.25,0.229-0.466,0.404-0.648c0.176-0.183,0.384-0.326,0.627-0.432   c0.242-0.104,0.511-0.157,0.806-0.157c0.33,0,0.618,0.063,0.862,0.191c0.245,0.127,0.446,0.299,0.604,0.514   c0.157,0.215,0.271,0.46,0.341,0.734c0.07,0.275,0.095,0.562,0.075,0.863h-2.798C165.681,102.512,165.768,102.762,165.928,102.917z    M167.132,100.877c-0.128-0.141-0.321-0.21-0.581-0.21c-0.171,0-0.312,0.028-0.424,0.086c-0.113,0.058-0.203,0.129-0.271,0.214   s-0.115,0.175-0.143,0.27c-0.027,0.096-0.044,0.181-0.049,0.255h1.732C167.348,101.222,167.259,101.017,167.132,100.877z"/>
	<path d="M171.223,99.969v0.713h-0.78v1.92c0,0.18,0.03,0.3,0.09,0.36c0.061,0.06,0.181,0.09,0.36,0.09   c0.06,0,0.117-0.003,0.173-0.008c0.055-0.005,0.107-0.012,0.157-0.022v0.825c-0.09,0.015-0.19,0.025-0.3,0.03   c-0.11,0.005-0.218,0.007-0.323,0.007c-0.165,0-0.321-0.011-0.469-0.033s-0.277-0.066-0.39-0.132   c-0.112-0.064-0.201-0.157-0.267-0.277c-0.064-0.12-0.097-0.277-0.097-0.473v-2.287h-0.646v-0.713h0.646v-1.162h1.064v1.162   H171.223z"/>
	<path d="M174.358,103.847v-0.54h-0.022c-0.136,0.225-0.311,0.388-0.525,0.487c-0.215,0.101-0.435,0.15-0.66,0.15   c-0.285,0-0.519-0.038-0.701-0.112c-0.183-0.075-0.326-0.182-0.431-0.319c-0.105-0.138-0.18-0.305-0.222-0.502   c-0.043-0.198-0.063-0.417-0.063-0.656v-2.386h1.064v2.19c0,0.32,0.05,0.559,0.15,0.716c0.1,0.158,0.277,0.236,0.532,0.236   c0.29,0,0.5-0.086,0.63-0.259c0.13-0.172,0.195-0.456,0.195-0.851v-2.033h1.065v3.878H174.358z"/>
	<path d="M177.193,99.969v0.721h0.015c0.05-0.12,0.117-0.231,0.202-0.334s0.183-0.19,0.293-0.263   c0.109-0.072,0.228-0.129,0.353-0.169s0.255-0.06,0.39-0.06c0.07,0,0.147,0.013,0.232,0.037v0.99c-0.05-0.01-0.11-0.019-0.18-0.026   c-0.07-0.007-0.138-0.011-0.203-0.011c-0.194,0-0.359,0.032-0.494,0.098c-0.136,0.064-0.244,0.153-0.326,0.266   c-0.083,0.112-0.142,0.244-0.177,0.394c-0.035,0.15-0.053,0.312-0.053,0.488v1.747h-1.064v-3.878H177.193z"/>
	<path d="M180.245,99.969v0.54h0.022c0.135-0.225,0.31-0.389,0.524-0.491s0.436-0.153,0.66-0.153c0.285,0,0.519,0.039,0.701,0.116   s0.326,0.185,0.432,0.322c0.104,0.138,0.179,0.306,0.221,0.503c0.043,0.197,0.064,0.416,0.064,0.656v2.385h-1.065v-2.19   c0-0.319-0.05-0.559-0.15-0.716c-0.1-0.157-0.277-0.236-0.532-0.236c-0.29,0-0.5,0.086-0.63,0.259s-0.195,0.456-0.195,0.852v2.032   h-1.064v-3.878H180.245z"/>
	<path d="M185.787,101.069c0.095-0.253,0.229-0.468,0.404-0.646c0.176-0.178,0.386-0.314,0.631-0.412   c0.244-0.098,0.52-0.146,0.824-0.146c0.306,0,0.582,0.049,0.829,0.146s0.459,0.234,0.634,0.412s0.31,0.393,0.405,0.646   c0.095,0.252,0.143,0.533,0.143,0.844c0,0.31-0.048,0.59-0.143,0.84c-0.096,0.25-0.23,0.464-0.405,0.641   c-0.175,0.178-0.387,0.314-0.634,0.409s-0.523,0.143-0.829,0.143c-0.305,0-0.58-0.048-0.824-0.143   c-0.245-0.095-0.455-0.231-0.631-0.409c-0.175-0.177-0.31-0.391-0.404-0.641c-0.096-0.25-0.143-0.53-0.143-0.84   C185.644,101.602,185.691,101.321,185.787,101.069z M186.753,102.366c0.03,0.147,0.082,0.28,0.154,0.397   c0.072,0.118,0.169,0.212,0.289,0.281c0.119,0.07,0.27,0.105,0.449,0.105c0.181,0,0.332-0.035,0.454-0.105   c0.122-0.069,0.22-0.163,0.293-0.281c0.072-0.117,0.123-0.25,0.153-0.397s0.045-0.299,0.045-0.453c0-0.155-0.015-0.308-0.045-0.458   s-0.081-0.282-0.153-0.397c-0.073-0.115-0.171-0.209-0.293-0.281s-0.273-0.108-0.454-0.108c-0.18,0-0.33,0.036-0.449,0.108   c-0.12,0.072-0.217,0.166-0.289,0.281s-0.124,0.247-0.154,0.397c-0.029,0.15-0.045,0.303-0.045,0.458   C186.708,102.067,186.724,102.218,186.753,102.366z"/>
	<path d="M191.359,99.969v0.54h0.022c0.135-0.225,0.31-0.389,0.524-0.491s0.436-0.153,0.66-0.153c0.285,0,0.519,0.039,0.701,0.116   s0.326,0.185,0.432,0.322c0.104,0.138,0.179,0.306,0.221,0.503c0.043,0.197,0.064,0.416,0.064,0.656v2.385h-1.065v-2.19   c0-0.319-0.05-0.559-0.15-0.716c-0.1-0.157-0.277-0.236-0.532-0.236c-0.29,0-0.5,0.086-0.63,0.259s-0.195,0.456-0.195,0.852v2.032   h-1.064v-3.878H191.359z"/>
	<path d="M160.409,108.969v0.525h0.015c0.14-0.2,0.309-0.354,0.506-0.465c0.198-0.11,0.424-0.165,0.679-0.165   c0.245,0,0.469,0.048,0.672,0.143c0.202,0.095,0.356,0.263,0.461,0.502c0.115-0.17,0.271-0.319,0.469-0.449   s0.432-0.195,0.701-0.195c0.205,0,0.396,0.025,0.57,0.075s0.325,0.13,0.45,0.239c0.125,0.11,0.222,0.254,0.292,0.432   s0.105,0.392,0.105,0.642v2.595h-1.065v-2.197c0-0.13-0.005-0.253-0.015-0.368c-0.011-0.114-0.038-0.215-0.083-0.3   s-0.111-0.152-0.198-0.202c-0.088-0.05-0.206-0.075-0.356-0.075s-0.271,0.029-0.364,0.086c-0.092,0.058-0.165,0.133-0.217,0.226   c-0.053,0.093-0.088,0.197-0.105,0.314c-0.018,0.118-0.026,0.236-0.026,0.356v2.16h-1.064v-2.175c0-0.115-0.003-0.229-0.008-0.342   c-0.005-0.112-0.026-0.216-0.063-0.311c-0.038-0.096-0.101-0.172-0.188-0.229c-0.088-0.057-0.217-0.086-0.387-0.086   c-0.05,0-0.116,0.012-0.198,0.034c-0.083,0.022-0.163,0.064-0.24,0.127s-0.144,0.152-0.199,0.271   c-0.055,0.117-0.082,0.271-0.082,0.461v2.25h-1.065v-3.878H160.409z"/>
	<path d="M166.124,110.163c0.015-0.25,0.077-0.458,0.188-0.623c0.109-0.165,0.25-0.297,0.42-0.397c0.17-0.1,0.361-0.171,0.573-0.214   c0.213-0.042,0.427-0.063,0.642-0.063c0.195,0,0.393,0.014,0.593,0.041c0.199,0.027,0.382,0.081,0.547,0.161s0.3,0.191,0.405,0.334   c0.104,0.143,0.157,0.331,0.157,0.566v2.018c0,0.175,0.01,0.343,0.03,0.502c0.02,0.16,0.055,0.28,0.104,0.36h-1.079   c-0.021-0.06-0.037-0.121-0.049-0.184c-0.013-0.062-0.021-0.126-0.026-0.191c-0.17,0.175-0.37,0.298-0.601,0.367   c-0.229,0.07-0.465,0.105-0.705,0.105c-0.185,0-0.357-0.022-0.517-0.067c-0.16-0.045-0.301-0.115-0.421-0.21   c-0.119-0.096-0.213-0.215-0.281-0.36c-0.067-0.145-0.101-0.317-0.101-0.518c0-0.22,0.038-0.401,0.116-0.544   c0.077-0.143,0.177-0.256,0.3-0.341c0.122-0.085,0.263-0.148,0.42-0.191c0.157-0.042,0.316-0.076,0.477-0.102   c0.16-0.024,0.317-0.045,0.473-0.06c0.154-0.015,0.292-0.037,0.412-0.067s0.215-0.074,0.285-0.132   c0.069-0.057,0.103-0.141,0.098-0.251c0-0.115-0.02-0.206-0.057-0.273s-0.088-0.12-0.15-0.157   c-0.062-0.038-0.135-0.062-0.217-0.075c-0.083-0.013-0.172-0.019-0.267-0.019c-0.21,0-0.375,0.045-0.495,0.135   s-0.189,0.24-0.21,0.45H166.124z M168.583,110.95c-0.045,0.04-0.102,0.071-0.169,0.094s-0.141,0.041-0.218,0.057   c-0.077,0.015-0.158,0.027-0.243,0.037c-0.086,0.01-0.171,0.022-0.256,0.037c-0.08,0.016-0.158,0.035-0.235,0.061   c-0.078,0.024-0.146,0.059-0.203,0.101c-0.058,0.043-0.104,0.097-0.139,0.162c-0.035,0.064-0.053,0.147-0.053,0.247   c0,0.095,0.018,0.175,0.053,0.24c0.035,0.064,0.083,0.116,0.143,0.153c0.06,0.038,0.13,0.064,0.21,0.079s0.162,0.022,0.247,0.022   c0.211,0,0.373-0.035,0.488-0.105c0.114-0.069,0.199-0.153,0.255-0.251c0.055-0.098,0.089-0.196,0.101-0.296   c0.013-0.101,0.02-0.181,0.02-0.24V110.95z"/>
	<path d="M171.486,108.969v0.721h0.015c0.05-0.12,0.117-0.231,0.202-0.334s0.183-0.19,0.293-0.263   c0.109-0.072,0.228-0.129,0.353-0.169s0.255-0.06,0.39-0.06c0.07,0,0.147,0.013,0.232,0.037v0.99c-0.05-0.01-0.11-0.019-0.18-0.026   c-0.07-0.007-0.138-0.011-0.203-0.011c-0.194,0-0.359,0.032-0.494,0.098c-0.136,0.064-0.244,0.153-0.326,0.266   c-0.083,0.112-0.142,0.244-0.177,0.394c-0.035,0.15-0.053,0.312-0.053,0.488v1.747h-1.064v-3.878H171.486z"/>
	<path d="M174.552,107.492v2.873l1.343-1.396h1.26l-1.463,1.426l1.628,2.452h-1.29l-1.064-1.732l-0.413,0.397v1.335h-1.064v-5.355   H174.552z"/>
	<path d="M178.834,111.917c0.16,0.154,0.39,0.232,0.69,0.232c0.215,0,0.399-0.054,0.555-0.161s0.25-0.222,0.285-0.342h0.938   c-0.15,0.465-0.38,0.798-0.69,0.998c-0.31,0.199-0.685,0.3-1.125,0.3c-0.305,0-0.58-0.049-0.825-0.146   c-0.244-0.098-0.452-0.236-0.622-0.416s-0.302-0.396-0.394-0.646c-0.093-0.25-0.139-0.524-0.139-0.824   c0-0.29,0.047-0.561,0.143-0.811c0.095-0.25,0.229-0.466,0.404-0.648c0.176-0.183,0.384-0.326,0.627-0.432   c0.242-0.104,0.511-0.157,0.806-0.157c0.33,0,0.618,0.063,0.862,0.191c0.245,0.127,0.446,0.299,0.604,0.514   c0.157,0.215,0.271,0.46,0.341,0.734c0.07,0.275,0.095,0.562,0.075,0.863h-2.798C178.587,111.512,178.674,111.762,178.834,111.917z    M180.039,109.877c-0.128-0.141-0.321-0.21-0.581-0.21c-0.171,0-0.312,0.028-0.424,0.086c-0.113,0.058-0.203,0.129-0.271,0.214   s-0.115,0.175-0.143,0.27c-0.027,0.096-0.044,0.181-0.049,0.255h1.732C180.254,110.222,180.166,110.017,180.039,109.877z"/>
	<path d="M184.129,108.969v0.713h-0.78v1.92c0,0.18,0.03,0.3,0.09,0.36c0.061,0.06,0.181,0.09,0.36,0.09   c0.06,0,0.117-0.003,0.173-0.008c0.055-0.005,0.107-0.012,0.157-0.022v0.825c-0.09,0.015-0.19,0.025-0.3,0.03   c-0.11,0.005-0.218,0.007-0.323,0.007c-0.165,0-0.321-0.011-0.469-0.033s-0.277-0.066-0.39-0.132   c-0.112-0.064-0.201-0.157-0.267-0.277c-0.064-0.12-0.097-0.277-0.097-0.473v-2.287h-0.646v-0.713h0.646v-1.162h1.064v1.162   H184.129z"/>
</g>
<g>
	<g>
		<line fill="none" stroke="#000000" stroke-width="0.5" stroke-miterlimit="10" x1="96.219" y1="2.691" x2="96.219" y2="189.747"/>
		<g>
			<polygon points="94.349,3.238 96.219,0 98.088,3.238    "/>
		</g>
		<g>
			<polygon points="94.349,189.199 96.219,192.437 98.088,189.199    "/>
		</g>
	</g>
</g>
<g>
	<g>
		<line fill="none" stroke="#000000" stroke-width="0.5" stroke-miterlimit="10" x1="2.691" y1="96.218" x2="189.747" y2="96.218"/>
		<g>
			<polygon points="3.238,98.088 0,96.218 3.238,94.349    "/>
		</g>
		<g>
			<polygon points="189.199,98.088 192.437,96.218 189.199,94.349    "/>
		</g>
	</g>
</g>
<line fill="none" stroke="#F47920" stroke-width="2.5" stroke-miterlimit="10" x1="170.211" y1="38.917" x2="28.62" y2="139.628"/>
<circle fill="#7A9AA8" cx="145.359" cy="43.012" r="1.979"/>
<circle fill="#7A9AA8" cx="119.712" cy="51.839" r="1.979"/>
<circle fill="#7A9AA8" cx="103.351" cy="70.484" r="1.979"/>
<circle fill="#7A9AA8" cx="90.337" cy="74.67" r="1.979"/>
<circle fill="#7A9AA8" cx="65.3" cy="83.269" r="1.979"/>
<circle fill="#7A9AA8" cx="49.319" cy="102.447" r="1.979"/>
<circle fill="#7A9AA8" cx="107.156" cy="109.448" r="1.979"/>
<circle fill="#7A9AA8" cx="105.481" cy="103.969" r="1.979"/>
<circle fill="#7A9AA8" cx="107.08" cy="89.509" r="1.979"/>
<circle fill="#7A9AA8" cx="124.583" cy="81.519" r="1.979"/>
<circle fill="#7A9AA8" cx="138.662" cy="70.256" r="1.979"/>
<circle fill="#7A9AA8" cx="159.666" cy="71.854" r="1.979"/>
<circle fill="#7A9AA8" cx="148.403" cy="110.209" r="1.979"/>
<circle fill="#7A9AA8" cx="84.325" cy="102.066" r="1.979"/>
<circle fill="#7A9AA8" cx="69.714" cy="113.482" r="1.979"/>
<circle fill="#7A9AA8" cx="52.591" cy="121.091" r="1.979"/>
<circle fill="#7A9AA8" cx="52.21" cy="141.182" r="1.979"/>
<circle fill="#7A9AA8" cx="94.066" cy="142.705" r="1.979"/>
</svg>