<svg xmlns="http://www.w3.org/2000/svg" xmlns:xlink="http://www.w3.org/1999/xlink" version="1.1" id="Layer_1" x="0px" y="0px" width="271.56px" height="119.677px" viewBox="0 0 271.56 119.677" enable-background="new 0 0 271.56 119.677" xml:space="preserve">
<path fill="none" stroke="#CCCCCC" stroke-width="0.5" stroke-linejoin="round" stroke-miterlimit="10" d="M29.918,3.175H271.31   M29.918,18.135H271.31 M29.918,33.121H271.31 M29.918,48.102H271.31 M29.918,63.087H271.31 M29.918,78.068H271.31 M29.918,93.054  H271.31"/>
<line fill="none" stroke="#000000" stroke-width="0.5" stroke-linecap="square" stroke-linejoin="round" stroke-miterlimit="10" x1="29.918" y1="108.014" x2="29.918" y2="3.175"/>
<path fill="none" stroke="#000000" stroke-width="0.5" stroke-linejoin="round" stroke-miterlimit="10" d="M27.147,3.175h2.771   M27.147,18.135h2.771 M27.147,33.121h2.771 M27.147,48.102h2.771 M27.147,63.087h2.771 M27.147,78.068h2.771 M27.147,93.054h2.771   M27.147,108.014h2.771"/>
<line fill="none" stroke="#000000" stroke-width="0.5" stroke-linecap="square" stroke-linejoin="round" stroke-miterlimit="10" x1="29.918" y1="108.014" x2="271.31" y2="108.014"/>
<line fill="none" stroke="#000000" stroke-width="0.5" stroke-linejoin="round" stroke-miterlimit="10" x1="271.31" y1="108.014" x2="271.31" y2="110.785"/>
<line fill="none" stroke="#000000" stroke-width="0.5" stroke-linejoin="round" stroke-miterlimit="10" x1="257.095" y1="108.014" x2="257.095" y2="110.785"/>
<line fill="none" stroke="#000000" stroke-width="0.5" stroke-linejoin="round" stroke-miterlimit="10" x1="242.896" y1="108.014" x2="242.896" y2="110.785"/>
<line fill="none" stroke="#000000" stroke-width="0.5" stroke-linejoin="round" stroke-miterlimit="10" x1="228.698" y1="108.014" x2="228.698" y2="110.785"/>
<line fill="none" stroke="#000000" stroke-width="0.5" stroke-linejoin="round" stroke-miterlimit="10" x1="214.499" y1="108.014" x2="214.499" y2="110.785"/>
<line fill="none" stroke="#000000" stroke-width="0.5" stroke-linejoin="round" stroke-miterlimit="10" x1="200.33" y1="108.014" x2="200.33" y2="110.785"/>
<line fill="none" stroke="#000000" stroke-width="0.5" stroke-linejoin="round" stroke-miterlimit="10" x1="186.13" y1="108.014" x2="186.13" y2="110.785"/>
<line fill="none" stroke="#000000" stroke-width="0.5" stroke-linejoin="round" stroke-miterlimit="10" x1="171.932" y1="108.014" x2="171.932" y2="110.785"/>
<line fill="none" stroke="#000000" stroke-width="0.5" stroke-linejoin="round" stroke-miterlimit="10" x1="157.727" y1="108.014" x2="157.727" y2="110.785"/>
<line fill="none" stroke="#000000" stroke-width="0.5" stroke-linejoin="round" stroke-miterlimit="10" x1="143.528" y1="108.014" x2="143.528" y2="110.785"/>
<line fill="none" stroke="#000000" stroke-width="0.5" stroke-linejoin="round" stroke-miterlimit="10" x1="129.33" y1="108.014" x2="129.33" y2="110.785"/>
<line fill="none" stroke="#000000" stroke-width="0.5" stroke-linejoin="round" stroke-miterlimit="10" x1="115.13" y1="108.014" x2="115.13" y2="110.785"/>
<line fill="none" stroke="#000000" stroke-width="0.5" stroke-linejoin="round" stroke-miterlimit="10" x1="100.926" y1="108.014" x2="100.926" y2="110.785"/>
<line fill="none" stroke="#000000" stroke-width="0.5" stroke-linejoin="round" stroke-miterlimit="10" x1="86.727" y1="108.014" x2="86.727" y2="110.785"/>
<line fill="none" stroke="#000000" stroke-width="0.5" stroke-linejoin="round" stroke-miterlimit="10" x1="72.528" y1="108.014" x2="72.528" y2="110.785"/>
<line fill="none" stroke="#000000" stroke-width="0.5" stroke-linejoin="round" stroke-miterlimit="10" x1="58.329" y1="108.014" x2="58.329" y2="110.785"/>
<line fill="none" stroke="#000000" stroke-width="0.5" stroke-linejoin="round" stroke-miterlimit="10" x1="44.13" y1="108.014" x2="44.13" y2="110.785"/>
<line fill="none" stroke="#000000" stroke-width="0.5" stroke-linejoin="round" stroke-miterlimit="10" x1="29.918" y1="108.014" x2="29.918" y2="110.785"/>
<polyline fill="none" stroke="#7A9AA8" stroke-width="2.5" stroke-linecap="round" stroke-linejoin="round" stroke-miterlimit="10" points="  37.018,107.445 51.214,106.861 65.413,105.979 79.612,104.248 93.812,102.914 108.01,100.564 122.214,98.996 136.414,97.788   150.613,95.5 164.812,91.815 179.011,84.01 193.215,80.976 207.414,75.261 221.613,66.807 235.812,57.241 250.011,41.9   264.21,20.449 "/>
<g>
	<g>
		<path d="M23.163,105.762c0.214,0.15,0.38,0.343,0.5,0.577c0.119,0.233,0.2,0.495,0.243,0.782c0.042,0.288,0.064,0.569,0.064,0.844    c0,0.279-0.021,0.563-0.064,0.851c-0.043,0.288-0.124,0.55-0.243,0.783c-0.119,0.234-0.286,0.426-0.5,0.574    s-0.494,0.223-0.84,0.223c-0.342,0-0.621-0.074-0.837-0.223s-0.384-0.34-0.503-0.574c-0.119-0.233-0.2-0.495-0.243-0.783    c-0.042-0.287-0.064-0.569-0.064-0.844c0-0.278,0.021-0.562,0.064-0.851c0.043-0.287,0.124-0.549,0.243-0.782    c0.119-0.234,0.287-0.427,0.503-0.577c0.216-0.151,0.495-0.227,0.837-0.227C22.669,105.535,22.949,105.61,23.163,105.762z     M21.674,106.103c-0.162,0.14-0.285,0.312-0.368,0.52c-0.083,0.207-0.139,0.432-0.166,0.675s-0.041,0.466-0.041,0.668    c0,0.207,0.014,0.432,0.041,0.672c0.027,0.241,0.082,0.466,0.166,0.675c0.083,0.21,0.206,0.384,0.368,0.523    s0.378,0.209,0.648,0.209s0.486-0.069,0.648-0.209s0.285-0.313,0.368-0.523c0.083-0.209,0.138-0.434,0.165-0.675    c0.027-0.24,0.041-0.465,0.041-0.672c0-0.202-0.013-0.425-0.041-0.668c-0.027-0.243-0.082-0.468-0.165-0.675    c-0.083-0.207-0.206-0.38-0.368-0.52s-0.378-0.21-0.648-0.21S21.836,105.963,21.674,106.103z"/>
	</g>
</g>
<g>
	<g>
		<path d="M4.472,94.689c0.191,0.209,0.465,0.334,0.82,0.375v-1.998c-0.189-0.041-0.37-0.089-0.543-0.145    c-0.173-0.057-0.324-0.135-0.452-0.236c-0.128-0.102-0.231-0.229-0.307-0.385c-0.077-0.155-0.115-0.35-0.115-0.584    c0-0.203,0.037-0.385,0.111-0.547s0.175-0.3,0.304-0.415s0.279-0.203,0.452-0.263S5.098,90.4,5.292,90.4v-0.526h0.263V90.4    c0.198,0,0.383,0.035,0.557,0.105s0.326,0.168,0.459,0.297c0.133,0.128,0.236,0.282,0.311,0.462    c0.074,0.18,0.109,0.38,0.105,0.601H6.561c-0.005-0.337-0.099-0.606-0.284-0.807s-0.425-0.3-0.722-0.3v1.944    c0.193,0.041,0.383,0.09,0.57,0.148c0.187,0.059,0.353,0.14,0.5,0.243c0.146,0.104,0.264,0.233,0.354,0.388    c0.09,0.155,0.135,0.352,0.135,0.591c0,0.22-0.044,0.415-0.131,0.583c-0.088,0.169-0.205,0.31-0.351,0.422    c-0.146,0.113-0.313,0.197-0.5,0.253c-0.187,0.056-0.379,0.084-0.577,0.084v0.574H5.292v-0.581    c-0.527-0.05-0.91-0.205-1.151-0.466c-0.241-0.261-0.37-0.648-0.388-1.161h0.425C4.183,94.178,4.28,94.48,4.472,94.689z     M4.911,90.815c-0.12,0.039-0.225,0.098-0.317,0.179s-0.165,0.186-0.216,0.314C4.326,91.436,4.3,91.588,4.3,91.764    c0,0.157,0.028,0.286,0.084,0.385c0.057,0.099,0.131,0.18,0.223,0.243c0.092,0.063,0.198,0.113,0.317,0.149    c0.119,0.036,0.242,0.07,0.368,0.101v-1.883C5.157,90.758,5.03,90.777,4.911,90.815z M5.974,95.01    c0.135-0.036,0.255-0.094,0.361-0.175c0.105-0.081,0.191-0.184,0.256-0.307c0.065-0.124,0.098-0.273,0.098-0.449    c0-0.162-0.035-0.297-0.104-0.405s-0.159-0.197-0.267-0.267s-0.229-0.127-0.364-0.172c-0.135-0.045-0.268-0.083-0.398-0.115v1.944    C5.699,95.064,5.839,95.046,5.974,95.01z"/>
		<path d="M7.553,95.321c0.004-0.234,0.045-0.441,0.121-0.621c0.077-0.18,0.178-0.342,0.304-0.486    c0.125-0.144,0.268-0.276,0.425-0.395c0.158-0.119,0.32-0.234,0.486-0.344s0.332-0.223,0.496-0.337    C9.55,93.022,9.697,92.9,9.828,92.77c0.131-0.131,0.229-0.265,0.294-0.402c0.065-0.137,0.098-0.3,0.098-0.489    c0-0.153-0.028-0.289-0.084-0.409c-0.056-0.119-0.133-0.22-0.229-0.304c-0.097-0.083-0.209-0.146-0.337-0.189    c-0.128-0.042-0.264-0.064-0.408-0.064c-0.194,0-0.359,0.036-0.496,0.108c-0.138,0.072-0.249,0.169-0.334,0.291    c-0.085,0.121-0.147,0.261-0.186,0.418c-0.038,0.157-0.055,0.324-0.05,0.5H7.668c-0.005-0.243,0.023-0.467,0.084-0.672    c0.061-0.205,0.154-0.381,0.28-0.53s0.285-0.264,0.476-0.348c0.191-0.083,0.415-0.125,0.671-0.125    c0.207,0,0.399,0.028,0.577,0.084s0.333,0.14,0.466,0.25c0.133,0.11,0.236,0.249,0.311,0.415s0.111,0.36,0.111,0.581    c0,0.198-0.033,0.378-0.098,0.54c-0.065,0.162-0.153,0.31-0.264,0.445c-0.11,0.135-0.236,0.26-0.378,0.375    c-0.142,0.115-0.291,0.222-0.449,0.321c-0.112,0.077-0.245,0.161-0.398,0.253c-0.153,0.092-0.3,0.195-0.442,0.307    c-0.142,0.113-0.267,0.235-0.375,0.368s-0.176,0.278-0.203,0.435h2.626v0.392H7.553z"/>
		<path d="M12.285,95.321c0,0.099-0.012,0.197-0.037,0.293s-0.062,0.187-0.111,0.27c-0.05,0.083-0.111,0.156-0.186,0.22    c-0.074,0.063-0.161,0.108-0.26,0.135v-0.29c0.054-0.018,0.101-0.052,0.142-0.102c0.041-0.049,0.074-0.104,0.101-0.165    c0.027-0.061,0.046-0.124,0.058-0.189c0.011-0.065,0.015-0.123,0.01-0.172h-0.284v-0.715h0.567V95.321z"/>
		<path d="M15.656,90.781c0.214,0.151,0.38,0.343,0.5,0.577c0.119,0.234,0.2,0.495,0.243,0.783c0.042,0.288,0.064,0.569,0.064,0.844    c0,0.279-0.021,0.562-0.064,0.851c-0.043,0.288-0.124,0.549-0.243,0.783c-0.119,0.234-0.286,0.425-0.5,0.574    s-0.494,0.223-0.84,0.223c-0.342,0-0.621-0.075-0.837-0.223s-0.384-0.339-0.503-0.574c-0.119-0.234-0.2-0.495-0.243-0.783    c-0.042-0.288-0.064-0.569-0.064-0.844c0-0.279,0.021-0.562,0.064-0.851c0.043-0.288,0.124-0.549,0.243-0.783    c0.119-0.234,0.287-0.426,0.503-0.577c0.216-0.15,0.495-0.226,0.837-0.226C15.163,90.555,15.442,90.631,15.656,90.781z     M14.168,91.122c-0.162,0.14-0.285,0.313-0.368,0.52c-0.083,0.207-0.139,0.432-0.166,0.675c-0.027,0.243-0.041,0.466-0.041,0.668    c0,0.207,0.014,0.431,0.041,0.671c0.027,0.241,0.082,0.466,0.166,0.675c0.083,0.209,0.206,0.384,0.368,0.523    c0.162,0.14,0.378,0.209,0.648,0.209s0.486-0.07,0.648-0.209c0.162-0.139,0.285-0.314,0.368-0.523    c0.083-0.209,0.138-0.434,0.165-0.675c0.027-0.241,0.041-0.464,0.041-0.671c0-0.203-0.013-0.425-0.041-0.668    c-0.027-0.243-0.082-0.468-0.165-0.675c-0.083-0.207-0.206-0.38-0.368-0.52c-0.162-0.139-0.378-0.209-0.648-0.209    S14.33,90.983,14.168,91.122z"/>
		<path d="M19.409,90.781c0.214,0.151,0.38,0.343,0.5,0.577c0.119,0.234,0.2,0.495,0.243,0.783c0.042,0.288,0.064,0.569,0.064,0.844    c0,0.279-0.021,0.562-0.064,0.851c-0.043,0.288-0.124,0.549-0.243,0.783c-0.119,0.234-0.286,0.425-0.5,0.574    s-0.494,0.223-0.84,0.223c-0.342,0-0.621-0.075-0.837-0.223s-0.384-0.339-0.503-0.574c-0.119-0.234-0.2-0.495-0.243-0.783    c-0.042-0.288-0.064-0.569-0.064-0.844c0-0.279,0.021-0.562,0.064-0.851c0.043-0.288,0.124-0.549,0.243-0.783    c0.119-0.234,0.287-0.426,0.503-0.577c0.216-0.15,0.495-0.226,0.837-0.226C18.916,90.555,19.195,90.631,19.409,90.781z     M17.921,91.122c-0.162,0.14-0.285,0.313-0.368,0.52c-0.083,0.207-0.139,0.432-0.166,0.675c-0.027,0.243-0.041,0.466-0.041,0.668    c0,0.207,0.014,0.431,0.041,0.671c0.027,0.241,0.082,0.466,0.166,0.675c0.083,0.209,0.206,0.384,0.368,0.523    c0.162,0.14,0.378,0.209,0.648,0.209s0.486-0.07,0.648-0.209c0.162-0.139,0.285-0.314,0.368-0.523    c0.083-0.209,0.138-0.434,0.165-0.675c0.027-0.241,0.041-0.464,0.041-0.671c0-0.203-0.013-0.425-0.041-0.668    c-0.027-0.243-0.082-0.468-0.165-0.675c-0.083-0.207-0.206-0.38-0.368-0.52c-0.162-0.139-0.378-0.209-0.648-0.209    S18.083,90.983,17.921,91.122z"/>
		<path d="M23.162,90.781c0.214,0.151,0.38,0.343,0.5,0.577c0.119,0.234,0.2,0.495,0.243,0.783c0.042,0.288,0.064,0.569,0.064,0.844    c0,0.279-0.021,0.562-0.064,0.851c-0.043,0.288-0.124,0.549-0.243,0.783c-0.119,0.234-0.286,0.425-0.5,0.574    s-0.494,0.223-0.84,0.223c-0.342,0-0.621-0.075-0.837-0.223s-0.384-0.339-0.503-0.574c-0.119-0.234-0.2-0.495-0.243-0.783    c-0.042-0.288-0.064-0.569-0.064-0.844c0-0.279,0.021-0.562,0.064-0.851c0.043-0.288,0.124-0.549,0.243-0.783    c0.119-0.234,0.287-0.426,0.503-0.577c0.216-0.15,0.495-0.226,0.837-0.226C22.668,90.555,22.948,90.631,23.162,90.781z     M21.674,91.122c-0.162,0.14-0.285,0.313-0.368,0.52c-0.083,0.207-0.139,0.432-0.166,0.675c-0.027,0.243-0.041,0.466-0.041,0.668    c0,0.207,0.014,0.431,0.041,0.671c0.027,0.241,0.082,0.466,0.166,0.675c0.083,0.209,0.206,0.384,0.368,0.523    c0.162,0.14,0.378,0.209,0.648,0.209s0.486-0.07,0.648-0.209c0.162-0.139,0.285-0.314,0.368-0.523    c0.083-0.209,0.138-0.434,0.165-0.675c0.027-0.241,0.041-0.464,0.041-0.671c0-0.203-0.013-0.425-0.041-0.668    c-0.027-0.243-0.082-0.468-0.165-0.675c-0.083-0.207-0.206-0.38-0.368-0.52c-0.162-0.139-0.378-0.209-0.648-0.209    S21.836,90.983,21.674,91.122z"/>
	</g>
</g>
<g>
	<g>
		<path d="M9.7,75.615h0.385v3.193h0.708v0.358h-0.708v1.174H9.693v-1.174h-2.18v-0.412L9.7,75.615z M9.693,76.236H9.679    l-1.782,2.572h1.795V76.236z"/>
		<path d="M12.285,80.34c0,0.099-0.012,0.197-0.037,0.293s-0.062,0.187-0.111,0.27c-0.05,0.083-0.111,0.156-0.186,0.22    c-0.074,0.063-0.161,0.108-0.26,0.135v-0.29c0.054-0.018,0.101-0.052,0.142-0.102c0.041-0.049,0.074-0.104,0.101-0.165    c0.027-0.061,0.046-0.124,0.058-0.189c0.011-0.065,0.015-0.123,0.01-0.172h-0.284v-0.715h0.567V80.34z"/>
		<path d="M15.656,75.8c0.214,0.151,0.38,0.343,0.5,0.577c0.119,0.234,0.2,0.495,0.243,0.783c0.042,0.288,0.064,0.569,0.064,0.844    c0,0.279-0.021,0.562-0.064,0.851c-0.043,0.288-0.124,0.549-0.243,0.783c-0.119,0.234-0.286,0.425-0.5,0.574    s-0.494,0.223-0.84,0.223c-0.342,0-0.621-0.075-0.837-0.223s-0.384-0.339-0.503-0.574c-0.119-0.234-0.2-0.495-0.243-0.783    c-0.042-0.288-0.064-0.569-0.064-0.844c0-0.279,0.021-0.562,0.064-0.851c0.043-0.288,0.124-0.549,0.243-0.783    c0.119-0.234,0.287-0.426,0.503-0.577c0.216-0.15,0.495-0.226,0.837-0.226C15.163,75.574,15.442,75.65,15.656,75.8z     M14.168,76.141c-0.162,0.14-0.285,0.313-0.368,0.52c-0.083,0.207-0.139,0.432-0.166,0.675c-0.027,0.243-0.041,0.466-0.041,0.668    c0,0.207,0.014,0.431,0.041,0.671c0.027,0.241,0.082,0.466,0.166,0.675c0.083,0.209,0.206,0.384,0.368,0.523    c0.162,0.14,0.378,0.209,0.648,0.209s0.486-0.07,0.648-0.209c0.162-0.139,0.285-0.314,0.368-0.523    c0.083-0.209,0.138-0.434,0.165-0.675c0.027-0.241,0.041-0.464,0.041-0.671c0-0.203-0.013-0.425-0.041-0.668    c-0.027-0.243-0.082-0.468-0.165-0.675c-0.083-0.207-0.206-0.38-0.368-0.52c-0.162-0.139-0.378-0.209-0.648-0.209    S14.33,76.002,14.168,76.141z"/>
		<path d="M19.409,75.8c0.214,0.151,0.38,0.343,0.5,0.577c0.119,0.234,0.2,0.495,0.243,0.783c0.042,0.288,0.064,0.569,0.064,0.844    c0,0.279-0.021,0.562-0.064,0.851c-0.043,0.288-0.124,0.549-0.243,0.783c-0.119,0.234-0.286,0.425-0.5,0.574    s-0.494,0.223-0.84,0.223c-0.342,0-0.621-0.075-0.837-0.223s-0.384-0.339-0.503-0.574c-0.119-0.234-0.2-0.495-0.243-0.783    c-0.042-0.288-0.064-0.569-0.064-0.844c0-0.279,0.021-0.562,0.064-0.851c0.043-0.288,0.124-0.549,0.243-0.783    c0.119-0.234,0.287-0.426,0.503-0.577c0.216-0.15,0.495-0.226,0.837-0.226C18.916,75.574,19.195,75.65,19.409,75.8z     M17.921,76.141c-0.162,0.14-0.285,0.313-0.368,0.52c-0.083,0.207-0.139,0.432-0.166,0.675c-0.027,0.243-0.041,0.466-0.041,0.668    c0,0.207,0.014,0.431,0.041,0.671c0.027,0.241,0.082,0.466,0.166,0.675c0.083,0.209,0.206,0.384,0.368,0.523    c0.162,0.14,0.378,0.209,0.648,0.209s0.486-0.07,0.648-0.209c0.162-0.139,0.285-0.314,0.368-0.523    c0.083-0.209,0.138-0.434,0.165-0.675c0.027-0.241,0.041-0.464,0.041-0.671c0-0.203-0.013-0.425-0.041-0.668    c-0.027-0.243-0.082-0.468-0.165-0.675c-0.083-0.207-0.206-0.38-0.368-0.52c-0.162-0.139-0.378-0.209-0.648-0.209    S18.083,76.002,17.921,76.141z"/>
		<path d="M23.162,75.8c0.214,0.151,0.38,0.343,0.5,0.577c0.119,0.234,0.2,0.495,0.243,0.783c0.042,0.288,0.064,0.569,0.064,0.844    c0,0.279-0.021,0.562-0.064,0.851c-0.043,0.288-0.124,0.549-0.243,0.783c-0.119,0.234-0.286,0.425-0.5,0.574    s-0.494,0.223-0.84,0.223c-0.342,0-0.621-0.075-0.837-0.223s-0.384-0.339-0.503-0.574c-0.119-0.234-0.2-0.495-0.243-0.783    c-0.042-0.288-0.064-0.569-0.064-0.844c0-0.279,0.021-0.562,0.064-0.851c0.043-0.288,0.124-0.549,0.243-0.783    c0.119-0.234,0.287-0.426,0.503-0.577c0.216-0.15,0.495-0.226,0.837-0.226C22.668,75.574,22.948,75.65,23.162,75.8z     M21.674,76.141c-0.162,0.14-0.285,0.313-0.368,0.52c-0.083,0.207-0.139,0.432-0.166,0.675c-0.027,0.243-0.041,0.466-0.041,0.668    c0,0.207,0.014,0.431,0.041,0.671c0.027,0.241,0.082,0.466,0.166,0.675c0.083,0.209,0.206,0.384,0.368,0.523    c0.162,0.14,0.378,0.209,0.648,0.209s0.486-0.07,0.648-0.209c0.162-0.139,0.285-0.314,0.368-0.523    c0.083-0.209,0.138-0.434,0.165-0.675c0.027-0.241,0.041-0.464,0.041-0.671c0-0.203-0.013-0.425-0.041-0.668    c-0.027-0.243-0.082-0.468-0.165-0.675c-0.083-0.207-0.206-0.38-0.368-0.52c-0.162-0.139-0.378-0.209-0.648-0.209    S21.836,76.002,21.674,76.141z"/>
	</g>
</g>
<g>
	<g>
		<path d="M9.979,61.195c-0.173-0.162-0.397-0.243-0.671-0.243s-0.498,0.07-0.668,0.209c-0.171,0.14-0.304,0.315-0.398,0.527    c-0.095,0.211-0.158,0.44-0.189,0.685c-0.032,0.245-0.047,0.476-0.047,0.692h0.014c0.112-0.234,0.282-0.423,0.509-0.567    s0.476-0.216,0.746-0.216c0.238,0,0.453,0.04,0.645,0.118c0.191,0.079,0.354,0.188,0.489,0.328c0.135,0.139,0.24,0.306,0.314,0.5    c0.074,0.193,0.111,0.405,0.111,0.634s-0.04,0.442-0.118,0.638c-0.079,0.196-0.189,0.365-0.331,0.506    c-0.142,0.142-0.311,0.252-0.506,0.331c-0.196,0.079-0.411,0.118-0.645,0.118c-0.288,0-0.536-0.044-0.743-0.132    s-0.378-0.23-0.513-0.429c-0.135-0.198-0.235-0.456-0.301-0.773C7.613,63.804,7.58,63.413,7.58,62.95    c0-0.095,0.005-0.218,0.017-0.371c0.011-0.153,0.037-0.316,0.077-0.49c0.041-0.173,0.098-0.349,0.172-0.526    s0.173-0.338,0.297-0.482c0.124-0.144,0.278-0.261,0.462-0.351c0.185-0.09,0.405-0.135,0.662-0.135    c0.423,0,0.758,0.102,1.006,0.304c0.247,0.203,0.396,0.513,0.445,0.932h-0.425C10.257,61.568,10.153,61.356,9.979,61.195z     M8.771,62.737c-0.146,0.065-0.27,0.154-0.371,0.267c-0.102,0.113-0.178,0.244-0.229,0.395c-0.052,0.151-0.078,0.314-0.078,0.489    c0,0.167,0.022,0.324,0.067,0.473s0.116,0.278,0.212,0.388s0.22,0.197,0.368,0.26s0.326,0.095,0.533,0.095    c0.171,0,0.325-0.033,0.462-0.098c0.137-0.065,0.256-0.153,0.357-0.263c0.102-0.11,0.179-0.24,0.233-0.388    c0.054-0.148,0.081-0.304,0.081-0.466c0-0.171-0.026-0.333-0.078-0.486s-0.126-0.286-0.223-0.398    c-0.097-0.112-0.216-0.201-0.358-0.267c-0.142-0.065-0.303-0.098-0.482-0.098C9.083,62.639,8.917,62.672,8.771,62.737z"/>
		<path d="M12.285,65.359c0,0.099-0.012,0.197-0.037,0.293s-0.062,0.187-0.111,0.27c-0.05,0.083-0.111,0.156-0.186,0.22    c-0.074,0.063-0.161,0.108-0.26,0.135v-0.29c0.054-0.018,0.101-0.052,0.142-0.102c0.041-0.049,0.074-0.104,0.101-0.165    c0.027-0.061,0.046-0.124,0.058-0.189c0.011-0.065,0.015-0.123,0.01-0.172h-0.284v-0.715h0.567V65.359z"/>
		<path d="M15.656,60.82c0.214,0.151,0.38,0.343,0.5,0.577c0.119,0.234,0.2,0.495,0.243,0.783c0.042,0.288,0.064,0.569,0.064,0.844    c0,0.279-0.021,0.562-0.064,0.851c-0.043,0.288-0.124,0.549-0.243,0.783c-0.119,0.234-0.286,0.425-0.5,0.574    s-0.494,0.223-0.84,0.223c-0.342,0-0.621-0.075-0.837-0.223s-0.384-0.339-0.503-0.574c-0.119-0.234-0.2-0.495-0.243-0.783    c-0.042-0.288-0.064-0.569-0.064-0.844c0-0.279,0.021-0.562,0.064-0.851c0.043-0.288,0.124-0.549,0.243-0.783    c0.119-0.234,0.287-0.426,0.503-0.577c0.216-0.15,0.495-0.226,0.837-0.226C15.163,60.594,15.442,60.669,15.656,60.82z     M14.168,61.161c-0.162,0.14-0.285,0.313-0.368,0.52c-0.083,0.207-0.139,0.432-0.166,0.675c-0.027,0.243-0.041,0.466-0.041,0.668    c0,0.207,0.014,0.431,0.041,0.671c0.027,0.241,0.082,0.466,0.166,0.675c0.083,0.209,0.206,0.384,0.368,0.523    c0.162,0.14,0.378,0.209,0.648,0.209s0.486-0.07,0.648-0.209c0.162-0.139,0.285-0.314,0.368-0.523    c0.083-0.209,0.138-0.434,0.165-0.675c0.027-0.241,0.041-0.464,0.041-0.671c0-0.203-0.013-0.425-0.041-0.668    c-0.027-0.243-0.082-0.468-0.165-0.675c-0.083-0.207-0.206-0.38-0.368-0.52c-0.162-0.139-0.378-0.209-0.648-0.209    S14.33,61.021,14.168,61.161z"/>
		<path d="M19.409,60.82c0.214,0.151,0.38,0.343,0.5,0.577c0.119,0.234,0.2,0.495,0.243,0.783c0.042,0.288,0.064,0.569,0.064,0.844    c0,0.279-0.021,0.562-0.064,0.851c-0.043,0.288-0.124,0.549-0.243,0.783c-0.119,0.234-0.286,0.425-0.5,0.574    s-0.494,0.223-0.84,0.223c-0.342,0-0.621-0.075-0.837-0.223s-0.384-0.339-0.503-0.574c-0.119-0.234-0.2-0.495-0.243-0.783    c-0.042-0.288-0.064-0.569-0.064-0.844c0-0.279,0.021-0.562,0.064-0.851c0.043-0.288,0.124-0.549,0.243-0.783    c0.119-0.234,0.287-0.426,0.503-0.577c0.216-0.15,0.495-0.226,0.837-0.226C18.916,60.594,19.195,60.669,19.409,60.82z     M17.921,61.161c-0.162,0.14-0.285,0.313-0.368,0.52c-0.083,0.207-0.139,0.432-0.166,0.675c-0.027,0.243-0.041,0.466-0.041,0.668    c0,0.207,0.014,0.431,0.041,0.671c0.027,0.241,0.082,0.466,0.166,0.675c0.083,0.209,0.206,0.384,0.368,0.523    c0.162,0.14,0.378,0.209,0.648,0.209s0.486-0.07,0.648-0.209c0.162-0.139,0.285-0.314,0.368-0.523    c0.083-0.209,0.138-0.434,0.165-0.675c0.027-0.241,0.041-0.464,0.041-0.671c0-0.203-0.013-0.425-0.041-0.668    c-0.027-0.243-0.082-0.468-0.165-0.675c-0.083-0.207-0.206-0.38-0.368-0.52c-0.162-0.139-0.378-0.209-0.648-0.209    S18.083,61.021,17.921,61.161z"/>
		<path d="M23.162,60.82c0.214,0.151,0.38,0.343,0.5,0.577c0.119,0.234,0.2,0.495,0.243,0.783c0.042,0.288,0.064,0.569,0.064,0.844    c0,0.279-0.021,0.562-0.064,0.851c-0.043,0.288-0.124,0.549-0.243,0.783c-0.119,0.234-0.286,0.425-0.5,0.574    s-0.494,0.223-0.84,0.223c-0.342,0-0.621-0.075-0.837-0.223s-0.384-0.339-0.503-0.574c-0.119-0.234-0.2-0.495-0.243-0.783    c-0.042-0.288-0.064-0.569-0.064-0.844c0-0.279,0.021-0.562,0.064-0.851c0.043-0.288,0.124-0.549,0.243-0.783    c0.119-0.234,0.287-0.426,0.503-0.577c0.216-0.15,0.495-0.226,0.837-0.226C22.668,60.594,22.948,60.669,23.162,60.82z     M21.674,61.161c-0.162,0.14-0.285,0.313-0.368,0.52c-0.083,0.207-0.139,0.432-0.166,0.675c-0.027,0.243-0.041,0.466-0.041,0.668    c0,0.207,0.014,0.431,0.041,0.671c0.027,0.241,0.082,0.466,0.166,0.675c0.083,0.209,0.206,0.384,0.368,0.523    c0.162,0.14,0.378,0.209,0.648,0.209s0.486-0.07,0.648-0.209c0.162-0.139,0.285-0.314,0.368-0.523    c0.083-0.209,0.138-0.434,0.165-0.675c0.027-0.241,0.041-0.464,0.041-0.671c0-0.203-0.013-0.425-0.041-0.668    c-0.027-0.243-0.082-0.468-0.165-0.675c-0.083-0.207-0.206-0.38-0.368-0.52c-0.162-0.139-0.378-0.209-0.648-0.209    S21.836,61.021,21.674,61.161z"/>
	</g>
</g>
<g>
	<g>
		<path d="M10.415,47.462c-0.135,0.183-0.324,0.31-0.567,0.381v0.014c0.311,0.063,0.549,0.199,0.715,0.408    c0.167,0.209,0.25,0.476,0.25,0.8c0,0.239-0.043,0.447-0.128,0.625s-0.203,0.325-0.351,0.442c-0.148,0.117-0.32,0.205-0.516,0.263    c-0.196,0.058-0.406,0.088-0.631,0.088c-0.221,0-0.43-0.03-0.628-0.088c-0.198-0.059-0.371-0.146-0.52-0.263    c-0.148-0.117-0.266-0.265-0.351-0.442S7.56,49.304,7.56,49.065c0.009-0.31,0.097-0.576,0.264-0.796    c0.166-0.22,0.398-0.357,0.695-0.412v-0.014c-0.247-0.076-0.438-0.204-0.57-0.381s-0.199-0.397-0.199-0.658    c0-0.202,0.042-0.378,0.125-0.526c0.083-0.148,0.192-0.271,0.328-0.368c0.135-0.097,0.288-0.169,0.459-0.216    c0.171-0.047,0.344-0.071,0.52-0.071c0.176,0,0.349,0.024,0.52,0.071c0.171,0.047,0.325,0.12,0.462,0.216    c0.137,0.097,0.247,0.219,0.331,0.368c0.083,0.148,0.125,0.324,0.125,0.526C10.618,47.061,10.55,47.28,10.415,47.462z     M9.656,50.067c0.146-0.042,0.273-0.108,0.381-0.196c0.108-0.087,0.193-0.199,0.256-0.334c0.063-0.135,0.095-0.292,0.095-0.473    c0-0.171-0.033-0.32-0.098-0.449c-0.065-0.128-0.153-0.236-0.263-0.324c-0.11-0.088-0.238-0.153-0.385-0.196    c-0.146-0.043-0.298-0.062-0.456-0.058c-0.162-0.004-0.316,0.014-0.462,0.054c-0.146,0.041-0.273,0.104-0.381,0.192    s-0.195,0.197-0.26,0.327c-0.065,0.131-0.098,0.281-0.098,0.452c0,0.176,0.032,0.331,0.095,0.466    c0.063,0.135,0.148,0.247,0.256,0.334c0.108,0.087,0.235,0.154,0.381,0.199c0.146,0.045,0.303,0.068,0.469,0.068    S9.509,50.11,9.656,50.067z M9.564,47.638c0.122-0.034,0.229-0.087,0.321-0.159s0.167-0.164,0.223-0.277    c0.056-0.112,0.084-0.245,0.084-0.398c0-0.135-0.026-0.254-0.078-0.357s-0.123-0.189-0.213-0.257    c-0.09-0.067-0.195-0.119-0.317-0.155c-0.122-0.036-0.254-0.054-0.398-0.054c-0.13,0-0.256,0.018-0.378,0.054    c-0.122,0.036-0.229,0.087-0.324,0.155c-0.094,0.068-0.17,0.153-0.226,0.257s-0.084,0.223-0.084,0.357    c0,0.158,0.029,0.293,0.088,0.405s0.135,0.205,0.229,0.277c0.095,0.072,0.203,0.124,0.324,0.155    c0.122,0.031,0.245,0.045,0.371,0.041C9.317,47.686,9.443,47.671,9.564,47.638z"/>
		<path d="M12.285,50.388c0,0.099-0.012,0.197-0.037,0.293s-0.062,0.187-0.111,0.27c-0.05,0.083-0.111,0.156-0.186,0.22    c-0.074,0.063-0.161,0.108-0.26,0.135v-0.29c0.054-0.018,0.101-0.052,0.142-0.102c0.041-0.049,0.074-0.104,0.101-0.165    c0.027-0.061,0.046-0.124,0.058-0.189c0.011-0.065,0.015-0.123,0.01-0.172h-0.284v-0.715h0.567V50.388z"/>
		<path d="M15.656,45.849c0.214,0.151,0.38,0.343,0.5,0.577c0.119,0.234,0.2,0.495,0.243,0.783c0.042,0.288,0.064,0.569,0.064,0.844    c0,0.279-0.021,0.562-0.064,0.851c-0.043,0.288-0.124,0.549-0.243,0.783c-0.119,0.234-0.286,0.425-0.5,0.574    s-0.494,0.223-0.84,0.223c-0.342,0-0.621-0.075-0.837-0.223s-0.384-0.339-0.503-0.574c-0.119-0.234-0.2-0.495-0.243-0.783    c-0.042-0.288-0.064-0.569-0.064-0.844c0-0.279,0.021-0.562,0.064-0.851c0.043-0.288,0.124-0.549,0.243-0.783    c0.119-0.234,0.287-0.426,0.503-0.577c0.216-0.15,0.495-0.226,0.837-0.226C15.163,45.623,15.442,45.698,15.656,45.849z     M14.168,46.189c-0.162,0.14-0.285,0.313-0.368,0.52c-0.083,0.207-0.139,0.432-0.166,0.675c-0.027,0.243-0.041,0.466-0.041,0.668    c0,0.207,0.014,0.431,0.041,0.671c0.027,0.241,0.082,0.466,0.166,0.675c0.083,0.209,0.206,0.384,0.368,0.523    c0.162,0.14,0.378,0.209,0.648,0.209s0.486-0.07,0.648-0.209c0.162-0.139,0.285-0.314,0.368-0.523    c0.083-0.209,0.138-0.434,0.165-0.675c0.027-0.241,0.041-0.464,0.041-0.671c0-0.203-0.013-0.425-0.041-0.668    c-0.027-0.243-0.082-0.468-0.165-0.675c-0.083-0.207-0.206-0.38-0.368-0.52c-0.162-0.139-0.378-0.209-0.648-0.209    S14.33,46.05,14.168,46.189z"/>
		<path d="M19.409,45.849c0.214,0.151,0.38,0.343,0.5,0.577c0.119,0.234,0.2,0.495,0.243,0.783c0.042,0.288,0.064,0.569,0.064,0.844    c0,0.279-0.021,0.562-0.064,0.851c-0.043,0.288-0.124,0.549-0.243,0.783c-0.119,0.234-0.286,0.425-0.5,0.574    s-0.494,0.223-0.84,0.223c-0.342,0-0.621-0.075-0.837-0.223s-0.384-0.339-0.503-0.574c-0.119-0.234-0.2-0.495-0.243-0.783    c-0.042-0.288-0.064-0.569-0.064-0.844c0-0.279,0.021-0.562,0.064-0.851c0.043-0.288,0.124-0.549,0.243-0.783    c0.119-0.234,0.287-0.426,0.503-0.577c0.216-0.15,0.495-0.226,0.837-0.226C18.916,45.623,19.195,45.698,19.409,45.849z     M17.921,46.189c-0.162,0.14-0.285,0.313-0.368,0.52c-0.083,0.207-0.139,0.432-0.166,0.675c-0.027,0.243-0.041,0.466-0.041,0.668    c0,0.207,0.014,0.431,0.041,0.671c0.027,0.241,0.082,0.466,0.166,0.675c0.083,0.209,0.206,0.384,0.368,0.523    c0.162,0.14,0.378,0.209,0.648,0.209s0.486-0.07,0.648-0.209c0.162-0.139,0.285-0.314,0.368-0.523    c0.083-0.209,0.138-0.434,0.165-0.675c0.027-0.241,0.041-0.464,0.041-0.671c0-0.203-0.013-0.425-0.041-0.668    c-0.027-0.243-0.082-0.468-0.165-0.675c-0.083-0.207-0.206-0.38-0.368-0.52c-0.162-0.139-0.378-0.209-0.648-0.209    S18.083,46.05,17.921,46.189z"/>
		<path d="M23.162,45.849c0.214,0.151,0.38,0.343,0.5,0.577c0.119,0.234,0.2,0.495,0.243,0.783c0.042,0.288,0.064,0.569,0.064,0.844    c0,0.279-0.021,0.562-0.064,0.851c-0.043,0.288-0.124,0.549-0.243,0.783c-0.119,0.234-0.286,0.425-0.5,0.574    s-0.494,0.223-0.84,0.223c-0.342,0-0.621-0.075-0.837-0.223s-0.384-0.339-0.503-0.574c-0.119-0.234-0.2-0.495-0.243-0.783    c-0.042-0.288-0.064-0.569-0.064-0.844c0-0.279,0.021-0.562,0.064-0.851c0.043-0.288,0.124-0.549,0.243-0.783    c0.119-0.234,0.287-0.426,0.503-0.577c0.216-0.15,0.495-0.226,0.837-0.226C22.668,45.623,22.948,45.698,23.162,45.849z     M21.674,46.189c-0.162,0.14-0.285,0.313-0.368,0.52c-0.083,0.207-0.139,0.432-0.166,0.675c-0.027,0.243-0.041,0.466-0.041,0.668    c0,0.207,0.014,0.431,0.041,0.671c0.027,0.241,0.082,0.466,0.166,0.675c0.083,0.209,0.206,0.384,0.368,0.523    c0.162,0.14,0.378,0.209,0.648,0.209s0.486-0.07,0.648-0.209c0.162-0.139,0.285-0.314,0.368-0.523    c0.083-0.209,0.138-0.434,0.165-0.675c0.027-0.241,0.041-0.464,0.041-0.671c0-0.203-0.013-0.425-0.041-0.668    c-0.027-0.243-0.082-0.468-0.165-0.675c-0.083-0.207-0.206-0.38-0.368-0.52c-0.162-0.139-0.378-0.209-0.648-0.209    S21.836,46.05,21.674,46.189z"/>
	</g>
</g>
<g>
	<g>
		<path d="M4.715,31.564c0.15-0.016,0.281-0.053,0.392-0.111c0.11-0.059,0.202-0.147,0.276-0.267s0.127-0.287,0.159-0.503h0.344    v4.725H5.46v-3.51H4.212v-0.304C4.396,31.59,4.564,31.58,4.715,31.564z"/>
		<path d="M10.027,30.869c0.214,0.151,0.38,0.343,0.5,0.577c0.119,0.234,0.2,0.495,0.243,0.783c0.042,0.288,0.064,0.569,0.064,0.844    c0,0.279-0.021,0.562-0.064,0.851c-0.043,0.288-0.124,0.549-0.243,0.783c-0.119,0.234-0.286,0.425-0.5,0.574    s-0.494,0.223-0.84,0.223c-0.342,0-0.621-0.075-0.837-0.223s-0.384-0.339-0.503-0.574c-0.119-0.234-0.2-0.495-0.243-0.783    C7.561,33.635,7.54,33.354,7.54,33.08c0-0.279,0.021-0.562,0.064-0.851c0.043-0.288,0.124-0.549,0.243-0.783    c0.119-0.234,0.287-0.426,0.503-0.577c0.216-0.15,0.495-0.226,0.837-0.226C9.533,30.643,9.813,30.718,10.027,30.869z     M8.539,31.209c-0.162,0.14-0.285,0.313-0.368,0.52c-0.083,0.207-0.139,0.432-0.166,0.675c-0.027,0.243-0.041,0.466-0.041,0.668    c0,0.207,0.014,0.431,0.041,0.671c0.027,0.241,0.082,0.466,0.166,0.675c0.083,0.209,0.206,0.384,0.368,0.523    c0.162,0.14,0.378,0.209,0.648,0.209s0.486-0.07,0.648-0.209c0.162-0.139,0.285-0.314,0.368-0.523    c0.083-0.209,0.138-0.434,0.165-0.675c0.027-0.241,0.041-0.464,0.041-0.671c0-0.203-0.013-0.425-0.041-0.668    c-0.027-0.243-0.082-0.468-0.165-0.675c-0.083-0.207-0.206-0.38-0.368-0.52C9.672,31.07,9.457,31,9.187,31    S8.701,31.07,8.539,31.209z"/>
		<path d="M12.285,35.408c0,0.099-0.012,0.197-0.037,0.293s-0.062,0.187-0.111,0.27c-0.05,0.083-0.111,0.156-0.186,0.22    c-0.074,0.063-0.161,0.108-0.26,0.135v-0.29c0.054-0.018,0.101-0.052,0.142-0.102c0.041-0.049,0.074-0.104,0.101-0.165    c0.027-0.061,0.046-0.124,0.058-0.189c0.011-0.065,0.015-0.123,0.01-0.172h-0.284v-0.715h0.567V35.408z"/>
		<path d="M15.656,30.869c0.214,0.151,0.38,0.343,0.5,0.577c0.119,0.234,0.2,0.495,0.243,0.783c0.042,0.288,0.064,0.569,0.064,0.844    c0,0.279-0.021,0.562-0.064,0.851c-0.043,0.288-0.124,0.549-0.243,0.783c-0.119,0.234-0.286,0.425-0.5,0.574    s-0.494,0.223-0.84,0.223c-0.342,0-0.621-0.075-0.837-0.223s-0.384-0.339-0.503-0.574c-0.119-0.234-0.2-0.495-0.243-0.783    c-0.042-0.288-0.064-0.569-0.064-0.844c0-0.279,0.021-0.562,0.064-0.851c0.043-0.288,0.124-0.549,0.243-0.783    c0.119-0.234,0.287-0.426,0.503-0.577c0.216-0.15,0.495-0.226,0.837-0.226C15.163,30.643,15.442,30.718,15.656,30.869z     M14.168,31.209c-0.162,0.14-0.285,0.313-0.368,0.52c-0.083,0.207-0.139,0.432-0.166,0.675c-0.027,0.243-0.041,0.466-0.041,0.668    c0,0.207,0.014,0.431,0.041,0.671c0.027,0.241,0.082,0.466,0.166,0.675c0.083,0.209,0.206,0.384,0.368,0.523    c0.162,0.14,0.378,0.209,0.648,0.209s0.486-0.07,0.648-0.209c0.162-0.139,0.285-0.314,0.368-0.523    c0.083-0.209,0.138-0.434,0.165-0.675c0.027-0.241,0.041-0.464,0.041-0.671c0-0.203-0.013-0.425-0.041-0.668    c-0.027-0.243-0.082-0.468-0.165-0.675c-0.083-0.207-0.206-0.38-0.368-0.52C15.302,31.07,15.086,31,14.816,31    S14.33,31.07,14.168,31.209z"/>
		<path d="M19.409,30.869c0.214,0.151,0.38,0.343,0.5,0.577c0.119,0.234,0.2,0.495,0.243,0.783c0.042,0.288,0.064,0.569,0.064,0.844    c0,0.279-0.021,0.562-0.064,0.851c-0.043,0.288-0.124,0.549-0.243,0.783c-0.119,0.234-0.286,0.425-0.5,0.574    s-0.494,0.223-0.84,0.223c-0.342,0-0.621-0.075-0.837-0.223s-0.384-0.339-0.503-0.574c-0.119-0.234-0.2-0.495-0.243-0.783    c-0.042-0.288-0.064-0.569-0.064-0.844c0-0.279,0.021-0.562,0.064-0.851c0.043-0.288,0.124-0.549,0.243-0.783    c0.119-0.234,0.287-0.426,0.503-0.577c0.216-0.15,0.495-0.226,0.837-0.226C18.916,30.643,19.195,30.718,19.409,30.869z     M17.921,31.209c-0.162,0.14-0.285,0.313-0.368,0.52c-0.083,0.207-0.139,0.432-0.166,0.675c-0.027,0.243-0.041,0.466-0.041,0.668    c0,0.207,0.014,0.431,0.041,0.671c0.027,0.241,0.082,0.466,0.166,0.675c0.083,0.209,0.206,0.384,0.368,0.523    c0.162,0.14,0.378,0.209,0.648,0.209s0.486-0.07,0.648-0.209c0.162-0.139,0.285-0.314,0.368-0.523    c0.083-0.209,0.138-0.434,0.165-0.675c0.027-0.241,0.041-0.464,0.041-0.671c0-0.203-0.013-0.425-0.041-0.668    c-0.027-0.243-0.082-0.468-0.165-0.675c-0.083-0.207-0.206-0.38-0.368-0.52C19.055,31.07,18.839,31,18.569,31    S18.083,31.07,17.921,31.209z"/>
		<path d="M23.162,30.869c0.214,0.151,0.38,0.343,0.5,0.577c0.119,0.234,0.2,0.495,0.243,0.783c0.042,0.288,0.064,0.569,0.064,0.844    c0,0.279-0.021,0.562-0.064,0.851c-0.043,0.288-0.124,0.549-0.243,0.783c-0.119,0.234-0.286,0.425-0.5,0.574    s-0.494,0.223-0.84,0.223c-0.342,0-0.621-0.075-0.837-0.223s-0.384-0.339-0.503-0.574c-0.119-0.234-0.2-0.495-0.243-0.783    c-0.042-0.288-0.064-0.569-0.064-0.844c0-0.279,0.021-0.562,0.064-0.851c0.043-0.288,0.124-0.549,0.243-0.783    c0.119-0.234,0.287-0.426,0.503-0.577c0.216-0.15,0.495-0.226,0.837-0.226C22.668,30.643,22.948,30.718,23.162,30.869z     M21.674,31.209c-0.162,0.14-0.285,0.313-0.368,0.52c-0.083,0.207-0.139,0.432-0.166,0.675c-0.027,0.243-0.041,0.466-0.041,0.668    c0,0.207,0.014,0.431,0.041,0.671c0.027,0.241,0.082,0.466,0.166,0.675c0.083,0.209,0.206,0.384,0.368,0.523    c0.162,0.14,0.378,0.209,0.648,0.209s0.486-0.07,0.648-0.209c0.162-0.139,0.285-0.314,0.368-0.523    c0.083-0.209,0.138-0.434,0.165-0.675c0.027-0.241,0.041-0.464,0.041-0.671c0-0.203-0.013-0.425-0.041-0.668    c-0.027-0.243-0.082-0.468-0.165-0.675c-0.083-0.207-0.206-0.38-0.368-0.52C22.808,31.07,22.592,31,22.322,31    S21.836,31.07,21.674,31.209z"/>
	</g>
</g>
<g>
	<g>
		<path d="M4.715,16.583c0.15-0.016,0.281-0.053,0.392-0.111c0.11-0.059,0.202-0.147,0.276-0.267s0.127-0.287,0.159-0.503h0.344    v4.725H5.46v-3.51H4.212v-0.304C4.396,16.609,4.564,16.6,4.715,16.583z"/>
		<path d="M7.553,20.428c0.004-0.234,0.045-0.441,0.121-0.621c0.077-0.18,0.178-0.342,0.304-0.486    c0.125-0.144,0.268-0.276,0.425-0.395c0.158-0.119,0.32-0.234,0.486-0.344s0.332-0.223,0.496-0.337    c0.164-0.115,0.312-0.237,0.442-0.368c0.131-0.131,0.229-0.265,0.294-0.402c0.065-0.137,0.098-0.3,0.098-0.489    c0-0.153-0.028-0.289-0.084-0.409c-0.056-0.119-0.133-0.22-0.229-0.304c-0.097-0.083-0.209-0.146-0.337-0.189    C9.439,16.042,9.304,16.02,9.16,16.02c-0.194,0-0.359,0.036-0.496,0.108c-0.138,0.072-0.249,0.169-0.334,0.291    c-0.085,0.121-0.147,0.261-0.186,0.418c-0.038,0.157-0.055,0.324-0.05,0.5H7.668c-0.005-0.243,0.023-0.467,0.084-0.672    c0.061-0.205,0.154-0.381,0.28-0.53s0.285-0.264,0.476-0.348c0.191-0.083,0.415-0.125,0.671-0.125    c0.207,0,0.399,0.028,0.577,0.084s0.333,0.14,0.466,0.25c0.133,0.11,0.236,0.249,0.311,0.415s0.111,0.36,0.111,0.581    c0,0.198-0.033,0.378-0.098,0.54c-0.065,0.162-0.153,0.31-0.264,0.445c-0.11,0.135-0.236,0.26-0.378,0.375    c-0.142,0.115-0.291,0.222-0.449,0.321c-0.112,0.077-0.245,0.161-0.398,0.253c-0.153,0.092-0.3,0.195-0.442,0.307    c-0.142,0.113-0.267,0.235-0.375,0.368s-0.176,0.278-0.203,0.435h2.626v0.392H7.553z"/>
		<path d="M12.285,20.428c0,0.099-0.012,0.197-0.037,0.293s-0.062,0.187-0.111,0.27c-0.05,0.083-0.111,0.156-0.186,0.22    c-0.074,0.063-0.161,0.108-0.26,0.135v-0.29c0.054-0.018,0.101-0.052,0.142-0.102c0.041-0.049,0.074-0.104,0.101-0.165    c0.027-0.061,0.046-0.124,0.058-0.189c0.011-0.065,0.015-0.123,0.01-0.172h-0.284v-0.715h0.567V20.428z"/>
		<path d="M15.656,15.888c0.214,0.151,0.38,0.343,0.5,0.577c0.119,0.234,0.2,0.495,0.243,0.783c0.042,0.288,0.064,0.569,0.064,0.844    c0,0.279-0.021,0.562-0.064,0.851c-0.043,0.288-0.124,0.549-0.243,0.783c-0.119,0.234-0.286,0.425-0.5,0.574    s-0.494,0.223-0.84,0.223c-0.342,0-0.621-0.075-0.837-0.223s-0.384-0.339-0.503-0.574c-0.119-0.234-0.2-0.495-0.243-0.783    c-0.042-0.288-0.064-0.569-0.064-0.844c0-0.279,0.021-0.562,0.064-0.851c0.043-0.288,0.124-0.549,0.243-0.783    c0.119-0.234,0.287-0.426,0.503-0.577c0.216-0.15,0.495-0.226,0.837-0.226C15.163,15.662,15.442,15.738,15.656,15.888z     M14.168,16.229c-0.162,0.14-0.285,0.313-0.368,0.52c-0.083,0.207-0.139,0.432-0.166,0.675c-0.027,0.243-0.041,0.466-0.041,0.668    c0,0.207,0.014,0.431,0.041,0.671c0.027,0.241,0.082,0.466,0.166,0.675c0.083,0.209,0.206,0.384,0.368,0.523    c0.162,0.14,0.378,0.209,0.648,0.209s0.486-0.07,0.648-0.209c0.162-0.139,0.285-0.314,0.368-0.523    c0.083-0.209,0.138-0.434,0.165-0.675c0.027-0.241,0.041-0.464,0.041-0.671c0-0.203-0.013-0.425-0.041-0.668    c-0.027-0.243-0.082-0.468-0.165-0.675c-0.083-0.207-0.206-0.38-0.368-0.52c-0.162-0.139-0.378-0.209-0.648-0.209    S14.33,16.09,14.168,16.229z"/>
		<path d="M19.409,15.888c0.214,0.151,0.38,0.343,0.5,0.577c0.119,0.234,0.2,0.495,0.243,0.783c0.042,0.288,0.064,0.569,0.064,0.844    c0,0.279-0.021,0.562-0.064,0.851c-0.043,0.288-0.124,0.549-0.243,0.783c-0.119,0.234-0.286,0.425-0.5,0.574    s-0.494,0.223-0.84,0.223c-0.342,0-0.621-0.075-0.837-0.223s-0.384-0.339-0.503-0.574c-0.119-0.234-0.2-0.495-0.243-0.783    c-0.042-0.288-0.064-0.569-0.064-0.844c0-0.279,0.021-0.562,0.064-0.851c0.043-0.288,0.124-0.549,0.243-0.783    c0.119-0.234,0.287-0.426,0.503-0.577c0.216-0.15,0.495-0.226,0.837-0.226C18.916,15.662,19.195,15.738,19.409,15.888z     M17.921,16.229c-0.162,0.14-0.285,0.313-0.368,0.52c-0.083,0.207-0.139,0.432-0.166,0.675c-0.027,0.243-0.041,0.466-0.041,0.668    c0,0.207,0.014,0.431,0.041,0.671c0.027,0.241,0.082,0.466,0.166,0.675c0.083,0.209,0.206,0.384,0.368,0.523    c0.162,0.14,0.378,0.209,0.648,0.209s0.486-0.07,0.648-0.209c0.162-0.139,0.285-0.314,0.368-0.523    c0.083-0.209,0.138-0.434,0.165-0.675c0.027-0.241,0.041-0.464,0.041-0.671c0-0.203-0.013-0.425-0.041-0.668    c-0.027-0.243-0.082-0.468-0.165-0.675c-0.083-0.207-0.206-0.38-0.368-0.52c-0.162-0.139-0.378-0.209-0.648-0.209    S18.083,16.09,17.921,16.229z"/>
		<path d="M23.162,15.888c0.214,0.151,0.38,0.343,0.5,0.577c0.119,0.234,0.2,0.495,0.243,0.783c0.042,0.288,0.064,0.569,0.064,0.844    c0,0.279-0.021,0.562-0.064,0.851c-0.043,0.288-0.124,0.549-0.243,0.783c-0.119,0.234-0.286,0.425-0.5,0.574    s-0.494,0.223-0.84,0.223c-0.342,0-0.621-0.075-0.837-0.223s-0.384-0.339-0.503-0.574c-0.119-0.234-0.2-0.495-0.243-0.783    c-0.042-0.288-0.064-0.569-0.064-0.844c0-0.279,0.021-0.562,0.064-0.851c0.043-0.288,0.124-0.549,0.243-0.783    c0.119-0.234,0.287-0.426,0.503-0.577c0.216-0.15,0.495-0.226,0.837-0.226C22.668,15.662,22.948,15.738,23.162,15.888z     M21.674,16.229c-0.162,0.14-0.285,0.313-0.368,0.52c-0.083,0.207-0.139,0.432-0.166,0.675c-0.027,0.243-0.041,0.466-0.041,0.668    c0,0.207,0.014,0.431,0.041,0.671c0.027,0.241,0.082,0.466,0.166,0.675c0.083,0.209,0.206,0.384,0.368,0.523    c0.162,0.14,0.378,0.209,0.648,0.209s0.486-0.07,0.648-0.209c0.162-0.139,0.285-0.314,0.368-0.523    c0.083-0.209,0.138-0.434,0.165-0.675c0.027-0.241,0.041-0.464,0.041-0.671c0-0.203-0.013-0.425-0.041-0.668    c-0.027-0.243-0.082-0.468-0.165-0.675c-0.083-0.207-0.206-0.38-0.368-0.52c-0.162-0.139-0.378-0.209-0.648-0.209    S21.836,16.09,21.674,16.229z"/>
	</g>
</g>
<g>
	<g>
		<path d="M0.719,4.816C0.91,5.025,1.184,5.15,1.539,5.191V3.193C1.35,3.152,1.169,3.104,0.996,3.048    C0.822,2.991,0.671,2.913,0.543,2.812C0.415,2.71,0.312,2.582,0.236,2.427C0.16,2.271,0.122,2.077,0.122,1.843    c0-0.203,0.037-0.385,0.111-0.547s0.175-0.3,0.304-0.415s0.279-0.203,0.452-0.263s0.356-0.091,0.55-0.091V0h0.263v0.526    c0.198,0,0.383,0.035,0.557,0.105S2.685,0.8,2.818,0.928C2.951,1.056,3.054,1.21,3.128,1.391c0.074,0.18,0.109,0.38,0.105,0.601    H2.808C2.803,1.654,2.709,1.385,2.524,1.185s-0.425-0.3-0.722-0.3v1.944c0.193,0.041,0.383,0.09,0.57,0.148    c0.187,0.059,0.353,0.14,0.5,0.243c0.146,0.104,0.264,0.233,0.354,0.388c0.09,0.155,0.135,0.352,0.135,0.591    c0,0.22-0.044,0.415-0.131,0.583c-0.088,0.169-0.205,0.31-0.351,0.422c-0.146,0.113-0.313,0.197-0.5,0.253    C2.192,5.514,2,5.542,1.802,5.542v0.574H1.539V5.535c-0.527-0.05-0.91-0.205-1.151-0.466C0.147,4.808,0.018,4.421,0,3.908h0.425    C0.43,4.304,0.527,4.607,0.719,4.816z M1.158,0.941C1.038,0.98,0.933,1.04,0.84,1.121S0.676,1.306,0.625,1.435    C0.573,1.562,0.547,1.714,0.547,1.89c0,0.157,0.028,0.286,0.084,0.385c0.057,0.099,0.131,0.18,0.223,0.243    C0.946,2.581,1.052,2.63,1.171,2.667c0.119,0.036,0.242,0.07,0.368,0.101V0.884C1.404,0.884,1.277,0.903,1.158,0.941z     M2.221,5.137c0.135-0.036,0.255-0.094,0.361-0.175C2.688,4.88,2.773,4.778,2.838,4.654C2.903,4.53,2.936,4.381,2.936,4.205    c0-0.162-0.035-0.297-0.104-0.405S2.673,3.604,2.565,3.534S2.335,3.407,2.201,3.361C2.065,3.316,1.933,3.278,1.802,3.247v1.944    C1.946,5.191,2.086,5.173,2.221,5.137z"/>
		<path d="M4.715,1.603c0.15-0.016,0.281-0.053,0.392-0.111c0.11-0.059,0.202-0.147,0.276-0.267S5.51,0.938,5.542,0.722h0.344v4.725    H5.46v-3.51H4.212V1.633C4.396,1.629,4.564,1.619,4.715,1.603z"/>
		<path d="M9.7,0.722h0.385v3.193h0.708v0.358h-0.708v1.174H9.693V4.273h-2.18V3.861L9.7,0.722z M9.693,1.343H9.679L7.897,3.915    h1.795V1.343z"/>
		<path d="M12.285,5.447c0,0.099-0.012,0.197-0.037,0.293s-0.062,0.187-0.111,0.27c-0.05,0.083-0.111,0.156-0.186,0.22    c-0.074,0.063-0.161,0.108-0.26,0.135v-0.29c0.054-0.018,0.101-0.052,0.142-0.102c0.041-0.049,0.074-0.104,0.101-0.165    c0.027-0.061,0.046-0.124,0.058-0.189c0.011-0.065,0.015-0.123,0.01-0.172h-0.284V4.732h0.567V5.447z"/>
		<path d="M15.656,0.908c0.214,0.151,0.38,0.343,0.5,0.577c0.119,0.234,0.2,0.495,0.243,0.783c0.042,0.288,0.064,0.569,0.064,0.844    c0,0.279-0.021,0.562-0.064,0.851c-0.043,0.288-0.124,0.549-0.243,0.783c-0.119,0.234-0.286,0.425-0.5,0.574    s-0.494,0.223-0.84,0.223c-0.342,0-0.621-0.075-0.837-0.223s-0.384-0.339-0.503-0.574c-0.119-0.234-0.2-0.495-0.243-0.783    c-0.042-0.288-0.064-0.569-0.064-0.844c0-0.279,0.021-0.562,0.064-0.851c0.043-0.288,0.124-0.549,0.243-0.783    c0.119-0.234,0.287-0.426,0.503-0.577c0.216-0.15,0.495-0.226,0.837-0.226C15.163,0.682,15.442,0.757,15.656,0.908z M14.168,1.249    c-0.162,0.14-0.285,0.313-0.368,0.52c-0.083,0.207-0.139,0.432-0.166,0.675c-0.027,0.243-0.041,0.466-0.041,0.668    c0,0.207,0.014,0.431,0.041,0.671c0.027,0.241,0.082,0.466,0.166,0.675c0.083,0.209,0.206,0.384,0.368,0.523    c0.162,0.14,0.378,0.209,0.648,0.209s0.486-0.07,0.648-0.209c0.162-0.139,0.285-0.314,0.368-0.523    c0.083-0.209,0.138-0.434,0.165-0.675c0.027-0.241,0.041-0.464,0.041-0.671c0-0.203-0.013-0.425-0.041-0.668    c-0.027-0.243-0.082-0.468-0.165-0.675c-0.083-0.207-0.206-0.38-0.368-0.52c-0.162-0.139-0.378-0.209-0.648-0.209    S14.33,1.109,14.168,1.249z"/>
		<path d="M19.409,0.908c0.214,0.151,0.38,0.343,0.5,0.577c0.119,0.234,0.2,0.495,0.243,0.783c0.042,0.288,0.064,0.569,0.064,0.844    c0,0.279-0.021,0.562-0.064,0.851c-0.043,0.288-0.124,0.549-0.243,0.783c-0.119,0.234-0.286,0.425-0.5,0.574    s-0.494,0.223-0.84,0.223c-0.342,0-0.621-0.075-0.837-0.223s-0.384-0.339-0.503-0.574c-0.119-0.234-0.2-0.495-0.243-0.783    c-0.042-0.288-0.064-0.569-0.064-0.844c0-0.279,0.021-0.562,0.064-0.851c0.043-0.288,0.124-0.549,0.243-0.783    c0.119-0.234,0.287-0.426,0.503-0.577c0.216-0.15,0.495-0.226,0.837-0.226C18.916,0.682,19.195,0.757,19.409,0.908z M17.921,1.249    c-0.162,0.14-0.285,0.313-0.368,0.52c-0.083,0.207-0.139,0.432-0.166,0.675c-0.027,0.243-0.041,0.466-0.041,0.668    c0,0.207,0.014,0.431,0.041,0.671c0.027,0.241,0.082,0.466,0.166,0.675c0.083,0.209,0.206,0.384,0.368,0.523    c0.162,0.14,0.378,0.209,0.648,0.209s0.486-0.07,0.648-0.209c0.162-0.139,0.285-0.314,0.368-0.523    c0.083-0.209,0.138-0.434,0.165-0.675c0.027-0.241,0.041-0.464,0.041-0.671c0-0.203-0.013-0.425-0.041-0.668    c-0.027-0.243-0.082-0.468-0.165-0.675c-0.083-0.207-0.206-0.38-0.368-0.52c-0.162-0.139-0.378-0.209-0.648-0.209    S18.083,1.109,17.921,1.249z"/>
		<path d="M23.162,0.908c0.214,0.151,0.38,0.343,0.5,0.577c0.119,0.234,0.2,0.495,0.243,0.783c0.042,0.288,0.064,0.569,0.064,0.844    c0,0.279-0.021,0.562-0.064,0.851c-0.043,0.288-0.124,0.549-0.243,0.783c-0.119,0.234-0.286,0.425-0.5,0.574    s-0.494,0.223-0.84,0.223c-0.342,0-0.621-0.075-0.837-0.223s-0.384-0.339-0.503-0.574c-0.119-0.234-0.2-0.495-0.243-0.783    c-0.042-0.288-0.064-0.569-0.064-0.844c0-0.279,0.021-0.562,0.064-0.851c0.043-0.288,0.124-0.549,0.243-0.783    c0.119-0.234,0.287-0.426,0.503-0.577c0.216-0.15,0.495-0.226,0.837-0.226C22.668,0.682,22.948,0.757,23.162,0.908z M21.674,1.249    c-0.162,0.14-0.285,0.313-0.368,0.52c-0.083,0.207-0.139,0.432-0.166,0.675C21.114,2.687,21.1,2.909,21.1,3.112    c0,0.207,0.014,0.431,0.041,0.671c0.027,0.241,0.082,0.466,0.166,0.675c0.083,0.209,0.206,0.384,0.368,0.523    c0.162,0.14,0.378,0.209,0.648,0.209s0.486-0.07,0.648-0.209c0.162-0.139,0.285-0.314,0.368-0.523    c0.083-0.209,0.138-0.434,0.165-0.675c0.027-0.241,0.041-0.464,0.041-0.671c0-0.203-0.013-0.425-0.041-0.668    c-0.027-0.243-0.082-0.468-0.165-0.675c-0.083-0.207-0.206-0.38-0.368-0.52c-0.162-0.139-0.378-0.209-0.648-0.209    S21.836,1.109,21.674,1.249z"/>
	</g>
</g>
<g>
	<g>
		<path d="M36.867,119.582c0.004-0.234,0.045-0.441,0.122-0.621c0.076-0.18,0.178-0.342,0.304-0.486    c0.126-0.144,0.268-0.275,0.425-0.395c0.157-0.119,0.319-0.233,0.486-0.344s0.332-0.224,0.496-0.338    c0.164-0.115,0.312-0.237,0.442-0.368c0.13-0.13,0.228-0.264,0.293-0.401c0.065-0.138,0.098-0.301,0.098-0.489    c0-0.153-0.028-0.289-0.084-0.408c-0.057-0.119-0.133-0.221-0.229-0.304c-0.097-0.084-0.209-0.146-0.338-0.189    c-0.128-0.043-0.264-0.064-0.408-0.064c-0.193,0-0.359,0.036-0.496,0.108s-0.249,0.169-0.334,0.29    c-0.086,0.122-0.147,0.262-0.186,0.419c-0.038,0.157-0.055,0.324-0.05,0.499h-0.425c-0.004-0.243,0.023-0.467,0.084-0.671    c0.061-0.205,0.154-0.382,0.28-0.53s0.285-0.265,0.476-0.348s0.415-0.125,0.671-0.125c0.207,0,0.399,0.028,0.577,0.085    c0.178,0.056,0.333,0.139,0.466,0.249s0.236,0.249,0.311,0.415c0.074,0.167,0.111,0.36,0.111,0.581    c0,0.198-0.033,0.378-0.098,0.54c-0.065,0.162-0.153,0.311-0.263,0.445c-0.11,0.135-0.236,0.26-0.378,0.375    c-0.142,0.114-0.292,0.222-0.449,0.32c-0.112,0.076-0.245,0.161-0.398,0.253c-0.153,0.093-0.301,0.194-0.442,0.308    c-0.142,0.112-0.267,0.234-0.375,0.367s-0.176,0.278-0.203,0.436h2.626v0.392H36.867z"/>
		<path d="M43.094,115.043c0.214,0.15,0.38,0.343,0.5,0.577c0.12,0.233,0.2,0.495,0.243,0.782c0.043,0.288,0.064,0.569,0.064,0.844    c0,0.279-0.021,0.563-0.064,0.851c-0.043,0.288-0.124,0.55-0.243,0.783c-0.119,0.234-0.286,0.426-0.5,0.574    c-0.213,0.148-0.494,0.223-0.84,0.223c-0.342,0-0.621-0.074-0.837-0.223c-0.216-0.148-0.384-0.34-0.503-0.574    c-0.119-0.233-0.2-0.495-0.243-0.783c-0.043-0.287-0.064-0.569-0.064-0.844c0-0.278,0.021-0.562,0.064-0.851    c0.042-0.287,0.124-0.549,0.243-0.782c0.119-0.234,0.287-0.427,0.503-0.577c0.216-0.151,0.495-0.227,0.837-0.227    C42.6,114.816,42.88,114.892,43.094,115.043z M41.605,115.384c-0.162,0.14-0.285,0.312-0.368,0.52    c-0.083,0.207-0.139,0.432-0.166,0.675s-0.041,0.466-0.041,0.668c0,0.207,0.014,0.432,0.041,0.672    c0.027,0.241,0.082,0.466,0.166,0.675c0.083,0.21,0.206,0.384,0.368,0.523c0.162,0.14,0.378,0.209,0.648,0.209    s0.486-0.069,0.648-0.209c0.162-0.14,0.285-0.313,0.368-0.523c0.083-0.209,0.138-0.434,0.166-0.675    c0.027-0.24,0.041-0.465,0.041-0.672c0-0.202-0.014-0.425-0.041-0.668c-0.027-0.243-0.083-0.468-0.166-0.675    c-0.083-0.207-0.206-0.38-0.368-0.52c-0.162-0.14-0.378-0.21-0.648-0.21S41.768,115.244,41.605,115.384z"/>
		<path d="M46.847,115.043c0.213,0.15,0.38,0.343,0.5,0.577c0.119,0.233,0.2,0.495,0.243,0.782c0.043,0.288,0.064,0.569,0.064,0.844    c0,0.279-0.021,0.563-0.064,0.851c-0.042,0.288-0.124,0.55-0.243,0.783c-0.12,0.234-0.286,0.426-0.5,0.574    c-0.214,0.148-0.494,0.223-0.84,0.223c-0.342,0-0.621-0.074-0.837-0.223c-0.216-0.148-0.383-0.34-0.503-0.574    c-0.119-0.233-0.2-0.495-0.243-0.783c-0.043-0.287-0.064-0.569-0.064-0.844c0-0.278,0.021-0.562,0.064-0.851    c0.042-0.287,0.124-0.549,0.243-0.782c0.12-0.234,0.287-0.427,0.503-0.577c0.216-0.151,0.495-0.227,0.837-0.227    C46.353,114.816,46.633,114.892,46.847,115.043z M45.358,115.384c-0.162,0.14-0.285,0.312-0.368,0.52    c-0.083,0.207-0.138,0.432-0.166,0.675c-0.027,0.243-0.041,0.466-0.041,0.668c0,0.207,0.014,0.432,0.041,0.672    c0.027,0.241,0.082,0.466,0.166,0.675c0.083,0.21,0.206,0.384,0.368,0.523c0.162,0.14,0.378,0.209,0.648,0.209    c0.27,0,0.486-0.069,0.648-0.209c0.162-0.14,0.284-0.313,0.368-0.523c0.083-0.209,0.138-0.434,0.166-0.675    c0.027-0.24,0.041-0.465,0.041-0.672c0-0.202-0.014-0.425-0.041-0.668c-0.027-0.243-0.083-0.468-0.166-0.675    c-0.083-0.207-0.206-0.38-0.368-0.52c-0.162-0.14-0.378-0.21-0.648-0.21C45.737,115.174,45.521,115.244,45.358,115.384z"/>
		<path d="M49.041,115.738c0.151-0.016,0.281-0.053,0.392-0.111s0.203-0.147,0.277-0.267s0.127-0.287,0.159-0.503h0.344v4.725    h-0.425v-3.51h-1.249v-0.304C48.722,115.764,48.89,115.754,49.041,115.738z"/>
	</g>
</g>
<g>
	<g>
		<path d="M107.875,119.58c0.004-0.234,0.045-0.441,0.122-0.621c0.076-0.18,0.178-0.342,0.304-0.486    c0.126-0.143,0.268-0.275,0.425-0.395c0.157-0.119,0.319-0.232,0.486-0.344c0.167-0.109,0.332-0.223,0.496-0.338    c0.165-0.115,0.312-0.236,0.442-0.367c0.13-0.131,0.228-0.264,0.293-0.402c0.065-0.137,0.098-0.301,0.098-0.488    c0-0.154-0.028-0.289-0.084-0.408c-0.057-0.119-0.133-0.221-0.229-0.305c-0.097-0.084-0.209-0.146-0.338-0.189    c-0.128-0.043-0.264-0.064-0.408-0.064c-0.193,0-0.359,0.037-0.496,0.109s-0.249,0.168-0.334,0.289    c-0.085,0.123-0.147,0.262-0.186,0.42c-0.039,0.156-0.055,0.324-0.051,0.498h-0.425c-0.004-0.242,0.023-0.467,0.084-0.67    c0.061-0.205,0.154-0.383,0.28-0.531c0.125-0.148,0.284-0.264,0.476-0.348c0.191-0.082,0.415-0.125,0.672-0.125    c0.207,0,0.399,0.029,0.577,0.086c0.178,0.055,0.333,0.139,0.465,0.248c0.133,0.111,0.236,0.25,0.311,0.416    s0.111,0.359,0.111,0.58c0,0.199-0.033,0.379-0.098,0.541c-0.065,0.162-0.153,0.311-0.263,0.445s-0.236,0.26-0.378,0.375    c-0.142,0.113-0.292,0.221-0.449,0.32c-0.112,0.076-0.245,0.16-0.398,0.252c-0.153,0.094-0.3,0.195-0.442,0.309    c-0.142,0.111-0.267,0.234-0.375,0.367s-0.175,0.277-0.203,0.436h2.626v0.391H107.875z"/>
		<path d="M114.102,115.041c0.213,0.15,0.38,0.344,0.5,0.578c0.119,0.232,0.2,0.494,0.243,0.781c0.043,0.289,0.064,0.57,0.064,0.844    c0,0.279-0.021,0.564-0.064,0.852c-0.042,0.287-0.124,0.549-0.243,0.783c-0.12,0.234-0.286,0.426-0.5,0.574    c-0.214,0.148-0.494,0.223-0.84,0.223c-0.342,0-0.621-0.074-0.837-0.223c-0.216-0.148-0.383-0.34-0.503-0.574    c-0.119-0.234-0.2-0.496-0.243-0.783c-0.043-0.287-0.064-0.57-0.064-0.844c0-0.279,0.021-0.562,0.064-0.852    c0.042-0.287,0.124-0.549,0.243-0.781c0.12-0.234,0.287-0.428,0.503-0.578c0.216-0.15,0.495-0.227,0.837-0.227    C113.607,114.814,113.888,114.891,114.102,115.041z M112.613,115.383c-0.162,0.139-0.285,0.312-0.368,0.52    c-0.083,0.207-0.138,0.432-0.166,0.674c-0.027,0.244-0.041,0.467-0.041,0.668c0,0.207,0.014,0.432,0.041,0.672    c0.027,0.242,0.082,0.467,0.166,0.676c0.083,0.209,0.206,0.383,0.368,0.523c0.162,0.139,0.378,0.209,0.648,0.209    c0.27,0,0.486-0.07,0.648-0.209c0.162-0.141,0.284-0.314,0.368-0.523c0.083-0.209,0.138-0.434,0.166-0.676    c0.027-0.24,0.041-0.465,0.041-0.672c0-0.201-0.014-0.424-0.041-0.668c-0.027-0.242-0.083-0.467-0.166-0.674    c-0.083-0.207-0.206-0.381-0.368-0.52c-0.162-0.141-0.378-0.211-0.648-0.211C112.991,115.172,112.775,115.242,112.613,115.383z"/>
		<path d="M117.854,115.041c0.213,0.15,0.38,0.344,0.5,0.578c0.119,0.232,0.2,0.494,0.243,0.781c0.043,0.289,0.064,0.57,0.064,0.844    c0,0.279-0.021,0.564-0.064,0.852c-0.042,0.287-0.124,0.549-0.243,0.783c-0.12,0.234-0.286,0.426-0.5,0.574    c-0.214,0.148-0.494,0.223-0.84,0.223c-0.342,0-0.621-0.074-0.837-0.223c-0.216-0.148-0.383-0.34-0.502-0.574    c-0.12-0.234-0.201-0.496-0.243-0.783c-0.043-0.287-0.064-0.57-0.064-0.844c0-0.279,0.021-0.562,0.064-0.852    c0.042-0.287,0.124-0.549,0.243-0.781c0.119-0.234,0.287-0.428,0.502-0.578c0.216-0.15,0.495-0.227,0.837-0.227    C117.36,114.814,117.641,114.891,117.854,115.041z M116.366,115.383c-0.162,0.139-0.285,0.312-0.368,0.52    c-0.083,0.207-0.138,0.432-0.166,0.674c-0.027,0.244-0.04,0.467-0.04,0.668c0,0.207,0.013,0.432,0.04,0.672    c0.027,0.242,0.083,0.467,0.166,0.676c0.083,0.209,0.206,0.383,0.368,0.523c0.162,0.139,0.378,0.209,0.648,0.209    s0.486-0.07,0.648-0.209c0.162-0.141,0.285-0.314,0.368-0.523c0.083-0.209,0.139-0.434,0.166-0.676    c0.027-0.24,0.041-0.465,0.041-0.672c0-0.201-0.014-0.424-0.041-0.668c-0.027-0.242-0.082-0.467-0.166-0.674    c-0.083-0.207-0.206-0.381-0.368-0.52c-0.162-0.141-0.378-0.211-0.648-0.211S116.528,115.242,116.366,115.383z"/>
		<path d="M121.56,115.416c-0.173-0.162-0.397-0.244-0.671-0.244c-0.275,0-0.498,0.07-0.668,0.211    c-0.171,0.139-0.304,0.314-0.398,0.525c-0.094,0.213-0.157,0.439-0.189,0.686c-0.031,0.246-0.047,0.477-0.047,0.691h0.013    c0.112-0.234,0.282-0.422,0.51-0.566c0.227-0.145,0.476-0.217,0.746-0.217c0.238,0,0.453,0.041,0.645,0.119    c0.191,0.078,0.354,0.188,0.489,0.326c0.135,0.141,0.24,0.307,0.314,0.5s0.111,0.406,0.111,0.635c0,0.23-0.04,0.441-0.118,0.639    c-0.079,0.195-0.189,0.363-0.331,0.506c-0.142,0.141-0.311,0.252-0.506,0.33s-0.411,0.119-0.645,0.119    c-0.288,0-0.536-0.045-0.743-0.133s-0.378-0.23-0.513-0.428c-0.135-0.199-0.235-0.455-0.3-0.773    c-0.065-0.316-0.098-0.707-0.098-1.172c0-0.094,0.005-0.217,0.017-0.371c0.011-0.152,0.037-0.314,0.078-0.488    s0.098-0.35,0.172-0.527s0.173-0.338,0.297-0.482c0.124-0.145,0.278-0.26,0.462-0.352c0.185-0.09,0.405-0.135,0.662-0.135    c0.423,0,0.758,0.102,1.005,0.305c0.248,0.203,0.396,0.512,0.446,0.932h-0.425C121.838,115.789,121.733,115.578,121.56,115.416z     M120.352,116.959c-0.146,0.064-0.27,0.154-0.372,0.266c-0.101,0.113-0.178,0.244-0.229,0.395    c-0.052,0.152-0.078,0.314-0.078,0.49c0,0.166,0.022,0.324,0.068,0.473c0.045,0.148,0.116,0.277,0.212,0.387    c0.097,0.111,0.219,0.197,0.368,0.262c0.149,0.062,0.326,0.094,0.534,0.094c0.171,0,0.325-0.033,0.462-0.098    c0.137-0.066,0.257-0.152,0.358-0.264c0.101-0.109,0.179-0.24,0.233-0.389s0.081-0.303,0.081-0.465    c0-0.172-0.026-0.334-0.078-0.486s-0.126-0.285-0.223-0.398c-0.097-0.111-0.216-0.201-0.358-0.266    c-0.142-0.066-0.303-0.1-0.482-0.1C120.664,116.859,120.498,116.893,120.352,116.959z"/>
	</g>
</g>
<g>
	<g>
		<path d="M178.88,119.581c0.005-0.234,0.045-0.441,0.122-0.621c0.076-0.18,0.178-0.342,0.304-0.486    c0.126-0.144,0.268-0.275,0.425-0.395c0.158-0.119,0.319-0.233,0.486-0.344c0.166-0.11,0.332-0.224,0.496-0.338    c0.164-0.115,0.312-0.237,0.442-0.368c0.13-0.13,0.229-0.264,0.293-0.401c0.065-0.138,0.099-0.301,0.099-0.489    c0-0.153-0.028-0.289-0.085-0.408c-0.056-0.119-0.133-0.221-0.229-0.304c-0.097-0.084-0.209-0.146-0.337-0.189    c-0.129-0.043-0.265-0.064-0.409-0.064c-0.193,0-0.358,0.036-0.496,0.108c-0.137,0.072-0.248,0.169-0.334,0.29    c-0.085,0.122-0.147,0.262-0.186,0.419s-0.055,0.324-0.051,0.499h-0.425c-0.005-0.243,0.023-0.467,0.084-0.671    c0.061-0.205,0.154-0.382,0.28-0.53s0.284-0.265,0.476-0.348s0.415-0.125,0.672-0.125c0.207,0,0.399,0.028,0.577,0.085    c0.178,0.056,0.333,0.139,0.466,0.249s0.236,0.249,0.311,0.415c0.074,0.167,0.111,0.36,0.111,0.581    c0,0.198-0.032,0.378-0.098,0.54s-0.153,0.311-0.264,0.445s-0.236,0.26-0.378,0.375c-0.142,0.114-0.291,0.222-0.448,0.32    c-0.113,0.076-0.246,0.161-0.398,0.253c-0.153,0.093-0.301,0.194-0.442,0.308c-0.142,0.112-0.267,0.234-0.375,0.367    c-0.107,0.133-0.175,0.278-0.202,0.436h2.626v0.392H178.88z"/>
		<path d="M185.108,115.042c0.213,0.15,0.38,0.343,0.499,0.577c0.119,0.233,0.2,0.495,0.243,0.782    c0.043,0.288,0.064,0.569,0.064,0.844c0,0.279-0.021,0.563-0.064,0.851c-0.043,0.288-0.124,0.55-0.243,0.783    c-0.119,0.234-0.286,0.426-0.499,0.574c-0.214,0.148-0.494,0.223-0.841,0.223c-0.342,0-0.621-0.074-0.837-0.223    s-0.384-0.34-0.503-0.574c-0.119-0.233-0.2-0.495-0.243-0.783c-0.043-0.287-0.063-0.569-0.063-0.844    c0-0.278,0.021-0.562,0.063-0.851c0.043-0.287,0.124-0.549,0.243-0.782c0.119-0.234,0.287-0.427,0.503-0.577    c0.216-0.151,0.495-0.227,0.837-0.227C184.614,114.815,184.894,114.891,185.108,115.042z M183.62,115.383    c-0.162,0.14-0.285,0.312-0.368,0.52s-0.139,0.432-0.165,0.675c-0.027,0.243-0.041,0.466-0.041,0.668    c0,0.207,0.014,0.432,0.041,0.672c0.026,0.241,0.082,0.466,0.165,0.675c0.083,0.21,0.206,0.384,0.368,0.523    c0.161,0.14,0.378,0.209,0.647,0.209c0.271,0,0.486-0.069,0.648-0.209s0.284-0.313,0.367-0.523    c0.084-0.209,0.139-0.434,0.166-0.675c0.026-0.24,0.04-0.465,0.04-0.672c0-0.202-0.014-0.425-0.04-0.668    c-0.027-0.243-0.082-0.468-0.166-0.675c-0.083-0.207-0.205-0.38-0.367-0.52s-0.378-0.21-0.648-0.21    C183.998,115.173,183.781,115.243,183.62,115.383z"/>
		<path d="M187.301,115.737c0.15-0.016,0.281-0.053,0.392-0.111s0.202-0.147,0.276-0.267s0.127-0.287,0.159-0.503h0.344v4.725    h-0.425v-3.51h-1.249v-0.304C186.983,115.763,187.151,115.753,187.301,115.737z"/>
		<path d="M191.054,115.737c0.15-0.016,0.281-0.053,0.392-0.111s0.202-0.147,0.276-0.267s0.128-0.287,0.159-0.503h0.344v4.725H191.8    v-3.51h-1.249v-0.304C190.736,115.763,190.904,115.753,191.054,115.737z"/>
	</g>
</g>
<g>
	<g>
		<path d="M249.845,119.582c0.005-0.234,0.045-0.441,0.122-0.621c0.076-0.18,0.178-0.342,0.304-0.486s0.268-0.275,0.425-0.395    c0.158-0.119,0.319-0.234,0.486-0.344c0.166-0.111,0.332-0.225,0.496-0.338c0.164-0.115,0.312-0.238,0.442-0.369    c0.13-0.129,0.229-0.264,0.293-0.4c0.065-0.139,0.099-0.301,0.099-0.49c0-0.152-0.028-0.289-0.085-0.408    c-0.056-0.119-0.133-0.221-0.229-0.303c-0.097-0.084-0.209-0.146-0.337-0.189c-0.129-0.043-0.265-0.064-0.409-0.064    c-0.193,0-0.358,0.035-0.496,0.107c-0.137,0.072-0.248,0.17-0.334,0.291c-0.085,0.121-0.147,0.262-0.186,0.418    c-0.038,0.158-0.055,0.324-0.051,0.5h-0.425c-0.005-0.244,0.023-0.467,0.084-0.672c0.062-0.205,0.154-0.381,0.28-0.529    s0.285-0.266,0.476-0.348c0.191-0.084,0.416-0.125,0.672-0.125c0.207,0,0.399,0.027,0.577,0.084s0.333,0.139,0.466,0.25    c0.133,0.109,0.236,0.248,0.311,0.414c0.074,0.168,0.111,0.361,0.111,0.582c0,0.197-0.032,0.377-0.098,0.539    s-0.153,0.311-0.264,0.445s-0.236,0.26-0.378,0.375s-0.291,0.223-0.448,0.32c-0.113,0.076-0.246,0.162-0.398,0.254    c-0.153,0.092-0.301,0.193-0.442,0.307s-0.267,0.234-0.375,0.367c-0.107,0.133-0.175,0.279-0.202,0.436h2.626v0.393H249.845z"/>
		<path d="M256.073,115.043c0.214,0.15,0.38,0.342,0.499,0.576s0.2,0.496,0.243,0.783s0.064,0.568,0.064,0.844    c0,0.279-0.021,0.562-0.064,0.85c-0.043,0.289-0.124,0.551-0.243,0.783c-0.119,0.234-0.285,0.426-0.499,0.574    s-0.494,0.223-0.841,0.223c-0.342,0-0.621-0.074-0.837-0.223s-0.384-0.34-0.503-0.574c-0.119-0.232-0.2-0.494-0.243-0.783    c-0.043-0.287-0.063-0.568-0.063-0.844c0-0.277,0.021-0.562,0.063-0.85s0.124-0.549,0.243-0.783s0.287-0.426,0.503-0.576    c0.216-0.152,0.495-0.227,0.837-0.227C255.579,114.816,255.859,114.891,256.073,115.043z M254.584,115.383    c-0.162,0.141-0.285,0.312-0.368,0.52s-0.139,0.432-0.165,0.676c-0.027,0.242-0.041,0.465-0.041,0.668    c0,0.207,0.014,0.432,0.041,0.672c0.026,0.24,0.082,0.465,0.165,0.674c0.083,0.211,0.206,0.385,0.368,0.523    c0.162,0.141,0.378,0.209,0.647,0.209c0.271,0,0.486-0.068,0.648-0.209c0.162-0.139,0.284-0.312,0.367-0.523    c0.084-0.209,0.139-0.434,0.166-0.674c0.026-0.24,0.04-0.465,0.04-0.672c0-0.203-0.014-0.426-0.04-0.668    c-0.027-0.244-0.082-0.469-0.166-0.676c-0.083-0.207-0.205-0.379-0.367-0.52c-0.162-0.139-0.378-0.209-0.648-0.209    C254.962,115.174,254.747,115.244,254.584,115.383z"/>
		<path d="M258.266,115.738c0.15-0.016,0.281-0.053,0.392-0.111s0.202-0.148,0.276-0.268s0.128-0.287,0.159-0.502h0.344v4.725    h-0.425v-3.51h-1.249v-0.305C257.948,115.764,258.116,115.754,258.266,115.738z"/>
		<path d="M263.531,115.416c-0.173-0.162-0.396-0.242-0.671-0.242s-0.497,0.07-0.669,0.209c-0.171,0.141-0.304,0.314-0.397,0.527    c-0.095,0.211-0.158,0.439-0.189,0.684c-0.031,0.246-0.047,0.477-0.047,0.693h0.014c0.112-0.234,0.282-0.424,0.509-0.568    c0.228-0.143,0.477-0.215,0.746-0.215c0.238,0,0.453,0.039,0.645,0.117c0.191,0.08,0.354,0.189,0.489,0.328    c0.136,0.139,0.24,0.307,0.314,0.5s0.111,0.404,0.111,0.635c0,0.229-0.04,0.441-0.118,0.637c-0.079,0.195-0.189,0.365-0.331,0.506    c-0.142,0.143-0.311,0.252-0.506,0.332c-0.196,0.078-0.411,0.117-0.645,0.117c-0.288,0-0.536-0.043-0.743-0.131    s-0.378-0.23-0.513-0.43c-0.135-0.197-0.235-0.455-0.3-0.771c-0.065-0.318-0.099-0.709-0.099-1.172    c0-0.094,0.006-0.219,0.018-0.371c0.011-0.152,0.037-0.316,0.077-0.49c0.041-0.172,0.098-0.348,0.172-0.525    s0.174-0.34,0.297-0.482c0.124-0.145,0.278-0.262,0.463-0.352s0.405-0.135,0.661-0.135c0.423,0,0.759,0.102,1.006,0.303    c0.248,0.203,0.396,0.514,0.445,0.932h-0.425C263.809,115.791,263.705,115.578,263.531,115.416z M262.323,116.959    c-0.146,0.066-0.27,0.154-0.371,0.268c-0.102,0.111-0.178,0.244-0.229,0.395s-0.077,0.312-0.077,0.488    c0,0.168,0.022,0.324,0.067,0.473s0.115,0.279,0.212,0.389s0.22,0.197,0.368,0.26s0.326,0.094,0.533,0.094    c0.171,0,0.325-0.031,0.463-0.098c0.137-0.064,0.256-0.152,0.357-0.262c0.102-0.111,0.179-0.24,0.232-0.389    c0.055-0.148,0.081-0.305,0.081-0.467c0-0.17-0.025-0.332-0.077-0.484c-0.052-0.154-0.126-0.287-0.223-0.398    c-0.097-0.113-0.216-0.201-0.358-0.268c-0.142-0.064-0.302-0.098-0.482-0.098C262.634,116.861,262.469,116.895,262.323,116.959z"/>
	</g>
</g>
</svg>