<svg xmlns="http://www.w3.org/2000/svg" xmlns:xlink="http://www.w3.org/1999/xlink" version="1.1" id="Layer_1" x="0px" y="0px" width="197.29px" height="78.017px" viewBox="0 0 197.29 78.017" enable-background="new 0 0 197.29 78.017" xml:space="preserve">
<g>
	<path d="M10.974,41.219c-0.282-0.196-0.616-0.294-1.004-0.294c-0.331,0-0.613,0.062-0.849,0.186   c-0.235,0.124-0.429,0.291-0.581,0.5c-0.152,0.21-0.265,0.448-0.337,0.717c-0.073,0.269-0.109,0.548-0.109,0.837   c0,0.315,0.036,0.613,0.109,0.896c0.072,0.281,0.185,0.526,0.337,0.736c0.152,0.209,0.347,0.376,0.585,0.5s0.522,0.186,0.853,0.186   c0.243,0,0.458-0.04,0.647-0.12c0.188-0.08,0.351-0.191,0.488-0.333c0.137-0.143,0.244-0.312,0.322-0.508s0.124-0.408,0.14-0.636   h0.736c-0.073,0.697-0.313,1.24-0.721,1.628c-0.408,0.388-0.966,0.581-1.674,0.581c-0.429,0-0.803-0.073-1.124-0.221   s-0.586-0.351-0.798-0.608c-0.212-0.259-0.371-0.563-0.477-0.915c-0.106-0.351-0.159-0.729-0.159-1.131   c0-0.403,0.057-0.781,0.171-1.136c0.113-0.354,0.28-0.662,0.5-0.926c0.22-0.264,0.494-0.472,0.822-0.624s0.704-0.229,1.127-0.229   c0.29,0,0.563,0.039,0.822,0.116c0.258,0.077,0.488,0.191,0.689,0.341c0.202,0.15,0.37,0.337,0.504,0.562   c0.134,0.225,0.222,0.484,0.264,0.778H11.52C11.437,41.71,11.255,41.416,10.974,41.219z"/>
	<path d="M16.666,45.954c-0.114,0.067-0.271,0.101-0.473,0.101c-0.17,0-0.306-0.048-0.407-0.144   c-0.101-0.095-0.151-0.251-0.151-0.469c-0.181,0.218-0.391,0.374-0.631,0.469c-0.24,0.096-0.5,0.144-0.779,0.144   c-0.181,0-0.353-0.021-0.516-0.062s-0.304-0.106-0.422-0.194c-0.119-0.087-0.213-0.202-0.283-0.345   c-0.07-0.142-0.105-0.313-0.105-0.515c0-0.228,0.039-0.414,0.116-0.559c0.078-0.145,0.18-0.262,0.306-0.353   c0.127-0.091,0.271-0.159,0.434-0.206c0.163-0.046,0.33-0.084,0.5-0.115c0.181-0.037,0.353-0.063,0.515-0.082   c0.163-0.018,0.306-0.043,0.43-0.077s0.222-0.083,0.295-0.147c0.072-0.064,0.108-0.158,0.108-0.283c0-0.144-0.027-0.26-0.082-0.348   s-0.124-0.155-0.209-0.202c-0.085-0.046-0.181-0.077-0.287-0.093s-0.21-0.023-0.314-0.023c-0.279,0-0.511,0.054-0.697,0.159   s-0.287,0.306-0.302,0.601h-0.659c0.01-0.248,0.062-0.457,0.155-0.628c0.093-0.17,0.217-0.309,0.372-0.414   c0.155-0.106,0.332-0.183,0.531-0.229c0.199-0.047,0.412-0.07,0.64-0.07c0.181,0,0.36,0.013,0.539,0.039   c0.178,0.025,0.34,0.078,0.484,0.158s0.261,0.192,0.349,0.337c0.088,0.144,0.132,0.332,0.132,0.564v2.057   c0,0.154,0.009,0.268,0.027,0.34c0.018,0.072,0.079,0.108,0.182,0.108c0.057,0,0.124-0.01,0.201-0.031V45.954z M15.596,43.9   c-0.083,0.062-0.191,0.106-0.326,0.135s-0.275,0.052-0.422,0.069c-0.147,0.019-0.296,0.039-0.445,0.062   c-0.15,0.022-0.284,0.061-0.403,0.111c-0.119,0.052-0.216,0.125-0.291,0.22c-0.075,0.096-0.112,0.226-0.112,0.39   c0,0.108,0.022,0.199,0.066,0.273c0.044,0.075,0.101,0.136,0.17,0.182s0.151,0.08,0.244,0.101c0.093,0.021,0.191,0.03,0.294,0.03   c0.217,0,0.403-0.029,0.558-0.089c0.155-0.059,0.281-0.134,0.38-0.224c0.098-0.09,0.17-0.188,0.217-0.293s0.07-0.204,0.07-0.297   V43.9z"/>
	<path d="M17.781,45.074c0.062,0.102,0.144,0.182,0.244,0.24c0.101,0.06,0.214,0.103,0.341,0.128   c0.126,0.026,0.257,0.039,0.391,0.039c0.104,0,0.212-0.008,0.326-0.023s0.218-0.044,0.314-0.085   c0.095-0.041,0.174-0.102,0.236-0.183c0.062-0.08,0.093-0.182,0.093-0.306c0-0.171-0.064-0.3-0.193-0.388   c-0.129-0.088-0.291-0.159-0.484-0.213c-0.194-0.055-0.405-0.104-0.632-0.147c-0.228-0.044-0.438-0.105-0.632-0.186   c-0.193-0.08-0.355-0.193-0.484-0.338c-0.129-0.145-0.193-0.346-0.193-0.604c0-0.202,0.045-0.375,0.135-0.52   s0.207-0.262,0.349-0.353c0.142-0.091,0.302-0.157,0.48-0.201s0.355-0.066,0.531-0.066c0.227,0,0.437,0.02,0.628,0.059   c0.191,0.038,0.36,0.105,0.507,0.201c0.147,0.096,0.265,0.225,0.353,0.388c0.088,0.162,0.14,0.365,0.155,0.607h-0.659   c-0.011-0.128-0.044-0.235-0.101-0.321c-0.057-0.085-0.129-0.153-0.217-0.205s-0.185-0.089-0.291-0.112   c-0.106-0.023-0.213-0.035-0.322-0.035c-0.098,0-0.198,0.008-0.298,0.023s-0.192,0.043-0.275,0.081   c-0.083,0.039-0.15,0.091-0.201,0.155c-0.052,0.064-0.078,0.148-0.078,0.252c0,0.114,0.04,0.208,0.12,0.283   c0.08,0.074,0.182,0.137,0.306,0.186s0.264,0.09,0.418,0.124c0.155,0.034,0.31,0.068,0.465,0.104   c0.166,0.036,0.327,0.08,0.484,0.132c0.158,0.052,0.297,0.12,0.419,0.205c0.121,0.086,0.219,0.192,0.294,0.322   c0.075,0.129,0.112,0.289,0.112,0.48c0,0.242-0.05,0.444-0.151,0.604c-0.101,0.16-0.232,0.289-0.395,0.387   c-0.163,0.099-0.346,0.167-0.55,0.206c-0.204,0.038-0.407,0.058-0.608,0.058c-0.222,0-0.434-0.023-0.636-0.069   c-0.201-0.047-0.379-0.123-0.535-0.229c-0.155-0.106-0.279-0.245-0.372-0.419c-0.093-0.173-0.145-0.384-0.155-0.632h0.659   C17.686,44.852,17.72,44.974,17.781,45.074z"/>
	<path d="M21.812,40.437v2.115h0.016c0.051-0.124,0.124-0.229,0.217-0.313c0.093-0.085,0.198-0.155,0.314-0.209   c0.116-0.055,0.237-0.095,0.364-0.12c0.126-0.026,0.249-0.039,0.368-0.039c0.263,0,0.483,0.036,0.659,0.108   s0.318,0.174,0.426,0.303s0.185,0.282,0.229,0.461c0.044,0.178,0.066,0.375,0.066,0.593v2.635h-0.659v-2.712   c0-0.248-0.072-0.444-0.217-0.589c-0.145-0.146-0.343-0.218-0.597-0.218c-0.201,0-0.375,0.031-0.523,0.094   c-0.147,0.062-0.27,0.149-0.368,0.263c-0.098,0.114-0.172,0.247-0.221,0.399c-0.049,0.152-0.074,0.318-0.074,0.5v2.263h-0.659   v-5.533H21.812z"/>
	<path d="M47.894,45.102c0.204,0.202,0.461,0.328,0.771,0.38v-2.054c-0.274-0.066-0.51-0.141-0.709-0.221   c-0.199-0.08-0.364-0.176-0.496-0.287c-0.132-0.11-0.229-0.246-0.291-0.406s-0.093-0.354-0.093-0.581   c0-0.232,0.042-0.446,0.124-0.64c0.083-0.194,0.195-0.361,0.337-0.504c0.142-0.142,0.31-0.254,0.504-0.337s0.402-0.132,0.624-0.147   v-0.512h0.426v0.52c0.418,0.052,0.751,0.207,1,0.465c0.248,0.259,0.424,0.615,0.527,1.069h-0.659   c-0.103-0.511-0.393-0.811-0.868-0.898v1.906l0.465,0.124c0.104,0.025,0.225,0.071,0.364,0.135c0.14,0.065,0.274,0.154,0.403,0.268   c0.129,0.114,0.239,0.256,0.33,0.427c0.09,0.17,0.136,0.375,0.136,0.612c0,0.253-0.042,0.478-0.128,0.674s-0.203,0.366-0.353,0.508   c-0.15,0.143-0.328,0.255-0.535,0.337c-0.207,0.083-0.434,0.135-0.682,0.155v0.636h-0.426v-0.636   c-0.517-0.052-0.928-0.231-1.232-0.539c-0.305-0.307-0.478-0.732-0.519-1.274h0.659C47.583,44.626,47.689,44.9,47.894,45.102z    M48.033,41.192c-0.173,0.152-0.259,0.376-0.259,0.67c0,0.135,0.021,0.249,0.066,0.345c0.043,0.096,0.105,0.176,0.186,0.24   c0.08,0.065,0.175,0.12,0.283,0.167s0.227,0.088,0.356,0.124v-1.813C48.417,40.95,48.207,41.04,48.033,41.192z M49.49,45.404   c0.122-0.042,0.228-0.103,0.318-0.183s0.16-0.181,0.209-0.302c0.049-0.122,0.073-0.265,0.073-0.431   c0-0.149-0.026-0.275-0.077-0.376c-0.052-0.101-0.122-0.188-0.209-0.26s-0.194-0.133-0.318-0.182s-0.255-0.094-0.395-0.136v1.945   C49.236,45.471,49.369,45.445,49.49,45.404z"/>
	<path d="M53.129,45.97v-3.937h-1.426v-0.527c0.186,0,0.367-0.014,0.542-0.043c0.176-0.028,0.334-0.081,0.477-0.158   c0.142-0.078,0.262-0.184,0.36-0.318c0.098-0.134,0.166-0.305,0.202-0.511h0.503v5.494H53.129z"/>
	<path d="M55.679,42.646c0.01-0.218,0.036-0.429,0.078-0.636s0.101-0.403,0.178-0.589c0.078-0.187,0.184-0.349,0.318-0.488   s0.303-0.251,0.508-0.333c0.204-0.083,0.448-0.124,0.732-0.124s0.528,0.041,0.732,0.124c0.204,0.082,0.374,0.193,0.508,0.333   s0.24,0.302,0.318,0.488c0.077,0.186,0.137,0.382,0.178,0.589c0.041,0.207,0.067,0.418,0.077,0.636   c0.011,0.217,0.016,0.426,0.016,0.628c0,0.201-0.005,0.41-0.016,0.627c-0.01,0.217-0.036,0.429-0.077,0.636   c-0.042,0.207-0.101,0.401-0.178,0.585c-0.078,0.184-0.184,0.345-0.318,0.484s-0.302,0.249-0.504,0.329   c-0.201,0.08-0.447,0.12-0.736,0.12c-0.284,0-0.528-0.04-0.732-0.12c-0.205-0.08-0.374-0.189-0.508-0.329s-0.24-0.301-0.318-0.484   s-0.137-0.378-0.178-0.585s-0.067-0.419-0.078-0.636s-0.015-0.426-0.015-0.627C55.664,43.071,55.668,42.862,55.679,42.646z    M56.38,43.959c0.013,0.255,0.054,0.496,0.124,0.721s0.182,0.414,0.337,0.569c0.155,0.155,0.372,0.232,0.651,0.232   c0.279,0,0.496-0.077,0.651-0.232c0.155-0.155,0.267-0.345,0.337-0.569s0.111-0.466,0.124-0.721c0.013-0.256,0.02-0.487,0.02-0.693   c0-0.135-0.001-0.283-0.004-0.446c-0.003-0.162-0.016-0.325-0.039-0.488c-0.023-0.162-0.057-0.321-0.101-0.477   c-0.044-0.154-0.108-0.29-0.194-0.406c-0.085-0.116-0.192-0.211-0.321-0.283c-0.129-0.072-0.287-0.108-0.473-0.108   s-0.343,0.036-0.473,0.108c-0.129,0.072-0.236,0.167-0.321,0.283c-0.085,0.116-0.15,0.252-0.194,0.406   c-0.044,0.155-0.078,0.314-0.101,0.477c-0.023,0.163-0.036,0.326-0.039,0.488c-0.002,0.163-0.004,0.312-0.004,0.446   C56.361,43.472,56.367,43.703,56.38,43.959z"/>
	<path d="M59.988,42.646c0.01-0.218,0.036-0.429,0.078-0.636s0.101-0.403,0.178-0.589c0.078-0.187,0.184-0.349,0.318-0.488   s0.303-0.251,0.508-0.333c0.204-0.083,0.448-0.124,0.732-0.124s0.528,0.041,0.732,0.124c0.204,0.082,0.374,0.193,0.508,0.333   s0.24,0.302,0.318,0.488c0.077,0.186,0.137,0.382,0.178,0.589c0.041,0.207,0.067,0.418,0.077,0.636   c0.011,0.217,0.016,0.426,0.016,0.628c0,0.201-0.005,0.41-0.016,0.627c-0.01,0.217-0.036,0.429-0.077,0.636   c-0.042,0.207-0.101,0.401-0.178,0.585c-0.078,0.184-0.184,0.345-0.318,0.484s-0.302,0.249-0.504,0.329   c-0.201,0.08-0.447,0.12-0.736,0.12c-0.284,0-0.528-0.04-0.732-0.12c-0.205-0.08-0.374-0.189-0.508-0.329s-0.24-0.301-0.318-0.484   s-0.137-0.378-0.178-0.585s-0.067-0.419-0.078-0.636s-0.015-0.426-0.015-0.627C59.973,43.071,59.978,42.862,59.988,42.646z    M60.689,43.959c0.013,0.255,0.054,0.496,0.124,0.721s0.182,0.414,0.337,0.569c0.155,0.155,0.372,0.232,0.651,0.232   c0.279,0,0.496-0.077,0.651-0.232c0.155-0.155,0.267-0.345,0.337-0.569s0.111-0.466,0.124-0.721c0.013-0.256,0.02-0.487,0.02-0.693   c0-0.135-0.001-0.283-0.004-0.446c-0.003-0.162-0.016-0.325-0.039-0.488c-0.023-0.162-0.057-0.321-0.101-0.477   c-0.044-0.154-0.108-0.29-0.194-0.406c-0.085-0.116-0.192-0.211-0.321-0.283c-0.129-0.072-0.287-0.108-0.473-0.108   s-0.343,0.036-0.473,0.108c-0.129,0.072-0.236,0.167-0.321,0.283c-0.085,0.116-0.15,0.252-0.194,0.406   c-0.044,0.155-0.078,0.314-0.101,0.477c-0.023,0.163-0.036,0.326-0.039,0.488c-0.002,0.163-0.004,0.312-0.004,0.446   C60.67,43.472,60.676,43.703,60.689,43.959z"/>
	<path d="M7.486,51.414c0.111-0.349,0.278-0.657,0.5-0.927c0.222-0.269,0.499-0.482,0.829-0.643s0.716-0.24,1.155-0.24   c0.439,0,0.824,0.08,1.155,0.24s0.607,0.374,0.83,0.643c0.222,0.27,0.389,0.578,0.5,0.927c0.111,0.349,0.167,0.712,0.167,1.089   s-0.056,0.74-0.167,1.089c-0.111,0.349-0.278,0.657-0.5,0.926c-0.222,0.269-0.499,0.482-0.83,0.64s-0.715,0.236-1.155,0.236   c-0.439,0-0.824-0.079-1.155-0.236s-0.607-0.371-0.829-0.64s-0.389-0.577-0.5-0.926c-0.111-0.349-0.167-0.712-0.167-1.089   S7.375,51.763,7.486,51.414z M8.164,53.328c0.072,0.271,0.186,0.516,0.341,0.732c0.155,0.217,0.354,0.392,0.597,0.523   c0.243,0.132,0.532,0.197,0.868,0.197s0.625-0.065,0.868-0.197s0.442-0.307,0.597-0.523c0.155-0.217,0.269-0.461,0.341-0.732   c0.072-0.271,0.108-0.546,0.108-0.825s-0.036-0.555-0.108-0.825c-0.073-0.271-0.186-0.516-0.341-0.732   c-0.155-0.217-0.354-0.392-0.597-0.523s-0.532-0.197-0.868-0.197s-0.625,0.065-0.868,0.197c-0.243,0.132-0.442,0.307-0.597,0.523   c-0.155,0.217-0.269,0.461-0.341,0.732c-0.072,0.271-0.108,0.546-0.108,0.825S8.092,53.057,8.164,53.328z"/>
	<path d="M14.093,51.263v0.543h0.015c0.108-0.223,0.279-0.384,0.512-0.484c0.232-0.102,0.488-0.151,0.767-0.151   c0.31,0,0.58,0.057,0.81,0.17c0.229,0.114,0.421,0.268,0.573,0.462c0.152,0.193,0.268,0.417,0.345,0.67   c0.077,0.253,0.116,0.522,0.116,0.806c0,0.284-0.038,0.554-0.112,0.807c-0.075,0.253-0.189,0.474-0.341,0.662   c-0.152,0.189-0.344,0.338-0.573,0.446c-0.23,0.108-0.498,0.162-0.802,0.162c-0.098,0-0.208-0.01-0.33-0.03   c-0.121-0.021-0.241-0.055-0.36-0.102c-0.119-0.046-0.231-0.109-0.337-0.189s-0.195-0.18-0.268-0.299h-0.015v2.062h-0.659v-5.533   H14.093z M16.46,52.685c-0.049-0.178-0.124-0.337-0.225-0.477s-0.23-0.25-0.387-0.333c-0.158-0.083-0.343-0.124-0.554-0.124   c-0.222,0-0.411,0.044-0.566,0.132s-0.282,0.203-0.38,0.345c-0.098,0.143-0.169,0.304-0.213,0.484s-0.066,0.364-0.066,0.551   c0,0.196,0.023,0.386,0.07,0.569s0.12,0.345,0.221,0.484s0.231,0.252,0.392,0.337s0.354,0.128,0.581,0.128s0.417-0.044,0.57-0.132   c0.152-0.088,0.275-0.204,0.368-0.349c0.093-0.145,0.16-0.31,0.201-0.496c0.042-0.186,0.062-0.377,0.062-0.573   C16.534,53.045,16.51,52.863,16.46,52.685z"/>
	<path d="M20.843,55.014c-0.3,0.228-0.677,0.341-1.131,0.341c-0.321,0-0.598-0.052-0.833-0.154   c-0.235-0.104-0.433-0.248-0.593-0.435c-0.16-0.186-0.28-0.408-0.36-0.666c-0.08-0.259-0.125-0.54-0.136-0.845   c0-0.305,0.047-0.584,0.14-0.837c0.093-0.254,0.224-0.474,0.392-0.659c0.167-0.186,0.367-0.331,0.597-0.434   c0.229-0.104,0.481-0.155,0.755-0.155c0.356,0,0.652,0.073,0.888,0.221c0.235,0.147,0.423,0.335,0.565,0.562   c0.142,0.228,0.24,0.476,0.294,0.744c0.055,0.269,0.076,0.524,0.066,0.768h-2.999c-0.005,0.176,0.016,0.342,0.062,0.5   c0.046,0.157,0.121,0.297,0.225,0.418c0.104,0.122,0.235,0.219,0.396,0.291c0.16,0.072,0.349,0.108,0.565,0.108   c0.279,0,0.508-0.064,0.686-0.193c0.178-0.13,0.296-0.326,0.353-0.59h0.651C21.336,54.448,21.143,54.786,20.843,55.014z    M20.685,52.44c-0.06-0.139-0.14-0.259-0.24-0.36c-0.101-0.101-0.22-0.181-0.357-0.24c-0.137-0.059-0.288-0.089-0.453-0.089   c-0.17,0-0.324,0.03-0.461,0.089c-0.137,0.06-0.255,0.142-0.353,0.244c-0.098,0.104-0.175,0.224-0.232,0.36   c-0.057,0.138-0.09,0.283-0.101,0.438h2.302C20.779,52.728,20.744,52.58,20.685,52.44z"/>
	<path d="M22.765,51.263v0.845h0.016c0.16-0.325,0.356-0.565,0.589-0.721s0.527-0.228,0.883-0.217v0.697   c-0.263,0-0.488,0.036-0.674,0.108c-0.186,0.072-0.336,0.179-0.45,0.318c-0.114,0.139-0.196,0.309-0.248,0.507   c-0.052,0.199-0.078,0.428-0.078,0.687v1.782h-0.659v-4.007H22.765z"/>
	<path d="M28.298,55.254c-0.114,0.067-0.271,0.101-0.473,0.101c-0.17,0-0.306-0.048-0.407-0.144   c-0.101-0.095-0.151-0.251-0.151-0.469c-0.181,0.218-0.391,0.374-0.631,0.469c-0.24,0.096-0.5,0.144-0.779,0.144   c-0.181,0-0.353-0.021-0.516-0.062s-0.304-0.106-0.422-0.194c-0.119-0.087-0.213-0.202-0.283-0.345   c-0.07-0.142-0.105-0.313-0.105-0.515c0-0.228,0.039-0.414,0.116-0.559c0.078-0.145,0.18-0.262,0.306-0.353   c0.127-0.09,0.271-0.159,0.434-0.205c0.163-0.047,0.33-0.086,0.5-0.116c0.181-0.036,0.353-0.063,0.515-0.082   c0.163-0.018,0.306-0.044,0.43-0.077s0.222-0.083,0.295-0.147c0.072-0.064,0.108-0.158,0.108-0.282c0-0.146-0.027-0.262-0.082-0.35   c-0.054-0.087-0.124-0.154-0.209-0.201c-0.085-0.047-0.181-0.077-0.287-0.093s-0.21-0.023-0.314-0.023   c-0.279,0-0.511,0.053-0.697,0.159c-0.186,0.105-0.287,0.306-0.302,0.601h-0.659c0.01-0.248,0.062-0.457,0.155-0.628   c0.093-0.171,0.217-0.309,0.372-0.415c0.155-0.105,0.332-0.182,0.531-0.229c0.199-0.046,0.412-0.069,0.64-0.069   c0.181,0,0.36,0.013,0.539,0.039c0.178,0.025,0.34,0.078,0.484,0.158s0.261,0.192,0.349,0.336c0.088,0.145,0.132,0.333,0.132,0.564   v2.058c0,0.154,0.009,0.268,0.027,0.34c0.018,0.072,0.079,0.108,0.182,0.108c0.057,0,0.124-0.01,0.201-0.031V55.254z M27.229,53.2   c-0.083,0.062-0.191,0.106-0.326,0.135s-0.275,0.052-0.422,0.069c-0.147,0.019-0.296,0.039-0.445,0.062   c-0.15,0.022-0.284,0.061-0.403,0.111c-0.119,0.052-0.216,0.125-0.291,0.22c-0.075,0.096-0.112,0.226-0.112,0.39   c0,0.108,0.022,0.199,0.066,0.273c0.044,0.075,0.101,0.136,0.17,0.182s0.151,0.08,0.244,0.101c0.093,0.021,0.191,0.03,0.294,0.03   c0.217,0,0.403-0.029,0.558-0.089c0.155-0.059,0.281-0.134,0.38-0.224c0.098-0.09,0.17-0.188,0.217-0.293s0.07-0.204,0.07-0.297   V53.2z"/>
	<path d="M30.624,51.263v0.581h-0.798v2.488c0,0.077,0.006,0.14,0.019,0.186c0.013,0.047,0.038,0.083,0.074,0.108   c0.036,0.026,0.086,0.043,0.151,0.051c0.064,0.008,0.148,0.012,0.252,0.012h0.302v0.581H30.12c-0.17,0-0.316-0.012-0.438-0.035   s-0.22-0.065-0.294-0.128c-0.075-0.062-0.13-0.149-0.167-0.263c-0.036-0.114-0.054-0.264-0.054-0.45v-2.55h-0.682v-0.581h0.682   v-1.201h0.659v1.201H30.624z"/>
	<path d="M31.39,50.542v-0.806h0.659v0.806H31.39z M32.049,51.263v4.007H31.39v-4.007H32.049z"/>
	<path d="M33.692,51.263v0.636h0.015c0.274-0.485,0.708-0.729,1.302-0.729c0.263,0,0.483,0.036,0.659,0.108s0.318,0.173,0.426,0.302   c0.108,0.13,0.185,0.283,0.229,0.462c0.044,0.178,0.066,0.376,0.066,0.593v2.635H35.73v-2.713c0-0.248-0.072-0.444-0.217-0.589   c-0.145-0.145-0.343-0.217-0.597-0.217c-0.201,0-0.375,0.031-0.523,0.093c-0.147,0.062-0.27,0.15-0.368,0.264   c-0.098,0.114-0.172,0.247-0.221,0.399c-0.049,0.152-0.074,0.319-0.074,0.5v2.263h-0.659v-4.007H33.692z"/>
	<path d="M40.388,56.401c-0.3,0.325-0.77,0.488-1.411,0.488c-0.186,0-0.375-0.021-0.569-0.062s-0.37-0.108-0.527-0.201   c-0.158-0.093-0.288-0.215-0.392-0.364c-0.104-0.15-0.16-0.333-0.17-0.551h0.659c0.005,0.119,0.042,0.22,0.112,0.303   c0.07,0.082,0.155,0.149,0.256,0.201s0.21,0.089,0.329,0.112c0.119,0.023,0.233,0.035,0.341,0.035c0.217,0,0.4-0.037,0.55-0.112   c0.149-0.075,0.273-0.179,0.372-0.311c0.098-0.131,0.169-0.29,0.213-0.477c0.044-0.186,0.066-0.39,0.066-0.612v-0.263h-0.016   c-0.114,0.248-0.286,0.43-0.515,0.546c-0.23,0.116-0.474,0.175-0.732,0.175c-0.3,0-0.561-0.055-0.783-0.163   s-0.408-0.255-0.558-0.438c-0.15-0.184-0.262-0.398-0.337-0.644c-0.075-0.245-0.113-0.505-0.113-0.779   c0-0.237,0.031-0.481,0.093-0.732c0.062-0.25,0.165-0.478,0.31-0.682c0.145-0.204,0.335-0.372,0.573-0.504s0.53-0.197,0.876-0.197   c0.253,0,0.485,0.056,0.697,0.166c0.212,0.111,0.377,0.278,0.496,0.5h0.008v-0.573h0.62v3.666   C40.837,55.585,40.688,56.075,40.388,56.401z M39.547,54.6c0.152-0.091,0.275-0.21,0.368-0.357   c0.093-0.146,0.162-0.313,0.206-0.499c0.043-0.187,0.065-0.372,0.065-0.559c0-0.176-0.021-0.349-0.062-0.519   c-0.041-0.171-0.107-0.324-0.197-0.462c-0.09-0.137-0.208-0.246-0.353-0.329c-0.145-0.083-0.321-0.124-0.527-0.124   c-0.212,0-0.393,0.04-0.542,0.12s-0.272,0.188-0.368,0.321c-0.096,0.135-0.165,0.29-0.209,0.466   c-0.044,0.175-0.066,0.358-0.066,0.55c0,0.181,0.018,0.361,0.054,0.543c0.036,0.181,0.098,0.345,0.186,0.491   c0.088,0.147,0.204,0.267,0.349,0.357c0.145,0.09,0.326,0.135,0.542,0.135C39.21,54.734,39.395,54.689,39.547,54.6z"/>
	<path d="M16.07,63.754c-0.114,0.067-0.271,0.101-0.473,0.101c-0.17,0-0.306-0.048-0.407-0.144   c-0.101-0.095-0.151-0.251-0.151-0.469c-0.181,0.218-0.391,0.374-0.631,0.469c-0.24,0.096-0.5,0.144-0.779,0.144   c-0.181,0-0.353-0.021-0.516-0.062s-0.304-0.106-0.422-0.194c-0.119-0.087-0.213-0.202-0.283-0.345   c-0.07-0.142-0.105-0.313-0.105-0.515c0-0.228,0.039-0.414,0.116-0.559c0.078-0.145,0.18-0.262,0.306-0.353   c0.127-0.09,0.271-0.159,0.434-0.205c0.163-0.047,0.33-0.086,0.5-0.116c0.181-0.036,0.353-0.063,0.515-0.082   c0.163-0.018,0.306-0.044,0.43-0.077s0.222-0.083,0.295-0.147c0.072-0.064,0.108-0.158,0.108-0.282c0-0.146-0.027-0.262-0.082-0.35   c-0.054-0.087-0.124-0.154-0.209-0.201c-0.085-0.047-0.181-0.077-0.287-0.093s-0.21-0.023-0.314-0.023   c-0.279,0-0.511,0.053-0.697,0.159c-0.186,0.105-0.287,0.306-0.302,0.601h-0.659c0.01-0.248,0.062-0.457,0.155-0.628   c0.093-0.171,0.217-0.309,0.372-0.415c0.155-0.105,0.332-0.182,0.531-0.229c0.199-0.046,0.412-0.069,0.64-0.069   c0.181,0,0.36,0.013,0.539,0.039c0.178,0.025,0.34,0.078,0.484,0.158s0.261,0.192,0.349,0.336c0.088,0.145,0.132,0.333,0.132,0.564   v2.058c0,0.154,0.009,0.268,0.027,0.34c0.018,0.072,0.079,0.108,0.182,0.108c0.057,0,0.124-0.01,0.201-0.031V63.754z M15.001,61.7   c-0.083,0.062-0.191,0.106-0.326,0.135s-0.275,0.052-0.422,0.069c-0.147,0.019-0.296,0.039-0.445,0.062   c-0.15,0.022-0.284,0.061-0.403,0.111c-0.119,0.052-0.216,0.125-0.291,0.22c-0.075,0.096-0.112,0.226-0.112,0.39   c0,0.108,0.022,0.199,0.066,0.273c0.044,0.075,0.101,0.136,0.17,0.182s0.151,0.08,0.244,0.101c0.093,0.021,0.191,0.03,0.294,0.03   c0.217,0,0.403-0.029,0.558-0.089c0.155-0.059,0.281-0.134,0.38-0.224c0.098-0.09,0.17-0.188,0.217-0.293s0.07-0.204,0.07-0.297   V61.7z"/>
	<path d="M17.186,62.874c0.062,0.102,0.144,0.182,0.244,0.24c0.101,0.06,0.214,0.103,0.341,0.128   c0.126,0.026,0.257,0.039,0.391,0.039c0.104,0,0.212-0.008,0.326-0.023s0.218-0.044,0.314-0.085   c0.095-0.041,0.174-0.102,0.236-0.183c0.062-0.08,0.093-0.182,0.093-0.306c0-0.171-0.064-0.3-0.193-0.388   c-0.129-0.088-0.291-0.159-0.484-0.213c-0.194-0.055-0.405-0.104-0.632-0.147c-0.228-0.044-0.438-0.105-0.632-0.186   c-0.193-0.08-0.355-0.192-0.484-0.338c-0.129-0.145-0.193-0.346-0.193-0.604c0-0.201,0.045-0.374,0.135-0.519   s0.207-0.263,0.349-0.353c0.142-0.091,0.302-0.158,0.48-0.202s0.355-0.065,0.531-0.065c0.227,0,0.437,0.02,0.628,0.058   c0.191,0.039,0.36,0.106,0.507,0.202c0.147,0.096,0.265,0.225,0.353,0.388c0.088,0.162,0.14,0.365,0.155,0.607h-0.659   c-0.011-0.129-0.044-0.236-0.101-0.321c-0.057-0.085-0.129-0.153-0.217-0.205s-0.185-0.089-0.291-0.112   c-0.106-0.023-0.213-0.035-0.322-0.035c-0.098,0-0.198,0.008-0.298,0.023s-0.192,0.043-0.275,0.081   c-0.083,0.039-0.15,0.091-0.201,0.155c-0.052,0.064-0.078,0.148-0.078,0.252c0,0.113,0.04,0.208,0.12,0.282   c0.08,0.075,0.182,0.138,0.306,0.187s0.264,0.091,0.418,0.124c0.155,0.033,0.31,0.068,0.465,0.104   c0.166,0.036,0.327,0.08,0.484,0.132c0.158,0.052,0.297,0.12,0.419,0.205c0.121,0.086,0.219,0.192,0.294,0.322   c0.075,0.129,0.112,0.289,0.112,0.48c0,0.242-0.05,0.444-0.151,0.604c-0.101,0.16-0.232,0.289-0.395,0.387   c-0.163,0.099-0.346,0.167-0.55,0.206c-0.204,0.038-0.407,0.058-0.608,0.058c-0.222,0-0.434-0.023-0.636-0.069   c-0.201-0.047-0.379-0.123-0.535-0.229c-0.155-0.106-0.279-0.245-0.372-0.419c-0.093-0.173-0.145-0.384-0.155-0.632h0.659   C17.091,62.651,17.125,62.773,17.186,62.874z"/>
	<path d="M21.061,62.874c0.062,0.102,0.144,0.182,0.244,0.24c0.101,0.06,0.214,0.103,0.341,0.128   c0.126,0.026,0.257,0.039,0.391,0.039c0.104,0,0.212-0.008,0.326-0.023s0.218-0.044,0.314-0.085   c0.095-0.041,0.174-0.102,0.236-0.183c0.062-0.08,0.093-0.182,0.093-0.306c0-0.171-0.064-0.3-0.193-0.388   c-0.129-0.088-0.291-0.159-0.484-0.213c-0.194-0.055-0.405-0.104-0.632-0.147c-0.228-0.044-0.438-0.105-0.632-0.186   c-0.193-0.08-0.355-0.192-0.484-0.338c-0.129-0.145-0.193-0.346-0.193-0.604c0-0.201,0.045-0.374,0.135-0.519   s0.207-0.263,0.349-0.353c0.142-0.091,0.302-0.158,0.48-0.202s0.355-0.065,0.531-0.065c0.227,0,0.437,0.02,0.628,0.058   c0.191,0.039,0.36,0.106,0.507,0.202c0.147,0.096,0.265,0.225,0.353,0.388c0.088,0.162,0.14,0.365,0.155,0.607h-0.659   c-0.011-0.129-0.044-0.236-0.101-0.321c-0.057-0.085-0.129-0.153-0.217-0.205s-0.185-0.089-0.291-0.112   c-0.106-0.023-0.213-0.035-0.322-0.035c-0.098,0-0.198,0.008-0.298,0.023s-0.192,0.043-0.275,0.081   c-0.083,0.039-0.15,0.091-0.201,0.155c-0.052,0.064-0.078,0.148-0.078,0.252c0,0.113,0.04,0.208,0.12,0.282   c0.08,0.075,0.182,0.138,0.306,0.187s0.264,0.091,0.418,0.124c0.155,0.033,0.31,0.068,0.465,0.104   c0.166,0.036,0.327,0.08,0.484,0.132c0.158,0.052,0.297,0.12,0.419,0.205c0.121,0.086,0.219,0.192,0.294,0.322   c0.075,0.129,0.112,0.289,0.112,0.48c0,0.242-0.05,0.444-0.151,0.604c-0.101,0.16-0.232,0.289-0.395,0.387   c-0.163,0.099-0.346,0.167-0.55,0.206c-0.204,0.038-0.407,0.058-0.608,0.058c-0.222,0-0.434-0.023-0.636-0.069   c-0.201-0.047-0.379-0.123-0.535-0.229c-0.155-0.106-0.279-0.245-0.372-0.419c-0.093-0.173-0.145-0.384-0.155-0.632h0.659   C20.966,62.651,21,62.773,21.061,62.874z"/>
	<path d="M27.269,63.514c-0.3,0.228-0.677,0.341-1.131,0.341c-0.321,0-0.598-0.052-0.833-0.154   c-0.235-0.104-0.433-0.248-0.593-0.435c-0.16-0.186-0.28-0.408-0.36-0.666c-0.08-0.259-0.125-0.54-0.136-0.845   c0-0.305,0.047-0.584,0.14-0.837c0.093-0.254,0.224-0.474,0.392-0.659c0.167-0.186,0.367-0.331,0.597-0.434   c0.229-0.104,0.481-0.155,0.755-0.155c0.356,0,0.652,0.073,0.888,0.221c0.235,0.147,0.423,0.335,0.565,0.562   c0.142,0.228,0.24,0.476,0.294,0.744c0.055,0.269,0.076,0.524,0.066,0.768h-2.999c-0.005,0.176,0.016,0.342,0.062,0.5   c0.046,0.157,0.121,0.297,0.225,0.418c0.104,0.122,0.235,0.219,0.396,0.291c0.16,0.072,0.349,0.108,0.565,0.108   c0.279,0,0.508-0.064,0.686-0.193c0.178-0.13,0.296-0.326,0.353-0.59h0.651C27.762,62.948,27.569,63.286,27.269,63.514z    M27.11,60.94c-0.06-0.139-0.14-0.259-0.24-0.36c-0.101-0.101-0.22-0.181-0.357-0.24c-0.137-0.059-0.288-0.089-0.453-0.089   c-0.17,0-0.324,0.03-0.461,0.089c-0.137,0.06-0.255,0.142-0.353,0.244c-0.098,0.104-0.175,0.224-0.232,0.36   c-0.057,0.138-0.09,0.283-0.101,0.438h2.302C27.205,61.228,27.169,61.08,27.11,60.94z"/>
	<path d="M30.307,59.763v0.581h-0.798v2.488c0,0.077,0.006,0.14,0.019,0.186c0.013,0.047,0.038,0.083,0.074,0.108   c0.036,0.026,0.086,0.043,0.151,0.051c0.064,0.008,0.148,0.012,0.252,0.012h0.302v0.581h-0.504c-0.17,0-0.316-0.012-0.438-0.035   s-0.22-0.065-0.294-0.128c-0.075-0.062-0.13-0.149-0.167-0.263c-0.036-0.114-0.054-0.264-0.054-0.45v-2.55h-0.682v-0.581h0.682   v-1.201h0.659v1.201H30.307z"/>
	<path d="M31.539,62.874c0.062,0.102,0.144,0.182,0.244,0.24c0.101,0.06,0.214,0.103,0.341,0.128   c0.126,0.026,0.257,0.039,0.391,0.039c0.104,0,0.212-0.008,0.326-0.023s0.218-0.044,0.314-0.085   c0.095-0.041,0.174-0.102,0.236-0.183c0.062-0.08,0.093-0.182,0.093-0.306c0-0.171-0.064-0.3-0.193-0.388   c-0.129-0.088-0.291-0.159-0.484-0.213c-0.194-0.055-0.405-0.104-0.632-0.147c-0.228-0.044-0.438-0.105-0.632-0.186   c-0.193-0.08-0.355-0.192-0.484-0.338c-0.129-0.145-0.193-0.346-0.193-0.604c0-0.201,0.045-0.374,0.135-0.519   s0.207-0.263,0.349-0.353c0.142-0.091,0.302-0.158,0.48-0.202s0.355-0.065,0.531-0.065c0.227,0,0.437,0.02,0.628,0.058   c0.191,0.039,0.36,0.106,0.507,0.202c0.147,0.096,0.265,0.225,0.353,0.388c0.088,0.162,0.14,0.365,0.155,0.607h-0.659   c-0.011-0.129-0.044-0.236-0.101-0.321c-0.057-0.085-0.129-0.153-0.217-0.205s-0.185-0.089-0.291-0.112   c-0.106-0.023-0.213-0.035-0.322-0.035c-0.098,0-0.198,0.008-0.298,0.023s-0.192,0.043-0.275,0.081   c-0.083,0.039-0.15,0.091-0.201,0.155c-0.052,0.064-0.078,0.148-0.078,0.252c0,0.113,0.04,0.208,0.12,0.282   c0.08,0.075,0.182,0.138,0.306,0.187s0.264,0.091,0.418,0.124c0.155,0.033,0.31,0.068,0.465,0.104   c0.166,0.036,0.327,0.08,0.484,0.132c0.158,0.052,0.297,0.12,0.419,0.205c0.121,0.086,0.219,0.192,0.294,0.322   c0.075,0.129,0.112,0.289,0.112,0.48c0,0.242-0.05,0.444-0.151,0.604c-0.101,0.16-0.232,0.289-0.395,0.387   c-0.163,0.099-0.346,0.167-0.55,0.206c-0.204,0.038-0.407,0.058-0.608,0.058c-0.222,0-0.434-0.023-0.636-0.069   c-0.201-0.047-0.379-0.123-0.535-0.229c-0.155-0.106-0.279-0.245-0.372-0.419c-0.093-0.173-0.145-0.384-0.155-0.632h0.659   C31.443,62.651,31.477,62.773,31.539,62.874z"/>
	<path d="M47.894,62.901c0.204,0.202,0.461,0.328,0.771,0.38v-2.054c-0.274-0.067-0.51-0.141-0.709-0.221   c-0.199-0.08-0.364-0.176-0.496-0.287s-0.229-0.246-0.291-0.406s-0.093-0.354-0.093-0.582c0-0.232,0.042-0.445,0.124-0.639   c0.083-0.194,0.195-0.362,0.337-0.504c0.142-0.143,0.31-0.255,0.504-0.337c0.194-0.083,0.402-0.132,0.624-0.147v-0.512h0.426v0.52   c0.418,0.052,0.751,0.206,1,0.465c0.248,0.258,0.424,0.615,0.527,1.069h-0.659c-0.103-0.512-0.393-0.812-0.868-0.899v1.907   l0.465,0.124c0.104,0.025,0.225,0.07,0.364,0.136c0.14,0.064,0.274,0.153,0.403,0.267c0.129,0.114,0.239,0.256,0.33,0.427   c0.09,0.17,0.136,0.375,0.136,0.612c0,0.253-0.042,0.478-0.128,0.674s-0.203,0.366-0.353,0.508   c-0.15,0.143-0.328,0.255-0.535,0.337c-0.207,0.083-0.434,0.135-0.682,0.155v0.636h-0.426v-0.636   c-0.517-0.052-0.928-0.231-1.232-0.539c-0.305-0.307-0.478-0.732-0.519-1.274h0.659C47.583,62.426,47.689,62.7,47.894,62.901z    M48.033,58.991c-0.173,0.153-0.259,0.376-0.259,0.671c0,0.135,0.021,0.249,0.066,0.345c0.043,0.096,0.105,0.176,0.186,0.24   s0.175,0.12,0.283,0.167c0.108,0.046,0.227,0.088,0.356,0.124v-1.813C48.417,58.75,48.207,58.839,48.033,58.991z M49.49,63.204   c0.122-0.042,0.228-0.103,0.318-0.183s0.16-0.181,0.209-0.302c0.049-0.122,0.073-0.265,0.073-0.431   c0-0.149-0.026-0.275-0.077-0.376c-0.052-0.101-0.122-0.187-0.209-0.26c-0.088-0.072-0.194-0.133-0.318-0.182   s-0.255-0.094-0.395-0.136v1.945C49.236,63.271,49.369,63.245,49.49,63.204z"/>
	<path d="M53.129,63.77v-3.937h-1.426v-0.527c0.186,0,0.367-0.015,0.542-0.043s0.334-0.081,0.477-0.158   c0.142-0.078,0.262-0.184,0.36-0.318c0.098-0.134,0.166-0.305,0.202-0.512h0.503v5.495H53.129z"/>
	<path d="M55.679,60.444c0.01-0.217,0.036-0.429,0.078-0.635c0.042-0.207,0.101-0.403,0.178-0.589   c0.078-0.187,0.184-0.35,0.318-0.488c0.134-0.14,0.303-0.251,0.508-0.334c0.204-0.082,0.448-0.124,0.732-0.124   s0.528,0.042,0.732,0.124c0.204,0.083,0.374,0.194,0.508,0.334c0.134,0.139,0.24,0.302,0.318,0.488   c0.077,0.186,0.137,0.382,0.178,0.589c0.041,0.206,0.067,0.418,0.077,0.635c0.011,0.218,0.016,0.427,0.016,0.628   c0,0.202-0.005,0.411-0.016,0.628c-0.01,0.217-0.036,0.429-0.077,0.636c-0.042,0.207-0.101,0.401-0.178,0.585   c-0.078,0.184-0.184,0.345-0.318,0.484s-0.302,0.249-0.504,0.329c-0.201,0.08-0.447,0.12-0.736,0.12   c-0.284,0-0.528-0.04-0.732-0.12c-0.205-0.08-0.374-0.189-0.508-0.329s-0.24-0.301-0.318-0.484s-0.137-0.378-0.178-0.585   s-0.067-0.419-0.078-0.636s-0.015-0.426-0.015-0.628C55.664,60.871,55.668,60.662,55.679,60.444z M56.38,61.759   c0.013,0.255,0.054,0.496,0.124,0.721s0.182,0.414,0.337,0.569c0.155,0.155,0.372,0.232,0.651,0.232   c0.279,0,0.496-0.077,0.651-0.232c0.155-0.155,0.267-0.345,0.337-0.569s0.111-0.466,0.124-0.721c0.013-0.256,0.02-0.487,0.02-0.694   c0-0.134-0.001-0.282-0.004-0.445c-0.003-0.163-0.016-0.325-0.039-0.488c-0.023-0.163-0.057-0.321-0.101-0.477   s-0.108-0.291-0.194-0.407c-0.085-0.116-0.192-0.21-0.321-0.282c-0.129-0.072-0.287-0.108-0.473-0.108s-0.343,0.036-0.473,0.108   c-0.129,0.072-0.236,0.166-0.321,0.282c-0.085,0.116-0.15,0.252-0.194,0.407s-0.078,0.313-0.101,0.477   c-0.023,0.163-0.036,0.325-0.039,0.488s-0.004,0.312-0.004,0.445C56.361,61.271,56.367,61.503,56.38,61.759z"/>
	<path d="M59.988,60.444c0.01-0.217,0.036-0.429,0.078-0.635c0.042-0.207,0.101-0.403,0.178-0.589   c0.078-0.187,0.184-0.35,0.318-0.488c0.134-0.14,0.303-0.251,0.508-0.334c0.204-0.082,0.448-0.124,0.732-0.124   s0.528,0.042,0.732,0.124c0.204,0.083,0.374,0.194,0.508,0.334c0.134,0.139,0.24,0.302,0.318,0.488   c0.077,0.186,0.137,0.382,0.178,0.589c0.041,0.206,0.067,0.418,0.077,0.635c0.011,0.218,0.016,0.427,0.016,0.628   c0,0.202-0.005,0.411-0.016,0.628c-0.01,0.217-0.036,0.429-0.077,0.636c-0.042,0.207-0.101,0.401-0.178,0.585   c-0.078,0.184-0.184,0.345-0.318,0.484s-0.302,0.249-0.504,0.329c-0.201,0.08-0.447,0.12-0.736,0.12   c-0.284,0-0.528-0.04-0.732-0.12c-0.205-0.08-0.374-0.189-0.508-0.329s-0.24-0.301-0.318-0.484s-0.137-0.378-0.178-0.585   s-0.067-0.419-0.078-0.636s-0.015-0.426-0.015-0.628C59.973,60.871,59.978,60.662,59.988,60.444z M60.689,61.759   c0.013,0.255,0.054,0.496,0.124,0.721s0.182,0.414,0.337,0.569c0.155,0.155,0.372,0.232,0.651,0.232   c0.279,0,0.496-0.077,0.651-0.232c0.155-0.155,0.267-0.345,0.337-0.569s0.111-0.466,0.124-0.721c0.013-0.256,0.02-0.487,0.02-0.694   c0-0.134-0.001-0.282-0.004-0.445c-0.003-0.163-0.016-0.325-0.039-0.488c-0.023-0.163-0.057-0.321-0.101-0.477   s-0.108-0.291-0.194-0.407c-0.085-0.116-0.192-0.21-0.321-0.282c-0.129-0.072-0.287-0.108-0.473-0.108s-0.343,0.036-0.473,0.108   c-0.129,0.072-0.236,0.166-0.321,0.282c-0.085,0.116-0.15,0.252-0.194,0.407s-0.078,0.313-0.101,0.477   c-0.023,0.163-0.036,0.325-0.039,0.488s-0.004,0.312-0.004,0.445C60.67,61.271,60.676,61.503,60.689,61.759z"/>
</g>
<g>
	<path d="M77.584,40.437c0.853,0,1.508,0.217,1.968,0.651c0.46,0.434,0.69,1.095,0.69,1.983c0,0.465-0.052,0.877-0.155,1.236   c-0.103,0.359-0.263,0.661-0.48,0.906c-0.217,0.246-0.493,0.433-0.829,0.562c-0.336,0.129-0.734,0.193-1.193,0.193h-1.899v-5.533   H77.584z M77.646,45.35c0.083,0,0.186-0.006,0.31-0.02c0.124-0.013,0.255-0.044,0.395-0.093s0.278-0.12,0.415-0.213   s0.26-0.22,0.368-0.38s0.198-0.36,0.268-0.601c0.069-0.24,0.104-0.53,0.104-0.872c0-0.33-0.032-0.626-0.097-0.887   c-0.065-0.261-0.171-0.483-0.318-0.667c-0.147-0.184-0.337-0.322-0.57-0.418s-0.519-0.144-0.86-0.144h-1.24v4.293H77.646z"/>
	<path d="M83.869,45.714c-0.3,0.228-0.677,0.341-1.131,0.341c-0.321,0-0.598-0.052-0.833-0.154   c-0.235-0.104-0.433-0.248-0.593-0.435c-0.16-0.186-0.28-0.408-0.36-0.666c-0.08-0.259-0.125-0.54-0.136-0.845   c0-0.305,0.047-0.584,0.14-0.838c0.093-0.252,0.224-0.472,0.392-0.658c0.167-0.186,0.367-0.33,0.597-0.434   c0.229-0.104,0.481-0.155,0.755-0.155c0.356,0,0.652,0.073,0.888,0.221c0.235,0.147,0.423,0.335,0.565,0.562   s0.24,0.475,0.294,0.743c0.055,0.27,0.076,0.525,0.066,0.768h-2.999c-0.005,0.176,0.016,0.342,0.062,0.5   c0.046,0.157,0.121,0.297,0.225,0.418c0.104,0.122,0.235,0.219,0.396,0.291c0.16,0.072,0.349,0.108,0.565,0.108   c0.279,0,0.508-0.064,0.686-0.193c0.178-0.13,0.296-0.326,0.353-0.59h0.651C84.362,45.148,84.169,45.486,83.869,45.714z    M83.71,43.141c-0.06-0.139-0.14-0.259-0.24-0.359c-0.101-0.102-0.22-0.182-0.357-0.24c-0.137-0.06-0.288-0.09-0.453-0.09   c-0.17,0-0.324,0.03-0.461,0.09c-0.137,0.059-0.255,0.141-0.353,0.244c-0.098,0.103-0.175,0.223-0.232,0.359   c-0.057,0.137-0.09,0.283-0.101,0.438h2.302C83.805,43.428,83.77,43.28,83.71,43.141z"/>
	<path d="M85.876,40.437v2.069h0.015c0.108-0.223,0.279-0.384,0.512-0.484s0.488-0.151,0.767-0.151c0.31,0,0.58,0.057,0.81,0.171   c0.229,0.113,0.421,0.267,0.573,0.461c0.152,0.193,0.268,0.417,0.345,0.67c0.077,0.254,0.116,0.521,0.116,0.806   s-0.038,0.554-0.112,0.807c-0.075,0.253-0.189,0.474-0.341,0.662c-0.152,0.189-0.344,0.338-0.573,0.446   c-0.23,0.108-0.498,0.162-0.802,0.162c-0.098,0-0.208-0.01-0.33-0.03c-0.121-0.021-0.241-0.055-0.36-0.102   c-0.119-0.046-0.231-0.109-0.337-0.189s-0.195-0.18-0.268-0.299h-0.015v0.535h-0.659v-5.533H85.876z M88.244,43.385   c-0.049-0.178-0.124-0.337-0.225-0.476c-0.101-0.14-0.23-0.251-0.387-0.334c-0.158-0.082-0.343-0.124-0.554-0.124   c-0.222,0-0.411,0.044-0.566,0.132s-0.282,0.203-0.38,0.345c-0.098,0.143-0.169,0.304-0.213,0.484   c-0.044,0.182-0.066,0.364-0.066,0.551c0,0.196,0.023,0.386,0.07,0.569s0.12,0.345,0.221,0.484s0.231,0.252,0.392,0.337   s0.354,0.128,0.581,0.128s0.417-0.044,0.57-0.132c0.152-0.088,0.275-0.204,0.368-0.349c0.093-0.145,0.16-0.31,0.201-0.496   c0.042-0.186,0.062-0.377,0.062-0.573C88.317,43.746,88.293,43.563,88.244,43.385z"/>
	<path d="M91.503,41.963v0.582h-0.798v2.487c0,0.077,0.006,0.14,0.019,0.186c0.013,0.047,0.038,0.083,0.074,0.108   c0.036,0.026,0.086,0.043,0.151,0.051c0.064,0.008,0.148,0.012,0.252,0.012h0.302v0.581h-0.504c-0.17,0-0.316-0.012-0.438-0.035   s-0.22-0.065-0.294-0.128c-0.075-0.062-0.13-0.149-0.167-0.263c-0.036-0.114-0.054-0.264-0.054-0.45v-2.549h-0.682v-0.582h0.682   v-1.201h0.659v1.201H91.503z"/>
	<path d="M118.497,45.102c0.204,0.202,0.461,0.328,0.771,0.38v-2.054c-0.274-0.066-0.511-0.141-0.709-0.221   c-0.199-0.08-0.364-0.176-0.496-0.287c-0.132-0.11-0.229-0.246-0.291-0.406c-0.062-0.16-0.093-0.354-0.093-0.581   c0-0.232,0.041-0.446,0.124-0.64c0.082-0.194,0.194-0.361,0.337-0.504c0.142-0.142,0.31-0.254,0.504-0.337   c0.193-0.083,0.401-0.132,0.624-0.147v-0.512h0.426v0.52c0.419,0.052,0.752,0.207,1,0.465c0.248,0.259,0.424,0.615,0.527,1.069   h-0.659c-0.104-0.511-0.393-0.811-0.868-0.898v1.906l0.465,0.124c0.104,0.025,0.225,0.071,0.364,0.135   c0.14,0.065,0.274,0.154,0.403,0.268c0.129,0.114,0.239,0.256,0.329,0.427c0.091,0.17,0.136,0.375,0.136,0.612   c0,0.253-0.042,0.478-0.128,0.674c-0.085,0.196-0.202,0.366-0.353,0.508c-0.149,0.143-0.328,0.255-0.534,0.337   c-0.207,0.083-0.435,0.135-0.683,0.155v0.636h-0.426v-0.636c-0.517-0.052-0.928-0.231-1.232-0.539   c-0.305-0.307-0.479-0.732-0.52-1.274h0.659C118.185,44.626,118.292,44.9,118.497,45.102z M118.636,41.192   c-0.173,0.152-0.26,0.376-0.26,0.67c0,0.135,0.021,0.249,0.066,0.345c0.043,0.096,0.105,0.176,0.186,0.24   c0.08,0.065,0.175,0.12,0.283,0.167s0.227,0.088,0.356,0.124v-1.813C119.02,40.95,118.809,41.04,118.636,41.192z M120.093,45.404   c0.121-0.042,0.228-0.103,0.317-0.183c0.091-0.08,0.16-0.181,0.21-0.302c0.049-0.122,0.073-0.265,0.073-0.431   c0-0.149-0.026-0.275-0.077-0.376c-0.052-0.101-0.122-0.188-0.21-0.26s-0.193-0.133-0.317-0.182s-0.256-0.094-0.396-0.136v1.945   C119.838,45.471,119.971,45.445,120.093,45.404z"/>
	<path d="M124.553,41.281c-0.16-0.149-0.372-0.225-0.636-0.225c-0.278,0-0.503,0.068-0.674,0.205s-0.304,0.311-0.399,0.52   s-0.161,0.436-0.197,0.678c-0.036,0.243-0.057,0.471-0.062,0.682l0.016,0.016c0.155-0.253,0.348-0.437,0.577-0.55   c0.23-0.113,0.495-0.171,0.795-0.171c0.264,0,0.5,0.046,0.709,0.136c0.209,0.091,0.385,0.216,0.527,0.376   c0.142,0.16,0.252,0.349,0.329,0.566c0.077,0.217,0.116,0.451,0.116,0.704c0,0.202-0.031,0.411-0.093,0.628   c-0.062,0.217-0.164,0.415-0.307,0.593c-0.142,0.179-0.33,0.326-0.565,0.442s-0.525,0.174-0.872,0.174   c-0.408,0-0.736-0.082-0.984-0.248c-0.248-0.165-0.438-0.377-0.573-0.635c-0.135-0.259-0.224-0.543-0.268-0.853   c-0.044-0.311-0.065-0.61-0.065-0.899c0-0.377,0.032-0.742,0.097-1.097c0.064-0.354,0.175-0.667,0.329-0.941   c0.155-0.273,0.362-0.493,0.62-0.658c0.259-0.166,0.584-0.248,0.977-0.248c0.455,0,0.816,0.12,1.085,0.36s0.424,0.588,0.465,1.042   h-0.658C124.809,41.63,124.713,41.431,124.553,41.281z M123.36,43.113c-0.14,0.065-0.259,0.152-0.356,0.264   c-0.099,0.111-0.172,0.243-0.221,0.396c-0.05,0.153-0.074,0.314-0.074,0.484c0,0.171,0.026,0.331,0.078,0.48   c0.052,0.15,0.125,0.279,0.221,0.388s0.214,0.195,0.356,0.26c0.142,0.064,0.304,0.097,0.484,0.097s0.34-0.032,0.477-0.097   s0.252-0.154,0.345-0.268s0.164-0.244,0.213-0.392c0.05-0.147,0.074-0.301,0.074-0.461c0-0.171-0.022-0.332-0.066-0.484   s-0.112-0.284-0.205-0.396s-0.209-0.199-0.349-0.268c-0.14-0.066-0.303-0.1-0.488-0.1C123.662,43.018,123.5,43.05,123.36,43.113z"/>
	<path d="M126.282,42.646c0.01-0.218,0.036-0.429,0.077-0.636c0.042-0.207,0.101-0.403,0.179-0.589   c0.077-0.187,0.184-0.349,0.317-0.488c0.135-0.14,0.304-0.251,0.508-0.333c0.204-0.083,0.448-0.124,0.732-0.124   s0.528,0.041,0.732,0.124c0.204,0.082,0.373,0.193,0.508,0.333c0.134,0.14,0.24,0.302,0.317,0.488   c0.077,0.186,0.137,0.382,0.179,0.589c0.041,0.207,0.066,0.418,0.077,0.636c0.011,0.217,0.016,0.426,0.016,0.628   c0,0.201-0.005,0.41-0.016,0.627s-0.036,0.429-0.077,0.636c-0.042,0.207-0.102,0.401-0.179,0.585s-0.184,0.345-0.317,0.484   c-0.135,0.14-0.303,0.249-0.504,0.329s-0.447,0.12-0.736,0.12c-0.284,0-0.528-0.04-0.732-0.12s-0.373-0.189-0.508-0.329   c-0.134-0.14-0.24-0.301-0.317-0.484c-0.078-0.184-0.137-0.378-0.179-0.585c-0.041-0.207-0.067-0.419-0.077-0.636   c-0.011-0.217-0.016-0.426-0.016-0.627C126.266,43.071,126.271,42.862,126.282,42.646z M126.983,43.959   c0.013,0.255,0.055,0.496,0.124,0.721c0.07,0.225,0.183,0.414,0.337,0.569c0.155,0.155,0.372,0.232,0.651,0.232   s0.496-0.077,0.651-0.232c0.154-0.155,0.267-0.345,0.337-0.569c0.069-0.225,0.111-0.466,0.124-0.721   c0.013-0.256,0.02-0.487,0.02-0.693c0-0.135-0.002-0.283-0.004-0.446c-0.003-0.162-0.016-0.325-0.039-0.488   c-0.023-0.162-0.057-0.321-0.101-0.477c-0.044-0.154-0.108-0.29-0.194-0.406c-0.085-0.116-0.192-0.211-0.321-0.283   s-0.287-0.108-0.473-0.108c-0.187,0-0.344,0.036-0.473,0.108s-0.236,0.167-0.321,0.283c-0.086,0.116-0.15,0.252-0.194,0.406   c-0.044,0.155-0.077,0.314-0.101,0.477c-0.023,0.163-0.036,0.326-0.039,0.488c-0.002,0.163-0.004,0.312-0.004,0.446   C126.963,43.472,126.97,43.703,126.983,43.959z"/>
	<path d="M79.506,49.736v0.62h-3.084v1.759h2.875v0.62h-2.875v1.914h3.108v0.62h-3.844v-5.533H79.506z"/>
	<path d="M83.234,56.796v-2.069h-0.016c-0.108,0.223-0.279,0.383-0.512,0.481c-0.232,0.098-0.488,0.146-0.767,0.146   c-0.31,0-0.58-0.057-0.81-0.17c-0.23-0.114-0.421-0.267-0.573-0.458c-0.152-0.19-0.268-0.413-0.345-0.666   c-0.077-0.253-0.116-0.521-0.116-0.806s0.038-0.553,0.113-0.807c0.075-0.253,0.188-0.474,0.341-0.662s0.343-0.339,0.573-0.45   c0.23-0.11,0.498-0.166,0.802-0.166c0.104,0,0.214,0.011,0.333,0.031c0.119,0.021,0.237,0.056,0.356,0.104   c0.119,0.049,0.231,0.113,0.337,0.193s0.195,0.18,0.268,0.299h0.016v-0.535h0.659v5.533H83.234z M80.866,53.848   c0.049,0.178,0.124,0.337,0.225,0.477s0.23,0.25,0.388,0.333c0.157,0.083,0.342,0.124,0.554,0.124c0.222,0,0.411-0.044,0.566-0.132   s0.282-0.202,0.38-0.345c0.098-0.142,0.169-0.304,0.213-0.484s0.066-0.364,0.066-0.55c0-0.196-0.023-0.387-0.07-0.57   c-0.046-0.184-0.12-0.345-0.221-0.484s-0.231-0.252-0.392-0.337s-0.354-0.128-0.581-0.128c-0.222,0-0.411,0.044-0.566,0.132   c-0.155,0.088-0.279,0.204-0.372,0.349c-0.093,0.145-0.161,0.311-0.202,0.496c-0.042,0.186-0.062,0.377-0.062,0.573   C80.792,53.487,80.817,53.669,80.866,53.848z"/>
	<path d="M87.604,55.27v-0.636h-0.015c-0.14,0.248-0.318,0.431-0.535,0.547c-0.217,0.116-0.473,0.174-0.767,0.174   c-0.264,0-0.483-0.034-0.659-0.104c-0.176-0.069-0.318-0.169-0.426-0.298c-0.108-0.13-0.185-0.283-0.229-0.462   c-0.044-0.178-0.066-0.375-0.066-0.593v-2.635h0.659v2.713c0,0.248,0.072,0.444,0.217,0.589s0.344,0.217,0.597,0.217   c0.202,0,0.376-0.031,0.523-0.093c0.147-0.062,0.27-0.15,0.368-0.264s0.171-0.247,0.221-0.399s0.074-0.318,0.074-0.5v-2.263h0.659   v4.007H87.604z"/>
	<path d="M89.255,50.542v-0.806h0.659v0.806H89.255z M89.914,51.263v4.007h-0.659v-4.007H89.914z"/>
	<path d="M92.65,51.263v0.581h-0.798v2.488c0,0.077,0.006,0.14,0.019,0.186c0.013,0.047,0.038,0.083,0.074,0.108   c0.036,0.026,0.086,0.043,0.151,0.051c0.064,0.008,0.148,0.012,0.252,0.012h0.302v0.581h-0.504c-0.17,0-0.316-0.012-0.438-0.035   s-0.22-0.065-0.294-0.128c-0.075-0.062-0.13-0.149-0.167-0.263c-0.036-0.114-0.054-0.264-0.054-0.45v-2.55h-0.682v-0.581h0.682   v-1.201h0.659v1.201H92.65z"/>
	<path d="M94.951,55.805c-0.077,0.196-0.153,0.361-0.229,0.495c-0.075,0.135-0.157,0.244-0.248,0.33   c-0.091,0.085-0.191,0.147-0.302,0.186c-0.111,0.039-0.239,0.059-0.384,0.059c-0.078,0-0.155-0.006-0.232-0.016   c-0.078-0.011-0.152-0.028-0.225-0.055v-0.604c0.057,0.026,0.122,0.048,0.197,0.066c0.075,0.018,0.138,0.027,0.189,0.027   c0.135,0,0.247-0.033,0.338-0.098c0.09-0.064,0.158-0.156,0.205-0.274l0.271-0.675l-1.589-3.983h0.744l1.17,3.278h0.016   l1.124-3.278h0.697L94.951,55.805z"/>
	<path d="M114.188,54.401c0.203,0.202,0.461,0.328,0.771,0.38v-2.054c-0.273-0.067-0.51-0.141-0.709-0.221s-0.364-0.176-0.496-0.287   s-0.229-0.246-0.29-0.406c-0.062-0.16-0.094-0.354-0.094-0.582c0-0.232,0.042-0.445,0.124-0.639   c0.083-0.194,0.195-0.362,0.337-0.504c0.143-0.143,0.311-0.255,0.504-0.337c0.194-0.083,0.402-0.132,0.624-0.147v-0.512h0.427v0.52   c0.418,0.052,0.751,0.206,0.999,0.465c0.248,0.258,0.424,0.615,0.527,1.069h-0.659c-0.103-0.512-0.393-0.812-0.867-0.899v1.907   l0.465,0.124c0.104,0.025,0.225,0.07,0.364,0.136c0.14,0.064,0.273,0.153,0.402,0.267c0.13,0.114,0.239,0.256,0.33,0.427   c0.09,0.17,0.136,0.375,0.136,0.612c0,0.253-0.043,0.478-0.128,0.674c-0.086,0.196-0.203,0.366-0.353,0.508   c-0.15,0.143-0.328,0.255-0.535,0.337c-0.207,0.083-0.434,0.135-0.682,0.155v0.636h-0.427v-0.636   c-0.517-0.052-0.928-0.231-1.232-0.539c-0.305-0.307-0.478-0.732-0.519-1.274h0.658C113.876,53.926,113.983,54.2,114.188,54.401z    M114.327,50.491c-0.173,0.153-0.259,0.376-0.259,0.671c0,0.135,0.021,0.249,0.065,0.345s0.105,0.176,0.186,0.24   s0.175,0.12,0.283,0.167c0.108,0.046,0.228,0.088,0.356,0.124v-1.813C114.71,50.25,114.5,50.339,114.327,50.491z M115.784,54.704   c0.122-0.042,0.228-0.103,0.318-0.183c0.09-0.08,0.16-0.181,0.209-0.302c0.049-0.122,0.073-0.265,0.073-0.431   c0-0.149-0.025-0.275-0.077-0.376s-0.121-0.187-0.209-0.26c-0.088-0.072-0.194-0.133-0.318-0.182s-0.255-0.094-0.395-0.136v1.945   C115.53,54.771,115.663,54.745,115.784,54.704z"/>
	<path d="M119.422,55.27v-3.937h-1.426v-0.527c0.187,0,0.367-0.015,0.543-0.043s0.334-0.081,0.477-0.158   c0.142-0.078,0.262-0.184,0.36-0.318c0.098-0.134,0.165-0.305,0.201-0.512h0.504v5.495H119.422z"/>
	<path d="M125.623,53.401v0.582h-0.744v1.286h-0.619v-1.286h-2.411v-0.636l2.504-3.573h0.526v3.627H125.623z M124.259,50.713h-0.016   l-1.829,2.688h1.845V50.713z"/>
	<path d="M126.282,51.944c0.01-0.217,0.036-0.429,0.077-0.635c0.042-0.207,0.101-0.403,0.179-0.589   c0.077-0.187,0.184-0.35,0.317-0.488c0.135-0.14,0.304-0.251,0.508-0.334c0.204-0.082,0.448-0.124,0.732-0.124   s0.528,0.042,0.732,0.124c0.204,0.083,0.373,0.194,0.508,0.334c0.134,0.139,0.24,0.302,0.317,0.488   c0.077,0.186,0.137,0.382,0.179,0.589c0.041,0.206,0.066,0.418,0.077,0.635c0.011,0.218,0.016,0.427,0.016,0.628   c0,0.202-0.005,0.411-0.016,0.628s-0.036,0.429-0.077,0.636c-0.042,0.207-0.102,0.401-0.179,0.585s-0.184,0.345-0.317,0.484   c-0.135,0.14-0.303,0.249-0.504,0.329s-0.447,0.12-0.736,0.12c-0.284,0-0.528-0.04-0.732-0.12s-0.373-0.189-0.508-0.329   c-0.134-0.14-0.24-0.301-0.317-0.484c-0.078-0.184-0.137-0.378-0.179-0.585c-0.041-0.207-0.067-0.419-0.077-0.636   c-0.011-0.217-0.016-0.426-0.016-0.628C126.266,52.371,126.271,52.162,126.282,51.944z M126.983,53.259   c0.013,0.255,0.055,0.496,0.124,0.721c0.07,0.225,0.183,0.414,0.337,0.569c0.155,0.155,0.372,0.232,0.651,0.232   s0.496-0.077,0.651-0.232c0.154-0.155,0.267-0.345,0.337-0.569c0.069-0.225,0.111-0.466,0.124-0.721   c0.013-0.256,0.02-0.487,0.02-0.694c0-0.134-0.002-0.282-0.004-0.445c-0.003-0.163-0.016-0.325-0.039-0.488   s-0.057-0.321-0.101-0.477s-0.108-0.291-0.194-0.407c-0.085-0.116-0.192-0.21-0.321-0.282s-0.287-0.108-0.473-0.108   c-0.187,0-0.344,0.036-0.473,0.108s-0.236,0.166-0.321,0.282c-0.086,0.116-0.15,0.252-0.194,0.407s-0.077,0.313-0.101,0.477   s-0.036,0.325-0.039,0.488c-0.002,0.163-0.004,0.312-0.004,0.445C126.963,52.771,126.97,53.003,126.983,53.259z"/>
</g>
<g>
	<path d="M10.58,23.486l2.203,5.891h-1.345l-0.445-1.312H8.79l-0.462,1.312H7.024l2.228-5.891H10.58z M10.654,27.101l-0.743-2.163   H9.895l-0.767,2.163H10.654z"/>
	<path d="M14.156,28.316c0.052,0.091,0.12,0.165,0.202,0.224c0.083,0.058,0.178,0.1,0.285,0.127   c0.107,0.028,0.219,0.042,0.334,0.042c0.083,0,0.169-0.01,0.26-0.029s0.173-0.05,0.248-0.091s0.136-0.096,0.186-0.165   c0.049-0.068,0.074-0.155,0.074-0.26c0-0.176-0.117-0.308-0.351-0.396c-0.234-0.088-0.56-0.177-0.978-0.265   c-0.171-0.038-0.337-0.083-0.5-0.136c-0.162-0.053-0.307-0.121-0.433-0.207c-0.126-0.084-0.228-0.191-0.305-0.321   c-0.077-0.129-0.115-0.288-0.115-0.475c0-0.275,0.054-0.5,0.161-0.677c0.107-0.176,0.249-0.314,0.425-0.417   c0.176-0.102,0.374-0.173,0.594-0.214c0.22-0.042,0.445-0.062,0.676-0.062s0.455,0.022,0.672,0.066   c0.217,0.044,0.411,0.119,0.582,0.223c0.17,0.104,0.312,0.243,0.425,0.417c0.112,0.173,0.18,0.392,0.202,0.656h-1.114   c-0.017-0.226-0.102-0.378-0.256-0.458c-0.154-0.08-0.335-0.12-0.544-0.12c-0.066,0-0.138,0.004-0.215,0.013   c-0.077,0.008-0.147,0.026-0.21,0.054c-0.063,0.027-0.117,0.067-0.161,0.12s-0.066,0.122-0.066,0.21   c0,0.104,0.039,0.19,0.116,0.256c0.077,0.065,0.177,0.12,0.301,0.161c0.124,0.041,0.266,0.078,0.425,0.111   c0.16,0.033,0.322,0.068,0.487,0.107c0.17,0.039,0.337,0.085,0.499,0.141c0.163,0.055,0.307,0.127,0.433,0.218   s0.229,0.204,0.306,0.339c0.077,0.135,0.115,0.301,0.115,0.499c0,0.28-0.056,0.516-0.169,0.705s-0.26,0.343-0.441,0.458   s-0.389,0.196-0.623,0.243s-0.472,0.07-0.713,0.07c-0.248,0-0.49-0.025-0.726-0.074c-0.237-0.05-0.447-0.132-0.631-0.248   c-0.184-0.115-0.335-0.268-0.454-0.458c-0.118-0.189-0.183-0.427-0.194-0.713h1.114C14.078,28.117,14.104,28.227,14.156,28.316z"/>
	<path d="M18.586,28.316c0.052,0.091,0.12,0.165,0.202,0.224c0.083,0.058,0.178,0.1,0.285,0.127   c0.107,0.028,0.219,0.042,0.334,0.042c0.083,0,0.169-0.01,0.26-0.029s0.173-0.05,0.248-0.091s0.136-0.096,0.186-0.165   c0.049-0.068,0.074-0.155,0.074-0.26c0-0.176-0.117-0.308-0.351-0.396c-0.234-0.088-0.56-0.177-0.978-0.265   c-0.171-0.038-0.337-0.083-0.5-0.136c-0.162-0.053-0.307-0.121-0.433-0.207c-0.126-0.084-0.228-0.191-0.305-0.321   c-0.077-0.129-0.115-0.288-0.115-0.475c0-0.275,0.054-0.5,0.161-0.677c0.107-0.176,0.249-0.314,0.425-0.417   c0.176-0.102,0.374-0.173,0.594-0.214c0.22-0.042,0.445-0.062,0.676-0.062s0.455,0.022,0.672,0.066   c0.217,0.044,0.411,0.119,0.582,0.223c0.17,0.104,0.312,0.243,0.425,0.417c0.112,0.173,0.18,0.392,0.202,0.656h-1.114   c-0.017-0.226-0.102-0.378-0.256-0.458c-0.154-0.08-0.335-0.12-0.544-0.12c-0.066,0-0.138,0.004-0.215,0.013   c-0.077,0.008-0.147,0.026-0.21,0.054c-0.063,0.027-0.117,0.067-0.161,0.12s-0.066,0.122-0.066,0.21   c0,0.104,0.039,0.19,0.116,0.256c0.077,0.065,0.177,0.12,0.301,0.161c0.124,0.041,0.266,0.078,0.425,0.111   c0.16,0.033,0.322,0.068,0.487,0.107c0.17,0.039,0.337,0.085,0.499,0.141c0.163,0.055,0.307,0.127,0.433,0.218   s0.229,0.204,0.306,0.339c0.077,0.135,0.115,0.301,0.115,0.499c0,0.28-0.056,0.516-0.169,0.705s-0.26,0.343-0.441,0.458   s-0.389,0.196-0.623,0.243s-0.472,0.07-0.713,0.07c-0.248,0-0.49-0.025-0.726-0.074c-0.237-0.05-0.447-0.132-0.631-0.248   c-0.184-0.115-0.335-0.268-0.454-0.458c-0.118-0.189-0.183-0.427-0.194-0.713h1.114C18.508,28.117,18.534,28.227,18.586,28.316z"/>
	<path d="M23.285,28.354c0.176,0.171,0.429,0.256,0.759,0.256c0.236,0,0.44-0.059,0.61-0.177s0.275-0.244,0.313-0.376h1.031   c-0.165,0.512-0.418,0.878-0.759,1.098c-0.341,0.22-0.753,0.33-1.237,0.33c-0.336,0-0.638-0.054-0.908-0.161   s-0.498-0.26-0.685-0.458c-0.187-0.198-0.332-0.435-0.433-0.709c-0.102-0.275-0.153-0.578-0.153-0.907   c0-0.319,0.052-0.618,0.157-0.892c0.104-0.275,0.253-0.513,0.445-0.713c0.193-0.201,0.422-0.359,0.689-0.475   s0.562-0.173,0.887-0.173c0.363,0,0.679,0.07,0.949,0.21c0.269,0.14,0.491,0.329,0.664,0.565c0.173,0.237,0.298,0.506,0.375,0.809   c0.077,0.303,0.104,0.619,0.083,0.95h-3.077C23.013,27.908,23.109,28.184,23.285,28.354z M24.609,26.109   c-0.14-0.154-0.354-0.231-0.639-0.231c-0.187,0-0.342,0.032-0.466,0.095c-0.124,0.063-0.223,0.142-0.297,0.235   c-0.074,0.094-0.126,0.192-0.157,0.297s-0.048,0.198-0.054,0.28h1.906C24.847,26.489,24.75,26.264,24.609,26.109z"/>
	<path d="M29.109,25.111v0.784h-0.858v2.113c0,0.197,0.033,0.33,0.099,0.396c0.066,0.066,0.198,0.1,0.396,0.1   c0.066,0,0.129-0.003,0.19-0.009c0.061-0.005,0.118-0.014,0.173-0.024v0.907c-0.099,0.017-0.209,0.027-0.33,0.033   c-0.121,0.005-0.239,0.008-0.355,0.008c-0.181,0-0.353-0.012-0.516-0.037c-0.162-0.024-0.305-0.072-0.429-0.145   c-0.124-0.071-0.222-0.173-0.293-0.305s-0.107-0.306-0.107-0.52v-2.517H26.37v-0.784h0.709v-1.279h1.172v1.279H29.109z"/>
	<path d="M30.656,28.316c0.052,0.091,0.12,0.165,0.202,0.224c0.083,0.058,0.178,0.1,0.285,0.127   c0.107,0.028,0.219,0.042,0.334,0.042c0.083,0,0.169-0.01,0.26-0.029s0.173-0.05,0.248-0.091s0.136-0.096,0.186-0.165   c0.049-0.068,0.074-0.155,0.074-0.26c0-0.176-0.117-0.308-0.351-0.396c-0.234-0.088-0.56-0.177-0.978-0.265   c-0.171-0.038-0.337-0.083-0.5-0.136c-0.162-0.053-0.307-0.121-0.433-0.207c-0.126-0.084-0.228-0.191-0.305-0.321   c-0.077-0.129-0.115-0.288-0.115-0.475c0-0.275,0.054-0.5,0.161-0.677c0.107-0.176,0.249-0.314,0.425-0.417   c0.176-0.102,0.374-0.173,0.594-0.214c0.22-0.042,0.445-0.062,0.676-0.062s0.455,0.022,0.672,0.066   c0.217,0.044,0.411,0.119,0.582,0.223c0.17,0.104,0.312,0.243,0.425,0.417c0.112,0.173,0.18,0.392,0.202,0.656h-1.114   c-0.017-0.226-0.102-0.378-0.256-0.458c-0.154-0.08-0.335-0.12-0.544-0.12c-0.066,0-0.138,0.004-0.215,0.013   c-0.077,0.008-0.147,0.026-0.21,0.054c-0.063,0.027-0.117,0.067-0.161,0.12s-0.066,0.122-0.066,0.21   c0,0.104,0.039,0.19,0.116,0.256c0.077,0.065,0.177,0.12,0.301,0.161c0.124,0.041,0.266,0.078,0.425,0.111   c0.16,0.033,0.322,0.068,0.487,0.107c0.17,0.039,0.337,0.085,0.499,0.141c0.163,0.055,0.307,0.127,0.433,0.218   s0.229,0.204,0.306,0.339c0.077,0.135,0.115,0.301,0.115,0.499c0,0.28-0.056,0.516-0.169,0.705s-0.26,0.343-0.441,0.458   s-0.389,0.196-0.623,0.243s-0.472,0.07-0.713,0.07c-0.248,0-0.49-0.025-0.726-0.074c-0.237-0.05-0.447-0.132-0.631-0.248   c-0.184-0.115-0.335-0.268-0.454-0.458c-0.118-0.189-0.183-0.427-0.194-0.713h1.114C30.578,28.117,30.604,28.227,30.656,28.316z"/>
</g>
<g>
	<path d="M76.945,3.817v4.802h2.871v1.089H75.65V3.817H76.945z"/>
	<path d="M80.451,4.782V3.817h1.171v0.965H80.451z M81.623,5.442v4.265h-1.171V5.442H81.623z"/>
	<path d="M82.497,6.754c0.017-0.275,0.085-0.503,0.206-0.685c0.121-0.182,0.275-0.327,0.462-0.438   c0.187-0.11,0.397-0.188,0.631-0.235s0.469-0.07,0.706-0.07c0.214,0,0.432,0.015,0.652,0.045c0.22,0.03,0.42,0.089,0.602,0.177   c0.182,0.088,0.33,0.21,0.445,0.367c0.116,0.157,0.173,0.365,0.173,0.623v2.219c0,0.193,0.011,0.377,0.033,0.553   c0.022,0.177,0.061,0.309,0.115,0.396h-1.188c-0.022-0.066-0.04-0.133-0.054-0.202c-0.014-0.068-0.023-0.139-0.029-0.21   c-0.187,0.192-0.407,0.327-0.66,0.404c-0.253,0.076-0.512,0.115-0.776,0.115c-0.203,0-0.393-0.025-0.569-0.074   c-0.176-0.05-0.33-0.127-0.462-0.231c-0.132-0.104-0.235-0.236-0.309-0.396c-0.074-0.16-0.111-0.35-0.111-0.569   c0-0.242,0.042-0.441,0.128-0.599c0.085-0.156,0.195-0.281,0.33-0.375c0.135-0.093,0.289-0.163,0.462-0.21   c0.173-0.047,0.348-0.084,0.523-0.111c0.176-0.027,0.35-0.05,0.52-0.066s0.322-0.041,0.454-0.074   c0.132-0.033,0.236-0.081,0.313-0.145c0.077-0.062,0.113-0.155,0.107-0.276c0-0.126-0.021-0.227-0.062-0.301   c-0.041-0.074-0.096-0.132-0.165-0.173c-0.069-0.042-0.148-0.069-0.239-0.083S84.548,6.11,84.444,6.11   c-0.231,0-0.412,0.05-0.544,0.148c-0.132,0.099-0.209,0.264-0.231,0.495H82.497z M85.203,7.621   c-0.049,0.044-0.111,0.078-0.186,0.103c-0.074,0.025-0.154,0.046-0.239,0.062c-0.085,0.017-0.175,0.03-0.268,0.041   c-0.094,0.011-0.187,0.024-0.281,0.041c-0.088,0.017-0.175,0.039-0.26,0.066c-0.085,0.027-0.16,0.064-0.223,0.111   c-0.063,0.047-0.114,0.105-0.153,0.177c-0.039,0.072-0.058,0.163-0.058,0.272c0,0.104,0.019,0.192,0.058,0.264   c0.039,0.072,0.091,0.128,0.157,0.17c0.066,0.041,0.143,0.069,0.231,0.086s0.179,0.025,0.272,0.025c0.231,0,0.41-0.039,0.536-0.116   c0.126-0.076,0.22-0.169,0.281-0.276c0.06-0.106,0.097-0.216,0.111-0.325c0.014-0.11,0.021-0.198,0.021-0.265V7.621z"/>
	<path d="M88.454,3.817v2.145h0.016c0.143-0.22,0.337-0.381,0.582-0.482c0.245-0.102,0.499-0.153,0.763-0.153   c0.215,0,0.426,0.044,0.635,0.132s0.397,0.223,0.565,0.404c0.167,0.182,0.304,0.414,0.408,0.697s0.157,0.62,0.157,1.011   s-0.052,0.728-0.157,1.011s-0.241,0.516-0.408,0.697c-0.168,0.182-0.356,0.316-0.565,0.404s-0.42,0.132-0.635,0.132   c-0.313,0-0.594-0.05-0.841-0.148c-0.248-0.1-0.435-0.267-0.561-0.504h-0.017v0.545h-1.114V3.817H88.454z M90.351,7.059   c-0.039-0.165-0.099-0.311-0.182-0.437s-0.186-0.227-0.31-0.301c-0.124-0.074-0.273-0.111-0.449-0.111   c-0.171,0-0.319,0.037-0.446,0.111s-0.231,0.175-0.313,0.301s-0.143,0.272-0.182,0.437s-0.058,0.339-0.058,0.521   c0,0.176,0.019,0.346,0.058,0.511s0.099,0.311,0.182,0.438s0.187,0.227,0.313,0.301S89.24,8.94,89.411,8.94   c0.176,0,0.326-0.037,0.449-0.111c0.124-0.074,0.227-0.174,0.31-0.301s0.143-0.272,0.182-0.438   c0.038-0.165,0.058-0.335,0.058-0.511C90.409,7.398,90.389,7.224,90.351,7.059z"/>
	<path d="M92.355,4.782V3.817h1.171v0.965H92.355z M93.527,5.442v4.265h-1.171V5.442H93.527z"/>
	<path d="M95.656,3.817v5.891h-1.172V3.817H95.656z"/>
	<path d="M96.613,4.782V3.817h1.171v0.965H96.613z M97.784,5.442v4.265h-1.171V5.442H97.784z"/>
	<path d="M101.051,5.442v0.784h-0.858v2.112c0,0.197,0.033,0.33,0.099,0.396c0.066,0.066,0.198,0.1,0.396,0.1   c0.066,0,0.129-0.003,0.189-0.009c0.061-0.005,0.118-0.014,0.174-0.024v0.907c-0.1,0.017-0.209,0.027-0.33,0.033   c-0.121,0.005-0.239,0.008-0.355,0.008c-0.181,0-0.353-0.012-0.516-0.037c-0.162-0.024-0.305-0.072-0.429-0.145   c-0.124-0.071-0.222-0.173-0.293-0.305s-0.107-0.306-0.107-0.52V6.226h-0.709V5.442h0.709V4.164h1.172v1.279H101.051z"/>
	<path d="M101.645,4.782V3.817h1.171v0.965H101.645z M102.816,5.442v4.265h-1.171V5.442H102.816z"/>
	<path d="M104.995,8.684c0.176,0.171,0.429,0.256,0.759,0.256c0.236,0,0.439-0.059,0.61-0.177c0.17-0.118,0.274-0.244,0.313-0.376   h1.031c-0.165,0.512-0.418,0.878-0.759,1.098c-0.342,0.22-0.754,0.33-1.237,0.33c-0.336,0-0.639-0.054-0.908-0.161   s-0.498-0.26-0.685-0.458s-0.331-0.435-0.433-0.709c-0.103-0.275-0.153-0.578-0.153-0.907c0-0.319,0.053-0.617,0.157-0.892   c0.104-0.275,0.253-0.513,0.445-0.713s0.422-0.359,0.688-0.475s0.562-0.173,0.888-0.173c0.362,0,0.679,0.07,0.948,0.21   s0.491,0.329,0.664,0.565c0.174,0.237,0.299,0.506,0.375,0.809c0.077,0.303,0.104,0.618,0.083,0.949h-3.077   C104.722,8.239,104.818,8.514,104.995,8.684z M106.318,6.44c-0.14-0.154-0.354-0.231-0.639-0.231c-0.188,0-0.343,0.032-0.467,0.095   c-0.123,0.063-0.223,0.142-0.297,0.235c-0.074,0.094-0.126,0.192-0.156,0.297s-0.049,0.198-0.054,0.28h1.905   C106.556,6.82,106.458,6.595,106.318,6.44z"/>
	<path d="M109.461,8.647c0.052,0.091,0.119,0.165,0.202,0.224c0.082,0.058,0.178,0.1,0.284,0.127   c0.107,0.028,0.219,0.042,0.335,0.042c0.082,0,0.169-0.01,0.26-0.029s0.173-0.05,0.247-0.091s0.136-0.096,0.186-0.165   c0.05-0.068,0.074-0.155,0.074-0.26c0-0.176-0.117-0.308-0.351-0.396s-0.56-0.177-0.978-0.265   c-0.171-0.038-0.337-0.083-0.499-0.136s-0.307-0.121-0.434-0.207c-0.126-0.084-0.228-0.191-0.305-0.321   c-0.077-0.129-0.115-0.287-0.115-0.474c0-0.275,0.054-0.5,0.16-0.677c0.107-0.176,0.249-0.314,0.425-0.417   c0.177-0.102,0.374-0.173,0.595-0.214c0.22-0.042,0.445-0.062,0.676-0.062c0.231,0,0.455,0.022,0.673,0.066   c0.217,0.044,0.411,0.119,0.582,0.223c0.17,0.104,0.312,0.243,0.425,0.417c0.112,0.173,0.18,0.392,0.202,0.656h-1.114   c-0.017-0.226-0.102-0.378-0.256-0.458c-0.154-0.08-0.335-0.12-0.544-0.12c-0.066,0-0.138,0.004-0.215,0.013   s-0.147,0.026-0.21,0.054c-0.063,0.027-0.117,0.067-0.161,0.12s-0.066,0.122-0.066,0.21c0,0.104,0.039,0.19,0.116,0.256   c0.076,0.065,0.177,0.12,0.301,0.161s0.266,0.078,0.425,0.111s0.321,0.068,0.486,0.107c0.171,0.038,0.337,0.085,0.499,0.141   c0.163,0.055,0.307,0.127,0.434,0.218c0.126,0.091,0.229,0.204,0.306,0.339c0.076,0.135,0.115,0.301,0.115,0.499   c0,0.28-0.057,0.516-0.169,0.705c-0.113,0.189-0.26,0.343-0.441,0.458s-0.39,0.196-0.623,0.243c-0.234,0.047-0.472,0.07-0.714,0.07   c-0.247,0-0.489-0.025-0.726-0.074c-0.237-0.05-0.447-0.132-0.632-0.248c-0.184-0.115-0.335-0.268-0.453-0.458   c-0.118-0.189-0.184-0.427-0.194-0.713h1.114C109.383,8.448,109.409,8.557,109.461,8.647z"/>
	<path d="M115.15,6.754c0.017-0.275,0.085-0.503,0.206-0.685s0.275-0.327,0.462-0.438c0.187-0.11,0.397-0.188,0.631-0.235   c0.234-0.047,0.469-0.07,0.706-0.07c0.214,0,0.432,0.015,0.651,0.045s0.421,0.089,0.603,0.177c0.182,0.088,0.33,0.21,0.445,0.367   s0.173,0.365,0.173,0.623v2.219c0,0.193,0.012,0.377,0.033,0.553c0.022,0.177,0.061,0.309,0.115,0.396h-1.188   c-0.022-0.066-0.04-0.133-0.054-0.202c-0.014-0.068-0.023-0.139-0.029-0.21c-0.187,0.192-0.406,0.327-0.659,0.404   c-0.254,0.076-0.512,0.115-0.776,0.115c-0.203,0-0.393-0.025-0.568-0.074c-0.177-0.05-0.33-0.127-0.463-0.231   c-0.132-0.104-0.234-0.236-0.309-0.396c-0.074-0.16-0.111-0.35-0.111-0.569c0-0.242,0.042-0.441,0.128-0.599   c0.085-0.156,0.194-0.281,0.329-0.375c0.135-0.093,0.289-0.163,0.463-0.21c0.173-0.047,0.348-0.084,0.523-0.111   s0.35-0.05,0.52-0.066c0.171-0.017,0.322-0.041,0.454-0.074s0.236-0.081,0.313-0.145c0.077-0.062,0.112-0.155,0.107-0.276   c0-0.126-0.021-0.227-0.062-0.301c-0.041-0.074-0.096-0.132-0.165-0.173c-0.068-0.042-0.148-0.069-0.239-0.083   s-0.188-0.021-0.293-0.021c-0.23,0-0.412,0.05-0.544,0.148c-0.132,0.099-0.209,0.264-0.231,0.495H115.15z M117.856,7.621   c-0.05,0.044-0.111,0.078-0.186,0.103c-0.074,0.025-0.154,0.046-0.239,0.062c-0.086,0.017-0.175,0.03-0.269,0.041   s-0.187,0.024-0.28,0.041c-0.088,0.017-0.175,0.039-0.26,0.066c-0.086,0.027-0.16,0.064-0.223,0.111   c-0.063,0.047-0.114,0.105-0.153,0.177c-0.038,0.072-0.058,0.163-0.058,0.272c0,0.104,0.02,0.192,0.058,0.264   c0.039,0.072,0.091,0.128,0.157,0.17c0.065,0.041,0.143,0.069,0.23,0.086s0.179,0.025,0.272,0.025c0.231,0,0.41-0.039,0.536-0.116   c0.127-0.076,0.22-0.169,0.281-0.276c0.06-0.106,0.097-0.216,0.111-0.325c0.014-0.11,0.021-0.198,0.021-0.265V7.621z"/>
	<path d="M121.048,5.442v0.594h0.024c0.148-0.248,0.341-0.427,0.578-0.54c0.236-0.113,0.479-0.169,0.726-0.169   c0.313,0,0.57,0.043,0.771,0.128c0.2,0.085,0.358,0.204,0.475,0.355c0.115,0.151,0.196,0.335,0.243,0.553s0.07,0.458,0.07,0.721   v2.624h-1.172V7.298c0-0.352-0.055-0.614-0.165-0.788s-0.305-0.26-0.586-0.26c-0.318,0-0.55,0.095-0.692,0.284   c-0.144,0.19-0.215,0.502-0.215,0.937v2.235h-1.172V5.442H121.048z"/>
	<path d="M127.854,9.163c-0.137,0.231-0.317,0.397-0.54,0.5c-0.223,0.102-0.475,0.152-0.755,0.152c-0.319,0-0.6-0.062-0.842-0.186   c-0.242-0.124-0.441-0.292-0.598-0.504c-0.157-0.211-0.275-0.455-0.354-0.729c-0.08-0.275-0.12-0.562-0.12-0.858   c0-0.286,0.04-0.562,0.12-0.829c0.079-0.267,0.197-0.501,0.354-0.705c0.156-0.204,0.354-0.367,0.59-0.491   c0.236-0.124,0.512-0.186,0.825-0.186c0.253,0,0.493,0.054,0.722,0.161c0.229,0.107,0.408,0.265,0.54,0.474h0.017V3.817h1.172   v5.891h-1.114V9.163H127.854z M127.805,7.055c-0.033-0.162-0.09-0.305-0.17-0.429c-0.079-0.124-0.183-0.224-0.309-0.301   c-0.127-0.077-0.286-0.116-0.479-0.116c-0.193,0-0.355,0.039-0.487,0.116s-0.237,0.179-0.317,0.305s-0.138,0.271-0.173,0.434   c-0.036,0.162-0.054,0.331-0.054,0.507c0,0.165,0.019,0.33,0.058,0.495c0.038,0.165,0.101,0.312,0.186,0.441   s0.192,0.233,0.321,0.313c0.13,0.08,0.285,0.119,0.467,0.119c0.192,0,0.354-0.038,0.482-0.115s0.232-0.18,0.31-0.31   c0.077-0.129,0.132-0.276,0.165-0.441c0.032-0.165,0.049-0.335,0.049-0.512C127.854,7.386,127.837,7.217,127.805,7.055z"/>
	<path d="M76.512,18.547c0.052,0.091,0.12,0.165,0.202,0.224c0.083,0.058,0.178,0.1,0.285,0.127   c0.107,0.028,0.219,0.042,0.334,0.042c0.083,0,0.169-0.01,0.26-0.029s0.173-0.05,0.248-0.091s0.136-0.096,0.186-0.165   c0.049-0.068,0.074-0.155,0.074-0.26c0-0.176-0.117-0.308-0.351-0.396c-0.234-0.088-0.56-0.177-0.978-0.265   c-0.171-0.038-0.337-0.083-0.5-0.136c-0.162-0.053-0.307-0.121-0.433-0.206c-0.126-0.086-0.228-0.192-0.305-0.322   c-0.077-0.129-0.115-0.287-0.115-0.475c0-0.274,0.054-0.5,0.161-0.676c0.107-0.176,0.249-0.315,0.425-0.417   c0.176-0.102,0.374-0.173,0.594-0.215c0.22-0.041,0.445-0.062,0.676-0.062s0.455,0.022,0.672,0.066s0.411,0.118,0.582,0.223   c0.17,0.104,0.312,0.243,0.425,0.416c0.112,0.174,0.18,0.393,0.202,0.656h-1.114c-0.017-0.226-0.102-0.378-0.256-0.458   c-0.154-0.079-0.335-0.119-0.544-0.119c-0.066,0-0.138,0.004-0.215,0.012c-0.077,0.009-0.147,0.026-0.21,0.054   c-0.063,0.028-0.117,0.067-0.161,0.12c-0.044,0.052-0.066,0.122-0.066,0.21c0,0.104,0.039,0.189,0.116,0.256   c0.077,0.066,0.177,0.12,0.301,0.161c0.124,0.041,0.266,0.078,0.425,0.111c0.16,0.033,0.322,0.068,0.487,0.107   c0.17,0.038,0.337,0.085,0.499,0.14c0.163,0.056,0.307,0.128,0.433,0.219s0.229,0.204,0.306,0.339   c0.077,0.135,0.115,0.301,0.115,0.499c0,0.28-0.056,0.516-0.169,0.705s-0.26,0.343-0.441,0.458s-0.389,0.196-0.623,0.243   s-0.472,0.07-0.713,0.07c-0.248,0-0.49-0.025-0.726-0.074c-0.237-0.05-0.447-0.132-0.631-0.248   c-0.184-0.115-0.335-0.268-0.454-0.458c-0.118-0.189-0.183-0.427-0.194-0.713h1.114C76.434,18.348,76.459,18.458,76.512,18.547z"/>
	<path d="M81.128,13.717v2.22h0.024c0.148-0.248,0.338-0.428,0.569-0.541c0.231-0.112,0.457-0.169,0.677-0.169   c0.313,0,0.57,0.043,0.771,0.128s0.359,0.203,0.475,0.354c0.115,0.151,0.196,0.336,0.243,0.553c0.047,0.218,0.07,0.458,0.07,0.723   v2.623h-1.171v-2.409c0-0.352-0.055-0.614-0.165-0.788c-0.11-0.173-0.305-0.26-0.586-0.26c-0.319,0-0.55,0.095-0.693,0.285   c-0.143,0.189-0.214,0.502-0.214,0.937v2.235h-1.172v-5.891H81.128z"/>
	<path d="M84.799,16.655c0.017-0.275,0.085-0.504,0.206-0.686c0.121-0.181,0.275-0.327,0.462-0.437   c0.187-0.11,0.397-0.188,0.631-0.235s0.469-0.07,0.706-0.07c0.214,0,0.432,0.016,0.652,0.046c0.22,0.03,0.42,0.089,0.602,0.177   s0.33,0.211,0.445,0.367c0.116,0.157,0.173,0.364,0.173,0.623v2.219c0,0.193,0.011,0.377,0.033,0.553   c0.022,0.177,0.061,0.309,0.115,0.396h-1.188c-0.022-0.066-0.04-0.133-0.054-0.202c-0.014-0.068-0.023-0.139-0.029-0.21   c-0.187,0.192-0.407,0.327-0.66,0.404c-0.253,0.076-0.512,0.115-0.776,0.115c-0.203,0-0.393-0.025-0.569-0.074   c-0.176-0.05-0.33-0.127-0.462-0.231c-0.132-0.104-0.235-0.236-0.309-0.396c-0.074-0.16-0.111-0.35-0.111-0.569   c0-0.242,0.042-0.441,0.128-0.599c0.085-0.156,0.195-0.281,0.33-0.375s0.289-0.164,0.462-0.21c0.173-0.047,0.348-0.084,0.523-0.112   c0.176-0.027,0.35-0.049,0.52-0.065s0.322-0.041,0.454-0.074c0.132-0.033,0.236-0.081,0.313-0.145s0.113-0.155,0.107-0.276   c0-0.126-0.021-0.227-0.062-0.301c-0.041-0.074-0.096-0.132-0.165-0.174c-0.069-0.041-0.148-0.068-0.239-0.082   s-0.188-0.021-0.293-0.021c-0.231,0-0.412,0.049-0.544,0.148c-0.132,0.099-0.209,0.264-0.231,0.495H84.799z M87.505,17.521   c-0.049,0.044-0.111,0.078-0.186,0.103c-0.074,0.025-0.154,0.046-0.239,0.062c-0.085,0.017-0.175,0.03-0.268,0.041   c-0.094,0.011-0.187,0.024-0.281,0.041c-0.088,0.017-0.175,0.039-0.26,0.066c-0.085,0.027-0.16,0.064-0.223,0.111   c-0.063,0.047-0.114,0.105-0.153,0.177c-0.039,0.072-0.058,0.163-0.058,0.272c0,0.104,0.019,0.192,0.058,0.264   c0.039,0.072,0.091,0.128,0.157,0.17c0.066,0.041,0.143,0.069,0.231,0.086s0.179,0.025,0.272,0.025c0.231,0,0.41-0.039,0.536-0.116   c0.126-0.076,0.22-0.169,0.281-0.276c0.06-0.106,0.097-0.216,0.111-0.325c0.014-0.11,0.021-0.198,0.021-0.265V17.521z"/>
	<path d="M90.697,15.342v0.792h0.017c0.055-0.132,0.129-0.254,0.223-0.367c0.094-0.112,0.201-0.209,0.322-0.288   c0.121-0.08,0.25-0.142,0.388-0.186c0.138-0.044,0.281-0.066,0.429-0.066c0.077,0,0.162,0.014,0.256,0.041v1.089   c-0.055-0.011-0.121-0.021-0.198-0.028c-0.077-0.009-0.151-0.013-0.223-0.013c-0.214,0-0.396,0.036-0.544,0.107   s-0.268,0.169-0.359,0.293s-0.155,0.269-0.194,0.433c-0.039,0.165-0.058,0.345-0.058,0.537v1.922h-1.172v-4.266H90.697z"/>
	<path d="M93.899,18.584c0.176,0.171,0.429,0.256,0.759,0.256c0.236,0,0.439-0.059,0.61-0.177c0.17-0.118,0.274-0.244,0.313-0.376   h1.031c-0.165,0.512-0.418,0.878-0.759,1.098c-0.342,0.22-0.754,0.33-1.237,0.33c-0.336,0-0.639-0.054-0.908-0.161   s-0.498-0.26-0.685-0.458c-0.187-0.198-0.332-0.435-0.433-0.709c-0.102-0.275-0.153-0.578-0.153-0.908   c0-0.318,0.052-0.615,0.157-0.891s0.253-0.513,0.445-0.714c0.193-0.2,0.422-0.358,0.689-0.474c0.267-0.116,0.562-0.174,0.888-0.174   c0.362,0,0.679,0.07,0.948,0.211c0.27,0.14,0.491,0.328,0.664,0.564c0.174,0.236,0.299,0.506,0.375,0.809   c0.077,0.303,0.104,0.619,0.083,0.949H93.61C93.626,18.139,93.722,18.415,93.899,18.584z M95.222,16.341   c-0.14-0.154-0.354-0.231-0.639-0.231c-0.188,0-0.343,0.032-0.467,0.095c-0.123,0.063-0.223,0.142-0.297,0.235   s-0.126,0.192-0.156,0.297s-0.049,0.198-0.054,0.28h1.905C95.46,16.72,95.363,16.495,95.222,16.341z"/>
	<path d="M98.551,13.717v2.22h0.024c0.148-0.248,0.339-0.428,0.569-0.541c0.231-0.112,0.457-0.169,0.677-0.169   c0.313,0,0.57,0.043,0.771,0.128c0.2,0.085,0.358,0.203,0.475,0.354c0.115,0.151,0.196,0.336,0.243,0.553   c0.047,0.218,0.07,0.458,0.07,0.723v2.623h-1.172v-2.409c0-0.352-0.055-0.614-0.165-0.788c-0.11-0.173-0.305-0.26-0.586-0.26   c-0.318,0-0.55,0.095-0.692,0.285c-0.144,0.189-0.215,0.502-0.215,0.937v2.235h-1.172v-5.891H98.551z"/>
	<path d="M102.296,16.551c0.104-0.277,0.253-0.515,0.445-0.71c0.193-0.194,0.424-0.346,0.693-0.453s0.572-0.161,0.907-0.161   c0.336,0,0.64,0.054,0.912,0.161s0.505,0.259,0.697,0.453c0.192,0.195,0.341,0.433,0.445,0.71s0.156,0.587,0.156,0.928   c0,0.342-0.052,0.649-0.156,0.925c-0.104,0.274-0.253,0.51-0.445,0.705s-0.425,0.345-0.697,0.449s-0.576,0.157-0.912,0.157   c-0.335,0-0.638-0.053-0.907-0.157s-0.5-0.254-0.693-0.449c-0.192-0.195-0.341-0.431-0.445-0.705   c-0.104-0.275-0.156-0.583-0.156-0.925C102.14,17.138,102.192,16.829,102.296,16.551z M103.361,17.979   c0.033,0.162,0.09,0.308,0.169,0.437c0.08,0.13,0.186,0.232,0.318,0.31c0.132,0.077,0.297,0.115,0.494,0.115   c0.198,0,0.364-0.038,0.499-0.115s0.242-0.18,0.322-0.31c0.08-0.129,0.136-0.274,0.169-0.437c0.033-0.163,0.05-0.329,0.05-0.5   c0-0.17-0.017-0.338-0.05-0.503s-0.089-0.311-0.169-0.438c-0.08-0.126-0.188-0.229-0.322-0.309c-0.135-0.08-0.301-0.12-0.499-0.12   c-0.197,0-0.362,0.04-0.494,0.12c-0.133,0.079-0.238,0.183-0.318,0.309c-0.079,0.127-0.136,0.272-0.169,0.438   s-0.05,0.333-0.05,0.503C103.311,17.65,103.328,17.816,103.361,17.979z"/>
	<path d="M108.517,13.717v5.891h-1.172v-5.891H108.517z"/>
	<path d="M112.468,19.063c-0.137,0.231-0.317,0.397-0.54,0.5c-0.223,0.102-0.475,0.152-0.755,0.152c-0.319,0-0.6-0.062-0.842-0.186   c-0.242-0.124-0.441-0.292-0.598-0.504c-0.157-0.211-0.275-0.455-0.354-0.729c-0.08-0.275-0.12-0.562-0.12-0.858   c0-0.286,0.04-0.562,0.12-0.829c0.079-0.267,0.197-0.502,0.354-0.705c0.156-0.203,0.354-0.367,0.59-0.491s0.512-0.186,0.825-0.186   c0.253,0,0.493,0.054,0.722,0.161s0.408,0.266,0.54,0.475h0.017v-2.146h1.172v5.891h-1.114v-0.545H112.468z M112.419,16.956   c-0.033-0.162-0.09-0.306-0.17-0.429c-0.079-0.124-0.183-0.225-0.309-0.302c-0.127-0.076-0.286-0.115-0.479-0.115   c-0.193,0-0.355,0.039-0.487,0.115c-0.132,0.077-0.237,0.179-0.317,0.306s-0.138,0.271-0.173,0.433   c-0.036,0.163-0.054,0.332-0.054,0.508c0,0.165,0.019,0.33,0.058,0.495c0.038,0.165,0.101,0.312,0.186,0.441   s0.192,0.233,0.321,0.313c0.13,0.08,0.285,0.119,0.467,0.119c0.192,0,0.354-0.038,0.482-0.115s0.232-0.18,0.31-0.31   c0.077-0.129,0.132-0.276,0.165-0.441c0.032-0.165,0.049-0.335,0.049-0.511C112.468,17.287,112.452,17.118,112.419,16.956z"/>
	<path d="M115.736,18.584c0.176,0.171,0.429,0.256,0.759,0.256c0.236,0,0.439-0.059,0.61-0.177c0.17-0.118,0.274-0.244,0.313-0.376   h1.031c-0.165,0.512-0.418,0.878-0.759,1.098c-0.342,0.22-0.754,0.33-1.237,0.33c-0.336,0-0.639-0.054-0.908-0.161   s-0.498-0.26-0.685-0.458s-0.331-0.435-0.433-0.709c-0.103-0.275-0.153-0.578-0.153-0.908c0-0.318,0.053-0.615,0.157-0.891   s0.253-0.513,0.445-0.714c0.192-0.2,0.422-0.358,0.688-0.474c0.267-0.116,0.562-0.174,0.888-0.174c0.362,0,0.679,0.07,0.948,0.211   c0.27,0.14,0.491,0.328,0.664,0.564c0.174,0.236,0.299,0.506,0.375,0.809c0.077,0.303,0.104,0.619,0.083,0.949h-3.077   C115.463,18.139,115.559,18.415,115.736,18.584z M117.059,16.341c-0.14-0.154-0.354-0.231-0.639-0.231   c-0.188,0-0.343,0.032-0.467,0.095c-0.123,0.063-0.223,0.142-0.297,0.235s-0.126,0.192-0.156,0.297s-0.049,0.198-0.054,0.28h1.905   C117.297,16.72,117.2,16.495,117.059,16.341z"/>
	<path d="M120.331,15.342v0.792h0.017c0.055-0.132,0.129-0.254,0.223-0.367c0.094-0.112,0.2-0.209,0.321-0.288   c0.121-0.08,0.251-0.142,0.388-0.186c0.138-0.044,0.281-0.066,0.43-0.066c0.077,0,0.162,0.014,0.256,0.041v1.089   c-0.056-0.011-0.121-0.021-0.198-0.028c-0.077-0.009-0.151-0.013-0.223-0.013c-0.215,0-0.396,0.036-0.545,0.107   s-0.268,0.169-0.358,0.293s-0.155,0.269-0.194,0.433c-0.038,0.165-0.058,0.345-0.058,0.537v1.922h-1.172v-4.266H120.331z"/>
	<path d="M123.412,18.547c0.052,0.091,0.119,0.165,0.202,0.224c0.082,0.058,0.178,0.1,0.284,0.127   c0.107,0.028,0.219,0.042,0.335,0.042c0.082,0,0.169-0.01,0.26-0.029s0.173-0.05,0.247-0.091s0.136-0.096,0.186-0.165   c0.05-0.068,0.074-0.155,0.074-0.26c0-0.176-0.117-0.308-0.351-0.396s-0.56-0.177-0.978-0.265   c-0.171-0.038-0.337-0.083-0.499-0.136s-0.307-0.121-0.434-0.206c-0.126-0.086-0.228-0.192-0.305-0.322   c-0.077-0.129-0.115-0.287-0.115-0.475c0-0.274,0.054-0.5,0.16-0.676c0.107-0.176,0.249-0.315,0.425-0.417   c0.177-0.102,0.374-0.173,0.595-0.215c0.22-0.041,0.445-0.062,0.676-0.062c0.231,0,0.455,0.022,0.673,0.066   c0.217,0.044,0.411,0.118,0.582,0.223c0.17,0.104,0.312,0.243,0.425,0.416c0.112,0.174,0.18,0.393,0.202,0.656h-1.114   c-0.017-0.226-0.102-0.378-0.256-0.458c-0.154-0.079-0.335-0.119-0.544-0.119c-0.066,0-0.138,0.004-0.215,0.012   c-0.077,0.009-0.147,0.026-0.21,0.054c-0.063,0.028-0.117,0.067-0.161,0.12c-0.044,0.052-0.066,0.122-0.066,0.21   c0,0.104,0.039,0.189,0.116,0.256c0.076,0.066,0.177,0.12,0.301,0.161s0.266,0.078,0.425,0.111s0.321,0.068,0.486,0.107   c0.171,0.038,0.337,0.085,0.499,0.14c0.163,0.056,0.307,0.128,0.434,0.219c0.126,0.091,0.229,0.204,0.306,0.339   c0.076,0.135,0.115,0.301,0.115,0.499c0,0.28-0.057,0.516-0.169,0.705c-0.113,0.189-0.26,0.343-0.441,0.458   s-0.39,0.196-0.623,0.243c-0.234,0.047-0.472,0.07-0.714,0.07c-0.247,0-0.489-0.025-0.726-0.074   c-0.237-0.05-0.447-0.132-0.632-0.248c-0.184-0.115-0.335-0.268-0.453-0.458c-0.118-0.189-0.184-0.427-0.194-0.713h1.114   C123.333,18.348,123.359,18.458,123.412,18.547z"/>
	<path d="M76.78,28.484c0.176,0.171,0.429,0.256,0.759,0.256c0.236,0,0.44-0.059,0.61-0.177s0.275-0.244,0.313-0.376h1.031   c-0.165,0.512-0.418,0.878-0.759,1.098c-0.341,0.22-0.753,0.33-1.237,0.33c-0.336,0-0.638-0.054-0.908-0.161   s-0.498-0.26-0.685-0.458c-0.187-0.198-0.332-0.435-0.433-0.709c-0.102-0.275-0.153-0.578-0.153-0.908   c0-0.318,0.052-0.616,0.157-0.891s0.253-0.513,0.445-0.714c0.193-0.2,0.422-0.358,0.689-0.474c0.267-0.116,0.562-0.174,0.887-0.174   c0.363,0,0.679,0.07,0.949,0.211c0.269,0.14,0.491,0.328,0.664,0.564s0.298,0.506,0.375,0.809c0.077,0.303,0.104,0.62,0.083,0.95   h-3.077C76.508,28.039,76.604,28.314,76.78,28.484z M78.104,26.241c-0.14-0.154-0.354-0.231-0.639-0.231   c-0.187,0-0.342,0.032-0.466,0.095c-0.124,0.063-0.223,0.142-0.297,0.235s-0.126,0.192-0.157,0.297s-0.048,0.199-0.054,0.281h1.906   C78.342,26.62,78.245,26.394,78.104,26.241z"/>
	<path d="M83.248,31.001v-2.029h-0.017c-0.138,0.23-0.33,0.396-0.578,0.495c-0.248,0.099-0.503,0.148-0.767,0.148   c-0.198,0-0.403-0.037-0.615-0.111s-0.406-0.198-0.582-0.371c-0.176-0.174-0.322-0.401-0.438-0.686   c-0.115-0.283-0.173-0.631-0.173-1.043c0-0.292,0.038-0.575,0.115-0.85c0.077-0.275,0.195-0.519,0.355-0.73   c0.159-0.212,0.359-0.381,0.598-0.508c0.239-0.126,0.521-0.189,0.846-0.189c0.264,0,0.513,0.051,0.747,0.152   c0.233,0.103,0.417,0.271,0.548,0.508h0.017v-0.545h1.114v5.759H83.248z M81.301,27.879c0.033,0.162,0.089,0.308,0.169,0.437   c0.08,0.13,0.184,0.232,0.313,0.31c0.129,0.077,0.29,0.115,0.482,0.115s0.354-0.037,0.483-0.111   c0.129-0.074,0.233-0.173,0.313-0.297c0.08-0.124,0.137-0.267,0.173-0.429c0.036-0.162,0.054-0.331,0.054-0.508   c0-0.165-0.018-0.33-0.054-0.495c-0.036-0.166-0.092-0.314-0.169-0.446s-0.18-0.239-0.31-0.321   c-0.129-0.083-0.284-0.124-0.466-0.124c-0.193,0-0.355,0.039-0.487,0.115c-0.132,0.077-0.239,0.181-0.322,0.31   c-0.083,0.13-0.142,0.275-0.177,0.438c-0.036,0.162-0.054,0.331-0.054,0.507C81.251,27.55,81.268,27.716,81.301,27.879z"/>
	<path d="M88.189,29.508v-0.594h-0.025c-0.148,0.247-0.341,0.426-0.577,0.536c-0.237,0.109-0.479,0.165-0.726,0.165   c-0.313,0-0.571-0.041-0.771-0.124c-0.201-0.082-0.359-0.199-0.475-0.351c-0.115-0.151-0.196-0.335-0.243-0.553   c-0.047-0.217-0.07-0.458-0.07-0.722v-2.625h1.172v2.41c0,0.353,0.055,0.615,0.165,0.788c0.11,0.173,0.305,0.26,0.585,0.26   c0.319,0,0.55-0.095,0.693-0.284c0.143-0.19,0.215-0.502,0.215-0.937v-2.237h1.171v4.266H88.189z"/>
	<path d="M90.227,24.583v-0.966h1.171v0.966H90.227z M91.398,25.242v4.266h-1.171v-4.266H91.398z"/>
	<path d="M94.666,25.242v0.784h-0.857v2.113c0,0.197,0.032,0.33,0.099,0.396c0.066,0.066,0.198,0.1,0.396,0.1   c0.066,0,0.13-0.003,0.19-0.009c0.061-0.005,0.118-0.014,0.173-0.024v0.907c-0.099,0.017-0.209,0.027-0.33,0.033   c-0.121,0.005-0.239,0.008-0.354,0.008c-0.182,0-0.354-0.012-0.516-0.037c-0.162-0.024-0.306-0.072-0.429-0.145   c-0.124-0.071-0.222-0.173-0.293-0.305s-0.107-0.306-0.107-0.52v-2.517h-0.709v-0.784h0.709v-1.278h1.172v1.278H94.666z"/>
	<path d="M96.802,30.778c-0.226,0.148-0.539,0.223-0.94,0.223c-0.121,0-0.241-0.004-0.359-0.013   c-0.118-0.008-0.237-0.018-0.358-0.028v-0.966c0.11,0.012,0.223,0.022,0.338,0.033c0.116,0.011,0.231,0.014,0.347,0.009   c0.154-0.017,0.269-0.077,0.343-0.182s0.111-0.221,0.111-0.347c0-0.094-0.017-0.182-0.05-0.264l-1.493-4.002h1.246l0.965,2.921   h0.017l0.933-2.921h1.212l-1.781,4.794C97.204,30.382,97.028,30.63,96.802,30.778z"/>
</g>
<line fill="none" stroke="#000000" stroke-width="0.5" stroke-miterlimit="10" x1="7.025" y1="32.961" x2="131.551" y2="32.961"/>
<line fill="none" stroke="#000000" stroke-width="0.5" stroke-miterlimit="10" x1="70.41" y1="5.263" x2="70.41" y2="72.999"/>
<rect x="140.434" y="46.85" fill="#CBDDD6" width="56.855" height="23.11"/>
<g>
	<g>
		<path d="M144.108,51.615c0.174,0,0.344-0.015,0.508-0.043c0.164-0.029,0.312-0.078,0.445-0.146    c0.134-0.067,0.247-0.154,0.341-0.261c0.095-0.106,0.156-0.237,0.186-0.392h0.674v5.075h-0.906v-3.582h-1.247V51.615z"/>
		<path d="M149.77,50.673c0.362,0,0.658,0.083,0.889,0.25c0.229,0.167,0.408,0.38,0.536,0.638c0.128,0.259,0.215,0.543,0.261,0.853    s0.069,0.609,0.069,0.898c0,0.291-0.023,0.59-0.069,0.899s-0.133,0.594-0.261,0.852c-0.128,0.259-0.307,0.472-0.536,0.639    c-0.23,0.167-0.526,0.25-0.889,0.25s-0.658-0.083-0.888-0.25s-0.409-0.38-0.537-0.639c-0.128-0.258-0.215-0.542-0.261-0.852    s-0.068-0.608-0.068-0.899c0-0.289,0.022-0.589,0.068-0.898s0.133-0.594,0.261-0.853c0.128-0.258,0.308-0.471,0.537-0.638    S149.408,50.673,149.77,50.673z M149.77,55.263c0.179,0,0.329-0.052,0.449-0.156c0.121-0.104,0.217-0.244,0.287-0.421    c0.069-0.176,0.119-0.383,0.148-0.619c0.029-0.237,0.043-0.488,0.043-0.755c0-0.266-0.014-0.516-0.043-0.75    s-0.079-0.441-0.148-0.62c-0.07-0.179-0.166-0.32-0.287-0.424c-0.12-0.104-0.271-0.156-0.449-0.156    c-0.184,0-0.335,0.053-0.453,0.156s-0.213,0.245-0.282,0.424c-0.07,0.179-0.12,0.386-0.149,0.62    c-0.028,0.234-0.043,0.484-0.043,0.75c0,0.267,0.015,0.518,0.043,0.755c0.029,0.236,0.079,0.443,0.149,0.619    c0.069,0.177,0.164,0.317,0.282,0.421C149.435,55.211,149.586,55.263,149.77,55.263z"/>
		<path d="M153.801,50.673c0.362,0,0.658,0.083,0.888,0.25s0.408,0.38,0.536,0.638c0.129,0.259,0.216,0.543,0.262,0.853    s0.068,0.609,0.068,0.898c0,0.291-0.022,0.59-0.068,0.899s-0.133,0.594-0.262,0.852c-0.128,0.259-0.307,0.472-0.536,0.639    s-0.525,0.25-0.888,0.25c-0.363,0-0.659-0.083-0.889-0.25s-0.408-0.38-0.536-0.639c-0.128-0.258-0.215-0.542-0.261-0.852    c-0.047-0.31-0.069-0.608-0.069-0.899c0-0.289,0.022-0.589,0.069-0.898c0.046-0.31,0.133-0.594,0.261-0.853    c0.128-0.258,0.307-0.471,0.536-0.638S153.438,50.673,153.801,50.673z M153.801,55.263c0.179,0,0.328-0.052,0.449-0.156    c0.121-0.104,0.216-0.244,0.286-0.421c0.07-0.176,0.12-0.383,0.148-0.619c0.029-0.237,0.044-0.488,0.044-0.755    c0-0.266-0.015-0.516-0.044-0.75c-0.028-0.234-0.078-0.441-0.148-0.62s-0.165-0.32-0.286-0.424s-0.271-0.156-0.449-0.156    c-0.185,0-0.335,0.053-0.453,0.156c-0.119,0.104-0.213,0.245-0.283,0.424s-0.119,0.386-0.148,0.62s-0.044,0.484-0.044,0.75    c0,0.267,0.015,0.518,0.044,0.755c0.029,0.236,0.078,0.443,0.148,0.619c0.07,0.177,0.164,0.317,0.283,0.421    C153.466,55.211,153.617,55.263,153.801,55.263z"/>
		<path d="M158.89,54.646c0.024,0.241,0.116,0.41,0.275,0.507c0.16,0.097,0.351,0.146,0.573,0.146c0.077,0,0.165-0.006,0.265-0.019    c0.099-0.012,0.191-0.035,0.279-0.068c0.087-0.034,0.158-0.084,0.214-0.149c0.055-0.064,0.08-0.15,0.076-0.257    c-0.005-0.106-0.044-0.193-0.116-0.261c-0.073-0.068-0.166-0.122-0.279-0.163s-0.243-0.076-0.388-0.105    c-0.146-0.029-0.293-0.061-0.442-0.095c-0.155-0.033-0.304-0.074-0.446-0.123c-0.143-0.048-0.271-0.113-0.384-0.195    c-0.114-0.083-0.204-0.188-0.272-0.315c-0.067-0.128-0.102-0.287-0.102-0.475c0-0.204,0.05-0.374,0.149-0.512    c0.099-0.138,0.225-0.249,0.377-0.334c0.152-0.084,0.321-0.144,0.507-0.177c0.187-0.034,0.364-0.051,0.533-0.051    c0.193,0,0.378,0.021,0.555,0.062s0.336,0.107,0.479,0.199s0.261,0.211,0.355,0.358c0.094,0.147,0.153,0.325,0.178,0.534h-0.863    c-0.038-0.199-0.129-0.332-0.271-0.399c-0.143-0.068-0.306-0.102-0.489-0.102c-0.059,0-0.127,0.005-0.207,0.015    s-0.154,0.027-0.225,0.054c-0.07,0.027-0.13,0.065-0.178,0.116s-0.072,0.117-0.072,0.199c0,0.102,0.035,0.184,0.104,0.247    c0.07,0.063,0.162,0.114,0.276,0.155c0.113,0.041,0.242,0.076,0.388,0.105c0.145,0.029,0.295,0.061,0.449,0.094    c0.149,0.035,0.297,0.076,0.442,0.124c0.145,0.048,0.274,0.113,0.388,0.195c0.113,0.083,0.205,0.187,0.275,0.312    c0.07,0.125,0.105,0.28,0.105,0.464c0,0.222-0.051,0.41-0.152,0.565c-0.102,0.154-0.233,0.28-0.396,0.377s-0.342,0.167-0.54,0.21    c-0.198,0.044-0.394,0.065-0.587,0.065c-0.237,0-0.456-0.026-0.656-0.08c-0.2-0.053-0.375-0.134-0.521-0.242    c-0.148-0.109-0.264-0.244-0.349-0.406c-0.084-0.162-0.129-0.354-0.134-0.576H158.89z"/>
		<path d="M162.03,50.673h0.826v1.921h0.015c0.102-0.169,0.252-0.311,0.453-0.424c0.2-0.113,0.424-0.17,0.671-0.17    c0.41,0,0.734,0.106,0.971,0.318c0.237,0.213,0.355,0.532,0.355,0.958v2.573h-0.826v-2.356c-0.01-0.295-0.072-0.508-0.188-0.642    c-0.116-0.133-0.298-0.199-0.544-0.199c-0.141,0-0.266,0.025-0.377,0.076s-0.205,0.12-0.283,0.21    c-0.077,0.09-0.138,0.195-0.181,0.315c-0.044,0.121-0.065,0.249-0.065,0.384v2.212h-0.826V50.673z"/>
		<path d="M169.331,55.016c0,0.102,0.013,0.174,0.04,0.218c0.026,0.044,0.078,0.065,0.155,0.065c0.024,0,0.054,0,0.087,0    c0.034,0,0.073-0.005,0.116-0.015v0.572c-0.029,0.01-0.066,0.021-0.112,0.033c-0.046,0.012-0.093,0.022-0.142,0.032    c-0.048,0.01-0.097,0.018-0.145,0.022c-0.049,0.004-0.09,0.007-0.123,0.007c-0.17,0-0.31-0.034-0.421-0.102    s-0.184-0.186-0.218-0.355c-0.164,0.16-0.366,0.275-0.605,0.349c-0.239,0.072-0.47,0.108-0.692,0.108    c-0.169,0-0.331-0.023-0.485-0.069s-0.291-0.113-0.409-0.202c-0.119-0.09-0.213-0.203-0.283-0.341s-0.105-0.299-0.105-0.482    c0-0.232,0.043-0.421,0.127-0.565c0.085-0.146,0.196-0.259,0.334-0.341s0.292-0.142,0.464-0.178s0.345-0.064,0.519-0.084    c0.149-0.028,0.292-0.049,0.428-0.061c0.135-0.013,0.255-0.033,0.358-0.062c0.104-0.029,0.187-0.073,0.247-0.134    c0.06-0.06,0.09-0.151,0.09-0.272c0-0.105-0.025-0.192-0.076-0.261c-0.051-0.067-0.113-0.119-0.188-0.155    c-0.074-0.037-0.158-0.061-0.25-0.073c-0.092-0.012-0.179-0.018-0.261-0.018c-0.232,0-0.423,0.048-0.572,0.145    c-0.15,0.097-0.235,0.247-0.254,0.45h-0.827c0.015-0.242,0.073-0.442,0.175-0.603c0.101-0.159,0.23-0.287,0.388-0.384    s0.334-0.164,0.532-0.203S167.622,52,167.83,52c0.184,0,0.365,0.019,0.544,0.058s0.339,0.102,0.482,0.188    c0.142,0.087,0.257,0.199,0.344,0.337s0.131,0.306,0.131,0.504V55.016z M168.503,53.972c-0.125,0.082-0.28,0.132-0.464,0.148    c-0.184,0.018-0.367,0.043-0.551,0.076c-0.087,0.015-0.172,0.035-0.254,0.062c-0.082,0.027-0.154,0.063-0.217,0.109    c-0.063,0.046-0.113,0.106-0.149,0.181c-0.036,0.075-0.054,0.166-0.054,0.272c0,0.092,0.026,0.169,0.079,0.231    c0.054,0.063,0.117,0.112,0.192,0.149c0.075,0.036,0.157,0.062,0.246,0.076c0.09,0.014,0.171,0.021,0.243,0.021    c0.092,0,0.191-0.013,0.298-0.036c0.105-0.024,0.206-0.065,0.301-0.124c0.094-0.058,0.173-0.131,0.235-0.221    s0.094-0.199,0.094-0.33V53.972z"/>
		<path d="M170.222,52.102h0.775v0.725h0.015c0.024-0.102,0.071-0.2,0.142-0.297c0.069-0.097,0.154-0.186,0.254-0.265    c0.099-0.08,0.209-0.145,0.329-0.192c0.121-0.049,0.244-0.072,0.37-0.072c0.097,0,0.163,0.002,0.199,0.007s0.073,0.01,0.112,0.015    v0.798c-0.058-0.01-0.117-0.019-0.178-0.025c-0.061-0.008-0.119-0.012-0.178-0.012c-0.14,0-0.271,0.028-0.395,0.084    s-0.231,0.138-0.323,0.246c-0.092,0.109-0.164,0.243-0.217,0.402c-0.054,0.16-0.08,0.344-0.08,0.552v1.783h-0.826V52.102z"/>
		<path d="M173.289,54.189c0,0.145,0.021,0.285,0.062,0.42c0.041,0.136,0.103,0.254,0.185,0.355s0.187,0.183,0.312,0.243    c0.125,0.061,0.275,0.091,0.449,0.091c0.241,0,0.436-0.052,0.583-0.156c0.147-0.104,0.258-0.26,0.33-0.468h0.783    c-0.043,0.203-0.118,0.385-0.225,0.544s-0.234,0.294-0.385,0.402c-0.149,0.109-0.317,0.191-0.504,0.247    c-0.186,0.055-0.38,0.083-0.583,0.083c-0.295,0-0.556-0.049-0.783-0.146c-0.228-0.096-0.419-0.231-0.576-0.405    s-0.275-0.382-0.355-0.624c-0.08-0.241-0.119-0.507-0.119-0.797c0-0.266,0.042-0.519,0.127-0.758    c0.084-0.239,0.205-0.45,0.362-0.631c0.156-0.182,0.347-0.325,0.568-0.432c0.223-0.106,0.474-0.159,0.755-0.159    c0.294,0,0.559,0.062,0.794,0.185c0.234,0.123,0.429,0.286,0.583,0.489s0.268,0.437,0.337,0.7c0.07,0.264,0.089,0.535,0.055,0.815    H173.289z M175.217,53.646c-0.01-0.131-0.038-0.256-0.084-0.377s-0.108-0.226-0.188-0.315c-0.079-0.09-0.176-0.162-0.29-0.218    c-0.113-0.056-0.24-0.083-0.38-0.083c-0.146,0-0.277,0.025-0.396,0.076s-0.22,0.12-0.305,0.21    c-0.084,0.09-0.152,0.195-0.203,0.315c-0.051,0.121-0.078,0.251-0.083,0.392H175.217z"/>
		<path d="M177.297,54.646c0.024,0.241,0.116,0.41,0.275,0.507c0.16,0.097,0.351,0.146,0.573,0.146c0.077,0,0.165-0.006,0.265-0.019    c0.099-0.012,0.191-0.035,0.279-0.068c0.087-0.034,0.158-0.084,0.214-0.149c0.055-0.064,0.08-0.15,0.076-0.257    c-0.005-0.106-0.044-0.193-0.116-0.261c-0.073-0.068-0.166-0.122-0.279-0.163s-0.243-0.076-0.388-0.105    c-0.146-0.029-0.293-0.061-0.442-0.095c-0.155-0.033-0.304-0.074-0.446-0.123c-0.143-0.048-0.271-0.113-0.384-0.195    c-0.114-0.083-0.204-0.188-0.272-0.315c-0.067-0.128-0.102-0.287-0.102-0.475c0-0.204,0.05-0.374,0.149-0.512    c0.099-0.138,0.225-0.249,0.377-0.334c0.152-0.084,0.321-0.144,0.507-0.177c0.187-0.034,0.364-0.051,0.533-0.051    c0.193,0,0.378,0.021,0.555,0.062s0.336,0.107,0.479,0.199s0.261,0.211,0.355,0.358c0.094,0.147,0.153,0.325,0.178,0.534h-0.863    c-0.038-0.199-0.129-0.332-0.271-0.399c-0.143-0.068-0.306-0.102-0.489-0.102c-0.059,0-0.127,0.005-0.207,0.015    s-0.154,0.027-0.225,0.054c-0.07,0.027-0.13,0.065-0.178,0.116s-0.072,0.117-0.072,0.199c0,0.102,0.035,0.184,0.104,0.247    c0.07,0.063,0.162,0.114,0.276,0.155c0.113,0.041,0.242,0.076,0.388,0.105c0.145,0.029,0.295,0.061,0.449,0.094    c0.149,0.035,0.297,0.076,0.442,0.124c0.145,0.048,0.274,0.113,0.388,0.195c0.113,0.083,0.205,0.187,0.275,0.312    c0.07,0.125,0.105,0.28,0.105,0.464c0,0.222-0.051,0.41-0.152,0.565c-0.102,0.154-0.233,0.28-0.396,0.377s-0.342,0.167-0.54,0.21    c-0.198,0.044-0.394,0.065-0.587,0.065c-0.237,0-0.456-0.026-0.656-0.08c-0.2-0.053-0.375-0.134-0.521-0.242    c-0.148-0.109-0.264-0.244-0.349-0.406c-0.084-0.162-0.129-0.354-0.134-0.576H177.297z"/>
		<path d="M185.591,55.016c0,0.102,0.014,0.174,0.04,0.218s0.079,0.065,0.156,0.065c0.023,0,0.053,0,0.087,0    c0.033,0,0.072-0.005,0.116-0.015v0.572c-0.029,0.01-0.066,0.021-0.112,0.033c-0.047,0.012-0.094,0.022-0.142,0.032    c-0.049,0.01-0.097,0.018-0.146,0.022c-0.048,0.004-0.089,0.007-0.123,0.007c-0.169,0-0.31-0.034-0.421-0.102    c-0.11-0.067-0.184-0.186-0.217-0.355c-0.165,0.16-0.366,0.275-0.605,0.349c-0.239,0.072-0.471,0.108-0.692,0.108    c-0.169,0-0.331-0.023-0.486-0.069c-0.154-0.046-0.291-0.113-0.409-0.202c-0.118-0.09-0.213-0.203-0.283-0.341    c-0.069-0.138-0.104-0.299-0.104-0.482c0-0.232,0.042-0.421,0.127-0.565c0.084-0.146,0.195-0.259,0.333-0.341    s0.293-0.142,0.464-0.178c0.172-0.036,0.345-0.064,0.519-0.084c0.15-0.028,0.293-0.049,0.428-0.061    c0.136-0.013,0.255-0.033,0.359-0.062c0.104-0.029,0.186-0.073,0.246-0.134c0.061-0.06,0.091-0.151,0.091-0.272    c0-0.105-0.025-0.192-0.076-0.261c-0.051-0.067-0.113-0.119-0.188-0.155c-0.075-0.037-0.158-0.061-0.25-0.073    c-0.092-0.012-0.179-0.018-0.261-0.018c-0.232,0-0.424,0.048-0.573,0.145s-0.234,0.247-0.254,0.45h-0.826    c0.015-0.242,0.072-0.442,0.174-0.603c0.102-0.159,0.23-0.287,0.388-0.384s0.335-0.164,0.533-0.203S183.883,52,184.091,52    c0.184,0,0.364,0.019,0.543,0.058s0.34,0.102,0.482,0.188s0.258,0.199,0.345,0.337s0.13,0.306,0.13,0.504V55.016z M184.765,53.972    c-0.126,0.082-0.28,0.132-0.464,0.148c-0.184,0.018-0.367,0.043-0.551,0.076c-0.088,0.015-0.172,0.035-0.254,0.062    c-0.082,0.027-0.155,0.063-0.218,0.109s-0.112,0.106-0.148,0.181c-0.036,0.075-0.055,0.166-0.055,0.272    c0,0.092,0.026,0.169,0.08,0.231c0.053,0.063,0.117,0.112,0.192,0.149c0.074,0.036,0.156,0.062,0.246,0.076    c0.089,0.014,0.17,0.021,0.243,0.021c0.092,0,0.19-0.013,0.297-0.036c0.106-0.024,0.207-0.065,0.301-0.124    c0.095-0.058,0.173-0.131,0.235-0.221c0.063-0.09,0.095-0.199,0.095-0.33V53.972z"/>
		<path d="M186.106,52.102h0.624v-1.124h0.826v1.124h0.747v0.616h-0.747v2.001c0,0.087,0.004,0.162,0.011,0.225    c0.008,0.062,0.024,0.116,0.051,0.159c0.026,0.044,0.066,0.076,0.12,0.099c0.053,0.021,0.125,0.032,0.217,0.032    c0.059,0,0.116-0.001,0.174-0.004c0.059-0.002,0.116-0.011,0.175-0.025v0.639c-0.092,0.009-0.182,0.019-0.269,0.028    s-0.177,0.015-0.269,0.015c-0.217,0-0.393-0.021-0.525-0.062s-0.237-0.102-0.312-0.182c-0.075-0.079-0.126-0.18-0.152-0.301    c-0.026-0.12-0.043-0.258-0.047-0.413v-2.211h-0.624V52.102z"/>
		<path d="M144.673,62.977c-0.005,0.319,0.065,0.57,0.211,0.754c0.145,0.184,0.384,0.28,0.718,0.29v-1.755    c-0.198-0.053-0.396-0.117-0.591-0.191c-0.196-0.075-0.373-0.172-0.529-0.29c-0.157-0.118-0.284-0.268-0.381-0.446    s-0.146-0.401-0.146-0.667c0-0.231,0.045-0.436,0.135-0.612c0.089-0.177,0.21-0.324,0.362-0.442s0.327-0.209,0.525-0.271    c0.198-0.063,0.406-0.095,0.624-0.095v-0.565h0.312v0.565c0.218,0,0.423,0.029,0.616,0.087c0.193,0.059,0.361,0.146,0.504,0.261    c0.143,0.116,0.256,0.264,0.341,0.442c0.084,0.179,0.127,0.387,0.127,0.624h-0.827c-0.01-0.247-0.073-0.436-0.191-0.565    c-0.119-0.131-0.309-0.196-0.569-0.196v1.53c0.218,0.058,0.43,0.125,0.638,0.203c0.208,0.077,0.392,0.176,0.551,0.297    c0.16,0.121,0.288,0.271,0.385,0.449s0.145,0.399,0.145,0.66c0,0.271-0.045,0.506-0.134,0.707c-0.09,0.2-0.212,0.367-0.366,0.5    s-0.336,0.234-0.544,0.305c-0.208,0.069-0.433,0.109-0.674,0.119v0.565h-0.312v-0.565c-0.262-0.005-0.501-0.046-0.718-0.123    c-0.218-0.077-0.404-0.188-0.559-0.33c-0.155-0.143-0.274-0.317-0.359-0.525c-0.084-0.208-0.124-0.447-0.119-0.718H144.673z     M145.602,59.902c-0.262,0-0.463,0.055-0.605,0.163c-0.143,0.109-0.214,0.291-0.214,0.548c0,0.116,0.023,0.215,0.072,0.297    c0.048,0.082,0.109,0.152,0.185,0.21c0.075,0.059,0.162,0.105,0.261,0.142c0.1,0.036,0.2,0.066,0.302,0.091V59.902z     M145.914,64.021c0.261-0.02,0.475-0.096,0.642-0.229s0.25-0.344,0.25-0.634c0-0.136-0.025-0.249-0.076-0.341    s-0.118-0.17-0.203-0.232s-0.18-0.113-0.286-0.152c-0.106-0.038-0.215-0.072-0.326-0.102V64.021z"/>
		<path d="M148.139,60.315c0.174,0,0.343-0.014,0.507-0.043c0.165-0.029,0.313-0.077,0.446-0.146    c0.133-0.067,0.246-0.154,0.341-0.261c0.094-0.106,0.156-0.236,0.185-0.392h0.675v5.075h-0.906v-3.581h-1.247V60.315z"/>
		<path d="M152.286,63.571h1.008v0.979h-1.008V63.571z"/>
		<path d="M157.585,63.347h-0.652v1.203h-0.783v-1.203h-2.175v-0.819l2.175-3.053h0.783v3.219h0.652V63.347z M154.613,62.693h1.537    v-2.232h-0.015L154.613,62.693z"/>
		<path d="M159.847,59.373c0.362,0,0.658,0.084,0.889,0.25c0.229,0.167,0.408,0.38,0.536,0.639s0.215,0.542,0.261,0.852    s0.069,0.609,0.069,0.899s-0.023,0.589-0.069,0.898s-0.133,0.594-0.261,0.852c-0.128,0.259-0.307,0.472-0.536,0.639    c-0.23,0.167-0.526,0.25-0.889,0.25s-0.658-0.083-0.888-0.25s-0.409-0.38-0.537-0.639c-0.128-0.258-0.215-0.542-0.261-0.852    s-0.068-0.608-0.068-0.898s0.022-0.59,0.068-0.899s0.133-0.593,0.261-0.852s0.308-0.472,0.537-0.639    C159.189,59.457,159.485,59.373,159.847,59.373z M159.847,63.963c0.179,0,0.329-0.052,0.449-0.156    c0.121-0.104,0.217-0.244,0.287-0.421c0.069-0.176,0.119-0.383,0.148-0.619c0.029-0.237,0.043-0.488,0.043-0.754    c0-0.267-0.014-0.517-0.043-0.751s-0.079-0.44-0.148-0.62c-0.07-0.179-0.166-0.319-0.287-0.424    c-0.12-0.104-0.271-0.155-0.449-0.155c-0.184,0-0.335,0.052-0.453,0.155c-0.118,0.104-0.213,0.245-0.282,0.424    c-0.07,0.18-0.12,0.386-0.149,0.62c-0.028,0.234-0.043,0.484-0.043,0.751c0,0.266,0.015,0.517,0.043,0.754    c0.029,0.236,0.079,0.443,0.149,0.619c0.069,0.177,0.164,0.317,0.282,0.421C159.512,63.911,159.664,63.963,159.847,63.963z"/>
		<path d="M164.334,60.802h0.783v0.507h0.015c0.116-0.217,0.278-0.373,0.486-0.467c0.207-0.095,0.432-0.142,0.674-0.142    c0.295,0,0.552,0.052,0.772,0.155c0.22,0.104,0.402,0.247,0.547,0.428c0.146,0.182,0.254,0.394,0.326,0.635    c0.072,0.242,0.109,0.5,0.109,0.775c0,0.252-0.033,0.496-0.099,0.732c-0.064,0.237-0.164,0.446-0.297,0.627    c-0.133,0.182-0.301,0.327-0.504,0.436s-0.442,0.163-0.718,0.163c-0.121,0-0.242-0.011-0.362-0.032    c-0.121-0.022-0.237-0.058-0.349-0.105c-0.11-0.049-0.214-0.11-0.308-0.185c-0.095-0.075-0.173-0.163-0.235-0.265h-0.015v1.87    h-0.827V60.802z M167.22,62.68c0-0.17-0.021-0.334-0.065-0.493c-0.043-0.16-0.108-0.301-0.195-0.425    c-0.087-0.123-0.195-0.222-0.326-0.297s-0.28-0.112-0.449-0.112c-0.349,0-0.61,0.121-0.787,0.362    c-0.177,0.242-0.265,0.563-0.265,0.965c0,0.188,0.023,0.363,0.069,0.525s0.114,0.301,0.206,0.417s0.202,0.208,0.33,0.275    s0.276,0.102,0.446,0.102c0.188,0,0.348-0.039,0.479-0.116c0.13-0.077,0.237-0.178,0.322-0.301    c0.084-0.123,0.145-0.264,0.182-0.421C167.203,63.005,167.22,62.844,167.22,62.68z"/>
		<path d="M169.388,62.89c0,0.145,0.021,0.285,0.062,0.42c0.041,0.136,0.103,0.254,0.185,0.355s0.187,0.183,0.312,0.243    c0.125,0.061,0.275,0.091,0.449,0.091c0.241,0,0.436-0.052,0.583-0.156c0.147-0.104,0.258-0.26,0.33-0.468h0.783    c-0.043,0.203-0.118,0.385-0.225,0.544s-0.234,0.294-0.385,0.402c-0.149,0.109-0.317,0.191-0.504,0.247    c-0.186,0.055-0.38,0.083-0.583,0.083c-0.295,0-0.556-0.049-0.783-0.146c-0.228-0.096-0.419-0.231-0.576-0.405    s-0.275-0.382-0.355-0.624c-0.08-0.241-0.119-0.507-0.119-0.797c0-0.267,0.042-0.519,0.127-0.758    c0.084-0.239,0.205-0.449,0.362-0.631c0.156-0.182,0.347-0.325,0.568-0.432c0.223-0.106,0.474-0.159,0.755-0.159    c0.294,0,0.559,0.062,0.794,0.185c0.234,0.123,0.429,0.286,0.583,0.489s0.268,0.437,0.337,0.7c0.07,0.264,0.089,0.535,0.055,0.815    H169.388z M171.317,62.346c-0.01-0.131-0.038-0.256-0.084-0.377s-0.108-0.226-0.188-0.315c-0.079-0.089-0.176-0.162-0.29-0.218    c-0.113-0.055-0.24-0.083-0.38-0.083c-0.146,0-0.277,0.025-0.396,0.076s-0.22,0.121-0.305,0.21    c-0.084,0.09-0.152,0.195-0.203,0.315c-0.051,0.121-0.078,0.252-0.083,0.392H171.317z"/>
		<path d="M172.774,60.802h0.775v0.725h0.015c0.024-0.102,0.071-0.2,0.142-0.297c0.069-0.097,0.154-0.186,0.254-0.265    c0.099-0.08,0.209-0.144,0.329-0.192c0.121-0.048,0.244-0.072,0.37-0.072c0.097,0,0.163,0.002,0.199,0.007s0.073,0.01,0.112,0.015    v0.798c-0.058-0.01-0.117-0.019-0.178-0.025c-0.061-0.008-0.119-0.011-0.178-0.011c-0.14,0-0.271,0.027-0.395,0.083    s-0.231,0.138-0.323,0.246c-0.092,0.109-0.164,0.243-0.217,0.402c-0.054,0.16-0.08,0.344-0.08,0.552v1.783h-0.826V60.802z"/>
		<path d="M177.964,63.347c0.024,0.241,0.116,0.41,0.275,0.507c0.16,0.097,0.351,0.146,0.573,0.146c0.077,0,0.165-0.006,0.265-0.019    c0.099-0.012,0.191-0.035,0.279-0.068c0.087-0.034,0.158-0.084,0.214-0.149c0.055-0.064,0.08-0.15,0.076-0.257    c-0.005-0.106-0.044-0.193-0.116-0.261c-0.073-0.068-0.166-0.122-0.279-0.163s-0.243-0.076-0.388-0.105    c-0.146-0.029-0.293-0.061-0.442-0.095c-0.155-0.033-0.304-0.074-0.446-0.123c-0.143-0.048-0.271-0.113-0.384-0.195    c-0.114-0.082-0.204-0.188-0.272-0.315c-0.067-0.128-0.102-0.286-0.102-0.475c0-0.203,0.05-0.374,0.149-0.512    c0.099-0.138,0.225-0.249,0.377-0.333c0.152-0.085,0.321-0.144,0.507-0.178c0.187-0.034,0.364-0.051,0.533-0.051    c0.193,0,0.378,0.021,0.555,0.062s0.336,0.107,0.479,0.199s0.261,0.212,0.355,0.359c0.094,0.147,0.153,0.325,0.178,0.532h-0.863    c-0.038-0.198-0.129-0.331-0.271-0.398s-0.306-0.102-0.489-0.102c-0.059,0-0.127,0.005-0.207,0.015s-0.154,0.027-0.225,0.055    c-0.07,0.026-0.13,0.064-0.178,0.115s-0.072,0.117-0.072,0.199c0,0.102,0.035,0.185,0.104,0.247    c0.07,0.062,0.162,0.115,0.276,0.156c0.113,0.041,0.242,0.075,0.388,0.104c0.145,0.029,0.295,0.061,0.449,0.095    c0.149,0.033,0.297,0.074,0.442,0.123c0.145,0.048,0.274,0.113,0.388,0.195c0.113,0.083,0.205,0.187,0.275,0.312    c0.07,0.125,0.105,0.28,0.105,0.464c0,0.222-0.051,0.41-0.152,0.565c-0.102,0.154-0.233,0.28-0.396,0.377s-0.342,0.167-0.54,0.21    c-0.198,0.044-0.394,0.065-0.587,0.065c-0.237,0-0.456-0.026-0.656-0.08c-0.2-0.053-0.375-0.134-0.521-0.242    c-0.148-0.109-0.264-0.244-0.349-0.406c-0.084-0.162-0.129-0.354-0.134-0.576H177.964z"/>
		<path d="M181.104,59.373h0.826v1.922h0.015c0.102-0.17,0.252-0.311,0.453-0.425c0.2-0.113,0.424-0.17,0.671-0.17    c0.41,0,0.734,0.106,0.971,0.319c0.237,0.212,0.355,0.531,0.355,0.956v2.574h-0.826v-2.356c-0.01-0.295-0.072-0.509-0.188-0.642    s-0.298-0.199-0.544-0.199c-0.141,0-0.266,0.025-0.377,0.076s-0.205,0.121-0.283,0.21c-0.077,0.09-0.138,0.195-0.181,0.315    c-0.044,0.121-0.065,0.249-0.065,0.385v2.211h-0.826V59.373z"/>
		<path d="M188.405,63.716c0,0.102,0.013,0.174,0.04,0.218c0.026,0.044,0.078,0.065,0.155,0.065c0.024,0,0.054,0,0.087,0    c0.034,0,0.073-0.005,0.116-0.015v0.572c-0.029,0.01-0.066,0.021-0.112,0.033c-0.046,0.012-0.093,0.022-0.142,0.032    c-0.048,0.01-0.097,0.018-0.145,0.022c-0.049,0.004-0.09,0.007-0.123,0.007c-0.17,0-0.31-0.034-0.421-0.102    s-0.184-0.186-0.218-0.355c-0.164,0.16-0.366,0.275-0.605,0.349c-0.239,0.072-0.47,0.108-0.692,0.108    c-0.169,0-0.331-0.023-0.485-0.069s-0.291-0.113-0.409-0.202c-0.119-0.09-0.213-0.203-0.283-0.341s-0.105-0.299-0.105-0.482    c0-0.232,0.043-0.421,0.127-0.565c0.085-0.146,0.196-0.259,0.334-0.341s0.292-0.142,0.464-0.178s0.345-0.064,0.519-0.083    c0.149-0.029,0.292-0.05,0.428-0.062c0.135-0.013,0.255-0.033,0.358-0.062c0.104-0.028,0.187-0.073,0.247-0.134    c0.06-0.061,0.09-0.151,0.09-0.271c0-0.106-0.025-0.193-0.076-0.262c-0.051-0.067-0.113-0.119-0.188-0.155    c-0.074-0.036-0.158-0.061-0.25-0.072c-0.092-0.013-0.179-0.019-0.261-0.019c-0.232,0-0.423,0.049-0.572,0.145    c-0.15,0.098-0.235,0.247-0.254,0.45H185.2c0.015-0.242,0.073-0.442,0.175-0.602c0.101-0.16,0.23-0.288,0.388-0.385    s0.334-0.164,0.532-0.203c0.198-0.038,0.401-0.058,0.609-0.058c0.184,0,0.365,0.02,0.544,0.058    c0.179,0.039,0.339,0.102,0.482,0.188c0.142,0.087,0.257,0.199,0.344,0.337c0.087,0.139,0.131,0.307,0.131,0.504V63.716z     M187.578,62.672c-0.125,0.082-0.28,0.132-0.464,0.148c-0.184,0.018-0.367,0.043-0.551,0.076    c-0.087,0.015-0.172,0.035-0.254,0.062c-0.082,0.027-0.154,0.063-0.217,0.109c-0.063,0.046-0.113,0.106-0.149,0.181    c-0.036,0.075-0.054,0.166-0.054,0.272c0,0.092,0.026,0.169,0.079,0.231c0.054,0.063,0.117,0.112,0.192,0.149    c0.075,0.036,0.157,0.062,0.246,0.076c0.09,0.014,0.171,0.021,0.243,0.021c0.092,0,0.191-0.013,0.298-0.036    c0.105-0.024,0.206-0.065,0.301-0.124c0.094-0.058,0.173-0.131,0.235-0.221s0.094-0.199,0.094-0.33V62.672z"/>
		<path d="M189.296,60.802h0.775v0.725h0.015c0.024-0.102,0.071-0.2,0.142-0.297c0.069-0.097,0.154-0.186,0.254-0.265    c0.099-0.08,0.209-0.144,0.329-0.192c0.121-0.048,0.244-0.072,0.37-0.072c0.097,0,0.163,0.002,0.199,0.007s0.073,0.01,0.112,0.015    v0.798c-0.058-0.01-0.117-0.019-0.178-0.025c-0.061-0.008-0.119-0.011-0.178-0.011c-0.14,0-0.271,0.027-0.395,0.083    s-0.231,0.138-0.323,0.246c-0.092,0.109-0.164,0.243-0.217,0.402c-0.054,0.16-0.08,0.344-0.08,0.552v1.783h-0.826V60.802z"/>
		<path d="M192.363,62.89c0,0.145,0.021,0.285,0.062,0.42c0.041,0.136,0.103,0.254,0.185,0.355s0.187,0.183,0.312,0.243    c0.125,0.061,0.275,0.091,0.449,0.091c0.241,0,0.436-0.052,0.583-0.156c0.147-0.104,0.258-0.26,0.33-0.468h0.783    c-0.043,0.203-0.118,0.385-0.225,0.544s-0.234,0.294-0.385,0.402c-0.149,0.109-0.317,0.191-0.504,0.247    c-0.186,0.055-0.38,0.083-0.583,0.083c-0.295,0-0.556-0.049-0.783-0.146c-0.228-0.096-0.419-0.231-0.576-0.405    s-0.275-0.382-0.355-0.624c-0.08-0.241-0.119-0.507-0.119-0.797c0-0.267,0.042-0.519,0.127-0.758    c0.084-0.239,0.205-0.449,0.362-0.631c0.156-0.182,0.347-0.325,0.568-0.432c0.223-0.106,0.474-0.159,0.755-0.159    c0.294,0,0.559,0.062,0.794,0.185c0.234,0.123,0.429,0.286,0.583,0.489s0.268,0.437,0.337,0.7c0.07,0.264,0.089,0.535,0.055,0.815    H192.363z M194.292,62.346c-0.01-0.131-0.038-0.256-0.084-0.377s-0.108-0.226-0.188-0.315c-0.079-0.089-0.176-0.162-0.29-0.218    c-0.113-0.055-0.24-0.083-0.38-0.083c-0.146,0-0.277,0.025-0.396,0.076s-0.22,0.121-0.305,0.21    c-0.084,0.09-0.152,0.195-0.203,0.315c-0.051,0.121-0.078,0.252-0.083,0.392H194.292z"/>
	</g>
</g>
<rect x="0.25" y="0.25" fill="none" stroke="#000000" stroke-width="0.5" stroke-miterlimit="10" width="140.184" height="77.517"/>
<g>
	<g>
		<g>
			
				<line fill="none" stroke="#000000" stroke-width="0.5" stroke-miterlimit="10" x1="140.434" y1="53.109" x2="135.122" y2="53.109"/>
			<g>
				<polygon points="135.668,51.24 132.43,53.109 135.668,54.979     "/>
			</g>
		</g>
	</g>
</g>
</svg>