<svg xmlns="http://www.w3.org/2000/svg" xmlns:xlink="http://www.w3.org/1999/xlink" version="1.1" id="Layer_1" x="0px" y="0px" width="272.467px" height="125.116px" viewBox="0 0 272.467 125.116" enable-background="new 0 0 272.467 125.116" xml:space="preserve">
<line fill="none" stroke="#CCCCCC" stroke-width="0.5" stroke-linejoin="round" stroke-miterlimit="10" x1="16.832" y1="3.697" x2="271.302" y2="3.697"/>
<line fill="none" stroke="#CCCCCC" stroke-width="0.5" stroke-linejoin="round" stroke-miterlimit="10" x1="16.832" y1="35.162" x2="271.302" y2="35.162"/>
<line fill="none" stroke="#CCCCCC" stroke-width="0.5" stroke-linejoin="round" stroke-miterlimit="10" x1="16.832" y1="66.583" x2="271.302" y2="66.583"/>
<line fill="none" stroke="#CCCCCC" stroke-width="0.5" stroke-linejoin="round" stroke-miterlimit="10" x1="16.832" y1="98.048" x2="271.302" y2="98.048"/>
<line fill="none" stroke="#000000" stroke-width="0.5" stroke-linejoin="round" stroke-miterlimit="10" x1="16.832" y1="113.738" x2="271.302" y2="113.738"/>
<line fill="none" stroke="#000000" stroke-width="0.5" stroke-linejoin="round" stroke-miterlimit="10" x1="235.216" y1="113.738" x2="235.216" y2="116.659"/>
<line fill="none" stroke="#000000" stroke-width="0.5" stroke-linejoin="round" stroke-miterlimit="10" x1="198.832" y1="113.738" x2="198.832" y2="116.659"/>
<line fill="none" stroke="#000000" stroke-width="0.5" stroke-linejoin="round" stroke-miterlimit="10" x1="162.449" y1="113.738" x2="162.449" y2="116.659"/>
<line fill="none" stroke="#000000" stroke-width="0.5" stroke-linejoin="round" stroke-miterlimit="10" x1="126.065" y1="113.738" x2="126.065" y2="116.659"/>
<line fill="none" stroke="#000000" stroke-width="0.5" stroke-linejoin="round" stroke-miterlimit="10" x1="89.598" y1="113.738" x2="89.598" y2="116.659"/>
<line fill="none" stroke="#000000" stroke-width="0.5" stroke-linejoin="round" stroke-miterlimit="10" x1="53.215" y1="113.738" x2="53.215" y2="116.659"/>
<line fill="none" stroke="#000000" stroke-width="0.5" stroke-linejoin="round" stroke-miterlimit="10" x1="16.832" y1="113.738" x2="16.832" y2="116.659"/>
<g>
	
		<polyline fill="none" stroke="#7A9AA8" stroke-width="2.5" stroke-linecap="round" stroke-linejoin="round" stroke-miterlimit="10" points="   16.874,81.553 17.001,80.874 17.086,80.365 17.17,80.492 17.298,80.408 17.595,80.365 17.679,81.383 17.764,81.128 17.892,81.171    17.977,81.383 18.358,81.128 18.485,81.637 18.57,82.358 18.655,82.316 18.994,82.062 19.079,81.68 19.164,80.153 19.291,79.729    19.375,80.408 19.672,80.365 19.757,79.517 19.885,78.966 19.969,85.115 20.054,87.319 20.351,88.125 20.478,87.829 20.563,86.98    20.648,85.963 20.775,85.878 21.157,84.902 21.284,84.69 21.369,84.394 21.454,84.267 21.75,84.69 21.877,85.454 21.962,84.605    22.047,84.69 22.174,84.055 22.471,83.333 22.556,82.655 22.641,82.613 22.768,82.825 22.853,82.74 23.15,82.655 23.277,82.825    23.362,81.171 23.446,81.468 23.574,81.383 23.871,81.468 23.956,80.62 24.04,80.662 24.167,80.28 24.252,78.923 24.549,78.584    24.634,78.075 24.761,78.288 24.846,78.584 24.973,78.457 25.27,77.397 25.354,77.397 25.439,77.397 25.567,76.931 25.948,77.1    26.033,77.948 26.161,78.118 26.245,77.906 26.33,77.312 26.627,77.397 26.754,77.481 26.839,78.16 26.966,78.075 27.051,78.754    27.348,78.923 27.433,78.033 27.56,77.779 27.645,77.058 27.729,77.354 28.026,76.634 28.153,77.609 28.238,77.397 28.323,79.263    28.45,79.305 28.747,78.796 28.832,81.001 28.959,81.128 29.044,82.062 29.129,82.74 29.426,80.492 29.553,79.645 29.638,78.881    29.723,78.754 29.85,79.941 30.146,79.941 30.231,80.917 30.316,81.51 30.443,84.309 30.528,83.758 30.825,84.055 30.952,84.648    31.037,84.352 31.122,82.994 31.249,83.461 31.631,84.86 31.715,84.012 31.843,84.012 31.927,85.496 32.224,86.938 32.309,86.429    32.437,85.539 32.521,84.902 32.648,84.605 32.945,83.885 33.03,82.655 33.115,82.4 33.242,82.062 33.327,81.637 33.624,81.553    33.708,81.553 33.835,81.68 33.92,82.062 34.005,82.062 34.302,82.316 34.429,84.605 34.514,84.139 34.641,84.097 34.726,84.902    35.108,84.521 35.235,82.104 35.32,81.383 35.405,80.917 35.702,82.316 35.829,81.468 35.914,81.595 35.999,82.316 36.125,83.418    36.422,82.994 36.507,82.825 36.634,83.291 36.719,82.485 36.804,81.68 37.101,81.128 37.228,81.553 37.313,81.892 37.397,82.188    37.525,82.104 37.822,80.959 37.907,80.28 37.991,80.323 38.119,80.323 38.203,80.535 38.5,80.535 38.627,80.959 38.712,82.4    38.797,83.037 38.924,82.74 39.221,82.74 39.306,82.188 39.391,81.934 39.518,82.825 39.603,83.122 39.899,83.461 39.984,84.605    40.111,84.224 40.196,84.224 40.324,82.825 40.621,83.291 40.705,83.673 40.79,82.697 40.917,82.655 41.002,82.231 41.384,83.333    41.511,83.037 41.596,83.164 41.681,83.122 41.978,82.104 42.104,83.249 42.189,83.418 42.316,83.037 42.401,82.697 42.698,82.443    42.783,82.231 42.91,82.994 42.995,83.63 43.08,83.164 43.377,83.461 43.504,83.291 43.589,82.697 43.673,82.782 43.801,82.697    44.098,83.037 44.183,82.4 44.31,81.383 44.395,81.001 44.479,80.238 44.776,80.238 44.903,80.323 44.988,79.941 45.073,80.323    45.2,80.492 45.497,80.789 45.582,81.171 45.667,80.535 45.794,80.45 45.878,80.026 46.175,80.026 46.303,80.068 46.387,80.705    46.472,80.662 46.6,80.111 46.896,80.959 46.981,84.012 47.066,84.182 47.193,84.352 47.278,83.8 47.575,84.139 47.66,84.309    47.787,84.394 47.872,84.521 47.957,85.666 48.295,85.03 48.38,85.411 48.465,85.369 48.593,84.818 48.677,84.521 48.974,84.648    49.059,84.309 49.186,83.503 49.356,83.461 49.653,83.545 49.78,83.503 49.865,83.079 49.949,82.57 50.077,82.104 50.374,81.934    50.458,81.765 50.585,81.934 50.67,82.528 50.755,82.358 51.052,81.722 51.179,81.595 51.264,81.85 51.349,82.104 51.476,82.104    51.773,82.57 51.857,81.892 51.942,81.553 52.07,81.637 52.451,81.722 52.579,81.553 52.663,81.34 52.748,81.383 52.875,81.425    53.172,81.553 53.257,81.807 53.342,81.553 53.469,80.832 53.554,81.171 53.851,81.298 53.978,81.977 54.062,78.923 54.147,79.093    54.275,77.524 54.656,76.591 54.741,76.591 54.869,76.846 54.953,77.397 55.25,76.931 55.335,76.549 55.462,77.015 55.547,76.634    55.632,77.27 55.971,77.058 56.056,75.998 56.141,76.422 56.268,76.252 56.353,76.294 56.649,75.701 56.734,74.81 56.861,75.064    56.946,75.107 57.031,74.259 57.328,74.598 57.455,74.556 57.54,74.471 57.625,74.047 57.752,73.665 58.133,75.149 58.261,74.98    58.346,74.429 58.431,73.241 58.727,73.369 58.854,74.768 58.939,74.217 59.024,73.199 59.151,73.411 59.448,73.75 59.533,73.114    59.618,73.199 59.745,74.598 59.83,74.386 60.126,74.726 60.254,74.895 60.339,75.828 60.423,75.107 60.551,74.81 60.848,74.089    60.932,74.386 61.017,74.683 61.145,73.962 61.229,74.089 61.526,73.877 61.611,74.089 61.738,74.217 61.823,73.877 61.95,73.496    62.247,74.089 62.332,74.683 62.417,74.556 62.543,74.683 62.628,76.422 62.925,76.167 63.01,76.422 63.137,76.379 63.222,76.931    63.307,76.846 63.604,77.694 63.731,77.015 63.816,76.083 63.943,76.506 64.325,76.591 64.41,76.209 64.537,76.379 64.622,76.422    64.707,75.531 65.003,75.446 65.13,75.616 65.215,76.04 65.3,76.846 65.427,77.821 65.724,77.228 65.809,77.1 65.936,77.566    66.021,77.228 66.105,78.033 66.402,78.33 66.53,78.669 66.615,78.16 66.699,78.075 66.827,78.754 67.124,80.323 67.208,79.856    67.293,80.323 67.42,80.153 67.505,80.026 67.929,79.729 68.014,80.365 68.099,80.153 68.226,80.577 68.523,81.044 68.607,80.959    68.692,81.171 68.819,80.535 68.904,80.832 69.201,80.662 69.286,80.068 69.413,80.026 69.498,80.492 69.625,80.196 69.922,79.899    70.007,80.153 70.092,80.535 70.219,81.128 70.304,81.595 70.601,81.637 70.686,81.892 70.812,80.705 70.897,79.56 70.982,79.093    71.406,79.771 71.491,79.771 71.618,79.475 71.703,80.28 72,81.256 72.085,81.765 72.212,81.637 72.297,81.934 72.381,82.231    72.678,82.655 72.806,81.765 72.891,79.432 72.975,78.966 73.103,79.475 73.399,80.153 73.484,80.917 73.611,81.722 73.696,81.85    73.781,81.892 74.078,82.188 74.205,83.206 74.29,83.503 74.375,85.327 74.502,87.489 74.799,90.076 74.883,88.719 74.968,91.391    75.095,91.348 75.18,90.033 75.477,88.931 75.604,89.44 75.689,89.186 75.774,90.839 75.901,91.009 76.198,90.882 76.283,90.373    76.368,89.779 76.495,90.415 76.58,89.567 76.876,88.252 76.961,88.041 77.088,87.659 77.173,88.041 77.258,89.44 77.682,89.906    77.767,88.295 77.894,89.228 77.979,90.076 78.276,89.652 78.361,89.101 78.488,88.422 78.573,87.956 78.657,87.829 78.954,88.041    79.082,88.422 79.167,89.737 79.251,90.797 79.378,89.991 79.675,88.889 79.76,88.125 79.887,88.295 79.972,87.786 80.057,88.974    80.354,90.627 80.481,90.033 80.565,88.761 80.65,87.956 80.778,88.295 81.075,87.489 81.159,87.659 81.287,87.659 81.371,88.125    81.456,87.956 81.753,88.974 81.88,88.931 81.965,89.228 82.05,89.27 82.177,88.507 82.474,88.21 82.559,88.719 82.644,88.295    82.771,86.344 82.855,86.514 83.152,87.235 83.279,88.804 83.364,87.277 83.449,83.927 83.576,84.097 83.873,84.182 83.958,83.758    84.043,84.605 84.17,85.072 84.255,83.842 84.552,83.122 84.637,82.782 84.764,83.376 84.849,84.224 84.933,84.012 85.272,84.521    85.357,84.818 85.442,85.666 85.654,85.75 85.951,84.775 86.036,84.69 86.163,83.418 86.248,82.697 86.333,83.037 86.629,82.57    86.757,82.867 86.841,82.952 86.926,83.758 87.054,82.91 87.351,83.503 87.435,83.503 87.562,84.224 87.647,84.309 87.732,84.267    88.029,83.418 88.156,82.273 88.241,81.807 88.326,81.086 88.453,80.917 88.834,81.383 88.919,81.807 89.046,81.383 89.131,81.468    89.556,80.959 89.64,80.789 89.725,79.348 89.852,79.39 90.149,78.881 90.234,78.245 90.319,78.118 90.446,77.609 90.531,78.5    90.913,78.796 91.04,78.415 91.125,77.354 91.251,77.481 91.548,78.372 91.633,78.203 91.718,78.288 91.845,78.923 91.93,78.372    92.227,78.796 92.312,78.415 92.439,77.185 92.524,77.609 92.608,76.931 92.905,77.397 93.033,76.634 93.117,77.863 93.245,76.209    93.33,75.786 93.626,75.446 93.711,75.701 93.838,75.913 93.923,75.616 94.008,76.718 94.432,76.846 94.517,76.846 94.602,77.1    94.729,76.591 95.025,76.422 95.11,76.803 95.238,76.506 95.322,76.337 95.407,76.464 95.704,76.676 95.832,77.694 95.916,76.846    96.001,74.683 96.128,73.92 96.425,74.598 96.51,73.877 96.595,74.132 96.722,74.089 96.807,74.301 97.104,74.471 97.231,75.064    97.315,75.234 97.4,75.446 97.527,75.192 97.824,74.089 97.909,74.81 97.994,75.404 98.121,75.658 98.206,75.743 98.503,75.107    98.588,75.064 98.715,75.404 98.8,75.658 99.224,76.718 99.309,78.033 99.394,76.803 99.521,75.277 99.605,75.828 99.902,76.379    99.987,75.701 100.114,75.786 100.199,76.803 100.284,76.294 100.581,76.422 100.708,75.913 100.792,75.022 100.92,74.726    101.005,74.217 101.302,74.895 101.386,74.598 101.514,74.429 101.598,73.792 101.683,74.556 101.98,74.98 102.107,75.361    102.192,75.913 102.277,76.294 102.404,76.591 102.701,76.846 102.786,77.143 102.913,77.863 102.998,79.348 103.083,79.348    103.379,78.203 103.507,77.948 103.591,77.821 103.676,77.058 103.803,77.354 104.185,77.27 104.27,77.779 104.397,77.906    104.482,79.22 104.779,79.348 104.906,79.39 104.991,78.627 105.076,78.16 105.203,78.075 105.5,78.16 105.584,77.143    105.669,77.863 105.796,77.185 105.881,77.991 106.178,77.228 106.263,76.931 106.39,76.761 106.475,78.033 106.602,78.075    106.899,78.923 106.984,79.22 107.068,78.245 107.196,78.839 107.281,76.718 107.578,76.973 107.662,76.464 107.874,76.379    107.959,77.524 108.256,77.143 108.383,77.439 108.468,78.839 108.595,79.39 108.68,78.754 108.977,79.39 109.062,80.111    109.189,79.729 109.273,77.779 109.358,78.372 109.655,78.669 109.783,79.348 109.867,78.881 109.952,78.288 110.079,77.481    110.376,77.524 110.461,77.228 110.588,78.033 110.673,77.821 110.758,76.125 111.055,75.998 111.182,74.514 111.267,73.581    111.352,74.174 111.479,74.726 111.775,74.726 111.86,74.98 111.945,74.683 112.072,74.217 112.157,74.004 112.454,73.92    112.581,73.962 112.666,74.514 112.751,75.064 112.878,74.344 113.175,74.895 113.26,74.429 113.344,74.217 113.472,74.81    113.557,75.107 113.938,75.277 114.065,75.489 114.15,74.259 114.235,74.259 114.574,74.895 114.659,74.895 114.744,74.895    114.871,76.549 114.956,76.803 115.253,77.143 115.337,77.736 115.465,77.906 115.549,78.796 115.634,78.754 115.931,78.457    116.058,79.178 116.143,79.178 116.228,78.881 116.355,79.22 116.652,78.966 116.737,78.754 116.864,79.008 116.949,79.008    117.034,79.22 117.331,79.348 117.458,79.983 117.542,80.365 117.627,80.323 117.754,80.026 118.051,79.729 118.136,78.923    118.221,78.5 118.348,78.203 118.433,79.008 118.73,79.432 118.857,79.687 118.942,80.068 119.027,90.288 119.154,90.924    119.62,89.44 119.748,88.889 119.833,89.991 120.129,89.779 120.256,89.312 120.341,90.161 120.426,90.373 120.553,90.161    120.85,90.458 120.935,90.712 121.02,91.136 121.147,91.475 121.232,91.942 121.528,90.839 121.613,90.627 121.741,90.712    121.91,90.5 122.25,90.458 122.334,90.415 122.419,90.118 122.546,89.652 122.631,89.27 122.928,89.694 123.013,89.609    123.14,89.694 123.225,89.737 123.31,89.609 123.606,88.974 123.733,88.931 123.818,88.676 123.903,88.931 124.03,88.889    124.327,88.592 124.412,88.295 124.54,88.549 124.624,88.592 124.709,88.295 125.006,88.295 125.218,88.252 125.303,88.21    125.43,88.507 125.727,87.362 125.896,86.896 126.023,85.92 126.108,85.963 126.405,87.107 126.532,87.447 126.617,87.871    126.702,87.616 126.829,87.829 127.126,87.913 127.211,87.701 127.296,88.889 127.423,88.337 127.508,87.744 127.89,87.871    128.017,88.592 128.102,88.931 128.229,88.719 128.525,88.719 128.61,88.676 128.695,88.931 128.822,88.974 128.907,88.507    129.204,88.931 129.289,88.38 129.416,88.295 129.501,88.507 129.585,88.889 129.882,88.676 130.01,87.404 130.095,87.574    130.222,87.362 130.307,87.701 130.688,87.574 130.815,88.168 130.9,88.507 130.984,88.21 131.281,88.041 131.409,87.956    131.493,86.853 131.578,86.684 131.706,86.853 132.003,86.811 132.087,86.175 132.215,86.09 132.3,85.963 132.384,85.454    132.681,85.115 132.809,85.072 132.894,84.945 132.978,84.648 133.105,84.224 133.402,84.521 133.486,84.394 133.571,84.352    133.698,84.902 133.783,85.327 134.08,85.369 134.208,84.775 134.292,84.733 134.377,84.224 134.801,84.563 134.886,84.605    134.971,85.072 135.098,84.818 135.183,84.69 135.479,84.521 135.564,83.97 135.691,83.673 135.776,82.994 135.903,82.528    136.2,84.097 136.285,83.249 136.37,84.097 136.497,84.479 136.582,84.097 136.879,83.885 136.964,83.63 137.091,83.122    137.176,82.655 137.261,83.037 137.558,82.443 137.685,82.697 137.77,83.079 137.896,82.104 137.981,81.892 138.278,81.51    138.363,81.383 138.49,81.425 138.575,81.171 138.66,80.959 138.957,81.001 139.084,80.492 139.169,79.899 139.254,80.111    139.381,79.687 139.678,79.983 139.763,80.153 139.89,80.874 139.975,80.323 140.06,80.068 140.483,79.729 140.568,79.687    140.653,79.687 140.78,80.153 141.077,79.687 141.162,80.026 141.247,80.408 141.374,80.153 141.459,79.856 141.756,79.729    141.883,80.026 141.968,80.577 142.053,80.492 142.18,80.917 142.477,80.492 142.562,80.026 142.646,80.238 142.773,80.705    142.858,80.789 143.155,81.383 143.239,81.213 143.367,80.662 143.452,79.687 143.536,80.365 143.876,79.814 143.961,80.026    144.046,80.068 144.258,79.687 144.555,79.135 144.639,78.796 144.767,78.372 144.852,77.821 144.936,78.627 145.232,77.948    145.36,78.16 145.444,77.821 145.529,77.228 145.657,76.549 145.954,76.803 146.038,76.761 146.166,76.337 146.251,74.217    146.335,73.369 146.632,75.022 146.76,73.877 146.844,74.344 146.929,73.75 147.057,73.496 147.354,73.665 147.438,74.895    147.565,74.598 147.649,74.98 147.734,74.98 148.031,75.446 148.159,74.938 148.243,75.277 148.328,77.058 148.455,77.312    148.753,77.566 148.837,77.312 148.922,77.609 149.049,77.27 149.134,76.888 149.431,77.1 149.558,78.796 149.643,78.203    149.728,78.033 149.854,78.669 150.236,77.948 150.321,77.991 150.448,77.651 150.533,77.481 150.83,77.228 150.915,76.379    151.042,76.506 151.127,76.718 151.212,76.379 151.551,76.294 151.636,75.489 151.721,75.361 151.848,75.531 151.933,76.209    152.229,76.846 152.314,75.955 152.441,76.252 152.526,75.955 152.611,75.998 152.908,76.083 153.035,75.361 153.12,75.955    153.205,76.422 153.332,76.083 153.629,76.083 153.714,76.846 153.841,77.185 153.926,75.786 154.011,75.658 154.308,75.361    154.435,75.913 154.52,75.701 154.604,74.259 154.731,74.047 155.028,74.301 155.113,74.047 155.198,72.817 155.325,72.521    155.41,72.775 155.707,73.369 155.834,72.944 155.919,72.478 156.004,72.266 156.131,69.382 156.428,68.45 156.513,67.898    156.598,68.025 156.725,68.619 156.81,68.025 157.106,68.195 157.19,67.983 157.318,67.05 157.403,65.778 157.53,65.523    157.827,64.167 157.912,64.93 157.997,64.294 158.124,63.955 158.209,63.615 158.506,63.446 158.59,62.979 158.718,63.149    158.887,63.021 159.227,63.276 159.312,64.379 159.396,64.591 159.523,63.446 159.608,62.683 159.905,62.47 159.989,62.852    160.117,64.209 160.201,63.87 160.286,64.04 160.583,63.615 160.711,64.082 160.795,61.58 160.88,62.64 161.007,61.538    161.304,60.986 161.389,60.944 161.601,60.647 161.686,60.944 161.982,61.156 162.109,60.774 162.279,61.368 162.407,60.901    162.703,60.817 162.788,61.41 162.873,61.156 163,61.58 163.085,61.325 163.382,60.901 163.509,59.714 163.594,59.121    163.679,59.714 163.806,59.672 164.188,59.375 164.272,57.976 164.399,59.29 164.484,61.368 164.781,61.453 164.866,60.35    164.993,61.368 165.078,61.071 165.205,61.071 165.502,63.149 165.587,62.64 165.672,62.513 165.799,72.563 165.884,71.715    166.181,71.46 166.266,70.655 166.393,68.916 166.478,68.916 166.562,68.916 166.986,67.729 167.071,68.958 167.198,68.492    167.283,69.382 167.58,69.213 167.665,70.061 167.792,70.019 167.877,69.552 167.962,68.958 168.259,69.467 168.386,68.492    168.471,68.874 168.556,69.51 168.683,69.34 168.979,69.849 169.064,70.442 169.191,70.655 169.276,70.909 169.361,70.782    169.658,70.57 169.785,69.679 169.87,69.764 169.955,70.23 170.082,70.061 170.379,70.442 170.464,71.079 170.549,70.994    170.676,71.248 170.761,71.036 171.058,69.934 171.185,69.17 171.27,69.382 171.354,69.382 171.481,70.146 171.778,72.351    171.863,71.375 171.947,70.315 172.075,71.079 172.16,71.291 172.457,70.655 172.541,69.298 172.669,68.704 172.753,68.45    173.178,68.322 173.263,67.813 173.347,67.347 173.475,66.881 173.56,68.068 173.855,68.153 173.94,68.025 174.068,67.093    174.153,66.457 174.237,62.937 174.534,61.792 174.661,62.386 174.746,62.216 174.874,62.131 174.959,62.258 175.255,61.41    175.34,61.58 175.468,62.343 175.552,63.403 175.637,63.403 175.934,63.403 176.062,64.675 176.146,64.591 176.23,64.251    176.357,64.04 176.739,63.531 176.867,63.531 176.951,62.768 177.036,63.318 177.333,62.937 177.46,63.234 177.545,63.318    177.63,61.58 177.757,61.41 178.054,61.198 178.139,61.41 178.224,62.046 178.351,62.47 178.436,62.089 178.732,61.707    178.859,61.538 178.944,61.071 179.029,60.944 179.156,60.774 179.453,60.901 179.538,61.41 179.623,61.198 179.75,61.495    179.835,60.944 180.132,61.368 180.217,60.647 180.344,60.986 180.429,60.52 180.853,61.113 180.938,61.919 181.022,61.623    181.149,61.58 181.234,61.495 181.531,60.774 181.616,61.368 181.743,60.817 181.828,61.41 181.913,60.647 182.21,60.011    182.337,59.757 182.422,60.562 182.507,61.113 182.634,61.75 182.931,62.131 183.016,62.258 183.143,61.877 183.228,63.149    183.312,56.491 183.609,56.322 183.736,56.279 183.821,57.424 183.906,57.467 184.033,57.509 184.33,57.382 184.415,57.297    184.5,56.916 184.627,57.085 184.712,57.085 185.009,56.279 185.136,56.322 185.221,55.982 185.306,56.194 185.433,55.177    185.729,54.753 185.814,54.753 185.899,54.753 186.026,55.219 186.111,54.159 186.535,53.82 186.62,52.972 186.705,52.505    186.832,51.997 187.129,52.59 187.214,52.505 187.298,52.081 187.426,52.463 187.511,52.675 187.808,53.311 187.892,52.336    188.02,52.717 188.104,52.336 188.188,52.59 188.528,53.947 188.613,54.541 188.697,54.074 188.825,54.244 188.909,53.354    189.206,53.947 189.291,54.583 189.419,54.837 189.503,55.474 189.588,54.625 189.885,54.837 190.012,56.449 190.097,56.025    190.182,56.873 190.309,56.788 190.605,58.357 190.69,59.248 190.817,59.587 190.902,58.612 190.987,56.873 191.284,56.534    191.411,55.05 191.496,56.322 191.581,55.134 191.708,54.668 192.005,54.414 192.09,53.311 192.175,52.675 192.302,53.057    192.387,52.633 192.684,49.58 192.811,50.173 192.896,50.809 192.98,50.47 193.107,50.046 193.404,49.622 193.489,49.707    193.574,49.834 193.701,50.258 193.786,49.707 194.083,49.919 194.168,48.816 194.295,48.689 194.38,48.477 194.507,47.756    194.804,47.459 194.889,46.696 194.974,46.569 195.186,46.738 195.482,48.01 195.567,47.078 195.694,45.806 195.779,46.145    195.864,45.848 196.161,46.229 196.288,43.304 196.373,47.035 196.5,48.477 196.585,50.767 196.882,50.64 196.967,50.258    197.094,49.325 197.179,48.986 197.264,48.689 197.561,47.671 197.688,46.399 197.772,46.484 197.984,45.806 198.281,46.229    198.366,46.526 198.493,46.865 198.663,47.501 198.96,47.883 199.087,48.392 199.172,47.883 199.257,45.721 199.384,46.781    199.681,47.501 199.766,47.205 199.85,47.883 199.978,47.883 200.062,48.307 200.486,48.646 200.571,48.053 200.655,45.848    200.783,45.127 201.08,44.576 201.165,44.873 201.249,44.236 201.377,43.516 201.462,43.77 201.758,41.353 201.843,38.342    201.971,38.851 202.055,38.257 202.183,37.833 202.479,38.978 202.563,38.045 202.648,38.682 202.776,37.791 202.86,37.07    203.242,36.9 203.37,36.052 203.454,34.526 203.539,34.06 203.836,35.501 203.963,35.501 204.048,36.561 204.176,36.519    204.26,37.282 204.557,34.653 204.642,36.477 204.769,36.9 204.854,36.604 204.938,37.409 205.235,35.628 205.362,35.713    205.447,35.119 205.532,34.61 205.659,35.204 205.956,34.313 206.041,33.89 206.168,33.381 206.253,33.338 206.338,32.915    206.635,33.635 206.762,33.805 206.847,35.671 206.932,35.247 207.059,33.932 207.355,32.702 207.44,32.618 207.525,32.278    207.652,32.236 208.034,32.236 208.161,32.787 208.246,31.939 208.331,31.981 208.458,31.854 208.755,32.66 208.84,32.872    208.925,32.066 209.052,31.896 209.137,33.975 209.434,32.999 209.519,32.915 209.646,32.915 209.73,32.702 209.815,33.126    210.154,32.533 210.239,33.042 210.324,35.543 210.451,34.653 210.536,33.932 210.833,32.999 210.918,33.466 211.045,32.151    211.13,32.363 211.215,30.794 211.512,31.642 211.639,31.685 211.724,32.066 211.851,31.43 211.936,30.879 212.232,30.625    212.317,29.904 212.444,30.54 212.529,29.861 212.614,30.54 213.038,31.049 213.123,28.971 213.208,29.141 213.335,28.928    213.632,28.292 213.717,28.038 213.844,26.681 213.929,28.25 214.014,27.656 214.31,28.759 214.438,29.607 214.522,28.462    214.606,28.165 214.734,28.25 215.031,28.589 215.116,28.038 215.2,27.529 215.328,26.681 215.413,26.723 215.709,26.172    215.837,26.384 215.922,27.147 216.006,26.936 216.134,26.299 216.431,27.868 216.515,28.123 216.6,27.402 216.728,28.038    217.108,28.038 217.193,28.547 217.321,29.268 217.405,29.056 217.49,28.08 217.83,27.529 217.914,26.893 217.999,27.105    218.127,26.808 218.211,27.062 218.508,27.02 218.593,29.31 218.72,29.056 218.805,29.564 218.89,31.049 219.187,33.296    219.313,31.6 219.398,26.936 219.483,27.105 219.61,26.257 219.907,26.129 219.992,25.154 220.119,24.9 220.204,26.469    220.289,28.335 220.586,25.917 220.713,27.783 220.798,28.462 220.883,27.402 221.01,26.723 221.307,26.045 221.392,26.469    221.477,27.274 221.604,31.006 221.688,33.72 221.985,36.01 222.112,37.579 222.197,35.077 222.282,33.126 222.409,33.338    222.706,34.313 222.791,36.095 222.876,34.187 223.003,34.398 223.088,35.119 223.47,33.169 223.597,33.763 223.682,33.593    223.809,34.526 224.105,34.907 224.19,33.932 224.275,33.338 224.402,33.763 224.487,35.586 224.784,34.313 224.869,36.349    224.996,36.519 225.081,36.349 225.166,36.349 225.505,38.978 225.59,39.741 225.675,38.639 225.802,37.96 225.887,36.688    226.184,36.9 226.269,36.773 226.396,35.798 226.48,35.84 226.565,34.865 226.862,34.865 226.989,35.247 227.074,39.529    227.159,38.554 227.286,37.876 227.583,38.3 227.668,38.894 227.795,38.3 227.88,34.526 227.964,33.72 228.261,33.423    228.389,33.042 228.474,30.497 228.558,31.261 228.686,31.77 228.982,27.953 229.066,27.529 229.151,27.783 229.279,27.232    229.363,28.462 229.66,29.861 229.788,29.183 229.872,30.285 229.957,32.278 230.085,32.66 230.382,32.066 230.466,32.109    230.551,31.049 230.679,30.794 230.763,30.497 231.06,31.091 231.145,31.388 231.271,31.303 231.484,31.218 231.78,32.236    231.865,31.43 231.95,32.49 232.077,33.72 232.162,32.448 232.459,33.89 232.544,35.035 232.671,36.434 232.756,36.519    232.841,38.469 233.138,39.148 233.265,38.639 233.35,36.561 233.478,38.469 233.562,39.657 233.858,38.554 233.943,39.105    234.07,39.317 234.155,38.554 234.537,38.766 234.664,37.791 234.749,37.664 234.834,35.925 235.258,37.579 235.343,34.95    235.47,36.222 235.555,38.13 235.64,40.674 235.937,40.674 236.063,40.462 236.148,43.346 236.233,43.134 236.36,44.279    236.742,45.381 236.827,46.696 236.954,46.865 237.039,44.194 237.336,44.83 237.463,42.286 237.548,47.841 237.633,48.095    237.76,47.841 238.057,46.569 238.142,50.809 238.227,48.35 238.354,45.339 238.438,46.908 238.735,45.593 238.82,43.431    238.947,43.939 239.032,47.12 239.159,45.678 239.541,43.346 239.626,43.176 239.753,42.201 239.838,44.194 240.135,42.074    240.22,43.134 240.347,43.77 240.432,43.346 240.517,42.159 240.812,42.243 240.94,42.201 241.025,42.159 241.152,41.989    241.237,40.844 241.534,42.837 241.618,43.176 241.746,42.201 241.831,42.243 241.915,40.887 242.212,41.099 242.34,42.286    242.425,42.201 242.509,40.759 242.637,40.59 242.934,40.335 243.019,40.039 243.146,40.081 243.23,40.208 243.611,41.183    243.739,41.099 243.823,41.734 243.908,43.261 244.036,43.261 244.333,43.643 244.417,43.304 244.502,42.371 244.63,42.159    244.714,42.498 245.011,42.074 245.139,41.438 245.223,39.996 245.308,40.632 245.436,40.377 245.731,40.462 245.816,40.674    245.901,41.226 246.028,41.141 246.113,40.759 246.41,41.141 246.495,39.741 246.622,37.791 246.707,37.621 246.792,40.462    247.131,40.335 247.216,41.311 247.301,42.964 247.428,43.176 247.513,41.904 247.81,41.947 247.895,40.208 248.021,40.887    248.106,40.293 248.191,41.226 248.488,41.099 248.615,41.311 248.7,41.141 248.785,41.777 248.912,41.396 249.209,41.777    249.294,42.413 249.421,42.116 249.506,40.759 249.591,40.59 250.015,41.056 250.1,41.014 250.185,40.929 250.312,41.48    250.608,40.208 250.693,39.996 250.778,42.795 250.905,41.904 250.99,42.964 251.287,44.703 251.414,44.491 251.499,45.042    251.584,45.042 251.711,44.703 252.008,43.685 252.093,44.745 252.178,43.855 252.305,43.176 252.39,46.611 252.687,48.901    252.813,47.501 252.898,47.671 252.983,46.908 253.11,47.12 253.492,48.265 253.577,48.307 253.704,49.071 253.789,48.18    254.086,47.417 254.171,46.569 254.298,45.763 254.383,46.018 254.468,46.272 254.807,46.441 254.892,45.806 254.977,45.127    255.104,45.424 255.188,45.975 255.485,47.332 255.569,46.526 255.697,46.018 255.782,46.653 255.866,46.314 256.163,46.229    256.291,46.993 256.376,42.243 256.46,45.042 256.588,46.102 256.885,45.593 256.969,45.551 257.097,45.636 257.182,44.915    257.266,44.873 257.562,43.558 257.69,44.151 257.774,44.024 257.859,43.388 257.987,43.007 258.284,42.625 258.368,42.795    258.453,43.134 258.58,43.304 258.665,43.473 258.962,43.007 259.09,42.795 259.174,42.54 259.259,42.71 259.386,42.074    259.768,42.201 259.853,42.583 259.979,42.159 260.064,43.134 260.361,42.667 260.446,43.346 260.573,44.491 260.658,44.321    260.785,46.569 261.082,47.12 261.167,47.883 261.252,46.865 261.379,45.975 261.464,45.381 261.761,45.551 261.846,45.169    261.973,44.576 262.058,45.254 262.143,44.533 262.439,42.71 262.566,42.583 262.651,40.377 262.778,40.547 262.863,41.692    263.16,41.438 263.245,41.947 263.372,42.498 263.457,42.456 263.542,42.667 263.839,42.031 263.966,39.275 264.051,38.257    264.136,38.766 264.263,38.894 264.56,38.385 264.645,38.427 264.771,35.374 264.856,35.332 264.941,35.755 265.238,35.501    265.365,29.861 265.45,30.625 265.535,30.243 265.662,30.752 265.959,30.2 266.044,30.455 266.129,28.928 266.256,29.056    266.341,28.25 266.638,27.147 266.765,26.893 266.85,27.317 266.935,26.766 267.062,27.487 267.358,26.851 267.443,24.391    267.528,23.416 267.74,22.525 268.037,22.017 268.122,22.652 268.249,23.204 268.334,22.864 268.461,22.483 268.758,21.465    268.843,20.575 268.928,19.557 269.055,18.539 269.14,18.921 269.437,20.023 269.521,21.932 269.648,22.652 269.733,21.762    269.817,22.44 270.114,21.338 270.242,21.592 270.326,22.229 270.454,22.355 270.539,21.677 270.92,21.126 271.048,22.483    271.132,22.525 271.217,22.907  "/>
</g>
<g>
	<g>
		<path d="M10.027,110.974c0.214,0.151,0.38,0.343,0.5,0.577c0.119,0.234,0.2,0.495,0.243,0.783    c0.042,0.288,0.064,0.569,0.064,0.844c0,0.279-0.021,0.562-0.064,0.851c-0.043,0.288-0.124,0.549-0.243,0.783    c-0.119,0.234-0.286,0.425-0.5,0.574s-0.494,0.223-0.84,0.223c-0.342,0-0.621-0.075-0.837-0.223s-0.384-0.339-0.503-0.574    c-0.119-0.234-0.2-0.495-0.243-0.783c-0.042-0.288-0.064-0.569-0.064-0.844c0-0.279,0.021-0.562,0.064-0.851    c0.043-0.288,0.124-0.549,0.243-0.783c0.119-0.234,0.287-0.426,0.503-0.577c0.216-0.15,0.495-0.226,0.837-0.226    C9.533,110.748,9.813,110.823,10.027,110.974z M8.539,111.314c-0.162,0.14-0.285,0.313-0.368,0.52    c-0.083,0.207-0.139,0.432-0.166,0.675c-0.027,0.243-0.041,0.466-0.041,0.668c0,0.207,0.014,0.431,0.041,0.671    c0.027,0.241,0.082,0.466,0.166,0.675c0.083,0.209,0.206,0.384,0.368,0.523c0.162,0.14,0.378,0.209,0.648,0.209    s0.486-0.07,0.648-0.209c0.162-0.139,0.285-0.314,0.368-0.523c0.083-0.209,0.138-0.434,0.165-0.675    c0.027-0.241,0.041-0.464,0.041-0.671c0-0.203-0.013-0.425-0.041-0.668c-0.027-0.243-0.082-0.468-0.165-0.675    c-0.083-0.207-0.206-0.38-0.368-0.52c-0.162-0.139-0.378-0.209-0.648-0.209S8.701,111.175,8.539,111.314z"/>
	</g>
</g>
<g>
	<g>
		<path d="M4.715,95.945c0.15-0.016,0.281-0.053,0.392-0.111c0.11-0.059,0.202-0.147,0.276-0.267s0.127-0.287,0.159-0.503h0.344    v4.725H5.46v-3.51H4.212v-0.304C4.396,95.971,4.564,95.961,4.715,95.945z"/>
		<path d="M10.027,95.25c0.214,0.151,0.38,0.343,0.5,0.577c0.119,0.234,0.2,0.495,0.243,0.783c0.042,0.288,0.064,0.569,0.064,0.844    c0,0.279-0.021,0.562-0.064,0.851c-0.043,0.288-0.124,0.549-0.243,0.783c-0.119,0.234-0.286,0.425-0.5,0.574    s-0.494,0.223-0.84,0.223c-0.342,0-0.621-0.075-0.837-0.223s-0.384-0.339-0.503-0.574c-0.119-0.234-0.2-0.495-0.243-0.783    c-0.042-0.288-0.064-0.569-0.064-0.844c0-0.279,0.021-0.562,0.064-0.851c0.043-0.288,0.124-0.549,0.243-0.783    c0.119-0.234,0.287-0.426,0.503-0.577c0.216-0.15,0.495-0.226,0.837-0.226C9.533,95.024,9.813,95.1,10.027,95.25z M8.539,95.591    c-0.162,0.14-0.285,0.313-0.368,0.52c-0.083,0.207-0.139,0.432-0.166,0.675c-0.027,0.243-0.041,0.466-0.041,0.668    c0,0.207,0.014,0.431,0.041,0.671c0.027,0.241,0.082,0.466,0.166,0.675c0.083,0.209,0.206,0.384,0.368,0.523    c0.162,0.14,0.378,0.209,0.648,0.209s0.486-0.07,0.648-0.209c0.162-0.139,0.285-0.314,0.368-0.523    c0.083-0.209,0.138-0.434,0.165-0.675c0.027-0.241,0.041-0.464,0.041-0.671c0-0.203-0.013-0.425-0.041-0.668    c-0.027-0.243-0.082-0.468-0.165-0.675c-0.083-0.207-0.206-0.38-0.368-0.52c-0.162-0.139-0.378-0.209-0.648-0.209    S8.701,95.452,8.539,95.591z"/>
	</g>
</g>
<g>
	<g>
		<path d="M4.269,67.35c0.052,0.153,0.128,0.283,0.229,0.392c0.102,0.108,0.228,0.192,0.378,0.253    c0.15,0.061,0.32,0.091,0.509,0.091c0.158,0,0.308-0.022,0.453-0.068c0.144-0.045,0.272-0.112,0.384-0.202    c0.113-0.09,0.203-0.2,0.27-0.331c0.068-0.13,0.102-0.279,0.102-0.445c0-0.171-0.029-0.318-0.088-0.442    c-0.059-0.124-0.14-0.227-0.243-0.31c-0.104-0.083-0.224-0.146-0.361-0.186S5.618,66.04,5.46,66.04H5.103v-0.358H5.46    c0.108,0,0.22-0.017,0.334-0.05s0.218-0.085,0.311-0.155c0.092-0.07,0.167-0.159,0.226-0.267c0.058-0.108,0.087-0.236,0.087-0.385    c0-0.158-0.027-0.292-0.081-0.402c-0.054-0.11-0.128-0.203-0.223-0.277c-0.094-0.074-0.204-0.128-0.327-0.162    c-0.124-0.034-0.258-0.051-0.402-0.051c-0.175,0-0.331,0.029-0.466,0.088c-0.135,0.059-0.249,0.141-0.341,0.246    c-0.092,0.106-0.161,0.232-0.206,0.378c-0.045,0.146-0.065,0.307-0.061,0.483H3.888c0-0.225,0.035-0.432,0.105-0.621    c0.069-0.189,0.168-0.352,0.297-0.489s0.285-0.245,0.469-0.324c0.184-0.079,0.391-0.118,0.621-0.118    c0.185,0,0.365,0.024,0.54,0.071c0.176,0.047,0.332,0.12,0.469,0.216s0.248,0.22,0.331,0.371c0.083,0.151,0.125,0.332,0.125,0.543    c0,0.256-0.068,0.479-0.206,0.668c-0.138,0.189-0.334,0.315-0.591,0.378v0.013c0.311,0.05,0.55,0.179,0.719,0.388    c0.169,0.209,0.253,0.469,0.253,0.78c0,0.234-0.044,0.44-0.132,0.618s-0.206,0.327-0.354,0.449    c-0.148,0.122-0.322,0.212-0.52,0.273c-0.198,0.061-0.405,0.091-0.621,0.091c-0.243,0-0.467-0.036-0.671-0.108    c-0.205-0.072-0.38-0.175-0.527-0.311c-0.146-0.135-0.256-0.301-0.331-0.5C3.79,67.32,3.762,67.093,3.78,66.836h0.425    C4.196,67.025,4.217,67.197,4.269,67.35z"/>
		<path d="M10.027,63.802c0.214,0.151,0.38,0.343,0.5,0.577c0.119,0.234,0.2,0.495,0.243,0.783c0.042,0.288,0.064,0.569,0.064,0.844    c0,0.279-0.021,0.562-0.064,0.851c-0.043,0.288-0.124,0.549-0.243,0.783c-0.119,0.234-0.286,0.425-0.5,0.574    s-0.494,0.223-0.84,0.223c-0.342,0-0.621-0.075-0.837-0.223s-0.384-0.339-0.503-0.574c-0.119-0.234-0.2-0.495-0.243-0.783    c-0.042-0.288-0.064-0.569-0.064-0.844c0-0.279,0.021-0.562,0.064-0.851c0.043-0.288,0.124-0.549,0.243-0.783    c0.119-0.234,0.287-0.426,0.503-0.577c0.216-0.15,0.495-0.226,0.837-0.226C9.533,63.576,9.813,63.652,10.027,63.802z     M8.539,64.143c-0.162,0.14-0.285,0.313-0.368,0.52c-0.083,0.207-0.139,0.432-0.166,0.675c-0.027,0.243-0.041,0.466-0.041,0.668    c0,0.207,0.014,0.431,0.041,0.671c0.027,0.241,0.082,0.466,0.166,0.675c0.083,0.209,0.206,0.384,0.368,0.523    c0.162,0.14,0.378,0.209,0.648,0.209s0.486-0.07,0.648-0.209c0.162-0.139,0.285-0.314,0.368-0.523    c0.083-0.209,0.138-0.434,0.165-0.675c0.027-0.241,0.041-0.464,0.041-0.671c0-0.203-0.013-0.425-0.041-0.668    c-0.027-0.243-0.082-0.468-0.165-0.675c-0.083-0.207-0.206-0.38-0.368-0.52c-0.162-0.139-0.378-0.209-0.648-0.209    S8.701,64.004,8.539,64.143z"/>
	</g>
</g>
<g>
	<g>
		<path d="M4.323,35.991c0.061,0.135,0.143,0.25,0.247,0.348c0.103,0.097,0.225,0.171,0.364,0.223s0.291,0.078,0.452,0.078    c0.185,0,0.349-0.035,0.493-0.105c0.144-0.069,0.268-0.164,0.372-0.283s0.182-0.257,0.236-0.412    c0.054-0.155,0.081-0.318,0.081-0.49c0-0.175-0.031-0.337-0.091-0.486c-0.061-0.148-0.144-0.278-0.25-0.388    c-0.105-0.11-0.233-0.197-0.381-0.26s-0.311-0.095-0.486-0.095c-0.216,0-0.417,0.048-0.601,0.146    c-0.185,0.097-0.335,0.235-0.453,0.415H3.942l0.459-2.45h2.362v0.391H4.698l-0.304,1.566l0.014,0.013    c0.117-0.139,0.265-0.248,0.445-0.324c0.18-0.077,0.365-0.115,0.554-0.115c0.243,0,0.462,0.041,0.658,0.121    c0.196,0.081,0.362,0.194,0.5,0.338c0.137,0.144,0.243,0.316,0.317,0.516s0.111,0.42,0.111,0.658c0,0.229-0.042,0.442-0.128,0.638    c-0.085,0.196-0.203,0.365-0.351,0.506c-0.148,0.142-0.323,0.252-0.523,0.331C5.79,36.95,5.578,36.99,5.353,36.99    c-0.22,0-0.424-0.033-0.611-0.098c-0.187-0.065-0.349-0.16-0.486-0.284c-0.137-0.124-0.247-0.275-0.328-0.456    c-0.081-0.18-0.124-0.382-0.128-0.607h0.425C4.23,35.707,4.263,35.855,4.323,35.991z"/>
		<path d="M10.027,32.355c0.214,0.151,0.38,0.343,0.5,0.577c0.119,0.234,0.2,0.495,0.243,0.783c0.042,0.288,0.064,0.569,0.064,0.844    c0,0.279-0.021,0.562-0.064,0.851c-0.043,0.288-0.124,0.549-0.243,0.783c-0.119,0.234-0.286,0.425-0.5,0.574    s-0.494,0.223-0.84,0.223c-0.342,0-0.621-0.075-0.837-0.223s-0.384-0.339-0.503-0.574c-0.119-0.234-0.2-0.495-0.243-0.783    c-0.042-0.288-0.064-0.569-0.064-0.844c0-0.279,0.021-0.562,0.064-0.851c0.043-0.288,0.124-0.549,0.243-0.783    c0.119-0.234,0.287-0.426,0.503-0.577c0.216-0.15,0.495-0.226,0.837-0.226C9.533,32.129,9.813,32.205,10.027,32.355z     M8.539,32.696c-0.162,0.14-0.285,0.313-0.368,0.52c-0.083,0.207-0.139,0.432-0.166,0.675c-0.027,0.243-0.041,0.466-0.041,0.668    c0,0.207,0.014,0.431,0.041,0.671c0.027,0.241,0.082,0.466,0.166,0.675c0.083,0.209,0.206,0.384,0.368,0.523    c0.162,0.14,0.378,0.209,0.648,0.209s0.486-0.07,0.648-0.209c0.162-0.139,0.285-0.314,0.368-0.523    c0.083-0.209,0.138-0.434,0.165-0.675c0.027-0.241,0.041-0.464,0.041-0.671c0-0.203-0.013-0.425-0.041-0.668    c-0.027-0.243-0.082-0.468-0.165-0.675c-0.083-0.207-0.206-0.38-0.368-0.52c-0.162-0.139-0.378-0.209-0.648-0.209    S8.701,32.557,8.539,32.696z"/>
	</g>
</g>
<g>
	<g>
		<path d="M0.719,4.816C0.91,5.025,1.184,5.15,1.539,5.191V3.193C1.35,3.152,1.169,3.104,0.996,3.048    C0.822,2.991,0.671,2.913,0.543,2.812C0.415,2.71,0.312,2.582,0.236,2.427C0.16,2.271,0.122,2.077,0.122,1.843    c0-0.203,0.037-0.385,0.111-0.547s0.175-0.3,0.304-0.415s0.279-0.203,0.452-0.263s0.356-0.091,0.55-0.091V0h0.263v0.526    c0.198,0,0.383,0.035,0.557,0.105S2.685,0.8,2.818,0.928C2.951,1.056,3.054,1.21,3.128,1.391c0.074,0.18,0.109,0.38,0.105,0.601    H2.808C2.803,1.654,2.709,1.385,2.524,1.185s-0.425-0.3-0.722-0.3v1.944c0.193,0.041,0.383,0.09,0.57,0.148    c0.187,0.059,0.353,0.14,0.5,0.243c0.146,0.104,0.264,0.233,0.354,0.388c0.09,0.155,0.135,0.352,0.135,0.591    c0,0.22-0.044,0.415-0.131,0.583c-0.088,0.169-0.205,0.31-0.351,0.422c-0.146,0.113-0.313,0.197-0.5,0.253    C2.192,5.514,2,5.542,1.802,5.542v0.574H1.539V5.535c-0.527-0.05-0.91-0.205-1.151-0.466C0.147,4.808,0.018,4.421,0,3.908h0.425    C0.43,4.304,0.527,4.607,0.719,4.816z M1.158,0.941C1.038,0.98,0.933,1.04,0.84,1.121S0.676,1.306,0.625,1.435    C0.573,1.562,0.547,1.714,0.547,1.89c0,0.157,0.028,0.286,0.084,0.385c0.057,0.099,0.131,0.18,0.223,0.243    C0.946,2.581,1.052,2.63,1.171,2.667c0.119,0.036,0.242,0.07,0.368,0.101V0.884C1.404,0.884,1.277,0.903,1.158,0.941z     M2.221,5.137c0.135-0.036,0.255-0.094,0.361-0.175C2.688,4.88,2.773,4.778,2.838,4.654C2.903,4.53,2.936,4.381,2.936,4.205    c0-0.162-0.035-0.297-0.104-0.405S2.673,3.604,2.565,3.534S2.335,3.407,2.201,3.361C2.065,3.316,1.933,3.278,1.802,3.247v1.944    C1.946,5.191,2.086,5.173,2.221,5.137z"/>
		<path d="M6.939,0.783v0.391C6.791,1.328,6.613,1.533,6.406,1.792S5.997,2.359,5.801,2.717C5.606,3.075,5.435,3.482,5.289,3.938    c-0.146,0.457-0.233,0.96-0.26,1.509H4.57c0.027-0.4,0.082-0.778,0.165-1.134C4.818,3.958,4.938,3.61,5.093,3.271    S5.441,2.59,5.673,2.248c0.231-0.342,0.512-0.7,0.84-1.073H3.901V0.783H6.939z"/>
		<path d="M10.027,0.908c0.214,0.151,0.38,0.343,0.5,0.577c0.119,0.234,0.2,0.495,0.243,0.783c0.042,0.288,0.064,0.569,0.064,0.844    c0,0.279-0.021,0.562-0.064,0.851c-0.043,0.288-0.124,0.549-0.243,0.783c-0.119,0.234-0.286,0.425-0.5,0.574    s-0.494,0.223-0.84,0.223c-0.342,0-0.621-0.075-0.837-0.223S7.966,4.979,7.847,4.745c-0.119-0.234-0.2-0.495-0.243-0.783    C7.561,3.674,7.54,3.393,7.54,3.119c0-0.279,0.021-0.562,0.064-0.851C7.646,1.98,7.728,1.719,7.847,1.485    C7.966,1.251,8.134,1.059,8.35,0.908c0.216-0.15,0.495-0.226,0.837-0.226C9.533,0.682,9.813,0.757,10.027,0.908z M8.539,1.249    c-0.162,0.14-0.285,0.313-0.368,0.52C8.087,1.976,8.032,2.201,8.005,2.443C7.979,2.687,7.965,2.909,7.965,3.112    c0,0.207,0.014,0.431,0.041,0.671c0.027,0.241,0.082,0.466,0.166,0.675c0.083,0.209,0.206,0.384,0.368,0.523    c0.162,0.14,0.378,0.209,0.648,0.209s0.486-0.07,0.648-0.209c0.162-0.139,0.285-0.314,0.368-0.523    c0.083-0.209,0.138-0.434,0.165-0.675c0.027-0.241,0.041-0.464,0.041-0.671c0-0.203-0.013-0.425-0.041-0.668    c-0.027-0.243-0.082-0.468-0.165-0.675c-0.083-0.207-0.206-0.38-0.368-0.52C9.672,1.109,9.457,1.04,9.187,1.04    S8.701,1.109,8.539,1.249z"/>
	</g>
</g>
<g>
	<g>
		<path d="M9.569,125.021c0.004-0.234,0.045-0.441,0.121-0.621c0.077-0.18,0.178-0.342,0.304-0.486    c0.125-0.144,0.268-0.276,0.425-0.395c0.158-0.119,0.32-0.234,0.486-0.344s0.332-0.223,0.496-0.337    c0.164-0.115,0.312-0.237,0.442-0.368c0.131-0.131,0.229-0.265,0.294-0.402c0.065-0.137,0.098-0.3,0.098-0.489    c0-0.153-0.028-0.289-0.084-0.409c-0.056-0.119-0.133-0.22-0.229-0.304c-0.097-0.083-0.209-0.146-0.337-0.189    c-0.128-0.042-0.264-0.064-0.408-0.064c-0.194,0-0.359,0.036-0.496,0.108c-0.138,0.072-0.249,0.169-0.334,0.291    c-0.085,0.121-0.147,0.261-0.186,0.418c-0.038,0.157-0.055,0.324-0.05,0.5H9.684c-0.005-0.243,0.023-0.467,0.084-0.672    c0.061-0.205,0.154-0.381,0.28-0.53s0.285-0.264,0.476-0.348c0.191-0.083,0.415-0.125,0.671-0.125    c0.207,0,0.399,0.028,0.577,0.084s0.333,0.14,0.466,0.25c0.133,0.11,0.236,0.249,0.311,0.415s0.111,0.36,0.111,0.581    c0,0.198-0.033,0.378-0.098,0.54c-0.065,0.162-0.153,0.31-0.264,0.445c-0.11,0.135-0.236,0.26-0.378,0.375    c-0.142,0.115-0.291,0.222-0.449,0.321c-0.112,0.077-0.245,0.161-0.398,0.253c-0.153,0.092-0.3,0.195-0.442,0.307    c-0.142,0.113-0.267,0.235-0.375,0.368s-0.176,0.278-0.203,0.435h2.626v0.392H9.569z"/>
		<path d="M15.795,120.482c0.214,0.151,0.38,0.343,0.5,0.577c0.119,0.234,0.2,0.495,0.243,0.783    c0.042,0.288,0.064,0.569,0.064,0.844c0,0.279-0.021,0.562-0.064,0.851c-0.043,0.288-0.124,0.549-0.243,0.783    c-0.119,0.234-0.286,0.425-0.5,0.574s-0.494,0.223-0.84,0.223c-0.342,0-0.621-0.075-0.837-0.223s-0.384-0.339-0.503-0.574    c-0.119-0.234-0.2-0.495-0.243-0.783c-0.042-0.288-0.064-0.569-0.064-0.844c0-0.279,0.021-0.562,0.064-0.851    c0.043-0.288,0.124-0.549,0.243-0.783c0.119-0.234,0.287-0.426,0.503-0.577c0.216-0.15,0.495-0.226,0.837-0.226    C15.302,120.256,15.582,120.332,15.795,120.482z M14.307,120.823c-0.162,0.14-0.285,0.313-0.368,0.52    c-0.083,0.207-0.139,0.432-0.166,0.675c-0.027,0.243-0.041,0.466-0.041,0.668c0,0.207,0.014,0.431,0.041,0.671    c0.027,0.241,0.082,0.466,0.166,0.675c0.083,0.209,0.206,0.384,0.368,0.523c0.162,0.14,0.378,0.209,0.648,0.209    s0.486-0.07,0.648-0.209c0.162-0.139,0.285-0.314,0.368-0.523c0.083-0.209,0.138-0.434,0.165-0.675    c0.027-0.241,0.041-0.464,0.041-0.671c0-0.203-0.013-0.425-0.041-0.668c-0.027-0.243-0.082-0.468-0.165-0.675    c-0.083-0.207-0.206-0.38-0.368-0.52c-0.162-0.139-0.378-0.209-0.648-0.209S14.469,120.684,14.307,120.823z"/>
		<path d="M17.989,121.177c0.15-0.016,0.281-0.053,0.392-0.111c0.11-0.059,0.202-0.147,0.276-0.267s0.127-0.287,0.159-0.503h0.344    v4.725h-0.425v-3.51h-1.249v-0.304C17.671,121.203,17.838,121.193,17.989,121.177z"/>
		<path d="M23.301,120.482c0.214,0.151,0.38,0.343,0.5,0.577c0.119,0.234,0.2,0.495,0.243,0.783    c0.042,0.288,0.064,0.569,0.064,0.844c0,0.279-0.021,0.562-0.064,0.851c-0.043,0.288-0.124,0.549-0.243,0.783    c-0.119,0.234-0.286,0.425-0.5,0.574s-0.494,0.223-0.84,0.223c-0.342,0-0.621-0.075-0.837-0.223s-0.384-0.339-0.503-0.574    c-0.119-0.234-0.2-0.495-0.243-0.783c-0.042-0.288-0.064-0.569-0.064-0.844c0-0.279,0.021-0.562,0.064-0.851    c0.043-0.288,0.124-0.549,0.243-0.783c0.119-0.234,0.287-0.426,0.503-0.577c0.216-0.15,0.495-0.226,0.837-0.226    C22.808,120.256,23.087,120.332,23.301,120.482z M21.813,120.823c-0.162,0.14-0.285,0.313-0.368,0.52    c-0.083,0.207-0.139,0.432-0.166,0.675c-0.027,0.243-0.041,0.466-0.041,0.668c0,0.207,0.014,0.431,0.041,0.671    c0.027,0.241,0.082,0.466,0.166,0.675c0.083,0.209,0.206,0.384,0.368,0.523c0.162,0.14,0.378,0.209,0.648,0.209    s0.486-0.07,0.648-0.209c0.162-0.139,0.285-0.314,0.368-0.523c0.083-0.209,0.138-0.434,0.165-0.675    c0.027-0.241,0.041-0.464,0.041-0.671c0-0.203-0.013-0.425-0.041-0.668c-0.027-0.243-0.082-0.468-0.165-0.675    c-0.083-0.207-0.206-0.38-0.368-0.52c-0.162-0.139-0.378-0.209-0.648-0.209S21.975,120.684,21.813,120.823z"/>
	</g>
</g>
<g>
	<g>
		<path d="M45.966,125.021c0.004-0.234,0.045-0.441,0.121-0.621c0.077-0.18,0.178-0.342,0.304-0.486    c0.125-0.144,0.268-0.276,0.425-0.395c0.158-0.119,0.32-0.234,0.486-0.344s0.332-0.223,0.496-0.337    c0.164-0.115,0.312-0.237,0.442-0.368c0.131-0.131,0.229-0.265,0.294-0.402c0.065-0.137,0.098-0.3,0.098-0.489    c0-0.153-0.028-0.289-0.084-0.409c-0.056-0.119-0.133-0.22-0.229-0.304c-0.097-0.083-0.209-0.146-0.337-0.189    c-0.128-0.042-0.264-0.064-0.408-0.064c-0.194,0-0.359,0.036-0.496,0.108c-0.138,0.072-0.249,0.169-0.334,0.291    c-0.085,0.121-0.147,0.261-0.186,0.418c-0.038,0.157-0.055,0.324-0.05,0.5h-0.425c-0.005-0.243,0.023-0.467,0.084-0.672    c0.061-0.205,0.154-0.381,0.28-0.53s0.285-0.264,0.476-0.348c0.191-0.083,0.415-0.125,0.671-0.125    c0.207,0,0.399,0.028,0.577,0.084s0.333,0.14,0.466,0.25c0.133,0.11,0.236,0.249,0.311,0.415s0.111,0.36,0.111,0.581    c0,0.198-0.033,0.378-0.098,0.54c-0.065,0.162-0.153,0.31-0.264,0.445c-0.11,0.135-0.236,0.26-0.378,0.375    c-0.142,0.115-0.291,0.222-0.449,0.321c-0.112,0.077-0.245,0.161-0.398,0.253c-0.153,0.092-0.3,0.195-0.442,0.307    c-0.142,0.113-0.267,0.235-0.375,0.368s-0.176,0.278-0.203,0.435h2.626v0.392H45.966z"/>
		<path d="M52.192,120.482c0.214,0.151,0.38,0.343,0.5,0.577c0.119,0.234,0.2,0.495,0.243,0.783    c0.042,0.288,0.064,0.569,0.064,0.844c0,0.279-0.021,0.562-0.064,0.851c-0.043,0.288-0.124,0.549-0.243,0.783    c-0.119,0.234-0.286,0.425-0.5,0.574s-0.494,0.223-0.84,0.223c-0.342,0-0.621-0.075-0.837-0.223s-0.384-0.339-0.503-0.574    c-0.119-0.234-0.2-0.495-0.243-0.783c-0.042-0.288-0.064-0.569-0.064-0.844c0-0.279,0.021-0.562,0.064-0.851    c0.043-0.288,0.124-0.549,0.243-0.783c0.119-0.234,0.287-0.426,0.503-0.577c0.216-0.15,0.495-0.226,0.837-0.226    C51.699,120.256,51.979,120.332,52.192,120.482z M50.704,120.823c-0.162,0.14-0.285,0.313-0.368,0.52    c-0.083,0.207-0.139,0.432-0.166,0.675c-0.027,0.243-0.041,0.466-0.041,0.668c0,0.207,0.014,0.431,0.041,0.671    c0.027,0.241,0.082,0.466,0.166,0.675c0.083,0.209,0.206,0.384,0.368,0.523c0.162,0.14,0.378,0.209,0.648,0.209    s0.486-0.07,0.648-0.209c0.162-0.139,0.285-0.314,0.368-0.523c0.083-0.209,0.138-0.434,0.165-0.675    c0.027-0.241,0.041-0.464,0.041-0.671c0-0.203-0.013-0.425-0.041-0.668c-0.027-0.243-0.082-0.468-0.165-0.675    c-0.083-0.207-0.206-0.38-0.368-0.52c-0.162-0.139-0.378-0.209-0.648-0.209S50.866,120.684,50.704,120.823z"/>
		<path d="M54.386,121.177c0.15-0.016,0.281-0.053,0.392-0.111c0.11-0.059,0.202-0.147,0.276-0.267s0.127-0.287,0.159-0.503h0.344    v4.725h-0.425v-3.51h-1.249v-0.304C54.068,121.203,54.235,121.193,54.386,121.177z"/>
		<path d="M58.139,121.177c0.15-0.016,0.281-0.053,0.392-0.111c0.11-0.059,0.202-0.147,0.276-0.267s0.127-0.287,0.159-0.503h0.344    v4.725h-0.425v-3.51h-1.249v-0.304C57.821,121.203,57.988,121.193,58.139,121.177z"/>
	</g>
</g>
<g>
	<g>
		<path d="M82.363,125.021c0.004-0.234,0.045-0.441,0.121-0.621c0.077-0.18,0.178-0.342,0.304-0.486    c0.125-0.144,0.268-0.276,0.425-0.395c0.158-0.119,0.32-0.234,0.486-0.344s0.332-0.223,0.496-0.337    c0.164-0.115,0.312-0.237,0.442-0.368c0.131-0.131,0.229-0.265,0.294-0.402c0.065-0.137,0.098-0.3,0.098-0.489    c0-0.153-0.028-0.289-0.084-0.409c-0.056-0.119-0.133-0.22-0.229-0.304c-0.097-0.083-0.209-0.146-0.337-0.189    c-0.128-0.042-0.264-0.064-0.408-0.064c-0.194,0-0.359,0.036-0.496,0.108c-0.138,0.072-0.249,0.169-0.334,0.291    c-0.085,0.121-0.147,0.261-0.186,0.418c-0.038,0.157-0.055,0.324-0.05,0.5h-0.425c-0.005-0.243,0.023-0.467,0.084-0.672    c0.061-0.205,0.154-0.381,0.28-0.53s0.285-0.264,0.476-0.348c0.191-0.083,0.415-0.125,0.671-0.125    c0.207,0,0.399,0.028,0.577,0.084s0.333,0.14,0.466,0.25c0.133,0.11,0.236,0.249,0.311,0.415s0.111,0.36,0.111,0.581    c0,0.198-0.033,0.378-0.098,0.54c-0.065,0.162-0.153,0.31-0.264,0.445c-0.11,0.135-0.236,0.26-0.378,0.375    c-0.142,0.115-0.291,0.222-0.449,0.321c-0.112,0.077-0.245,0.161-0.398,0.253c-0.153,0.092-0.3,0.195-0.442,0.307    c-0.142,0.113-0.267,0.235-0.375,0.368s-0.176,0.278-0.203,0.435h2.626v0.392H82.363z"/>
		<path d="M88.59,120.482c0.214,0.151,0.38,0.343,0.5,0.577c0.119,0.234,0.2,0.495,0.243,0.783c0.042,0.288,0.064,0.569,0.064,0.844    c0,0.279-0.021,0.562-0.064,0.851c-0.043,0.288-0.124,0.549-0.243,0.783c-0.119,0.234-0.286,0.425-0.5,0.574    s-0.494,0.223-0.84,0.223c-0.342,0-0.621-0.075-0.837-0.223s-0.384-0.339-0.503-0.574c-0.119-0.234-0.2-0.495-0.243-0.783    c-0.042-0.288-0.064-0.569-0.064-0.844c0-0.279,0.021-0.562,0.064-0.851c0.043-0.288,0.124-0.549,0.243-0.783    c0.119-0.234,0.287-0.426,0.503-0.577c0.216-0.15,0.495-0.226,0.837-0.226C88.096,120.256,88.376,120.332,88.59,120.482z     M87.102,120.823c-0.162,0.14-0.285,0.313-0.368,0.52c-0.083,0.207-0.139,0.432-0.166,0.675c-0.027,0.243-0.041,0.466-0.041,0.668    c0,0.207,0.014,0.431,0.041,0.671c0.027,0.241,0.082,0.466,0.166,0.675c0.083,0.209,0.206,0.384,0.368,0.523    c0.162,0.14,0.378,0.209,0.648,0.209s0.486-0.07,0.648-0.209c0.162-0.139,0.285-0.314,0.368-0.523    c0.083-0.209,0.138-0.434,0.165-0.675c0.027-0.241,0.041-0.464,0.041-0.671c0-0.203-0.013-0.425-0.041-0.668    c-0.027-0.243-0.082-0.468-0.165-0.675c-0.083-0.207-0.206-0.38-0.368-0.52c-0.162-0.139-0.378-0.209-0.648-0.209    S87.264,120.684,87.102,120.823z"/>
		<path d="M90.784,121.177c0.15-0.016,0.281-0.053,0.392-0.111c0.11-0.059,0.202-0.147,0.276-0.267s0.127-0.287,0.159-0.503h0.344    v4.725h-0.425v-3.51h-1.249v-0.304C90.465,121.203,90.633,121.193,90.784,121.177z"/>
		<path d="M93.622,125.021c0.004-0.234,0.045-0.441,0.121-0.621c0.077-0.18,0.178-0.342,0.304-0.486    c0.125-0.144,0.268-0.276,0.425-0.395c0.158-0.119,0.32-0.234,0.486-0.344s0.332-0.223,0.496-0.337    c0.164-0.115,0.312-0.237,0.442-0.368c0.131-0.131,0.229-0.265,0.294-0.402c0.065-0.137,0.098-0.3,0.098-0.489    c0-0.153-0.028-0.289-0.084-0.409c-0.056-0.119-0.133-0.22-0.229-0.304c-0.097-0.083-0.209-0.146-0.337-0.189    c-0.128-0.042-0.264-0.064-0.408-0.064c-0.194,0-0.359,0.036-0.496,0.108c-0.138,0.072-0.249,0.169-0.334,0.291    c-0.085,0.121-0.147,0.261-0.186,0.418c-0.038,0.157-0.055,0.324-0.05,0.5h-0.425c-0.005-0.243,0.023-0.467,0.084-0.672    c0.061-0.205,0.154-0.381,0.28-0.53s0.285-0.264,0.476-0.348c0.191-0.083,0.415-0.125,0.671-0.125    c0.207,0,0.399,0.028,0.577,0.084s0.333,0.14,0.466,0.25c0.133,0.11,0.236,0.249,0.311,0.415s0.111,0.36,0.111,0.581    c0,0.198-0.033,0.378-0.098,0.54c-0.065,0.162-0.153,0.31-0.264,0.445c-0.11,0.135-0.236,0.26-0.378,0.375    c-0.142,0.115-0.291,0.222-0.449,0.321c-0.112,0.077-0.245,0.161-0.398,0.253c-0.153,0.092-0.3,0.195-0.442,0.307    c-0.142,0.113-0.267,0.235-0.375,0.368s-0.176,0.278-0.203,0.435h2.626v0.392H93.622z"/>
	</g>
</g>
<g>
	<g>
		<path d="M118.762,125.021c0.004-0.234,0.045-0.441,0.121-0.621c0.077-0.18,0.178-0.342,0.304-0.486    c0.125-0.144,0.268-0.276,0.425-0.395c0.158-0.119,0.32-0.234,0.486-0.344s0.332-0.223,0.496-0.337    c0.164-0.115,0.312-0.237,0.442-0.368c0.131-0.131,0.229-0.265,0.294-0.402c0.065-0.137,0.098-0.3,0.098-0.489    c0-0.153-0.028-0.289-0.084-0.409c-0.056-0.119-0.133-0.22-0.229-0.304c-0.097-0.083-0.209-0.146-0.337-0.189    c-0.128-0.042-0.264-0.064-0.408-0.064c-0.194,0-0.359,0.036-0.496,0.108c-0.138,0.072-0.249,0.169-0.334,0.291    c-0.085,0.121-0.147,0.261-0.186,0.418c-0.038,0.157-0.055,0.324-0.05,0.5h-0.425c-0.005-0.243,0.023-0.467,0.084-0.672    c0.061-0.205,0.154-0.381,0.28-0.53s0.285-0.264,0.476-0.348c0.191-0.083,0.415-0.125,0.671-0.125    c0.207,0,0.399,0.028,0.577,0.084s0.333,0.14,0.466,0.25c0.133,0.11,0.236,0.249,0.311,0.415s0.111,0.36,0.111,0.581    c0,0.198-0.033,0.378-0.098,0.54c-0.065,0.162-0.153,0.31-0.264,0.445c-0.11,0.135-0.236,0.26-0.378,0.375    c-0.142,0.115-0.291,0.222-0.449,0.321c-0.112,0.077-0.245,0.161-0.398,0.253c-0.153,0.092-0.3,0.195-0.442,0.307    c-0.142,0.113-0.267,0.235-0.375,0.368s-0.176,0.278-0.203,0.435h2.626v0.392H118.762z"/>
		<path d="M124.988,120.482c0.214,0.151,0.38,0.343,0.5,0.577c0.119,0.234,0.2,0.495,0.242,0.783    c0.043,0.288,0.064,0.569,0.064,0.844c0,0.279-0.021,0.562-0.064,0.851c-0.042,0.288-0.123,0.549-0.242,0.783    c-0.12,0.234-0.286,0.425-0.5,0.574s-0.494,0.223-0.84,0.223c-0.342,0-0.621-0.075-0.837-0.223s-0.384-0.339-0.503-0.574    c-0.119-0.234-0.2-0.495-0.243-0.783c-0.042-0.288-0.064-0.569-0.064-0.844c0-0.279,0.021-0.562,0.064-0.851    c0.043-0.288,0.124-0.549,0.243-0.783c0.119-0.234,0.287-0.426,0.503-0.577c0.216-0.15,0.495-0.226,0.837-0.226    C124.495,120.256,124.774,120.332,124.988,120.482z M123.5,120.823c-0.162,0.14-0.285,0.313-0.368,0.52    c-0.083,0.207-0.139,0.432-0.166,0.675c-0.027,0.243-0.041,0.466-0.041,0.668c0,0.207,0.014,0.431,0.041,0.671    c0.027,0.241,0.082,0.466,0.166,0.675c0.083,0.209,0.206,0.384,0.368,0.523c0.162,0.14,0.378,0.209,0.648,0.209    s0.486-0.07,0.648-0.209c0.162-0.139,0.285-0.314,0.368-0.523c0.083-0.209,0.138-0.434,0.165-0.675    c0.027-0.241,0.041-0.464,0.041-0.671c0-0.203-0.014-0.425-0.041-0.668c-0.027-0.243-0.082-0.468-0.165-0.675    s-0.206-0.38-0.368-0.52c-0.162-0.139-0.378-0.209-0.648-0.209S123.662,120.684,123.5,120.823z"/>
		<path d="M127.182,121.177c0.151-0.016,0.281-0.053,0.392-0.111s0.203-0.147,0.277-0.267s0.127-0.287,0.158-0.503h0.345v4.725    h-0.426v-3.51h-1.249v-0.304C126.863,121.203,127.031,121.193,127.182,121.177z"/>
		<path d="M130.489,124.029c0.052,0.153,0.129,0.283,0.229,0.392c0.102,0.108,0.228,0.192,0.378,0.253    c0.151,0.061,0.321,0.091,0.51,0.091c0.157,0,0.309-0.022,0.452-0.068c0.145-0.045,0.272-0.112,0.385-0.202    c0.112-0.09,0.203-0.2,0.271-0.331c0.067-0.13,0.101-0.279,0.101-0.445c0-0.171-0.029-0.318-0.087-0.442    c-0.059-0.124-0.14-0.227-0.243-0.31c-0.104-0.083-0.225-0.146-0.361-0.186c-0.138-0.041-0.285-0.061-0.442-0.061h-0.357v-0.358    h0.357c0.108,0,0.22-0.017,0.334-0.05c0.115-0.034,0.219-0.085,0.311-0.155c0.093-0.07,0.168-0.159,0.227-0.267    c0.059-0.108,0.088-0.236,0.088-0.385c0-0.158-0.027-0.292-0.081-0.402c-0.055-0.11-0.129-0.203-0.223-0.277    c-0.095-0.074-0.204-0.128-0.328-0.162c-0.123-0.034-0.257-0.051-0.401-0.051c-0.176,0-0.331,0.029-0.466,0.088    s-0.248,0.141-0.341,0.246c-0.092,0.106-0.161,0.232-0.206,0.378c-0.045,0.146-0.064,0.307-0.061,0.483h-0.425    c0-0.225,0.034-0.432,0.104-0.621c0.069-0.189,0.169-0.352,0.297-0.489s0.284-0.245,0.469-0.324    c0.185-0.079,0.392-0.118,0.621-0.118c0.185,0,0.364,0.024,0.54,0.071c0.176,0.047,0.332,0.12,0.47,0.216    c0.137,0.097,0.247,0.22,0.33,0.371s0.125,0.332,0.125,0.543c0,0.256-0.068,0.479-0.206,0.668    c-0.137,0.189-0.334,0.315-0.59,0.378v0.013c0.31,0.05,0.55,0.179,0.719,0.388c0.168,0.209,0.253,0.469,0.253,0.78    c0,0.234-0.044,0.44-0.132,0.618s-0.206,0.327-0.354,0.449s-0.321,0.212-0.52,0.273c-0.198,0.061-0.405,0.091-0.621,0.091    c-0.243,0-0.467-0.036-0.672-0.108c-0.204-0.072-0.38-0.175-0.526-0.311c-0.146-0.135-0.256-0.301-0.331-0.5    c-0.074-0.198-0.102-0.425-0.084-0.682h0.426C130.416,123.705,130.438,123.876,130.489,124.029z"/>
	</g>
</g>
<g>
	<g>
		<path d="M155.157,125.021c0.004-0.234,0.045-0.441,0.121-0.621c0.077-0.18,0.178-0.342,0.304-0.486s0.268-0.276,0.426-0.395    c0.157-0.119,0.319-0.234,0.485-0.344c0.167-0.11,0.332-0.223,0.496-0.337c0.165-0.115,0.312-0.237,0.442-0.368    c0.131-0.131,0.229-0.265,0.294-0.402s0.098-0.3,0.098-0.489c0-0.153-0.028-0.289-0.084-0.409    c-0.057-0.119-0.133-0.22-0.229-0.304c-0.097-0.083-0.21-0.146-0.338-0.189c-0.128-0.042-0.265-0.064-0.408-0.064    c-0.193,0-0.359,0.036-0.496,0.108c-0.138,0.072-0.249,0.169-0.334,0.291c-0.086,0.121-0.147,0.261-0.186,0.418    c-0.039,0.157-0.056,0.324-0.051,0.5h-0.426c-0.004-0.243,0.024-0.467,0.085-0.672c0.061-0.205,0.154-0.381,0.28-0.53    s0.284-0.264,0.476-0.348c0.191-0.083,0.415-0.125,0.672-0.125c0.207,0,0.399,0.028,0.577,0.084s0.333,0.14,0.466,0.25    c0.132,0.11,0.235,0.249,0.31,0.415c0.075,0.167,0.112,0.36,0.112,0.581c0,0.198-0.033,0.378-0.099,0.54    c-0.065,0.162-0.152,0.31-0.263,0.445c-0.11,0.135-0.236,0.26-0.378,0.375s-0.292,0.222-0.449,0.321    c-0.112,0.077-0.245,0.161-0.398,0.253c-0.152,0.092-0.3,0.195-0.442,0.307c-0.142,0.113-0.267,0.235-0.374,0.368    c-0.108,0.133-0.176,0.278-0.203,0.435h2.626v0.392H155.157z"/>
		<path d="M161.384,120.482c0.214,0.151,0.38,0.343,0.5,0.577c0.119,0.234,0.2,0.495,0.242,0.783    c0.043,0.288,0.064,0.569,0.064,0.844c0,0.279-0.021,0.562-0.064,0.851c-0.042,0.288-0.123,0.549-0.242,0.783    c-0.12,0.234-0.286,0.425-0.5,0.574s-0.494,0.223-0.84,0.223c-0.343,0-0.621-0.075-0.838-0.223    c-0.216-0.148-0.383-0.339-0.502-0.574c-0.12-0.234-0.201-0.495-0.243-0.783c-0.043-0.288-0.064-0.569-0.064-0.844    c0-0.279,0.021-0.562,0.064-0.851c0.042-0.288,0.123-0.549,0.243-0.783c0.119-0.234,0.286-0.426,0.502-0.577    c0.217-0.15,0.495-0.226,0.838-0.226C160.89,120.256,161.17,120.332,161.384,120.482z M159.896,120.823    c-0.162,0.14-0.285,0.313-0.368,0.52s-0.138,0.432-0.165,0.675c-0.027,0.243-0.041,0.466-0.041,0.668    c0,0.207,0.014,0.431,0.041,0.671c0.027,0.241,0.082,0.466,0.165,0.675c0.083,0.209,0.206,0.384,0.368,0.523    c0.162,0.14,0.378,0.209,0.648,0.209c0.27,0,0.485-0.07,0.647-0.209c0.162-0.139,0.284-0.314,0.368-0.523    c0.083-0.209,0.138-0.434,0.165-0.675c0.027-0.241,0.041-0.464,0.041-0.671c0-0.203-0.014-0.425-0.041-0.668    c-0.027-0.243-0.082-0.468-0.165-0.675c-0.084-0.207-0.206-0.38-0.368-0.52c-0.162-0.139-0.378-0.209-0.647-0.209    C160.273,120.614,160.058,120.684,159.896,120.823z"/>
		<path d="M163.577,121.177c0.151-0.016,0.281-0.053,0.392-0.111s0.203-0.147,0.277-0.267s0.127-0.287,0.158-0.503h0.345v4.725    h-0.426v-3.51h-1.249v-0.304C163.259,121.203,163.427,121.193,163.577,121.177z"/>
		<path d="M168.562,120.296h0.385v3.193h0.709v0.358h-0.709v1.174h-0.392v-1.174h-2.181v-0.412L168.562,120.296z M168.556,120.917    h-0.014l-1.782,2.572h1.796V120.917z"/>
	</g>
</g>
<g>
	<g>
		<path d="M191.556,125.021c0.004-0.234,0.045-0.441,0.121-0.621c0.077-0.18,0.178-0.342,0.304-0.486s0.268-0.276,0.426-0.395    c0.157-0.119,0.319-0.234,0.485-0.344c0.167-0.11,0.332-0.223,0.496-0.337c0.165-0.115,0.312-0.237,0.442-0.368    c0.131-0.131,0.229-0.265,0.294-0.402s0.098-0.3,0.098-0.489c0-0.153-0.028-0.289-0.084-0.409    c-0.057-0.119-0.133-0.22-0.229-0.304c-0.097-0.083-0.21-0.146-0.338-0.189c-0.128-0.042-0.265-0.064-0.408-0.064    c-0.193,0-0.359,0.036-0.496,0.108c-0.138,0.072-0.249,0.169-0.334,0.291c-0.086,0.121-0.147,0.261-0.186,0.418    c-0.039,0.157-0.056,0.324-0.051,0.5h-0.426c-0.004-0.243,0.024-0.467,0.085-0.672c0.061-0.205,0.154-0.381,0.28-0.53    s0.284-0.264,0.476-0.348c0.191-0.083,0.415-0.125,0.672-0.125c0.207,0,0.399,0.028,0.577,0.084s0.333,0.14,0.466,0.25    c0.132,0.11,0.235,0.249,0.31,0.415c0.075,0.167,0.112,0.36,0.112,0.581c0,0.198-0.033,0.378-0.099,0.54    c-0.065,0.162-0.152,0.31-0.263,0.445c-0.11,0.135-0.236,0.26-0.378,0.375s-0.292,0.222-0.449,0.321    c-0.112,0.077-0.245,0.161-0.398,0.253c-0.152,0.092-0.3,0.195-0.442,0.307c-0.142,0.113-0.267,0.235-0.374,0.368    c-0.108,0.133-0.176,0.278-0.203,0.435h2.626v0.392H191.556z"/>
		<path d="M197.782,120.482c0.214,0.151,0.38,0.343,0.5,0.577c0.119,0.234,0.2,0.495,0.242,0.783    c0.043,0.288,0.064,0.569,0.064,0.844c0,0.279-0.021,0.562-0.064,0.851c-0.042,0.288-0.123,0.549-0.242,0.783    c-0.12,0.234-0.286,0.425-0.5,0.574s-0.494,0.223-0.84,0.223c-0.343,0-0.621-0.075-0.838-0.223    c-0.216-0.148-0.383-0.339-0.502-0.574c-0.12-0.234-0.201-0.495-0.243-0.783c-0.043-0.288-0.064-0.569-0.064-0.844    c0-0.279,0.021-0.562,0.064-0.851c0.042-0.288,0.123-0.549,0.243-0.783c0.119-0.234,0.286-0.426,0.502-0.577    c0.217-0.15,0.495-0.226,0.838-0.226C197.288,120.256,197.568,120.332,197.782,120.482z M196.294,120.823    c-0.162,0.14-0.285,0.313-0.368,0.52s-0.138,0.432-0.165,0.675c-0.027,0.243-0.041,0.466-0.041,0.668    c0,0.207,0.014,0.431,0.041,0.671c0.027,0.241,0.082,0.466,0.165,0.675c0.083,0.209,0.206,0.384,0.368,0.523    c0.162,0.14,0.378,0.209,0.648,0.209c0.27,0,0.485-0.07,0.647-0.209c0.162-0.139,0.284-0.314,0.368-0.523    c0.083-0.209,0.138-0.434,0.165-0.675c0.027-0.241,0.041-0.464,0.041-0.671c0-0.203-0.014-0.425-0.041-0.668    c-0.027-0.243-0.082-0.468-0.165-0.675c-0.084-0.207-0.206-0.38-0.368-0.52c-0.162-0.139-0.378-0.209-0.647-0.209    C196.672,120.614,196.456,120.684,196.294,120.823z"/>
		<path d="M199.976,121.177c0.151-0.016,0.281-0.053,0.392-0.111s0.203-0.147,0.277-0.267s0.127-0.287,0.158-0.503h0.345v4.725    h-0.426v-3.51h-1.249v-0.304C199.657,121.203,199.825,121.193,199.976,121.177z"/>
		<path d="M203.338,124.117c0.061,0.135,0.143,0.25,0.246,0.348c0.104,0.097,0.225,0.171,0.364,0.223s0.29,0.078,0.452,0.078    c0.185,0,0.349-0.035,0.493-0.105c0.144-0.069,0.268-0.164,0.371-0.283s0.183-0.257,0.236-0.412    c0.054-0.155,0.081-0.318,0.081-0.49c0-0.175-0.03-0.337-0.092-0.486c-0.061-0.148-0.144-0.278-0.249-0.388    c-0.106-0.11-0.233-0.197-0.382-0.26s-0.311-0.095-0.485-0.095c-0.217,0-0.417,0.048-0.602,0.146    c-0.185,0.097-0.335,0.235-0.452,0.415h-0.364l0.459-2.45h2.362v0.391h-2.065l-0.304,1.566l0.014,0.013    c0.117-0.139,0.266-0.248,0.445-0.324c0.18-0.077,0.364-0.115,0.554-0.115c0.243,0,0.462,0.041,0.658,0.121    c0.195,0.081,0.362,0.194,0.499,0.338c0.138,0.144,0.243,0.316,0.317,0.516s0.111,0.42,0.111,0.658    c0,0.229-0.043,0.442-0.128,0.638c-0.086,0.196-0.202,0.365-0.352,0.506c-0.148,0.142-0.322,0.252-0.522,0.331    c-0.2,0.079-0.413,0.118-0.638,0.118c-0.221,0-0.425-0.033-0.611-0.098c-0.187-0.065-0.349-0.16-0.486-0.284    c-0.137-0.124-0.246-0.275-0.327-0.456c-0.081-0.18-0.124-0.382-0.128-0.607h0.425    C203.244,123.833,203.276,123.982,203.338,124.117z"/>
	</g>
</g>
<g>
	<g>
		<path d="M227.954,125.021c0.004-0.234,0.045-0.441,0.121-0.621c0.077-0.18,0.178-0.342,0.304-0.486s0.268-0.276,0.426-0.395    c0.157-0.119,0.319-0.234,0.485-0.344c0.167-0.11,0.332-0.223,0.496-0.337c0.165-0.115,0.312-0.237,0.442-0.368    c0.131-0.131,0.229-0.265,0.294-0.402s0.098-0.3,0.098-0.489c0-0.153-0.028-0.289-0.084-0.409    c-0.057-0.119-0.133-0.22-0.229-0.304c-0.097-0.083-0.21-0.146-0.338-0.189c-0.128-0.042-0.265-0.064-0.408-0.064    c-0.193,0-0.359,0.036-0.496,0.108c-0.138,0.072-0.249,0.169-0.334,0.291c-0.086,0.121-0.147,0.261-0.186,0.418    c-0.039,0.157-0.056,0.324-0.051,0.5h-0.426c-0.004-0.243,0.024-0.467,0.085-0.672c0.061-0.205,0.154-0.381,0.28-0.53    s0.284-0.264,0.476-0.348c0.191-0.083,0.415-0.125,0.672-0.125c0.207,0,0.399,0.028,0.577,0.084s0.333,0.14,0.466,0.25    c0.132,0.11,0.235,0.249,0.31,0.415c0.075,0.167,0.112,0.36,0.112,0.581c0,0.198-0.033,0.378-0.099,0.54    c-0.065,0.162-0.152,0.31-0.263,0.445c-0.11,0.135-0.236,0.26-0.378,0.375s-0.292,0.222-0.449,0.321    c-0.112,0.077-0.245,0.161-0.398,0.253c-0.152,0.092-0.3,0.195-0.442,0.307c-0.142,0.113-0.267,0.235-0.374,0.368    c-0.108,0.133-0.176,0.278-0.203,0.435h2.626v0.392H227.954z"/>
		<path d="M234.181,120.482c0.214,0.151,0.38,0.343,0.5,0.577c0.119,0.234,0.2,0.495,0.242,0.783    c0.043,0.288,0.064,0.569,0.064,0.844c0,0.279-0.021,0.562-0.064,0.851c-0.042,0.288-0.123,0.549-0.242,0.783    c-0.12,0.234-0.286,0.425-0.5,0.574s-0.494,0.223-0.84,0.223c-0.343,0-0.621-0.075-0.838-0.223    c-0.216-0.148-0.383-0.339-0.502-0.574c-0.12-0.234-0.201-0.495-0.243-0.783c-0.043-0.288-0.064-0.569-0.064-0.844    c0-0.279,0.021-0.562,0.064-0.851c0.042-0.288,0.123-0.549,0.243-0.783c0.119-0.234,0.286-0.426,0.502-0.577    c0.217-0.15,0.495-0.226,0.838-0.226C233.687,120.256,233.967,120.332,234.181,120.482z M232.692,120.823    c-0.162,0.14-0.285,0.313-0.368,0.52s-0.138,0.432-0.165,0.675c-0.027,0.243-0.041,0.466-0.041,0.668    c0,0.207,0.014,0.431,0.041,0.671c0.027,0.241,0.082,0.466,0.165,0.675c0.083,0.209,0.206,0.384,0.368,0.523    c0.162,0.14,0.378,0.209,0.648,0.209c0.27,0,0.485-0.07,0.647-0.209c0.162-0.139,0.284-0.314,0.368-0.523    c0.083-0.209,0.138-0.434,0.165-0.675c0.027-0.241,0.041-0.464,0.041-0.671c0-0.203-0.014-0.425-0.041-0.668    c-0.027-0.243-0.082-0.468-0.165-0.675c-0.084-0.207-0.206-0.38-0.368-0.52c-0.162-0.139-0.378-0.209-0.647-0.209    C233.07,120.614,232.854,120.684,232.692,120.823z"/>
		<path d="M236.374,121.177c0.151-0.016,0.281-0.053,0.392-0.111s0.203-0.147,0.277-0.267s0.127-0.287,0.158-0.503h0.345v4.725    h-0.426v-3.51h-1.249v-0.304C236.056,121.203,236.224,121.193,236.374,121.177z"/>
		<path d="M241.64,120.857c-0.174-0.162-0.397-0.243-0.672-0.243s-0.497,0.07-0.668,0.209c-0.172,0.14-0.304,0.315-0.398,0.527    s-0.157,0.44-0.189,0.685c-0.031,0.245-0.047,0.476-0.047,0.692h0.014c0.112-0.234,0.282-0.423,0.51-0.567    c0.227-0.144,0.476-0.216,0.745-0.216c0.239,0,0.454,0.04,0.645,0.118c0.191,0.079,0.354,0.188,0.49,0.328    c0.135,0.139,0.239,0.306,0.313,0.5c0.074,0.193,0.111,0.405,0.111,0.634s-0.039,0.442-0.118,0.638    c-0.079,0.196-0.188,0.365-0.331,0.506c-0.142,0.142-0.311,0.252-0.506,0.331c-0.195,0.079-0.411,0.118-0.645,0.118    c-0.288,0-0.536-0.044-0.742-0.132c-0.207-0.088-0.378-0.23-0.514-0.429c-0.135-0.198-0.235-0.456-0.3-0.773    c-0.065-0.317-0.099-0.708-0.099-1.171c0-0.095,0.006-0.218,0.018-0.371c0.011-0.153,0.037-0.316,0.077-0.49    c0.041-0.173,0.098-0.349,0.173-0.526c0.074-0.178,0.173-0.338,0.297-0.482c0.123-0.144,0.277-0.261,0.462-0.351    c0.185-0.09,0.405-0.135,0.661-0.135c0.424,0,0.759,0.102,1.006,0.304c0.248,0.203,0.396,0.513,0.446,0.932h-0.426    C241.917,121.23,241.812,121.019,241.64,120.857z M240.431,122.399c-0.146,0.065-0.27,0.154-0.371,0.267    c-0.101,0.113-0.178,0.244-0.229,0.395s-0.077,0.314-0.077,0.489c0,0.167,0.022,0.324,0.067,0.473s0.115,0.278,0.213,0.388    c0.097,0.11,0.219,0.197,0.367,0.26s0.326,0.095,0.533,0.095c0.171,0,0.325-0.033,0.463-0.098    c0.137-0.065,0.257-0.153,0.357-0.263c0.102-0.11,0.179-0.24,0.233-0.388c0.054-0.148,0.081-0.304,0.081-0.466    c0-0.171-0.026-0.333-0.078-0.486s-0.126-0.286-0.223-0.398c-0.097-0.112-0.216-0.201-0.357-0.267    c-0.142-0.065-0.303-0.098-0.483-0.098C240.742,122.301,240.577,122.334,240.431,122.399z"/>
	</g>
</g>
<polyline fill="none" stroke="#000000" stroke-width="0.5" stroke-miterlimit="10" points="16.832,113.738 16.832,3.697   13.938,3.697 "/>
<line fill="none" stroke="#000000" stroke-width="0.5" stroke-linejoin="round" stroke-miterlimit="10" x1="16.837" y1="19.43" x2="13.938" y2="19.43"/>
<line fill="none" stroke="#000000" stroke-width="0.5" stroke-linejoin="round" stroke-miterlimit="10" x1="16.837" y1="35.162" x2="13.938" y2="35.162"/>
<line fill="none" stroke="#000000" stroke-width="0.5" stroke-linejoin="round" stroke-miterlimit="10" x1="16.837" y1="50.894" x2="13.938" y2="50.894"/>
<line fill="none" stroke="#000000" stroke-width="0.5" stroke-linejoin="round" stroke-miterlimit="10" x1="16.837" y1="66.626" x2="13.938" y2="66.626"/>
<line fill="none" stroke="#000000" stroke-width="0.5" stroke-linejoin="round" stroke-miterlimit="10" x1="16.837" y1="82.358" x2="13.938" y2="82.358"/>
<line fill="none" stroke="#000000" stroke-width="0.5" stroke-linejoin="round" stroke-miterlimit="10" x1="16.837" y1="98.09" x2="13.938" y2="98.09"/>
<line fill="none" stroke="#000000" stroke-width="0.5" stroke-linejoin="round" stroke-miterlimit="10" x1="16.832" y1="113.738" x2="13.949" y2="113.738"/>
<line fill="none" stroke="#000000" stroke-width="0.5" stroke-linejoin="round" stroke-miterlimit="10" x1="16.849" y1="113.738" x2="16.832" y2="113.738"/>
</svg>