<svg xmlns="http://www.w3.org/2000/svg" xmlns:xlink="http://www.w3.org/1999/xlink" version="1.1" id="Layer_1" x="0px" y="0px" width="260.04px" height="124.801px" viewBox="0 0 260.04 124.801" enable-background="new 0 0 260.04 124.801" xml:space="preserve">
<rect fill="#FFFFFF" width="260.04" height="124.801"/>
<line fill="none" stroke="#CCCCCC" stroke-width="0.5" stroke-linejoin="round" stroke-miterlimit="10" x1="30.461" y1="7.636" x2="248.827" y2="7.636"/>
<line fill="none" stroke="#CCCCCC" stroke-width="0.5" stroke-linejoin="round" stroke-miterlimit="10" x1="30.461" y1="27.726" x2="248.827" y2="27.726"/>
<line fill="none" stroke="#CCCCCC" stroke-width="0.5" stroke-linejoin="round" stroke-miterlimit="10" x1="30.461" y1="47.763" x2="248.827" y2="47.763"/>
<line fill="none" stroke="#CCCCCC" stroke-width="0.5" stroke-linejoin="round" stroke-miterlimit="10" x1="30.461" y1="67.8" x2="248.827" y2="67.8"/>
<line fill="none" stroke="#CCCCCC" stroke-width="0.5" stroke-linejoin="round" stroke-miterlimit="10" x1="30.461" y1="87.842" x2="248.827" y2="87.842"/>
<polyline fill="none" stroke="#000000" stroke-width="0.5" stroke-linecap="square" stroke-linejoin="round" stroke-miterlimit="10" points="  248.827,107.91 30.461,107.91 30.461,7.636 "/>
<g>
	<g>
		<path d="M23.904,105.984c0.214,0.15,0.38,0.343,0.5,0.577c0.119,0.233,0.2,0.495,0.243,0.782c0.042,0.288,0.064,0.569,0.064,0.844    c0,0.279-0.021,0.563-0.064,0.851c-0.043,0.288-0.124,0.55-0.243,0.783c-0.119,0.234-0.286,0.426-0.5,0.574    s-0.494,0.223-0.84,0.223c-0.342,0-0.621-0.074-0.837-0.223s-0.384-0.34-0.503-0.574c-0.119-0.233-0.2-0.495-0.243-0.783    c-0.042-0.287-0.064-0.569-0.064-0.844c0-0.278,0.021-0.562,0.064-0.851c0.043-0.287,0.124-0.549,0.243-0.782    c0.119-0.234,0.287-0.427,0.503-0.577c0.216-0.151,0.495-0.227,0.837-0.227C23.411,105.758,23.69,105.833,23.904,105.984z     M22.416,106.325c-0.162,0.14-0.285,0.312-0.368,0.52c-0.083,0.207-0.139,0.432-0.166,0.675s-0.041,0.466-0.041,0.668    c0,0.207,0.014,0.432,0.041,0.672c0.027,0.241,0.082,0.466,0.166,0.675c0.083,0.21,0.206,0.384,0.368,0.523    s0.378,0.209,0.648,0.209s0.486-0.069,0.648-0.209s0.285-0.313,0.368-0.523c0.083-0.209,0.138-0.434,0.165-0.675    c0.027-0.24,0.041-0.465,0.041-0.672c0-0.202-0.013-0.425-0.041-0.668c-0.027-0.243-0.082-0.468-0.165-0.675    c-0.083-0.207-0.206-0.38-0.368-0.52s-0.378-0.21-0.648-0.21S22.578,106.186,22.416,106.325z"/>
	</g>
</g>
<g>
	<g>
		<path d="M18.592,86.627c0.15-0.016,0.281-0.053,0.392-0.111c0.11-0.059,0.202-0.147,0.276-0.267s0.127-0.287,0.159-0.503h0.344    v4.725h-0.425v-3.51h-1.249v-0.304C18.274,86.652,18.441,86.643,18.592,86.627z"/>
		<path d="M23.904,85.932c0.214,0.15,0.38,0.343,0.5,0.577c0.119,0.233,0.2,0.495,0.243,0.782c0.042,0.288,0.064,0.569,0.064,0.844    c0,0.279-0.021,0.563-0.064,0.851c-0.043,0.288-0.124,0.55-0.243,0.783c-0.119,0.234-0.286,0.426-0.5,0.574    s-0.494,0.223-0.84,0.223c-0.342,0-0.621-0.074-0.837-0.223s-0.384-0.34-0.503-0.574c-0.119-0.233-0.2-0.495-0.243-0.783    c-0.042-0.287-0.064-0.569-0.064-0.844c0-0.278,0.021-0.562,0.064-0.851c0.043-0.287,0.124-0.549,0.243-0.782    c0.119-0.234,0.287-0.427,0.503-0.577c0.216-0.151,0.495-0.227,0.837-0.227C23.411,85.705,23.69,85.78,23.904,85.932z     M22.416,86.272c-0.162,0.14-0.285,0.312-0.368,0.52c-0.083,0.207-0.139,0.432-0.166,0.675s-0.041,0.466-0.041,0.668    c0,0.207,0.014,0.432,0.041,0.672c0.027,0.241,0.082,0.466,0.166,0.675c0.083,0.21,0.206,0.384,0.368,0.523    s0.378,0.209,0.648,0.209s0.486-0.069,0.648-0.209s0.285-0.313,0.368-0.523c0.083-0.209,0.138-0.434,0.165-0.675    c0.027-0.24,0.041-0.465,0.041-0.672c0-0.202-0.013-0.425-0.041-0.668c-0.027-0.243-0.082-0.468-0.165-0.675    c-0.083-0.207-0.206-0.38-0.368-0.52s-0.378-0.21-0.648-0.21S22.578,86.133,22.416,86.272z"/>
	</g>
</g>
<g>
	<g>
		<path d="M17.678,70.421c0.004-0.234,0.045-0.441,0.121-0.621c0.077-0.18,0.178-0.342,0.304-0.486    c0.125-0.144,0.268-0.275,0.425-0.395c0.158-0.119,0.32-0.233,0.486-0.344s0.332-0.224,0.496-0.338    c0.164-0.115,0.312-0.237,0.442-0.368c0.131-0.13,0.229-0.264,0.294-0.401c0.065-0.138,0.098-0.301,0.098-0.489    c0-0.153-0.028-0.289-0.084-0.408s-0.133-0.221-0.229-0.304c-0.097-0.084-0.209-0.146-0.337-0.189s-0.264-0.064-0.408-0.064    c-0.194,0-0.359,0.036-0.496,0.108c-0.138,0.072-0.249,0.169-0.334,0.29c-0.085,0.122-0.147,0.262-0.186,0.419    s-0.055,0.324-0.05,0.499h-0.425c-0.005-0.243,0.023-0.467,0.084-0.671c0.061-0.205,0.154-0.382,0.28-0.53    s0.285-0.265,0.476-0.348c0.191-0.083,0.415-0.125,0.671-0.125c0.207,0,0.399,0.028,0.577,0.085    c0.178,0.056,0.333,0.139,0.466,0.249s0.236,0.249,0.311,0.415c0.074,0.167,0.111,0.36,0.111,0.581    c0,0.198-0.033,0.378-0.098,0.54c-0.065,0.162-0.153,0.311-0.264,0.445c-0.11,0.135-0.236,0.26-0.378,0.375    c-0.142,0.114-0.291,0.222-0.449,0.32c-0.112,0.076-0.245,0.161-0.398,0.253c-0.153,0.093-0.3,0.194-0.442,0.308    c-0.142,0.112-0.267,0.234-0.375,0.367s-0.176,0.278-0.203,0.436h2.626v0.392H17.678z"/>
		<path d="M23.904,65.882c0.214,0.15,0.38,0.343,0.5,0.577c0.119,0.233,0.2,0.495,0.243,0.782c0.042,0.288,0.064,0.569,0.064,0.844    c0,0.279-0.021,0.563-0.064,0.851c-0.043,0.288-0.124,0.55-0.243,0.783c-0.119,0.234-0.286,0.426-0.5,0.574    s-0.494,0.223-0.84,0.223c-0.342,0-0.621-0.074-0.837-0.223s-0.384-0.34-0.503-0.574c-0.119-0.233-0.2-0.495-0.243-0.783    c-0.042-0.287-0.064-0.569-0.064-0.844c0-0.278,0.021-0.562,0.064-0.851c0.043-0.287,0.124-0.549,0.243-0.782    c0.119-0.234,0.287-0.427,0.503-0.577c0.216-0.151,0.495-0.227,0.837-0.227C23.411,65.655,23.69,65.73,23.904,65.882z     M22.416,66.223c-0.162,0.14-0.285,0.312-0.368,0.52c-0.083,0.207-0.139,0.432-0.166,0.675s-0.041,0.466-0.041,0.668    c0,0.207,0.014,0.432,0.041,0.672c0.027,0.241,0.082,0.466,0.166,0.675c0.083,0.21,0.206,0.384,0.368,0.523    s0.378,0.209,0.648,0.209s0.486-0.069,0.648-0.209s0.285-0.313,0.368-0.523c0.083-0.209,0.138-0.434,0.165-0.675    c0.027-0.24,0.041-0.465,0.041-0.672c0-0.202-0.013-0.425-0.041-0.668c-0.027-0.243-0.082-0.468-0.165-0.675    c-0.083-0.207-0.206-0.38-0.368-0.52s-0.378-0.21-0.648-0.21S22.578,66.083,22.416,66.223z"/>
	</g>
</g>
<g>
	<g>
		<path d="M18.146,49.376c0.052,0.153,0.128,0.283,0.229,0.392c0.102,0.107,0.228,0.192,0.378,0.253    c0.15,0.061,0.32,0.091,0.509,0.091c0.158,0,0.308-0.022,0.453-0.067c0.144-0.045,0.272-0.112,0.384-0.202    c0.113-0.09,0.203-0.2,0.27-0.331c0.068-0.13,0.102-0.278,0.102-0.445c0-0.171-0.029-0.318-0.088-0.442    c-0.059-0.123-0.14-0.227-0.243-0.311c-0.104-0.083-0.224-0.145-0.361-0.186c-0.137-0.04-0.285-0.061-0.442-0.061H18.98v-0.357    h0.357c0.108,0,0.22-0.018,0.334-0.051c0.115-0.034,0.218-0.086,0.311-0.155c0.092-0.07,0.167-0.159,0.226-0.267    c0.058-0.108,0.087-0.236,0.087-0.385c0-0.157-0.027-0.291-0.081-0.401c-0.054-0.11-0.128-0.203-0.223-0.277    c-0.094-0.074-0.204-0.128-0.327-0.162c-0.124-0.033-0.258-0.051-0.402-0.051c-0.175,0-0.331,0.029-0.466,0.088    c-0.135,0.059-0.249,0.141-0.341,0.247c-0.092,0.105-0.161,0.231-0.206,0.378c-0.045,0.146-0.065,0.307-0.061,0.482h-0.425    c0-0.225,0.035-0.432,0.105-0.621c0.069-0.189,0.168-0.353,0.297-0.489c0.128-0.138,0.285-0.245,0.469-0.324    c0.184-0.078,0.391-0.118,0.621-0.118c0.185,0,0.365,0.023,0.54,0.071c0.176,0.047,0.332,0.119,0.469,0.216    s0.248,0.221,0.331,0.371c0.083,0.15,0.125,0.332,0.125,0.543c0,0.257-0.068,0.479-0.206,0.669    c-0.138,0.188-0.334,0.314-0.591,0.378v0.014c0.311,0.049,0.55,0.179,0.719,0.388c0.169,0.209,0.253,0.469,0.253,0.779    c0,0.234-0.044,0.44-0.132,0.618s-0.206,0.327-0.354,0.449c-0.148,0.121-0.322,0.212-0.52,0.272    c-0.198,0.062-0.405,0.092-0.621,0.092c-0.243,0-0.467-0.036-0.671-0.108c-0.205-0.071-0.38-0.176-0.527-0.311    c-0.146-0.135-0.256-0.301-0.331-0.499s-0.103-0.426-0.084-0.682h0.425C18.074,49.052,18.095,49.223,18.146,49.376z"/>
		<path d="M23.904,45.829c0.214,0.15,0.38,0.343,0.5,0.577c0.119,0.233,0.2,0.495,0.243,0.782c0.042,0.288,0.064,0.569,0.064,0.844    c0,0.279-0.021,0.563-0.064,0.851c-0.043,0.288-0.124,0.55-0.243,0.783c-0.119,0.234-0.286,0.426-0.5,0.574    s-0.494,0.223-0.84,0.223c-0.342,0-0.621-0.074-0.837-0.223s-0.384-0.34-0.503-0.574c-0.119-0.233-0.2-0.495-0.243-0.783    c-0.042-0.287-0.064-0.569-0.064-0.844c0-0.278,0.021-0.562,0.064-0.851c0.043-0.287,0.124-0.549,0.243-0.782    c0.119-0.234,0.287-0.427,0.503-0.577c0.216-0.151,0.495-0.227,0.837-0.227C23.411,45.603,23.69,45.678,23.904,45.829z     M22.416,46.17c-0.162,0.14-0.285,0.312-0.368,0.52c-0.083,0.207-0.139,0.432-0.166,0.675s-0.041,0.466-0.041,0.668    c0,0.207,0.014,0.432,0.041,0.672c0.027,0.241,0.082,0.466,0.166,0.675c0.083,0.21,0.206,0.384,0.368,0.523    s0.378,0.209,0.648,0.209s0.486-0.069,0.648-0.209s0.285-0.313,0.368-0.523c0.083-0.209,0.138-0.434,0.165-0.675    c0.027-0.24,0.041-0.465,0.041-0.672c0-0.202-0.013-0.425-0.041-0.668c-0.027-0.243-0.082-0.468-0.165-0.675    c-0.083-0.207-0.206-0.38-0.368-0.52s-0.378-0.21-0.648-0.21S22.578,46.03,22.416,46.17z"/>
	</g>
</g>
<g>
	<g>
		<path d="M4.842,82.062c0-0.335,0.049-0.62,0.146-0.854c0.098-0.235,0.227-0.427,0.387-0.574c0.16-0.147,0.342-0.255,0.547-0.322    s0.417-0.102,0.637-0.102c0.215,0,0.427,0.034,0.634,0.102c0.208,0.067,0.392,0.175,0.551,0.322    c0.16,0.147,0.289,0.339,0.386,0.574c0.098,0.234,0.146,0.52,0.146,0.854v1.237h1.92v1.178H4.842V82.062z M7.362,82.384    c0-0.135-0.01-0.265-0.03-0.39c-0.02-0.125-0.059-0.235-0.116-0.33c-0.057-0.095-0.139-0.171-0.244-0.229S6.729,81.35,6.559,81.35    c-0.17,0-0.307,0.028-0.412,0.086s-0.187,0.134-0.244,0.229c-0.057,0.095-0.096,0.205-0.116,0.33    c-0.02,0.125-0.03,0.255-0.03,0.39v0.915h1.605V82.384z"/>
		<path d="M6.319,78.574h0.72V78.56c-0.12-0.05-0.231-0.117-0.333-0.202s-0.19-0.183-0.263-0.293    c-0.072-0.109-0.128-0.228-0.168-0.353s-0.06-0.255-0.06-0.39c0-0.07,0.013-0.147,0.038-0.232h0.99    c-0.01,0.05-0.019,0.11-0.026,0.18c-0.007,0.07-0.011,0.138-0.011,0.203c0,0.194,0.033,0.359,0.098,0.494    c0.065,0.136,0.154,0.244,0.266,0.326c0.113,0.083,0.244,0.142,0.394,0.177s0.312,0.053,0.487,0.053h1.748v1.064H6.319V78.574z"/>
		<path d="M5.719,76.641H4.842v-1.065h0.877V76.641z M6.319,75.575h3.877v1.065H6.319V75.575z"/>
		<path d="M7.017,72.883c0,0.17,0.039,0.312,0.116,0.428c0.078,0.115,0.178,0.209,0.3,0.281s0.257,0.124,0.405,0.154    c0.147,0.029,0.294,0.045,0.439,0.045c0.14,0,0.282-0.016,0.427-0.045c0.145-0.03,0.276-0.079,0.394-0.146    c0.117-0.067,0.214-0.159,0.289-0.274C9.462,73.211,9.5,73.07,9.5,72.905c0-0.255-0.071-0.451-0.214-0.589    c-0.143-0.137-0.334-0.224-0.574-0.258V71.03c0.515,0.07,0.907,0.271,1.177,0.601s0.405,0.752,0.405,1.268    c0,0.29-0.049,0.556-0.146,0.799c-0.098,0.242-0.233,0.448-0.409,0.618c-0.175,0.17-0.384,0.303-0.626,0.397    c-0.242,0.096-0.508,0.143-0.798,0.143c-0.3,0-0.579-0.044-0.836-0.131c-0.257-0.088-0.48-0.217-0.667-0.387    s-0.334-0.377-0.439-0.622s-0.157-0.525-0.157-0.84c0-0.23,0.03-0.451,0.09-0.664s0.151-0.402,0.274-0.57    c0.123-0.167,0.275-0.304,0.458-0.408c0.183-0.105,0.398-0.165,0.648-0.181v1.043C7.239,72.166,7.017,72.428,7.017,72.883z"/>
		<path d="M9.267,69.291c0.155-0.16,0.233-0.39,0.233-0.69c0-0.215-0.054-0.399-0.162-0.555c-0.107-0.155-0.221-0.25-0.341-0.285    v-0.938c0.465,0.15,0.798,0.38,0.998,0.69c0.2,0.31,0.3,0.685,0.3,1.125c0,0.305-0.049,0.58-0.146,0.825    c-0.098,0.244-0.236,0.452-0.416,0.622c-0.18,0.17-0.395,0.302-0.645,0.394c-0.25,0.093-0.525,0.139-0.825,0.139    c-0.29,0-0.56-0.047-0.81-0.143c-0.25-0.095-0.466-0.229-0.648-0.404c-0.183-0.176-0.327-0.384-0.432-0.627    c-0.105-0.242-0.157-0.511-0.157-0.806c0-0.33,0.063-0.618,0.191-0.862c0.127-0.245,0.299-0.446,0.514-0.604    c0.215-0.157,0.46-0.271,0.735-0.341s0.562-0.095,0.862-0.075v2.798C8.862,69.538,9.112,69.451,9.267,69.291z M7.227,68.087    c-0.14,0.128-0.21,0.321-0.21,0.581c0,0.171,0.029,0.312,0.086,0.424c0.058,0.113,0.129,0.203,0.214,0.271s0.175,0.115,0.27,0.143    c0.095,0.027,0.18,0.044,0.255,0.049v-1.732C7.572,67.871,7.367,67.96,7.227,68.087z"/>
		<path d="M6.319,63.028h0.495v-0.015c-0.21-0.13-0.363-0.295-0.458-0.495c-0.095-0.199-0.143-0.42-0.143-0.66    c0-0.305,0.058-0.567,0.172-0.787c0.115-0.22,0.268-0.402,0.458-0.548c0.19-0.145,0.411-0.252,0.664-0.322    c0.253-0.07,0.517-0.104,0.792-0.104c0.26,0,0.51,0.034,0.75,0.104c0.24,0.07,0.453,0.177,0.638,0.319    c0.185,0.142,0.333,0.319,0.442,0.532c0.11,0.212,0.165,0.461,0.165,0.746c0,0.24-0.049,0.461-0.146,0.664    c-0.098,0.202-0.241,0.368-0.431,0.498v0.016h1.837v1.064H6.319V63.028z M9.394,61.646c-0.07-0.118-0.161-0.213-0.273-0.285    c-0.113-0.072-0.244-0.124-0.394-0.154c-0.15-0.029-0.302-0.045-0.458-0.045c-0.155,0-0.307,0.017-0.457,0.049    c-0.15,0.032-0.284,0.086-0.401,0.161c-0.118,0.075-0.212,0.172-0.285,0.289c-0.072,0.117-0.109,0.261-0.109,0.431    c0,0.176,0.037,0.322,0.109,0.439c0.073,0.117,0.167,0.212,0.281,0.285c0.115,0.072,0.248,0.123,0.397,0.153    s0.305,0.045,0.465,0.045c0.155,0,0.308-0.016,0.458-0.049c0.15-0.032,0.281-0.085,0.394-0.157    c0.112-0.072,0.204-0.169,0.273-0.289c0.07-0.12,0.105-0.265,0.105-0.435C9.5,61.909,9.464,61.763,9.394,61.646z"/>
		<path d="M9.267,58.319c0.155-0.16,0.233-0.39,0.233-0.69c0-0.215-0.054-0.399-0.162-0.555c-0.107-0.155-0.221-0.25-0.341-0.285    v-0.938c0.465,0.15,0.798,0.38,0.998,0.69c0.2,0.31,0.3,0.685,0.3,1.125c0,0.305-0.049,0.58-0.146,0.825    c-0.098,0.244-0.236,0.452-0.416,0.622c-0.18,0.17-0.395,0.302-0.645,0.394c-0.25,0.093-0.525,0.139-0.825,0.139    c-0.29,0-0.56-0.047-0.81-0.143c-0.25-0.095-0.466-0.229-0.648-0.404c-0.183-0.176-0.327-0.384-0.432-0.627    c-0.105-0.242-0.157-0.511-0.157-0.806c0-0.33,0.063-0.618,0.191-0.862c0.127-0.245,0.299-0.446,0.514-0.604    c0.215-0.157,0.46-0.271,0.735-0.341s0.562-0.095,0.862-0.075v2.798C8.862,58.566,9.112,58.479,9.267,58.319z M7.227,57.115    c-0.14,0.128-0.21,0.321-0.21,0.581c0,0.171,0.029,0.312,0.086,0.424c0.058,0.113,0.129,0.203,0.214,0.271s0.175,0.115,0.27,0.143    c0.095,0.027,0.18,0.044,0.255,0.049V56.85C7.572,56.899,7.367,56.988,7.227,57.115z"/>
		<path d="M6.319,54.142h0.72v-0.015c-0.12-0.05-0.231-0.117-0.333-0.202s-0.19-0.183-0.263-0.293    c-0.072-0.109-0.128-0.228-0.168-0.353s-0.06-0.255-0.06-0.39c0-0.07,0.013-0.147,0.038-0.232h0.99    c-0.01,0.05-0.019,0.11-0.026,0.18c-0.007,0.07-0.011,0.138-0.011,0.203c0,0.194,0.033,0.359,0.098,0.494    c0.065,0.136,0.154,0.244,0.266,0.326c0.113,0.083,0.244,0.142,0.394,0.177s0.312,0.053,0.487,0.053h1.748v1.064H6.319V54.142z"/>
		<path d="M9.233,49.257c0.083-0.048,0.15-0.109,0.203-0.185c0.052-0.074,0.091-0.161,0.116-0.259    c0.025-0.097,0.038-0.198,0.038-0.304c0-0.074-0.009-0.153-0.026-0.236c-0.018-0.082-0.045-0.157-0.083-0.225    s-0.087-0.124-0.15-0.169s-0.141-0.067-0.236-0.067c-0.16,0-0.28,0.106-0.36,0.319c-0.08,0.212-0.16,0.509-0.24,0.889    c-0.035,0.154-0.076,0.306-0.124,0.453s-0.11,0.279-0.188,0.394c-0.078,0.115-0.175,0.208-0.292,0.278    c-0.118,0.069-0.261,0.104-0.431,0.104c-0.25,0-0.455-0.049-0.615-0.146c-0.16-0.097-0.286-0.226-0.379-0.386    c-0.092-0.16-0.157-0.34-0.195-0.54s-0.056-0.405-0.056-0.615s0.02-0.413,0.06-0.611c0.04-0.197,0.107-0.373,0.202-0.528    c0.095-0.155,0.222-0.284,0.379-0.387c0.158-0.103,0.356-0.163,0.596-0.184v1.013c-0.205,0.015-0.344,0.093-0.416,0.232    c-0.073,0.14-0.109,0.305-0.109,0.495c0,0.06,0.004,0.125,0.011,0.195c0.007,0.069,0.024,0.134,0.049,0.19    c0.025,0.058,0.061,0.106,0.109,0.146c0.047,0.04,0.111,0.061,0.191,0.061c0.095,0,0.173-0.035,0.232-0.105    c0.06-0.07,0.109-0.161,0.146-0.273s0.071-0.241,0.101-0.387c0.03-0.145,0.063-0.292,0.098-0.442    c0.035-0.155,0.078-0.306,0.127-0.454c0.05-0.147,0.116-0.278,0.199-0.394c0.083-0.114,0.185-0.207,0.308-0.277    s0.274-0.104,0.454-0.104c0.255,0,0.469,0.051,0.642,0.153c0.172,0.103,0.311,0.236,0.416,0.401s0.179,0.354,0.221,0.566    c0.042,0.212,0.064,0.429,0.064,0.648c0,0.225-0.022,0.445-0.068,0.66c-0.045,0.215-0.12,0.406-0.225,0.573    c-0.105,0.168-0.244,0.306-0.417,0.413S9.197,50.33,8.937,50.34v-1.013C9.052,49.327,9.15,49.304,9.233,49.257z"/>
		<path d="M4.842,45.061h2.018v-0.022c-0.225-0.136-0.389-0.308-0.491-0.518s-0.154-0.415-0.154-0.615    c0-0.285,0.039-0.519,0.116-0.701s0.185-0.326,0.322-0.432c0.138-0.104,0.305-0.179,0.503-0.221    c0.197-0.043,0.416-0.064,0.656-0.064h2.385v1.065h-2.19c-0.32,0-0.559,0.05-0.716,0.15c-0.158,0.1-0.236,0.277-0.236,0.532    c0,0.29,0.086,0.5,0.259,0.63s0.457,0.195,0.851,0.195h2.033v1.064H4.842V45.061z"/>
		<path d="M7.512,41.723c-0.25-0.015-0.458-0.077-0.623-0.188c-0.165-0.109-0.297-0.25-0.397-0.42s-0.171-0.361-0.214-0.573    c-0.042-0.213-0.063-0.427-0.063-0.642c0-0.195,0.014-0.393,0.041-0.593c0.028-0.199,0.082-0.382,0.162-0.547    c0.08-0.165,0.191-0.3,0.333-0.405c0.143-0.104,0.332-0.157,0.566-0.157h2.018c0.175,0,0.342-0.01,0.502-0.03    c0.16-0.02,0.28-0.055,0.36-0.104v1.079c-0.06,0.021-0.121,0.037-0.184,0.049c-0.062,0.013-0.126,0.021-0.191,0.026    c0.175,0.17,0.297,0.37,0.368,0.601c0.07,0.229,0.105,0.465,0.105,0.705c0,0.185-0.022,0.357-0.068,0.517    c-0.045,0.16-0.115,0.301-0.21,0.421c-0.095,0.119-0.215,0.213-0.36,0.281c-0.145,0.067-0.317,0.101-0.518,0.101    c-0.22,0-0.401-0.038-0.543-0.116c-0.143-0.077-0.256-0.177-0.341-0.3c-0.085-0.122-0.149-0.263-0.191-0.42    S7.987,40.69,7.962,40.53s-0.045-0.317-0.06-0.473c-0.015-0.154-0.038-0.292-0.067-0.412c-0.03-0.12-0.074-0.215-0.131-0.285    c-0.058-0.069-0.141-0.103-0.251-0.098c-0.115,0-0.206,0.02-0.273,0.057c-0.068,0.037-0.12,0.088-0.158,0.15    s-0.062,0.135-0.075,0.217c-0.012,0.083-0.019,0.172-0.019,0.267c0,0.21,0.045,0.375,0.135,0.495c0.09,0.12,0.24,0.189,0.45,0.21    V41.723z M8.299,39.263c0.04,0.045,0.071,0.102,0.094,0.169s0.041,0.141,0.056,0.218s0.028,0.158,0.038,0.243    c0.01,0.086,0.022,0.171,0.038,0.256c0.015,0.08,0.035,0.158,0.06,0.235c0.025,0.078,0.059,0.146,0.101,0.203    s0.096,0.104,0.161,0.139s0.147,0.053,0.248,0.053c0.095,0,0.175-0.018,0.24-0.053s0.116-0.083,0.153-0.143    c0.038-0.06,0.064-0.13,0.079-0.21c0.015-0.08,0.022-0.162,0.022-0.247c0-0.211-0.035-0.373-0.105-0.488    c-0.07-0.114-0.154-0.199-0.251-0.255c-0.097-0.055-0.196-0.089-0.296-0.101c-0.1-0.013-0.18-0.02-0.24-0.02H8.299z"/>
		<path d="M6.319,36.36h0.72v-0.015c-0.12-0.05-0.231-0.117-0.333-0.202s-0.19-0.183-0.263-0.293    c-0.072-0.109-0.128-0.228-0.168-0.353s-0.06-0.255-0.06-0.39c0-0.07,0.013-0.147,0.038-0.232h0.99    c-0.01,0.05-0.019,0.11-0.026,0.18c-0.007,0.07-0.011,0.138-0.011,0.203c0,0.194,0.033,0.359,0.098,0.494    c0.065,0.136,0.154,0.244,0.266,0.326c0.113,0.083,0.244,0.142,0.394,0.177s0.312,0.053,0.487,0.053h1.748v1.064H6.319V36.36z"/>
		<path d="M9.267,33.316c0.155-0.16,0.233-0.39,0.233-0.69c0-0.215-0.054-0.399-0.162-0.555c-0.107-0.155-0.221-0.25-0.341-0.285    v-0.938c0.465,0.15,0.798,0.38,0.998,0.69c0.2,0.31,0.3,0.685,0.3,1.125c0,0.305-0.049,0.58-0.146,0.825    c-0.098,0.244-0.236,0.452-0.416,0.622c-0.18,0.17-0.395,0.302-0.645,0.394c-0.25,0.093-0.525,0.139-0.825,0.139    c-0.29,0-0.56-0.047-0.81-0.143c-0.25-0.095-0.466-0.229-0.648-0.404c-0.183-0.176-0.327-0.384-0.432-0.627    c-0.105-0.242-0.157-0.511-0.157-0.806c0-0.33,0.063-0.618,0.191-0.862c0.127-0.245,0.299-0.446,0.514-0.604    c0.215-0.157,0.46-0.271,0.735-0.341s0.562-0.095,0.862-0.075v2.798C8.862,33.563,9.112,33.477,9.267,33.316z M7.227,32.112    c-0.14,0.128-0.21,0.321-0.21,0.581c0,0.171,0.029,0.312,0.086,0.424c0.058,0.113,0.129,0.203,0.214,0.271s0.175,0.115,0.27,0.143    c0.095,0.027,0.18,0.044,0.255,0.049v-1.732C7.572,31.896,7.367,31.985,7.227,32.112z"/>
	</g>
</g>
<g>
	<g>
		<path d="M19.824,25.591h0.385v3.193h0.708v0.358h-0.708v1.174h-0.392v-1.174h-2.18v-0.412L19.824,25.591z M19.817,26.212h-0.014    l-1.782,2.572h1.795V26.212z"/>
		<path d="M23.904,25.776c0.214,0.151,0.38,0.343,0.5,0.577c0.119,0.234,0.2,0.495,0.243,0.783c0.042,0.288,0.064,0.569,0.064,0.844    c0,0.279-0.021,0.562-0.064,0.851c-0.043,0.288-0.124,0.549-0.243,0.783c-0.119,0.234-0.286,0.425-0.5,0.574    s-0.494,0.223-0.84,0.223c-0.342,0-0.621-0.075-0.837-0.223s-0.384-0.339-0.503-0.574c-0.119-0.234-0.2-0.495-0.243-0.783    c-0.042-0.288-0.064-0.569-0.064-0.844c0-0.279,0.021-0.562,0.064-0.851c0.043-0.288,0.124-0.549,0.243-0.783    c0.119-0.234,0.287-0.426,0.503-0.577c0.216-0.15,0.495-0.226,0.837-0.226C23.411,25.55,23.69,25.626,23.904,25.776z     M22.416,26.117c-0.162,0.14-0.285,0.313-0.368,0.52c-0.083,0.207-0.139,0.432-0.166,0.675c-0.027,0.243-0.041,0.466-0.041,0.668    c0,0.207,0.014,0.431,0.041,0.671c0.027,0.241,0.082,0.466,0.166,0.675c0.083,0.209,0.206,0.384,0.368,0.523    c0.162,0.14,0.378,0.209,0.648,0.209s0.486-0.07,0.648-0.209c0.162-0.139,0.285-0.314,0.368-0.523    c0.083-0.209,0.138-0.434,0.165-0.675c0.027-0.241,0.041-0.464,0.041-0.671c0-0.203-0.013-0.425-0.041-0.668    c-0.027-0.243-0.082-0.468-0.165-0.675c-0.083-0.207-0.206-0.38-0.368-0.52c-0.162-0.139-0.378-0.209-0.648-0.209    S22.578,25.978,22.416,26.117z"/>
	</g>
</g>
<g>
	<g>
		<path d="M14.596,9.634c0.191,0.209,0.465,0.334,0.82,0.375V8.011c-0.189-0.041-0.37-0.089-0.543-0.145    C14.7,7.809,14.549,7.73,14.421,7.629C14.292,7.528,14.19,7.4,14.114,7.245c-0.077-0.155-0.115-0.35-0.115-0.584    c0-0.203,0.037-0.385,0.111-0.547s0.175-0.3,0.304-0.415s0.279-0.203,0.452-0.263s0.356-0.091,0.55-0.091V4.818h0.263v0.526    c0.198,0,0.383,0.035,0.557,0.105s0.326,0.168,0.459,0.297c0.133,0.128,0.236,0.282,0.311,0.462    c0.074,0.18,0.109,0.38,0.105,0.601h-0.425c-0.005-0.337-0.099-0.606-0.284-0.807s-0.425-0.3-0.722-0.3v1.944    c0.193,0.041,0.383,0.09,0.57,0.148c0.187,0.059,0.353,0.14,0.5,0.243c0.146,0.104,0.264,0.233,0.354,0.388    c0.09,0.155,0.135,0.352,0.135,0.591c0,0.22-0.044,0.415-0.131,0.583c-0.088,0.169-0.205,0.31-0.351,0.422    c-0.146,0.113-0.313,0.197-0.5,0.253c-0.187,0.056-0.379,0.084-0.577,0.084v0.574h-0.263v-0.581    c-0.527-0.05-0.91-0.205-1.151-0.466c-0.241-0.261-0.37-0.648-0.388-1.161h0.425C14.307,9.122,14.405,9.425,14.596,9.634z     M15.035,5.759c-0.12,0.039-0.225,0.098-0.317,0.179s-0.165,0.186-0.216,0.314c-0.052,0.128-0.078,0.28-0.078,0.456    c0,0.157,0.028,0.286,0.084,0.385c0.057,0.099,0.131,0.18,0.223,0.243c0.092,0.063,0.198,0.113,0.317,0.149    c0.119,0.036,0.242,0.07,0.368,0.101V5.702C15.281,5.702,15.154,5.721,15.035,5.759z M16.098,9.955    c0.135-0.036,0.255-0.094,0.361-0.175c0.105-0.081,0.191-0.184,0.256-0.307c0.065-0.124,0.098-0.273,0.098-0.449    c0-0.162-0.035-0.297-0.104-0.405s-0.159-0.197-0.267-0.267s-0.229-0.127-0.364-0.172c-0.135-0.045-0.268-0.083-0.398-0.115v1.944    C15.824,10.009,15.963,9.991,16.098,9.955z"/>
		<path d="M18.201,9.361c0.061,0.135,0.143,0.25,0.247,0.348c0.103,0.097,0.225,0.171,0.364,0.223s0.291,0.078,0.452,0.078    c0.185,0,0.349-0.035,0.493-0.105c0.144-0.069,0.268-0.164,0.372-0.283s0.182-0.257,0.236-0.412    c0.054-0.155,0.081-0.318,0.081-0.49c0-0.175-0.031-0.337-0.091-0.486c-0.061-0.148-0.144-0.278-0.25-0.388    c-0.105-0.11-0.233-0.197-0.381-0.26s-0.311-0.095-0.486-0.095c-0.216,0-0.417,0.048-0.601,0.146    c-0.185,0.097-0.335,0.235-0.453,0.415h-0.364l0.459-2.45h2.362v0.391h-2.065l-0.304,1.566l0.014,0.013    c0.117-0.139,0.265-0.248,0.445-0.324c0.18-0.077,0.365-0.115,0.554-0.115c0.243,0,0.462,0.041,0.658,0.121    c0.196,0.081,0.362,0.194,0.5,0.338c0.137,0.144,0.243,0.316,0.317,0.516s0.111,0.42,0.111,0.658c0,0.229-0.042,0.442-0.128,0.638    C20.657,9.6,20.54,9.769,20.391,9.911c-0.148,0.142-0.323,0.252-0.523,0.331c-0.201,0.079-0.413,0.118-0.638,0.118    c-0.22,0-0.424-0.033-0.611-0.098c-0.187-0.065-0.349-0.16-0.486-0.284c-0.137-0.124-0.247-0.275-0.328-0.456    c-0.081-0.18-0.124-0.382-0.128-0.607h0.425C18.107,9.077,18.14,9.226,18.201,9.361z"/>
		<path d="M23.904,5.726c0.214,0.151,0.38,0.343,0.5,0.577c0.119,0.234,0.2,0.495,0.243,0.783c0.042,0.288,0.064,0.569,0.064,0.844    c0,0.279-0.021,0.562-0.064,0.851c-0.043,0.288-0.124,0.549-0.243,0.783c-0.119,0.234-0.286,0.425-0.5,0.574    s-0.494,0.223-0.84,0.223c-0.342,0-0.621-0.075-0.837-0.223s-0.384-0.339-0.503-0.574c-0.119-0.234-0.2-0.495-0.243-0.783    c-0.042-0.288-0.064-0.569-0.064-0.844c0-0.279,0.021-0.562,0.064-0.851c0.043-0.288,0.124-0.549,0.243-0.783    c0.119-0.234,0.287-0.426,0.503-0.577c0.216-0.15,0.495-0.226,0.837-0.226C23.411,5.5,23.69,5.575,23.904,5.726z M22.416,6.066    c-0.162,0.14-0.285,0.313-0.368,0.52c-0.083,0.207-0.139,0.432-0.166,0.675c-0.027,0.243-0.041,0.466-0.041,0.668    c0,0.207,0.014,0.431,0.041,0.671c0.027,0.241,0.082,0.466,0.166,0.675c0.083,0.209,0.206,0.384,0.368,0.523    c0.162,0.14,0.378,0.209,0.648,0.209s0.486-0.07,0.648-0.209c0.162-0.139,0.285-0.314,0.368-0.523    c0.083-0.209,0.138-0.434,0.165-0.675c0.027-0.241,0.041-0.464,0.041-0.671c0-0.203-0.013-0.425-0.041-0.668    c-0.027-0.243-0.082-0.468-0.165-0.675c-0.083-0.207-0.206-0.38-0.368-0.52c-0.162-0.139-0.378-0.209-0.648-0.209    S22.578,5.927,22.416,6.066z"/>
	</g>
</g>
<g>
	<g>
		<path d="M23.199,120.256c0.004-0.234,0.045-0.441,0.121-0.621c0.077-0.18,0.178-0.342,0.304-0.486    c0.125-0.144,0.268-0.275,0.425-0.395c0.158-0.119,0.32-0.233,0.486-0.344s0.332-0.224,0.496-0.338    c0.164-0.115,0.312-0.237,0.442-0.368c0.131-0.13,0.229-0.264,0.294-0.401c0.065-0.138,0.098-0.301,0.098-0.489    c0-0.153-0.028-0.289-0.084-0.408s-0.133-0.221-0.229-0.304c-0.097-0.084-0.209-0.146-0.337-0.189s-0.264-0.064-0.408-0.064    c-0.194,0-0.359,0.036-0.496,0.108c-0.138,0.072-0.249,0.169-0.334,0.29c-0.085,0.122-0.147,0.262-0.186,0.419    s-0.055,0.324-0.05,0.499h-0.425c-0.005-0.243,0.023-0.467,0.084-0.671c0.061-0.205,0.154-0.382,0.28-0.53    s0.285-0.265,0.476-0.348c0.191-0.083,0.415-0.125,0.671-0.125c0.207,0,0.399,0.028,0.577,0.085    c0.178,0.056,0.333,0.139,0.466,0.249s0.236,0.249,0.311,0.415c0.074,0.167,0.111,0.36,0.111,0.581    c0,0.198-0.033,0.378-0.098,0.54c-0.065,0.162-0.153,0.311-0.264,0.445c-0.11,0.135-0.236,0.26-0.378,0.375    c-0.142,0.114-0.291,0.222-0.449,0.32c-0.112,0.076-0.245,0.161-0.398,0.253c-0.153,0.093-0.3,0.194-0.442,0.308    c-0.142,0.112-0.267,0.234-0.375,0.367s-0.176,0.278-0.203,0.436h2.626v0.392H23.199z"/>
		<path d="M29.425,115.717c0.214,0.15,0.38,0.343,0.5,0.577c0.119,0.233,0.2,0.495,0.243,0.782c0.042,0.288,0.064,0.569,0.064,0.844    c0,0.279-0.021,0.563-0.064,0.851c-0.043,0.288-0.124,0.55-0.243,0.783c-0.119,0.234-0.286,0.426-0.5,0.574    s-0.494,0.223-0.84,0.223c-0.342,0-0.621-0.074-0.837-0.223s-0.384-0.34-0.503-0.574c-0.119-0.233-0.2-0.495-0.243-0.783    c-0.042-0.287-0.064-0.569-0.064-0.844c0-0.278,0.021-0.562,0.064-0.851c0.043-0.287,0.124-0.549,0.243-0.782    c0.119-0.234,0.287-0.427,0.503-0.577c0.216-0.151,0.495-0.227,0.837-0.227C28.932,115.49,29.211,115.565,29.425,115.717z     M27.937,116.058c-0.162,0.14-0.285,0.312-0.368,0.52c-0.083,0.207-0.139,0.432-0.166,0.675s-0.041,0.466-0.041,0.668    c0,0.207,0.014,0.432,0.041,0.672c0.027,0.241,0.082,0.466,0.166,0.675c0.083,0.21,0.206,0.384,0.368,0.523    s0.378,0.209,0.648,0.209s0.486-0.069,0.648-0.209s0.285-0.313,0.368-0.523c0.083-0.209,0.138-0.434,0.165-0.675    c0.027-0.24,0.041-0.465,0.041-0.672c0-0.202-0.013-0.425-0.041-0.668c-0.027-0.243-0.082-0.468-0.165-0.675    c-0.083-0.207-0.206-0.38-0.368-0.52s-0.378-0.21-0.648-0.21S28.099,115.918,27.937,116.058z"/>
		<path d="M33.178,115.717c0.214,0.15,0.38,0.343,0.5,0.577c0.119,0.233,0.2,0.495,0.243,0.782c0.042,0.288,0.064,0.569,0.064,0.844    c0,0.279-0.021,0.563-0.064,0.851c-0.043,0.288-0.124,0.55-0.243,0.783c-0.119,0.234-0.286,0.426-0.5,0.574    s-0.494,0.223-0.84,0.223c-0.342,0-0.621-0.074-0.837-0.223s-0.384-0.34-0.503-0.574c-0.119-0.233-0.2-0.495-0.243-0.783    c-0.042-0.287-0.064-0.569-0.064-0.844c0-0.278,0.021-0.562,0.064-0.851c0.043-0.287,0.124-0.549,0.243-0.782    c0.119-0.234,0.287-0.427,0.503-0.577c0.216-0.151,0.495-0.227,0.837-0.227C32.685,115.49,32.964,115.565,33.178,115.717z     M31.69,116.058c-0.162,0.14-0.285,0.312-0.368,0.52c-0.083,0.207-0.139,0.432-0.166,0.675s-0.041,0.466-0.041,0.668    c0,0.207,0.014,0.432,0.041,0.672c0.027,0.241,0.082,0.466,0.166,0.675c0.083,0.21,0.206,0.384,0.368,0.523    s0.378,0.209,0.648,0.209s0.486-0.069,0.648-0.209s0.285-0.313,0.368-0.523c0.083-0.209,0.138-0.434,0.165-0.675    c0.027-0.24,0.041-0.465,0.041-0.672c0-0.202-0.013-0.425-0.041-0.668c-0.027-0.243-0.082-0.468-0.165-0.675    c-0.083-0.207-0.206-0.38-0.368-0.52s-0.378-0.21-0.648-0.21S31.852,115.918,31.69,116.058z"/>
		<path d="M36.931,115.717c0.214,0.15,0.38,0.343,0.5,0.577c0.119,0.233,0.2,0.495,0.243,0.782c0.042,0.288,0.064,0.569,0.064,0.844    c0,0.279-0.021,0.563-0.064,0.851c-0.043,0.288-0.124,0.55-0.243,0.783c-0.119,0.234-0.286,0.426-0.5,0.574    s-0.494,0.223-0.84,0.223c-0.342,0-0.621-0.074-0.837-0.223s-0.384-0.34-0.503-0.574c-0.119-0.233-0.2-0.495-0.243-0.783    c-0.042-0.287-0.064-0.569-0.064-0.844c0-0.278,0.021-0.562,0.064-0.851c0.043-0.287,0.124-0.549,0.243-0.782    c0.119-0.234,0.287-0.427,0.503-0.577c0.216-0.151,0.495-0.227,0.837-0.227C36.438,115.49,36.717,115.565,36.931,115.717z     M35.443,116.058c-0.162,0.14-0.285,0.312-0.368,0.52c-0.083,0.207-0.139,0.432-0.166,0.675s-0.041,0.466-0.041,0.668    c0,0.207,0.014,0.432,0.041,0.672c0.027,0.241,0.082,0.466,0.166,0.675c0.083,0.21,0.206,0.384,0.368,0.523    s0.378,0.209,0.648,0.209s0.486-0.069,0.648-0.209s0.285-0.313,0.368-0.523c0.083-0.209,0.138-0.434,0.165-0.675    c0.027-0.24,0.041-0.465,0.041-0.672c0-0.202-0.013-0.425-0.041-0.668c-0.027-0.243-0.082-0.468-0.165-0.675    c-0.083-0.207-0.206-0.38-0.368-0.52s-0.378-0.21-0.648-0.21S35.605,115.918,35.443,116.058z"/>
	</g>
</g>
<g>
	<g>
		<path d="M47.462,120.256c0.004-0.234,0.045-0.441,0.121-0.621c0.077-0.18,0.178-0.342,0.304-0.486    c0.125-0.144,0.268-0.275,0.425-0.395c0.158-0.119,0.32-0.233,0.486-0.344s0.332-0.224,0.496-0.338    c0.164-0.115,0.312-0.237,0.442-0.368c0.131-0.13,0.229-0.264,0.294-0.401c0.065-0.138,0.098-0.301,0.098-0.489    c0-0.153-0.028-0.289-0.084-0.408s-0.133-0.221-0.229-0.304c-0.097-0.084-0.209-0.146-0.337-0.189s-0.264-0.064-0.408-0.064    c-0.194,0-0.359,0.036-0.496,0.108c-0.138,0.072-0.249,0.169-0.334,0.29c-0.085,0.122-0.147,0.262-0.186,0.419    s-0.055,0.324-0.05,0.499h-0.425c-0.005-0.243,0.023-0.467,0.084-0.671c0.061-0.205,0.154-0.382,0.28-0.53    s0.285-0.265,0.476-0.348c0.191-0.083,0.415-0.125,0.671-0.125c0.207,0,0.399,0.028,0.577,0.085    c0.178,0.056,0.333,0.139,0.466,0.249s0.236,0.249,0.311,0.415c0.074,0.167,0.111,0.36,0.111,0.581    c0,0.198-0.033,0.378-0.098,0.54c-0.065,0.162-0.153,0.311-0.264,0.445c-0.11,0.135-0.236,0.26-0.378,0.375    c-0.142,0.114-0.291,0.222-0.449,0.32c-0.112,0.076-0.245,0.161-0.398,0.253c-0.153,0.093-0.3,0.194-0.442,0.308    c-0.142,0.112-0.267,0.234-0.375,0.367s-0.176,0.278-0.203,0.436h2.626v0.392H47.462z"/>
		<path d="M53.688,115.717c0.214,0.15,0.38,0.343,0.5,0.577c0.119,0.233,0.2,0.495,0.243,0.782c0.042,0.288,0.064,0.569,0.064,0.844    c0,0.279-0.021,0.563-0.064,0.851c-0.043,0.288-0.124,0.55-0.243,0.783c-0.119,0.234-0.286,0.426-0.5,0.574    s-0.494,0.223-0.84,0.223c-0.342,0-0.621-0.074-0.837-0.223s-0.384-0.34-0.503-0.574c-0.119-0.233-0.2-0.495-0.243-0.783    c-0.042-0.287-0.064-0.569-0.064-0.844c0-0.278,0.021-0.562,0.064-0.851c0.043-0.287,0.124-0.549,0.243-0.782    c0.119-0.234,0.287-0.427,0.503-0.577c0.216-0.151,0.495-0.227,0.837-0.227C53.195,115.49,53.475,115.565,53.688,115.717z     M52.2,116.058c-0.162,0.14-0.285,0.312-0.368,0.52c-0.083,0.207-0.139,0.432-0.166,0.675s-0.041,0.466-0.041,0.668    c0,0.207,0.014,0.432,0.041,0.672c0.027,0.241,0.082,0.466,0.166,0.675c0.083,0.21,0.206,0.384,0.368,0.523    s0.378,0.209,0.648,0.209s0.486-0.069,0.648-0.209s0.285-0.313,0.368-0.523c0.083-0.209,0.138-0.434,0.165-0.675    c0.027-0.24,0.041-0.465,0.041-0.672c0-0.202-0.013-0.425-0.041-0.668c-0.027-0.243-0.082-0.468-0.165-0.675    c-0.083-0.207-0.206-0.38-0.368-0.52s-0.378-0.21-0.648-0.21S52.362,115.918,52.2,116.058z"/>
		<path d="M57.441,115.717c0.214,0.15,0.38,0.343,0.5,0.577c0.119,0.233,0.2,0.495,0.243,0.782c0.042,0.288,0.064,0.569,0.064,0.844    c0,0.279-0.021,0.563-0.064,0.851c-0.043,0.288-0.124,0.55-0.243,0.783c-0.119,0.234-0.286,0.426-0.5,0.574    s-0.494,0.223-0.84,0.223c-0.342,0-0.621-0.074-0.837-0.223s-0.384-0.34-0.503-0.574c-0.119-0.233-0.2-0.495-0.243-0.783    c-0.042-0.287-0.064-0.569-0.064-0.844c0-0.278,0.021-0.562,0.064-0.851c0.043-0.287,0.124-0.549,0.243-0.782    c0.119-0.234,0.287-0.427,0.503-0.577c0.216-0.151,0.495-0.227,0.837-0.227C56.948,115.49,57.228,115.565,57.441,115.717z     M55.953,116.058c-0.162,0.14-0.285,0.312-0.368,0.52c-0.083,0.207-0.139,0.432-0.166,0.675s-0.041,0.466-0.041,0.668    c0,0.207,0.014,0.432,0.041,0.672c0.027,0.241,0.082,0.466,0.166,0.675c0.083,0.21,0.206,0.384,0.368,0.523    s0.378,0.209,0.648,0.209s0.486-0.069,0.648-0.209s0.285-0.313,0.368-0.523c0.083-0.209,0.138-0.434,0.165-0.675    c0.027-0.24,0.041-0.465,0.041-0.672c0-0.202-0.013-0.425-0.041-0.668c-0.027-0.243-0.082-0.468-0.165-0.675    c-0.083-0.207-0.206-0.38-0.368-0.52s-0.378-0.21-0.648-0.21S56.115,115.918,55.953,116.058z"/>
		<path d="M58.721,120.256c0.004-0.234,0.045-0.441,0.121-0.621c0.077-0.18,0.178-0.342,0.304-0.486    c0.125-0.144,0.268-0.275,0.425-0.395c0.158-0.119,0.32-0.233,0.486-0.344s0.332-0.224,0.496-0.338    c0.164-0.115,0.312-0.237,0.442-0.368c0.131-0.13,0.229-0.264,0.294-0.401c0.065-0.138,0.098-0.301,0.098-0.489    c0-0.153-0.028-0.289-0.084-0.408s-0.133-0.221-0.229-0.304c-0.097-0.084-0.209-0.146-0.337-0.189s-0.264-0.064-0.408-0.064    c-0.194,0-0.359,0.036-0.496,0.108c-0.138,0.072-0.249,0.169-0.334,0.29c-0.085,0.122-0.147,0.262-0.186,0.419    s-0.055,0.324-0.05,0.499h-0.425c-0.005-0.243,0.023-0.467,0.084-0.671c0.061-0.205,0.154-0.382,0.28-0.53    s0.285-0.265,0.476-0.348c0.191-0.083,0.415-0.125,0.671-0.125c0.207,0,0.399,0.028,0.577,0.085    c0.178,0.056,0.333,0.139,0.466,0.249s0.236,0.249,0.311,0.415c0.074,0.167,0.111,0.36,0.111,0.581    c0,0.198-0.033,0.378-0.098,0.54c-0.065,0.162-0.153,0.311-0.264,0.445c-0.11,0.135-0.236,0.26-0.378,0.375    c-0.142,0.114-0.291,0.222-0.449,0.32c-0.112,0.076-0.245,0.161-0.398,0.253c-0.153,0.093-0.3,0.194-0.442,0.308    c-0.142,0.112-0.267,0.234-0.375,0.367s-0.176,0.278-0.203,0.436h2.626v0.392H58.721z"/>
	</g>
</g>
<g>
	<g>
		<path d="M71.725,120.256c0.004-0.234,0.045-0.441,0.121-0.621c0.077-0.18,0.178-0.342,0.304-0.486    c0.125-0.144,0.268-0.275,0.425-0.395c0.158-0.119,0.32-0.233,0.486-0.344s0.332-0.224,0.496-0.338    c0.164-0.115,0.312-0.237,0.442-0.368c0.131-0.13,0.229-0.264,0.294-0.401c0.065-0.138,0.098-0.301,0.098-0.489    c0-0.153-0.028-0.289-0.084-0.408s-0.133-0.221-0.229-0.304c-0.097-0.084-0.209-0.146-0.337-0.189s-0.264-0.064-0.408-0.064    c-0.194,0-0.359,0.036-0.496,0.108c-0.138,0.072-0.249,0.169-0.334,0.29c-0.085,0.122-0.147,0.262-0.186,0.419    s-0.055,0.324-0.05,0.499h-0.425c-0.005-0.243,0.023-0.467,0.084-0.671c0.061-0.205,0.154-0.382,0.28-0.53    s0.285-0.265,0.476-0.348c0.191-0.083,0.415-0.125,0.671-0.125c0.207,0,0.399,0.028,0.577,0.085    c0.178,0.056,0.333,0.139,0.466,0.249s0.236,0.249,0.311,0.415c0.074,0.167,0.111,0.36,0.111,0.581    c0,0.198-0.033,0.378-0.098,0.54c-0.065,0.162-0.153,0.311-0.264,0.445c-0.11,0.135-0.236,0.26-0.378,0.375    c-0.142,0.114-0.291,0.222-0.449,0.32c-0.112,0.076-0.245,0.161-0.398,0.253c-0.153,0.093-0.3,0.194-0.442,0.308    c-0.142,0.112-0.267,0.234-0.375,0.367s-0.176,0.278-0.203,0.436h2.626v0.392H71.725z"/>
		<path d="M77.951,115.717c0.214,0.15,0.38,0.343,0.5,0.577c0.119,0.233,0.2,0.495,0.243,0.782c0.042,0.288,0.064,0.569,0.064,0.844    c0,0.279-0.021,0.563-0.064,0.851c-0.043,0.288-0.124,0.55-0.243,0.783c-0.119,0.234-0.286,0.426-0.5,0.574    s-0.494,0.223-0.84,0.223c-0.342,0-0.621-0.074-0.837-0.223s-0.384-0.34-0.503-0.574c-0.119-0.233-0.2-0.495-0.243-0.783    c-0.042-0.287-0.064-0.569-0.064-0.844c0-0.278,0.021-0.562,0.064-0.851c0.043-0.287,0.124-0.549,0.243-0.782    c0.119-0.234,0.287-0.427,0.503-0.577c0.216-0.151,0.495-0.227,0.837-0.227C77.458,115.49,77.737,115.565,77.951,115.717z     M76.463,116.058c-0.162,0.14-0.285,0.312-0.368,0.52c-0.083,0.207-0.139,0.432-0.166,0.675s-0.041,0.466-0.041,0.668    c0,0.207,0.014,0.432,0.041,0.672c0.027,0.241,0.082,0.466,0.166,0.675c0.083,0.21,0.206,0.384,0.368,0.523    s0.378,0.209,0.648,0.209s0.486-0.069,0.648-0.209s0.285-0.313,0.368-0.523c0.083-0.209,0.138-0.434,0.165-0.675    c0.027-0.24,0.041-0.465,0.041-0.672c0-0.202-0.013-0.425-0.041-0.668c-0.027-0.243-0.082-0.468-0.165-0.675    c-0.083-0.207-0.206-0.38-0.368-0.52s-0.378-0.21-0.648-0.21S76.625,115.918,76.463,116.058z"/>
		<path d="M81.704,115.717c0.214,0.15,0.38,0.343,0.5,0.577c0.12,0.233,0.2,0.495,0.243,0.782c0.043,0.288,0.064,0.569,0.064,0.844    c0,0.279-0.021,0.563-0.064,0.851c-0.043,0.288-0.123,0.55-0.243,0.783c-0.119,0.234-0.286,0.426-0.5,0.574    s-0.494,0.223-0.84,0.223c-0.342,0-0.621-0.074-0.837-0.223s-0.384-0.34-0.503-0.574c-0.119-0.233-0.2-0.495-0.243-0.783    c-0.042-0.287-0.064-0.569-0.064-0.844c0-0.278,0.021-0.562,0.064-0.851c0.043-0.287,0.124-0.549,0.243-0.782    c0.119-0.234,0.287-0.427,0.503-0.577c0.216-0.151,0.495-0.227,0.837-0.227C81.21,115.49,81.49,115.565,81.704,115.717z     M80.216,116.058c-0.162,0.14-0.285,0.312-0.368,0.52c-0.083,0.207-0.139,0.432-0.166,0.675s-0.041,0.466-0.041,0.668    c0,0.207,0.014,0.432,0.041,0.672c0.027,0.241,0.082,0.466,0.166,0.675c0.083,0.21,0.206,0.384,0.368,0.523    s0.378,0.209,0.648,0.209s0.486-0.069,0.648-0.209s0.285-0.313,0.368-0.523c0.083-0.209,0.138-0.434,0.165-0.675    c0.027-0.24,0.041-0.465,0.041-0.672c0-0.202-0.013-0.425-0.041-0.668c-0.027-0.243-0.082-0.468-0.165-0.675    c-0.083-0.207-0.206-0.38-0.368-0.52s-0.378-0.21-0.648-0.21S80.378,115.918,80.216,116.058z"/>
		<path d="M85.13,115.531h0.385v3.192h0.709v0.357h-0.709v1.175h-0.392v-1.175h-2.181v-0.411L85.13,115.531z M85.123,116.152h-0.014    l-1.782,2.571h1.796V116.152z"/>
	</g>
</g>
<g>
	<g>
		<path d="M95.987,120.256c0.004-0.234,0.045-0.441,0.121-0.621c0.077-0.18,0.178-0.342,0.304-0.486    c0.126-0.144,0.268-0.275,0.426-0.395c0.157-0.119,0.319-0.233,0.485-0.344c0.167-0.11,0.332-0.224,0.496-0.338    c0.165-0.115,0.312-0.237,0.442-0.368c0.131-0.13,0.229-0.264,0.294-0.401s0.098-0.301,0.098-0.489    c0-0.153-0.028-0.289-0.084-0.408c-0.057-0.119-0.133-0.221-0.229-0.304c-0.097-0.084-0.21-0.146-0.338-0.189    s-0.265-0.064-0.408-0.064c-0.193,0-0.359,0.036-0.496,0.108c-0.138,0.072-0.249,0.169-0.334,0.29    c-0.086,0.122-0.147,0.262-0.186,0.419c-0.039,0.157-0.056,0.324-0.051,0.499h-0.426c-0.004-0.243,0.024-0.467,0.085-0.671    c0.061-0.205,0.154-0.382,0.28-0.53s0.284-0.265,0.476-0.348s0.415-0.125,0.672-0.125c0.207,0,0.399,0.028,0.577,0.085    c0.178,0.056,0.333,0.139,0.466,0.249c0.132,0.11,0.235,0.249,0.31,0.415c0.075,0.167,0.112,0.36,0.112,0.581    c0,0.198-0.033,0.378-0.099,0.54s-0.152,0.311-0.263,0.445s-0.236,0.26-0.378,0.375c-0.142,0.114-0.292,0.222-0.449,0.32    c-0.112,0.076-0.245,0.161-0.398,0.253c-0.152,0.093-0.3,0.194-0.442,0.308c-0.142,0.112-0.267,0.234-0.374,0.367    c-0.108,0.133-0.176,0.278-0.203,0.436h2.626v0.392H95.987z"/>
		<path d="M102.214,115.717c0.214,0.15,0.38,0.343,0.5,0.577c0.119,0.233,0.2,0.495,0.242,0.782    c0.043,0.288,0.064,0.569,0.064,0.844c0,0.279-0.021,0.563-0.064,0.851c-0.042,0.288-0.123,0.55-0.242,0.783    c-0.12,0.234-0.286,0.426-0.5,0.574s-0.494,0.223-0.84,0.223c-0.343,0-0.621-0.074-0.838-0.223    c-0.216-0.148-0.383-0.34-0.502-0.574c-0.12-0.233-0.201-0.495-0.243-0.783c-0.043-0.287-0.064-0.569-0.064-0.844    c0-0.278,0.021-0.562,0.064-0.851c0.042-0.287,0.123-0.549,0.243-0.782c0.119-0.234,0.286-0.427,0.502-0.577    c0.217-0.151,0.495-0.227,0.838-0.227C101.72,115.49,102,115.565,102.214,115.717z M100.726,116.058    c-0.162,0.14-0.285,0.312-0.368,0.52s-0.138,0.432-0.165,0.675s-0.041,0.466-0.041,0.668c0,0.207,0.014,0.432,0.041,0.672    c0.027,0.241,0.082,0.466,0.165,0.675c0.083,0.21,0.206,0.384,0.368,0.523s0.378,0.209,0.648,0.209    c0.27,0,0.485-0.069,0.647-0.209s0.284-0.313,0.368-0.523c0.083-0.209,0.138-0.434,0.165-0.675    c0.027-0.24,0.041-0.465,0.041-0.672c0-0.202-0.014-0.425-0.041-0.668s-0.082-0.468-0.165-0.675    c-0.084-0.207-0.206-0.38-0.368-0.52s-0.378-0.21-0.647-0.21C101.104,115.848,100.888,115.918,100.726,116.058z"/>
		<path d="M105.967,115.717c0.214,0.15,0.38,0.343,0.5,0.577c0.119,0.233,0.2,0.495,0.242,0.782    c0.043,0.288,0.064,0.569,0.064,0.844c0,0.279-0.021,0.563-0.064,0.851c-0.042,0.288-0.123,0.55-0.242,0.783    c-0.12,0.234-0.286,0.426-0.5,0.574s-0.494,0.223-0.84,0.223c-0.343,0-0.621-0.074-0.838-0.223    c-0.216-0.148-0.383-0.34-0.502-0.574c-0.12-0.233-0.201-0.495-0.243-0.783c-0.043-0.287-0.064-0.569-0.064-0.844    c0-0.278,0.021-0.562,0.064-0.851c0.042-0.287,0.123-0.549,0.243-0.782c0.119-0.234,0.286-0.427,0.502-0.577    c0.217-0.151,0.495-0.227,0.838-0.227C105.473,115.49,105.753,115.565,105.967,115.717z M104.479,116.058    c-0.162,0.14-0.285,0.312-0.368,0.52s-0.138,0.432-0.165,0.675s-0.041,0.466-0.041,0.668c0,0.207,0.014,0.432,0.041,0.672    c0.027,0.241,0.082,0.466,0.165,0.675c0.083,0.21,0.206,0.384,0.368,0.523s0.378,0.209,0.648,0.209    c0.27,0,0.485-0.069,0.647-0.209s0.284-0.313,0.368-0.523c0.083-0.209,0.138-0.434,0.165-0.675    c0.027-0.24,0.041-0.465,0.041-0.672c0-0.202-0.014-0.425-0.041-0.668s-0.082-0.468-0.165-0.675    c-0.084-0.207-0.206-0.38-0.368-0.52s-0.378-0.21-0.647-0.21C104.856,115.848,104.641,115.918,104.479,116.058z"/>
		<path d="M109.673,116.091c-0.174-0.162-0.397-0.243-0.672-0.243s-0.497,0.07-0.668,0.21c-0.172,0.14-0.304,0.314-0.398,0.526    s-0.157,0.439-0.189,0.685c-0.031,0.246-0.047,0.477-0.047,0.692h0.014c0.112-0.234,0.282-0.423,0.51-0.567    c0.227-0.144,0.476-0.216,0.745-0.216c0.239,0,0.454,0.04,0.645,0.118c0.191,0.079,0.354,0.188,0.49,0.327    c0.135,0.14,0.239,0.307,0.313,0.5s0.111,0.405,0.111,0.635s-0.039,0.441-0.118,0.638c-0.079,0.195-0.188,0.364-0.331,0.506    c-0.142,0.142-0.311,0.252-0.506,0.331c-0.195,0.078-0.411,0.118-0.645,0.118c-0.288,0-0.536-0.044-0.742-0.132    c-0.207-0.088-0.378-0.23-0.514-0.429c-0.135-0.198-0.235-0.455-0.3-0.772c-0.065-0.317-0.099-0.708-0.099-1.172    c0-0.094,0.006-0.218,0.018-0.371c0.011-0.152,0.037-0.315,0.077-0.489c0.041-0.173,0.098-0.349,0.173-0.526    c0.074-0.178,0.173-0.339,0.297-0.482c0.123-0.145,0.277-0.261,0.462-0.352c0.185-0.09,0.405-0.135,0.661-0.135    c0.424,0,0.759,0.102,1.006,0.304c0.248,0.203,0.396,0.513,0.446,0.932h-0.426C109.95,116.465,109.846,116.253,109.673,116.091z     M108.464,117.634c-0.146,0.065-0.27,0.154-0.371,0.267c-0.101,0.112-0.178,0.244-0.229,0.395    c-0.052,0.151-0.077,0.313-0.077,0.489c0,0.167,0.022,0.324,0.067,0.473s0.115,0.278,0.213,0.388    c0.097,0.11,0.219,0.197,0.367,0.261c0.148,0.062,0.326,0.094,0.533,0.094c0.171,0,0.325-0.032,0.463-0.098    c0.137-0.065,0.257-0.152,0.357-0.263c0.102-0.11,0.179-0.24,0.233-0.389c0.054-0.148,0.081-0.304,0.081-0.466    c0-0.171-0.026-0.333-0.078-0.485c-0.052-0.153-0.126-0.286-0.223-0.398s-0.216-0.201-0.357-0.267s-0.303-0.099-0.483-0.099    C108.775,117.535,108.61,117.568,108.464,117.634z"/>
	</g>
</g>
<g>
	<g>
		<path d="M120.25,120.256c0.004-0.234,0.045-0.441,0.121-0.621c0.077-0.18,0.178-0.342,0.304-0.486    c0.126-0.144,0.268-0.275,0.426-0.395c0.157-0.119,0.319-0.233,0.485-0.344c0.167-0.11,0.332-0.224,0.496-0.338    c0.165-0.115,0.312-0.237,0.442-0.368c0.131-0.13,0.229-0.264,0.294-0.401s0.098-0.301,0.098-0.489    c0-0.153-0.028-0.289-0.084-0.408c-0.057-0.119-0.133-0.221-0.229-0.304c-0.097-0.084-0.21-0.146-0.338-0.189    s-0.265-0.064-0.408-0.064c-0.193,0-0.359,0.036-0.496,0.108c-0.138,0.072-0.249,0.169-0.334,0.29    c-0.086,0.122-0.147,0.262-0.186,0.419c-0.039,0.157-0.056,0.324-0.051,0.499h-0.426c-0.004-0.243,0.024-0.467,0.085-0.671    c0.061-0.205,0.154-0.382,0.28-0.53s0.284-0.265,0.476-0.348s0.415-0.125,0.672-0.125c0.207,0,0.399,0.028,0.577,0.085    c0.178,0.056,0.333,0.139,0.466,0.249c0.132,0.11,0.235,0.249,0.31,0.415c0.075,0.167,0.112,0.36,0.112,0.581    c0,0.198-0.033,0.378-0.099,0.54s-0.152,0.311-0.263,0.445s-0.236,0.26-0.378,0.375c-0.142,0.114-0.292,0.222-0.449,0.32    c-0.112,0.076-0.245,0.161-0.398,0.253c-0.152,0.093-0.3,0.194-0.442,0.308c-0.142,0.112-0.267,0.234-0.374,0.367    c-0.108,0.133-0.176,0.278-0.203,0.436h2.626v0.392H120.25z"/>
		<path d="M126.477,115.717c0.214,0.15,0.38,0.343,0.5,0.577c0.119,0.233,0.2,0.495,0.242,0.782    c0.043,0.288,0.064,0.569,0.064,0.844c0,0.279-0.021,0.563-0.064,0.851c-0.042,0.288-0.123,0.55-0.242,0.783    c-0.12,0.234-0.286,0.426-0.5,0.574s-0.494,0.223-0.84,0.223c-0.343,0-0.621-0.074-0.838-0.223    c-0.216-0.148-0.383-0.34-0.502-0.574c-0.12-0.233-0.201-0.495-0.243-0.783c-0.043-0.287-0.064-0.569-0.064-0.844    c0-0.278,0.021-0.562,0.064-0.851c0.042-0.287,0.123-0.549,0.243-0.782c0.119-0.234,0.286-0.427,0.502-0.577    c0.217-0.151,0.495-0.227,0.838-0.227C125.982,115.49,126.263,115.565,126.477,115.717z M124.988,116.058    c-0.162,0.14-0.285,0.312-0.368,0.52s-0.138,0.432-0.165,0.675s-0.041,0.466-0.041,0.668c0,0.207,0.014,0.432,0.041,0.672    c0.027,0.241,0.082,0.466,0.165,0.675c0.083,0.21,0.206,0.384,0.368,0.523s0.378,0.209,0.648,0.209    c0.27,0,0.485-0.069,0.647-0.209s0.284-0.313,0.368-0.523c0.083-0.209,0.138-0.434,0.165-0.675    c0.027-0.24,0.041-0.465,0.041-0.672c0-0.202-0.014-0.425-0.041-0.668s-0.082-0.468-0.165-0.675    c-0.084-0.207-0.206-0.38-0.368-0.52s-0.378-0.21-0.647-0.21C125.366,115.848,125.15,115.918,124.988,116.058z"/>
		<path d="M130.229,115.717c0.214,0.15,0.38,0.343,0.5,0.577c0.119,0.233,0.2,0.495,0.242,0.782    c0.043,0.288,0.064,0.569,0.064,0.844c0,0.279-0.021,0.563-0.064,0.851c-0.042,0.288-0.123,0.55-0.242,0.783    c-0.12,0.234-0.286,0.426-0.5,0.574s-0.494,0.223-0.84,0.223c-0.343,0-0.621-0.074-0.838-0.223    c-0.216-0.148-0.383-0.34-0.502-0.574c-0.12-0.233-0.201-0.495-0.243-0.783c-0.043-0.287-0.064-0.569-0.064-0.844    c0-0.278,0.021-0.562,0.064-0.851c0.042-0.287,0.123-0.549,0.243-0.782c0.119-0.234,0.286-0.427,0.502-0.577    c0.217-0.151,0.495-0.227,0.838-0.227C129.735,115.49,130.016,115.565,130.229,115.717z M128.741,116.058    c-0.162,0.14-0.285,0.312-0.368,0.52s-0.138,0.432-0.165,0.675s-0.041,0.466-0.041,0.668c0,0.207,0.014,0.432,0.041,0.672    c0.027,0.241,0.082,0.466,0.165,0.675c0.083,0.21,0.206,0.384,0.368,0.523s0.378,0.209,0.648,0.209    c0.27,0,0.485-0.069,0.647-0.209s0.284-0.313,0.368-0.523c0.083-0.209,0.138-0.434,0.165-0.675    c0.027-0.24,0.041-0.465,0.041-0.672c0-0.202-0.014-0.425-0.041-0.668s-0.082-0.468-0.165-0.675    c-0.084-0.207-0.206-0.38-0.368-0.52s-0.378-0.21-0.647-0.21C129.119,115.848,128.903,115.918,128.741,116.058z"/>
		<path d="M134.371,117.33c-0.136,0.182-0.324,0.31-0.567,0.381v0.014c0.311,0.063,0.549,0.199,0.716,0.408    c0.166,0.209,0.249,0.476,0.249,0.8c0,0.239-0.043,0.447-0.128,0.625c-0.086,0.178-0.202,0.325-0.351,0.441    c-0.148,0.117-0.321,0.205-0.517,0.264c-0.196,0.059-0.406,0.088-0.631,0.088c-0.221,0-0.431-0.029-0.628-0.088    c-0.198-0.059-0.371-0.146-0.521-0.264c-0.148-0.116-0.265-0.264-0.351-0.441s-0.128-0.386-0.128-0.625    c0.009-0.311,0.097-0.576,0.263-0.796c0.167-0.221,0.398-0.358,0.695-0.412v-0.014c-0.247-0.076-0.438-0.203-0.57-0.381    s-0.199-0.397-0.199-0.658c0-0.203,0.042-0.378,0.125-0.526s0.192-0.271,0.327-0.368c0.136-0.097,0.288-0.169,0.459-0.216    c0.171-0.048,0.345-0.071,0.521-0.071c0.175,0,0.349,0.023,0.52,0.071c0.171,0.047,0.325,0.119,0.462,0.216    c0.138,0.097,0.248,0.22,0.331,0.368s0.125,0.323,0.125,0.526C134.573,116.928,134.506,117.147,134.371,117.33z M133.611,119.936    c0.146-0.043,0.273-0.108,0.381-0.196c0.108-0.088,0.194-0.199,0.257-0.334c0.063-0.135,0.095-0.292,0.095-0.473    c0-0.171-0.033-0.32-0.098-0.448c-0.065-0.129-0.153-0.236-0.264-0.324s-0.238-0.153-0.385-0.196    c-0.146-0.042-0.298-0.062-0.455-0.057c-0.162-0.005-0.316,0.013-0.463,0.054c-0.146,0.04-0.273,0.104-0.381,0.192    c-0.108,0.088-0.195,0.197-0.261,0.327c-0.064,0.131-0.098,0.281-0.098,0.452c0,0.176,0.031,0.331,0.095,0.466    c0.062,0.135,0.148,0.246,0.257,0.334c0.107,0.088,0.234,0.154,0.381,0.199s0.303,0.067,0.47,0.067    C133.309,119.999,133.465,119.979,133.611,119.936z M133.521,117.505c0.121-0.033,0.228-0.086,0.32-0.158    c0.092-0.072,0.166-0.164,0.223-0.276c0.057-0.113,0.084-0.246,0.084-0.398c0-0.136-0.025-0.255-0.077-0.358    s-0.123-0.188-0.213-0.256s-0.195-0.119-0.317-0.155c-0.121-0.036-0.254-0.055-0.397-0.055c-0.131,0-0.257,0.019-0.379,0.055    c-0.121,0.036-0.229,0.088-0.323,0.155c-0.095,0.067-0.17,0.152-0.227,0.256s-0.084,0.223-0.084,0.358    c0,0.157,0.029,0.292,0.088,0.404c0.058,0.113,0.135,0.205,0.229,0.277c0.094,0.072,0.202,0.124,0.323,0.155    c0.122,0.031,0.245,0.045,0.372,0.04C133.272,117.554,133.398,117.539,133.521,117.505z"/>
	</g>
</g>
<g>
	<g>
		<path d="M144.514,120.256c0.004-0.234,0.045-0.441,0.121-0.621c0.077-0.18,0.178-0.342,0.304-0.486    c0.126-0.144,0.268-0.275,0.426-0.395c0.157-0.119,0.319-0.233,0.485-0.344c0.167-0.11,0.332-0.224,0.496-0.338    c0.165-0.115,0.312-0.237,0.442-0.368c0.131-0.13,0.229-0.264,0.294-0.401s0.098-0.301,0.098-0.489    c0-0.153-0.028-0.289-0.084-0.408c-0.057-0.119-0.133-0.221-0.229-0.304c-0.097-0.084-0.21-0.146-0.338-0.189    s-0.265-0.064-0.408-0.064c-0.193,0-0.359,0.036-0.496,0.108c-0.138,0.072-0.249,0.169-0.334,0.29    c-0.086,0.122-0.147,0.262-0.186,0.419c-0.039,0.157-0.056,0.324-0.051,0.499h-0.426c-0.004-0.243,0.024-0.467,0.085-0.671    c0.061-0.205,0.154-0.382,0.28-0.53s0.284-0.265,0.476-0.348s0.415-0.125,0.672-0.125c0.207,0,0.399,0.028,0.577,0.085    c0.178,0.056,0.333,0.139,0.466,0.249c0.132,0.11,0.235,0.249,0.31,0.415c0.075,0.167,0.112,0.36,0.112,0.581    c0,0.198-0.033,0.378-0.099,0.54s-0.152,0.311-0.263,0.445s-0.236,0.26-0.378,0.375c-0.142,0.114-0.292,0.222-0.449,0.32    c-0.112,0.076-0.245,0.161-0.398,0.253c-0.152,0.093-0.3,0.194-0.442,0.308c-0.142,0.112-0.267,0.234-0.374,0.367    c-0.108,0.133-0.176,0.278-0.203,0.436h2.626v0.392H144.514z"/>
		<path d="M150.74,115.717c0.214,0.15,0.38,0.343,0.5,0.577c0.119,0.233,0.2,0.495,0.242,0.782c0.043,0.288,0.064,0.569,0.064,0.844    c0,0.279-0.021,0.563-0.064,0.851c-0.042,0.288-0.123,0.55-0.242,0.783c-0.12,0.234-0.286,0.426-0.5,0.574    s-0.494,0.223-0.84,0.223c-0.343,0-0.621-0.074-0.838-0.223c-0.216-0.148-0.383-0.34-0.502-0.574    c-0.12-0.233-0.201-0.495-0.243-0.783c-0.043-0.287-0.064-0.569-0.064-0.844c0-0.278,0.021-0.562,0.064-0.851    c0.042-0.287,0.123-0.549,0.243-0.782c0.119-0.234,0.286-0.427,0.502-0.577c0.217-0.151,0.495-0.227,0.838-0.227    C150.246,115.49,150.526,115.565,150.74,115.717z M149.252,116.058c-0.162,0.14-0.285,0.312-0.368,0.52s-0.138,0.432-0.165,0.675    s-0.041,0.466-0.041,0.668c0,0.207,0.014,0.432,0.041,0.672c0.027,0.241,0.082,0.466,0.165,0.675    c0.083,0.21,0.206,0.384,0.368,0.523s0.378,0.209,0.648,0.209c0.27,0,0.485-0.069,0.647-0.209s0.284-0.313,0.368-0.523    c0.083-0.209,0.138-0.434,0.165-0.675c0.027-0.24,0.041-0.465,0.041-0.672c0-0.202-0.014-0.425-0.041-0.668    s-0.082-0.468-0.165-0.675c-0.084-0.207-0.206-0.38-0.368-0.52s-0.378-0.21-0.647-0.21    C149.63,115.848,149.414,115.918,149.252,116.058z"/>
		<path d="M152.934,116.412c0.151-0.016,0.281-0.053,0.392-0.111s0.203-0.147,0.277-0.267s0.127-0.287,0.158-0.503h0.345v4.725    h-0.426v-3.51h-1.249v-0.304C152.615,116.438,152.783,116.428,152.934,116.412z"/>
		<path d="M158.246,115.717c0.214,0.15,0.38,0.343,0.5,0.577c0.119,0.233,0.2,0.495,0.242,0.782    c0.043,0.288,0.064,0.569,0.064,0.844c0,0.279-0.021,0.563-0.064,0.851c-0.042,0.288-0.123,0.55-0.242,0.783    c-0.12,0.234-0.286,0.426-0.5,0.574s-0.494,0.223-0.84,0.223c-0.343,0-0.621-0.074-0.838-0.223    c-0.216-0.148-0.383-0.34-0.502-0.574c-0.12-0.233-0.201-0.495-0.243-0.783c-0.043-0.287-0.064-0.569-0.064-0.844    c0-0.278,0.021-0.562,0.064-0.851c0.042-0.287,0.123-0.549,0.243-0.782c0.119-0.234,0.286-0.427,0.502-0.577    c0.217-0.151,0.495-0.227,0.838-0.227C157.752,115.49,158.032,115.565,158.246,115.717z M156.758,116.058    c-0.162,0.14-0.285,0.312-0.368,0.52s-0.138,0.432-0.165,0.675s-0.041,0.466-0.041,0.668c0,0.207,0.014,0.432,0.041,0.672    c0.027,0.241,0.082,0.466,0.165,0.675c0.083,0.21,0.206,0.384,0.368,0.523s0.378,0.209,0.648,0.209    c0.27,0,0.485-0.069,0.647-0.209s0.284-0.313,0.368-0.523c0.083-0.209,0.138-0.434,0.165-0.675    c0.027-0.24,0.041-0.465,0.041-0.672c0-0.202-0.014-0.425-0.041-0.668s-0.082-0.468-0.165-0.675    c-0.084-0.207-0.206-0.38-0.368-0.52s-0.378-0.21-0.647-0.21C157.136,115.848,156.92,115.918,156.758,116.058z"/>
	</g>
</g>
<g>
	<g>
		<path d="M168.777,120.256c0.004-0.234,0.045-0.441,0.121-0.621c0.077-0.18,0.178-0.342,0.304-0.486    c0.126-0.144,0.268-0.275,0.426-0.395c0.157-0.119,0.319-0.233,0.485-0.344c0.167-0.11,0.332-0.224,0.496-0.338    c0.165-0.115,0.312-0.237,0.442-0.368c0.131-0.13,0.229-0.264,0.294-0.401s0.098-0.301,0.098-0.489    c0-0.153-0.028-0.289-0.084-0.408c-0.057-0.119-0.133-0.221-0.229-0.304c-0.097-0.084-0.21-0.146-0.338-0.189    s-0.265-0.064-0.408-0.064c-0.193,0-0.359,0.036-0.496,0.108c-0.138,0.072-0.249,0.169-0.334,0.29    c-0.086,0.122-0.147,0.262-0.186,0.419c-0.039,0.157-0.056,0.324-0.051,0.499h-0.426c-0.004-0.243,0.024-0.467,0.085-0.671    c0.061-0.205,0.154-0.382,0.28-0.53s0.284-0.265,0.476-0.348s0.415-0.125,0.672-0.125c0.207,0,0.399,0.028,0.577,0.085    c0.178,0.056,0.333,0.139,0.466,0.249c0.132,0.11,0.235,0.249,0.31,0.415c0.075,0.167,0.112,0.36,0.112,0.581    c0,0.198-0.033,0.378-0.099,0.54s-0.152,0.311-0.263,0.445s-0.236,0.26-0.378,0.375c-0.142,0.114-0.292,0.222-0.449,0.32    c-0.112,0.076-0.245,0.161-0.398,0.253c-0.152,0.093-0.3,0.194-0.442,0.308c-0.142,0.112-0.267,0.234-0.374,0.367    c-0.108,0.133-0.176,0.278-0.203,0.436h2.626v0.392H168.777z"/>
		<path d="M175.004,115.717c0.214,0.15,0.38,0.343,0.5,0.577c0.119,0.233,0.2,0.495,0.242,0.782    c0.043,0.288,0.064,0.569,0.064,0.844c0,0.279-0.021,0.563-0.064,0.851c-0.042,0.288-0.123,0.55-0.242,0.783    c-0.12,0.234-0.286,0.426-0.5,0.574s-0.494,0.223-0.84,0.223c-0.343,0-0.621-0.074-0.838-0.223    c-0.216-0.148-0.383-0.34-0.502-0.574c-0.12-0.233-0.201-0.495-0.243-0.783c-0.043-0.287-0.064-0.569-0.064-0.844    c0-0.278,0.021-0.562,0.064-0.851c0.042-0.287,0.123-0.549,0.243-0.782c0.119-0.234,0.286-0.427,0.502-0.577    c0.217-0.151,0.495-0.227,0.838-0.227C174.51,115.49,174.79,115.565,175.004,115.717z M173.516,116.058    c-0.162,0.14-0.285,0.312-0.368,0.52s-0.138,0.432-0.165,0.675s-0.041,0.466-0.041,0.668c0,0.207,0.014,0.432,0.041,0.672    c0.027,0.241,0.082,0.466,0.165,0.675c0.083,0.21,0.206,0.384,0.368,0.523s0.378,0.209,0.648,0.209    c0.27,0,0.485-0.069,0.647-0.209s0.284-0.313,0.368-0.523c0.083-0.209,0.138-0.434,0.165-0.675    c0.027-0.24,0.041-0.465,0.041-0.672c0-0.202-0.014-0.425-0.041-0.668s-0.082-0.468-0.165-0.675    c-0.084-0.207-0.206-0.38-0.368-0.52s-0.378-0.21-0.647-0.21C173.894,115.848,173.678,115.918,173.516,116.058z"/>
		<path d="M177.197,116.412c0.151-0.016,0.281-0.053,0.392-0.111s0.203-0.147,0.277-0.267s0.127-0.287,0.158-0.503h0.345v4.725    h-0.426v-3.51h-1.249v-0.304C176.879,116.438,177.047,116.428,177.197,116.412z"/>
		<path d="M180.036,120.256c0.004-0.234,0.045-0.441,0.121-0.621c0.077-0.18,0.178-0.342,0.304-0.486    c0.126-0.144,0.268-0.275,0.426-0.395c0.157-0.119,0.319-0.233,0.485-0.344c0.167-0.11,0.332-0.224,0.496-0.338    c0.165-0.115,0.312-0.237,0.442-0.368c0.131-0.13,0.229-0.264,0.294-0.401s0.098-0.301,0.098-0.489    c0-0.153-0.028-0.289-0.084-0.408c-0.057-0.119-0.133-0.221-0.229-0.304c-0.097-0.084-0.21-0.146-0.338-0.189    s-0.265-0.064-0.408-0.064c-0.193,0-0.359,0.036-0.496,0.108c-0.138,0.072-0.249,0.169-0.334,0.29    c-0.086,0.122-0.147,0.262-0.186,0.419c-0.039,0.157-0.056,0.324-0.051,0.499h-0.426c-0.004-0.243,0.024-0.467,0.085-0.671    c0.061-0.205,0.154-0.382,0.28-0.53s0.284-0.265,0.476-0.348s0.415-0.125,0.672-0.125c0.207,0,0.399,0.028,0.577,0.085    c0.178,0.056,0.333,0.139,0.466,0.249c0.132,0.11,0.235,0.249,0.31,0.415c0.075,0.167,0.112,0.36,0.112,0.581    c0,0.198-0.033,0.378-0.099,0.54s-0.152,0.311-0.263,0.445s-0.236,0.26-0.378,0.375c-0.142,0.114-0.292,0.222-0.449,0.32    c-0.112,0.076-0.245,0.161-0.398,0.253c-0.152,0.093-0.3,0.194-0.442,0.308c-0.142,0.112-0.267,0.234-0.374,0.367    c-0.108,0.133-0.176,0.278-0.203,0.436h2.626v0.392H180.036z"/>
	</g>
</g>
<g>
	<g>
		<path d="M193.04,120.256c0.004-0.234,0.045-0.441,0.121-0.621c0.077-0.18,0.178-0.342,0.304-0.486    c0.126-0.144,0.268-0.275,0.426-0.395c0.157-0.119,0.319-0.233,0.485-0.344c0.167-0.11,0.332-0.224,0.496-0.338    c0.165-0.115,0.312-0.237,0.442-0.368c0.131-0.13,0.229-0.264,0.294-0.401s0.098-0.301,0.098-0.489    c0-0.153-0.028-0.289-0.084-0.408c-0.057-0.119-0.133-0.221-0.229-0.304c-0.097-0.084-0.21-0.146-0.338-0.189    s-0.265-0.064-0.408-0.064c-0.193,0-0.359,0.036-0.496,0.108c-0.138,0.072-0.249,0.169-0.334,0.29    c-0.086,0.122-0.147,0.262-0.186,0.419c-0.039,0.157-0.056,0.324-0.051,0.499h-0.426c-0.004-0.243,0.024-0.467,0.085-0.671    c0.061-0.205,0.154-0.382,0.28-0.53s0.284-0.265,0.476-0.348s0.415-0.125,0.672-0.125c0.207,0,0.399,0.028,0.577,0.085    c0.178,0.056,0.333,0.139,0.466,0.249c0.132,0.11,0.235,0.249,0.31,0.415c0.075,0.167,0.112,0.36,0.112,0.581    c0,0.198-0.033,0.378-0.099,0.54s-0.152,0.311-0.263,0.445s-0.236,0.26-0.378,0.375c-0.142,0.114-0.292,0.222-0.449,0.32    c-0.112,0.076-0.245,0.161-0.398,0.253c-0.152,0.093-0.3,0.194-0.442,0.308c-0.142,0.112-0.267,0.234-0.374,0.367    c-0.108,0.133-0.176,0.278-0.203,0.436h2.626v0.392H193.04z"/>
		<path d="M199.267,115.717c0.214,0.15,0.38,0.343,0.5,0.577c0.119,0.233,0.2,0.495,0.242,0.782    c0.043,0.288,0.064,0.569,0.064,0.844c0,0.279-0.021,0.563-0.064,0.851c-0.042,0.288-0.123,0.55-0.242,0.783    c-0.12,0.234-0.286,0.426-0.5,0.574s-0.494,0.223-0.84,0.223c-0.343,0-0.621-0.074-0.838-0.223    c-0.216-0.148-0.383-0.34-0.502-0.574c-0.12-0.233-0.201-0.495-0.243-0.783c-0.043-0.287-0.064-0.569-0.064-0.844    c0-0.278,0.021-0.562,0.064-0.851c0.042-0.287,0.123-0.549,0.243-0.782c0.119-0.234,0.286-0.427,0.502-0.577    c0.217-0.151,0.495-0.227,0.838-0.227C198.772,115.49,199.053,115.565,199.267,115.717z M197.778,116.058    c-0.162,0.14-0.285,0.312-0.368,0.52s-0.138,0.432-0.165,0.675s-0.041,0.466-0.041,0.668c0,0.207,0.014,0.432,0.041,0.672    c0.027,0.241,0.082,0.466,0.165,0.675c0.083,0.21,0.206,0.384,0.368,0.523s0.378,0.209,0.648,0.209    c0.27,0,0.485-0.069,0.647-0.209s0.284-0.313,0.368-0.523c0.083-0.209,0.138-0.434,0.165-0.675    c0.027-0.24,0.041-0.465,0.041-0.672c0-0.202-0.014-0.425-0.041-0.668s-0.082-0.468-0.165-0.675    c-0.084-0.207-0.206-0.38-0.368-0.52s-0.378-0.21-0.647-0.21C198.156,115.848,197.94,115.918,197.778,116.058z"/>
		<path d="M201.46,116.412c0.151-0.016,0.281-0.053,0.392-0.111s0.203-0.147,0.277-0.267s0.127-0.287,0.158-0.503h0.345v4.725    h-0.426v-3.51h-1.249v-0.304C201.142,116.438,201.31,116.428,201.46,116.412z"/>
		<path d="M206.445,115.531h0.385v3.192h0.709v0.357h-0.709v1.175h-0.392v-1.175h-2.181v-0.411L206.445,115.531z M206.438,116.152    h-0.014l-1.782,2.571h1.796V116.152z"/>
	</g>
</g>
<g>
	<g>
		<path d="M217.303,120.256c0.004-0.234,0.045-0.441,0.121-0.621c0.077-0.18,0.178-0.342,0.304-0.486    c0.126-0.144,0.268-0.275,0.426-0.395c0.157-0.119,0.319-0.233,0.485-0.344c0.167-0.11,0.332-0.224,0.496-0.338    c0.165-0.115,0.312-0.237,0.442-0.368c0.131-0.13,0.229-0.264,0.294-0.401s0.098-0.301,0.098-0.489    c0-0.153-0.028-0.289-0.084-0.408c-0.057-0.119-0.133-0.221-0.229-0.304c-0.097-0.084-0.21-0.146-0.338-0.189    s-0.265-0.064-0.408-0.064c-0.193,0-0.359,0.036-0.496,0.108c-0.138,0.072-0.249,0.169-0.334,0.29    c-0.086,0.122-0.147,0.262-0.186,0.419c-0.039,0.157-0.056,0.324-0.051,0.499h-0.426c-0.004-0.243,0.024-0.467,0.085-0.671    c0.061-0.205,0.154-0.382,0.28-0.53s0.284-0.265,0.476-0.348s0.415-0.125,0.672-0.125c0.207,0,0.399,0.028,0.577,0.085    c0.178,0.056,0.333,0.139,0.466,0.249c0.132,0.11,0.235,0.249,0.31,0.415c0.075,0.167,0.112,0.36,0.112,0.581    c0,0.198-0.033,0.378-0.099,0.54s-0.152,0.311-0.263,0.445s-0.236,0.26-0.378,0.375c-0.142,0.114-0.292,0.222-0.449,0.32    c-0.112,0.076-0.245,0.161-0.398,0.253c-0.152,0.093-0.3,0.194-0.442,0.308c-0.142,0.112-0.267,0.234-0.374,0.367    c-0.108,0.133-0.176,0.278-0.203,0.436h2.626v0.392H217.303z"/>
		<path d="M223.529,115.717c0.214,0.15,0.38,0.343,0.5,0.577c0.119,0.233,0.2,0.495,0.242,0.782    c0.043,0.288,0.064,0.569,0.064,0.844c0,0.279-0.021,0.563-0.064,0.851c-0.042,0.288-0.123,0.55-0.242,0.783    c-0.12,0.234-0.286,0.426-0.5,0.574s-0.494,0.223-0.84,0.223c-0.343,0-0.621-0.074-0.838-0.223    c-0.216-0.148-0.383-0.34-0.502-0.574c-0.12-0.233-0.201-0.495-0.243-0.783c-0.043-0.287-0.064-0.569-0.064-0.844    c0-0.278,0.021-0.562,0.064-0.851c0.042-0.287,0.123-0.549,0.243-0.782c0.119-0.234,0.286-0.427,0.502-0.577    c0.217-0.151,0.495-0.227,0.838-0.227C223.035,115.49,223.315,115.565,223.529,115.717z M222.041,116.058    c-0.162,0.14-0.285,0.312-0.368,0.52s-0.138,0.432-0.165,0.675s-0.041,0.466-0.041,0.668c0,0.207,0.014,0.432,0.041,0.672    c0.027,0.241,0.082,0.466,0.165,0.675c0.083,0.21,0.206,0.384,0.368,0.523s0.378,0.209,0.648,0.209    c0.27,0,0.485-0.069,0.647-0.209s0.284-0.313,0.368-0.523c0.083-0.209,0.138-0.434,0.165-0.675    c0.027-0.24,0.041-0.465,0.041-0.672c0-0.202-0.014-0.425-0.041-0.668s-0.082-0.468-0.165-0.675    c-0.084-0.207-0.206-0.38-0.368-0.52s-0.378-0.21-0.647-0.21C222.419,115.848,222.203,115.918,222.041,116.058z"/>
		<path d="M225.723,116.412c0.151-0.016,0.281-0.053,0.392-0.111s0.203-0.147,0.277-0.267s0.127-0.287,0.158-0.503h0.345v4.725    h-0.426v-3.51h-1.249v-0.304C225.404,116.438,225.572,116.428,225.723,116.412z"/>
		<path d="M230.988,116.091c-0.174-0.162-0.397-0.243-0.672-0.243s-0.497,0.07-0.668,0.21c-0.172,0.14-0.304,0.314-0.398,0.526    s-0.157,0.439-0.189,0.685c-0.031,0.246-0.047,0.477-0.047,0.692h0.014c0.112-0.234,0.282-0.423,0.51-0.567    c0.227-0.144,0.476-0.216,0.745-0.216c0.239,0,0.454,0.04,0.645,0.118c0.191,0.079,0.354,0.188,0.49,0.327    c0.135,0.14,0.239,0.307,0.313,0.5s0.111,0.405,0.111,0.635s-0.039,0.441-0.118,0.638c-0.079,0.195-0.188,0.364-0.331,0.506    c-0.142,0.142-0.311,0.252-0.506,0.331c-0.195,0.078-0.411,0.118-0.645,0.118c-0.288,0-0.536-0.044-0.742-0.132    c-0.207-0.088-0.378-0.23-0.514-0.429c-0.135-0.198-0.235-0.455-0.3-0.772c-0.065-0.317-0.099-0.708-0.099-1.172    c0-0.094,0.006-0.218,0.018-0.371c0.011-0.152,0.037-0.315,0.077-0.489c0.041-0.173,0.098-0.349,0.173-0.526    c0.074-0.178,0.173-0.339,0.297-0.482c0.123-0.145,0.277-0.261,0.462-0.352c0.185-0.09,0.405-0.135,0.661-0.135    c0.424,0,0.759,0.102,1.006,0.304c0.248,0.203,0.396,0.513,0.446,0.932h-0.426C231.266,116.465,231.161,116.253,230.988,116.091z     M229.779,117.634c-0.146,0.065-0.27,0.154-0.371,0.267c-0.101,0.112-0.178,0.244-0.229,0.395    c-0.052,0.151-0.077,0.313-0.077,0.489c0,0.167,0.022,0.324,0.067,0.473s0.115,0.278,0.213,0.388    c0.097,0.11,0.219,0.197,0.367,0.261c0.148,0.062,0.326,0.094,0.533,0.094c0.171,0,0.325-0.032,0.463-0.098    c0.137-0.065,0.257-0.152,0.357-0.263c0.102-0.11,0.179-0.24,0.233-0.389c0.054-0.148,0.081-0.304,0.081-0.466    c0-0.171-0.026-0.333-0.078-0.485c-0.052-0.153-0.126-0.286-0.223-0.398s-0.216-0.201-0.357-0.267s-0.303-0.099-0.483-0.099    C230.091,117.535,229.926,117.568,229.779,117.634z"/>
	</g>
</g>
<g>
	<g>
		<path d="M241.565,120.256c0.004-0.234,0.045-0.441,0.121-0.621c0.077-0.18,0.178-0.342,0.304-0.486    c0.126-0.144,0.268-0.275,0.426-0.395c0.157-0.119,0.319-0.233,0.485-0.344c0.167-0.11,0.332-0.224,0.496-0.338    c0.165-0.115,0.312-0.237,0.442-0.368c0.131-0.13,0.229-0.264,0.294-0.401s0.098-0.301,0.098-0.489    c0-0.153-0.028-0.289-0.084-0.408c-0.057-0.119-0.133-0.221-0.229-0.304c-0.097-0.084-0.21-0.146-0.338-0.189    s-0.265-0.064-0.408-0.064c-0.193,0-0.359,0.036-0.496,0.108c-0.138,0.072-0.249,0.169-0.334,0.29    c-0.086,0.122-0.147,0.262-0.186,0.419c-0.039,0.157-0.056,0.324-0.051,0.499h-0.426c-0.004-0.243,0.024-0.467,0.085-0.671    c0.061-0.205,0.154-0.382,0.28-0.53s0.284-0.265,0.476-0.348s0.415-0.125,0.672-0.125c0.207,0,0.399,0.028,0.577,0.085    c0.178,0.056,0.333,0.139,0.466,0.249c0.132,0.11,0.235,0.249,0.31,0.415c0.075,0.167,0.112,0.36,0.112,0.581    c0,0.198-0.033,0.378-0.099,0.54s-0.152,0.311-0.263,0.445s-0.236,0.26-0.378,0.375c-0.142,0.114-0.292,0.222-0.449,0.32    c-0.112,0.076-0.245,0.161-0.398,0.253c-0.152,0.093-0.3,0.194-0.442,0.308c-0.142,0.112-0.267,0.234-0.374,0.367    c-0.108,0.133-0.176,0.278-0.203,0.436h2.626v0.392H241.565z"/>
		<path d="M247.792,115.717c0.214,0.15,0.38,0.343,0.5,0.577c0.119,0.233,0.2,0.495,0.242,0.782    c0.043,0.288,0.064,0.569,0.064,0.844c0,0.279-0.021,0.563-0.064,0.851c-0.042,0.288-0.123,0.55-0.242,0.783    c-0.12,0.234-0.286,0.426-0.5,0.574s-0.494,0.223-0.84,0.223c-0.343,0-0.621-0.074-0.838-0.223    c-0.216-0.148-0.383-0.34-0.502-0.574c-0.12-0.233-0.201-0.495-0.243-0.783c-0.043-0.287-0.064-0.569-0.064-0.844    c0-0.278,0.021-0.562,0.064-0.851c0.042-0.287,0.123-0.549,0.243-0.782c0.119-0.234,0.286-0.427,0.502-0.577    c0.217-0.151,0.495-0.227,0.838-0.227C247.298,115.49,247.578,115.565,247.792,115.717z M246.304,116.058    c-0.162,0.14-0.285,0.312-0.368,0.52s-0.138,0.432-0.165,0.675s-0.041,0.466-0.041,0.668c0,0.207,0.014,0.432,0.041,0.672    c0.027,0.241,0.082,0.466,0.165,0.675c0.083,0.21,0.206,0.384,0.368,0.523s0.378,0.209,0.648,0.209    c0.27,0,0.485-0.069,0.647-0.209s0.284-0.313,0.368-0.523c0.083-0.209,0.138-0.434,0.165-0.675    c0.027-0.24,0.041-0.465,0.041-0.672c0-0.202-0.014-0.425-0.041-0.668s-0.082-0.468-0.165-0.675    c-0.084-0.207-0.206-0.38-0.368-0.52s-0.378-0.21-0.647-0.21C246.682,115.848,246.466,115.918,246.304,116.058z"/>
		<path d="M249.985,116.412c0.151-0.016,0.281-0.053,0.392-0.111s0.203-0.147,0.277-0.267s0.127-0.287,0.158-0.503h0.345v4.725    h-0.426v-3.51h-1.249v-0.304C249.667,116.438,249.835,116.428,249.985,116.412z"/>
		<path d="M255.687,117.33c-0.136,0.182-0.324,0.31-0.567,0.381v0.014c0.311,0.063,0.549,0.199,0.716,0.408    c0.166,0.209,0.249,0.476,0.249,0.8c0,0.239-0.043,0.447-0.128,0.625c-0.086,0.178-0.202,0.325-0.351,0.441    c-0.148,0.117-0.321,0.205-0.517,0.264c-0.196,0.059-0.406,0.088-0.631,0.088c-0.221,0-0.431-0.029-0.628-0.088    c-0.198-0.059-0.371-0.146-0.521-0.264c-0.148-0.116-0.265-0.264-0.351-0.441s-0.128-0.386-0.128-0.625    c0.009-0.311,0.097-0.576,0.263-0.796c0.167-0.221,0.398-0.358,0.695-0.412v-0.014c-0.247-0.076-0.438-0.203-0.57-0.381    s-0.199-0.397-0.199-0.658c0-0.203,0.042-0.378,0.125-0.526s0.192-0.271,0.327-0.368c0.136-0.097,0.288-0.169,0.459-0.216    c0.171-0.048,0.345-0.071,0.521-0.071c0.175,0,0.349,0.023,0.52,0.071c0.171,0.047,0.325,0.119,0.462,0.216    c0.138,0.097,0.248,0.22,0.331,0.368s0.125,0.323,0.125,0.526C255.889,116.928,255.821,117.147,255.687,117.33z M254.927,119.936    c0.146-0.043,0.273-0.108,0.381-0.196c0.108-0.088,0.194-0.199,0.257-0.334c0.063-0.135,0.095-0.292,0.095-0.473    c0-0.171-0.033-0.32-0.098-0.448c-0.065-0.129-0.153-0.236-0.264-0.324s-0.238-0.153-0.385-0.196    c-0.146-0.042-0.298-0.062-0.455-0.057c-0.162-0.005-0.316,0.013-0.463,0.054c-0.146,0.04-0.273,0.104-0.381,0.192    c-0.108,0.088-0.195,0.197-0.261,0.327c-0.064,0.131-0.098,0.281-0.098,0.452c0,0.176,0.031,0.331,0.095,0.466    c0.062,0.135,0.148,0.246,0.257,0.334c0.107,0.088,0.234,0.154,0.381,0.199s0.303,0.067,0.47,0.067    C254.624,119.999,254.78,119.979,254.927,119.936z M254.836,117.505c0.121-0.033,0.228-0.086,0.32-0.158    c0.092-0.072,0.166-0.164,0.223-0.276c0.057-0.113,0.084-0.246,0.084-0.398c0-0.136-0.025-0.255-0.077-0.358    s-0.123-0.188-0.213-0.256s-0.195-0.119-0.317-0.155c-0.121-0.036-0.254-0.055-0.397-0.055c-0.131,0-0.257,0.019-0.379,0.055    c-0.121,0.036-0.229,0.088-0.323,0.155c-0.095,0.067-0.17,0.152-0.227,0.256s-0.084,0.223-0.084,0.358    c0,0.157,0.029,0.292,0.088,0.404c0.058,0.113,0.135,0.205,0.229,0.277c0.094,0.072,0.202,0.124,0.323,0.155    c0.122,0.031,0.245,0.045,0.372,0.04C254.588,117.554,254.714,117.539,254.836,117.505z"/>
	</g>
</g>
<line fill="none" stroke="#000000" stroke-width="0.5" stroke-linejoin="round" stroke-miterlimit="10" x1="30.461" y1="107.91" x2="30.461" y2="111.109"/>
<line fill="none" stroke="#000000" stroke-width="0.5" stroke-linejoin="round" stroke-miterlimit="10" x1="27.7" y1="107.91" x2="30.461" y2="107.91"/>
<line fill="none" stroke="#000000" stroke-width="0.5" stroke-linejoin="round" stroke-miterlimit="10" x1="27.7" y1="87.858" x2="30.461" y2="87.858"/>
<line fill="none" stroke="#000000" stroke-width="0.5" stroke-linejoin="round" stroke-miterlimit="10" x1="27.7" y1="67.807" x2="30.461" y2="67.807"/>
<line fill="none" stroke="#000000" stroke-width="0.5" stroke-linejoin="round" stroke-miterlimit="10" x1="27.7" y1="47.755" x2="30.461" y2="47.755"/>
<line fill="none" stroke="#000000" stroke-width="0.5" stroke-linejoin="round" stroke-miterlimit="10" x1="27.7" y1="27.703" x2="30.461" y2="27.703"/>
<line fill="none" stroke="#000000" stroke-width="0.5" stroke-linejoin="round" stroke-miterlimit="10" x1="27.7" y1="7.651" x2="30.461" y2="7.651"/>
<line fill="none" stroke="#000000" stroke-width="0.5" stroke-linejoin="round" stroke-miterlimit="10" x1="54.976" y1="107.91" x2="54.976" y2="111.109"/>
<line fill="none" stroke="#000000" stroke-width="0.5" stroke-linejoin="round" stroke-miterlimit="10" x1="79.492" y1="107.91" x2="79.492" y2="111.109"/>
<line fill="none" stroke="#000000" stroke-width="0.5" stroke-linejoin="round" stroke-miterlimit="10" x1="104.007" y1="107.91" x2="104.007" y2="111.109"/>
<line fill="none" stroke="#000000" stroke-width="0.5" stroke-linejoin="round" stroke-miterlimit="10" x1="128.521" y1="107.91" x2="128.521" y2="111.109"/>
<line fill="none" stroke="#000000" stroke-width="0.5" stroke-linejoin="round" stroke-miterlimit="10" x1="153.037" y1="107.91" x2="153.037" y2="111.109"/>
<line fill="none" stroke="#000000" stroke-width="0.5" stroke-linejoin="round" stroke-miterlimit="10" x1="177.553" y1="107.91" x2="177.553" y2="111.109"/>
<line fill="none" stroke="#000000" stroke-width="0.5" stroke-linejoin="round" stroke-miterlimit="10" x1="202.067" y1="107.91" x2="202.067" y2="111.109"/>
<line fill="none" stroke="#000000" stroke-width="0.5" stroke-linejoin="round" stroke-miterlimit="10" x1="226.583" y1="107.91" x2="226.583" y2="111.109"/>
<line fill="none" stroke="#000000" stroke-width="0.5" stroke-linejoin="round" stroke-miterlimit="10" x1="248.827" y1="107.91" x2="248.827" y2="111.109"/>
<g>
	
		<polyline fill="none" stroke="#7A9AA8" stroke-width="2.5" stroke-linecap="round" stroke-linejoin="round" stroke-miterlimit="10" points="   30.42,55.068 30.937,57.905 31.324,58.906 31.84,65.413 32.228,64.912 32.745,60.241 33.39,60.241 33.777,64.912 34.294,61.575    34.682,58.238 35.198,57.571 35.715,57.404 36.231,54.902 36.748,60.574 37.265,61.075 37.652,58.405 38.168,56.57 38.685,56.904    39.202,58.739 39.718,57.738 40.235,60.407 40.623,60.407 41.139,64.412 41.656,64.412 42.172,63.077 42.689,62.41 43.206,60.241    43.593,62.076 44.109,61.408 44.497,62.076 45.014,63.077 45.53,59.573 46.047,57.571 46.951,58.072 47.984,62.243 49.017,61.408    50.05,60.241 50.954,63.577 51.987,61.909 53.021,65.913 53.925,64.245 54.958,63.411 55.862,59.573 56.766,56.737 57.799,59.406    58.833,59.74 59.736,59.073 60.77,65.579 61.803,65.413 62.707,67.248 63.74,69.584 64.644,69.917 65.677,67.415 66.71,69.917    67.614,68.916 68.519,68.583 69.552,69.584 70.585,65.746 71.489,65.913 72.522,66.581 73.555,65.246 74.459,64.245 75.493,64.912    76.396,63.744 77.43,57.571 78.463,59.406 79.367,56.737 80.4,55.569 81.433,53.066 82.337,52.566 83.241,52.399 84.274,49.563    85.308,50.897 86.212,47.061 87.245,46.727 88.278,43.724 89.312,47.728 90.216,44.225 91.119,39.887 92.152,41.222 93.057,42.89    94.09,42.556 94.994,40.221 96.027,36.55 97.061,32.379 98.094,31.712 98.997,36.383 100.03,34.214 101.063,35.716 101.968,30.543    102.872,34.214 103.905,31.544 104.809,26.373 105.842,29.376 106.876,30.21 107.779,27.874 108.812,32.212 109.846,35.048    110.75,33.046 111.783,31.544 112.816,33.714 113.721,36.216 114.624,38.552 115.657,34.047 116.562,31.544 117.595,30.543    118.628,24.037 119.532,28.041 120.694,29.209 121.469,27.374 122.502,19.532 123.535,22.369 124.568,22.369 125.473,33.046    126.506,31.544 127.41,35.382 128.443,23.036 129.477,23.203 130.381,26.54 131.413,34.882 132.446,42.556 132.446,42.056    133.351,47.228 134.384,49.229 135.288,54.067 136.321,48.062 137.354,56.57 138.259,63.577 139.162,56.904 140.195,52.566    141.1,41.388 142.133,46.394 143.166,41.055 144.07,42.056 145.104,40.387 146.137,33.213 147.041,30.377 148.203,29.709    148.978,32.212 149.882,35.382 150.915,30.377 151.948,40.554 152.853,58.072 153.886,67.748 154.919,54.067 155.822,58.572    156.855,50.564 157.889,52.232 158.793,52.399 159.826,46.227 160.859,42.389 161.764,42.223 162.667,45.059 163.7,44.558    164.604,44.892 165.638,45.893 166.671,45.059 167.575,54.735 168.608,58.405 169.642,47.895 170.546,47.228 171.579,45.226    172.612,43.224 173.516,39.386 174.549,42.89 175.453,46.727 176.486,54.568 177.52,48.896 178.424,49.73 179.457,46.894    180.36,45.893 181.394,44.725 182.427,46.727 183.331,44.892 184.364,41.388 185.269,47.228 186.302,44.725 187.205,42.723    188.238,41.722 189.143,44.392 190.176,44.392 191.209,44.058 192.113,43.224 193.146,36.05 194.18,35.048 195.084,32.88    195.601,32.713 196.117,35.883 196.634,29.876 197.021,30.377 197.537,32.546 198.054,31.378 198.441,32.379 198.958,28.208    199.475,26.54 199.991,27.04 200.508,25.205 200.896,23.203 201.412,25.205 201.929,29.542 202.445,31.211 202.962,31.544    203.35,33.714 203.865,37.217 204.383,42.223 205.028,39.219 205.415,40.721 205.932,42.556 206.319,50.564 206.965,45.393    207.353,49.229 207.869,42.389 208.386,38.219 208.773,39.053 209.29,45.393 209.807,42.056 210.194,37.217 210.711,35.883    211.228,35.549 211.744,38.719 212.131,38.719 212.647,41.555 213.164,40.221 213.811,46.227 214.197,46.894 214.714,52.733    215.102,54.401 215.618,54.735 216.135,46.561 216.651,45.559 217.168,47.728 217.685,47.228 218.072,54.234 218.718,53.734    219.105,56.904 219.622,52.566 220.139,56.07 220.525,55.068 221.042,55.068 221.559,55.235 222.075,53.233 222.592,49.896    222.979,49.563 223.496,50.897 224.013,51.231 224.013,49.73 224.529,42.389 224.917,41.388 225.434,47.562 225.95,45.226    226.467,45.559 226.983,45.726 227.5,42.223 227.5,41.889 228.017,42.223 228.404,44.725 228.921,44.558 229.438,41.222    229.824,40.387 230.471,36.383 230.987,37.384 231.374,40.054 231.891,43.057 232.278,42.223 232.795,43.224 233.44,41.889    233.828,40.721 234.345,42.056 234.732,38.219 235.249,37.217 235.766,39.219 236.282,39.553 236.799,39.887 237.315,37.217    237.702,39.386 238.219,39.053 238.735,35.382 239.252,31.878 239.64,30.21 240.156,27.207 240.673,29.376 241.189,27.541    241.577,26.873 242.223,22.702 242.61,22.536 243.127,20.7 243.644,27.874 244.03,29.542 244.548,29.376 245.063,27.708    245.58,22.035 246.097,17.864 246.484,13.86 247.001,15.528 247.518,17.197 248.034,17.03 248.551,18.198 248.68,19.032  "/>
</g>
</svg>