<svg xmlns="http://www.w3.org/2000/svg" xmlns:xlink="http://www.w3.org/1999/xlink" version="1.1" id="Layer_1" x="0px" y="0px" width="324.36px" height="134.087px" viewBox="0 0 324.36 134.087" enable-background="new 0 0 324.36 134.087" xml:space="preserve">
<rect fill="#FFFFFF" width="324.36" height="134.087"/>
<path fill="none" stroke="#CCCCCC" stroke-width="0.5" stroke-linejoin="round" stroke-miterlimit="10" d="M33.558,6.842H313.04   M33.558,25.282H313.04 M33.558,43.626H313.04 M33.558,62.066H313.04 M33.558,80.41H313.04 M33.558,98.85H313.04"/>
<polyline fill="none" stroke="#000000" stroke-width="0.5" stroke-linecap="square" stroke-linejoin="round" stroke-miterlimit="10" points="  313.04,117.194 33.558,117.194 33.558,6.842 "/>
<line fill="none" stroke="#000000" stroke-width="0.5" stroke-linejoin="round" stroke-miterlimit="10" x1="293.159" y1="117.194" x2="293.159" y2="120.64"/>
<line fill="none" stroke="#000000" stroke-width="0.5" stroke-linejoin="round" stroke-miterlimit="10" x1="273.182" y1="117.194" x2="273.182" y2="120.64"/>
<line fill="none" stroke="#000000" stroke-width="0.5" stroke-linejoin="round" stroke-miterlimit="10" x1="313.04" y1="117.194" x2="313.04" y2="120.64"/>
<line fill="none" stroke="#000000" stroke-width="0.5" stroke-linejoin="round" stroke-miterlimit="10" x1="253.206" y1="117.194" x2="253.206" y2="120.64"/>
<line fill="none" stroke="#000000" stroke-width="0.5" stroke-linejoin="round" stroke-miterlimit="10" x1="233.229" y1="117.194" x2="233.229" y2="120.64"/>
<line fill="none" stroke="#000000" stroke-width="0.5" stroke-linejoin="round" stroke-miterlimit="10" x1="213.251" y1="117.194" x2="213.251" y2="120.64"/>
<line fill="none" stroke="#000000" stroke-width="0.5" stroke-linejoin="round" stroke-miterlimit="10" x1="193.275" y1="117.194" x2="193.275" y2="120.64"/>
<line fill="none" stroke="#000000" stroke-width="0.5" stroke-linejoin="round" stroke-miterlimit="10" x1="173.298" y1="117.194" x2="173.298" y2="120.64"/>
<line fill="none" stroke="#000000" stroke-width="0.5" stroke-linejoin="round" stroke-miterlimit="10" x1="153.322" y1="117.194" x2="153.322" y2="120.64"/>
<line fill="none" stroke="#000000" stroke-width="0.5" stroke-linejoin="round" stroke-miterlimit="10" x1="133.345" y1="117.194" x2="133.345" y2="120.64"/>
<line fill="none" stroke="#000000" stroke-width="0.5" stroke-linejoin="round" stroke-miterlimit="10" x1="113.369" y1="117.194" x2="113.369" y2="120.64"/>
<line fill="none" stroke="#000000" stroke-width="0.5" stroke-linejoin="round" stroke-miterlimit="10" x1="93.392" y1="117.194" x2="93.392" y2="120.64"/>
<line fill="none" stroke="#000000" stroke-width="0.5" stroke-linejoin="round" stroke-miterlimit="10" x1="73.415" y1="117.194" x2="73.415" y2="120.64"/>
<line fill="none" stroke="#000000" stroke-width="0.5" stroke-linejoin="round" stroke-miterlimit="10" x1="53.438" y1="117.194" x2="53.438" y2="120.64"/>
<line fill="none" stroke="#000000" stroke-width="0.5" stroke-linejoin="round" stroke-miterlimit="10" x1="33.558" y1="117.194" x2="33.558" y2="120.64"/>
<g>
	<g>
		<path d="M25.629,114.895c0.214,0.151,0.38,0.343,0.5,0.577c0.119,0.234,0.2,0.495,0.243,0.783    c0.042,0.288,0.064,0.569,0.064,0.844c0,0.279-0.021,0.562-0.064,0.851c-0.043,0.288-0.124,0.549-0.243,0.783    c-0.119,0.234-0.286,0.425-0.5,0.574s-0.494,0.223-0.84,0.223c-0.342,0-0.621-0.075-0.837-0.223s-0.384-0.339-0.503-0.574    c-0.119-0.234-0.2-0.495-0.243-0.783c-0.042-0.288-0.064-0.569-0.064-0.844c0-0.279,0.021-0.562,0.064-0.851    c0.043-0.288,0.124-0.549,0.243-0.783c0.119-0.234,0.287-0.426,0.503-0.577c0.216-0.15,0.495-0.226,0.837-0.226    C25.135,114.668,25.415,114.744,25.629,114.895z M24.141,115.235c-0.162,0.14-0.285,0.313-0.368,0.52    c-0.083,0.207-0.139,0.432-0.166,0.675c-0.027,0.243-0.041,0.466-0.041,0.668c0,0.207,0.014,0.431,0.041,0.671    c0.027,0.241,0.082,0.466,0.166,0.675c0.083,0.209,0.206,0.384,0.368,0.523c0.162,0.14,0.378,0.209,0.648,0.209    s0.486-0.07,0.648-0.209c0.162-0.139,0.285-0.314,0.368-0.523c0.083-0.209,0.138-0.434,0.165-0.675    c0.027-0.241,0.041-0.464,0.041-0.671c0-0.203-0.013-0.425-0.041-0.668c-0.027-0.243-0.082-0.468-0.165-0.675    c-0.083-0.207-0.206-0.38-0.368-0.52c-0.162-0.139-0.378-0.209-0.648-0.209S24.303,115.096,24.141,115.235z"/>
	</g>
</g>
<g>
	<g>
		<path d="M26.295,128.637c0.004-0.234,0.045-0.441,0.121-0.621c0.077-0.18,0.178-0.342,0.304-0.486    c0.125-0.144,0.268-0.276,0.425-0.395c0.158-0.119,0.32-0.234,0.486-0.344s0.332-0.223,0.496-0.337    c0.164-0.115,0.312-0.237,0.442-0.368c0.131-0.131,0.229-0.265,0.294-0.402c0.065-0.137,0.098-0.3,0.098-0.489    c0-0.153-0.028-0.289-0.084-0.409c-0.056-0.119-0.133-0.22-0.229-0.304c-0.097-0.083-0.209-0.146-0.337-0.189    c-0.128-0.042-0.264-0.064-0.408-0.064c-0.194,0-0.359,0.036-0.496,0.108c-0.138,0.072-0.249,0.169-0.334,0.291    c-0.085,0.121-0.147,0.261-0.186,0.418c-0.038,0.157-0.055,0.324-0.05,0.5H26.41c-0.005-0.243,0.023-0.467,0.084-0.672    c0.061-0.205,0.154-0.381,0.28-0.53s0.285-0.264,0.476-0.348c0.191-0.083,0.415-0.125,0.671-0.125    c0.207,0,0.399,0.028,0.577,0.084s0.333,0.14,0.466,0.25c0.133,0.11,0.236,0.249,0.311,0.415s0.111,0.36,0.111,0.581    c0,0.198-0.033,0.378-0.098,0.54c-0.065,0.162-0.153,0.31-0.264,0.445c-0.11,0.135-0.236,0.26-0.378,0.375    c-0.142,0.115-0.291,0.222-0.449,0.321c-0.112,0.077-0.245,0.161-0.398,0.253c-0.153,0.092-0.3,0.195-0.442,0.307    c-0.142,0.113-0.267,0.235-0.375,0.368s-0.176,0.278-0.203,0.435h2.626v0.392H26.295z"/>
		<path d="M32.522,124.097c0.214,0.151,0.38,0.343,0.5,0.577c0.119,0.234,0.2,0.495,0.243,0.783    c0.042,0.288,0.064,0.569,0.064,0.844c0,0.279-0.021,0.562-0.064,0.851c-0.043,0.288-0.124,0.549-0.243,0.783    c-0.119,0.234-0.286,0.425-0.5,0.574s-0.494,0.223-0.84,0.223c-0.342,0-0.621-0.075-0.837-0.223s-0.384-0.339-0.503-0.574    c-0.119-0.234-0.2-0.495-0.243-0.783c-0.042-0.288-0.064-0.569-0.064-0.844c0-0.279,0.021-0.562,0.064-0.851    c0.043-0.288,0.124-0.549,0.243-0.783c0.119-0.234,0.287-0.426,0.503-0.577c0.216-0.15,0.495-0.226,0.837-0.226    C32.028,123.871,32.308,123.947,32.522,124.097z M31.034,124.438c-0.162,0.14-0.285,0.313-0.368,0.52    c-0.083,0.207-0.139,0.432-0.166,0.675c-0.027,0.243-0.041,0.466-0.041,0.668c0,0.207,0.014,0.431,0.041,0.671    c0.027,0.241,0.082,0.466,0.166,0.675c0.083,0.209,0.206,0.384,0.368,0.523c0.162,0.14,0.378,0.209,0.648,0.209    s0.486-0.07,0.648-0.209c0.162-0.139,0.285-0.314,0.368-0.523c0.083-0.209,0.138-0.434,0.165-0.675    c0.027-0.241,0.041-0.464,0.041-0.671c0-0.203-0.013-0.425-0.041-0.668c-0.027-0.243-0.082-0.468-0.165-0.675    c-0.083-0.207-0.206-0.38-0.368-0.52c-0.162-0.139-0.378-0.209-0.648-0.209S31.196,124.299,31.034,124.438z"/>
		<path d="M36.275,124.097c0.214,0.151,0.38,0.343,0.5,0.577c0.119,0.234,0.2,0.495,0.243,0.783    c0.042,0.288,0.064,0.569,0.064,0.844c0,0.279-0.021,0.562-0.064,0.851c-0.043,0.288-0.124,0.549-0.243,0.783    c-0.119,0.234-0.286,0.425-0.5,0.574s-0.494,0.223-0.84,0.223c-0.342,0-0.621-0.075-0.837-0.223s-0.384-0.339-0.503-0.574    c-0.119-0.234-0.2-0.495-0.243-0.783c-0.042-0.288-0.064-0.569-0.064-0.844c0-0.279,0.021-0.562,0.064-0.851    c0.043-0.288,0.124-0.549,0.243-0.783c0.119-0.234,0.287-0.426,0.503-0.577c0.216-0.15,0.495-0.226,0.837-0.226    C35.781,123.871,36.061,123.947,36.275,124.097z M34.787,124.438c-0.162,0.14-0.285,0.313-0.368,0.52    c-0.083,0.207-0.139,0.432-0.166,0.675c-0.027,0.243-0.041,0.466-0.041,0.668c0,0.207,0.014,0.431,0.041,0.671    c0.027,0.241,0.082,0.466,0.166,0.675c0.083,0.209,0.206,0.384,0.368,0.523c0.162,0.14,0.378,0.209,0.648,0.209    s0.486-0.07,0.648-0.209c0.162-0.139,0.285-0.314,0.368-0.523c0.083-0.209,0.138-0.434,0.165-0.675    c0.027-0.241,0.041-0.464,0.041-0.671c0-0.203-0.013-0.425-0.041-0.668c-0.027-0.243-0.082-0.468-0.165-0.675    c-0.083-0.207-0.206-0.38-0.368-0.52c-0.162-0.139-0.378-0.209-0.648-0.209S34.949,124.299,34.787,124.438z"/>
		<path d="M39.701,123.912h0.385v3.193h0.708v0.358h-0.708v1.174h-0.392v-1.174h-2.18v-0.412L39.701,123.912z M39.694,124.533H39.68    l-1.782,2.572h1.795V124.533z"/>
	</g>
</g>
<g>
	<g>
		<path d="M66.221,128.636c0.004-0.234,0.045-0.441,0.121-0.621c0.077-0.18,0.178-0.342,0.304-0.486    c0.125-0.144,0.268-0.276,0.425-0.395c0.158-0.119,0.32-0.234,0.486-0.344s0.332-0.223,0.496-0.337    c0.164-0.115,0.312-0.237,0.442-0.368c0.131-0.131,0.229-0.265,0.294-0.402c0.065-0.137,0.098-0.3,0.098-0.489    c0-0.153-0.028-0.289-0.084-0.409c-0.056-0.119-0.133-0.22-0.229-0.304c-0.097-0.083-0.209-0.146-0.337-0.189    c-0.128-0.042-0.264-0.064-0.408-0.064c-0.194,0-0.359,0.036-0.496,0.108c-0.138,0.072-0.249,0.169-0.334,0.291    c-0.085,0.121-0.147,0.261-0.186,0.418c-0.038,0.157-0.055,0.324-0.05,0.5h-0.425c-0.005-0.243,0.023-0.467,0.084-0.672    c0.061-0.205,0.154-0.381,0.28-0.53s0.285-0.264,0.476-0.348c0.191-0.083,0.415-0.125,0.671-0.125    c0.207,0,0.399,0.028,0.577,0.084s0.333,0.14,0.466,0.25c0.133,0.11,0.236,0.249,0.311,0.415s0.111,0.36,0.111,0.581    c0,0.198-0.033,0.378-0.098,0.54c-0.065,0.162-0.153,0.31-0.264,0.445c-0.11,0.135-0.236,0.26-0.378,0.375    c-0.142,0.115-0.291,0.222-0.449,0.321c-0.112,0.077-0.245,0.161-0.398,0.253c-0.153,0.092-0.3,0.195-0.442,0.307    c-0.142,0.113-0.267,0.235-0.375,0.368s-0.176,0.278-0.203,0.435h2.626v0.392H66.221z"/>
		<path d="M72.447,124.097c0.214,0.151,0.38,0.343,0.5,0.577c0.119,0.234,0.2,0.495,0.243,0.783    c0.042,0.288,0.064,0.569,0.064,0.844c0,0.279-0.021,0.562-0.064,0.851c-0.043,0.288-0.124,0.549-0.243,0.783    c-0.119,0.234-0.286,0.425-0.5,0.574s-0.494,0.223-0.84,0.223c-0.342,0-0.621-0.075-0.837-0.223s-0.384-0.339-0.503-0.574    c-0.119-0.234-0.2-0.495-0.243-0.783c-0.042-0.288-0.064-0.569-0.064-0.844c0-0.279,0.021-0.562,0.064-0.851    c0.043-0.288,0.124-0.549,0.243-0.783c0.119-0.234,0.287-0.426,0.503-0.577c0.216-0.15,0.495-0.226,0.837-0.226    C71.954,123.871,72.233,123.946,72.447,124.097z M70.959,124.438c-0.162,0.14-0.285,0.313-0.368,0.52    c-0.083,0.207-0.139,0.432-0.166,0.675c-0.027,0.243-0.041,0.466-0.041,0.668c0,0.207,0.014,0.431,0.041,0.671    c0.027,0.241,0.082,0.466,0.166,0.675c0.083,0.209,0.206,0.384,0.368,0.523c0.162,0.14,0.378,0.209,0.648,0.209    s0.486-0.07,0.648-0.209c0.162-0.139,0.285-0.314,0.368-0.523c0.083-0.209,0.138-0.434,0.165-0.675    c0.027-0.241,0.041-0.464,0.041-0.671c0-0.203-0.013-0.425-0.041-0.668c-0.027-0.243-0.082-0.468-0.165-0.675    c-0.083-0.207-0.206-0.38-0.368-0.52c-0.162-0.139-0.378-0.209-0.648-0.209S71.121,124.298,70.959,124.438z"/>
		<path d="M76.2,124.097c0.214,0.151,0.38,0.343,0.5,0.577c0.119,0.234,0.2,0.495,0.243,0.783c0.042,0.288,0.064,0.569,0.064,0.844    c0,0.279-0.021,0.562-0.064,0.851c-0.043,0.288-0.124,0.549-0.243,0.783c-0.119,0.234-0.286,0.425-0.5,0.574    s-0.494,0.223-0.84,0.223c-0.342,0-0.621-0.075-0.837-0.223s-0.384-0.339-0.503-0.574c-0.119-0.234-0.2-0.495-0.243-0.783    c-0.042-0.288-0.064-0.569-0.064-0.844c0-0.279,0.021-0.562,0.064-0.851c0.043-0.288,0.124-0.549,0.243-0.783    c0.119-0.234,0.287-0.426,0.503-0.577c0.216-0.15,0.495-0.226,0.837-0.226C75.707,123.871,75.986,123.946,76.2,124.097z     M74.712,124.438c-0.162,0.14-0.285,0.313-0.368,0.52c-0.083,0.207-0.139,0.432-0.166,0.675c-0.027,0.243-0.041,0.466-0.041,0.668    c0,0.207,0.014,0.431,0.041,0.671c0.027,0.241,0.082,0.466,0.166,0.675c0.083,0.209,0.206,0.384,0.368,0.523    c0.162,0.14,0.378,0.209,0.648,0.209s0.486-0.07,0.648-0.209c0.162-0.139,0.285-0.314,0.368-0.523    c0.083-0.209,0.138-0.434,0.165-0.675c0.027-0.241,0.041-0.464,0.041-0.671c0-0.203-0.013-0.425-0.041-0.668    c-0.027-0.243-0.082-0.468-0.165-0.675c-0.083-0.207-0.206-0.38-0.368-0.52c-0.162-0.139-0.378-0.209-0.648-0.209    S74.874,124.298,74.712,124.438z"/>
		<path d="M79.906,124.472c-0.173-0.162-0.397-0.243-0.671-0.243s-0.498,0.07-0.668,0.209c-0.171,0.14-0.304,0.315-0.398,0.527    c-0.095,0.211-0.158,0.44-0.189,0.685c-0.032,0.245-0.047,0.476-0.047,0.692h0.014c0.112-0.234,0.282-0.423,0.509-0.567    s0.476-0.216,0.746-0.216c0.238,0,0.453,0.04,0.645,0.118c0.191,0.079,0.354,0.188,0.489,0.328c0.135,0.139,0.24,0.306,0.314,0.5    c0.074,0.193,0.111,0.405,0.111,0.634s-0.04,0.442-0.118,0.638c-0.079,0.196-0.189,0.365-0.331,0.506    c-0.142,0.142-0.311,0.252-0.506,0.331c-0.196,0.079-0.411,0.118-0.645,0.118c-0.288,0-0.536-0.044-0.743-0.132    s-0.378-0.23-0.513-0.429c-0.135-0.198-0.235-0.456-0.301-0.773c-0.065-0.317-0.098-0.708-0.098-1.171    c0-0.095,0.005-0.218,0.017-0.371c0.011-0.153,0.037-0.316,0.077-0.49c0.041-0.173,0.098-0.349,0.172-0.526    s0.173-0.338,0.297-0.482c0.124-0.144,0.278-0.261,0.462-0.351c0.185-0.09,0.405-0.135,0.662-0.135    c0.423,0,0.758,0.102,1.006,0.304c0.247,0.203,0.396,0.513,0.445,0.932H80.22C80.184,124.845,80.079,124.633,79.906,124.472z     M78.698,126.014c-0.146,0.065-0.27,0.154-0.371,0.267c-0.102,0.113-0.178,0.244-0.229,0.395    c-0.052,0.151-0.078,0.314-0.078,0.489c0,0.167,0.022,0.324,0.067,0.473s0.116,0.278,0.212,0.388s0.22,0.197,0.368,0.26    s0.326,0.095,0.533,0.095c0.171,0,0.325-0.033,0.462-0.098c0.137-0.065,0.256-0.153,0.357-0.263    c0.102-0.11,0.179-0.24,0.233-0.388c0.054-0.148,0.081-0.304,0.081-0.466c0-0.171-0.026-0.333-0.078-0.486    s-0.126-0.286-0.223-0.398c-0.097-0.112-0.216-0.201-0.358-0.267c-0.142-0.065-0.303-0.098-0.482-0.098    C79.009,125.916,78.844,125.949,78.698,126.014z"/>
	</g>
</g>
<g>
	<g>
		<path d="M106.147,128.636c0.004-0.234,0.045-0.441,0.121-0.621c0.077-0.18,0.178-0.342,0.304-0.486    c0.125-0.144,0.268-0.276,0.425-0.395c0.158-0.119,0.32-0.234,0.486-0.344s0.332-0.223,0.496-0.337    c0.164-0.115,0.312-0.237,0.442-0.368c0.131-0.131,0.229-0.265,0.294-0.402c0.065-0.137,0.098-0.3,0.098-0.489    c0-0.153-0.028-0.289-0.084-0.409c-0.056-0.119-0.133-0.22-0.229-0.304c-0.097-0.083-0.209-0.146-0.337-0.189    c-0.128-0.042-0.264-0.064-0.408-0.064c-0.194,0-0.359,0.036-0.496,0.108c-0.138,0.072-0.249,0.169-0.334,0.291    c-0.085,0.121-0.147,0.261-0.186,0.418c-0.038,0.157-0.055,0.324-0.05,0.5h-0.425c-0.005-0.243,0.023-0.467,0.084-0.672    c0.061-0.205,0.154-0.381,0.28-0.53s0.285-0.264,0.476-0.348c0.191-0.083,0.415-0.125,0.671-0.125    c0.207,0,0.399,0.028,0.577,0.084s0.333,0.14,0.466,0.25c0.133,0.11,0.236,0.249,0.311,0.415s0.111,0.36,0.111,0.581    c0,0.198-0.033,0.378-0.098,0.54c-0.065,0.162-0.153,0.31-0.264,0.445c-0.11,0.135-0.236,0.26-0.378,0.375    c-0.142,0.115-0.291,0.222-0.449,0.321c-0.112,0.077-0.245,0.161-0.398,0.253c-0.153,0.092-0.3,0.195-0.442,0.307    c-0.142,0.113-0.267,0.235-0.375,0.368s-0.176,0.278-0.203,0.435h2.626v0.392H106.147z"/>
		<path d="M112.374,124.097c0.214,0.151,0.38,0.343,0.5,0.577c0.119,0.234,0.2,0.495,0.243,0.783    c0.042,0.288,0.064,0.569,0.064,0.844c0,0.279-0.021,0.562-0.064,0.851c-0.043,0.288-0.124,0.549-0.243,0.783    c-0.119,0.234-0.286,0.425-0.5,0.574s-0.494,0.223-0.84,0.223c-0.342,0-0.621-0.075-0.837-0.223s-0.384-0.339-0.503-0.574    c-0.119-0.234-0.2-0.495-0.243-0.783c-0.042-0.288-0.064-0.569-0.064-0.844c0-0.279,0.021-0.562,0.064-0.851    c0.043-0.288,0.124-0.549,0.243-0.783c0.119-0.234,0.287-0.426,0.503-0.577c0.216-0.15,0.495-0.226,0.837-0.226    C111.88,123.871,112.16,123.946,112.374,124.097z M110.885,124.438c-0.162,0.14-0.285,0.313-0.368,0.52    c-0.083,0.207-0.139,0.432-0.166,0.675c-0.027,0.243-0.041,0.466-0.041,0.668c0,0.207,0.014,0.431,0.041,0.671    c0.027,0.241,0.082,0.466,0.166,0.675c0.083,0.209,0.206,0.384,0.368,0.523c0.162,0.14,0.378,0.209,0.648,0.209    s0.486-0.07,0.648-0.209c0.162-0.139,0.285-0.314,0.368-0.523c0.083-0.209,0.138-0.434,0.165-0.675    c0.027-0.241,0.041-0.464,0.041-0.671c0-0.203-0.013-0.425-0.041-0.668c-0.027-0.243-0.082-0.468-0.165-0.675    c-0.083-0.207-0.206-0.38-0.368-0.52c-0.162-0.139-0.378-0.209-0.648-0.209S111.047,124.298,110.885,124.438z"/>
		<path d="M116.126,124.097c0.214,0.151,0.38,0.343,0.5,0.577c0.119,0.234,0.2,0.495,0.243,0.783    c0.042,0.288,0.064,0.569,0.064,0.844c0,0.279-0.021,0.562-0.064,0.851c-0.043,0.288-0.124,0.549-0.243,0.783    c-0.119,0.234-0.286,0.425-0.5,0.574s-0.494,0.223-0.84,0.223c-0.342,0-0.621-0.075-0.837-0.223s-0.384-0.339-0.503-0.574    c-0.119-0.234-0.2-0.495-0.243-0.783c-0.042-0.288-0.064-0.569-0.064-0.844c0-0.279,0.021-0.562,0.064-0.851    c0.043-0.288,0.124-0.549,0.243-0.783c0.119-0.234,0.287-0.426,0.503-0.577c0.216-0.15,0.495-0.226,0.837-0.226    C115.633,123.871,115.913,123.946,116.126,124.097z M114.638,124.438c-0.162,0.14-0.285,0.313-0.368,0.52    c-0.083,0.207-0.139,0.432-0.166,0.675c-0.027,0.243-0.041,0.466-0.041,0.668c0,0.207,0.014,0.431,0.041,0.671    c0.027,0.241,0.082,0.466,0.166,0.675c0.083,0.209,0.206,0.384,0.368,0.523c0.162,0.14,0.378,0.209,0.648,0.209    s0.486-0.07,0.648-0.209c0.162-0.139,0.285-0.314,0.368-0.523c0.083-0.209,0.138-0.434,0.165-0.675    c0.027-0.241,0.041-0.464,0.041-0.671c0-0.203-0.013-0.425-0.041-0.668c-0.027-0.243-0.082-0.468-0.165-0.675    c-0.083-0.207-0.206-0.38-0.368-0.52c-0.162-0.139-0.378-0.209-0.648-0.209S114.8,124.298,114.638,124.438z"/>
		<path d="M120.268,125.71c-0.135,0.183-0.324,0.31-0.567,0.381v0.014c0.311,0.063,0.549,0.199,0.715,0.408    c0.167,0.209,0.25,0.476,0.25,0.8c0,0.239-0.043,0.447-0.128,0.625s-0.203,0.325-0.351,0.442c-0.148,0.117-0.32,0.205-0.516,0.263    c-0.196,0.058-0.406,0.088-0.631,0.088c-0.221,0-0.43-0.03-0.628-0.088c-0.198-0.059-0.371-0.146-0.52-0.263    c-0.148-0.117-0.266-0.265-0.351-0.442s-0.128-0.386-0.128-0.625c0.009-0.31,0.097-0.576,0.264-0.796    c0.166-0.22,0.398-0.357,0.695-0.412v-0.014c-0.247-0.076-0.438-0.204-0.57-0.381s-0.199-0.397-0.199-0.658    c0-0.202,0.042-0.378,0.125-0.526c0.083-0.148,0.192-0.271,0.328-0.368c0.135-0.097,0.288-0.169,0.459-0.216    c0.171-0.047,0.344-0.071,0.52-0.071c0.176,0,0.349,0.024,0.52,0.071c0.171,0.047,0.325,0.12,0.462,0.216    c0.137,0.097,0.247,0.219,0.331,0.368c0.083,0.148,0.125,0.324,0.125,0.526C120.47,125.309,120.403,125.528,120.268,125.71z     M119.508,128.315c0.146-0.042,0.273-0.108,0.381-0.196c0.108-0.087,0.193-0.199,0.256-0.334c0.063-0.135,0.095-0.292,0.095-0.473    c0-0.171-0.033-0.32-0.098-0.449c-0.065-0.128-0.153-0.236-0.263-0.324c-0.11-0.088-0.238-0.153-0.385-0.196    c-0.146-0.043-0.298-0.062-0.456-0.058c-0.162-0.004-0.316,0.014-0.462,0.054c-0.146,0.041-0.273,0.104-0.381,0.192    s-0.195,0.197-0.26,0.327c-0.065,0.131-0.098,0.281-0.098,0.452c0,0.176,0.032,0.331,0.095,0.466    c0.063,0.135,0.148,0.247,0.256,0.334c0.108,0.087,0.235,0.154,0.381,0.199c0.146,0.045,0.303,0.068,0.469,0.068    S119.362,128.358,119.508,128.315z M119.417,125.886c0.122-0.034,0.229-0.087,0.321-0.159s0.167-0.164,0.223-0.277    c0.056-0.112,0.084-0.245,0.084-0.398c0-0.135-0.026-0.254-0.078-0.357s-0.123-0.189-0.213-0.257    c-0.09-0.067-0.195-0.119-0.317-0.155c-0.122-0.036-0.254-0.054-0.398-0.054c-0.13,0-0.256,0.018-0.378,0.054    c-0.122,0.036-0.229,0.087-0.324,0.155c-0.094,0.068-0.17,0.153-0.226,0.257s-0.084,0.223-0.084,0.357    c0,0.158,0.029,0.293,0.088,0.405s0.135,0.205,0.229,0.277c0.095,0.072,0.203,0.124,0.324,0.155    c0.122,0.031,0.245,0.045,0.371,0.041C119.169,125.934,119.295,125.919,119.417,125.886z"/>
	</g>
</g>
<g>
	<g>
		<path d="M146.073,128.636c0.004-0.234,0.045-0.441,0.121-0.621c0.077-0.18,0.178-0.342,0.304-0.486    c0.125-0.144,0.268-0.276,0.425-0.395c0.158-0.119,0.32-0.234,0.486-0.344s0.332-0.223,0.496-0.337    c0.164-0.115,0.312-0.237,0.442-0.368c0.131-0.131,0.229-0.265,0.294-0.402c0.065-0.137,0.098-0.3,0.098-0.489    c0-0.153-0.028-0.289-0.084-0.409c-0.056-0.119-0.133-0.22-0.229-0.304c-0.097-0.083-0.209-0.146-0.337-0.189    c-0.128-0.042-0.264-0.064-0.408-0.064c-0.194,0-0.359,0.036-0.496,0.108c-0.138,0.072-0.249,0.169-0.334,0.291    c-0.085,0.121-0.147,0.261-0.186,0.418c-0.038,0.157-0.055,0.324-0.05,0.5h-0.425c-0.005-0.243,0.023-0.467,0.084-0.672    c0.061-0.205,0.154-0.381,0.28-0.53s0.285-0.264,0.476-0.348c0.191-0.083,0.415-0.125,0.671-0.125    c0.207,0,0.399,0.028,0.577,0.084s0.333,0.14,0.466,0.25c0.133,0.11,0.236,0.249,0.311,0.415s0.111,0.36,0.111,0.581    c0,0.198-0.033,0.378-0.098,0.54c-0.065,0.162-0.153,0.31-0.264,0.445c-0.11,0.135-0.236,0.26-0.378,0.375    c-0.142,0.115-0.291,0.222-0.449,0.321c-0.112,0.077-0.245,0.161-0.398,0.253c-0.153,0.092-0.3,0.195-0.442,0.307    c-0.142,0.113-0.267,0.235-0.375,0.368s-0.176,0.278-0.203,0.435h2.626v0.392H146.073z"/>
		<path d="M152.3,124.097c0.214,0.151,0.38,0.343,0.5,0.577c0.119,0.234,0.2,0.495,0.243,0.783c0.042,0.288,0.064,0.569,0.064,0.844    c0,0.279-0.021,0.562-0.064,0.851c-0.043,0.288-0.124,0.549-0.243,0.783c-0.119,0.234-0.286,0.425-0.5,0.574    s-0.494,0.223-0.84,0.223c-0.342,0-0.621-0.075-0.837-0.223s-0.384-0.339-0.503-0.574c-0.119-0.234-0.2-0.495-0.243-0.783    c-0.042-0.288-0.064-0.569-0.064-0.844c0-0.279,0.021-0.562,0.064-0.851c0.043-0.288,0.124-0.549,0.243-0.783    c0.119-0.234,0.287-0.426,0.503-0.577c0.216-0.15,0.495-0.226,0.837-0.226C151.806,123.871,152.086,123.946,152.3,124.097z     M150.812,124.438c-0.162,0.14-0.285,0.313-0.368,0.52c-0.083,0.207-0.139,0.432-0.166,0.675    c-0.027,0.243-0.041,0.466-0.041,0.668c0,0.207,0.014,0.431,0.041,0.671c0.027,0.241,0.082,0.466,0.166,0.675    c0.083,0.209,0.206,0.384,0.368,0.523c0.162,0.14,0.378,0.209,0.648,0.209s0.486-0.07,0.648-0.209    c0.162-0.139,0.285-0.314,0.368-0.523c0.083-0.209,0.138-0.434,0.165-0.675c0.027-0.241,0.041-0.464,0.041-0.671    c0-0.203-0.013-0.425-0.041-0.668c-0.027-0.243-0.082-0.468-0.165-0.675c-0.083-0.207-0.206-0.38-0.368-0.52    c-0.162-0.139-0.378-0.209-0.648-0.209S150.974,124.298,150.812,124.438z"/>
		<path d="M154.494,124.792c0.15-0.016,0.281-0.053,0.392-0.111c0.11-0.059,0.202-0.147,0.276-0.267s0.127-0.287,0.159-0.503h0.344    v4.725h-0.425v-3.51h-1.249v-0.304C154.175,124.818,154.343,124.808,154.494,124.792z"/>
		<path d="M159.806,124.097c0.214,0.151,0.38,0.343,0.5,0.577c0.119,0.234,0.2,0.495,0.243,0.783    c0.042,0.288,0.064,0.569,0.064,0.844c0,0.279-0.021,0.562-0.064,0.851c-0.043,0.288-0.124,0.549-0.243,0.783    c-0.119,0.234-0.286,0.425-0.5,0.574s-0.494,0.223-0.84,0.223c-0.342,0-0.621-0.075-0.837-0.223s-0.384-0.339-0.503-0.574    c-0.119-0.234-0.2-0.495-0.243-0.783c-0.042-0.288-0.064-0.569-0.064-0.844c0-0.279,0.021-0.562,0.064-0.851    c0.043-0.288,0.124-0.549,0.243-0.783c0.119-0.234,0.287-0.426,0.503-0.577c0.216-0.15,0.495-0.226,0.837-0.226    C159.312,123.871,159.592,123.946,159.806,124.097z M158.317,124.438c-0.162,0.14-0.285,0.313-0.368,0.52    c-0.083,0.207-0.139,0.432-0.166,0.675c-0.027,0.243-0.041,0.466-0.041,0.668c0,0.207,0.014,0.431,0.041,0.671    c0.027,0.241,0.082,0.466,0.166,0.675c0.083,0.209,0.206,0.384,0.368,0.523c0.162,0.14,0.378,0.209,0.648,0.209    s0.486-0.07,0.648-0.209c0.162-0.139,0.285-0.314,0.368-0.523c0.083-0.209,0.138-0.434,0.165-0.675    c0.027-0.241,0.041-0.464,0.041-0.671c0-0.203-0.013-0.425-0.041-0.668c-0.027-0.243-0.082-0.468-0.165-0.675    c-0.083-0.207-0.206-0.38-0.368-0.52c-0.162-0.139-0.378-0.209-0.648-0.209S158.479,124.298,158.317,124.438z"/>
	</g>
</g>
<g>
	<g>
		<path d="M185.999,128.637c0.004-0.234,0.045-0.441,0.121-0.621c0.077-0.18,0.178-0.342,0.304-0.486    c0.125-0.144,0.268-0.276,0.425-0.395c0.158-0.119,0.32-0.234,0.486-0.344s0.332-0.223,0.496-0.337    c0.164-0.115,0.312-0.237,0.442-0.368c0.131-0.131,0.229-0.265,0.294-0.402c0.065-0.137,0.098-0.3,0.098-0.489    c0-0.153-0.028-0.289-0.084-0.409c-0.056-0.119-0.133-0.22-0.229-0.304c-0.097-0.083-0.209-0.146-0.337-0.189    c-0.128-0.042-0.264-0.064-0.408-0.064c-0.194,0-0.359,0.036-0.496,0.108c-0.138,0.072-0.249,0.169-0.334,0.291    c-0.085,0.121-0.147,0.261-0.186,0.418c-0.038,0.157-0.055,0.324-0.05,0.5h-0.425c-0.005-0.243,0.023-0.467,0.084-0.672    c0.061-0.205,0.154-0.381,0.28-0.53s0.285-0.264,0.476-0.348c0.191-0.083,0.415-0.125,0.671-0.125    c0.207,0,0.399,0.028,0.577,0.084s0.333,0.14,0.466,0.25c0.133,0.11,0.236,0.249,0.311,0.415s0.111,0.36,0.111,0.581    c0,0.198-0.033,0.378-0.098,0.54c-0.065,0.162-0.153,0.31-0.264,0.445c-0.11,0.135-0.236,0.26-0.378,0.375    c-0.142,0.115-0.291,0.222-0.449,0.321c-0.112,0.077-0.245,0.161-0.398,0.253c-0.153,0.092-0.3,0.195-0.442,0.307    c-0.142,0.113-0.267,0.235-0.375,0.368s-0.176,0.278-0.203,0.435h2.626v0.392H185.999z"/>
		<path d="M192.226,124.097c0.214,0.151,0.38,0.343,0.5,0.577c0.119,0.234,0.2,0.495,0.243,0.783    c0.042,0.288,0.064,0.569,0.064,0.844c0,0.279-0.021,0.562-0.064,0.851c-0.043,0.288-0.124,0.549-0.243,0.783    c-0.119,0.234-0.286,0.425-0.5,0.574s-0.494,0.223-0.84,0.223c-0.342,0-0.621-0.075-0.837-0.223s-0.384-0.339-0.503-0.574    c-0.119-0.234-0.2-0.495-0.243-0.783c-0.042-0.288-0.064-0.569-0.064-0.844c0-0.279,0.021-0.562,0.064-0.851    c0.043-0.288,0.124-0.549,0.243-0.783c0.119-0.234,0.287-0.426,0.503-0.577c0.216-0.15,0.495-0.226,0.837-0.226    C191.732,123.871,192.012,123.947,192.226,124.097z M190.737,124.438c-0.162,0.14-0.285,0.313-0.368,0.52    c-0.083,0.207-0.139,0.432-0.166,0.675c-0.027,0.243-0.041,0.466-0.041,0.668c0,0.207,0.014,0.431,0.041,0.671    c0.027,0.241,0.082,0.466,0.166,0.675c0.083,0.209,0.206,0.384,0.368,0.523c0.162,0.14,0.378,0.209,0.648,0.209    s0.486-0.07,0.648-0.209c0.162-0.139,0.285-0.314,0.368-0.523c0.083-0.209,0.138-0.434,0.165-0.675    c0.027-0.241,0.041-0.464,0.041-0.671c0-0.203-0.013-0.425-0.041-0.668c-0.027-0.243-0.082-0.468-0.165-0.675    c-0.083-0.207-0.206-0.38-0.368-0.52c-0.162-0.139-0.378-0.209-0.648-0.209S190.899,124.299,190.737,124.438z"/>
		<path d="M194.419,124.792c0.15-0.016,0.281-0.053,0.392-0.111c0.11-0.059,0.202-0.147,0.276-0.267s0.127-0.287,0.159-0.503h0.344    v4.725h-0.425v-3.51h-1.249v-0.304C194.101,124.818,194.269,124.809,194.419,124.792z"/>
		<path d="M197.258,128.637c0.004-0.234,0.045-0.441,0.121-0.621c0.077-0.18,0.178-0.342,0.304-0.486    c0.125-0.144,0.268-0.276,0.425-0.395c0.158-0.119,0.32-0.234,0.486-0.344s0.332-0.223,0.496-0.337    c0.164-0.115,0.312-0.237,0.442-0.368c0.131-0.131,0.229-0.265,0.294-0.402c0.065-0.137,0.098-0.3,0.098-0.489    c0-0.153-0.028-0.289-0.084-0.409c-0.056-0.119-0.133-0.22-0.229-0.304c-0.097-0.083-0.209-0.146-0.337-0.189    c-0.128-0.042-0.264-0.064-0.408-0.064c-0.194,0-0.359,0.036-0.496,0.108c-0.138,0.072-0.249,0.169-0.334,0.291    c-0.085,0.121-0.147,0.261-0.186,0.418c-0.038,0.157-0.055,0.324-0.05,0.5h-0.425c-0.005-0.243,0.023-0.467,0.084-0.672    c0.061-0.205,0.154-0.381,0.28-0.53s0.285-0.264,0.476-0.348c0.191-0.083,0.415-0.125,0.671-0.125    c0.207,0,0.399,0.028,0.577,0.084s0.333,0.14,0.466,0.25c0.133,0.11,0.236,0.249,0.311,0.415s0.111,0.36,0.111,0.581    c0,0.198-0.033,0.378-0.098,0.54c-0.065,0.162-0.153,0.31-0.264,0.445c-0.11,0.135-0.236,0.26-0.378,0.375    c-0.142,0.115-0.291,0.222-0.449,0.321c-0.112,0.077-0.245,0.161-0.398,0.253c-0.153,0.092-0.3,0.195-0.442,0.307    c-0.142,0.113-0.267,0.235-0.375,0.368s-0.176,0.278-0.203,0.435h2.626v0.392H197.258z"/>
	</g>
</g>
<g>
	<g>
		<path d="M225.924,128.636c0.004-0.234,0.045-0.441,0.121-0.621c0.077-0.18,0.178-0.342,0.304-0.486s0.268-0.276,0.426-0.395    c0.157-0.119,0.319-0.234,0.485-0.344c0.167-0.11,0.332-0.223,0.496-0.337c0.165-0.115,0.312-0.237,0.442-0.368    c0.131-0.131,0.229-0.265,0.294-0.402s0.098-0.3,0.098-0.489c0-0.153-0.028-0.289-0.084-0.409    c-0.057-0.119-0.133-0.22-0.229-0.304c-0.097-0.083-0.21-0.146-0.338-0.189c-0.128-0.042-0.265-0.064-0.408-0.064    c-0.193,0-0.359,0.036-0.496,0.108c-0.138,0.072-0.249,0.169-0.334,0.291c-0.086,0.121-0.147,0.261-0.186,0.418    c-0.039,0.157-0.056,0.324-0.051,0.5h-0.426c-0.004-0.243,0.024-0.467,0.085-0.672c0.061-0.205,0.154-0.381,0.28-0.53    s0.284-0.264,0.476-0.348c0.191-0.083,0.415-0.125,0.672-0.125c0.207,0,0.399,0.028,0.577,0.084s0.333,0.14,0.466,0.25    c0.132,0.11,0.235,0.249,0.31,0.415c0.075,0.167,0.112,0.36,0.112,0.581c0,0.198-0.033,0.378-0.099,0.54    c-0.065,0.162-0.152,0.31-0.263,0.445c-0.11,0.135-0.236,0.26-0.378,0.375s-0.292,0.222-0.449,0.321    c-0.112,0.077-0.245,0.161-0.398,0.253c-0.152,0.092-0.3,0.195-0.442,0.307c-0.142,0.113-0.267,0.235-0.374,0.368    c-0.108,0.133-0.176,0.278-0.203,0.435h2.626v0.392H225.924z"/>
		<path d="M232.151,124.097c0.214,0.151,0.38,0.343,0.5,0.577c0.119,0.234,0.2,0.495,0.242,0.783    c0.043,0.288,0.064,0.569,0.064,0.844c0,0.279-0.021,0.562-0.064,0.851c-0.042,0.288-0.123,0.549-0.242,0.783    c-0.12,0.234-0.286,0.425-0.5,0.574s-0.494,0.223-0.84,0.223c-0.343,0-0.621-0.075-0.838-0.223    c-0.216-0.148-0.383-0.339-0.502-0.574c-0.12-0.234-0.201-0.495-0.243-0.783c-0.043-0.288-0.064-0.569-0.064-0.844    c0-0.279,0.021-0.562,0.064-0.851c0.042-0.288,0.123-0.549,0.243-0.783c0.119-0.234,0.286-0.426,0.502-0.577    c0.217-0.15,0.495-0.226,0.838-0.226C231.657,123.871,231.937,123.946,232.151,124.097z M230.663,124.438    c-0.162,0.14-0.285,0.313-0.368,0.52s-0.138,0.432-0.165,0.675c-0.027,0.243-0.041,0.466-0.041,0.668    c0,0.207,0.014,0.431,0.041,0.671c0.027,0.241,0.082,0.466,0.165,0.675c0.083,0.209,0.206,0.384,0.368,0.523    c0.162,0.14,0.378,0.209,0.648,0.209c0.27,0,0.485-0.07,0.647-0.209c0.162-0.139,0.284-0.314,0.368-0.523    c0.083-0.209,0.138-0.434,0.165-0.675c0.027-0.241,0.041-0.464,0.041-0.671c0-0.203-0.014-0.425-0.041-0.668    c-0.027-0.243-0.082-0.468-0.165-0.675c-0.084-0.207-0.206-0.38-0.368-0.52c-0.162-0.139-0.378-0.209-0.647-0.209    C231.041,124.229,230.825,124.298,230.663,124.438z"/>
		<path d="M234.344,124.792c0.151-0.016,0.281-0.053,0.392-0.111s0.203-0.147,0.277-0.267s0.127-0.287,0.158-0.503h0.345v4.725    h-0.426v-3.51h-1.249v-0.304C234.026,124.818,234.194,124.808,234.344,124.792z"/>
		<path d="M239.33,123.911h0.385v3.193h0.709v0.358h-0.709v1.174h-0.392v-1.174h-2.181v-0.412L239.33,123.911z M239.323,124.532    h-0.014l-1.782,2.572h1.796V124.532z"/>
	</g>
</g>
<g>
	<g>
		<path d="M265.85,128.636c0.004-0.234,0.045-0.441,0.121-0.621c0.077-0.18,0.178-0.342,0.304-0.486s0.268-0.276,0.426-0.395    c0.157-0.119,0.319-0.234,0.485-0.344c0.167-0.11,0.332-0.223,0.496-0.337c0.165-0.115,0.312-0.237,0.442-0.368    c0.131-0.131,0.229-0.265,0.294-0.402s0.098-0.3,0.098-0.489c0-0.153-0.028-0.289-0.084-0.409    c-0.057-0.119-0.133-0.22-0.229-0.304c-0.097-0.083-0.21-0.146-0.338-0.189c-0.128-0.042-0.265-0.064-0.408-0.064    c-0.193,0-0.359,0.036-0.496,0.108c-0.138,0.072-0.249,0.169-0.334,0.291c-0.086,0.121-0.147,0.261-0.186,0.418    c-0.039,0.157-0.056,0.324-0.051,0.5h-0.426c-0.004-0.243,0.024-0.467,0.085-0.672c0.061-0.205,0.154-0.381,0.28-0.53    s0.284-0.264,0.476-0.348c0.191-0.083,0.415-0.125,0.672-0.125c0.207,0,0.399,0.028,0.577,0.084s0.333,0.14,0.466,0.25    c0.132,0.11,0.235,0.249,0.31,0.415c0.075,0.167,0.112,0.36,0.112,0.581c0,0.198-0.033,0.378-0.099,0.54    c-0.065,0.162-0.152,0.31-0.263,0.445c-0.11,0.135-0.236,0.26-0.378,0.375s-0.292,0.222-0.449,0.321    c-0.112,0.077-0.245,0.161-0.398,0.253c-0.152,0.092-0.3,0.195-0.442,0.307c-0.142,0.113-0.267,0.235-0.374,0.368    c-0.108,0.133-0.176,0.278-0.203,0.435h2.626v0.392H265.85z"/>
		<path d="M272.077,124.097c0.214,0.151,0.38,0.343,0.5,0.577c0.119,0.234,0.2,0.495,0.242,0.783    c0.043,0.288,0.064,0.569,0.064,0.844c0,0.279-0.021,0.562-0.064,0.851c-0.042,0.288-0.123,0.549-0.242,0.783    c-0.12,0.234-0.286,0.425-0.5,0.574s-0.494,0.223-0.84,0.223c-0.343,0-0.621-0.075-0.838-0.223    c-0.216-0.148-0.383-0.339-0.502-0.574c-0.12-0.234-0.201-0.495-0.243-0.783c-0.043-0.288-0.064-0.569-0.064-0.844    c0-0.279,0.021-0.562,0.064-0.851c0.042-0.288,0.123-0.549,0.243-0.783c0.119-0.234,0.286-0.426,0.502-0.577    c0.217-0.15,0.495-0.226,0.838-0.226C271.583,123.871,271.863,123.946,272.077,124.097z M270.588,124.438    c-0.162,0.14-0.285,0.313-0.368,0.52s-0.138,0.432-0.165,0.675c-0.027,0.243-0.041,0.466-0.041,0.668    c0,0.207,0.014,0.431,0.041,0.671c0.027,0.241,0.082,0.466,0.165,0.675c0.083,0.209,0.206,0.384,0.368,0.523    c0.162,0.14,0.378,0.209,0.648,0.209c0.27,0,0.485-0.07,0.647-0.209c0.162-0.139,0.284-0.314,0.368-0.523    c0.083-0.209,0.138-0.434,0.165-0.675c0.027-0.241,0.041-0.464,0.041-0.671c0-0.203-0.014-0.425-0.041-0.668    c-0.027-0.243-0.082-0.468-0.165-0.675c-0.084-0.207-0.206-0.38-0.368-0.52c-0.162-0.139-0.378-0.209-0.647-0.209    C270.966,124.229,270.75,124.298,270.588,124.438z"/>
		<path d="M274.27,124.792c0.151-0.016,0.281-0.053,0.392-0.111s0.203-0.147,0.277-0.267s0.127-0.287,0.158-0.503h0.345v4.725    h-0.426v-3.51h-1.249v-0.304C273.952,124.818,274.12,124.808,274.27,124.792z"/>
		<path d="M279.536,124.472c-0.174-0.162-0.397-0.243-0.672-0.243s-0.497,0.07-0.668,0.209c-0.172,0.14-0.304,0.315-0.398,0.527    s-0.157,0.44-0.189,0.685c-0.031,0.245-0.047,0.476-0.047,0.692h0.014c0.112-0.234,0.282-0.423,0.51-0.567    c0.227-0.144,0.476-0.216,0.745-0.216c0.239,0,0.454,0.04,0.645,0.118c0.191,0.079,0.354,0.188,0.49,0.328    c0.135,0.139,0.239,0.306,0.313,0.5c0.074,0.193,0.111,0.405,0.111,0.634s-0.039,0.442-0.118,0.638    c-0.079,0.196-0.188,0.365-0.331,0.506c-0.142,0.142-0.311,0.252-0.506,0.331c-0.195,0.079-0.411,0.118-0.645,0.118    c-0.288,0-0.536-0.044-0.742-0.132c-0.207-0.088-0.378-0.23-0.514-0.429c-0.135-0.198-0.235-0.456-0.3-0.773    c-0.065-0.317-0.099-0.708-0.099-1.171c0-0.095,0.006-0.218,0.018-0.371c0.011-0.153,0.037-0.316,0.077-0.49    c0.041-0.173,0.098-0.349,0.173-0.526c0.074-0.178,0.173-0.338,0.297-0.482c0.123-0.144,0.277-0.261,0.462-0.351    c0.185-0.09,0.405-0.135,0.661-0.135c0.424,0,0.759,0.102,1.006,0.304c0.248,0.203,0.396,0.513,0.446,0.932h-0.426    C279.813,124.845,279.708,124.633,279.536,124.472z M278.327,126.014c-0.146,0.065-0.27,0.154-0.371,0.267    c-0.101,0.113-0.178,0.244-0.229,0.395s-0.077,0.314-0.077,0.489c0,0.167,0.022,0.324,0.067,0.473s0.115,0.278,0.213,0.388    c0.097,0.11,0.219,0.197,0.367,0.26s0.326,0.095,0.533,0.095c0.171,0,0.325-0.033,0.463-0.098    c0.137-0.065,0.257-0.153,0.357-0.263c0.102-0.11,0.179-0.24,0.233-0.388c0.054-0.148,0.081-0.304,0.081-0.466    c0-0.171-0.026-0.333-0.078-0.486s-0.126-0.286-0.223-0.398c-0.097-0.112-0.216-0.201-0.357-0.267    c-0.142-0.065-0.303-0.098-0.483-0.098C278.638,125.916,278.473,125.949,278.327,126.014z"/>
	</g>
</g>
<g>
	<g>
		<path d="M305.776,128.636c0.004-0.234,0.045-0.441,0.121-0.621c0.077-0.18,0.178-0.342,0.304-0.486s0.268-0.276,0.426-0.395    c0.157-0.119,0.319-0.234,0.485-0.344c0.167-0.11,0.332-0.223,0.496-0.337c0.165-0.115,0.312-0.237,0.442-0.368    c0.131-0.131,0.229-0.265,0.294-0.402s0.098-0.3,0.098-0.489c0-0.153-0.028-0.289-0.084-0.409    c-0.057-0.119-0.133-0.22-0.229-0.304c-0.097-0.083-0.21-0.146-0.338-0.189c-0.128-0.042-0.265-0.064-0.408-0.064    c-0.193,0-0.359,0.036-0.496,0.108c-0.138,0.072-0.249,0.169-0.334,0.291c-0.086,0.121-0.147,0.261-0.186,0.418    c-0.039,0.157-0.056,0.324-0.051,0.5h-0.426c-0.004-0.243,0.024-0.467,0.085-0.672c0.061-0.205,0.154-0.381,0.28-0.53    s0.284-0.264,0.476-0.348c0.191-0.083,0.415-0.125,0.672-0.125c0.207,0,0.399,0.028,0.577,0.084s0.333,0.14,0.466,0.25    c0.132,0.11,0.235,0.249,0.31,0.415c0.075,0.167,0.112,0.36,0.112,0.581c0,0.198-0.033,0.378-0.099,0.54    c-0.065,0.162-0.152,0.31-0.263,0.445c-0.11,0.135-0.236,0.26-0.378,0.375s-0.292,0.222-0.449,0.321    c-0.112,0.077-0.245,0.161-0.398,0.253c-0.152,0.092-0.3,0.195-0.442,0.307c-0.142,0.113-0.267,0.235-0.374,0.368    c-0.108,0.133-0.176,0.278-0.203,0.435h2.626v0.392H305.776z"/>
		<path d="M312.002,124.097c0.214,0.151,0.38,0.343,0.5,0.577c0.119,0.234,0.2,0.495,0.242,0.783    c0.043,0.288,0.064,0.569,0.064,0.844c0,0.279-0.021,0.562-0.064,0.851c-0.042,0.288-0.123,0.549-0.242,0.783    c-0.12,0.234-0.286,0.425-0.5,0.574s-0.494,0.223-0.84,0.223c-0.343,0-0.621-0.075-0.838-0.223    c-0.216-0.148-0.383-0.339-0.502-0.574c-0.12-0.234-0.201-0.495-0.243-0.783c-0.043-0.288-0.064-0.569-0.064-0.844    c0-0.279,0.021-0.562,0.064-0.851c0.042-0.288,0.123-0.549,0.243-0.783c0.119-0.234,0.286-0.426,0.502-0.577    c0.217-0.15,0.495-0.226,0.838-0.226C311.508,123.871,311.789,123.946,312.002,124.097z M310.514,124.438    c-0.162,0.14-0.285,0.313-0.368,0.52s-0.138,0.432-0.165,0.675c-0.027,0.243-0.041,0.466-0.041,0.668    c0,0.207,0.014,0.431,0.041,0.671c0.027,0.241,0.082,0.466,0.165,0.675c0.083,0.209,0.206,0.384,0.368,0.523    c0.162,0.14,0.378,0.209,0.648,0.209c0.27,0,0.485-0.07,0.647-0.209c0.162-0.139,0.284-0.314,0.368-0.523    c0.083-0.209,0.138-0.434,0.165-0.675c0.027-0.241,0.041-0.464,0.041-0.671c0-0.203-0.014-0.425-0.041-0.668    c-0.027-0.243-0.082-0.468-0.165-0.675c-0.084-0.207-0.206-0.38-0.368-0.52c-0.162-0.139-0.378-0.209-0.647-0.209    C310.892,124.229,310.676,124.298,310.514,124.438z"/>
		<path d="M314.196,124.792c0.151-0.016,0.281-0.053,0.392-0.111s0.203-0.147,0.277-0.267s0.127-0.287,0.158-0.503h0.345v4.725    h-0.426v-3.51h-1.249v-0.304C313.877,124.818,314.045,124.808,314.196,124.792z"/>
		<path d="M319.897,125.71c-0.136,0.183-0.324,0.31-0.567,0.381v0.014c0.311,0.063,0.549,0.199,0.716,0.408    c0.166,0.209,0.249,0.476,0.249,0.8c0,0.239-0.043,0.447-0.128,0.625c-0.086,0.178-0.202,0.325-0.351,0.442    c-0.148,0.117-0.321,0.205-0.517,0.263c-0.196,0.058-0.406,0.088-0.631,0.088c-0.221,0-0.431-0.03-0.628-0.088    c-0.198-0.059-0.371-0.146-0.521-0.263c-0.148-0.117-0.265-0.265-0.351-0.442s-0.128-0.386-0.128-0.625    c0.009-0.31,0.097-0.576,0.263-0.796c0.167-0.22,0.398-0.357,0.695-0.412v-0.014c-0.247-0.076-0.438-0.204-0.57-0.381    s-0.199-0.397-0.199-0.658c0-0.202,0.042-0.378,0.125-0.526s0.192-0.271,0.327-0.368c0.136-0.097,0.288-0.169,0.459-0.216    c0.171-0.047,0.345-0.071,0.521-0.071c0.175,0,0.349,0.024,0.52,0.071c0.171,0.047,0.325,0.12,0.462,0.216    c0.138,0.097,0.248,0.219,0.331,0.368s0.125,0.324,0.125,0.526C320.099,125.309,320.032,125.528,319.897,125.71z M319.137,128.315    c0.146-0.042,0.273-0.108,0.381-0.196c0.108-0.087,0.194-0.199,0.257-0.334c0.063-0.135,0.095-0.292,0.095-0.473    c0-0.171-0.033-0.32-0.098-0.449c-0.065-0.128-0.153-0.236-0.264-0.324c-0.11-0.088-0.238-0.153-0.385-0.196    c-0.146-0.043-0.298-0.062-0.455-0.058c-0.162-0.004-0.316,0.014-0.463,0.054s-0.273,0.104-0.381,0.192    c-0.108,0.088-0.195,0.197-0.261,0.327c-0.064,0.131-0.098,0.281-0.098,0.452c0,0.176,0.031,0.331,0.095,0.466    c0.062,0.135,0.148,0.247,0.257,0.334c0.107,0.087,0.234,0.154,0.381,0.199c0.146,0.045,0.303,0.068,0.47,0.068    C318.834,128.38,318.991,128.358,319.137,128.315z M319.046,125.886c0.121-0.034,0.228-0.087,0.32-0.159    c0.092-0.072,0.166-0.164,0.223-0.277c0.057-0.112,0.084-0.245,0.084-0.398c0-0.135-0.025-0.254-0.077-0.357    s-0.123-0.189-0.213-0.257c-0.09-0.067-0.195-0.119-0.317-0.155c-0.121-0.036-0.254-0.054-0.397-0.054    c-0.131,0-0.257,0.018-0.379,0.054c-0.121,0.036-0.229,0.087-0.323,0.155c-0.095,0.068-0.17,0.153-0.227,0.257    s-0.084,0.223-0.084,0.357c0,0.158,0.029,0.293,0.088,0.405c0.058,0.112,0.135,0.205,0.229,0.277    c0.094,0.072,0.202,0.124,0.323,0.155c0.122,0.031,0.245,0.045,0.372,0.041C318.798,125.934,318.924,125.919,319.046,125.886z"/>
	</g>
</g>
<g>
	<g>
		<path d="M20.316,97.206c0.15-0.016,0.281-0.053,0.392-0.111c0.11-0.059,0.202-0.147,0.276-0.267s0.127-0.287,0.159-0.503h0.344    v4.725h-0.425v-3.51h-1.249v-0.304C19.998,97.231,20.165,97.222,20.316,97.206z"/>
		<path d="M25.628,96.51c0.214,0.151,0.38,0.343,0.5,0.577c0.119,0.234,0.2,0.495,0.243,0.783c0.042,0.288,0.064,0.569,0.064,0.844    c0,0.279-0.021,0.562-0.064,0.851c-0.043,0.288-0.124,0.549-0.243,0.783c-0.119,0.234-0.286,0.425-0.5,0.574    s-0.494,0.223-0.84,0.223c-0.342,0-0.621-0.075-0.837-0.223s-0.384-0.339-0.503-0.574c-0.119-0.234-0.2-0.495-0.243-0.783    c-0.042-0.288-0.064-0.569-0.064-0.844c0-0.279,0.021-0.562,0.064-0.851c0.043-0.288,0.124-0.549,0.243-0.783    c0.119-0.234,0.287-0.426,0.503-0.577c0.216-0.15,0.495-0.226,0.837-0.226C25.134,96.284,25.414,96.36,25.628,96.51z     M24.14,96.851c-0.162,0.14-0.285,0.313-0.368,0.52c-0.083,0.207-0.139,0.432-0.166,0.675c-0.027,0.243-0.041,0.466-0.041,0.668    c0,0.207,0.014,0.431,0.041,0.671c0.027,0.241,0.082,0.466,0.166,0.675c0.083,0.209,0.206,0.384,0.368,0.523    c0.162,0.14,0.378,0.209,0.648,0.209s0.486-0.07,0.648-0.209c0.162-0.139,0.285-0.314,0.368-0.523    c0.083-0.209,0.138-0.434,0.165-0.675c0.027-0.241,0.041-0.464,0.041-0.671c0-0.203-0.013-0.425-0.041-0.668    c-0.027-0.243-0.082-0.468-0.165-0.675c-0.083-0.207-0.206-0.38-0.368-0.52c-0.162-0.139-0.378-0.209-0.648-0.209    S24.302,96.712,24.14,96.851z"/>
	</g>
</g>
<g>
	<g>
		<path d="M19.401,82.649c0.004-0.234,0.045-0.441,0.121-0.621c0.077-0.18,0.178-0.342,0.304-0.486    c0.125-0.144,0.268-0.276,0.425-0.395c0.158-0.119,0.32-0.234,0.486-0.344s0.332-0.223,0.496-0.337    c0.164-0.115,0.312-0.237,0.442-0.368c0.131-0.131,0.229-0.265,0.294-0.402c0.065-0.137,0.098-0.3,0.098-0.489    c0-0.153-0.028-0.289-0.084-0.409c-0.056-0.119-0.133-0.22-0.229-0.304c-0.097-0.083-0.209-0.146-0.337-0.189    c-0.128-0.042-0.264-0.064-0.408-0.064c-0.194,0-0.359,0.036-0.496,0.108c-0.138,0.072-0.249,0.169-0.334,0.291    c-0.085,0.121-0.147,0.261-0.186,0.418c-0.038,0.157-0.055,0.324-0.05,0.5h-0.425c-0.005-0.243,0.023-0.467,0.084-0.672    c0.061-0.205,0.154-0.381,0.28-0.53s0.285-0.264,0.476-0.348c0.191-0.083,0.415-0.125,0.671-0.125    c0.207,0,0.399,0.028,0.577,0.084s0.333,0.14,0.466,0.25c0.133,0.11,0.236,0.249,0.311,0.415s0.111,0.36,0.111,0.581    c0,0.198-0.033,0.378-0.098,0.54c-0.065,0.162-0.153,0.31-0.264,0.445c-0.11,0.135-0.236,0.26-0.378,0.375    c-0.142,0.115-0.291,0.222-0.449,0.321c-0.112,0.077-0.245,0.161-0.398,0.253c-0.153,0.092-0.3,0.195-0.442,0.307    c-0.142,0.113-0.267,0.235-0.375,0.368s-0.176,0.278-0.203,0.435h2.626v0.392H19.401z"/>
		<path d="M25.628,78.11c0.214,0.151,0.38,0.343,0.5,0.577c0.119,0.234,0.2,0.495,0.243,0.783c0.042,0.288,0.064,0.569,0.064,0.844    c0,0.279-0.021,0.562-0.064,0.851c-0.043,0.288-0.124,0.549-0.243,0.783c-0.119,0.234-0.286,0.425-0.5,0.574    s-0.494,0.223-0.84,0.223c-0.342,0-0.621-0.075-0.837-0.223s-0.384-0.339-0.503-0.574c-0.119-0.234-0.2-0.495-0.243-0.783    c-0.042-0.288-0.064-0.569-0.064-0.844c0-0.279,0.021-0.562,0.064-0.851c0.043-0.288,0.124-0.549,0.243-0.783    c0.119-0.234,0.287-0.426,0.503-0.577c0.216-0.15,0.495-0.226,0.837-0.226C25.134,77.884,25.414,77.959,25.628,78.11z     M24.14,78.451c-0.162,0.14-0.285,0.313-0.368,0.52c-0.083,0.207-0.139,0.432-0.166,0.675c-0.027,0.243-0.041,0.466-0.041,0.668    c0,0.207,0.014,0.431,0.041,0.671c0.027,0.241,0.082,0.466,0.166,0.675c0.083,0.209,0.206,0.384,0.368,0.523    c0.162,0.14,0.378,0.209,0.648,0.209s0.486-0.07,0.648-0.209c0.162-0.139,0.285-0.314,0.368-0.523    c0.083-0.209,0.138-0.434,0.165-0.675c0.027-0.241,0.041-0.464,0.041-0.671c0-0.203-0.013-0.425-0.041-0.668    c-0.027-0.243-0.082-0.468-0.165-0.675c-0.083-0.207-0.206-0.38-0.368-0.52c-0.162-0.139-0.378-0.209-0.648-0.209    S24.302,78.312,24.14,78.451z"/>
	</g>
</g>
<g>
	<g>
		<path d="M19.87,63.25c0.052,0.153,0.128,0.283,0.229,0.392c0.102,0.108,0.228,0.192,0.378,0.253    c0.15,0.061,0.32,0.091,0.509,0.091c0.158,0,0.308-0.022,0.453-0.068c0.144-0.045,0.272-0.112,0.384-0.202    c0.113-0.09,0.203-0.2,0.27-0.331c0.068-0.13,0.102-0.279,0.102-0.445c0-0.171-0.029-0.318-0.088-0.442    c-0.059-0.124-0.14-0.227-0.243-0.31c-0.104-0.083-0.224-0.146-0.361-0.186s-0.285-0.061-0.442-0.061h-0.357v-0.358h0.357    c0.108,0,0.22-0.017,0.334-0.05s0.218-0.085,0.311-0.155c0.092-0.07,0.167-0.159,0.226-0.267c0.058-0.108,0.087-0.236,0.087-0.385    c0-0.158-0.027-0.292-0.081-0.402c-0.054-0.11-0.128-0.203-0.223-0.277c-0.094-0.074-0.204-0.128-0.327-0.162    c-0.124-0.034-0.258-0.051-0.402-0.051c-0.175,0-0.331,0.029-0.466,0.088c-0.135,0.059-0.249,0.141-0.341,0.246    c-0.092,0.106-0.161,0.232-0.206,0.378c-0.045,0.146-0.065,0.307-0.061,0.483h-0.425c0-0.225,0.035-0.432,0.105-0.621    c0.069-0.189,0.168-0.352,0.297-0.489s0.285-0.245,0.469-0.324c0.184-0.079,0.391-0.118,0.621-0.118    c0.185,0,0.365,0.024,0.54,0.071c0.176,0.047,0.332,0.12,0.469,0.216s0.248,0.22,0.331,0.371c0.083,0.151,0.125,0.332,0.125,0.543    c0,0.256-0.068,0.479-0.206,0.668c-0.138,0.189-0.334,0.315-0.591,0.378v0.013c0.311,0.05,0.55,0.179,0.719,0.388    c0.169,0.209,0.253,0.469,0.253,0.78c0,0.234-0.044,0.44-0.132,0.618s-0.206,0.327-0.354,0.449    c-0.148,0.122-0.322,0.212-0.52,0.273c-0.198,0.061-0.405,0.091-0.621,0.091c-0.243,0-0.467-0.036-0.671-0.108    c-0.205-0.072-0.38-0.175-0.527-0.311c-0.146-0.135-0.256-0.301-0.331-0.5c-0.074-0.198-0.103-0.425-0.084-0.682h0.425    C19.797,62.925,19.818,63.097,19.87,63.25z"/>
		<path d="M25.628,59.702c0.214,0.151,0.38,0.343,0.5,0.577c0.119,0.234,0.2,0.495,0.243,0.783c0.042,0.288,0.064,0.569,0.064,0.844    c0,0.279-0.021,0.562-0.064,0.851c-0.043,0.288-0.124,0.549-0.243,0.783c-0.119,0.234-0.286,0.425-0.5,0.574    s-0.494,0.223-0.84,0.223c-0.342,0-0.621-0.075-0.837-0.223s-0.384-0.339-0.503-0.574c-0.119-0.234-0.2-0.495-0.243-0.783    c-0.042-0.288-0.064-0.569-0.064-0.844c0-0.279,0.021-0.562,0.064-0.851c0.043-0.288,0.124-0.549,0.243-0.783    c0.119-0.234,0.287-0.426,0.503-0.577c0.216-0.15,0.495-0.226,0.837-0.226C25.134,59.476,25.414,59.552,25.628,59.702z     M24.14,60.043c-0.162,0.14-0.285,0.313-0.368,0.52c-0.083,0.207-0.139,0.432-0.166,0.675c-0.027,0.243-0.041,0.466-0.041,0.668    c0,0.207,0.014,0.431,0.041,0.671c0.027,0.241,0.082,0.466,0.166,0.675c0.083,0.209,0.206,0.384,0.368,0.523    c0.162,0.14,0.378,0.209,0.648,0.209s0.486-0.07,0.648-0.209c0.162-0.139,0.285-0.314,0.368-0.523    c0.083-0.209,0.138-0.434,0.165-0.675c0.027-0.241,0.041-0.464,0.041-0.671c0-0.203-0.013-0.425-0.041-0.668    c-0.027-0.243-0.082-0.468-0.165-0.675c-0.083-0.207-0.206-0.38-0.368-0.52c-0.162-0.139-0.378-0.209-0.648-0.209    S24.302,59.904,24.14,60.043z"/>
	</g>
</g>
<g>
	<g>
		<path d="M4.914,83.641c0-0.335,0.049-0.62,0.146-0.855c0.098-0.235,0.227-0.426,0.387-0.574c0.16-0.147,0.342-0.255,0.547-0.322    c0.205-0.068,0.417-0.102,0.637-0.102c0.215,0,0.427,0.034,0.634,0.102c0.208,0.067,0.392,0.175,0.551,0.322    c0.16,0.147,0.289,0.339,0.386,0.574c0.098,0.235,0.146,0.52,0.146,0.855v1.238h1.92v1.177H4.914V83.641z M7.434,83.964    c0-0.135-0.01-0.265-0.03-0.39c-0.02-0.125-0.059-0.235-0.116-0.33c-0.057-0.095-0.139-0.171-0.244-0.229    s-0.242-0.086-0.413-0.086c-0.17,0-0.307,0.029-0.412,0.086s-0.187,0.134-0.244,0.229c-0.057,0.095-0.096,0.205-0.116,0.33    c-0.02,0.125-0.03,0.255-0.03,0.39v0.915h1.605V83.964z"/>
		<path d="M6.392,80.154h0.72v-0.015c-0.12-0.05-0.231-0.117-0.333-0.202s-0.19-0.183-0.263-0.293    c-0.072-0.11-0.128-0.227-0.168-0.352s-0.06-0.255-0.06-0.39c0-0.07,0.013-0.147,0.038-0.232h0.99    c-0.01,0.05-0.019,0.11-0.026,0.18c-0.007,0.07-0.011,0.138-0.011,0.203c0,0.195,0.033,0.36,0.098,0.495    c0.065,0.135,0.154,0.244,0.266,0.326c0.113,0.083,0.244,0.141,0.394,0.176s0.312,0.052,0.487,0.052h1.748v1.065H6.392V80.154z"/>
		<path d="M5.792,78.219H4.914v-1.065h0.877V78.219z M6.392,77.154h3.877v1.065H6.392V77.154z"/>
		<path d="M7.089,74.461c0,0.17,0.039,0.312,0.116,0.427c0.078,0.115,0.178,0.209,0.3,0.281c0.123,0.073,0.257,0.124,0.405,0.154    s0.294,0.045,0.439,0.045c0.14,0,0.282-0.015,0.427-0.045s0.276-0.079,0.394-0.146c0.117-0.068,0.214-0.159,0.289-0.274    c0.075-0.115,0.113-0.255,0.113-0.42c0-0.255-0.071-0.451-0.214-0.589s-0.334-0.224-0.574-0.259v-1.027    c0.515,0.07,0.907,0.27,1.177,0.6c0.27,0.33,0.405,0.752,0.405,1.267c0,0.29-0.049,0.557-0.146,0.799    c-0.098,0.243-0.233,0.449-0.409,0.619c-0.175,0.17-0.384,0.303-0.626,0.397c-0.242,0.095-0.508,0.143-0.798,0.143    c-0.3,0-0.579-0.043-0.836-0.131c-0.257-0.088-0.48-0.216-0.667-0.387c-0.188-0.17-0.334-0.377-0.439-0.622    c-0.105-0.245-0.157-0.525-0.157-0.84c0-0.23,0.03-0.451,0.09-0.664s0.151-0.402,0.274-0.57s0.275-0.304,0.458-0.409    s0.398-0.165,0.648-0.18v1.042C7.312,73.744,7.089,74.006,7.089,74.461z"/>
		<path d="M9.339,70.869c0.155-0.16,0.233-0.39,0.233-0.69c0-0.215-0.054-0.4-0.162-0.555c-0.107-0.155-0.221-0.25-0.341-0.285    v-0.938c0.465,0.15,0.798,0.38,0.998,0.69c0.2,0.31,0.3,0.685,0.3,1.125c0,0.305-0.049,0.58-0.146,0.825    c-0.098,0.245-0.236,0.453-0.416,0.623c-0.18,0.17-0.395,0.301-0.645,0.394c-0.25,0.093-0.525,0.139-0.825,0.139    c-0.29,0-0.56-0.048-0.81-0.143c-0.25-0.095-0.466-0.23-0.648-0.405c-0.183-0.175-0.327-0.383-0.432-0.626    s-0.157-0.511-0.157-0.806c0-0.33,0.063-0.618,0.191-0.863c0.127-0.245,0.299-0.446,0.514-0.604    c0.215-0.158,0.46-0.271,0.735-0.341c0.275-0.07,0.562-0.095,0.862-0.075v2.797C8.934,71.117,9.184,71.029,9.339,70.869z     M7.299,69.666c-0.14,0.127-0.21,0.321-0.21,0.581c0,0.17,0.029,0.311,0.086,0.424c0.058,0.112,0.129,0.203,0.214,0.27    s0.175,0.115,0.27,0.143c0.095,0.027,0.18,0.043,0.255,0.048v-1.732C7.644,69.449,7.439,69.538,7.299,69.666z"/>
		<path d="M6.392,64.607h0.495v-0.015c-0.21-0.13-0.363-0.295-0.458-0.495c-0.095-0.2-0.143-0.42-0.143-0.66    c0-0.305,0.058-0.567,0.172-0.788c0.115-0.22,0.268-0.402,0.458-0.547s0.411-0.252,0.664-0.323    c0.253-0.07,0.517-0.105,0.792-0.105c0.26,0,0.51,0.035,0.75,0.105c0.24,0.07,0.453,0.176,0.638,0.319    c0.185,0.143,0.333,0.32,0.442,0.533c0.11,0.212,0.165,0.461,0.165,0.746c0,0.24-0.049,0.461-0.146,0.664    c-0.098,0.203-0.241,0.369-0.431,0.499v0.015h1.837v1.065H6.392V64.607z M9.466,63.223c-0.07-0.117-0.161-0.212-0.273-0.285    c-0.113-0.072-0.244-0.124-0.394-0.154c-0.15-0.03-0.302-0.045-0.458-0.045c-0.155,0-0.307,0.017-0.457,0.049    c-0.15,0.033-0.284,0.086-0.401,0.161c-0.118,0.075-0.212,0.171-0.285,0.289c-0.072,0.117-0.109,0.261-0.109,0.431    c0,0.175,0.037,0.321,0.109,0.439c0.073,0.117,0.167,0.212,0.281,0.285c0.115,0.073,0.248,0.124,0.397,0.154    c0.15,0.03,0.305,0.045,0.465,0.045c0.155,0,0.308-0.016,0.458-0.049c0.15-0.032,0.281-0.085,0.394-0.157    c0.112-0.072,0.204-0.169,0.273-0.289c0.07-0.12,0.105-0.265,0.105-0.435C9.572,63.487,9.537,63.341,9.466,63.223z"/>
		<path d="M9.339,59.897c0.155-0.16,0.233-0.39,0.233-0.69c0-0.215-0.054-0.4-0.162-0.555c-0.107-0.155-0.221-0.25-0.341-0.285    v-0.938c0.465,0.15,0.798,0.38,0.998,0.69c0.2,0.31,0.3,0.685,0.3,1.125c0,0.305-0.049,0.58-0.146,0.825    c-0.098,0.245-0.236,0.453-0.416,0.623c-0.18,0.17-0.395,0.301-0.645,0.394c-0.25,0.093-0.525,0.139-0.825,0.139    c-0.29,0-0.56-0.048-0.81-0.143c-0.25-0.095-0.466-0.23-0.648-0.405c-0.183-0.175-0.327-0.383-0.432-0.626    s-0.157-0.511-0.157-0.806c0-0.33,0.063-0.618,0.191-0.863c0.127-0.245,0.299-0.446,0.514-0.604    c0.215-0.158,0.46-0.271,0.735-0.341c0.275-0.07,0.562-0.095,0.862-0.075v2.797C8.934,60.145,9.184,60.057,9.339,59.897z     M7.299,58.693c-0.14,0.127-0.21,0.321-0.21,0.581c0,0.17,0.029,0.311,0.086,0.424c0.058,0.112,0.129,0.203,0.214,0.27    s0.175,0.115,0.27,0.143c0.095,0.027,0.18,0.043,0.255,0.048v-1.732C7.644,58.477,7.439,58.565,7.299,58.693z"/>
		<path d="M6.392,55.72h0.72v-0.015c-0.12-0.05-0.231-0.117-0.333-0.202s-0.19-0.183-0.263-0.293    c-0.072-0.11-0.128-0.227-0.168-0.352s-0.06-0.255-0.06-0.39c0-0.07,0.013-0.147,0.038-0.232h0.99    c-0.01,0.05-0.019,0.11-0.026,0.18c-0.007,0.07-0.011,0.138-0.011,0.203c0,0.195,0.033,0.36,0.098,0.495    c0.065,0.135,0.154,0.244,0.266,0.326c0.113,0.083,0.244,0.141,0.394,0.176s0.312,0.052,0.487,0.052h1.748v1.065H6.392V55.72z"/>
		<path d="M9.305,50.833c0.083-0.047,0.15-0.109,0.203-0.184c0.052-0.075,0.091-0.162,0.116-0.259    c0.025-0.098,0.038-0.199,0.038-0.304c0-0.075-0.009-0.154-0.026-0.236s-0.045-0.158-0.083-0.225s-0.087-0.124-0.15-0.169    C9.34,49.412,9.262,49.39,9.167,49.39c-0.16,0-0.28,0.106-0.36,0.319s-0.16,0.509-0.24,0.889    c-0.035,0.155-0.076,0.307-0.124,0.454c-0.047,0.148-0.11,0.279-0.188,0.394s-0.175,0.208-0.292,0.277    c-0.118,0.07-0.261,0.105-0.431,0.105c-0.25,0-0.455-0.049-0.615-0.146c-0.16-0.098-0.286-0.226-0.379-0.386    c-0.092-0.16-0.157-0.34-0.195-0.54c-0.038-0.2-0.056-0.405-0.056-0.615s0.02-0.414,0.06-0.611    c0.04-0.197,0.107-0.374,0.202-0.528c0.095-0.155,0.222-0.284,0.379-0.387c0.158-0.102,0.356-0.164,0.596-0.184v1.013    c-0.205,0.015-0.344,0.092-0.416,0.232c-0.073,0.14-0.109,0.305-0.109,0.495c0,0.06,0.004,0.125,0.011,0.195    c0.007,0.07,0.024,0.134,0.049,0.191s0.061,0.106,0.109,0.146c0.047,0.04,0.111,0.06,0.191,0.06c0.095,0,0.173-0.035,0.232-0.105    c0.06-0.07,0.109-0.161,0.146-0.274c0.038-0.112,0.071-0.241,0.101-0.386c0.03-0.145,0.063-0.292,0.098-0.442    c0.035-0.155,0.078-0.306,0.127-0.454c0.05-0.147,0.116-0.279,0.199-0.394C8.345,48.592,8.448,48.5,8.57,48.43    c0.123-0.07,0.274-0.105,0.454-0.105c0.255,0,0.469,0.051,0.642,0.154c0.172,0.103,0.311,0.236,0.416,0.401    s0.179,0.354,0.221,0.566c0.042,0.213,0.064,0.429,0.064,0.649c0,0.225-0.022,0.445-0.068,0.66    c-0.045,0.215-0.12,0.406-0.225,0.574s-0.244,0.305-0.417,0.413s-0.389,0.166-0.648,0.176v-1.013    C9.124,50.905,9.223,50.881,9.305,50.833z"/>
		<path d="M4.914,46.637h2.018v-0.022c-0.225-0.135-0.389-0.307-0.491-0.517c-0.103-0.21-0.154-0.415-0.154-0.615    c0-0.285,0.039-0.519,0.116-0.701s0.185-0.326,0.322-0.431c0.138-0.105,0.305-0.179,0.503-0.221    c0.197-0.042,0.416-0.064,0.656-0.064h2.385v1.065h-2.19c-0.32,0-0.559,0.05-0.716,0.15c-0.158,0.1-0.236,0.278-0.236,0.533    c0,0.29,0.086,0.5,0.259,0.63s0.457,0.195,0.851,0.195h2.033v1.065H4.914V46.637z"/>
		<path d="M7.584,43.3c-0.25-0.015-0.458-0.078-0.623-0.188s-0.297-0.25-0.397-0.42s-0.171-0.361-0.214-0.574    c-0.042-0.213-0.063-0.426-0.063-0.642c0-0.195,0.014-0.393,0.041-0.592c0.028-0.2,0.082-0.383,0.162-0.547    c0.08-0.165,0.191-0.3,0.333-0.405s0.332-0.157,0.566-0.157h2.018c0.175,0,0.342-0.01,0.502-0.03s0.28-0.055,0.36-0.105v1.08    c-0.06,0.02-0.121,0.036-0.184,0.049c-0.062,0.012-0.126,0.021-0.191,0.026c0.175,0.17,0.297,0.37,0.368,0.6    c0.07,0.23,0.105,0.465,0.105,0.705c0,0.185-0.022,0.357-0.068,0.518c-0.045,0.16-0.115,0.3-0.21,0.42    c-0.095,0.12-0.215,0.214-0.36,0.281S9.412,43.42,9.211,43.42c-0.22,0-0.401-0.039-0.543-0.116    c-0.143-0.077-0.256-0.177-0.341-0.3s-0.149-0.263-0.191-0.42c-0.042-0.158-0.076-0.316-0.101-0.477    c-0.025-0.16-0.045-0.317-0.06-0.472s-0.038-0.292-0.067-0.413c-0.03-0.12-0.074-0.215-0.131-0.285    c-0.058-0.07-0.141-0.102-0.251-0.097c-0.115,0-0.206,0.019-0.273,0.056c-0.068,0.038-0.12,0.087-0.158,0.15    s-0.062,0.135-0.075,0.217c-0.012,0.083-0.019,0.171-0.019,0.267c0,0.21,0.045,0.375,0.135,0.495c0.09,0.12,0.24,0.19,0.45,0.21    V43.3z M8.372,40.84c0.04,0.045,0.071,0.101,0.094,0.168s0.041,0.14,0.056,0.218s0.028,0.159,0.038,0.244    c0.01,0.085,0.022,0.17,0.038,0.255c0.015,0.08,0.035,0.159,0.06,0.236c0.025,0.078,0.059,0.145,0.101,0.203    s0.096,0.104,0.161,0.139s0.147,0.052,0.248,0.052c0.095,0,0.175-0.017,0.24-0.052S9.523,42.22,9.56,42.16    c0.038-0.06,0.064-0.13,0.079-0.21c0.015-0.08,0.022-0.163,0.022-0.248c0-0.21-0.035-0.373-0.105-0.487    c-0.07-0.115-0.154-0.2-0.251-0.255c-0.097-0.055-0.196-0.088-0.296-0.101c-0.1-0.012-0.18-0.019-0.24-0.019H8.372z"/>
		<path d="M6.392,37.938h0.72v-0.015c-0.12-0.05-0.231-0.117-0.333-0.202s-0.19-0.183-0.263-0.293    c-0.072-0.11-0.128-0.227-0.168-0.352s-0.06-0.255-0.06-0.39c0-0.07,0.013-0.147,0.038-0.232h0.99    c-0.01,0.05-0.019,0.11-0.026,0.18c-0.007,0.07-0.011,0.138-0.011,0.203c0,0.195,0.033,0.36,0.098,0.495    c0.065,0.135,0.154,0.244,0.266,0.326c0.113,0.083,0.244,0.141,0.394,0.176s0.312,0.052,0.487,0.052h1.748v1.065H6.392V37.938z"/>
		<path d="M9.339,34.893c0.155-0.16,0.233-0.39,0.233-0.69c0-0.215-0.054-0.4-0.162-0.555c-0.107-0.155-0.221-0.25-0.341-0.285    v-0.938c0.465,0.15,0.798,0.38,0.998,0.69c0.2,0.31,0.3,0.685,0.3,1.125c0,0.305-0.049,0.58-0.146,0.825    c-0.098,0.245-0.236,0.453-0.416,0.623c-0.18,0.17-0.395,0.301-0.645,0.394c-0.25,0.093-0.525,0.139-0.825,0.139    c-0.29,0-0.56-0.048-0.81-0.143c-0.25-0.095-0.466-0.23-0.648-0.405c-0.183-0.175-0.327-0.383-0.432-0.626    s-0.157-0.511-0.157-0.806c0-0.33,0.063-0.618,0.191-0.863c0.127-0.245,0.299-0.446,0.514-0.604    c0.215-0.158,0.46-0.271,0.735-0.341c0.275-0.07,0.562-0.095,0.862-0.075v2.797C8.934,35.141,9.184,35.053,9.339,34.893z     M7.299,33.689c-0.14,0.127-0.21,0.321-0.21,0.581c0,0.17,0.029,0.311,0.086,0.424c0.058,0.112,0.129,0.203,0.214,0.27    s0.175,0.115,0.27,0.143c0.095,0.027,0.18,0.043,0.255,0.048v-1.732C7.644,33.473,7.439,33.562,7.299,33.689z"/>
	</g>
</g>
<g>
	<g>
		<path d="M21.548,41.117h0.385v3.193h0.708v0.358h-0.708v1.174h-0.392v-1.174h-2.18v-0.412L21.548,41.117z M21.541,41.738h-0.014    l-1.782,2.572h1.795V41.738z"/>
		<path d="M25.628,41.302c0.214,0.151,0.38,0.343,0.5,0.577c0.119,0.234,0.2,0.495,0.243,0.783c0.042,0.288,0.064,0.569,0.064,0.844    c0,0.279-0.021,0.562-0.064,0.851c-0.043,0.288-0.124,0.549-0.243,0.783c-0.119,0.234-0.286,0.425-0.5,0.574    s-0.494,0.223-0.84,0.223c-0.342,0-0.621-0.075-0.837-0.223s-0.384-0.339-0.503-0.574c-0.119-0.234-0.2-0.495-0.243-0.783    c-0.042-0.288-0.064-0.569-0.064-0.844c0-0.279,0.021-0.562,0.064-0.851c0.043-0.288,0.124-0.549,0.243-0.783    c0.119-0.234,0.287-0.426,0.503-0.577c0.216-0.15,0.495-0.226,0.837-0.226C25.134,41.076,25.414,41.152,25.628,41.302z     M24.14,41.643c-0.162,0.14-0.285,0.313-0.368,0.52c-0.083,0.207-0.139,0.432-0.166,0.675c-0.027,0.243-0.041,0.466-0.041,0.668    c0,0.207,0.014,0.431,0.041,0.671c0.027,0.241,0.082,0.466,0.166,0.675c0.083,0.209,0.206,0.384,0.368,0.523    c0.162,0.14,0.378,0.209,0.648,0.209s0.486-0.07,0.648-0.209c0.162-0.139,0.285-0.314,0.368-0.523    c0.083-0.209,0.138-0.434,0.165-0.675c0.027-0.241,0.041-0.464,0.041-0.671c0-0.203-0.013-0.425-0.041-0.668    c-0.027-0.243-0.082-0.468-0.165-0.675c-0.083-0.207-0.206-0.38-0.368-0.52c-0.162-0.139-0.378-0.209-0.648-0.209    S24.302,41.504,24.14,41.643z"/>
	</g>
</g>
<g>
	<g>
		<path d="M19.924,26.554c0.061,0.135,0.143,0.25,0.247,0.348c0.103,0.097,0.225,0.171,0.364,0.223s0.291,0.078,0.452,0.078    c0.185,0,0.349-0.035,0.493-0.105c0.144-0.069,0.268-0.164,0.372-0.283s0.182-0.257,0.236-0.412    c0.054-0.155,0.081-0.318,0.081-0.49c0-0.175-0.031-0.337-0.091-0.486c-0.061-0.148-0.144-0.278-0.25-0.388    c-0.105-0.11-0.233-0.197-0.381-0.26s-0.311-0.095-0.486-0.095c-0.216,0-0.417,0.048-0.601,0.146    c-0.185,0.097-0.335,0.235-0.453,0.415h-0.364l0.459-2.45h2.362v0.391h-2.065l-0.304,1.566l0.014,0.013    c0.117-0.139,0.265-0.248,0.445-0.324c0.18-0.077,0.365-0.115,0.554-0.115c0.243,0,0.462,0.041,0.658,0.121    c0.196,0.081,0.362,0.194,0.5,0.338c0.137,0.144,0.243,0.316,0.317,0.516s0.111,0.42,0.111,0.658c0,0.229-0.042,0.442-0.128,0.638    c-0.085,0.196-0.203,0.365-0.351,0.506c-0.148,0.142-0.323,0.252-0.523,0.331c-0.201,0.079-0.413,0.118-0.638,0.118    c-0.22,0-0.424-0.033-0.611-0.098c-0.187-0.065-0.349-0.16-0.486-0.284c-0.137-0.124-0.247-0.275-0.328-0.456    c-0.081-0.18-0.124-0.382-0.128-0.607h0.425C19.831,26.27,19.864,26.418,19.924,26.554z"/>
		<path d="M25.628,22.918c0.214,0.151,0.38,0.343,0.5,0.577c0.119,0.234,0.2,0.495,0.243,0.783c0.042,0.288,0.064,0.569,0.064,0.844    c0,0.279-0.021,0.562-0.064,0.851c-0.043,0.288-0.124,0.549-0.243,0.783c-0.119,0.234-0.286,0.425-0.5,0.574    s-0.494,0.223-0.84,0.223c-0.342,0-0.621-0.075-0.837-0.223s-0.384-0.339-0.503-0.574c-0.119-0.234-0.2-0.495-0.243-0.783    c-0.042-0.288-0.064-0.569-0.064-0.844c0-0.279,0.021-0.562,0.064-0.851c0.043-0.288,0.124-0.549,0.243-0.783    c0.119-0.234,0.287-0.426,0.503-0.577c0.216-0.15,0.495-0.226,0.837-0.226C25.134,22.692,25.414,22.768,25.628,22.918z     M24.14,23.259c-0.162,0.14-0.285,0.313-0.368,0.52c-0.083,0.207-0.139,0.432-0.166,0.675c-0.027,0.243-0.041,0.466-0.041,0.668    c0,0.207,0.014,0.431,0.041,0.671c0.027,0.241,0.082,0.466,0.166,0.675c0.083,0.209,0.206,0.384,0.368,0.523    c0.162,0.14,0.378,0.209,0.648,0.209s0.486-0.07,0.648-0.209c0.162-0.139,0.285-0.314,0.368-0.523    c0.083-0.209,0.138-0.434,0.165-0.675c0.027-0.241,0.041-0.464,0.041-0.671c0-0.203-0.013-0.425-0.041-0.668    c-0.027-0.243-0.082-0.468-0.165-0.675c-0.083-0.207-0.206-0.38-0.368-0.52c-0.162-0.139-0.378-0.209-0.648-0.209    S24.302,23.12,24.14,23.259z"/>
	</g>
</g>
<g>
	<g>
		<path d="M16.32,8.426c0.191,0.209,0.465,0.334,0.82,0.375V6.803c-0.189-0.041-0.37-0.089-0.543-0.145    c-0.173-0.057-0.324-0.135-0.452-0.236c-0.128-0.102-0.231-0.229-0.307-0.385c-0.077-0.155-0.115-0.35-0.115-0.584    c0-0.203,0.037-0.385,0.111-0.547s0.175-0.3,0.304-0.415s0.279-0.203,0.452-0.263s0.356-0.091,0.55-0.091V3.61h0.263v0.526    c0.198,0,0.383,0.035,0.557,0.105s0.326,0.168,0.459,0.297C18.552,4.666,18.655,4.82,18.729,5c0.074,0.18,0.109,0.38,0.105,0.601    h-0.425c-0.005-0.337-0.099-0.606-0.284-0.807s-0.425-0.3-0.722-0.3v1.944c0.193,0.041,0.383,0.09,0.57,0.148    c0.187,0.059,0.353,0.14,0.5,0.243c0.146,0.104,0.264,0.233,0.354,0.388c0.09,0.155,0.135,0.352,0.135,0.591    c0,0.22-0.044,0.415-0.131,0.583c-0.088,0.169-0.205,0.31-0.351,0.422c-0.146,0.113-0.313,0.197-0.5,0.253    c-0.187,0.056-0.379,0.084-0.577,0.084v0.574H17.14V9.145c-0.527-0.05-0.91-0.205-1.151-0.466    c-0.241-0.261-0.37-0.648-0.388-1.161h0.425C16.031,7.914,16.128,8.217,16.32,8.426z M16.759,4.551    c-0.12,0.039-0.225,0.098-0.317,0.179s-0.165,0.186-0.216,0.314c-0.052,0.128-0.078,0.28-0.078,0.456    c0,0.157,0.028,0.286,0.084,0.385c0.057,0.099,0.131,0.18,0.223,0.243c0.092,0.063,0.198,0.113,0.317,0.149    c0.119,0.036,0.242,0.07,0.368,0.101V4.494C17.005,4.494,16.878,4.513,16.759,4.551z M17.822,8.747    c0.135-0.036,0.255-0.094,0.361-0.175c0.105-0.081,0.191-0.184,0.256-0.307c0.065-0.124,0.098-0.273,0.098-0.449    c0-0.162-0.035-0.297-0.104-0.405s-0.159-0.197-0.267-0.267s-0.229-0.127-0.364-0.172c-0.135-0.045-0.268-0.083-0.398-0.115v1.944    C17.547,8.801,17.687,8.783,17.822,8.747z"/>
		<path d="M21.828,4.893c-0.173-0.162-0.397-0.243-0.671-0.243s-0.498,0.07-0.668,0.209c-0.171,0.14-0.304,0.315-0.398,0.527    c-0.095,0.211-0.158,0.44-0.189,0.685c-0.032,0.245-0.047,0.476-0.047,0.692h0.014c0.112-0.234,0.282-0.423,0.509-0.567    s0.476-0.216,0.746-0.216c0.238,0,0.453,0.04,0.645,0.118c0.191,0.079,0.354,0.188,0.489,0.328c0.135,0.139,0.24,0.306,0.314,0.5    c0.074,0.193,0.111,0.405,0.111,0.634s-0.04,0.442-0.118,0.638c-0.079,0.196-0.189,0.365-0.331,0.506    c-0.142,0.142-0.311,0.252-0.506,0.331c-0.196,0.079-0.411,0.118-0.645,0.118c-0.288,0-0.536-0.044-0.743-0.132    s-0.378-0.23-0.513-0.429c-0.135-0.198-0.235-0.456-0.301-0.773c-0.065-0.317-0.098-0.708-0.098-1.171    c0-0.095,0.005-0.218,0.017-0.371c0.011-0.153,0.037-0.316,0.077-0.49c0.041-0.173,0.098-0.349,0.172-0.526    s0.173-0.338,0.297-0.482c0.124-0.144,0.278-0.261,0.462-0.351c0.185-0.09,0.405-0.135,0.662-0.135    c0.423,0,0.758,0.102,1.006,0.304c0.247,0.203,0.396,0.513,0.445,0.932h-0.425C22.105,5.266,22.001,5.054,21.828,4.893z     M20.62,6.435c-0.146,0.065-0.27,0.154-0.371,0.267c-0.102,0.113-0.178,0.244-0.229,0.395c-0.052,0.151-0.078,0.314-0.078,0.489    c0,0.167,0.022,0.324,0.067,0.473s0.116,0.278,0.212,0.388s0.22,0.197,0.368,0.26s0.326,0.095,0.533,0.095    c0.171,0,0.325-0.033,0.462-0.098c0.137-0.065,0.256-0.153,0.357-0.263c0.102-0.11,0.179-0.24,0.233-0.388    c0.054-0.148,0.081-0.304,0.081-0.466c0-0.171-0.026-0.333-0.078-0.486s-0.126-0.286-0.223-0.398    C21.859,6.589,21.74,6.5,21.598,6.435c-0.142-0.065-0.303-0.098-0.482-0.098C20.931,6.337,20.766,6.37,20.62,6.435z"/>
		<path d="M25.628,4.518c0.214,0.151,0.38,0.343,0.5,0.577c0.119,0.234,0.2,0.495,0.243,0.783c0.042,0.288,0.064,0.569,0.064,0.844    c0,0.279-0.021,0.562-0.064,0.851c-0.043,0.288-0.124,0.549-0.243,0.783c-0.119,0.234-0.286,0.425-0.5,0.574    s-0.494,0.223-0.84,0.223c-0.342,0-0.621-0.075-0.837-0.223s-0.384-0.339-0.503-0.574c-0.119-0.234-0.2-0.495-0.243-0.783    c-0.042-0.288-0.064-0.569-0.064-0.844c0-0.279,0.021-0.562,0.064-0.851c0.043-0.288,0.124-0.549,0.243-0.783    c0.119-0.234,0.287-0.426,0.503-0.577c0.216-0.15,0.495-0.226,0.837-0.226C25.134,4.292,25.414,4.367,25.628,4.518z M24.14,4.858    c-0.162,0.14-0.285,0.313-0.368,0.52c-0.083,0.207-0.139,0.432-0.166,0.675c-0.027,0.243-0.041,0.466-0.041,0.668    c0,0.207,0.014,0.431,0.041,0.671c0.027,0.241,0.082,0.466,0.166,0.675c0.083,0.209,0.206,0.384,0.368,0.523    c0.162,0.14,0.378,0.209,0.648,0.209s0.486-0.07,0.648-0.209c0.162-0.139,0.285-0.314,0.368-0.523    c0.083-0.209,0.138-0.434,0.165-0.675c0.027-0.241,0.041-0.464,0.041-0.671c0-0.203-0.013-0.425-0.041-0.668    c-0.027-0.243-0.082-0.468-0.165-0.675c-0.083-0.207-0.206-0.38-0.368-0.52c-0.162-0.139-0.378-0.209-0.648-0.209    S24.302,4.719,24.14,4.858z"/>
	</g>
</g>
<line fill="none" stroke="#000000" stroke-width="0.5" stroke-linejoin="round" stroke-miterlimit="10" x1="33.558" y1="117.194" x2="30.111" y2="117.194"/>
<line fill="none" stroke="#000000" stroke-width="0.5" stroke-linejoin="round" stroke-miterlimit="10" x1="33.558" y1="98.802" x2="30.111" y2="98.802"/>
<line fill="none" stroke="#000000" stroke-width="0.5" stroke-linejoin="round" stroke-miterlimit="10" x1="33.558" y1="80.41" x2="30.111" y2="80.41"/>
<line fill="none" stroke="#000000" stroke-width="0.5" stroke-linejoin="round" stroke-miterlimit="10" x1="33.558" y1="62.018" x2="30.111" y2="62.018"/>
<line fill="none" stroke="#000000" stroke-width="0.5" stroke-linejoin="round" stroke-miterlimit="10" x1="33.558" y1="43.626" x2="30.111" y2="43.626"/>
<line fill="none" stroke="#000000" stroke-width="0.5" stroke-linejoin="round" stroke-miterlimit="10" x1="33.558" y1="25.234" x2="30.111" y2="25.234"/>
<line fill="none" stroke="#000000" stroke-width="0.5" stroke-linejoin="round" stroke-miterlimit="10" x1="33.558" y1="6.842" x2="30.111" y2="6.842"/>
<g>
	
		<polyline fill="none" stroke="#7A9AA8" stroke-width="2.5" stroke-linecap="round" stroke-linejoin="round" stroke-miterlimit="10" points="   33.558,102.907 35.344,102.907 37.131,99.957 38.917,98.693 40.505,99.115 42.093,100.168 43.681,102.064 45.269,102.485    47.055,101.853 48.644,101.853 50.231,99.115 52.216,100.8 53.804,97.429 55.392,100.168 57.179,98.061 58.767,94.269    60.553,91.53 61.943,87.949 63.729,83.946 65.317,84.157 67.104,90.267 68.691,89.213 70.279,91.53 72.066,87.317 73.654,87.106    75.44,87.738 77.028,87.949 78.616,83.946 80.403,84.157 81.991,87.106 83.579,90.898 85.365,87.528 86.953,86.896 88.541,90.056    90.328,88.792 91.916,89.213 93.503,85.421 95.29,84.579 97.076,86.264 98.664,86.053 100.451,86.475 102.039,88.16 103.626,91.32    105.215,89.845 107.001,94.269 108.589,100.168 110.375,101.221 111.963,100.378 113.75,104.17 115.338,107.331 116.926,109.437    118.712,109.648 120.3,110.28 121.888,111.333 123.675,108.805 125.263,104.17 126.851,100.8 128.637,102.696 130.225,99.115    132.011,97.219 133.6,94.901 135.188,97.64 135.386,97.008 136.974,92.584 138.562,88.16 140.15,91.952 141.738,89.424    143.524,85.421 145.112,82.05 146.7,88.581 148.486,87.528 150.075,84.579 151.861,79.733 153.449,72.57 155.037,67.936    156.823,59.93 158.61,65.829 160.198,74.677 161.786,74.045 163.572,68.568 165.16,69.2 166.748,74.888 168.535,77.837    170.123,79.101 171.909,87.528 171.909,87.738 173.497,89.845 175.085,81.418 176.872,86.475 178.459,87.106 180.246,74.256    181.834,68.568 183.422,69.2 185.208,64.144 186.796,80.154 188.384,78.048 190.17,80.576 191.758,78.89 193.347,70.674    195.133,73.413 196.721,71.728 198.507,65.197 200.294,67.093 201.683,67.936 203.271,72.992 205.058,67.304 206.844,67.514    208.234,74.677 210.02,73.413 211.806,76.573 213.395,68.568 215.181,60.141 216.769,58.034 218.555,60.984 220.143,66.461    221.731,53.61 223.319,52.557 225.106,48.976 226.694,49.186 228.282,46.026 230.068,45.184 231.656,28.541 233.443,36.757    235.031,30.647 236.619,33.175 238.405,39.496 239.993,26.434 241.581,26.645 243.368,34.439 244.956,41.392 246.543,46.869    248.33,53.821 249.917,62.669 251.705,70.674 253.292,75.941 254.88,62.88 256.667,59.088 258.254,63.09 259.842,71.306    261.629,76.362 263.416,63.722 265.003,61.405 266.591,55.717 268.377,53.399 269.965,47.711 271.752,42.234 273.34,43.709    274.928,44.762 276.714,56.349 276.714,57.613 278.302,54.032 280.089,45.605 281.478,55.506 283.265,51.714 284.853,51.503    286.639,49.397 288.227,56.56 290.014,53.821 291.602,62.248 293.19,59.72 294.976,56.981 296.564,59.93 298.152,56.349    299.939,60.352 300.137,60.352 301.527,65.619 303.115,70.042 304.901,71.096 306.687,77.837 308.275,80.787 309.864,82.261    311.65,83.104 312.84,86.896  "/>
</g>
</svg>