<svg xmlns="http://www.w3.org/2000/svg" xmlns:xlink="http://www.w3.org/1999/xlink" version="1.1" id="Layer_1" x="0px" y="0px" width="265.263px" height="127.346px" viewBox="0 0 265.263 127.346" enable-background="new 0 0 265.263 127.346" xml:space="preserve">
<line fill="none" stroke="#CCCCCC" stroke-width="0.5" stroke-linejoin="round" stroke-miterlimit="10" x1="18.781" y1="3.335" x2="258.895" y2="3.335"/>
<line fill="none" stroke="#CCCCCC" stroke-width="0.5" stroke-linejoin="round" stroke-miterlimit="10" x1="18.781" y1="28.504" x2="258.895" y2="28.504"/>
<line fill="none" stroke="#CCCCCC" stroke-width="0.5" stroke-linejoin="round" stroke-miterlimit="10" x1="18.781" y1="78.841" x2="258.895" y2="78.841"/>
<line fill="none" stroke="#CCCCCC" stroke-width="0.5" stroke-linejoin="round" stroke-miterlimit="10" x1="18.781" y1="104.01" x2="258.895" y2="104.01"/>
<line fill="none" stroke="#000000" stroke-width="0.5" stroke-linejoin="round" stroke-miterlimit="10" x1="18.781" y1="116.634" x2="258.895" y2="116.634"/>
<line fill="none" stroke="#CCCCCC" stroke-width="0.5" stroke-linejoin="round" stroke-miterlimit="10" x1="258.895" y1="3.335" x2="258.895" y2="116.634"/>
<line fill="none" stroke="#000000" stroke-width="0.5" stroke-linejoin="round" stroke-miterlimit="10" x1="18.781" y1="3.335" x2="18.781" y2="116.634"/>
<line fill="none" stroke="#000000" stroke-width="1.5" stroke-linejoin="round" stroke-miterlimit="10" x1="114.802" y1="116.594" x2="114.802" y2="3.376"/>
<line fill="none" stroke="#000000" stroke-width="1.5" stroke-linejoin="round" stroke-miterlimit="10" x1="18.741" y1="53.713" x2="258.935" y2="53.713"/>
<path fill="#7A9AA8" d="M80.367,107.267c0,0.938-0.762,1.699-1.699,1.699c-0.938,0-1.7-0.762-1.7-1.699c0-0.944,0.762-1.7,1.7-1.7  C79.605,105.567,80.367,106.323,80.367,107.267z"/>
<path fill="#7A9AA8" d="M143.572,48.189c0,0.938-0.762,1.7-1.699,1.7s-1.7-0.762-1.7-1.7c0-0.944,0.762-1.699,1.7-1.699  S143.572,47.246,143.572,48.189z"/>
<path fill="#7A9AA8" d="M130.624,20.836c0,0.938-0.762,1.7-1.7,1.7s-1.699-0.762-1.699-1.7c0-0.944,0.762-1.699,1.699-1.699  S130.624,19.892,130.624,20.836z"/>
<path fill="#7A9AA8" d="M34.4,77.566c0,0.938-0.762,1.7-1.7,1.7s-1.699-0.762-1.699-1.7c0-0.944,0.762-1.699,1.699-1.699  S34.4,76.622,34.4,77.566z"/>
<path fill="#7A9AA8" d="M63.292,60.491c0,0.938-0.762,1.699-1.7,1.699c-0.937,0-1.699-0.762-1.699-1.699  c0-0.944,0.762-1.7,1.699-1.7C62.529,58.791,63.292,59.546,63.292,60.491z"/>
<path fill="#7A9AA8" d="M180.394,25.854c0,0.938-0.762,1.7-1.699,1.7c-0.938,0-1.7-0.762-1.7-1.7c0-0.944,0.762-1.699,1.7-1.699  C179.632,24.154,180.394,24.909,180.394,25.854z"/>
<path fill="#7A9AA8" d="M69.847,85.335c0,0.938-0.762,1.7-1.7,1.7c-0.937,0-1.699-0.762-1.699-1.7c0-0.944,0.762-1.699,1.699-1.699  C69.084,83.636,69.847,84.392,69.847,85.335z"/>
<path fill="#7A9AA8" d="M197.146,18.003c0,0.938-0.762,1.7-1.699,1.7s-1.7-0.762-1.7-1.7c0-0.944,0.762-1.699,1.7-1.699  S197.146,17.06,197.146,18.003z"/>
<path fill="#7A9AA8" d="M151.26,35.646c0,0.937-0.762,1.699-1.7,1.699s-1.699-0.762-1.699-1.699c0-0.944,0.762-1.7,1.699-1.7  S151.26,34.702,151.26,35.646z"/>
<path fill="#7A9AA8" d="M114.357,58.063c0,0.937-0.762,1.699-1.7,1.699c-0.937,0-1.699-0.762-1.699-1.699  c0-0.944,0.762-1.7,1.699-1.7C113.595,56.363,114.357,57.119,114.357,58.063z"/>
<path fill="#7A9AA8" d="M146.728,28.039c0,0.938-0.762,1.7-1.699,1.7c-0.938,0-1.7-0.762-1.7-1.7c0-0.944,0.762-1.7,1.7-1.7  C145.966,26.339,146.728,27.094,146.728,28.039z"/>
<path fill="#7A9AA8" d="M115.49,67.127c0,0.937-0.762,1.699-1.699,1.699s-1.7-0.762-1.7-1.699c0-0.944,0.762-1.7,1.7-1.7  S115.49,66.183,115.49,67.127z"/>
<path fill="#7A9AA8" d="M143.491,84.041c0,0.938-0.762,1.7-1.699,1.7s-1.7-0.762-1.7-1.7c0-0.944,0.762-1.699,1.7-1.699  S143.491,83.097,143.491,84.041z"/>
<path fill="#7A9AA8" d="M103.513,76.11c0,0.937-0.762,1.699-1.7,1.699c-0.937,0-1.699-0.762-1.699-1.699  c0-0.944,0.762-1.7,1.699-1.7C102.75,74.41,103.513,75.166,103.513,76.11z"/>
<path fill="#7A9AA8" d="M98.819,46.571c0,0.937-0.762,1.699-1.7,1.699c-0.937,0-1.699-0.762-1.699-1.699  c0-0.944,0.762-1.7,1.699-1.7C98.057,44.872,98.819,45.627,98.819,46.571z"/>
<path fill="#7A9AA8" d="M95.663,59.115c0,0.938-0.762,1.7-1.699,1.7c-0.938,0-1.7-0.762-1.7-1.7c0-0.944,0.762-1.699,1.7-1.699  C94.9,57.416,95.663,58.171,95.663,59.115z"/>
<path fill="#7A9AA8" d="M60.378,85.174c0,0.937-0.762,1.699-1.699,1.699s-1.7-0.762-1.7-1.699c0-0.944,0.762-1.7,1.7-1.7  S60.378,84.229,60.378,85.174z"/>
<path fill="#7A9AA8" d="M45.002,89.787c0,0.938-0.762,1.699-1.7,1.699s-1.699-0.762-1.699-1.699c0-0.944,0.762-1.7,1.699-1.7  S45.002,88.842,45.002,89.787z"/>
<path fill="#7A9AA8" d="M214.789,24.073c0,0.938-0.762,1.699-1.7,1.699s-1.699-0.762-1.699-1.699c0-0.944,0.762-1.7,1.699-1.7  S214.789,23.129,214.789,24.073z"/>
<path fill="#7A9AA8" d="M111.687,68.179c0,0.938-0.762,1.7-1.7,1.7s-1.7-0.762-1.7-1.7c0-0.944,0.762-1.699,1.7-1.699  S111.687,67.234,111.687,68.179z"/>
<path fill="#7A9AA8" d="M124.716,54.907c0,0.938-0.762,1.699-1.7,1.699s-1.699-0.762-1.699-1.699c0-0.944,0.762-1.7,1.699-1.7  S124.716,53.962,124.716,54.907z"/>
<path fill="#7A9AA8" d="M157.492,33.785c0,0.937-0.762,1.699-1.7,1.699s-1.699-0.762-1.699-1.699c0-0.944,0.762-1.7,1.699-1.7  S157.492,32.84,157.492,33.785z"/>
<path fill="#7A9AA8" d="M154.74,15.576c0,0.938-0.762,1.7-1.699,1.7s-1.7-0.762-1.7-1.7c0-0.944,0.762-1.7,1.7-1.7  S154.74,14.631,154.74,15.576z"/>
<path fill="#7A9AA8" d="M146.162,40.178c0,0.938-0.762,1.7-1.7,1.7c-0.937,0-1.699-0.762-1.699-1.7c0-0.944,0.762-1.7,1.699-1.7  C145.399,38.478,146.162,39.233,146.162,40.178z"/>
<path fill="#7A9AA8" d="M109.339,28.848c0,0.938-0.762,1.7-1.699,1.7c-0.938,0-1.7-0.762-1.7-1.7c0-0.944,0.762-1.699,1.7-1.699  C108.577,27.148,109.339,27.904,109.339,28.848z"/>
<path fill="#7A9AA8" d="M54.39,92.376c0,0.938-0.762,1.7-1.7,1.7s-1.7-0.762-1.7-1.7c0-0.944,0.762-1.699,1.7-1.699  S54.39,91.432,54.39,92.376z"/>
<path fill="#7A9AA8" d="M153.769,29.819c0,0.938-0.762,1.7-1.7,1.7s-1.7-0.762-1.7-1.7c0-0.944,0.762-1.699,1.7-1.699  S153.769,28.875,153.769,29.819z"/>
<path fill="#7A9AA8" d="M128.52,60.248c0,0.938-0.762,1.699-1.7,1.699s-1.7-0.762-1.7-1.699c0-0.944,0.762-1.7,1.7-1.7  S128.52,59.304,128.52,60.248z"/>
<path fill="#7A9AA8" d="M135.317,30.224c0,0.938-0.762,1.7-1.7,1.7s-1.699-0.762-1.699-1.7c0-0.944,0.762-1.7,1.699-1.7  S135.317,29.279,135.317,30.224z"/>
<path fill="#7A9AA8" d="M139.525,65.266c0,0.937-0.762,1.699-1.699,1.699s-1.7-0.762-1.7-1.699c0-0.944,0.762-1.7,1.7-1.7  S139.525,64.321,139.525,65.266z"/>
<path fill="#7A9AA8" d="M97.362,37.831c0,0.937-0.762,1.699-1.7,1.699s-1.699-0.762-1.699-1.699c0-0.944,0.762-1.7,1.699-1.7  S97.362,36.887,97.362,37.831z"/>
<path fill="#7A9AA8" d="M119.293,67.046c0,0.938-0.762,1.699-1.699,1.699s-1.7-0.762-1.7-1.699c0-0.944,0.762-1.7,1.7-1.7  S119.293,66.102,119.293,67.046z"/>
<path fill="#7A9AA8" d="M123.259,37.75c0,0.938-0.762,1.699-1.7,1.699s-1.7-0.762-1.7-1.699c0-0.944,0.762-1.7,1.7-1.7  S123.259,36.806,123.259,37.75z"/>
<path fill="#7A9AA8" d="M163.804,36.293c0,0.938-0.762,1.7-1.699,1.7s-1.7-0.762-1.7-1.7c0-0.944,0.762-1.699,1.7-1.699  S163.804,35.349,163.804,36.293z"/>
<path fill="#7A9AA8" d="M127.062,52.479c0,0.937-0.762,1.699-1.699,1.699s-1.7-0.762-1.7-1.699c0-0.944,0.762-1.7,1.7-1.7  S127.062,51.535,127.062,52.479z"/>
<path fill="#7A9AA8" d="M150.451,48.433c0,0.937-0.762,1.699-1.699,1.699s-1.7-0.762-1.7-1.699c0-0.944,0.762-1.7,1.7-1.7  S150.451,47.488,150.451,48.433z"/>
<path fill="#7A9AA8" d="M133.78,37.426c0,0.938-0.762,1.7-1.7,1.7s-1.699-0.762-1.699-1.7c0-0.944,0.762-1.7,1.699-1.7  S133.78,36.482,133.78,37.426z"/>
<path fill="#7A9AA8" d="M136.289,35.889c0,0.938-0.762,1.699-1.7,1.699s-1.699-0.762-1.699-1.699c0-0.944,0.762-1.7,1.699-1.7  S136.289,34.944,136.289,35.889z"/>
<path fill="#7A9AA8" d="M101.975,52.317c0,0.938-0.762,1.7-1.7,1.7c-0.937,0-1.699-0.762-1.699-1.7c0-0.944,0.762-1.7,1.699-1.7  C101.213,50.617,101.975,51.373,101.975,52.317z"/>
<path fill="#7A9AA8" d="M162.914,49.161c0,0.938-0.762,1.7-1.699,1.7s-1.7-0.762-1.7-1.7c0-0.944,0.762-1.699,1.7-1.699  S162.914,48.217,162.914,49.161z"/>
<path fill="#7A9AA8" d="M85.951,48.513c0,0.938-0.762,1.7-1.699,1.7s-1.7-0.762-1.7-1.7c0-0.944,0.762-1.699,1.7-1.699  S85.951,47.569,85.951,48.513z"/>
<path fill="#7A9AA8" d="M144.705,42.201c0,0.938-0.762,1.699-1.7,1.699s-1.699-0.762-1.699-1.699c0-0.944,0.762-1.7,1.699-1.7  S144.705,41.257,144.705,42.201z"/>
<path fill="#7A9AA8" d="M158.463,38.074c0,0.938-0.762,1.699-1.7,1.699s-1.7-0.762-1.7-1.699c0-0.944,0.762-1.7,1.7-1.7  S158.463,37.129,158.463,38.074z"/>
<path fill="#7A9AA8" d="M143.086,63.161c0,0.938-0.762,1.7-1.7,1.7s-1.699-0.762-1.699-1.7c0-0.944,0.762-1.699,1.699-1.699  S143.086,62.217,143.086,63.161z"/>
<path fill="#7A9AA8" d="M138.878,47.219c0,0.937-0.762,1.699-1.699,1.699s-1.7-0.762-1.7-1.699c0-0.944,0.762-1.7,1.7-1.7  S138.878,46.274,138.878,47.219z"/>
<path fill="#7A9AA8" d="M81.743,68.907c0,0.938-0.762,1.699-1.7,1.699s-1.699-0.762-1.699-1.699c0-0.944,0.762-1.699,1.699-1.699  S81.743,67.963,81.743,68.907z"/>
<path fill="#7A9AA8" d="M157.087,44.386c0,0.937-0.762,1.699-1.699,1.699c-0.938,0-1.7-0.762-1.7-1.699c0-0.944,0.762-1.7,1.7-1.7  C156.325,42.687,157.087,43.442,157.087,44.386z"/>
<path fill="#7A9AA8" d="M123.178,52.479c0,0.937-0.762,1.699-1.7,1.699s-1.699-0.762-1.699-1.699c0-0.944,0.762-1.7,1.699-1.7  S123.178,51.535,123.178,52.479z"/>
<path fill="#7A9AA8" d="M122.45,37.831c0,0.937-0.762,1.699-1.7,1.699c-0.937,0-1.699-0.762-1.699-1.699  c0-0.944,0.762-1.7,1.699-1.7C121.688,36.131,122.45,36.887,122.45,37.831z"/>
<path fill="#7A9AA8" d="M136.531,49.323c0,0.937-0.762,1.699-1.7,1.699c-0.937,0-1.699-0.762-1.699-1.699  c0-0.944,0.762-1.7,1.699-1.7C135.769,47.623,136.531,48.378,136.531,49.323z"/>
<path fill="#7A9AA8" d="M134.67,51.346c0,0.938-0.762,1.7-1.7,1.7s-1.699-0.762-1.699-1.7c0-0.944,0.762-1.699,1.699-1.699  S134.67,50.401,134.67,51.346z"/>
<path fill="#7A9AA8" d="M101.975,65.427c0,0.938-0.762,1.7-1.7,1.7c-0.937,0-1.699-0.762-1.699-1.7c0-0.944,0.762-1.7,1.699-1.7  C101.213,63.728,101.975,64.483,101.975,65.427z"/>
<path fill="#7A9AA8" d="M152.069,34.675c0,0.938-0.762,1.699-1.7,1.699c-0.937,0-1.699-0.762-1.699-1.699  c0-0.944,0.762-1.7,1.699-1.7C151.307,32.975,152.069,33.73,152.069,34.675z"/>
<path fill="#7A9AA8" d="M101.489,63c0,0.938-0.762,1.699-1.699,1.699s-1.7-0.762-1.7-1.699c0-0.944,0.762-1.7,1.7-1.7  S101.489,62.055,101.489,63z"/>
<path fill="#7A9AA8" d="M138.555,55.23c0,0.938-0.762,1.699-1.7,1.699s-1.7-0.762-1.7-1.699c0-0.944,0.762-1.7,1.7-1.7  S138.555,54.286,138.555,55.23z"/>
<path fill="#7A9AA8" d="M139.849,48.028c0,0.938-0.762,1.699-1.699,1.699c-0.938,0-1.7-0.762-1.7-1.699c0-0.944,0.762-1.7,1.7-1.7  C139.087,46.328,139.849,47.083,139.849,48.028z"/>
<path fill="#7A9AA8" d="M112.496,48.189c0,0.938-0.762,1.7-1.7,1.7c-0.937,0-1.699-0.762-1.699-1.7c0-0.944,0.762-1.699,1.699-1.699  C111.733,46.49,112.496,47.246,112.496,48.189z"/>
<path fill="#7A9AA8" d="M86.275,87.439c0,0.938-0.762,1.7-1.699,1.7s-1.7-0.762-1.7-1.7c0-0.944,0.762-1.699,1.7-1.699  S86.275,86.496,86.275,87.439z"/>
<path fill="#7A9AA8" d="M167.851,22.455c0,0.938-0.762,1.7-1.7,1.7s-1.7-0.762-1.7-1.7c0-0.944,0.762-1.7,1.7-1.7  S167.851,21.51,167.851,22.455z"/>
<path fill="#7A9AA8" d="M99.709,56.202c0,0.937-0.762,1.699-1.699,1.699c-0.938,0-1.7-0.762-1.7-1.699c0-0.944,0.762-1.7,1.7-1.7  C98.947,54.502,99.709,55.257,99.709,56.202z"/>
<path fill="#7A9AA8" d="M124.716,46.328c0,0.938-0.762,1.7-1.7,1.7s-1.699-0.762-1.699-1.7c0-0.944,0.762-1.699,1.699-1.699  S124.716,45.384,124.716,46.328z"/>
<path fill="#7A9AA8" d="M126.577,43.577c0,0.938-0.762,1.7-1.7,1.7s-1.699-0.762-1.699-1.7c0-0.944,0.762-1.699,1.699-1.699  S126.577,42.633,126.577,43.577z"/>
<path fill="#7A9AA8" d="M96.148,40.259c0,0.938-0.762,1.699-1.7,1.699s-1.7-0.762-1.7-1.699c0-0.944,0.762-1.7,1.7-1.7  S96.148,39.314,96.148,40.259z"/>
<path fill="#7A9AA8" d="M135.317,43.981c0,0.938-0.762,1.699-1.7,1.699s-1.699-0.762-1.699-1.699c0-0.944,0.762-1.7,1.699-1.7  S135.317,43.037,135.317,43.981z"/>
<path fill="#7A9AA8" d="M54.47,68.988c0,0.937-0.762,1.699-1.699,1.699c-0.938,0-1.7-0.762-1.7-1.699c0-0.944,0.762-1.7,1.7-1.7  C53.708,67.289,54.47,68.044,54.47,68.988z"/>
<path fill="#7A9AA8" d="M90.807,68.826c0,0.938-0.762,1.7-1.7,1.7s-1.7-0.762-1.7-1.7c0-0.944,0.762-1.699,1.7-1.699  S90.807,67.882,90.807,68.826z"/>
<path fill="#7A9AA8" d="M193.1,26.258c0,0.938-0.762,1.699-1.699,1.699s-1.7-0.762-1.7-1.699c0-0.944,0.762-1.7,1.7-1.7  S193.1,25.314,193.1,26.258z"/>
<path fill="#7A9AA8" d="M117.027,51.669c0,0.938-0.762,1.7-1.699,1.7s-1.7-0.762-1.7-1.7c0-0.944,0.762-1.699,1.7-1.699  S117.027,50.726,117.027,51.669z"/>
<path fill="#7A9AA8" d="M99.547,60.167c0,0.938-0.762,1.699-1.7,1.699s-1.699-0.762-1.699-1.699c0-0.944,0.762-1.7,1.699-1.7  S99.547,59.223,99.547,60.167z"/>
<path fill="#7A9AA8" d="M66.529,75.948c0,0.938-0.762,1.7-1.7,1.7s-1.699-0.762-1.699-1.7c0-0.944,0.762-1.699,1.699-1.699  S66.529,75.004,66.529,75.948z"/>
<path fill="#7A9AA8" d="M112.577,83.393c0,0.938-0.762,1.7-1.7,1.7s-1.699-0.762-1.699-1.7c0-0.944,0.762-1.699,1.699-1.699  S112.577,82.449,112.577,83.393z"/>
<path fill="#7A9AA8" d="M177.885,35.079c0,0.938-0.762,1.7-1.699,1.7c-0.938,0-1.7-0.762-1.7-1.7c0-0.944,0.762-1.699,1.7-1.699  C177.123,33.38,177.885,34.135,177.885,35.079z"/>
<path fill="#7A9AA8" d="M119.132,44.062c0,0.938-0.762,1.699-1.7,1.699s-1.699-0.762-1.699-1.699c0-0.944,0.762-1.7,1.699-1.7  S119.132,43.118,119.132,44.062z"/>
<path fill="#7A9AA8" d="M131.109,44.548c0,0.938-0.762,1.699-1.699,1.699s-1.7-0.762-1.7-1.699c0-0.944,0.762-1.699,1.7-1.699  S131.109,43.604,131.109,44.548z"/>
<path fill="#7A9AA8" d="M117.432,76.434c0,0.938-0.762,1.699-1.699,1.699c-0.938,0-1.7-0.762-1.7-1.699c0-0.944,0.762-1.7,1.7-1.7  C116.67,74.734,117.432,75.489,117.432,76.434z"/>
<path fill="#7A9AA8" d="M150.127,45.033c0,0.938-0.762,1.7-1.699,1.7s-1.7-0.762-1.7-1.7c0-0.944,0.762-1.699,1.7-1.699  S150.127,44.089,150.127,45.033z"/>
<path fill="#7A9AA8" d="M115.328,29.981c0,0.938-0.762,1.699-1.7,1.699c-0.937,0-1.699-0.762-1.699-1.699  c0-0.944,0.762-1.7,1.699-1.7C114.566,28.281,115.328,29.037,115.328,29.981z"/>
<path fill="#7A9AA8" d="M115.328,55.797c0,0.938-0.762,1.699-1.7,1.699c-0.937,0-1.699-0.762-1.699-1.699  c0-0.944,0.762-1.7,1.699-1.7C114.566,54.097,115.328,54.853,115.328,55.797z"/>
<path fill="#7A9AA8" d="M97.686,42.524c0,0.938-0.762,1.7-1.7,1.7s-1.7-0.762-1.7-1.7c0-0.944,0.762-1.699,1.7-1.699  S97.686,41.581,97.686,42.524z"/>
<path fill="#7A9AA8" d="M148.832,47.138c0,0.938-0.762,1.699-1.699,1.699s-1.7-0.762-1.7-1.699c0-0.944,0.762-1.7,1.7-1.7  S148.832,46.193,148.832,47.138z"/>
<path fill="#7A9AA8" d="M133.86,45.924c0,0.937-0.762,1.699-1.699,1.699s-1.7-0.762-1.7-1.699c0-0.944,0.762-1.7,1.7-1.7  S133.86,44.979,133.86,45.924z"/>
<path fill="#7A9AA8" d="M133.537,56.525c0,0.938-0.762,1.699-1.699,1.699s-1.699-0.762-1.699-1.699c0-0.944,0.762-1.7,1.699-1.7  S133.537,55.581,133.537,56.525z"/>
<path fill="#7A9AA8" d="M151.584,55.068c0,0.938-0.762,1.7-1.7,1.7s-1.699-0.762-1.699-1.7c0-0.944,0.762-1.699,1.699-1.699  S151.584,54.125,151.584,55.068z"/>
<path fill="#7A9AA8" d="M116.137,59.681c0,0.938-0.762,1.7-1.699,1.7s-1.7-0.762-1.7-1.7c0-0.944,0.762-1.699,1.7-1.699  S116.137,58.737,116.137,59.681z"/>
<path fill="#7A9AA8" d="M125.201,58.629c0,0.938-0.762,1.7-1.699,1.7s-1.7-0.762-1.7-1.7c0-0.944,0.762-1.7,1.7-1.7  S125.201,57.685,125.201,58.629z"/>
<path fill="#7A9AA8" d="M127.548,42.687c0,0.938-0.762,1.7-1.7,1.7s-1.699-0.762-1.699-1.7c0-0.944,0.762-1.699,1.699-1.699  S127.548,41.742,127.548,42.687z"/>
<path fill="#7A9AA8" d="M121.155,58.144c0,0.938-0.762,1.7-1.699,1.7s-1.7-0.762-1.7-1.7c0-0.944,0.762-1.699,1.7-1.699  S121.155,57.2,121.155,58.144z"/>
<path fill="#7A9AA8" d="M134.913,40.906c0,0.938-0.762,1.699-1.699,1.699c-0.938,0-1.7-0.762-1.7-1.699c0-0.944,0.762-1.7,1.7-1.7  C134.15,39.207,134.913,39.962,134.913,40.906z"/>
<path fill="#7A9AA8" d="M117.027,73.601c0,0.938-0.762,1.699-1.699,1.699s-1.7-0.762-1.7-1.699c0-0.944,0.762-1.7,1.7-1.7  S117.027,72.657,117.027,73.601z"/>
<path fill="#7A9AA8" d="M134.913,49.97c0,0.937-0.762,1.699-1.699,1.699c-0.938,0-1.7-0.762-1.7-1.699c0-0.944,0.762-1.7,1.7-1.7  C134.15,48.271,134.913,49.026,134.913,49.97z"/>
<path fill="#7A9AA8" d="M137.583,39.53c0,0.938-0.762,1.7-1.699,1.7s-1.699-0.762-1.699-1.7c0-0.944,0.762-1.699,1.699-1.699  S137.583,38.586,137.583,39.53z"/>
<path fill="#7A9AA8" d="M120.103,72.063c0,0.938-0.762,1.699-1.7,1.699s-1.7-0.762-1.7-1.699c0-0.944,0.762-1.7,1.7-1.7  S120.103,71.119,120.103,72.063z"/>
<path fill="#7A9AA8" d="M148.994,55.716c0,0.938-0.762,1.7-1.7,1.7s-1.699-0.762-1.699-1.7c0-0.944,0.762-1.699,1.699-1.699  S148.994,54.771,148.994,55.716z"/>
<path fill="#7A9AA8" d="M169.064,34.675c0,0.938-0.762,1.699-1.7,1.699s-1.7-0.762-1.7-1.699c0-0.944,0.762-1.7,1.7-1.7  S169.064,33.73,169.064,34.675z"/>
<path fill="#7A9AA8" d="M78.344,81.046c0,0.938-0.762,1.7-1.7,1.7s-1.7-0.762-1.7-1.7c0-0.944,0.762-1.7,1.7-1.7  S78.344,80.102,78.344,81.046z"/>
<path fill="#7A9AA8" d="M90.321,66.884c0,0.938-0.762,1.7-1.699,1.7s-1.7-0.762-1.7-1.7c0-0.944,0.762-1.699,1.7-1.699  S90.321,65.94,90.321,66.884z"/>
<path fill="#7A9AA8" d="M119.132,45.033c0,0.938-0.762,1.7-1.7,1.7s-1.699-0.762-1.699-1.7c0-0.944,0.762-1.699,1.699-1.699  S119.132,44.089,119.132,45.033z"/>
<path fill="#7A9AA8" d="M137.098,68.583c0,0.938-0.762,1.7-1.699,1.7c-0.938,0-1.7-0.762-1.7-1.7c0-0.944,0.762-1.7,1.7-1.7  C136.335,66.884,137.098,67.639,137.098,68.583z"/>
<path fill="#7A9AA8" d="M121.155,52.641c0,0.938-0.762,1.7-1.699,1.7s-1.7-0.762-1.7-1.7c0-0.944,0.762-1.699,1.7-1.699  S121.155,51.696,121.155,52.641z"/>
<path fill="#7A9AA8" d="M145.838,42.039c0,0.938-0.762,1.699-1.699,1.699c-0.938,0-1.7-0.762-1.7-1.699  c0-0.944,0.762-1.699,1.7-1.699C145.076,40.34,145.838,41.095,145.838,42.039z"/>
<line fill="none" stroke="#F47920" stroke-width="2.5" stroke-linecap="round" stroke-linejoin="round" stroke-miterlimit="10" x1="32.66" y1="90.94" x2="213.129" y2="12.602"/>
<g>
	<path d="M2.383,103.515h3.375v0.391H2.383V103.515z"/>
	<path d="M6.001,105.567c0.004-0.234,0.045-0.441,0.121-0.621c0.077-0.18,0.178-0.342,0.304-0.486   c0.125-0.144,0.268-0.276,0.425-0.395c0.158-0.119,0.32-0.234,0.486-0.344s0.332-0.223,0.496-0.337   c0.164-0.115,0.312-0.237,0.442-0.368c0.131-0.131,0.229-0.265,0.294-0.402c0.065-0.137,0.098-0.3,0.098-0.489   c0-0.153-0.028-0.289-0.084-0.409c-0.056-0.119-0.133-0.22-0.229-0.304c-0.097-0.083-0.209-0.146-0.337-0.189   c-0.128-0.042-0.264-0.064-0.408-0.064c-0.194,0-0.359,0.036-0.496,0.108c-0.138,0.072-0.249,0.169-0.334,0.291   c-0.085,0.121-0.147,0.261-0.186,0.418c-0.038,0.157-0.055,0.324-0.05,0.5H6.116c-0.005-0.243,0.023-0.467,0.084-0.672   c0.061-0.205,0.154-0.381,0.28-0.53s0.285-0.264,0.476-0.348c0.191-0.083,0.415-0.125,0.671-0.125c0.207,0,0.399,0.028,0.577,0.084   s0.333,0.14,0.466,0.25c0.133,0.11,0.236,0.249,0.311,0.415s0.111,0.36,0.111,0.581c0,0.198-0.033,0.378-0.098,0.54   c-0.065,0.162-0.153,0.31-0.264,0.445c-0.11,0.135-0.236,0.26-0.378,0.375c-0.142,0.115-0.291,0.222-0.449,0.321   c-0.112,0.077-0.245,0.161-0.398,0.253c-0.153,0.092-0.3,0.195-0.442,0.307c-0.142,0.113-0.267,0.235-0.375,0.368   s-0.176,0.278-0.203,0.435h2.626v0.392H6.001z"/>
	<path d="M12.228,101.027c0.214,0.151,0.38,0.343,0.5,0.577c0.119,0.234,0.2,0.495,0.243,0.783c0.042,0.288,0.064,0.569,0.064,0.844   c0,0.279-0.021,0.562-0.064,0.851c-0.043,0.288-0.124,0.549-0.243,0.783c-0.119,0.234-0.286,0.425-0.5,0.574   s-0.494,0.223-0.84,0.223c-0.342,0-0.621-0.075-0.837-0.223s-0.384-0.339-0.503-0.574c-0.119-0.234-0.2-0.495-0.243-0.783   c-0.042-0.288-0.064-0.569-0.064-0.844c0-0.279,0.021-0.562,0.064-0.851c0.043-0.288,0.124-0.549,0.243-0.783   c0.119-0.234,0.287-0.426,0.503-0.577c0.216-0.15,0.495-0.226,0.837-0.226C11.734,100.801,12.014,100.877,12.228,101.027z    M10.739,101.368c-0.162,0.14-0.285,0.313-0.368,0.52c-0.083,0.207-0.139,0.432-0.166,0.675c-0.027,0.243-0.041,0.466-0.041,0.668   c0,0.207,0.014,0.431,0.041,0.671c0.027,0.241,0.082,0.466,0.166,0.675c0.083,0.209,0.206,0.384,0.368,0.523   c0.162,0.14,0.378,0.209,0.648,0.209s0.486-0.07,0.648-0.209c0.162-0.139,0.285-0.314,0.368-0.523   c0.083-0.209,0.138-0.434,0.165-0.675c0.027-0.241,0.041-0.464,0.041-0.671c0-0.203-0.013-0.425-0.041-0.668   c-0.027-0.243-0.082-0.468-0.165-0.675c-0.083-0.207-0.206-0.38-0.368-0.52c-0.162-0.139-0.378-0.209-0.648-0.209   S10.901,101.229,10.739,101.368z"/>
</g>
<g>
	<path d="M2.383,78.347h3.375v0.391H2.383V78.347z"/>
	<path d="M6.916,76.555c0.15-0.016,0.281-0.053,0.392-0.111c0.11-0.059,0.202-0.147,0.276-0.267s0.127-0.287,0.159-0.503h0.344   v4.725H7.661v-3.51H6.413v-0.304C6.597,76.581,6.765,76.571,6.916,76.555z"/>
	<path d="M12.228,75.859c0.214,0.151,0.38,0.343,0.5,0.577c0.119,0.234,0.2,0.495,0.243,0.783c0.042,0.288,0.064,0.569,0.064,0.844   c0,0.279-0.021,0.562-0.064,0.851c-0.043,0.288-0.124,0.549-0.243,0.783c-0.119,0.234-0.286,0.425-0.5,0.574   s-0.494,0.223-0.84,0.223c-0.342,0-0.621-0.075-0.837-0.223s-0.384-0.339-0.503-0.574c-0.119-0.234-0.2-0.495-0.243-0.783   C9.762,78.626,9.74,78.345,9.74,78.07c0-0.279,0.021-0.562,0.064-0.851c0.043-0.288,0.124-0.549,0.243-0.783   c0.119-0.234,0.287-0.426,0.503-0.577c0.216-0.15,0.495-0.226,0.837-0.226C11.734,75.633,12.014,75.709,12.228,75.859z    M10.739,76.2c-0.162,0.14-0.285,0.313-0.368,0.52c-0.083,0.207-0.139,0.432-0.166,0.675c-0.027,0.243-0.041,0.466-0.041,0.668   c0,0.207,0.014,0.431,0.041,0.671c0.027,0.241,0.082,0.466,0.166,0.675c0.083,0.209,0.206,0.384,0.368,0.523   c0.162,0.14,0.378,0.209,0.648,0.209s0.486-0.07,0.648-0.209c0.162-0.139,0.285-0.314,0.368-0.523   c0.083-0.209,0.138-0.434,0.165-0.675c0.027-0.241,0.041-0.464,0.041-0.671c0-0.203-0.013-0.425-0.041-0.668   c-0.027-0.243-0.082-0.468-0.165-0.675c-0.083-0.207-0.206-0.38-0.368-0.52c-0.162-0.139-0.378-0.209-0.648-0.209   S10.901,76.061,10.739,76.2z"/>
</g>
<g>
	<path d="M12.228,51.074c0.214,0.151,0.38,0.343,0.5,0.577c0.119,0.234,0.2,0.495,0.243,0.783c0.042,0.288,0.064,0.569,0.064,0.844   c0,0.279-0.021,0.562-0.064,0.851c-0.043,0.288-0.124,0.549-0.243,0.783c-0.119,0.234-0.286,0.425-0.5,0.574   s-0.494,0.223-0.84,0.223c-0.342,0-0.621-0.075-0.837-0.223s-0.384-0.339-0.503-0.574c-0.119-0.234-0.2-0.495-0.243-0.783   C9.762,53.84,9.74,53.559,9.74,53.285c0-0.279,0.021-0.562,0.064-0.851c0.043-0.288,0.124-0.549,0.243-0.783   c0.119-0.234,0.287-0.426,0.503-0.577c0.216-0.15,0.495-0.226,0.837-0.226C11.734,50.848,12.014,50.923,12.228,51.074z    M10.739,51.415c-0.162,0.14-0.285,0.313-0.368,0.52c-0.083,0.207-0.139,0.432-0.166,0.675c-0.027,0.243-0.041,0.466-0.041,0.668   c0,0.207,0.014,0.431,0.041,0.671c0.027,0.241,0.082,0.466,0.166,0.675c0.083,0.209,0.206,0.384,0.368,0.523   c0.162,0.14,0.378,0.209,0.648,0.209s0.486-0.07,0.648-0.209c0.162-0.139,0.285-0.314,0.368-0.523   c0.083-0.209,0.138-0.434,0.165-0.675c0.027-0.241,0.041-0.464,0.041-0.671c0-0.203-0.013-0.425-0.041-0.668   c-0.027-0.243-0.082-0.468-0.165-0.675c-0.083-0.207-0.206-0.38-0.368-0.52c-0.162-0.139-0.378-0.209-0.648-0.209   S10.901,51.275,10.739,51.415z"/>
</g>
<g>
	<path d="M6.915,26.217c0.15-0.016,0.281-0.053,0.392-0.111c0.11-0.059,0.202-0.147,0.276-0.267s0.127-0.287,0.159-0.503h0.344   v4.725H7.661v-3.51H6.412v-0.304C6.597,26.243,6.764,26.233,6.915,26.217z"/>
	<path d="M12.227,25.522c0.214,0.151,0.38,0.343,0.5,0.577c0.119,0.234,0.2,0.495,0.243,0.783c0.042,0.288,0.064,0.569,0.064,0.844   c0,0.279-0.021,0.562-0.064,0.851c-0.043,0.288-0.124,0.549-0.243,0.783c-0.119,0.234-0.286,0.425-0.5,0.574   s-0.494,0.223-0.84,0.223c-0.342,0-0.621-0.075-0.837-0.223s-0.384-0.339-0.503-0.574c-0.119-0.234-0.2-0.495-0.243-0.783   c-0.042-0.288-0.064-0.569-0.064-0.844c0-0.279,0.021-0.562,0.064-0.851c0.043-0.288,0.124-0.549,0.243-0.783   c0.119-0.234,0.287-0.426,0.503-0.577c0.216-0.15,0.495-0.226,0.837-0.226C11.733,25.296,12.013,25.372,12.227,25.522z    M10.739,25.863c-0.162,0.14-0.285,0.313-0.368,0.52c-0.083,0.207-0.139,0.432-0.166,0.675c-0.027,0.243-0.041,0.466-0.041,0.668   c0,0.207,0.014,0.431,0.041,0.671c0.027,0.241,0.082,0.466,0.166,0.675c0.083,0.209,0.206,0.384,0.368,0.523   c0.162,0.14,0.378,0.209,0.648,0.209s0.486-0.07,0.648-0.209c0.162-0.139,0.285-0.314,0.368-0.523   c0.083-0.209,0.138-0.434,0.165-0.675c0.027-0.241,0.041-0.464,0.041-0.671c0-0.203-0.013-0.425-0.041-0.668   c-0.027-0.243-0.082-0.468-0.165-0.675c-0.083-0.207-0.206-0.38-0.368-0.52c-0.162-0.139-0.378-0.209-0.648-0.209   S10.901,25.724,10.739,25.863z"/>
</g>
<g>
	<path d="M0,4.894C0.004,4.66,0.045,4.453,0.121,4.272c0.077-0.18,0.178-0.342,0.304-0.486C0.551,3.643,0.693,3.511,0.85,3.392   c0.158-0.119,0.32-0.234,0.486-0.344S1.668,2.825,1.833,2.71c0.164-0.115,0.312-0.237,0.442-0.368   C2.405,2.211,2.503,2.078,2.568,1.94c0.065-0.137,0.098-0.3,0.098-0.489c0-0.153-0.028-0.289-0.084-0.409   c-0.056-0.119-0.133-0.22-0.229-0.304C2.255,0.656,2.143,0.593,2.015,0.55C1.886,0.507,1.75,0.486,1.606,0.486   c-0.194,0-0.359,0.036-0.496,0.108C0.973,0.666,0.861,0.763,0.776,0.884C0.69,1.005,0.628,1.145,0.59,1.303   c-0.038,0.157-0.055,0.324-0.05,0.5H0.115C0.11,1.559,0.138,1.335,0.199,1.13c0.061-0.205,0.154-0.381,0.28-0.53   s0.285-0.264,0.476-0.348C1.146,0.17,1.37,0.128,1.626,0.128c0.207,0,0.399,0.028,0.577,0.084s0.333,0.14,0.466,0.25   c0.133,0.11,0.236,0.249,0.311,0.415s0.111,0.36,0.111,0.581c0,0.198-0.033,0.378-0.098,0.54C2.928,2.16,2.84,2.308,2.73,2.443   c-0.11,0.135-0.236,0.26-0.378,0.375C2.21,2.933,2.061,3.04,1.903,3.139C1.791,3.215,1.658,3.299,1.505,3.392   c-0.153,0.092-0.3,0.195-0.442,0.307C0.921,3.812,0.796,3.934,0.688,4.067S0.513,4.345,0.486,4.502h2.626v0.392H0z"/>
	<path d="M6.227,0.354c0.214,0.151,0.38,0.343,0.5,0.577c0.119,0.234,0.2,0.495,0.243,0.783c0.042,0.288,0.064,0.569,0.064,0.844   c0,0.279-0.021,0.562-0.064,0.851C6.926,3.697,6.845,3.958,6.726,4.191c-0.119,0.234-0.286,0.425-0.5,0.574   s-0.494,0.223-0.84,0.223c-0.342,0-0.621-0.075-0.837-0.223S4.166,4.426,4.046,4.191c-0.119-0.234-0.2-0.495-0.243-0.783   C3.761,3.121,3.739,2.839,3.739,2.565c0-0.279,0.021-0.562,0.064-0.851c0.043-0.288,0.124-0.549,0.243-0.783   c0.119-0.234,0.287-0.426,0.503-0.577c0.216-0.15,0.495-0.226,0.837-0.226C5.733,0.128,6.013,0.204,6.227,0.354z M4.738,0.695   c-0.162,0.14-0.285,0.313-0.368,0.52C4.287,1.422,4.232,1.647,4.205,1.89C4.178,2.133,4.165,2.355,4.165,2.558   c0,0.207,0.014,0.431,0.041,0.671c0.027,0.241,0.082,0.466,0.166,0.675c0.083,0.209,0.206,0.384,0.368,0.523   C4.9,4.567,5.116,4.637,5.386,4.637s0.486-0.07,0.648-0.209c0.162-0.139,0.285-0.314,0.368-0.523   c0.083-0.209,0.138-0.434,0.165-0.675c0.027-0.241,0.041-0.464,0.041-0.671c0-0.203-0.013-0.425-0.041-0.668   C6.541,1.647,6.485,1.422,6.402,1.215c-0.083-0.207-0.206-0.38-0.368-0.52C5.872,0.556,5.656,0.486,5.386,0.486   S4.9,0.556,4.738,0.695z"/>
	<path d="M9.291,0.226c0.137,0.065,0.249,0.155,0.334,0.27s0.149,0.25,0.189,0.405c0.041,0.155,0.061,0.323,0.061,0.503   S9.854,1.751,9.814,1.907c-0.04,0.155-0.104,0.29-0.189,0.405s-0.197,0.205-0.334,0.27C9.154,2.647,8.991,2.68,8.802,2.68   S8.45,2.647,8.312,2.582c-0.138-0.065-0.249-0.155-0.334-0.27S7.83,2.062,7.789,1.907S7.729,1.584,7.729,1.404   s0.02-0.348,0.061-0.503s0.104-0.29,0.189-0.405s0.197-0.205,0.334-0.27c0.137-0.065,0.3-0.098,0.489-0.098   S9.154,0.161,9.291,0.226z M8.447,0.523c-0.092,0.061-0.166,0.14-0.219,0.236C8.174,0.856,8.137,0.962,8.117,1.077   c-0.021,0.115-0.03,0.226-0.03,0.334s0.01,0.218,0.03,0.331c0.02,0.113,0.057,0.216,0.111,0.311   c0.054,0.095,0.127,0.172,0.219,0.233s0.21,0.091,0.354,0.091c0.139,0,0.255-0.031,0.348-0.091s0.165-0.138,0.219-0.233   c0.054-0.094,0.092-0.198,0.115-0.311c0.022-0.112,0.034-0.223,0.034-0.331S9.506,1.191,9.483,1.077S9.423,0.856,9.369,0.759   S9.242,0.583,9.149,0.523S8.941,0.432,8.802,0.432C8.658,0.432,8.54,0.462,8.447,0.523z M11.92,0L8.869,5.116H8.545L11.603,0H11.92   z M12.254,2.541c0.137,0.065,0.249,0.155,0.334,0.27s0.148,0.25,0.189,0.405s0.061,0.323,0.061,0.503   c0,0.18-0.021,0.348-0.061,0.503c-0.041,0.155-0.104,0.29-0.189,0.405s-0.197,0.204-0.334,0.267s-0.3,0.095-0.489,0.095   s-0.353-0.032-0.49-0.095s-0.249-0.152-0.334-0.267s-0.148-0.25-0.189-0.405c-0.041-0.155-0.061-0.323-0.061-0.503   c0-0.18,0.02-0.348,0.061-0.503s0.104-0.291,0.189-0.405s0.197-0.205,0.334-0.27c0.137-0.065,0.301-0.098,0.49-0.098   S12.117,2.476,12.254,2.541z M11.411,2.838c-0.092,0.061-0.166,0.139-0.219,0.236C11.137,3.171,11.1,3.277,11.08,3.392   c-0.02,0.115-0.03,0.226-0.03,0.334c0,0.108,0.01,0.219,0.03,0.331c0.021,0.112,0.058,0.216,0.112,0.311   c0.054,0.094,0.127,0.172,0.219,0.233c0.092,0.061,0.21,0.091,0.354,0.091c0.139,0,0.255-0.03,0.348-0.091   c0.092-0.061,0.165-0.139,0.219-0.233c0.054-0.095,0.092-0.198,0.115-0.311s0.034-0.223,0.034-0.331   c0-0.108-0.011-0.219-0.034-0.334s-0.061-0.22-0.115-0.317c-0.054-0.097-0.127-0.175-0.219-0.236   c-0.092-0.061-0.208-0.091-0.348-0.091C11.621,2.747,11.503,2.777,11.411,2.838z"/>
</g>
<g>
	<path d="M13.341,125.071h3.375v0.391h-3.375V125.071z"/>
	<path d="M17.874,123.279c0.15-0.016,0.281-0.053,0.392-0.111c0.11-0.059,0.202-0.147,0.276-0.267s0.127-0.287,0.159-0.503h0.344   v4.725h-0.425v-3.51h-1.249v-0.304C17.555,123.305,17.723,123.295,17.874,123.279z"/>
	<path d="M23.186,122.583c0.214,0.151,0.38,0.343,0.5,0.577c0.119,0.234,0.2,0.495,0.243,0.783c0.042,0.288,0.064,0.569,0.064,0.844   c0,0.279-0.021,0.562-0.064,0.851c-0.043,0.288-0.124,0.549-0.243,0.783c-0.119,0.234-0.286,0.425-0.5,0.574   s-0.494,0.223-0.84,0.223c-0.342,0-0.621-0.075-0.837-0.223s-0.384-0.339-0.503-0.574c-0.119-0.234-0.2-0.495-0.243-0.783   c-0.042-0.288-0.064-0.569-0.064-0.844c0-0.279,0.021-0.562,0.064-0.851c0.043-0.288,0.124-0.549,0.243-0.783   c0.119-0.234,0.287-0.426,0.503-0.577c0.216-0.15,0.495-0.226,0.837-0.226C22.692,122.357,22.972,122.433,23.186,122.583z    M21.697,122.924c-0.162,0.14-0.285,0.313-0.368,0.52c-0.083,0.207-0.139,0.432-0.166,0.675c-0.027,0.243-0.041,0.466-0.041,0.668   c0,0.207,0.014,0.431,0.041,0.671c0.027,0.241,0.082,0.466,0.166,0.675c0.083,0.209,0.206,0.384,0.368,0.523   c0.162,0.14,0.378,0.209,0.648,0.209s0.486-0.07,0.648-0.209c0.162-0.139,0.285-0.314,0.368-0.523   c0.083-0.209,0.138-0.434,0.165-0.675c0.027-0.241,0.041-0.464,0.041-0.671c0-0.203-0.013-0.425-0.041-0.668   c-0.027-0.243-0.082-0.468-0.165-0.675c-0.083-0.207-0.206-0.38-0.368-0.52c-0.162-0.139-0.378-0.209-0.648-0.209   S21.859,122.785,21.697,122.924z"/>
</g>
<g>
	<path d="M63.248,125.071h3.375v0.391h-3.375V125.071z"/>
	<path d="M67.389,126.219c0.061,0.135,0.143,0.25,0.247,0.348c0.103,0.097,0.225,0.171,0.364,0.223s0.291,0.078,0.452,0.078   c0.185,0,0.349-0.035,0.493-0.105c0.144-0.069,0.268-0.164,0.372-0.283s0.182-0.257,0.236-0.412   c0.054-0.155,0.081-0.318,0.081-0.49c0-0.175-0.031-0.337-0.091-0.486c-0.061-0.148-0.144-0.278-0.25-0.388   c-0.105-0.11-0.233-0.197-0.381-0.26s-0.311-0.095-0.486-0.095c-0.216,0-0.417,0.048-0.601,0.146   c-0.185,0.097-0.335,0.235-0.453,0.415h-0.364l0.459-2.45h2.362v0.391h-2.065l-0.304,1.566l0.014,0.013   c0.117-0.139,0.265-0.248,0.445-0.324c0.18-0.077,0.365-0.115,0.554-0.115c0.243,0,0.462,0.041,0.658,0.121   c0.196,0.081,0.362,0.194,0.5,0.338c0.137,0.144,0.243,0.316,0.317,0.516s0.111,0.42,0.111,0.658c0,0.229-0.042,0.442-0.128,0.638   c-0.085,0.196-0.203,0.365-0.351,0.506c-0.148,0.142-0.323,0.252-0.523,0.331c-0.201,0.079-0.413,0.118-0.638,0.118   c-0.22,0-0.424-0.033-0.611-0.098c-0.187-0.065-0.349-0.16-0.486-0.284c-0.137-0.124-0.247-0.275-0.328-0.456   c-0.081-0.18-0.124-0.382-0.128-0.607h0.425C67.296,125.935,67.329,126.083,67.389,126.219z"/>
</g>
<g>
	<path d="M115.795,122.583c0.214,0.151,0.38,0.343,0.5,0.577c0.119,0.234,0.2,0.495,0.243,0.783   c0.042,0.288,0.064,0.569,0.064,0.844c0,0.279-0.021,0.562-0.064,0.851c-0.043,0.288-0.124,0.549-0.243,0.783   c-0.119,0.234-0.286,0.425-0.5,0.574s-0.494,0.223-0.84,0.223c-0.342,0-0.621-0.075-0.837-0.223s-0.384-0.339-0.503-0.574   c-0.119-0.234-0.2-0.495-0.243-0.783c-0.042-0.288-0.064-0.569-0.064-0.844c0-0.279,0.021-0.562,0.064-0.851   c0.043-0.288,0.124-0.549,0.243-0.783c0.119-0.234,0.287-0.426,0.503-0.577c0.216-0.15,0.495-0.226,0.837-0.226   C115.302,122.357,115.582,122.433,115.795,122.583z M114.307,122.924c-0.162,0.14-0.285,0.313-0.368,0.52   c-0.083,0.207-0.139,0.432-0.166,0.675c-0.027,0.243-0.041,0.466-0.041,0.668c0,0.207,0.014,0.431,0.041,0.671   c0.027,0.241,0.082,0.466,0.166,0.675c0.083,0.209,0.206,0.384,0.368,0.523c0.162,0.14,0.378,0.209,0.648,0.209   s0.486-0.07,0.648-0.209c0.162-0.139,0.285-0.314,0.368-0.523c0.083-0.209,0.138-0.434,0.165-0.675   c0.027-0.241,0.041-0.464,0.041-0.671c0-0.203-0.013-0.425-0.041-0.668c-0.027-0.243-0.082-0.468-0.165-0.675   c-0.083-0.207-0.206-0.38-0.368-0.52c-0.162-0.139-0.378-0.209-0.648-0.209S114.469,122.785,114.307,122.924z"/>
</g>
<g>
	<path d="M161.763,126.219c0.061,0.135,0.143,0.25,0.247,0.348c0.103,0.097,0.225,0.171,0.364,0.223s0.291,0.078,0.452,0.078   c0.185,0,0.349-0.035,0.493-0.105c0.144-0.069,0.268-0.164,0.372-0.283s0.182-0.257,0.236-0.412   c0.054-0.155,0.081-0.318,0.081-0.49c0-0.175-0.031-0.337-0.091-0.486c-0.061-0.148-0.144-0.278-0.25-0.388   c-0.105-0.11-0.233-0.197-0.381-0.26s-0.311-0.095-0.486-0.095c-0.216,0-0.417,0.048-0.601,0.146   c-0.185,0.097-0.335,0.235-0.453,0.415h-0.364l0.459-2.45h2.362v0.391h-2.065l-0.304,1.566l0.014,0.013   c0.117-0.139,0.265-0.248,0.445-0.324c0.18-0.077,0.365-0.115,0.554-0.115c0.243,0,0.462,0.041,0.658,0.121   c0.196,0.081,0.362,0.194,0.5,0.338c0.137,0.144,0.243,0.316,0.317,0.516s0.111,0.42,0.111,0.658c0,0.229-0.042,0.442-0.128,0.638   c-0.085,0.196-0.203,0.365-0.351,0.506c-0.148,0.142-0.323,0.252-0.523,0.331c-0.201,0.079-0.413,0.118-0.638,0.118   c-0.22,0-0.424-0.033-0.611-0.098c-0.187-0.065-0.349-0.16-0.486-0.284c-0.137-0.124-0.247-0.275-0.328-0.456   c-0.081-0.18-0.124-0.382-0.128-0.607h0.425C161.67,125.935,161.703,126.083,161.763,126.219z"/>
</g>
<g>
	<path d="M208.31,123.279c0.15-0.016,0.281-0.053,0.392-0.111c0.11-0.059,0.202-0.147,0.276-0.267s0.127-0.287,0.159-0.503h0.344   v4.725h-0.425v-3.51h-1.249v-0.304C207.991,123.305,208.159,123.295,208.31,123.279z"/>
	<path d="M213.622,122.583c0.214,0.151,0.38,0.343,0.5,0.577c0.119,0.234,0.2,0.495,0.243,0.783   c0.042,0.288,0.064,0.569,0.064,0.844c0,0.279-0.021,0.562-0.064,0.851c-0.043,0.288-0.124,0.549-0.243,0.783   c-0.119,0.234-0.286,0.425-0.5,0.574s-0.494,0.223-0.84,0.223c-0.342,0-0.621-0.075-0.837-0.223s-0.384-0.339-0.503-0.574   c-0.119-0.234-0.2-0.495-0.243-0.783c-0.042-0.288-0.064-0.569-0.064-0.844c0-0.279,0.021-0.562,0.064-0.851   c0.043-0.288,0.124-0.549,0.243-0.783c0.119-0.234,0.287-0.426,0.503-0.577c0.216-0.15,0.495-0.226,0.837-0.226   C213.128,122.357,213.408,122.433,213.622,122.583z M212.133,122.924c-0.162,0.14-0.285,0.313-0.368,0.52   c-0.083,0.207-0.139,0.432-0.166,0.675c-0.027,0.243-0.041,0.466-0.041,0.668c0,0.207,0.014,0.431,0.041,0.671   c0.027,0.241,0.082,0.466,0.166,0.675c0.083,0.209,0.206,0.384,0.368,0.523c0.162,0.14,0.378,0.209,0.648,0.209   s0.486-0.07,0.648-0.209c0.162-0.139,0.285-0.314,0.368-0.523c0.083-0.209,0.138-0.434,0.165-0.675   c0.027-0.241,0.041-0.464,0.041-0.671c0-0.203-0.013-0.425-0.041-0.668c-0.027-0.243-0.082-0.468-0.165-0.675   c-0.083-0.207-0.206-0.38-0.368-0.52c-0.162-0.139-0.378-0.209-0.648-0.209S212.295,122.785,212.133,122.924z"/>
</g>
<g>
	<path d="M253.339,123.279c0.151-0.016,0.281-0.053,0.392-0.111s0.203-0.147,0.277-0.267s0.127-0.287,0.158-0.503h0.345v4.725   h-0.426v-3.51h-1.249v-0.304C253.021,123.305,253.188,123.295,253.339,123.279z"/>
	<path d="M256.701,126.219c0.061,0.135,0.143,0.25,0.246,0.348c0.104,0.097,0.225,0.171,0.364,0.223s0.29,0.078,0.452,0.078   c0.185,0,0.349-0.035,0.493-0.105c0.144-0.069,0.268-0.164,0.371-0.283s0.183-0.257,0.236-0.412   c0.054-0.155,0.081-0.318,0.081-0.49c0-0.175-0.03-0.337-0.092-0.486c-0.061-0.148-0.144-0.278-0.249-0.388   c-0.106-0.11-0.233-0.197-0.382-0.26s-0.311-0.095-0.485-0.095c-0.217,0-0.417,0.048-0.602,0.146   c-0.185,0.097-0.335,0.235-0.452,0.415h-0.364l0.459-2.45h2.362v0.391h-2.065l-0.304,1.566l0.014,0.013   c0.117-0.139,0.266-0.248,0.445-0.324c0.18-0.077,0.364-0.115,0.554-0.115c0.243,0,0.462,0.041,0.658,0.121   c0.195,0.081,0.362,0.194,0.499,0.338c0.138,0.144,0.243,0.316,0.317,0.516s0.111,0.42,0.111,0.658   c0,0.229-0.043,0.442-0.128,0.638c-0.086,0.196-0.202,0.365-0.352,0.506c-0.148,0.142-0.322,0.252-0.522,0.331   c-0.2,0.079-0.413,0.118-0.638,0.118c-0.221,0-0.425-0.033-0.611-0.098c-0.187-0.065-0.349-0.16-0.486-0.284   c-0.137-0.124-0.246-0.275-0.327-0.456c-0.081-0.18-0.124-0.382-0.128-0.607h0.425C256.607,125.935,256.64,126.083,256.701,126.219   z"/>
	<path d="M261.716,122.456c0.138,0.065,0.249,0.155,0.334,0.27c0.086,0.115,0.148,0.25,0.189,0.405   c0.04,0.155,0.061,0.323,0.061,0.503s-0.021,0.348-0.061,0.503c-0.041,0.155-0.104,0.29-0.189,0.405   c-0.085,0.115-0.196,0.205-0.334,0.27c-0.138,0.065-0.301,0.098-0.489,0.098c-0.189,0-0.353-0.033-0.489-0.098   c-0.138-0.065-0.249-0.155-0.334-0.27c-0.086-0.115-0.148-0.25-0.189-0.405c-0.04-0.155-0.061-0.323-0.061-0.503   s0.021-0.348,0.061-0.503c0.041-0.155,0.104-0.29,0.189-0.405c0.085-0.115,0.196-0.205,0.334-0.27   c0.137-0.065,0.3-0.098,0.489-0.098C261.415,122.357,261.578,122.39,261.716,122.456z M260.872,122.752   c-0.092,0.061-0.165,0.14-0.22,0.236c-0.054,0.097-0.091,0.203-0.111,0.317c-0.02,0.115-0.03,0.226-0.03,0.334   s0.011,0.218,0.03,0.331c0.021,0.113,0.058,0.216,0.111,0.311c0.055,0.095,0.128,0.172,0.22,0.233s0.21,0.091,0.354,0.091   c0.14,0,0.255-0.031,0.348-0.091c0.092-0.061,0.165-0.138,0.22-0.233c0.054-0.094,0.092-0.198,0.114-0.311   c0.022-0.112,0.034-0.223,0.034-0.331s-0.012-0.219-0.034-0.334s-0.061-0.221-0.114-0.317c-0.055-0.097-0.128-0.176-0.22-0.236   c-0.093-0.061-0.208-0.091-0.348-0.091C261.082,122.661,260.964,122.692,260.872,122.752z M264.345,122.229l-3.051,5.116h-0.324   l3.058-5.116H264.345z M264.679,124.771c0.138,0.065,0.249,0.155,0.335,0.27c0.085,0.115,0.148,0.25,0.188,0.405   c0.041,0.155,0.061,0.323,0.061,0.503c0,0.18-0.02,0.348-0.061,0.503c-0.04,0.155-0.104,0.29-0.188,0.405   c-0.086,0.115-0.197,0.204-0.335,0.267c-0.137,0.063-0.3,0.095-0.489,0.095c-0.188,0-0.352-0.032-0.489-0.095   c-0.137-0.063-0.248-0.152-0.334-0.267s-0.148-0.25-0.188-0.405c-0.041-0.155-0.062-0.323-0.062-0.503   c0-0.18,0.021-0.348,0.062-0.503c0.04-0.155,0.103-0.291,0.188-0.405s0.197-0.205,0.334-0.27c0.138-0.065,0.301-0.098,0.489-0.098   C264.379,124.673,264.542,124.706,264.679,124.771z M263.835,125.068c-0.092,0.061-0.165,0.139-0.219,0.236   c-0.055,0.097-0.092,0.203-0.111,0.317c-0.021,0.115-0.03,0.226-0.03,0.334c0,0.108,0.01,0.219,0.03,0.331   c0.02,0.112,0.057,0.216,0.111,0.311c0.054,0.094,0.127,0.172,0.219,0.233c0.093,0.061,0.211,0.091,0.354,0.091   c0.14,0,0.256-0.03,0.348-0.091c0.093-0.061,0.166-0.139,0.22-0.233c0.054-0.095,0.092-0.198,0.114-0.311s0.034-0.223,0.034-0.331   c0-0.108-0.012-0.219-0.034-0.334s-0.061-0.22-0.114-0.317c-0.054-0.097-0.127-0.175-0.22-0.236   c-0.092-0.061-0.208-0.091-0.348-0.091C264.046,124.977,263.928,125.007,263.835,125.068z"/>
</g>
<line fill="none" stroke="#000000" stroke-width="0.5" stroke-linecap="square" stroke-linejoin="round" stroke-miterlimit="10" x1="18.781" y1="116.634" x2="18.781" y2="118.75"/>
<line fill="none" stroke="#000000" stroke-width="0.5" stroke-linecap="square" stroke-linejoin="round" stroke-miterlimit="10" x1="16.665" y1="116.634" x2="18.781" y2="116.634"/>
<line fill="none" stroke="#000000" stroke-width="0.5" stroke-linecap="square" stroke-linejoin="round" stroke-miterlimit="10" x1="16.665" y1="104.046" x2="18.781" y2="104.046"/>
<line fill="none" stroke="#000000" stroke-width="0.5" stroke-linecap="square" stroke-linejoin="round" stroke-miterlimit="10" x1="16.665" y1="91.457" x2="18.781" y2="91.457"/>
<line fill="none" stroke="#000000" stroke-width="0.5" stroke-linecap="square" stroke-linejoin="round" stroke-miterlimit="10" x1="16.665" y1="78.868" x2="18.781" y2="78.868"/>
<line fill="none" stroke="#000000" stroke-width="0.5" stroke-linecap="square" stroke-linejoin="round" stroke-miterlimit="10" x1="16.665" y1="66.279" x2="18.781" y2="66.279"/>
<line fill="none" stroke="#000000" stroke-width="0.5" stroke-linecap="square" stroke-linejoin="round" stroke-miterlimit="10" x1="16.665" y1="53.69" x2="18.781" y2="53.69"/>
<line fill="none" stroke="#000000" stroke-width="0.5" stroke-linecap="square" stroke-linejoin="round" stroke-miterlimit="10" x1="16.665" y1="41.102" x2="18.781" y2="41.102"/>
<line fill="none" stroke="#000000" stroke-width="0.5" stroke-linecap="square" stroke-linejoin="round" stroke-miterlimit="10" x1="16.665" y1="28.513" x2="18.781" y2="28.513"/>
<line fill="none" stroke="#000000" stroke-width="0.5" stroke-linecap="square" stroke-linejoin="round" stroke-miterlimit="10" x1="16.665" y1="15.924" x2="18.781" y2="15.924"/>
<line fill="none" stroke="#000000" stroke-width="0.5" stroke-linecap="square" stroke-linejoin="round" stroke-miterlimit="10" x1="16.665" y1="3.335" x2="18.781" y2="3.335"/>
<line fill="none" stroke="#000000" stroke-width="0.5" stroke-linecap="square" stroke-linejoin="round" stroke-miterlimit="10" x1="66.771" y1="116.634" x2="66.771" y2="118.75"/>
<line fill="none" stroke="#000000" stroke-width="0.5" stroke-linecap="square" stroke-linejoin="round" stroke-miterlimit="10" x1="114.762" y1="116.634" x2="114.762" y2="118.75"/>
<line fill="none" stroke="#000000" stroke-width="0.5" stroke-linecap="square" stroke-linejoin="round" stroke-miterlimit="10" x1="162.752" y1="116.634" x2="162.752" y2="118.75"/>
<line fill="none" stroke="#000000" stroke-width="0.5" stroke-linecap="square" stroke-linejoin="round" stroke-miterlimit="10" x1="210.742" y1="116.634" x2="210.742" y2="118.75"/>
<line fill="none" stroke="#000000" stroke-width="0.5" stroke-linecap="square" stroke-linejoin="round" stroke-miterlimit="10" x1="258.895" y1="116.634" x2="258.895" y2="118.75"/>
</svg>