<svg xmlns="http://www.w3.org/2000/svg" xmlns:xlink="http://www.w3.org/1999/xlink" version="1.1" id="Layer_1" x="0px" y="0px" width="271.484px" height="127.394px" viewBox="0 0 271.484 127.394" enable-background="new 0 0 271.484 127.394" xml:space="preserve">
<line fill="none" stroke="#CCCCCC" stroke-width="0.5" stroke-linejoin="round" stroke-miterlimit="10" x1="33.869" y1="3.244" x2="271.234" y2="3.244"/>
<line fill="none" stroke="#CCCCCC" stroke-width="0.5" stroke-linejoin="round" stroke-miterlimit="10" x1="33.869" y1="25.713" x2="271.234" y2="25.713"/>
<line fill="none" stroke="#CCCCCC" stroke-width="0.5" stroke-linejoin="round" stroke-miterlimit="10" x1="33.869" y1="48.213" x2="271.234" y2="48.213"/>
<line fill="none" stroke="#CCCCCC" stroke-width="0.5" stroke-linejoin="round" stroke-miterlimit="10" x1="33.869" y1="70.708" x2="271.234" y2="70.708"/>
<line fill="none" stroke="#CCCCCC" stroke-width="0.5" stroke-linejoin="round" stroke-miterlimit="10" x1="33.869" y1="93.172" x2="271.234" y2="93.172"/>
<line fill="none" stroke="#000000" stroke-width="0.5" stroke-linecap="square" stroke-linejoin="round" stroke-miterlimit="10" x1="33.869" y1="115.671" x2="33.869" y2="3.244"/>
<line fill="none" stroke="#000000" stroke-width="0.5" stroke-linejoin="round" stroke-miterlimit="10" x1="30.978" y1="3.244" x2="33.869" y2="3.244"/>
<g>
	
		<line fill="none" stroke="#000000" stroke-width="0.5" stroke-linejoin="round" stroke-miterlimit="10" x1="30.978" y1="25.713" x2="33.869" y2="25.713"/>
	
		<line fill="none" stroke="#000000" stroke-width="0.5" stroke-linejoin="round" stroke-miterlimit="10" x1="30.978" y1="48.213" x2="33.869" y2="48.213"/>
</g>
<line fill="none" stroke="#000000" stroke-width="0.5" stroke-linejoin="round" stroke-miterlimit="10" x1="30.978" y1="70.708" x2="33.869" y2="70.708"/>
<line fill="none" stroke="#000000" stroke-width="0.5" stroke-linejoin="round" stroke-miterlimit="10" x1="30.978" y1="93.146" x2="33.869" y2="93.146"/>
<line fill="none" stroke="#000000" stroke-width="0.5" stroke-linejoin="round" stroke-miterlimit="10" x1="30.978" y1="115.646" x2="33.869" y2="115.646"/>
<line fill="none" stroke="#000000" stroke-width="0.5" stroke-linecap="square" stroke-linejoin="round" stroke-miterlimit="10" x1="33.869" y1="115.671" x2="271.234" y2="115.671"/>
<line fill="none" stroke="#000000" stroke-width="0.5" stroke-linejoin="round" stroke-miterlimit="10" x1="271.234" y1="115.671" x2="271.234" y2="118.563"/>
<line fill="none" stroke="#000000" stroke-width="0.5" stroke-linejoin="round" stroke-miterlimit="10" x1="257.265" y1="115.671" x2="257.265" y2="118.563"/>
<line fill="none" stroke="#000000" stroke-width="0.5" stroke-linejoin="round" stroke-miterlimit="10" x1="243.299" y1="115.671" x2="243.299" y2="118.563"/>
<line fill="none" stroke="#000000" stroke-width="0.5" stroke-linejoin="round" stroke-miterlimit="10" x1="229.339" y1="115.671" x2="229.339" y2="118.563"/>
<line fill="none" stroke="#000000" stroke-width="0.5" stroke-linejoin="round" stroke-miterlimit="10" x1="215.379" y1="115.671" x2="215.379" y2="118.563"/>
<line fill="none" stroke="#000000" stroke-width="0.5" stroke-linejoin="round" stroke-miterlimit="10" x1="201.413" y1="115.671" x2="201.413" y2="118.563"/>
<line fill="none" stroke="#000000" stroke-width="0.5" stroke-linejoin="round" stroke-miterlimit="10" x1="187.453" y1="115.671" x2="187.453" y2="118.563"/>
<line fill="none" stroke="#000000" stroke-width="0.5" stroke-linejoin="round" stroke-miterlimit="10" x1="173.487" y1="115.671" x2="173.487" y2="118.563"/>
<line fill="none" stroke="#000000" stroke-width="0.5" stroke-linejoin="round" stroke-miterlimit="10" x1="159.527" y1="115.671" x2="159.527" y2="118.563"/>
<line fill="none" stroke="#000000" stroke-width="0.5" stroke-linejoin="round" stroke-miterlimit="10" x1="145.567" y1="115.671" x2="145.567" y2="118.563"/>
<line fill="none" stroke="#000000" stroke-width="0.5" stroke-linejoin="round" stroke-miterlimit="10" x1="131.602" y1="115.671" x2="131.602" y2="118.563"/>
<line fill="none" stroke="#000000" stroke-width="0.5" stroke-linejoin="round" stroke-miterlimit="10" x1="117.641" y1="115.671" x2="117.641" y2="118.563"/>
<line fill="none" stroke="#000000" stroke-width="0.5" stroke-linejoin="round" stroke-miterlimit="10" x1="103.681" y1="115.671" x2="103.681" y2="118.563"/>
<line fill="none" stroke="#000000" stroke-width="0.5" stroke-linejoin="round" stroke-miterlimit="10" x1="89.716" y1="115.671" x2="89.716" y2="118.563"/>
<line fill="none" stroke="#000000" stroke-width="0.5" stroke-linejoin="round" stroke-miterlimit="10" x1="75.755" y1="115.671" x2="75.755" y2="118.563"/>
<line fill="none" stroke="#000000" stroke-width="0.5" stroke-linejoin="round" stroke-miterlimit="10" x1="61.79" y1="115.671" x2="61.79" y2="118.563"/>
<line fill="none" stroke="#000000" stroke-width="0.5" stroke-linejoin="round" stroke-miterlimit="10" x1="47.83" y1="115.671" x2="47.83" y2="118.563"/>
<line fill="none" stroke="#000000" stroke-width="0.5" stroke-linejoin="round" stroke-miterlimit="10" x1="33.869" y1="115.671" x2="33.869" y2="118.563"/>
<polyline fill="none" stroke="#7A9AA8" stroke-width="2.5" stroke-linecap="round" stroke-linejoin="round" stroke-miterlimit="10" points="  40.85,113.918 54.828,113.45 68.788,112.699 82.753,111.777 96.713,110.891 110.679,109.661 124.639,107.339 138.6,104.916   152.564,101.913 166.525,96.446 180.49,88.633 194.45,81.328 208.411,73.816 222.376,65.654 236.337,55.518 250.297,39.235   264.252,15.688 "/>
<g>
	<g>
		<path d="M26.915,113.356c0.214,0.151,0.38,0.343,0.5,0.577c0.119,0.234,0.2,0.495,0.243,0.783    c0.042,0.288,0.064,0.569,0.064,0.844c0,0.279-0.021,0.562-0.064,0.851c-0.043,0.288-0.124,0.549-0.243,0.783    c-0.119,0.234-0.286,0.425-0.5,0.574s-0.494,0.223-0.84,0.223c-0.342,0-0.621-0.075-0.837-0.223s-0.384-0.339-0.503-0.574    c-0.119-0.234-0.2-0.495-0.243-0.783c-0.042-0.288-0.064-0.569-0.064-0.844c0-0.279,0.021-0.562,0.064-0.851    c0.043-0.288,0.124-0.549,0.243-0.783c0.119-0.234,0.287-0.426,0.503-0.577c0.216-0.15,0.495-0.226,0.837-0.226    C26.421,113.13,26.701,113.206,26.915,113.356z M25.426,113.697c-0.162,0.14-0.285,0.313-0.368,0.52    c-0.083,0.207-0.139,0.432-0.166,0.675c-0.027,0.243-0.041,0.466-0.041,0.668c0,0.207,0.014,0.431,0.041,0.671    c0.027,0.241,0.082,0.466,0.166,0.675c0.083,0.209,0.206,0.384,0.368,0.523c0.162,0.14,0.378,0.209,0.648,0.209    s0.486-0.07,0.648-0.209c0.162-0.139,0.285-0.314,0.368-0.523c0.083-0.209,0.138-0.434,0.165-0.675    c0.027-0.241,0.041-0.464,0.041-0.671c0-0.203-0.013-0.425-0.041-0.668c-0.027-0.243-0.082-0.468-0.165-0.675    c-0.083-0.207-0.206-0.38-0.368-0.52c-0.162-0.139-0.378-0.209-0.648-0.209S25.588,113.558,25.426,113.697z"/>
	</g>
</g>
<g>
	<g>
		<path d="M9.7,90.682h0.385v3.193h0.708v0.358h-0.708v1.174H9.693v-1.174h-2.18V93.82L9.7,90.682z M9.693,91.303H9.679    l-1.782,2.572h1.795V91.303z"/>
		<path d="M13.78,90.867c0.214,0.151,0.38,0.343,0.5,0.577c0.119,0.234,0.2,0.495,0.243,0.783c0.042,0.288,0.064,0.569,0.064,0.844    c0,0.279-0.021,0.562-0.064,0.851c-0.043,0.288-0.124,0.549-0.243,0.783c-0.119,0.234-0.286,0.425-0.5,0.574    s-0.494,0.223-0.84,0.223c-0.342,0-0.621-0.075-0.837-0.223s-0.384-0.339-0.503-0.574c-0.119-0.234-0.2-0.495-0.243-0.783    c-0.042-0.288-0.064-0.569-0.064-0.844c0-0.279,0.021-0.562,0.064-0.851c0.043-0.288,0.124-0.549,0.243-0.783    c0.119-0.234,0.287-0.426,0.503-0.577c0.216-0.15,0.495-0.226,0.837-0.226C13.286,90.641,13.566,90.717,13.78,90.867z     M12.292,91.208c-0.162,0.14-0.285,0.313-0.368,0.52c-0.083,0.207-0.139,0.432-0.166,0.675c-0.027,0.243-0.041,0.466-0.041,0.668    c0,0.207,0.014,0.431,0.041,0.671c0.027,0.241,0.082,0.466,0.166,0.675c0.083,0.209,0.206,0.384,0.368,0.523    c0.162,0.14,0.378,0.209,0.648,0.209s0.486-0.07,0.648-0.209c0.162-0.139,0.285-0.314,0.368-0.523    c0.083-0.209,0.138-0.434,0.165-0.675c0.027-0.241,0.041-0.464,0.041-0.671c0-0.203-0.013-0.425-0.041-0.668    c-0.027-0.243-0.082-0.468-0.165-0.675c-0.083-0.207-0.206-0.38-0.368-0.52c-0.162-0.139-0.378-0.209-0.648-0.209    S12.454,91.069,12.292,91.208z"/>
		<path d="M16.038,95.407c0,0.099-0.012,0.197-0.037,0.293s-0.062,0.187-0.111,0.27c-0.05,0.083-0.111,0.156-0.186,0.22    c-0.074,0.063-0.161,0.108-0.26,0.135v-0.29c0.054-0.018,0.101-0.052,0.142-0.102c0.041-0.049,0.074-0.104,0.101-0.165    c0.027-0.061,0.046-0.124,0.058-0.189c0.011-0.065,0.015-0.123,0.01-0.172h-0.284v-0.715h0.567V95.407z"/>
		<path d="M19.409,90.867c0.214,0.151,0.38,0.343,0.5,0.577c0.119,0.234,0.2,0.495,0.243,0.783c0.042,0.288,0.064,0.569,0.064,0.844    c0,0.279-0.021,0.562-0.064,0.851c-0.043,0.288-0.124,0.549-0.243,0.783c-0.119,0.234-0.286,0.425-0.5,0.574    s-0.494,0.223-0.84,0.223c-0.342,0-0.621-0.075-0.837-0.223s-0.384-0.339-0.503-0.574c-0.119-0.234-0.2-0.495-0.243-0.783    c-0.042-0.288-0.064-0.569-0.064-0.844c0-0.279,0.021-0.562,0.064-0.851c0.043-0.288,0.124-0.549,0.243-0.783    c0.119-0.234,0.287-0.426,0.503-0.577c0.216-0.15,0.495-0.226,0.837-0.226C18.916,90.641,19.195,90.717,19.409,90.867z     M17.921,91.208c-0.162,0.14-0.285,0.313-0.368,0.52c-0.083,0.207-0.139,0.432-0.166,0.675c-0.027,0.243-0.041,0.466-0.041,0.668    c0,0.207,0.014,0.431,0.041,0.671c0.027,0.241,0.082,0.466,0.166,0.675c0.083,0.209,0.206,0.384,0.368,0.523    c0.162,0.14,0.378,0.209,0.648,0.209s0.486-0.07,0.648-0.209c0.162-0.139,0.285-0.314,0.368-0.523    c0.083-0.209,0.138-0.434,0.165-0.675c0.027-0.241,0.041-0.464,0.041-0.671c0-0.203-0.013-0.425-0.041-0.668    c-0.027-0.243-0.082-0.468-0.165-0.675c-0.083-0.207-0.206-0.38-0.368-0.52c-0.162-0.139-0.378-0.209-0.648-0.209    S18.083,91.069,17.921,91.208z"/>
		<path d="M23.162,90.867c0.214,0.151,0.38,0.343,0.5,0.577c0.119,0.234,0.2,0.495,0.243,0.783c0.042,0.288,0.064,0.569,0.064,0.844    c0,0.279-0.021,0.562-0.064,0.851c-0.043,0.288-0.124,0.549-0.243,0.783c-0.119,0.234-0.286,0.425-0.5,0.574    s-0.494,0.223-0.84,0.223c-0.342,0-0.621-0.075-0.837-0.223s-0.384-0.339-0.503-0.574c-0.119-0.234-0.2-0.495-0.243-0.783    c-0.042-0.288-0.064-0.569-0.064-0.844c0-0.279,0.021-0.562,0.064-0.851c0.043-0.288,0.124-0.549,0.243-0.783    c0.119-0.234,0.287-0.426,0.503-0.577c0.216-0.15,0.495-0.226,0.837-0.226C22.668,90.641,22.948,90.717,23.162,90.867z     M21.674,91.208c-0.162,0.14-0.285,0.313-0.368,0.52c-0.083,0.207-0.139,0.432-0.166,0.675c-0.027,0.243-0.041,0.466-0.041,0.668    c0,0.207,0.014,0.431,0.041,0.671c0.027,0.241,0.082,0.466,0.166,0.675c0.083,0.209,0.206,0.384,0.368,0.523    c0.162,0.14,0.378,0.209,0.648,0.209s0.486-0.07,0.648-0.209c0.162-0.139,0.285-0.314,0.368-0.523    c0.083-0.209,0.138-0.434,0.165-0.675c0.027-0.241,0.041-0.464,0.041-0.671c0-0.203-0.013-0.425-0.041-0.668    c-0.027-0.243-0.082-0.468-0.165-0.675c-0.083-0.207-0.206-0.38-0.368-0.52c-0.162-0.139-0.378-0.209-0.648-0.209    S21.836,91.069,21.674,91.208z"/>
		<path d="M26.915,90.867c0.214,0.151,0.38,0.343,0.5,0.577c0.119,0.234,0.2,0.495,0.243,0.783c0.042,0.288,0.064,0.569,0.064,0.844    c0,0.279-0.021,0.562-0.064,0.851c-0.043,0.288-0.124,0.549-0.243,0.783c-0.119,0.234-0.286,0.425-0.5,0.574    s-0.494,0.223-0.84,0.223c-0.342,0-0.621-0.075-0.837-0.223s-0.384-0.339-0.503-0.574c-0.119-0.234-0.2-0.495-0.243-0.783    c-0.042-0.288-0.064-0.569-0.064-0.844c0-0.279,0.021-0.562,0.064-0.851c0.043-0.288,0.124-0.549,0.243-0.783    c0.119-0.234,0.287-0.426,0.503-0.577c0.216-0.15,0.495-0.226,0.837-0.226C26.421,90.641,26.701,90.717,26.915,90.867z     M25.427,91.208c-0.162,0.14-0.285,0.313-0.368,0.52c-0.083,0.207-0.139,0.432-0.166,0.675c-0.027,0.243-0.041,0.466-0.041,0.668    c0,0.207,0.014,0.431,0.041,0.671c0.027,0.241,0.082,0.466,0.166,0.675c0.083,0.209,0.206,0.384,0.368,0.523    c0.162,0.14,0.378,0.209,0.648,0.209s0.486-0.07,0.648-0.209c0.162-0.139,0.285-0.314,0.368-0.523    c0.083-0.209,0.138-0.434,0.165-0.675c0.027-0.241,0.041-0.464,0.041-0.671c0-0.203-0.013-0.425-0.041-0.668    c-0.027-0.243-0.082-0.468-0.165-0.675c-0.083-0.207-0.206-0.38-0.368-0.52c-0.162-0.139-0.378-0.209-0.648-0.209    S25.589,91.069,25.427,91.208z"/>
	</g>
</g>
<g>
	<g>
		<path d="M10.415,69.99c-0.135,0.183-0.324,0.31-0.567,0.381v0.014c0.311,0.063,0.549,0.199,0.715,0.408    c0.167,0.209,0.25,0.476,0.25,0.8c0,0.239-0.043,0.447-0.128,0.625s-0.203,0.325-0.351,0.442c-0.148,0.117-0.32,0.205-0.516,0.263    c-0.196,0.058-0.406,0.088-0.631,0.088c-0.221,0-0.43-0.03-0.628-0.088c-0.198-0.059-0.371-0.146-0.52-0.263    c-0.148-0.117-0.266-0.265-0.351-0.442S7.56,71.832,7.56,71.593c0.009-0.31,0.097-0.576,0.264-0.796    c0.166-0.22,0.398-0.357,0.695-0.412v-0.014c-0.247-0.076-0.438-0.204-0.57-0.381s-0.199-0.397-0.199-0.658    c0-0.202,0.042-0.378,0.125-0.526c0.083-0.148,0.192-0.271,0.328-0.368c0.135-0.097,0.288-0.169,0.459-0.216    c0.171-0.047,0.344-0.071,0.52-0.071c0.176,0,0.349,0.024,0.52,0.071c0.171,0.047,0.325,0.12,0.462,0.216    c0.137,0.097,0.247,0.219,0.331,0.368c0.083,0.148,0.125,0.324,0.125,0.526C10.618,69.589,10.55,69.808,10.415,69.99z     M9.656,72.596c0.146-0.042,0.273-0.108,0.381-0.196c0.108-0.087,0.193-0.199,0.256-0.334c0.063-0.135,0.095-0.292,0.095-0.473    c0-0.171-0.033-0.32-0.098-0.449c-0.065-0.128-0.153-0.236-0.263-0.324c-0.11-0.088-0.238-0.153-0.385-0.196    c-0.146-0.043-0.298-0.062-0.456-0.058c-0.162-0.004-0.316,0.014-0.462,0.054c-0.146,0.041-0.273,0.104-0.381,0.192    s-0.195,0.197-0.26,0.327c-0.065,0.131-0.098,0.281-0.098,0.452c0,0.176,0.032,0.331,0.095,0.466    c0.063,0.135,0.148,0.247,0.256,0.334c0.108,0.087,0.235,0.154,0.381,0.199c0.146,0.045,0.303,0.068,0.469,0.068    S9.509,72.639,9.656,72.596z M9.564,70.166c0.122-0.034,0.229-0.087,0.321-0.159s0.167-0.164,0.223-0.277    c0.056-0.112,0.084-0.245,0.084-0.398c0-0.135-0.026-0.254-0.078-0.357s-0.123-0.189-0.213-0.257    c-0.09-0.067-0.195-0.119-0.317-0.155c-0.122-0.036-0.254-0.054-0.398-0.054c-0.13,0-0.256,0.018-0.378,0.054    c-0.122,0.036-0.229,0.087-0.324,0.155c-0.094,0.068-0.17,0.153-0.226,0.257s-0.084,0.223-0.084,0.357    c0,0.158,0.029,0.293,0.088,0.405s0.135,0.205,0.229,0.277c0.095,0.072,0.203,0.124,0.324,0.155    c0.122,0.031,0.245,0.045,0.371,0.041C9.317,70.214,9.443,70.2,9.564,70.166z"/>
		<path d="M13.78,68.377c0.214,0.151,0.38,0.343,0.5,0.577c0.119,0.234,0.2,0.495,0.243,0.783c0.042,0.288,0.064,0.569,0.064,0.844    c0,0.279-0.021,0.562-0.064,0.851c-0.043,0.288-0.124,0.549-0.243,0.783c-0.119,0.234-0.286,0.425-0.5,0.574    s-0.494,0.223-0.84,0.223c-0.342,0-0.621-0.075-0.837-0.223s-0.384-0.339-0.503-0.574c-0.119-0.234-0.2-0.495-0.243-0.783    c-0.042-0.288-0.064-0.569-0.064-0.844c0-0.279,0.021-0.562,0.064-0.851c0.043-0.288,0.124-0.549,0.243-0.783    c0.119-0.234,0.287-0.426,0.503-0.577c0.216-0.15,0.495-0.226,0.837-0.226C13.286,68.151,13.566,68.227,13.78,68.377z     M12.292,68.718c-0.162,0.14-0.285,0.313-0.368,0.52c-0.083,0.207-0.139,0.432-0.166,0.675c-0.027,0.243-0.041,0.466-0.041,0.668    c0,0.207,0.014,0.431,0.041,0.671c0.027,0.241,0.082,0.466,0.166,0.675c0.083,0.209,0.206,0.384,0.368,0.523    c0.162,0.14,0.378,0.209,0.648,0.209s0.486-0.07,0.648-0.209c0.162-0.139,0.285-0.314,0.368-0.523    c0.083-0.209,0.138-0.434,0.165-0.675c0.027-0.241,0.041-0.464,0.041-0.671c0-0.203-0.013-0.425-0.041-0.668    c-0.027-0.243-0.082-0.468-0.165-0.675c-0.083-0.207-0.206-0.38-0.368-0.52c-0.162-0.139-0.378-0.209-0.648-0.209    S12.454,68.579,12.292,68.718z"/>
		<path d="M16.038,72.917c0,0.099-0.012,0.197-0.037,0.293s-0.062,0.187-0.111,0.27c-0.05,0.083-0.111,0.156-0.186,0.22    c-0.074,0.063-0.161,0.108-0.26,0.135v-0.29c0.054-0.018,0.101-0.052,0.142-0.102c0.041-0.049,0.074-0.104,0.101-0.165    c0.027-0.061,0.046-0.124,0.058-0.189c0.011-0.065,0.015-0.123,0.01-0.172h-0.284v-0.715h0.567V72.917z"/>
		<path d="M19.409,68.377c0.214,0.151,0.38,0.343,0.5,0.577c0.119,0.234,0.2,0.495,0.243,0.783c0.042,0.288,0.064,0.569,0.064,0.844    c0,0.279-0.021,0.562-0.064,0.851c-0.043,0.288-0.124,0.549-0.243,0.783c-0.119,0.234-0.286,0.425-0.5,0.574    s-0.494,0.223-0.84,0.223c-0.342,0-0.621-0.075-0.837-0.223s-0.384-0.339-0.503-0.574c-0.119-0.234-0.2-0.495-0.243-0.783    c-0.042-0.288-0.064-0.569-0.064-0.844c0-0.279,0.021-0.562,0.064-0.851c0.043-0.288,0.124-0.549,0.243-0.783    c0.119-0.234,0.287-0.426,0.503-0.577c0.216-0.15,0.495-0.226,0.837-0.226C18.916,68.151,19.195,68.227,19.409,68.377z     M17.921,68.718c-0.162,0.14-0.285,0.313-0.368,0.52c-0.083,0.207-0.139,0.432-0.166,0.675c-0.027,0.243-0.041,0.466-0.041,0.668    c0,0.207,0.014,0.431,0.041,0.671c0.027,0.241,0.082,0.466,0.166,0.675c0.083,0.209,0.206,0.384,0.368,0.523    c0.162,0.14,0.378,0.209,0.648,0.209s0.486-0.07,0.648-0.209c0.162-0.139,0.285-0.314,0.368-0.523    c0.083-0.209,0.138-0.434,0.165-0.675c0.027-0.241,0.041-0.464,0.041-0.671c0-0.203-0.013-0.425-0.041-0.668    c-0.027-0.243-0.082-0.468-0.165-0.675c-0.083-0.207-0.206-0.38-0.368-0.52c-0.162-0.139-0.378-0.209-0.648-0.209    S18.083,68.579,17.921,68.718z"/>
		<path d="M23.162,68.377c0.214,0.151,0.38,0.343,0.5,0.577c0.119,0.234,0.2,0.495,0.243,0.783c0.042,0.288,0.064,0.569,0.064,0.844    c0,0.279-0.021,0.562-0.064,0.851c-0.043,0.288-0.124,0.549-0.243,0.783c-0.119,0.234-0.286,0.425-0.5,0.574    s-0.494,0.223-0.84,0.223c-0.342,0-0.621-0.075-0.837-0.223s-0.384-0.339-0.503-0.574c-0.119-0.234-0.2-0.495-0.243-0.783    c-0.042-0.288-0.064-0.569-0.064-0.844c0-0.279,0.021-0.562,0.064-0.851c0.043-0.288,0.124-0.549,0.243-0.783    c0.119-0.234,0.287-0.426,0.503-0.577c0.216-0.15,0.495-0.226,0.837-0.226C22.668,68.151,22.948,68.227,23.162,68.377z     M21.674,68.718c-0.162,0.14-0.285,0.313-0.368,0.52c-0.083,0.207-0.139,0.432-0.166,0.675c-0.027,0.243-0.041,0.466-0.041,0.668    c0,0.207,0.014,0.431,0.041,0.671c0.027,0.241,0.082,0.466,0.166,0.675c0.083,0.209,0.206,0.384,0.368,0.523    c0.162,0.14,0.378,0.209,0.648,0.209s0.486-0.07,0.648-0.209c0.162-0.139,0.285-0.314,0.368-0.523    c0.083-0.209,0.138-0.434,0.165-0.675c0.027-0.241,0.041-0.464,0.041-0.671c0-0.203-0.013-0.425-0.041-0.668    c-0.027-0.243-0.082-0.468-0.165-0.675c-0.083-0.207-0.206-0.38-0.368-0.52c-0.162-0.139-0.378-0.209-0.648-0.209    S21.836,68.579,21.674,68.718z"/>
		<path d="M26.915,68.377c0.214,0.151,0.38,0.343,0.5,0.577c0.119,0.234,0.2,0.495,0.243,0.783c0.042,0.288,0.064,0.569,0.064,0.844    c0,0.279-0.021,0.562-0.064,0.851c-0.043,0.288-0.124,0.549-0.243,0.783c-0.119,0.234-0.286,0.425-0.5,0.574    s-0.494,0.223-0.84,0.223c-0.342,0-0.621-0.075-0.837-0.223s-0.384-0.339-0.503-0.574c-0.119-0.234-0.2-0.495-0.243-0.783    c-0.042-0.288-0.064-0.569-0.064-0.844c0-0.279,0.021-0.562,0.064-0.851c0.043-0.288,0.124-0.549,0.243-0.783    c0.119-0.234,0.287-0.426,0.503-0.577c0.216-0.15,0.495-0.226,0.837-0.226C26.421,68.151,26.701,68.227,26.915,68.377z     M25.427,68.718c-0.162,0.14-0.285,0.313-0.368,0.52c-0.083,0.207-0.139,0.432-0.166,0.675c-0.027,0.243-0.041,0.466-0.041,0.668    c0,0.207,0.014,0.431,0.041,0.671c0.027,0.241,0.082,0.466,0.166,0.675c0.083,0.209,0.206,0.384,0.368,0.523    c0.162,0.14,0.378,0.209,0.648,0.209s0.486-0.07,0.648-0.209c0.162-0.139,0.285-0.314,0.368-0.523    c0.083-0.209,0.138-0.434,0.165-0.675c0.027-0.241,0.041-0.464,0.041-0.671c0-0.203-0.013-0.425-0.041-0.668    c-0.027-0.243-0.082-0.468-0.165-0.675c-0.083-0.207-0.206-0.38-0.368-0.52c-0.162-0.139-0.378-0.209-0.648-0.209    S25.589,68.579,25.427,68.718z"/>
	</g>
</g>
<g>
	<g>
		<path d="M4.715,46.582c0.15-0.016,0.281-0.053,0.392-0.111c0.11-0.059,0.202-0.147,0.276-0.267s0.127-0.287,0.159-0.503h0.344    v4.725H5.46v-3.51H4.212v-0.304C4.396,46.607,4.564,46.598,4.715,46.582z"/>
		<path d="M7.553,50.426c0.004-0.234,0.045-0.441,0.121-0.621c0.077-0.18,0.178-0.342,0.304-0.486    c0.125-0.144,0.268-0.276,0.425-0.395c0.158-0.119,0.32-0.234,0.486-0.344s0.332-0.223,0.496-0.337    c0.164-0.115,0.312-0.237,0.442-0.368c0.131-0.131,0.229-0.265,0.294-0.402c0.065-0.137,0.098-0.3,0.098-0.489    c0-0.153-0.028-0.289-0.084-0.409c-0.056-0.119-0.133-0.22-0.229-0.304c-0.097-0.083-0.209-0.146-0.337-0.189    c-0.128-0.042-0.264-0.064-0.408-0.064c-0.194,0-0.359,0.036-0.496,0.108c-0.138,0.072-0.249,0.169-0.334,0.291    c-0.085,0.121-0.147,0.261-0.186,0.418c-0.038,0.157-0.055,0.324-0.05,0.5H7.668c-0.005-0.243,0.023-0.467,0.084-0.672    c0.061-0.205,0.154-0.381,0.28-0.53s0.285-0.264,0.476-0.348c0.191-0.083,0.415-0.125,0.671-0.125    c0.207,0,0.399,0.028,0.577,0.084s0.333,0.14,0.466,0.25c0.133,0.11,0.236,0.249,0.311,0.415s0.111,0.36,0.111,0.581    c0,0.198-0.033,0.378-0.098,0.54c-0.065,0.162-0.153,0.31-0.264,0.445c-0.11,0.135-0.236,0.26-0.378,0.375    c-0.142,0.115-0.291,0.222-0.449,0.321c-0.112,0.077-0.245,0.161-0.398,0.253c-0.153,0.092-0.3,0.195-0.442,0.307    c-0.142,0.113-0.267,0.235-0.375,0.368s-0.176,0.278-0.203,0.435h2.626v0.392H7.553z"/>
		<path d="M13.78,45.886c0.214,0.151,0.38,0.343,0.5,0.577c0.119,0.234,0.2,0.495,0.243,0.783c0.042,0.288,0.064,0.569,0.064,0.844    c0,0.279-0.021,0.562-0.064,0.851c-0.043,0.288-0.124,0.549-0.243,0.783c-0.119,0.234-0.286,0.425-0.5,0.574    s-0.494,0.223-0.84,0.223c-0.342,0-0.621-0.075-0.837-0.223s-0.384-0.339-0.503-0.574c-0.119-0.234-0.2-0.495-0.243-0.783    c-0.042-0.288-0.064-0.569-0.064-0.844c0-0.279,0.021-0.562,0.064-0.851c0.043-0.288,0.124-0.549,0.243-0.783    c0.119-0.234,0.287-0.426,0.503-0.577c0.216-0.15,0.495-0.226,0.837-0.226C13.286,45.66,13.566,45.736,13.78,45.886z     M12.292,46.227c-0.162,0.14-0.285,0.313-0.368,0.52c-0.083,0.207-0.139,0.432-0.166,0.675c-0.027,0.243-0.041,0.466-0.041,0.668    c0,0.207,0.014,0.431,0.041,0.671c0.027,0.241,0.082,0.466,0.166,0.675c0.083,0.209,0.206,0.384,0.368,0.523    c0.162,0.14,0.378,0.209,0.648,0.209s0.486-0.07,0.648-0.209c0.162-0.139,0.285-0.314,0.368-0.523    c0.083-0.209,0.138-0.434,0.165-0.675c0.027-0.241,0.041-0.464,0.041-0.671c0-0.203-0.013-0.425-0.041-0.668    c-0.027-0.243-0.082-0.468-0.165-0.675c-0.083-0.207-0.206-0.38-0.368-0.52c-0.162-0.139-0.378-0.209-0.648-0.209    S12.454,46.088,12.292,46.227z"/>
		<path d="M16.038,50.426c0,0.099-0.012,0.197-0.037,0.293s-0.062,0.187-0.111,0.27c-0.05,0.083-0.111,0.156-0.186,0.22    c-0.074,0.063-0.161,0.108-0.26,0.135v-0.29c0.054-0.018,0.101-0.052,0.142-0.102c0.041-0.049,0.074-0.104,0.101-0.165    c0.027-0.061,0.046-0.124,0.058-0.189c0.011-0.065,0.015-0.123,0.01-0.172h-0.284V49.71h0.567V50.426z"/>
		<path d="M19.409,45.886c0.214,0.151,0.38,0.343,0.5,0.577c0.119,0.234,0.2,0.495,0.243,0.783c0.042,0.288,0.064,0.569,0.064,0.844    c0,0.279-0.021,0.562-0.064,0.851c-0.043,0.288-0.124,0.549-0.243,0.783c-0.119,0.234-0.286,0.425-0.5,0.574    s-0.494,0.223-0.84,0.223c-0.342,0-0.621-0.075-0.837-0.223s-0.384-0.339-0.503-0.574c-0.119-0.234-0.2-0.495-0.243-0.783    c-0.042-0.288-0.064-0.569-0.064-0.844c0-0.279,0.021-0.562,0.064-0.851c0.043-0.288,0.124-0.549,0.243-0.783    c0.119-0.234,0.287-0.426,0.503-0.577c0.216-0.15,0.495-0.226,0.837-0.226C18.916,45.66,19.195,45.736,19.409,45.886z     M17.921,46.227c-0.162,0.14-0.285,0.313-0.368,0.52c-0.083,0.207-0.139,0.432-0.166,0.675c-0.027,0.243-0.041,0.466-0.041,0.668    c0,0.207,0.014,0.431,0.041,0.671c0.027,0.241,0.082,0.466,0.166,0.675c0.083,0.209,0.206,0.384,0.368,0.523    c0.162,0.14,0.378,0.209,0.648,0.209s0.486-0.07,0.648-0.209c0.162-0.139,0.285-0.314,0.368-0.523    c0.083-0.209,0.138-0.434,0.165-0.675c0.027-0.241,0.041-0.464,0.041-0.671c0-0.203-0.013-0.425-0.041-0.668    c-0.027-0.243-0.082-0.468-0.165-0.675c-0.083-0.207-0.206-0.38-0.368-0.52c-0.162-0.139-0.378-0.209-0.648-0.209    S18.083,46.088,17.921,46.227z"/>
		<path d="M23.162,45.886c0.214,0.151,0.38,0.343,0.5,0.577c0.119,0.234,0.2,0.495,0.243,0.783c0.042,0.288,0.064,0.569,0.064,0.844    c0,0.279-0.021,0.562-0.064,0.851c-0.043,0.288-0.124,0.549-0.243,0.783c-0.119,0.234-0.286,0.425-0.5,0.574    s-0.494,0.223-0.84,0.223c-0.342,0-0.621-0.075-0.837-0.223s-0.384-0.339-0.503-0.574c-0.119-0.234-0.2-0.495-0.243-0.783    c-0.042-0.288-0.064-0.569-0.064-0.844c0-0.279,0.021-0.562,0.064-0.851c0.043-0.288,0.124-0.549,0.243-0.783    c0.119-0.234,0.287-0.426,0.503-0.577c0.216-0.15,0.495-0.226,0.837-0.226C22.668,45.66,22.948,45.736,23.162,45.886z     M21.674,46.227c-0.162,0.14-0.285,0.313-0.368,0.52c-0.083,0.207-0.139,0.432-0.166,0.675c-0.027,0.243-0.041,0.466-0.041,0.668    c0,0.207,0.014,0.431,0.041,0.671c0.027,0.241,0.082,0.466,0.166,0.675c0.083,0.209,0.206,0.384,0.368,0.523    c0.162,0.14,0.378,0.209,0.648,0.209s0.486-0.07,0.648-0.209c0.162-0.139,0.285-0.314,0.368-0.523    c0.083-0.209,0.138-0.434,0.165-0.675c0.027-0.241,0.041-0.464,0.041-0.671c0-0.203-0.013-0.425-0.041-0.668    c-0.027-0.243-0.082-0.468-0.165-0.675c-0.083-0.207-0.206-0.38-0.368-0.52c-0.162-0.139-0.378-0.209-0.648-0.209    S21.836,46.088,21.674,46.227z"/>
		<path d="M26.915,45.886c0.214,0.151,0.38,0.343,0.5,0.577c0.119,0.234,0.2,0.495,0.243,0.783c0.042,0.288,0.064,0.569,0.064,0.844    c0,0.279-0.021,0.562-0.064,0.851c-0.043,0.288-0.124,0.549-0.243,0.783c-0.119,0.234-0.286,0.425-0.5,0.574    s-0.494,0.223-0.84,0.223c-0.342,0-0.621-0.075-0.837-0.223s-0.384-0.339-0.503-0.574c-0.119-0.234-0.2-0.495-0.243-0.783    c-0.042-0.288-0.064-0.569-0.064-0.844c0-0.279,0.021-0.562,0.064-0.851c0.043-0.288,0.124-0.549,0.243-0.783    c0.119-0.234,0.287-0.426,0.503-0.577c0.216-0.15,0.495-0.226,0.837-0.226C26.421,45.66,26.701,45.736,26.915,45.886z     M25.427,46.227c-0.162,0.14-0.285,0.313-0.368,0.52c-0.083,0.207-0.139,0.432-0.166,0.675c-0.027,0.243-0.041,0.466-0.041,0.668    c0,0.207,0.014,0.431,0.041,0.671c0.027,0.241,0.082,0.466,0.166,0.675c0.083,0.209,0.206,0.384,0.368,0.523    c0.162,0.14,0.378,0.209,0.648,0.209s0.486-0.07,0.648-0.209c0.162-0.139,0.285-0.314,0.368-0.523    c0.083-0.209,0.138-0.434,0.165-0.675c0.027-0.241,0.041-0.464,0.041-0.671c0-0.203-0.013-0.425-0.041-0.668    c-0.027-0.243-0.082-0.468-0.165-0.675c-0.083-0.207-0.206-0.38-0.368-0.52c-0.162-0.139-0.378-0.209-0.648-0.209    S25.589,46.088,25.427,46.227z"/>
	</g>
</g>
<g>
	<g>
		<path d="M4.715,24.092c0.15-0.016,0.281-0.053,0.392-0.111c0.11-0.059,0.202-0.147,0.276-0.267s0.127-0.287,0.159-0.503h0.344    v4.725H5.46v-3.51H4.212v-0.304C4.396,24.118,4.564,24.108,4.715,24.092z"/>
		<path d="M9.979,23.772c-0.173-0.162-0.397-0.243-0.671-0.243s-0.498,0.07-0.668,0.209c-0.171,0.14-0.304,0.315-0.398,0.527    c-0.095,0.211-0.158,0.44-0.189,0.685c-0.032,0.245-0.047,0.476-0.047,0.692h0.014c0.112-0.234,0.282-0.423,0.509-0.567    s0.476-0.216,0.746-0.216c0.238,0,0.453,0.04,0.645,0.118c0.191,0.079,0.354,0.188,0.489,0.328c0.135,0.139,0.24,0.306,0.314,0.5    c0.074,0.193,0.111,0.405,0.111,0.634s-0.04,0.442-0.118,0.638c-0.079,0.196-0.189,0.365-0.331,0.506    c-0.142,0.142-0.311,0.252-0.506,0.331c-0.196,0.079-0.411,0.118-0.645,0.118c-0.288,0-0.536-0.044-0.743-0.132    s-0.378-0.23-0.513-0.429c-0.135-0.198-0.235-0.456-0.301-0.773C7.613,26.381,7.58,25.99,7.58,25.527    c0-0.095,0.005-0.218,0.017-0.371c0.011-0.153,0.037-0.316,0.077-0.49c0.041-0.173,0.098-0.349,0.172-0.526    s0.173-0.338,0.297-0.482c0.124-0.144,0.278-0.261,0.462-0.351c0.185-0.09,0.405-0.135,0.662-0.135    c0.423,0,0.758,0.102,1.006,0.304c0.247,0.203,0.396,0.513,0.445,0.932h-0.425C10.257,24.146,10.153,23.934,9.979,23.772z     M8.771,25.314c-0.146,0.065-0.27,0.154-0.371,0.267c-0.102,0.113-0.178,0.244-0.229,0.395c-0.052,0.151-0.078,0.314-0.078,0.489    c0,0.167,0.022,0.324,0.067,0.473s0.116,0.278,0.212,0.388s0.22,0.197,0.368,0.26s0.326,0.095,0.533,0.095    c0.171,0,0.325-0.033,0.462-0.098c0.137-0.065,0.256-0.153,0.357-0.263c0.102-0.11,0.179-0.24,0.233-0.388    c0.054-0.148,0.081-0.304,0.081-0.466c0-0.171-0.026-0.333-0.078-0.486s-0.126-0.286-0.223-0.398    c-0.097-0.112-0.216-0.201-0.358-0.267c-0.142-0.065-0.303-0.098-0.482-0.098C9.083,25.216,8.917,25.249,8.771,25.314z"/>
		<path d="M13.78,23.397c0.214,0.151,0.38,0.343,0.5,0.577c0.119,0.234,0.2,0.495,0.243,0.783c0.042,0.288,0.064,0.569,0.064,0.844    c0,0.279-0.021,0.562-0.064,0.851c-0.043,0.288-0.124,0.549-0.243,0.783c-0.119,0.234-0.286,0.425-0.5,0.574    s-0.494,0.223-0.84,0.223c-0.342,0-0.621-0.075-0.837-0.223s-0.384-0.339-0.503-0.574c-0.119-0.234-0.2-0.495-0.243-0.783    c-0.042-0.288-0.064-0.569-0.064-0.844c0-0.279,0.021-0.562,0.064-0.851c0.043-0.288,0.124-0.549,0.243-0.783    c0.119-0.234,0.287-0.426,0.503-0.577c0.216-0.15,0.495-0.226,0.837-0.226C13.286,23.171,13.566,23.247,13.78,23.397z     M12.292,23.738c-0.162,0.14-0.285,0.313-0.368,0.52c-0.083,0.207-0.139,0.432-0.166,0.675c-0.027,0.243-0.041,0.466-0.041,0.668    c0,0.207,0.014,0.431,0.041,0.671c0.027,0.241,0.082,0.466,0.166,0.675c0.083,0.209,0.206,0.384,0.368,0.523    c0.162,0.14,0.378,0.209,0.648,0.209s0.486-0.07,0.648-0.209c0.162-0.139,0.285-0.314,0.368-0.523    c0.083-0.209,0.138-0.434,0.165-0.675c0.027-0.241,0.041-0.464,0.041-0.671c0-0.203-0.013-0.425-0.041-0.668    c-0.027-0.243-0.082-0.468-0.165-0.675c-0.083-0.207-0.206-0.38-0.368-0.52c-0.162-0.139-0.378-0.209-0.648-0.209    S12.454,23.599,12.292,23.738z"/>
		<path d="M16.038,27.937c0,0.099-0.012,0.197-0.037,0.293s-0.062,0.187-0.111,0.27c-0.05,0.083-0.111,0.156-0.186,0.22    c-0.074,0.063-0.161,0.108-0.26,0.135v-0.29c0.054-0.018,0.101-0.052,0.142-0.102c0.041-0.049,0.074-0.104,0.101-0.165    c0.027-0.061,0.046-0.124,0.058-0.189c0.011-0.065,0.015-0.123,0.01-0.172h-0.284v-0.715h0.567V27.937z"/>
		<path d="M19.409,23.397c0.214,0.151,0.38,0.343,0.5,0.577c0.119,0.234,0.2,0.495,0.243,0.783c0.042,0.288,0.064,0.569,0.064,0.844    c0,0.279-0.021,0.562-0.064,0.851c-0.043,0.288-0.124,0.549-0.243,0.783c-0.119,0.234-0.286,0.425-0.5,0.574    s-0.494,0.223-0.84,0.223c-0.342,0-0.621-0.075-0.837-0.223s-0.384-0.339-0.503-0.574c-0.119-0.234-0.2-0.495-0.243-0.783    c-0.042-0.288-0.064-0.569-0.064-0.844c0-0.279,0.021-0.562,0.064-0.851c0.043-0.288,0.124-0.549,0.243-0.783    c0.119-0.234,0.287-0.426,0.503-0.577c0.216-0.15,0.495-0.226,0.837-0.226C18.916,23.171,19.195,23.247,19.409,23.397z     M17.921,23.738c-0.162,0.14-0.285,0.313-0.368,0.52c-0.083,0.207-0.139,0.432-0.166,0.675c-0.027,0.243-0.041,0.466-0.041,0.668    c0,0.207,0.014,0.431,0.041,0.671c0.027,0.241,0.082,0.466,0.166,0.675c0.083,0.209,0.206,0.384,0.368,0.523    c0.162,0.14,0.378,0.209,0.648,0.209s0.486-0.07,0.648-0.209c0.162-0.139,0.285-0.314,0.368-0.523    c0.083-0.209,0.138-0.434,0.165-0.675c0.027-0.241,0.041-0.464,0.041-0.671c0-0.203-0.013-0.425-0.041-0.668    c-0.027-0.243-0.082-0.468-0.165-0.675c-0.083-0.207-0.206-0.38-0.368-0.52c-0.162-0.139-0.378-0.209-0.648-0.209    S18.083,23.599,17.921,23.738z"/>
		<path d="M23.162,23.397c0.214,0.151,0.38,0.343,0.5,0.577c0.119,0.234,0.2,0.495,0.243,0.783c0.042,0.288,0.064,0.569,0.064,0.844    c0,0.279-0.021,0.562-0.064,0.851c-0.043,0.288-0.124,0.549-0.243,0.783c-0.119,0.234-0.286,0.425-0.5,0.574    s-0.494,0.223-0.84,0.223c-0.342,0-0.621-0.075-0.837-0.223s-0.384-0.339-0.503-0.574c-0.119-0.234-0.2-0.495-0.243-0.783    c-0.042-0.288-0.064-0.569-0.064-0.844c0-0.279,0.021-0.562,0.064-0.851c0.043-0.288,0.124-0.549,0.243-0.783    c0.119-0.234,0.287-0.426,0.503-0.577c0.216-0.15,0.495-0.226,0.837-0.226C22.668,23.171,22.948,23.247,23.162,23.397z     M21.674,23.738c-0.162,0.14-0.285,0.313-0.368,0.52c-0.083,0.207-0.139,0.432-0.166,0.675c-0.027,0.243-0.041,0.466-0.041,0.668    c0,0.207,0.014,0.431,0.041,0.671c0.027,0.241,0.082,0.466,0.166,0.675c0.083,0.209,0.206,0.384,0.368,0.523    c0.162,0.14,0.378,0.209,0.648,0.209s0.486-0.07,0.648-0.209c0.162-0.139,0.285-0.314,0.368-0.523    c0.083-0.209,0.138-0.434,0.165-0.675c0.027-0.241,0.041-0.464,0.041-0.671c0-0.203-0.013-0.425-0.041-0.668    c-0.027-0.243-0.082-0.468-0.165-0.675c-0.083-0.207-0.206-0.38-0.368-0.52c-0.162-0.139-0.378-0.209-0.648-0.209    S21.836,23.599,21.674,23.738z"/>
		<path d="M26.915,23.397c0.214,0.151,0.38,0.343,0.5,0.577c0.119,0.234,0.2,0.495,0.243,0.783c0.042,0.288,0.064,0.569,0.064,0.844    c0,0.279-0.021,0.562-0.064,0.851c-0.043,0.288-0.124,0.549-0.243,0.783c-0.119,0.234-0.286,0.425-0.5,0.574    s-0.494,0.223-0.84,0.223c-0.342,0-0.621-0.075-0.837-0.223s-0.384-0.339-0.503-0.574c-0.119-0.234-0.2-0.495-0.243-0.783    c-0.042-0.288-0.064-0.569-0.064-0.844c0-0.279,0.021-0.562,0.064-0.851c0.043-0.288,0.124-0.549,0.243-0.783    c0.119-0.234,0.287-0.426,0.503-0.577c0.216-0.15,0.495-0.226,0.837-0.226C26.421,23.171,26.701,23.247,26.915,23.397z     M25.427,23.738c-0.162,0.14-0.285,0.313-0.368,0.52c-0.083,0.207-0.139,0.432-0.166,0.675c-0.027,0.243-0.041,0.466-0.041,0.668    c0,0.207,0.014,0.431,0.041,0.671c0.027,0.241,0.082,0.466,0.166,0.675c0.083,0.209,0.206,0.384,0.368,0.523    c0.162,0.14,0.378,0.209,0.648,0.209s0.486-0.07,0.648-0.209c0.162-0.139,0.285-0.314,0.368-0.523    c0.083-0.209,0.138-0.434,0.165-0.675c0.027-0.241,0.041-0.464,0.041-0.671c0-0.203-0.013-0.425-0.041-0.668    c-0.027-0.243-0.082-0.468-0.165-0.675c-0.083-0.207-0.206-0.38-0.368-0.52c-0.162-0.139-0.378-0.209-0.648-0.209    S25.589,23.599,25.427,23.738z"/>
	</g>
</g>
<g>
	<g>
		<path d="M0.719,4.816C0.91,5.025,1.184,5.15,1.539,5.191V3.193C1.35,3.152,1.169,3.104,0.996,3.048    C0.822,2.991,0.671,2.913,0.543,2.812C0.415,2.71,0.312,2.582,0.236,2.427C0.16,2.271,0.122,2.077,0.122,1.843    c0-0.203,0.037-0.385,0.111-0.547s0.175-0.3,0.304-0.415s0.279-0.203,0.452-0.263s0.356-0.091,0.55-0.091V0h0.263v0.526    c0.198,0,0.383,0.035,0.557,0.105S2.685,0.8,2.818,0.928C2.951,1.056,3.054,1.21,3.128,1.391c0.074,0.18,0.109,0.38,0.105,0.601    H2.808C2.803,1.654,2.709,1.385,2.524,1.185s-0.425-0.3-0.722-0.3v1.944c0.193,0.041,0.383,0.09,0.57,0.148    c0.187,0.059,0.353,0.14,0.5,0.243c0.146,0.104,0.264,0.233,0.354,0.388c0.09,0.155,0.135,0.352,0.135,0.591    c0,0.22-0.044,0.415-0.131,0.583c-0.088,0.169-0.205,0.31-0.351,0.422c-0.146,0.113-0.313,0.197-0.5,0.253    C2.192,5.514,2,5.542,1.802,5.542v0.574H1.539V5.535c-0.527-0.05-0.91-0.205-1.151-0.466C0.147,4.808,0.018,4.421,0,3.908h0.425    C0.43,4.304,0.527,4.607,0.719,4.816z M1.158,0.941C1.038,0.98,0.933,1.04,0.84,1.121S0.676,1.306,0.625,1.435    C0.573,1.562,0.547,1.714,0.547,1.89c0,0.157,0.028,0.286,0.084,0.385c0.057,0.099,0.131,0.18,0.223,0.243    C0.946,2.581,1.052,2.63,1.171,2.667c0.119,0.036,0.242,0.07,0.368,0.101V0.884C1.404,0.884,1.277,0.903,1.158,0.941z     M2.221,5.137c0.135-0.036,0.255-0.094,0.361-0.175C2.688,4.88,2.773,4.778,2.838,4.654C2.903,4.53,2.936,4.381,2.936,4.205    c0-0.162-0.035-0.297-0.104-0.405S2.673,3.604,2.565,3.534S2.335,3.407,2.201,3.361C2.065,3.316,1.933,3.278,1.802,3.247v1.944    C1.946,5.191,2.086,5.173,2.221,5.137z"/>
		<path d="M3.8,5.447c0.004-0.234,0.045-0.441,0.121-0.621c0.077-0.18,0.178-0.342,0.304-0.486C4.351,4.196,4.493,4.064,4.65,3.945    c0.158-0.119,0.32-0.234,0.486-0.344s0.332-0.223,0.496-0.337c0.164-0.115,0.312-0.237,0.442-0.368    c0.131-0.131,0.229-0.265,0.294-0.402c0.065-0.137,0.098-0.3,0.098-0.489c0-0.153-0.028-0.289-0.084-0.409    c-0.056-0.119-0.133-0.22-0.229-0.304C6.056,1.209,5.943,1.146,5.815,1.104C5.687,1.061,5.551,1.04,5.407,1.04    c-0.194,0-0.359,0.036-0.496,0.108C4.773,1.22,4.662,1.316,4.576,1.438C4.491,1.559,4.429,1.699,4.391,1.856    c-0.038,0.157-0.055,0.324-0.05,0.5H3.915C3.91,2.113,3.938,1.889,3.999,1.684c0.061-0.205,0.154-0.381,0.28-0.53    S4.564,0.89,4.755,0.807C4.946,0.724,5.17,0.682,5.427,0.682c0.207,0,0.399,0.028,0.577,0.084s0.333,0.14,0.466,0.25    c0.133,0.11,0.236,0.249,0.311,0.415s0.111,0.36,0.111,0.581c0,0.198-0.033,0.378-0.098,0.54C6.729,2.713,6.641,2.862,6.53,2.997    c-0.11,0.135-0.236,0.26-0.378,0.375C6.011,3.486,5.861,3.593,5.704,3.692C5.591,3.769,5.458,3.853,5.305,3.945    c-0.153,0.092-0.3,0.195-0.442,0.307C4.722,4.365,4.597,4.488,4.489,4.621S4.313,4.898,4.286,5.056h2.626v0.392H3.8z"/>
		<path d="M10.027,0.908c0.214,0.151,0.38,0.343,0.5,0.577c0.119,0.234,0.2,0.495,0.243,0.783c0.042,0.288,0.064,0.569,0.064,0.844    c0,0.279-0.021,0.562-0.064,0.851c-0.043,0.288-0.124,0.549-0.243,0.783c-0.119,0.234-0.286,0.425-0.5,0.574    s-0.494,0.223-0.84,0.223c-0.342,0-0.621-0.075-0.837-0.223S7.966,4.979,7.847,4.745c-0.119-0.234-0.2-0.495-0.243-0.783    C7.561,3.674,7.54,3.393,7.54,3.119c0-0.279,0.021-0.562,0.064-0.851C7.646,1.98,7.728,1.719,7.847,1.485    C7.966,1.251,8.134,1.059,8.35,0.908c0.216-0.15,0.495-0.226,0.837-0.226C9.533,0.682,9.813,0.757,10.027,0.908z M8.539,1.249    c-0.162,0.14-0.285,0.313-0.368,0.52C8.087,1.976,8.032,2.201,8.005,2.443C7.979,2.687,7.965,2.909,7.965,3.112    c0,0.207,0.014,0.431,0.041,0.671c0.027,0.241,0.082,0.466,0.166,0.675c0.083,0.209,0.206,0.384,0.368,0.523    c0.162,0.14,0.378,0.209,0.648,0.209s0.486-0.07,0.648-0.209c0.162-0.139,0.285-0.314,0.368-0.523    c0.083-0.209,0.138-0.434,0.165-0.675c0.027-0.241,0.041-0.464,0.041-0.671c0-0.203-0.013-0.425-0.041-0.668    c-0.027-0.243-0.082-0.468-0.165-0.675c-0.083-0.207-0.206-0.38-0.368-0.52C9.672,1.109,9.457,1.04,9.187,1.04    S8.701,1.109,8.539,1.249z"/>
		<path d="M13.78,0.908c0.214,0.151,0.38,0.343,0.5,0.577c0.119,0.234,0.2,0.495,0.243,0.783c0.042,0.288,0.064,0.569,0.064,0.844    c0,0.279-0.021,0.562-0.064,0.851c-0.043,0.288-0.124,0.549-0.243,0.783c-0.119,0.234-0.286,0.425-0.5,0.574    s-0.494,0.223-0.84,0.223c-0.342,0-0.621-0.075-0.837-0.223S11.719,4.979,11.6,4.745c-0.119-0.234-0.2-0.495-0.243-0.783    c-0.042-0.288-0.064-0.569-0.064-0.844c0-0.279,0.021-0.562,0.064-0.851C11.399,1.98,11.48,1.719,11.6,1.485    c0.119-0.234,0.287-0.426,0.503-0.577c0.216-0.15,0.495-0.226,0.837-0.226C13.286,0.682,13.566,0.757,13.78,0.908z M12.292,1.249    c-0.162,0.14-0.285,0.313-0.368,0.52c-0.083,0.207-0.139,0.432-0.166,0.675c-0.027,0.243-0.041,0.466-0.041,0.668    c0,0.207,0.014,0.431,0.041,0.671c0.027,0.241,0.082,0.466,0.166,0.675c0.083,0.209,0.206,0.384,0.368,0.523    c0.162,0.14,0.378,0.209,0.648,0.209s0.486-0.07,0.648-0.209c0.162-0.139,0.285-0.314,0.368-0.523    c0.083-0.209,0.138-0.434,0.165-0.675c0.027-0.241,0.041-0.464,0.041-0.671c0-0.203-0.013-0.425-0.041-0.668    c-0.027-0.243-0.082-0.468-0.165-0.675c-0.083-0.207-0.206-0.38-0.368-0.52c-0.162-0.139-0.378-0.209-0.648-0.209    S12.454,1.109,12.292,1.249z"/>
		<path d="M16.038,5.447c0,0.099-0.012,0.197-0.037,0.293s-0.062,0.187-0.111,0.27c-0.05,0.083-0.111,0.156-0.186,0.22    c-0.074,0.063-0.161,0.108-0.26,0.135v-0.29c0.054-0.018,0.101-0.052,0.142-0.102c0.041-0.049,0.074-0.104,0.101-0.165    c0.027-0.061,0.046-0.124,0.058-0.189c0.011-0.065,0.015-0.123,0.01-0.172h-0.284V4.732h0.567V5.447z"/>
		<path d="M19.409,0.908c0.214,0.151,0.38,0.343,0.5,0.577c0.119,0.234,0.2,0.495,0.243,0.783c0.042,0.288,0.064,0.569,0.064,0.844    c0,0.279-0.021,0.562-0.064,0.851c-0.043,0.288-0.124,0.549-0.243,0.783c-0.119,0.234-0.286,0.425-0.5,0.574    s-0.494,0.223-0.84,0.223c-0.342,0-0.621-0.075-0.837-0.223s-0.384-0.339-0.503-0.574c-0.119-0.234-0.2-0.495-0.243-0.783    c-0.042-0.288-0.064-0.569-0.064-0.844c0-0.279,0.021-0.562,0.064-0.851c0.043-0.288,0.124-0.549,0.243-0.783    c0.119-0.234,0.287-0.426,0.503-0.577c0.216-0.15,0.495-0.226,0.837-0.226C18.916,0.682,19.195,0.757,19.409,0.908z M17.921,1.249    c-0.162,0.14-0.285,0.313-0.368,0.52c-0.083,0.207-0.139,0.432-0.166,0.675c-0.027,0.243-0.041,0.466-0.041,0.668    c0,0.207,0.014,0.431,0.041,0.671c0.027,0.241,0.082,0.466,0.166,0.675c0.083,0.209,0.206,0.384,0.368,0.523    c0.162,0.14,0.378,0.209,0.648,0.209s0.486-0.07,0.648-0.209c0.162-0.139,0.285-0.314,0.368-0.523    c0.083-0.209,0.138-0.434,0.165-0.675c0.027-0.241,0.041-0.464,0.041-0.671c0-0.203-0.013-0.425-0.041-0.668    c-0.027-0.243-0.082-0.468-0.165-0.675c-0.083-0.207-0.206-0.38-0.368-0.52c-0.162-0.139-0.378-0.209-0.648-0.209    S18.083,1.109,17.921,1.249z"/>
		<path d="M23.162,0.908c0.214,0.151,0.38,0.343,0.5,0.577c0.119,0.234,0.2,0.495,0.243,0.783c0.042,0.288,0.064,0.569,0.064,0.844    c0,0.279-0.021,0.562-0.064,0.851c-0.043,0.288-0.124,0.549-0.243,0.783c-0.119,0.234-0.286,0.425-0.5,0.574    s-0.494,0.223-0.84,0.223c-0.342,0-0.621-0.075-0.837-0.223s-0.384-0.339-0.503-0.574c-0.119-0.234-0.2-0.495-0.243-0.783    c-0.042-0.288-0.064-0.569-0.064-0.844c0-0.279,0.021-0.562,0.064-0.851c0.043-0.288,0.124-0.549,0.243-0.783    c0.119-0.234,0.287-0.426,0.503-0.577c0.216-0.15,0.495-0.226,0.837-0.226C22.668,0.682,22.948,0.757,23.162,0.908z M21.674,1.249    c-0.162,0.14-0.285,0.313-0.368,0.52c-0.083,0.207-0.139,0.432-0.166,0.675C21.114,2.687,21.1,2.909,21.1,3.112    c0,0.207,0.014,0.431,0.041,0.671c0.027,0.241,0.082,0.466,0.166,0.675c0.083,0.209,0.206,0.384,0.368,0.523    c0.162,0.14,0.378,0.209,0.648,0.209s0.486-0.07,0.648-0.209c0.162-0.139,0.285-0.314,0.368-0.523    c0.083-0.209,0.138-0.434,0.165-0.675c0.027-0.241,0.041-0.464,0.041-0.671c0-0.203-0.013-0.425-0.041-0.668    c-0.027-0.243-0.082-0.468-0.165-0.675c-0.083-0.207-0.206-0.38-0.368-0.52c-0.162-0.139-0.378-0.209-0.648-0.209    S21.836,1.109,21.674,1.249z"/>
		<path d="M26.915,0.908c0.214,0.151,0.38,0.343,0.5,0.577c0.119,0.234,0.2,0.495,0.243,0.783c0.042,0.288,0.064,0.569,0.064,0.844    c0,0.279-0.021,0.562-0.064,0.851c-0.043,0.288-0.124,0.549-0.243,0.783c-0.119,0.234-0.286,0.425-0.5,0.574    s-0.494,0.223-0.84,0.223c-0.342,0-0.621-0.075-0.837-0.223s-0.384-0.339-0.503-0.574c-0.119-0.234-0.2-0.495-0.243-0.783    c-0.042-0.288-0.064-0.569-0.064-0.844c0-0.279,0.021-0.562,0.064-0.851c0.043-0.288,0.124-0.549,0.243-0.783    c0.119-0.234,0.287-0.426,0.503-0.577c0.216-0.15,0.495-0.226,0.837-0.226C26.421,0.682,26.701,0.757,26.915,0.908z M25.427,1.249    c-0.162,0.14-0.285,0.313-0.368,0.52c-0.083,0.207-0.139,0.432-0.166,0.675c-0.027,0.243-0.041,0.466-0.041,0.668    c0,0.207,0.014,0.431,0.041,0.671c0.027,0.241,0.082,0.466,0.166,0.675c0.083,0.209,0.206,0.384,0.368,0.523    c0.162,0.14,0.378,0.209,0.648,0.209s0.486-0.07,0.648-0.209c0.162-0.139,0.285-0.314,0.368-0.523    c0.083-0.209,0.138-0.434,0.165-0.675c0.027-0.241,0.041-0.464,0.041-0.671c0-0.203-0.013-0.425-0.041-0.668    c-0.027-0.243-0.082-0.468-0.165-0.675c-0.083-0.207-0.206-0.38-0.368-0.52c-0.162-0.139-0.378-0.209-0.648-0.209    S25.589,1.109,25.427,1.249z"/>
	</g>
</g>
<g>
	<g>
		<path d="M40.566,127.298c0.004-0.234,0.045-0.441,0.122-0.621s0.178-0.342,0.304-0.486c0.126-0.144,0.268-0.275,0.425-0.395    c0.157-0.119,0.319-0.233,0.486-0.344s0.332-0.224,0.496-0.338c0.165-0.115,0.312-0.237,0.442-0.368    c0.13-0.13,0.228-0.264,0.293-0.401s0.098-0.301,0.098-0.489c0-0.153-0.028-0.289-0.084-0.408    c-0.057-0.119-0.133-0.221-0.229-0.304c-0.097-0.084-0.209-0.146-0.337-0.189c-0.128-0.043-0.265-0.064-0.409-0.064    c-0.193,0-0.359,0.036-0.496,0.108s-0.249,0.169-0.334,0.29c-0.085,0.122-0.147,0.262-0.186,0.419    c-0.039,0.157-0.055,0.324-0.051,0.499h-0.425c-0.004-0.243,0.023-0.467,0.084-0.671c0.061-0.205,0.154-0.382,0.28-0.53    c0.125-0.148,0.284-0.265,0.476-0.348s0.415-0.125,0.672-0.125c0.207,0,0.399,0.028,0.577,0.085    c0.178,0.056,0.333,0.139,0.465,0.249c0.133,0.11,0.236,0.249,0.311,0.415c0.074,0.167,0.111,0.36,0.111,0.581    c0,0.198-0.033,0.378-0.098,0.54c-0.065,0.162-0.153,0.311-0.263,0.445s-0.236,0.26-0.378,0.375    c-0.142,0.114-0.292,0.222-0.449,0.32c-0.112,0.076-0.245,0.161-0.398,0.253c-0.153,0.093-0.3,0.194-0.442,0.308    c-0.142,0.112-0.267,0.234-0.375,0.367s-0.175,0.278-0.203,0.436h2.626v0.392H40.566z"/>
		<path d="M46.793,122.759c0.213,0.15,0.38,0.343,0.5,0.577c0.119,0.233,0.2,0.495,0.243,0.782c0.043,0.288,0.064,0.569,0.064,0.844    c0,0.279-0.021,0.563-0.064,0.851c-0.042,0.288-0.124,0.55-0.243,0.783c-0.12,0.234-0.286,0.426-0.5,0.574    c-0.214,0.148-0.494,0.223-0.84,0.223c-0.342,0-0.621-0.074-0.837-0.223c-0.216-0.148-0.383-0.34-0.502-0.574    c-0.12-0.233-0.201-0.495-0.243-0.783c-0.043-0.287-0.064-0.569-0.064-0.844c0-0.278,0.021-0.562,0.064-0.851    c0.042-0.287,0.124-0.549,0.243-0.782c0.119-0.234,0.287-0.427,0.502-0.577c0.216-0.151,0.495-0.227,0.837-0.227    C46.299,122.533,46.58,122.608,46.793,122.759z M45.305,123.1c-0.162,0.14-0.284,0.312-0.368,0.52s-0.138,0.432-0.166,0.675    c-0.027,0.243-0.041,0.466-0.041,0.668c0,0.207,0.014,0.432,0.041,0.672c0.027,0.241,0.082,0.466,0.166,0.675    c0.083,0.21,0.206,0.384,0.368,0.523c0.162,0.14,0.378,0.209,0.648,0.209s0.486-0.069,0.648-0.209    c0.162-0.14,0.284-0.313,0.368-0.523c0.083-0.209,0.139-0.434,0.166-0.675c0.027-0.24,0.041-0.465,0.041-0.672    c0-0.202-0.014-0.425-0.041-0.668s-0.082-0.468-0.166-0.675s-0.206-0.38-0.368-0.52c-0.162-0.14-0.378-0.21-0.648-0.21    S45.467,122.96,45.305,123.1z"/>
		<path d="M50.546,122.759c0.213,0.15,0.38,0.343,0.5,0.577c0.119,0.233,0.2,0.495,0.243,0.782c0.043,0.288,0.064,0.569,0.064,0.844    c0,0.279-0.021,0.563-0.064,0.851c-0.042,0.288-0.124,0.55-0.243,0.783c-0.119,0.234-0.286,0.426-0.5,0.574    c-0.214,0.148-0.494,0.223-0.84,0.223c-0.342,0-0.621-0.074-0.837-0.223c-0.216-0.148-0.384-0.34-0.503-0.574    c-0.12-0.233-0.201-0.495-0.243-0.783c-0.043-0.287-0.064-0.569-0.064-0.844c0-0.278,0.021-0.562,0.064-0.851    c0.042-0.287,0.124-0.549,0.243-0.782c0.119-0.234,0.287-0.427,0.503-0.577c0.216-0.151,0.495-0.227,0.837-0.227    C50.052,122.533,50.333,122.608,50.546,122.759z M49.058,123.1c-0.162,0.14-0.285,0.312-0.368,0.52    c-0.083,0.207-0.138,0.432-0.165,0.675c-0.027,0.243-0.041,0.466-0.041,0.668c0,0.207,0.013,0.432,0.041,0.672    c0.027,0.241,0.082,0.466,0.165,0.675c0.083,0.21,0.206,0.384,0.368,0.523c0.162,0.14,0.378,0.209,0.648,0.209    s0.486-0.069,0.648-0.209s0.285-0.313,0.368-0.523c0.083-0.209,0.139-0.434,0.166-0.675c0.027-0.24,0.041-0.465,0.041-0.672    c0-0.202-0.014-0.425-0.041-0.668s-0.082-0.468-0.166-0.675c-0.083-0.207-0.206-0.38-0.368-0.52s-0.378-0.21-0.648-0.21    S49.22,122.96,49.058,123.1z"/>
		<path d="M52.74,123.455c0.15-0.016,0.281-0.053,0.391-0.111s0.203-0.147,0.277-0.267s0.127-0.287,0.159-0.503h0.344v4.725h-0.425    v-3.51h-1.249v-0.304C52.422,123.48,52.589,123.47,52.74,123.455z"/>
	</g>
</g>
<g>
	<g>
		<path d="M110.378,127.298c0.004-0.234,0.045-0.441,0.122-0.621s0.178-0.342,0.304-0.486c0.126-0.143,0.268-0.275,0.425-0.395    c0.157-0.119,0.319-0.232,0.486-0.344c0.167-0.109,0.332-0.223,0.496-0.338c0.165-0.115,0.312-0.236,0.442-0.367    c0.13-0.131,0.228-0.264,0.293-0.402c0.065-0.137,0.098-0.301,0.098-0.488c0-0.154-0.028-0.289-0.084-0.408    c-0.057-0.119-0.133-0.221-0.229-0.305c-0.097-0.084-0.209-0.146-0.337-0.189c-0.128-0.043-0.265-0.064-0.409-0.064    c-0.193,0-0.359,0.037-0.496,0.109s-0.249,0.168-0.334,0.289c-0.085,0.123-0.147,0.262-0.186,0.42    c-0.039,0.156-0.055,0.324-0.051,0.498h-0.425c-0.004-0.242,0.023-0.467,0.084-0.67c0.061-0.205,0.154-0.383,0.28-0.531    c0.126-0.148,0.284-0.264,0.476-0.348c0.191-0.082,0.415-0.125,0.672-0.125c0.207,0,0.399,0.029,0.577,0.086    c0.178,0.055,0.333,0.139,0.465,0.248c0.133,0.111,0.236,0.25,0.311,0.416s0.111,0.359,0.111,0.58    c0,0.199-0.032,0.379-0.098,0.541s-0.153,0.311-0.263,0.445s-0.236,0.26-0.378,0.375c-0.142,0.113-0.292,0.221-0.449,0.32    c-0.112,0.076-0.245,0.16-0.398,0.252c-0.153,0.094-0.3,0.195-0.442,0.309c-0.142,0.111-0.267,0.234-0.375,0.367    s-0.175,0.277-0.203,0.436h2.626v0.391H110.378z"/>
		<path d="M116.605,122.759c0.213,0.15,0.38,0.344,0.5,0.578c0.119,0.232,0.2,0.494,0.243,0.781c0.043,0.289,0.064,0.57,0.064,0.844    c0,0.279-0.021,0.564-0.064,0.852c-0.042,0.287-0.124,0.549-0.243,0.783c-0.12,0.234-0.286,0.426-0.5,0.574    c-0.214,0.148-0.494,0.223-0.84,0.223c-0.342,0-0.621-0.074-0.837-0.223c-0.216-0.148-0.383-0.34-0.502-0.574    c-0.12-0.234-0.201-0.496-0.243-0.783c-0.043-0.287-0.064-0.57-0.064-0.844c0-0.279,0.021-0.562,0.064-0.852    c0.042-0.287,0.124-0.549,0.243-0.781c0.119-0.234,0.287-0.428,0.502-0.578c0.216-0.15,0.495-0.227,0.837-0.227    C116.111,122.533,116.392,122.609,116.605,122.759z M115.117,123.101c-0.162,0.139-0.285,0.312-0.368,0.52    s-0.138,0.432-0.166,0.674c-0.027,0.244-0.041,0.467-0.041,0.668c0,0.207,0.014,0.432,0.041,0.672    c0.027,0.242,0.082,0.467,0.166,0.676s0.206,0.383,0.368,0.523c0.162,0.139,0.378,0.209,0.648,0.209s0.486-0.07,0.648-0.209    c0.162-0.141,0.285-0.314,0.368-0.523c0.083-0.209,0.139-0.434,0.166-0.676c0.027-0.24,0.041-0.465,0.041-0.672    c0-0.201-0.014-0.424-0.041-0.668c-0.027-0.242-0.082-0.467-0.166-0.674c-0.083-0.207-0.206-0.381-0.368-0.52    c-0.162-0.141-0.378-0.211-0.648-0.211S115.279,122.96,115.117,123.101z"/>
		<path d="M120.358,122.759c0.213,0.15,0.38,0.344,0.5,0.578c0.119,0.232,0.2,0.494,0.243,0.781c0.043,0.289,0.064,0.57,0.064,0.844    c0,0.279-0.021,0.564-0.064,0.852c-0.042,0.287-0.124,0.549-0.243,0.783s-0.286,0.426-0.5,0.574    c-0.214,0.148-0.494,0.223-0.84,0.223c-0.342,0-0.621-0.074-0.837-0.223c-0.216-0.148-0.384-0.34-0.503-0.574    c-0.12-0.234-0.2-0.496-0.243-0.783s-0.064-0.57-0.064-0.844c0-0.279,0.021-0.562,0.064-0.852    c0.043-0.287,0.124-0.549,0.243-0.781c0.119-0.234,0.287-0.428,0.503-0.578c0.216-0.15,0.495-0.227,0.837-0.227    C119.864,122.533,120.145,122.609,120.358,122.759z M118.87,123.101c-0.162,0.139-0.285,0.312-0.368,0.52    c-0.083,0.207-0.138,0.432-0.165,0.674c-0.027,0.244-0.041,0.467-0.041,0.668c0,0.207,0.013,0.432,0.041,0.672    c0.027,0.242,0.082,0.467,0.165,0.676c0.083,0.209,0.206,0.383,0.368,0.523c0.162,0.139,0.378,0.209,0.648,0.209    s0.486-0.07,0.648-0.209c0.162-0.141,0.285-0.314,0.368-0.523c0.083-0.209,0.139-0.434,0.166-0.676    c0.027-0.24,0.041-0.465,0.041-0.672c0-0.201-0.014-0.424-0.041-0.668c-0.027-0.242-0.082-0.467-0.166-0.674    c-0.083-0.207-0.206-0.381-0.368-0.52c-0.162-0.141-0.378-0.211-0.648-0.211S119.032,122.96,118.87,123.101z"/>
		<path d="M124.064,123.134c-0.173-0.162-0.397-0.244-0.671-0.244c-0.275,0-0.498,0.07-0.668,0.211    c-0.171,0.139-0.304,0.314-0.398,0.525c-0.095,0.213-0.158,0.439-0.189,0.686c-0.031,0.246-0.047,0.477-0.047,0.691h0.013    c0.113-0.234,0.283-0.422,0.51-0.566s0.476-0.217,0.746-0.217c0.238,0,0.453,0.041,0.645,0.119    c0.191,0.078,0.354,0.188,0.489,0.326c0.135,0.141,0.24,0.307,0.314,0.5s0.111,0.406,0.111,0.635c0,0.23-0.04,0.441-0.118,0.639    c-0.079,0.195-0.189,0.363-0.331,0.506c-0.142,0.141-0.311,0.252-0.506,0.33s-0.411,0.119-0.645,0.119    c-0.288,0-0.536-0.045-0.743-0.133s-0.378-0.23-0.513-0.428c-0.135-0.199-0.235-0.455-0.3-0.773    c-0.065-0.316-0.098-0.707-0.098-1.172c0-0.094,0.005-0.217,0.017-0.371c0.011-0.152,0.037-0.314,0.078-0.488    s0.098-0.35,0.172-0.527s0.173-0.338,0.297-0.482c0.124-0.145,0.278-0.26,0.462-0.352c0.185-0.09,0.405-0.135,0.662-0.135    c0.423,0,0.758,0.102,1.006,0.305c0.247,0.203,0.396,0.512,0.445,0.932h-0.425C124.342,123.507,124.237,123.296,124.064,123.134z     M122.856,124.677c-0.146,0.064-0.27,0.154-0.372,0.266c-0.101,0.113-0.178,0.244-0.229,0.395    c-0.052,0.152-0.078,0.314-0.078,0.49c0,0.166,0.022,0.324,0.068,0.473c0.045,0.148,0.116,0.277,0.212,0.387    c0.097,0.111,0.219,0.197,0.368,0.262c0.149,0.062,0.327,0.094,0.534,0.094c0.171,0,0.325-0.033,0.462-0.098    c0.137-0.066,0.256-0.152,0.357-0.264c0.102-0.109,0.179-0.24,0.233-0.389c0.054-0.148,0.081-0.303,0.081-0.465    c0-0.172-0.026-0.334-0.078-0.486s-0.126-0.285-0.223-0.398c-0.097-0.111-0.216-0.201-0.358-0.266    c-0.142-0.066-0.303-0.1-0.482-0.1C123.167,124.578,123.002,124.611,122.856,124.677z"/>
	</g>
</g>
<g>
	<g>
		<path d="M180.186,127.299c0.004-0.234,0.045-0.441,0.121-0.621s0.178-0.342,0.304-0.486c0.126-0.144,0.268-0.275,0.425-0.395    c0.158-0.119,0.32-0.233,0.486-0.344c0.167-0.11,0.332-0.224,0.496-0.338c0.164-0.115,0.312-0.237,0.442-0.368    c0.131-0.13,0.229-0.264,0.294-0.401c0.064-0.138,0.098-0.301,0.098-0.489c0-0.153-0.028-0.289-0.085-0.408    c-0.056-0.119-0.133-0.221-0.229-0.304c-0.097-0.084-0.209-0.146-0.337-0.189c-0.129-0.043-0.265-0.064-0.408-0.064    c-0.194,0-0.359,0.036-0.496,0.108c-0.138,0.072-0.249,0.169-0.335,0.29c-0.085,0.122-0.147,0.262-0.186,0.419    s-0.055,0.324-0.05,0.499H180.3c-0.005-0.243,0.023-0.467,0.084-0.671c0.062-0.205,0.154-0.382,0.28-0.53s0.285-0.265,0.477-0.348    c0.19-0.083,0.415-0.125,0.671-0.125c0.207,0,0.399,0.028,0.577,0.085c0.178,0.056,0.333,0.139,0.466,0.249    s0.236,0.249,0.311,0.415c0.074,0.167,0.111,0.36,0.111,0.581c0,0.198-0.032,0.378-0.098,0.54s-0.153,0.311-0.264,0.445    c-0.109,0.135-0.235,0.26-0.378,0.375c-0.142,0.114-0.291,0.222-0.448,0.32c-0.112,0.076-0.245,0.161-0.398,0.253    c-0.153,0.093-0.301,0.194-0.442,0.308c-0.142,0.112-0.267,0.234-0.374,0.367c-0.108,0.133-0.176,0.278-0.203,0.436h2.626v0.392    H180.186z"/>
		<path d="M186.412,122.76c0.214,0.15,0.38,0.343,0.499,0.577c0.119,0.233,0.2,0.495,0.243,0.782    c0.043,0.288,0.064,0.569,0.064,0.844c0,0.279-0.021,0.563-0.064,0.851c-0.043,0.288-0.124,0.55-0.243,0.783    c-0.119,0.234-0.285,0.426-0.499,0.574s-0.494,0.223-0.841,0.223c-0.342,0-0.621-0.074-0.837-0.223s-0.384-0.34-0.503-0.574    c-0.119-0.233-0.2-0.495-0.243-0.783c-0.042-0.287-0.063-0.569-0.063-0.844c0-0.278,0.021-0.562,0.063-0.851    c0.043-0.287,0.124-0.549,0.243-0.782c0.119-0.234,0.287-0.427,0.503-0.577c0.216-0.151,0.495-0.227,0.837-0.227    C185.918,122.534,186.198,122.609,186.412,122.76z M184.924,123.101c-0.162,0.14-0.285,0.312-0.368,0.52s-0.139,0.432-0.165,0.675    c-0.027,0.243-0.041,0.466-0.041,0.668c0,0.207,0.014,0.432,0.041,0.672c0.026,0.241,0.082,0.466,0.165,0.675    c0.083,0.21,0.206,0.384,0.368,0.523s0.378,0.209,0.647,0.209c0.271,0,0.486-0.069,0.648-0.209s0.284-0.313,0.368-0.523    c0.083-0.209,0.138-0.434,0.165-0.675c0.027-0.24,0.04-0.465,0.04-0.672c0-0.202-0.013-0.425-0.04-0.668s-0.082-0.468-0.165-0.675    c-0.084-0.207-0.206-0.38-0.368-0.52s-0.378-0.21-0.648-0.21C185.302,122.891,185.086,122.961,184.924,123.101z"/>
		<path d="M188.605,123.456c0.151-0.016,0.281-0.053,0.392-0.111s0.203-0.147,0.277-0.267s0.127-0.287,0.158-0.503h0.344v4.725    h-0.425v-3.51h-1.249v-0.304C188.287,123.481,188.455,123.471,188.605,123.456z"/>
		<path d="M192.358,123.456c0.151-0.016,0.281-0.053,0.392-0.111s0.203-0.147,0.277-0.267s0.127-0.287,0.158-0.503h0.345v4.725    h-0.426v-3.51h-1.249v-0.304C192.04,123.481,192.208,123.471,192.358,123.456z"/>
	</g>
</g>
<g>
	<g>
		<path d="M249.997,127.298c0.004-0.234,0.045-0.441,0.121-0.621s0.178-0.342,0.304-0.486c0.126-0.143,0.268-0.275,0.426-0.395    c0.157-0.119,0.319-0.232,0.485-0.344c0.167-0.109,0.332-0.223,0.496-0.338s0.312-0.236,0.442-0.367s0.229-0.264,0.294-0.402    c0.064-0.137,0.098-0.301,0.098-0.488c0-0.154-0.028-0.289-0.085-0.408c-0.056-0.119-0.133-0.221-0.229-0.305    s-0.209-0.146-0.337-0.189s-0.265-0.064-0.408-0.064c-0.194,0-0.359,0.037-0.496,0.109c-0.138,0.072-0.249,0.168-0.335,0.289    c-0.085,0.123-0.146,0.262-0.186,0.42c-0.038,0.156-0.055,0.324-0.05,0.498h-0.426c-0.005-0.242,0.023-0.467,0.085-0.67    c0.061-0.205,0.153-0.383,0.279-0.531s0.285-0.264,0.477-0.348c0.19-0.082,0.415-0.125,0.671-0.125    c0.207,0,0.399,0.029,0.577,0.086c0.178,0.055,0.333,0.139,0.466,0.248c0.133,0.111,0.236,0.25,0.311,0.416    s0.111,0.359,0.111,0.58c0,0.199-0.032,0.379-0.098,0.541s-0.153,0.311-0.263,0.445c-0.11,0.135-0.236,0.26-0.379,0.375    c-0.142,0.113-0.291,0.221-0.448,0.32c-0.112,0.076-0.245,0.16-0.398,0.252c-0.153,0.094-0.301,0.195-0.442,0.309    c-0.142,0.111-0.267,0.234-0.374,0.367c-0.108,0.133-0.176,0.277-0.203,0.436h2.626v0.391H249.997z"/>
		<path d="M256.224,122.759c0.214,0.15,0.38,0.344,0.499,0.578c0.119,0.232,0.2,0.494,0.243,0.781    c0.043,0.289,0.064,0.57,0.064,0.844c0,0.279-0.021,0.564-0.064,0.852s-0.124,0.549-0.243,0.783s-0.285,0.426-0.499,0.574    s-0.494,0.223-0.841,0.223c-0.342,0-0.621-0.074-0.837-0.223s-0.384-0.34-0.503-0.574s-0.2-0.496-0.242-0.783    c-0.043-0.287-0.064-0.57-0.064-0.844c0-0.279,0.021-0.562,0.064-0.852c0.042-0.287,0.123-0.549,0.242-0.781    c0.119-0.234,0.287-0.428,0.503-0.578s0.495-0.227,0.837-0.227C255.729,122.533,256.01,122.609,256.224,122.759z M254.735,123.101    c-0.162,0.139-0.285,0.312-0.368,0.52s-0.139,0.432-0.165,0.674c-0.027,0.244-0.041,0.467-0.041,0.668    c0,0.207,0.014,0.432,0.041,0.672c0.026,0.242,0.082,0.467,0.165,0.676s0.206,0.383,0.368,0.523    c0.162,0.139,0.378,0.209,0.647,0.209c0.271,0,0.486-0.07,0.648-0.209c0.162-0.141,0.284-0.314,0.368-0.523    c0.083-0.209,0.138-0.434,0.165-0.676c0.027-0.24,0.04-0.465,0.04-0.672c0-0.201-0.013-0.424-0.04-0.668    c-0.027-0.242-0.082-0.467-0.165-0.674c-0.084-0.207-0.206-0.381-0.368-0.52c-0.162-0.141-0.378-0.211-0.648-0.211    C255.113,122.89,254.897,122.96,254.735,123.101z"/>
		<path d="M258.417,123.455c0.151-0.016,0.281-0.053,0.392-0.111s0.203-0.146,0.277-0.266s0.127-0.287,0.158-0.504h0.345v4.725    h-0.426v-3.51h-1.249v-0.303C258.099,123.48,258.267,123.47,258.417,123.455z"/>
		<path d="M263.683,123.134c-0.174-0.162-0.397-0.244-0.672-0.244s-0.497,0.07-0.668,0.211c-0.172,0.139-0.304,0.314-0.398,0.525    c-0.095,0.213-0.158,0.439-0.189,0.686s-0.047,0.477-0.047,0.691h0.014c0.112-0.234,0.282-0.422,0.51-0.566    c0.227-0.145,0.476-0.217,0.745-0.217c0.239,0,0.454,0.041,0.645,0.119c0.191,0.078,0.354,0.188,0.49,0.326    c0.135,0.141,0.239,0.307,0.313,0.5s0.111,0.406,0.111,0.635c0,0.23-0.039,0.441-0.118,0.639    c-0.079,0.195-0.188,0.363-0.331,0.506c-0.142,0.141-0.311,0.252-0.506,0.33s-0.411,0.119-0.645,0.119    c-0.288,0-0.536-0.045-0.742-0.133c-0.207-0.088-0.379-0.23-0.514-0.428c-0.135-0.199-0.235-0.455-0.3-0.773    c-0.065-0.316-0.099-0.707-0.099-1.172c0-0.094,0.006-0.217,0.018-0.371c0.011-0.152,0.037-0.314,0.077-0.488    c0.041-0.174,0.098-0.35,0.172-0.527c0.075-0.178,0.174-0.338,0.298-0.482c0.123-0.145,0.277-0.26,0.462-0.352    c0.185-0.09,0.405-0.135,0.661-0.135c0.424,0,0.759,0.102,1.006,0.305c0.248,0.203,0.396,0.512,0.446,0.932h-0.426    C263.96,123.507,263.855,123.296,263.683,123.134z M262.474,124.677c-0.146,0.064-0.27,0.154-0.371,0.266    c-0.101,0.113-0.178,0.244-0.229,0.395c-0.052,0.152-0.077,0.314-0.077,0.49c0,0.166,0.022,0.324,0.067,0.473    s0.115,0.277,0.213,0.387c0.097,0.111,0.219,0.197,0.367,0.262c0.148,0.062,0.326,0.094,0.533,0.094    c0.171,0,0.325-0.033,0.463-0.098c0.137-0.066,0.256-0.152,0.357-0.264c0.102-0.109,0.179-0.24,0.233-0.389    c0.054-0.148,0.081-0.303,0.081-0.465c0-0.172-0.026-0.334-0.078-0.486s-0.126-0.285-0.223-0.398    c-0.097-0.111-0.216-0.201-0.357-0.266c-0.142-0.066-0.303-0.1-0.483-0.1C262.785,124.578,262.62,124.611,262.474,124.677z"/>
	</g>
</g>
<line fill="none" stroke="#000000" stroke-width="0.5" stroke-linejoin="round" stroke-miterlimit="10" x1="30.978" y1="104.396" x2="33.869" y2="104.396"/>
<line fill="none" stroke="#000000" stroke-width="0.5" stroke-linejoin="round" stroke-miterlimit="10" x1="30.978" y1="81.927" x2="33.869" y2="81.927"/>
<line fill="none" stroke="#000000" stroke-width="0.5" stroke-linejoin="round" stroke-miterlimit="10" x1="31.211" y1="59.46" x2="34.102" y2="59.46"/>
<line fill="none" stroke="#000000" stroke-width="0.5" stroke-linejoin="round" stroke-miterlimit="10" x1="31.211" y1="36.963" x2="34.102" y2="36.963"/>
<line fill="none" stroke="#000000" stroke-width="0.5" stroke-linejoin="round" stroke-miterlimit="10" x1="31.211" y1="14.479" x2="34.102" y2="14.479"/>
</svg>