<svg xmlns="http://www.w3.org/2000/svg" xmlns:xlink="http://www.w3.org/1999/xlink" version="1.1" id="Layer_1" x="0px" y="0px" width="331.47px" height="144.8px" viewBox="-6.001 -5.999 331.47 144.8" enable-background="new -6.001 -5.999 331.47 144.8" xml:space="preserve">
<g id="Layer_1_1_">
</g>
<g id="Layer_2">
	<rect fill="#FFFFFF" width="319.467" height="132.803"/>
	<g>
		<path fill="none" stroke="#D9D9D8" stroke-width="0.7196" stroke-linejoin="round" stroke-miterlimit="10" d="M35.192,7.343    h279.28 M35.192,25.666h279.28 M35.192,43.99h279.28 M35.192,62.541h279.28 M35.192,80.865h279.28 M35.192,99.188h279.28"/>
	</g>
	
		<line fill="none" stroke="#000000" stroke-width="0.5" stroke-linejoin="round" stroke-miterlimit="10" x1="309.98" y1="117.796" x2="309.98" y2="120.51"/>
	
		<line fill="none" stroke="#000000" stroke-width="0.5" stroke-linejoin="round" stroke-miterlimit="10" x1="299.31" y1="117.796" x2="299.31" y2="120.51"/>
	
		<line fill="none" stroke="#000000" stroke-width="0.5" stroke-linejoin="round" stroke-miterlimit="10" x1="289.015" y1="117.796" x2="289.015" y2="120.51"/>
	
		<line fill="none" stroke="#000000" stroke-width="0.5" stroke-linejoin="round" stroke-miterlimit="10" x1="278.345" y1="117.796" x2="278.345" y2="120.51"/>
	
		<line fill="none" stroke="#000000" stroke-width="0.5" stroke-linejoin="round" stroke-miterlimit="10" x1="267.676" y1="117.796" x2="267.676" y2="120.51"/>
	
		<line fill="none" stroke="#000000" stroke-width="0.5" stroke-linejoin="round" stroke-miterlimit="10" x1="257.194" y1="117.796" x2="257.194" y2="120.51"/>
	
		<line fill="none" stroke="#000000" stroke-width="0.5" stroke-linejoin="round" stroke-miterlimit="10" x1="246.711" y1="117.796" x2="246.711" y2="120.51"/>
	
		<line fill="none" stroke="#000000" stroke-width="0.5" stroke-linejoin="round" stroke-miterlimit="10" x1="236.042" y1="117.796" x2="236.042" y2="120.51"/>
	
		<line fill="none" stroke="#000000" stroke-width="0.5" stroke-linejoin="round" stroke-miterlimit="10" x1="225.56" y1="117.796" x2="225.56" y2="120.51"/>
	
		<line fill="none" stroke="#000000" stroke-width="0.5" stroke-linejoin="round" stroke-miterlimit="10" x1="214.89" y1="117.796" x2="214.89" y2="120.51"/>
	
		<line fill="none" stroke="#000000" stroke-width="0.5" stroke-linejoin="round" stroke-miterlimit="10" x1="204.22" y1="117.796" x2="204.22" y2="120.51"/>
	
		<line fill="none" stroke="#000000" stroke-width="0.5" stroke-linejoin="round" stroke-miterlimit="10" x1="193.737" y1="117.796" x2="193.737" y2="120.51"/>
	
		<line fill="none" stroke="#000000" stroke-width="0.5" stroke-linejoin="round" stroke-miterlimit="10" x1="183.255" y1="117.796" x2="183.255" y2="120.51"/>
	
		<line fill="none" stroke="#000000" stroke-width="0.5" stroke-linejoin="round" stroke-miterlimit="10" x1="172.586" y1="117.796" x2="172.586" y2="120.51"/>
	
		<line fill="none" stroke="#000000" stroke-width="0.5" stroke-linejoin="round" stroke-miterlimit="10" x1="162.104" y1="117.796" x2="162.104" y2="120.51"/>
	
		<line fill="none" stroke="#000000" stroke-width="0.5" stroke-linejoin="round" stroke-miterlimit="10" x1="151.434" y1="117.796" x2="151.434" y2="120.51"/>
	
		<line fill="none" stroke="#000000" stroke-width="0.5" stroke-linejoin="round" stroke-miterlimit="10" x1="140.765" y1="117.796" x2="140.765" y2="120.51"/>
	
		<line fill="none" stroke="#000000" stroke-width="0.5" stroke-linejoin="round" stroke-miterlimit="10" x1="130.47" y1="117.796" x2="130.47" y2="120.51"/>
	
		<line fill="none" stroke="#000000" stroke-width="0.5" stroke-linejoin="round" stroke-miterlimit="10" x1="119.8" y1="117.796" x2="119.8" y2="120.51"/>
	
		<line fill="none" stroke="#000000" stroke-width="0.5" stroke-linejoin="round" stroke-miterlimit="10" x1="109.13" y1="117.796" x2="109.13" y2="120.51"/>
	
		<line fill="none" stroke="#000000" stroke-width="0.5" stroke-linejoin="round" stroke-miterlimit="10" x1="98.648" y1="117.796" x2="98.648" y2="120.51"/>
	
		<line fill="none" stroke="#000000" stroke-width="0.5" stroke-linejoin="round" stroke-miterlimit="10" x1="87.979" y1="117.796" x2="87.979" y2="120.51"/>
	
		<line fill="none" stroke="#000000" stroke-width="0.5" stroke-linejoin="round" stroke-miterlimit="10" x1="77.309" y1="117.796" x2="77.309" y2="120.51"/>
	
		<line fill="none" stroke="#000000" stroke-width="0.5" stroke-linejoin="round" stroke-miterlimit="10" x1="67.014" y1="117.796" x2="67.014" y2="120.51"/>
	
		<line fill="none" stroke="#000000" stroke-width="0.5" stroke-linejoin="round" stroke-miterlimit="10" x1="56.344" y1="117.796" x2="56.344" y2="120.51"/>
	
		<line fill="none" stroke="#000000" stroke-width="0.5" stroke-linejoin="round" stroke-miterlimit="10" x1="45.675" y1="117.796" x2="45.675" y2="120.51"/>
	
		<line fill="none" stroke="#000000" stroke-width="0.5" stroke-linejoin="round" stroke-miterlimit="10" x1="35.192" y1="117.796" x2="35.192" y2="120.51"/>
	<g>
		<polyline fill="none" stroke="#7A9AA8" stroke-width="2.5" stroke-linejoin="round" stroke-miterlimit="10" points="    35.286,81.002 36.222,81.002 37.72,83.038 39.03,82.812 40.153,81.907 41.463,82.133 42.96,81.907 44.084,81.229 45.581,81.454     46.892,81.229 48.202,82.812 49.325,81.229 50.822,83.265 51.946,81.002 53.63,81.002 54.753,81.681 56.063,82.358 57.374,81.229     58.684,79.418 59.995,77.835 61.492,77.383 62.615,76.931 64.113,76.931 65.236,76.704 66.92,76.024 68.23,75.12 69.354,71.501     70.664,71.501 71.787,72.181 73.098,72.405 74.595,71.048 75.718,70.369 77.215,68.786 78.526,69.465 79.836,70.144     81.146,71.274 82.457,67.881 83.767,67.653 85.077,66.071 86.388,68.106 87.885,68.786 89.008,69.013 90.693,68.106     91.816,64.262 93.126,65.619 95.747,63.13 96.87,63.809 98.555,64.035 99.865,65.845 101.175,62.226 102.298,62.226     103.608,60.642 104.919,58.153 106.417,57.249 107.727,59.059 108.85,57.701 110.16,59.963 111.658,62.904 112.781,59.963     114.278,60.868 115.588,64.035 116.898,61.095 118.209,59.963 119.894,61.095 121.017,57.249 122.14,56.344 123.45,56.796     124.948,60.189 126.071,63.356 127.755,62.226 128.878,61.095 130.376,60.189 131.499,61.32 132.81,57.701 134.12,58.605     135.243,58.153 136.553,54.534 138.051,55.213 139.174,56.117 140.671,59.059 141.794,57.701 143.479,55.892 144.789,57.701     145.913,61.32 147.223,60.416 148.533,59.963 149.843,62.451 151.528,63.13 152.651,60.416 153.961,62.451 155.084,62.904     156.582,64.487 157.892,63.13 159.203,64.714 160.513,64.714 162.01,62.226 163.133,61.772 164.817,66.071 166.128,62.678     167.251,62.451 168.375,61.999 169.685,59.284 170.995,58.605 172.306,59.737 173.616,61.32 175.112,61.772 176.235,62.678     177.546,61.547 178.856,60.868 180.354,60.642 181.478,60.868 183.162,59.511 184.286,59.511 185.595,60.868 186.718,62.451     188.403,67.881 189.713,67.429 190.836,68.333 192.147,70.822 193.644,68.106 194.767,70.369 196.453,70.369 197.576,68.106     198.885,68.333 200.008,69.237 201.319,68.786 202.629,67.202 203.94,64.262 205.25,63.583 206.748,64.487 207.871,65.845     209.368,66.298 210.491,64.94 212.175,68.106 213.299,68.333 214.608,72.632 215.919,71.274 217.229,72.405 218.541,70.369     220.038,73.536 221.349,75.12 222.658,72.858 223.781,73.763 225.466,74.44 226.401,76.251 227.899,78.062 229.209,78.287     230.521,74.44 231.644,71.728 233.14,68.786 234.451,69.013 235.948,71.048 237.071,68.786 238.381,67.653 239.692,68.333     241.002,67.881 242.312,65.393 243.81,64.714 244.933,64.262 246.431,64.94 247.741,66.298 249.239,65.619 250.362,66.523     251.671,67.202 252.981,64.714 254.292,64.487 255.603,61.772 257.288,61.999 258.411,61.772 259.72,59.511 261.031,56.57     262.153,56.57 263.464,58.605 264.961,59.059 266.272,60.189 267.396,64.262 268.706,66.298 270.203,65.845 271.326,65.393     273.011,64.94 274.134,65.845 275.444,68.333 276.754,69.013 278.065,68.333 279.375,68.106 280.873,67.429 281.996,67.429     283.494,64.94 284.617,66.75 286.114,64.035 287.237,64.94 288.733,64.262 290.044,60.868 291.354,61.547 292.666,63.13     293.789,63.809 295.099,61.772 296.597,65.166 297.907,62.451 299.216,66.978 300.339,66.978 301.837,67.429 303.148,66.298     304.458,68.333 305.768,66.298 307.079,66.978 308.389,66.298 310.074,65.619 311.197,64.714 312.506,63.13 313.629,67.202     314.378,72.181   "/>
	</g>
	<g>
		<polyline fill="none" stroke="#F47920" stroke-width="2.5" stroke-linejoin="round" stroke-miterlimit="10" points="    35.286,80.985 36.222,80.76 37.72,82.343 39.03,82.117 40.153,81.438 41.463,80.308 42.96,79.401 44.084,78.271 45.581,78.724     46.892,80.76 48.202,83.021 49.325,81.438 50.822,84.379 51.946,82.117 53.63,81.212 54.753,82.569 56.063,82.569 57.374,81.212     58.684,80.533 59.995,79.401 61.492,79.176 62.615,78.724 64.113,78.497 65.236,77.593 66.92,76.461 68.23,75.558 69.354,75.33     70.664,74.651 71.787,75.33 73.098,76.009 74.595,74.425 75.718,74.878 77.215,73.521 78.526,74.425 79.836,75.104 81.146,76.688     82.457,74.199 83.767,74.878 85.077,75.782 86.388,78.497 87.885,78.497 89.008,78.497 90.693,81.892 91.816,78.724     93.126,78.045 95.747,77.366 96.87,78.271 98.555,76.235 99.865,75.782 101.175,74.651 102.298,73.974 103.608,73.067     104.919,72.163 106.417,71.711 107.727,73.294 108.85,71.937 110.16,74.425 111.658,76.235 112.781,73.974 114.278,73.294     115.588,73.747 116.898,73.067 118.209,71.937 119.894,72.163 121.017,70.127 122.14,70.806 123.45,70.806 124.948,71.258     126.071,73.747 127.755,71.937 128.878,71.258 130.376,70.127 131.499,69.899 132.81,68.543 134.12,68.317 135.243,68.317     136.553,66.96 138.051,66.96 139.174,67.187 140.671,66.281 141.794,63.793 143.479,64.472 144.789,64.472 145.913,65.15     147.223,63.114 148.533,62.209 149.843,63.793 151.528,64.472 152.651,62.662 153.961,62.662 155.084,62.436 156.582,60.399     157.892,59.269 159.203,59.269 160.513,59.721 162.01,58.138 163.133,57.685 164.817,61.078 166.128,57.911 167.251,57.685     168.375,57.232 169.685,56.554 170.995,57.911 172.306,56.554 173.616,57.006 175.112,55.196 176.235,54.744 177.546,53.612     178.856,53.612 180.354,55.196 181.478,54.291 183.162,52.708 184.286,53.16 185.595,54.518 186.718,57.232 188.403,52.256     189.713,51.351 190.836,50.898 192.147,53.16 193.644,50.898 194.767,52.934 196.453,52.029 197.576,49.541 198.885,48.862     200.008,49.993 201.319,50.898 202.629,49.314 203.94,49.314 205.25,48.862 206.748,49.088 207.871,49.993 209.368,50.22     210.491,49.314 212.175,49.541 213.299,49.314 214.608,55.648 215.919,53.387 217.229,55.196 218.541,52.029 220.038,49.314     221.349,51.124 222.658,49.314 223.781,51.351 225.466,52.256 226.401,56.554 227.899,54.744 229.209,56.102 230.521,53.387     231.644,52.256 233.14,50.445 234.451,50.22 235.948,49.993 237.071,50.672 238.381,49.541 239.692,50.445 241.002,49.314     242.312,47.505 243.81,47.278 244.933,46.6 246.431,47.278 247.741,47.957 249.239,47.505 250.362,48.636 251.671,49.088     252.981,46.826 254.292,46.6 255.603,44.338 257.288,44.338 258.411,44.111 259.72,43.659 261.031,41.396 262.153,39.813     263.464,40.266 264.961,41.171 266.272,41.396 267.396,40.039 268.706,39.587 270.203,38.682 271.326,38.682 273.011,38.908     274.134,37.777 275.444,37.324 276.754,37.551 278.065,37.324 279.375,36.42 280.873,35.515 281.996,34.61 283.494,33.932     284.617,34.384 286.114,31.896 287.237,30.764 288.733,30.086 290.044,27.597 291.354,26.014 292.666,28.954 293.789,30.764     295.099,28.502 296.597,33.932 297.907,30.764 299.216,31.442 300.339,29.633 301.837,28.954 303.148,27.371 304.458,29.181     305.768,26.919 307.079,26.239 308.389,26.239 310.074,23.525 311.197,23.978 312.506,22.62 313.629,28.275 314.378,31.442   "/>
	</g>
	<g>
		<g>
			<path d="M269.09,74.13h0.903v5.178h-0.903V74.13z"/>
			<path d="M271.099,74.13h2.506c0.463,0,0.834,0.105,1.112,0.319c0.279,0.213,0.419,0.534,0.419,0.964     c0,0.262-0.062,0.484-0.191,0.671c-0.127,0.187-0.31,0.33-0.545,0.433v0.015c0.317,0.067,0.56,0.219,0.723,0.452     c0.164,0.234,0.246,0.527,0.246,0.882c0,0.202-0.036,0.393-0.108,0.567c-0.071,0.178-0.187,0.329-0.34,0.457     c-0.153,0.129-0.353,0.229-0.592,0.305c-0.241,0.076-0.527,0.113-0.86,0.113h-2.369V74.13L271.099,74.13z M272.001,76.298h1.475     c0.217,0,0.396-0.062,0.541-0.186c0.145-0.122,0.217-0.301,0.217-0.532c0-0.261-0.064-0.444-0.194-0.552     c-0.13-0.106-0.317-0.158-0.563-0.158h-1.474L272.001,76.298L272.001,76.298z M272.001,78.567h1.596     c0.275,0,0.488-0.071,0.641-0.215c0.152-0.143,0.228-0.345,0.228-0.604c0-0.256-0.075-0.453-0.228-0.591     c-0.152-0.139-0.364-0.207-0.641-0.207h-1.596V78.567z"/>
			<path d="M276.168,74.13h1.271l1.424,4.053h0.015l1.388-4.053h1.256v5.178h-0.858v-3.996h-0.015l-1.431,3.996h-0.743l-1.432-3.996     h-0.014v3.996h-0.86V74.13z"/>
		</g>
	</g>
	
		<polyline fill="none" stroke="#000000" stroke-width="0.5" stroke-linecap="square" stroke-linejoin="round" stroke-miterlimit="10" points="   314.421,117.603 35.192,117.603 35.192,6.946  "/>
	<g>
		<g>
			<path d="M27.898,115.312c0.213,0.149,0.379,0.342,0.498,0.576c0.119,0.233,0.2,0.495,0.242,0.782     c0.042,0.288,0.064,0.569,0.064,0.845c0,0.278-0.021,0.562-0.064,0.851c-0.042,0.288-0.124,0.55-0.242,0.782     c-0.119,0.234-0.285,0.427-0.498,0.574c-0.213,0.148-0.492,0.223-0.837,0.223c-0.341,0-0.619-0.073-0.834-0.223     c-0.215-0.148-0.382-0.34-0.501-0.574c-0.119-0.232-0.2-0.494-0.242-0.782c-0.042-0.287-0.064-0.569-0.064-0.845     c0-0.277,0.021-0.562,0.064-0.851c0.042-0.287,0.124-0.549,0.242-0.782c0.119-0.234,0.286-0.427,0.501-0.576     c0.215-0.151,0.493-0.228,0.834-0.228C27.406,115.084,27.686,115.159,27.898,115.312z M26.416,115.651     c-0.162,0.14-0.284,0.312-0.367,0.52s-0.138,0.432-0.165,0.676c-0.027,0.242-0.041,0.465-0.041,0.668     c0,0.207,0.014,0.432,0.041,0.672c0.027,0.24,0.082,0.465,0.165,0.674c0.083,0.211,0.205,0.385,0.367,0.523     c0.161,0.141,0.376,0.209,0.646,0.209s0.484-0.068,0.646-0.209c0.162-0.14,0.284-0.312,0.367-0.523     c0.083-0.209,0.138-0.434,0.165-0.674c0.027-0.24,0.041-0.465,0.041-0.672c0-0.203-0.013-0.426-0.041-0.668     c-0.027-0.244-0.082-0.469-0.165-0.676s-0.205-0.38-0.367-0.52c-0.161-0.141-0.376-0.211-0.646-0.211     S26.577,115.513,26.416,115.651z"/>
		</g>
	</g>
	<g>
		<g>
			<path d="M38.438,128.803c0.004-0.233,0.045-0.44,0.121-0.62c0.076-0.181,0.177-0.343,0.303-0.486     c0.125-0.145,0.267-0.275,0.423-0.396c0.157-0.118,0.318-0.233,0.484-0.344s0.331-0.224,0.494-0.338     c0.164-0.115,0.311-0.237,0.441-0.368c0.13-0.13,0.227-0.264,0.292-0.4c0.065-0.139,0.097-0.302,0.097-0.49     c0-0.152-0.028-0.288-0.084-0.407c-0.056-0.119-0.132-0.222-0.229-0.304c-0.097-0.084-0.208-0.146-0.336-0.189     c-0.127-0.043-0.263-0.064-0.407-0.064c-0.193,0-0.357,0.037-0.494,0.108c-0.137,0.072-0.248,0.169-0.333,0.29     c-0.085,0.122-0.147,0.262-0.185,0.419s-0.055,0.324-0.05,0.499h-0.424c-0.004-0.243,0.023-0.467,0.084-0.671     c0.061-0.205,0.154-0.382,0.279-0.53c0.125-0.147,0.283-0.265,0.474-0.348c0.19-0.083,0.414-0.125,0.669-0.125     c0.207,0,0.398,0.027,0.575,0.085c0.177,0.056,0.332,0.14,0.464,0.249c0.132,0.109,0.235,0.249,0.31,0.415     c0.074,0.167,0.111,0.36,0.111,0.581c0,0.197-0.033,0.378-0.098,0.54c-0.065,0.161-0.152,0.311-0.262,0.444     c-0.11,0.135-0.235,0.261-0.376,0.375c-0.141,0.114-0.291,0.223-0.447,0.32c-0.112,0.076-0.245,0.161-0.397,0.253     c-0.152,0.093-0.299,0.194-0.44,0.308s-0.266,0.234-0.373,0.367c-0.108,0.133-0.175,0.278-0.202,0.437h2.616v0.392     L38.438,128.803L38.438,128.803z"/>
			<path d="M44.642,124.265c0.213,0.149,0.379,0.342,0.498,0.576c0.119,0.233,0.2,0.495,0.242,0.782     c0.042,0.288,0.064,0.569,0.064,0.844c0,0.279-0.021,0.563-0.064,0.851c-0.042,0.289-0.124,0.551-0.242,0.783     c-0.119,0.234-0.285,0.426-0.498,0.574s-0.492,0.223-0.837,0.223c-0.341,0-0.619-0.073-0.834-0.223     c-0.215-0.148-0.382-0.34-0.501-0.574c-0.119-0.232-0.2-0.494-0.242-0.783c-0.042-0.286-0.064-0.568-0.064-0.844     c0-0.277,0.021-0.562,0.064-0.851c0.042-0.287,0.124-0.549,0.242-0.782c0.119-0.234,0.286-0.427,0.501-0.576     c0.215-0.152,0.493-0.228,0.834-0.228C44.15,124.037,44.429,124.112,44.642,124.265z M43.159,124.604     c-0.162,0.14-0.284,0.312-0.367,0.52s-0.138,0.432-0.165,0.675s-0.041,0.466-0.041,0.668c0,0.207,0.014,0.433,0.041,0.673     s0.082,0.465,0.165,0.674c0.083,0.211,0.205,0.385,0.367,0.523c0.161,0.141,0.376,0.209,0.646,0.209s0.484-0.068,0.646-0.209     c0.162-0.14,0.284-0.312,0.367-0.523c0.083-0.209,0.138-0.434,0.165-0.674s0.041-0.466,0.041-0.673     c0-0.202-0.013-0.425-0.041-0.668c-0.027-0.243-0.082-0.468-0.165-0.675s-0.205-0.38-0.367-0.52     c-0.161-0.141-0.376-0.211-0.646-0.211S43.32,124.465,43.159,124.604z"/>
			<path d="M46.828,124.959c0.15-0.017,0.28-0.053,0.39-0.11c0.11-0.059,0.202-0.147,0.276-0.268     c0.074-0.119,0.126-0.287,0.158-0.503h0.343v4.725h-0.424v-3.51h-1.244v-0.304C46.51,124.983,46.677,124.976,46.828,124.959z"/>
			<path d="M52.121,124.265c0.213,0.149,0.379,0.342,0.498,0.576c0.119,0.233,0.2,0.495,0.242,0.782     c0.042,0.288,0.064,0.569,0.064,0.844c0,0.279-0.021,0.563-0.064,0.851c-0.042,0.289-0.124,0.551-0.242,0.783     c-0.119,0.234-0.285,0.426-0.498,0.574s-0.492,0.223-0.837,0.223c-0.341,0-0.619-0.073-0.834-0.223     c-0.215-0.148-0.382-0.34-0.501-0.574c-0.119-0.232-0.2-0.494-0.242-0.783c-0.042-0.286-0.064-0.568-0.064-0.844     c0-0.277,0.021-0.562,0.064-0.851c0.042-0.287,0.124-0.549,0.242-0.782c0.119-0.234,0.286-0.427,0.501-0.576     c0.215-0.152,0.493-0.228,0.834-0.228C51.628,124.037,51.908,124.112,52.121,124.265z M50.638,124.604     c-0.162,0.14-0.284,0.312-0.367,0.52s-0.138,0.432-0.165,0.675s-0.041,0.466-0.041,0.668c0,0.207,0.014,0.433,0.041,0.673     s0.082,0.465,0.165,0.674c0.083,0.211,0.205,0.385,0.367,0.523c0.161,0.141,0.376,0.209,0.646,0.209s0.484-0.068,0.646-0.209     c0.162-0.14,0.284-0.312,0.367-0.523c0.083-0.209,0.138-0.434,0.165-0.674s0.041-0.466,0.041-0.673     c0-0.202-0.013-0.425-0.041-0.668c-0.027-0.243-0.082-0.468-0.165-0.675s-0.205-0.38-0.367-0.52     c-0.161-0.141-0.376-0.211-0.646-0.211S50.799,124.465,50.638,124.604z"/>
		</g>
	</g>
	<g>
		<g>
			<path d="M101.847,128.803c0.004-0.233,0.045-0.44,0.121-0.62c0.076-0.181,0.177-0.343,0.303-0.486     c0.125-0.145,0.267-0.275,0.423-0.396c0.157-0.118,0.318-0.233,0.484-0.344s0.331-0.224,0.494-0.338     c0.164-0.115,0.311-0.237,0.441-0.368c0.13-0.13,0.227-0.264,0.292-0.4c0.065-0.139,0.097-0.302,0.097-0.49     c0-0.152-0.028-0.288-0.084-0.407s-0.132-0.222-0.229-0.304c-0.097-0.084-0.208-0.146-0.336-0.189     c-0.127-0.043-0.263-0.064-0.407-0.064c-0.193,0-0.357,0.037-0.494,0.108c-0.137,0.072-0.248,0.169-0.333,0.29     c-0.085,0.122-0.147,0.262-0.185,0.419s-0.055,0.324-0.05,0.499h-0.424c-0.004-0.243,0.023-0.467,0.084-0.671     c0.061-0.205,0.154-0.382,0.279-0.53c0.125-0.147,0.283-0.265,0.474-0.348c0.19-0.083,0.414-0.125,0.669-0.125     c0.207,0,0.398,0.027,0.575,0.085c0.177,0.056,0.332,0.14,0.464,0.249c0.132,0.109,0.235,0.249,0.31,0.415     c0.074,0.167,0.111,0.36,0.111,0.581c0,0.197-0.033,0.378-0.098,0.54c-0.065,0.161-0.152,0.311-0.262,0.444     c-0.11,0.135-0.235,0.261-0.376,0.375s-0.291,0.223-0.447,0.32c-0.112,0.076-0.245,0.161-0.397,0.253     c-0.152,0.093-0.299,0.194-0.44,0.308c-0.141,0.113-0.266,0.234-0.373,0.367c-0.108,0.133-0.175,0.278-0.202,0.437h2.616v0.392     L101.847,128.803L101.847,128.803z"/>
			<path d="M108.051,124.265c0.213,0.149,0.379,0.342,0.498,0.576c0.119,0.233,0.2,0.495,0.242,0.782     c0.042,0.288,0.064,0.569,0.064,0.844c0,0.279-0.021,0.563-0.064,0.851c-0.042,0.289-0.124,0.551-0.242,0.783     c-0.119,0.234-0.285,0.426-0.498,0.574c-0.213,0.148-0.492,0.223-0.837,0.223c-0.341,0-0.619-0.073-0.834-0.223     c-0.215-0.148-0.382-0.34-0.501-0.574c-0.119-0.232-0.2-0.494-0.242-0.783c-0.042-0.286-0.064-0.568-0.064-0.844     c0-0.277,0.021-0.562,0.064-0.851c0.042-0.287,0.124-0.549,0.242-0.782c0.119-0.234,0.286-0.427,0.501-0.576     c0.215-0.152,0.493-0.228,0.834-0.228C107.559,124.037,107.838,124.112,108.051,124.265z M106.568,124.604     c-0.162,0.14-0.284,0.312-0.367,0.52s-0.138,0.432-0.165,0.675c-0.027,0.243-0.041,0.466-0.041,0.668     c0,0.207,0.014,0.433,0.041,0.673c0.027,0.24,0.082,0.465,0.165,0.674c0.083,0.211,0.205,0.385,0.367,0.523     c0.161,0.141,0.376,0.209,0.646,0.209s0.484-0.068,0.646-0.209c0.162-0.14,0.284-0.312,0.367-0.523     c0.083-0.209,0.138-0.434,0.165-0.674s0.041-0.466,0.041-0.673c0-0.202-0.013-0.425-0.041-0.668     c-0.027-0.243-0.082-0.468-0.165-0.675s-0.205-0.38-0.367-0.52c-0.161-0.141-0.376-0.211-0.646-0.211     S106.729,124.465,106.568,124.604z"/>
			<path d="M110.237,124.959c0.15-0.017,0.28-0.053,0.39-0.11c0.11-0.059,0.202-0.147,0.276-0.268     c0.074-0.119,0.126-0.287,0.158-0.503h0.343v4.725h-0.424v-3.51h-1.244v-0.304C109.919,124.983,110.086,124.976,110.237,124.959z     "/>
			<path d="M113.065,128.803c0.004-0.233,0.045-0.44,0.121-0.62c0.076-0.181,0.177-0.343,0.303-0.486     c0.125-0.145,0.267-0.275,0.423-0.396c0.157-0.118,0.318-0.233,0.484-0.344s0.331-0.224,0.494-0.338     c0.164-0.115,0.311-0.237,0.441-0.368c0.13-0.13,0.227-0.264,0.292-0.4c0.065-0.139,0.097-0.302,0.097-0.49     c0-0.152-0.028-0.288-0.084-0.407c-0.056-0.119-0.132-0.222-0.229-0.304c-0.097-0.084-0.208-0.146-0.336-0.189     c-0.127-0.043-0.263-0.064-0.407-0.064c-0.193,0-0.357,0.037-0.494,0.108c-0.137,0.072-0.248,0.169-0.333,0.29     c-0.085,0.122-0.147,0.262-0.185,0.419c-0.038,0.157-0.055,0.324-0.05,0.499h-0.424c-0.004-0.243,0.023-0.467,0.084-0.671     c0.061-0.205,0.154-0.382,0.279-0.53c0.125-0.147,0.283-0.265,0.474-0.348c0.19-0.083,0.414-0.125,0.669-0.125     c0.207,0,0.398,0.027,0.575,0.085c0.177,0.056,0.332,0.14,0.464,0.249c0.132,0.109,0.235,0.249,0.31,0.415     c0.074,0.167,0.111,0.36,0.111,0.581c0,0.197-0.033,0.378-0.098,0.54c-0.065,0.161-0.152,0.311-0.262,0.444     c-0.11,0.135-0.235,0.261-0.376,0.375c-0.141,0.114-0.291,0.223-0.447,0.32c-0.112,0.076-0.245,0.161-0.397,0.253     c-0.152,0.093-0.299,0.194-0.44,0.308s-0.266,0.234-0.373,0.367c-0.108,0.133-0.175,0.278-0.202,0.437h2.616v0.392     L113.065,128.803L113.065,128.803z"/>
		</g>
	</g>
	<g>
		<g>
			<path d="M165.256,128.803c0.004-0.233,0.045-0.44,0.121-0.62c0.076-0.181,0.177-0.343,0.304-0.486     c0.125-0.145,0.266-0.275,0.422-0.396c0.157-0.118,0.318-0.233,0.484-0.344s0.331-0.224,0.494-0.338     c0.164-0.115,0.311-0.237,0.441-0.368c0.129-0.13,0.227-0.264,0.291-0.4c0.065-0.139,0.098-0.302,0.098-0.49     c0-0.152-0.028-0.288-0.084-0.407c-0.057-0.119-0.133-0.222-0.229-0.304c-0.098-0.084-0.209-0.146-0.336-0.189     c-0.128-0.043-0.264-0.064-0.408-0.064c-0.192,0-0.356,0.037-0.494,0.108c-0.137,0.072-0.248,0.169-0.332,0.29     c-0.086,0.122-0.147,0.262-0.186,0.419c-0.037,0.157-0.055,0.324-0.05,0.499h-0.424c-0.004-0.243,0.022-0.467,0.084-0.671     c0.062-0.205,0.153-0.382,0.278-0.53c0.125-0.147,0.283-0.265,0.475-0.348c0.189-0.083,0.414-0.125,0.669-0.125     c0.207,0,0.397,0.027,0.575,0.085c0.177,0.056,0.332,0.14,0.464,0.249s0.235,0.249,0.31,0.415     c0.074,0.167,0.111,0.36,0.111,0.581c0,0.197-0.033,0.378-0.098,0.54c-0.065,0.161-0.152,0.311-0.262,0.444     c-0.11,0.135-0.235,0.261-0.377,0.375c-0.141,0.114-0.291,0.223-0.447,0.32c-0.111,0.076-0.244,0.161-0.396,0.253     c-0.152,0.093-0.299,0.194-0.439,0.308c-0.142,0.113-0.267,0.234-0.373,0.367c-0.108,0.133-0.176,0.278-0.202,0.437h2.616v0.392     L165.256,128.803L165.256,128.803z"/>
			<path d="M171.46,124.265c0.213,0.149,0.379,0.342,0.498,0.576c0.119,0.233,0.2,0.495,0.242,0.782     c0.042,0.288,0.064,0.569,0.064,0.844c0,0.279-0.021,0.563-0.064,0.851c-0.042,0.289-0.124,0.551-0.242,0.783     c-0.119,0.234-0.285,0.426-0.498,0.574s-0.492,0.223-0.837,0.223c-0.341,0-0.619-0.073-0.834-0.223     c-0.215-0.148-0.382-0.34-0.501-0.574c-0.119-0.232-0.2-0.494-0.242-0.783c-0.042-0.286-0.064-0.568-0.064-0.844     c0-0.277,0.021-0.562,0.064-0.851c0.042-0.287,0.124-0.549,0.242-0.782c0.119-0.234,0.286-0.427,0.501-0.576     c0.215-0.152,0.493-0.228,0.834-0.228C170.968,124.037,171.247,124.112,171.46,124.265z M169.978,124.604     c-0.162,0.14-0.285,0.312-0.367,0.52c-0.084,0.208-0.139,0.432-0.166,0.675c-0.026,0.243-0.041,0.466-0.041,0.668     c0,0.207,0.015,0.433,0.041,0.673c0.027,0.24,0.082,0.465,0.166,0.674c0.082,0.211,0.205,0.385,0.367,0.523     c0.16,0.141,0.375,0.209,0.646,0.209s0.483-0.068,0.646-0.209c0.162-0.14,0.285-0.312,0.367-0.523     c0.083-0.209,0.139-0.434,0.165-0.674c0.027-0.24,0.041-0.466,0.041-0.673c0-0.202-0.013-0.425-0.041-0.668     c-0.026-0.243-0.082-0.468-0.165-0.675c-0.082-0.207-0.205-0.38-0.367-0.52c-0.16-0.141-0.375-0.211-0.646-0.211     S170.138,124.465,169.978,124.604z"/>
			<path d="M173.646,124.959c0.15-0.017,0.28-0.053,0.391-0.11c0.109-0.059,0.201-0.147,0.275-0.268     c0.074-0.119,0.127-0.287,0.158-0.503h0.344v4.725h-0.424v-3.51h-1.244v-0.304C173.328,124.983,173.495,124.976,173.646,124.959z     "/>
			<path d="M178.612,124.078h0.383v3.192h0.706v0.356h-0.706v1.175h-0.391v-1.175h-2.172v-0.411L178.612,124.078z M178.604,124.699     h-0.013l-1.776,2.571h1.789V124.699z"/>
		</g>
	</g>
	<g>
		<g>
			<path d="M228.666,128.803c0.004-0.233,0.045-0.44,0.121-0.62c0.075-0.181,0.177-0.343,0.303-0.486     c0.125-0.145,0.267-0.275,0.425-0.396c0.155-0.118,0.317-0.233,0.483-0.344c0.165-0.11,0.33-0.224,0.494-0.338     c0.163-0.115,0.312-0.237,0.44-0.368c0.129-0.13,0.228-0.264,0.291-0.4c0.065-0.139,0.098-0.302,0.098-0.49     c0-0.152-0.027-0.288-0.084-0.407c-0.055-0.119-0.131-0.222-0.229-0.304c-0.097-0.084-0.209-0.146-0.336-0.189     c-0.128-0.043-0.264-0.064-0.406-0.064c-0.192,0-0.357,0.037-0.494,0.108c-0.138,0.072-0.248,0.169-0.334,0.29     c-0.084,0.122-0.146,0.262-0.185,0.419c-0.039,0.157-0.056,0.324-0.051,0.499h-0.425c-0.004-0.243,0.023-0.467,0.084-0.671     c0.062-0.205,0.154-0.382,0.279-0.53s0.283-0.265,0.475-0.348s0.414-0.125,0.67-0.125c0.206,0,0.396,0.027,0.574,0.085     c0.178,0.056,0.332,0.14,0.465,0.249c0.132,0.109,0.234,0.249,0.309,0.415c0.074,0.167,0.111,0.36,0.111,0.581     c0,0.197-0.032,0.378-0.098,0.54c-0.064,0.161-0.152,0.311-0.262,0.444c-0.111,0.136-0.236,0.261-0.378,0.375     s-0.29,0.223-0.446,0.32c-0.112,0.076-0.244,0.161-0.396,0.253c-0.152,0.093-0.3,0.194-0.439,0.308     c-0.143,0.113-0.267,0.234-0.375,0.367c-0.106,0.133-0.175,0.278-0.201,0.437h2.617v0.392L228.666,128.803L228.666,128.803z"/>
			<path d="M234.87,124.265c0.213,0.149,0.379,0.342,0.498,0.576c0.117,0.233,0.199,0.495,0.24,0.782     c0.043,0.288,0.064,0.569,0.064,0.844c0,0.279-0.021,0.563-0.064,0.851c-0.041,0.289-0.123,0.551-0.24,0.783     c-0.119,0.234-0.285,0.426-0.498,0.574s-0.492,0.223-0.837,0.223c-0.341,0-0.619-0.073-0.834-0.223     c-0.216-0.148-0.384-0.34-0.503-0.574c-0.117-0.232-0.198-0.494-0.24-0.783c-0.043-0.286-0.064-0.568-0.064-0.844     c0-0.277,0.021-0.562,0.064-0.851c0.042-0.287,0.123-0.549,0.24-0.782c0.119-0.234,0.287-0.427,0.503-0.576     c0.215-0.152,0.493-0.228,0.834-0.228C234.377,124.037,234.657,124.112,234.87,124.265z M233.386,124.604     c-0.16,0.14-0.283,0.312-0.365,0.52c-0.084,0.208-0.139,0.432-0.166,0.675c-0.025,0.243-0.039,0.466-0.039,0.668     c0,0.207,0.014,0.433,0.039,0.673c0.027,0.24,0.082,0.465,0.166,0.674c0.082,0.211,0.205,0.385,0.365,0.523     c0.162,0.141,0.377,0.209,0.646,0.209c0.269,0,0.482-0.068,0.646-0.209c0.16-0.14,0.282-0.312,0.365-0.523     c0.083-0.209,0.139-0.434,0.165-0.674s0.04-0.466,0.04-0.673c0-0.202-0.014-0.425-0.04-0.668s-0.082-0.468-0.165-0.675     s-0.205-0.38-0.365-0.52c-0.162-0.141-0.378-0.211-0.646-0.211C233.763,124.396,233.548,124.465,233.386,124.604z"/>
			<path d="M237.056,124.959c0.149-0.017,0.279-0.053,0.391-0.11c0.109-0.06,0.201-0.147,0.275-0.268     c0.073-0.12,0.127-0.287,0.157-0.503h0.343v4.725h-0.424v-3.51h-1.244v-0.304C236.737,124.983,236.905,124.976,237.056,124.959z"/>
			<path d="M242.301,124.638c-0.173-0.162-0.396-0.242-0.67-0.242s-0.495,0.069-0.665,0.209c-0.171,0.141-0.303,0.314-0.396,0.526     s-0.156,0.438-0.188,0.685s-0.048,0.478-0.048,0.692h0.014c0.112-0.233,0.281-0.423,0.508-0.567     c0.228-0.144,0.476-0.215,0.744-0.215c0.236,0,0.451,0.039,0.643,0.117c0.189,0.079,0.353,0.188,0.486,0.327     c0.135,0.14,0.239,0.308,0.312,0.5c0.074,0.192,0.111,0.405,0.111,0.636c0,0.229-0.039,0.44-0.118,0.637     c-0.078,0.195-0.188,0.365-0.329,0.507s-0.311,0.252-0.505,0.331c-0.194,0.078-0.409,0.117-0.642,0.117     c-0.287,0-0.535-0.043-0.74-0.131c-0.207-0.089-0.377-0.23-0.512-0.43s-0.234-0.455-0.3-0.771     c-0.063-0.317-0.098-0.709-0.098-1.172c0-0.095,0.006-0.219,0.018-0.371c0.011-0.152,0.037-0.315,0.077-0.489     c0.04-0.173,0.098-0.349,0.171-0.526c0.074-0.178,0.173-0.339,0.298-0.482c0.122-0.145,0.275-0.26,0.459-0.352     c0.185-0.09,0.403-0.135,0.659-0.135c0.423,0,0.757,0.102,1.002,0.304c0.247,0.203,0.396,0.513,0.444,0.933h-0.424     C242.578,125.013,242.474,124.8,242.301,124.638z M241.097,126.181c-0.146,0.065-0.269,0.154-0.369,0.268     c-0.102,0.111-0.178,0.244-0.229,0.395c-0.052,0.151-0.077,0.313-0.077,0.489c0,0.167,0.021,0.324,0.066,0.474     c0.046,0.148,0.115,0.277,0.213,0.387c0.096,0.11,0.218,0.197,0.365,0.262c0.148,0.062,0.326,0.094,0.531,0.094     c0.17,0,0.324-0.031,0.461-0.098s0.256-0.152,0.356-0.264c0.101-0.109,0.178-0.24,0.231-0.389c0.053-0.148,0.08-0.304,0.08-0.466     c0-0.171-0.024-0.333-0.076-0.485c-0.053-0.152-0.127-0.285-0.223-0.397c-0.097-0.112-0.216-0.201-0.355-0.267     c-0.143-0.065-0.303-0.1-0.481-0.1C241.408,126.082,241.243,126.115,241.097,126.181z"/>
		</g>
	</g>
	<g>
		<g>
			<path d="M292.074,128.803c0.004-0.233,0.045-0.44,0.12-0.62c0.076-0.181,0.178-0.343,0.304-0.486     c0.125-0.145,0.267-0.275,0.424-0.396c0.156-0.118,0.318-0.233,0.484-0.344c0.165-0.11,0.329-0.224,0.493-0.338     c0.164-0.115,0.312-0.237,0.44-0.368c0.13-0.13,0.228-0.264,0.292-0.4c0.065-0.139,0.098-0.302,0.098-0.49     c0-0.152-0.027-0.288-0.084-0.407c-0.056-0.119-0.131-0.222-0.229-0.304c-0.098-0.084-0.209-0.146-0.336-0.189     c-0.128-0.043-0.264-0.064-0.407-0.064c-0.192,0-0.356,0.037-0.493,0.108c-0.138,0.072-0.248,0.169-0.334,0.29     c-0.084,0.122-0.146,0.262-0.185,0.419c-0.039,0.157-0.056,0.324-0.052,0.499h-0.424c-0.004-0.243,0.023-0.467,0.084-0.671     c0.062-0.205,0.153-0.382,0.279-0.53c0.125-0.148,0.283-0.265,0.475-0.348c0.19-0.083,0.414-0.125,0.67-0.125     c0.205,0,0.396,0.027,0.574,0.085c0.178,0.056,0.332,0.14,0.465,0.249c0.132,0.109,0.234,0.249,0.309,0.415     c0.074,0.167,0.111,0.36,0.111,0.581c0,0.197-0.032,0.378-0.098,0.54c-0.064,0.161-0.152,0.311-0.263,0.444     c-0.11,0.136-0.235,0.261-0.377,0.375s-0.29,0.223-0.447,0.32c-0.112,0.076-0.243,0.161-0.396,0.253     c-0.152,0.093-0.301,0.194-0.44,0.308c-0.142,0.113-0.266,0.234-0.374,0.367c-0.107,0.133-0.175,0.278-0.201,0.437h2.616v0.392     L292.074,128.803L292.074,128.803z"/>
			<path d="M298.278,124.265c0.213,0.149,0.379,0.342,0.498,0.576c0.117,0.233,0.198,0.495,0.24,0.782     c0.043,0.288,0.064,0.569,0.064,0.844c0,0.279-0.021,0.563-0.064,0.851c-0.042,0.289-0.123,0.551-0.24,0.783     c-0.119,0.234-0.285,0.426-0.498,0.574s-0.492,0.223-0.838,0.223c-0.34,0-0.618-0.073-0.834-0.223     c-0.215-0.148-0.383-0.34-0.502-0.574c-0.117-0.232-0.199-0.494-0.24-0.783c-0.043-0.286-0.064-0.568-0.064-0.844     c0-0.277,0.021-0.562,0.064-0.851c0.041-0.287,0.123-0.549,0.24-0.782c0.119-0.234,0.287-0.427,0.502-0.576     c0.215-0.152,0.494-0.228,0.834-0.228C297.786,124.037,298.065,124.112,298.278,124.265z M296.794,124.604     c-0.161,0.14-0.283,0.312-0.365,0.52c-0.084,0.208-0.139,0.432-0.166,0.675c-0.025,0.243-0.039,0.466-0.039,0.668     c0,0.207,0.014,0.433,0.039,0.673c0.027,0.24,0.082,0.465,0.166,0.674c0.082,0.211,0.204,0.385,0.365,0.523     c0.162,0.141,0.377,0.209,0.646,0.209c0.269,0,0.482-0.068,0.646-0.209c0.161-0.14,0.283-0.312,0.366-0.523     c0.083-0.209,0.138-0.434,0.165-0.674c0.025-0.24,0.04-0.466,0.04-0.673c0-0.202-0.015-0.425-0.04-0.668     c-0.027-0.243-0.082-0.468-0.165-0.675s-0.205-0.38-0.366-0.52c-0.162-0.141-0.377-0.211-0.646-0.211     C297.171,124.396,296.957,124.465,296.794,124.604z"/>
			<path d="M300.463,124.959c0.15-0.017,0.28-0.053,0.391-0.11c0.109-0.06,0.201-0.147,0.275-0.268s0.127-0.287,0.158-0.503h0.343     v4.725h-0.424v-3.51h-1.244v-0.304C300.146,124.983,300.312,124.976,300.463,124.959z"/>
			<path d="M306.143,125.877c-0.135,0.183-0.322,0.31-0.564,0.381v0.015c0.31,0.062,0.548,0.199,0.713,0.408     c0.166,0.209,0.249,0.476,0.249,0.799c0,0.239-0.042,0.447-0.128,0.625c-0.085,0.179-0.201,0.326-0.35,0.441     c-0.147,0.117-0.319,0.205-0.516,0.264c-0.194,0.06-0.404,0.088-0.628,0.088c-0.22,0-0.429-0.028-0.626-0.088     c-0.197-0.059-0.37-0.146-0.518-0.264c-0.148-0.115-0.266-0.264-0.351-0.441c-0.086-0.178-0.128-0.386-0.128-0.625     c0.009-0.311,0.096-0.576,0.262-0.795c0.166-0.222,0.397-0.358,0.693-0.412v-0.015c-0.247-0.075-0.437-0.202-0.568-0.381     c-0.133-0.178-0.197-0.397-0.197-0.658c0-0.202,0.041-0.378,0.124-0.526c0.083-0.147,0.19-0.271,0.325-0.367     c0.136-0.098,0.287-0.169,0.457-0.217c0.172-0.047,0.345-0.07,0.52-0.07s0.347,0.023,0.518,0.07     c0.17,0.048,0.324,0.119,0.461,0.217c0.138,0.097,0.246,0.22,0.329,0.367c0.083,0.148,0.125,0.324,0.125,0.526     C306.345,125.476,306.278,125.694,306.143,125.877z M305.386,128.481c0.146-0.043,0.272-0.107,0.38-0.195     c0.108-0.088,0.193-0.199,0.257-0.334c0.062-0.135,0.094-0.292,0.094-0.473c0-0.172-0.032-0.32-0.098-0.448     c-0.064-0.13-0.152-0.236-0.263-0.324c-0.109-0.088-0.237-0.153-0.384-0.196c-0.146-0.042-0.297-0.062-0.453-0.057     c-0.162-0.005-0.315,0.013-0.461,0.054c-0.146,0.04-0.272,0.104-0.38,0.192c-0.108,0.088-0.194,0.197-0.259,0.326     c-0.065,0.132-0.099,0.281-0.099,0.453c0,0.176,0.031,0.33,0.095,0.465c0.062,0.136,0.147,0.246,0.256,0.335     c0.107,0.088,0.233,0.153,0.38,0.198c0.146,0.045,0.302,0.067,0.468,0.067C305.084,128.546,305.241,128.524,305.386,128.481z      M305.295,126.052c0.121-0.033,0.229-0.086,0.319-0.158c0.091-0.071,0.166-0.164,0.223-0.275     c0.056-0.113,0.084-0.246,0.084-0.398c0-0.136-0.026-0.255-0.078-0.357c-0.051-0.104-0.122-0.188-0.211-0.256     c-0.09-0.067-0.194-0.119-0.315-0.155s-0.254-0.056-0.396-0.056c-0.131,0-0.256,0.02-0.377,0.056s-0.229,0.088-0.323,0.155     c-0.094,0.066-0.169,0.151-0.225,0.256c-0.058,0.104-0.084,0.223-0.084,0.357c0,0.157,0.028,0.293,0.087,0.404     c0.059,0.113,0.135,0.205,0.229,0.277c0.096,0.072,0.202,0.123,0.323,0.154s0.244,0.045,0.37,0.041     C305.049,126.101,305.174,126.086,305.295,126.052z"/>
		</g>
	</g>
	<g>
		<g>
			<path d="M22.214,100.51c0.061,0.136,0.143,0.251,0.246,0.349c0.103,0.097,0.224,0.17,0.363,0.223     c0.139,0.052,0.289,0.077,0.451,0.077c0.184,0,0.347-0.034,0.491-0.104c0.144-0.068,0.267-0.164,0.37-0.283     c0.103-0.119,0.182-0.256,0.235-0.412c0.053-0.154,0.081-0.317,0.081-0.488c0-0.176-0.03-0.337-0.091-0.486     c-0.061-0.148-0.144-0.277-0.249-0.388s-0.232-0.196-0.38-0.261c-0.148-0.063-0.309-0.094-0.484-0.094     c-0.215,0-0.415,0.049-0.599,0.146s-0.334,0.235-0.451,0.415h-0.363l0.458-2.45h2.354v0.392h-2.058l-0.303,1.565l0.013,0.015     c0.117-0.141,0.265-0.248,0.444-0.324c0.179-0.076,0.363-0.114,0.551-0.114c0.242,0,0.46,0.04,0.656,0.121     c0.195,0.081,0.361,0.192,0.498,0.338c0.137,0.144,0.242,0.315,0.316,0.517c0.074,0.2,0.111,0.42,0.111,0.658     c0,0.229-0.043,0.441-0.128,0.639c-0.085,0.194-0.202,0.363-0.35,0.506c-0.148,0.142-0.322,0.252-0.521,0.33     s-0.411,0.119-0.635,0.119c-0.22,0-0.423-0.033-0.609-0.099s-0.347-0.16-0.484-0.284c-0.137-0.123-0.246-0.275-0.326-0.455     c-0.081-0.181-0.124-0.383-0.128-0.607h0.424C22.122,100.226,22.154,100.375,22.214,100.51z"/>
			<path d="M27.897,96.875c0.213,0.149,0.379,0.343,0.498,0.577c0.119,0.232,0.2,0.495,0.242,0.781     c0.042,0.289,0.064,0.569,0.064,0.845c0,0.278-0.021,0.563-0.064,0.851c-0.042,0.288-0.124,0.551-0.242,0.783     c-0.119,0.234-0.285,0.426-0.498,0.574s-0.492,0.223-0.837,0.223c-0.341,0-0.619-0.074-0.834-0.223     c-0.215-0.149-0.382-0.34-0.501-0.574c-0.119-0.232-0.2-0.495-0.242-0.783c-0.042-0.287-0.064-0.568-0.064-0.844     c0-0.277,0.021-0.562,0.064-0.852c0.042-0.286,0.124-0.549,0.242-0.781c0.119-0.234,0.286-0.428,0.501-0.577     c0.215-0.151,0.493-0.228,0.834-0.228C27.405,96.647,27.685,96.724,27.897,96.875z M26.415,97.216     c-0.162,0.141-0.284,0.312-0.367,0.52c-0.083,0.209-0.138,0.433-0.165,0.676c-0.027,0.242-0.041,0.466-0.041,0.668     c0,0.207,0.014,0.432,0.041,0.672c0.027,0.241,0.082,0.466,0.165,0.675c0.083,0.21,0.205,0.384,0.367,0.523     c0.161,0.14,0.376,0.209,0.646,0.209s0.484-0.069,0.646-0.209s0.284-0.313,0.367-0.523c0.083-0.209,0.138-0.434,0.165-0.675     c0.027-0.24,0.041-0.465,0.041-0.672c0-0.202-0.013-0.426-0.041-0.668c-0.027-0.243-0.082-0.469-0.165-0.676     s-0.205-0.379-0.367-0.52c-0.161-0.14-0.376-0.21-0.646-0.21S26.576,97.076,26.415,97.216z"/>
		</g>
	</g>
	<g>
		<g>
			<path d="M18.865,79.12c0.15-0.016,0.28-0.053,0.39-0.111c0.11-0.058,0.202-0.146,0.276-0.267     c0.074-0.119,0.126-0.287,0.158-0.503h0.343v4.725h-0.424v-3.51h-1.244v-0.305C18.548,79.146,18.715,79.136,18.865,79.12z"/>
			<path d="M24.158,78.425c0.213,0.15,0.379,0.344,0.498,0.577c0.119,0.233,0.2,0.495,0.242,0.782     c0.042,0.288,0.064,0.568,0.064,0.844c0,0.279-0.021,0.562-0.064,0.852c-0.042,0.287-0.124,0.549-0.242,0.783     c-0.119,0.233-0.285,0.426-0.498,0.573c-0.213,0.147-0.492,0.224-0.837,0.224c-0.341,0-0.619-0.074-0.834-0.224     c-0.215-0.149-0.382-0.34-0.501-0.573c-0.119-0.234-0.2-0.496-0.242-0.783s-0.064-0.569-0.064-0.845     c0-0.278,0.021-0.562,0.064-0.851c0.042-0.287,0.124-0.549,0.242-0.782c0.119-0.233,0.286-0.427,0.501-0.577     c0.215-0.15,0.493-0.227,0.834-0.227C23.666,78.198,23.945,78.272,24.158,78.425z M22.675,78.767     c-0.162,0.14-0.284,0.312-0.367,0.52s-0.138,0.432-0.165,0.675s-0.041,0.466-0.041,0.668c0,0.207,0.014,0.433,0.041,0.672     c0.027,0.241,0.082,0.466,0.165,0.675c0.083,0.211,0.205,0.385,0.367,0.523c0.161,0.141,0.376,0.209,0.646,0.209     s0.484-0.068,0.646-0.209c0.162-0.141,0.284-0.312,0.367-0.523c0.083-0.209,0.138-0.434,0.165-0.675     c0.027-0.239,0.041-0.465,0.041-0.672c0-0.202-0.013-0.425-0.041-0.668c-0.027-0.243-0.082-0.468-0.165-0.675     s-0.205-0.38-0.367-0.52c-0.161-0.141-0.376-0.211-0.646-0.211S22.836,78.626,22.675,78.767z"/>
			<path d="M27.897,78.425c0.213,0.15,0.379,0.344,0.498,0.577s0.2,0.495,0.242,0.782c0.042,0.288,0.064,0.568,0.064,0.844     c0,0.279-0.021,0.562-0.064,0.852c-0.042,0.287-0.124,0.549-0.242,0.783c-0.119,0.233-0.285,0.426-0.498,0.573     s-0.492,0.224-0.837,0.224c-0.341,0-0.619-0.074-0.834-0.224s-0.382-0.34-0.501-0.573c-0.119-0.234-0.2-0.496-0.242-0.783     s-0.064-0.569-0.064-0.845c0-0.278,0.021-0.562,0.064-0.851c0.042-0.287,0.124-0.549,0.242-0.782     c0.119-0.233,0.286-0.427,0.501-0.577s0.493-0.227,0.834-0.227C27.405,78.198,27.685,78.272,27.897,78.425z M26.415,78.767     c-0.162,0.14-0.284,0.312-0.367,0.52s-0.138,0.432-0.165,0.675c-0.027,0.243-0.041,0.466-0.041,0.668     c0,0.207,0.014,0.433,0.041,0.672c0.027,0.241,0.082,0.466,0.165,0.675c0.083,0.211,0.205,0.385,0.367,0.523     c0.161,0.141,0.376,0.209,0.646,0.209s0.484-0.068,0.646-0.209s0.284-0.312,0.367-0.523c0.083-0.209,0.138-0.434,0.165-0.675     c0.027-0.239,0.041-0.465,0.041-0.672c0-0.202-0.013-0.425-0.041-0.668c-0.027-0.243-0.082-0.468-0.165-0.675     s-0.205-0.38-0.367-0.52c-0.161-0.141-0.376-0.211-0.646-0.211S26.576,78.626,26.415,78.767z"/>
		</g>
	</g>
	<g>
		<g>
			<path d="M18.865,60.661c0.15-0.016,0.28-0.053,0.39-0.111c0.11-0.058,0.202-0.147,0.276-0.267     c0.074-0.119,0.126-0.287,0.158-0.503h0.343v4.725h-0.424v-3.51h-1.244v-0.304C18.548,60.687,18.715,60.677,18.865,60.661z"/>
			<path d="M22.214,63.601c0.061,0.135,0.143,0.251,0.246,0.348c0.103,0.097,0.224,0.171,0.363,0.223     c0.139,0.052,0.289,0.077,0.451,0.077c0.184,0,0.347-0.034,0.491-0.104c0.144-0.069,0.267-0.164,0.37-0.283     c0.103-0.119,0.182-0.257,0.235-0.412c0.053-0.155,0.081-0.318,0.081-0.489c0-0.176-0.03-0.337-0.091-0.486     c-0.061-0.148-0.144-0.277-0.249-0.388c-0.105-0.11-0.232-0.196-0.38-0.26s-0.309-0.095-0.484-0.095     c-0.215,0-0.415,0.049-0.599,0.146c-0.184,0.097-0.334,0.235-0.451,0.415h-0.363l0.458-2.45h2.354v0.392h-2.058L22.285,61.8     l0.013,0.014c0.117-0.14,0.265-0.247,0.444-0.324c0.179-0.076,0.363-0.114,0.551-0.114c0.242,0,0.46,0.04,0.656,0.121     c0.195,0.081,0.361,0.193,0.498,0.338c0.137,0.144,0.242,0.316,0.316,0.517c0.074,0.2,0.111,0.419,0.111,0.658     c0,0.229-0.043,0.441-0.128,0.638c-0.085,0.195-0.202,0.364-0.35,0.506c-0.148,0.142-0.322,0.252-0.521,0.331     C23.676,64.56,23.464,64.6,23.24,64.6c-0.22,0-0.423-0.033-0.609-0.098s-0.347-0.16-0.484-0.284     c-0.137-0.123-0.246-0.275-0.326-0.455c-0.081-0.181-0.124-0.383-0.128-0.607h0.424C22.122,63.316,22.154,63.466,22.214,63.601z"/>
			<path d="M27.897,59.966c0.213,0.15,0.379,0.343,0.498,0.577c0.119,0.233,0.2,0.495,0.242,0.782     c0.042,0.288,0.064,0.569,0.064,0.844c0,0.279-0.021,0.563-0.064,0.851c-0.042,0.288-0.124,0.55-0.242,0.783     c-0.119,0.234-0.285,0.426-0.498,0.574S27.405,64.6,27.06,64.6c-0.341,0-0.619-0.074-0.834-0.223s-0.382-0.34-0.501-0.574     c-0.119-0.233-0.2-0.495-0.242-0.783c-0.042-0.287-0.064-0.569-0.064-0.844c0-0.278,0.021-0.562,0.064-0.851     c0.042-0.287,0.124-0.549,0.242-0.782c0.119-0.234,0.286-0.427,0.501-0.577c0.215-0.151,0.493-0.227,0.834-0.227     C27.405,59.739,27.685,59.814,27.897,59.966z M26.415,60.307c-0.162,0.14-0.284,0.312-0.367,0.52s-0.138,0.432-0.165,0.675     c-0.027,0.243-0.041,0.466-0.041,0.668c0,0.207,0.014,0.432,0.041,0.672c0.027,0.241,0.082,0.466,0.165,0.675     c0.083,0.21,0.205,0.384,0.367,0.523c0.161,0.14,0.376,0.209,0.646,0.209s0.484-0.069,0.646-0.209s0.284-0.313,0.367-0.523     c0.083-0.209,0.138-0.434,0.165-0.675c0.027-0.24,0.041-0.465,0.041-0.672c0-0.202-0.013-0.425-0.041-0.668     c-0.027-0.243-0.082-0.468-0.165-0.675s-0.205-0.38-0.367-0.52c-0.161-0.14-0.376-0.21-0.646-0.21S26.576,60.167,26.415,60.307z"/>
		</g>
	</g>
	<g>
		<g>
			<path d="M3.916,100.341h5.355v1.182H3.916V100.341z"/>
			<path d="M5.393,98.397h0.54v-0.021c-0.225-0.136-0.389-0.312-0.491-0.527c-0.103-0.215-0.154-0.437-0.154-0.662     c0-0.285,0.039-0.521,0.116-0.703c0.078-0.184,0.185-0.327,0.322-0.434c0.138-0.105,0.305-0.179,0.503-0.222     c0.197-0.043,0.416-0.063,0.656-0.063H9.27v1.068H7.08c-0.32,0-0.559,0.05-0.716,0.15c-0.157,0.1-0.236,0.277-0.236,0.533     c0,0.291,0.086,0.502,0.259,0.633c0.172,0.131,0.457,0.195,0.851,0.195h2.033v1.069H5.393V98.397z"/>
			<path d="M8.775,92.188c0.21,0.125,0.361,0.289,0.454,0.492c0.092,0.203,0.139,0.434,0.139,0.688c0,0.291-0.057,0.547-0.169,0.769     c-0.112,0.221-0.265,0.402-0.458,0.545c-0.192,0.145-0.414,0.252-0.664,0.324s-0.51,0.108-0.78,0.108     c-0.26,0-0.511-0.036-0.753-0.108c-0.243-0.072-0.457-0.181-0.642-0.324c-0.185-0.143-0.333-0.322-0.446-0.537     c-0.112-0.217-0.168-0.468-0.168-0.754c0-0.229,0.049-0.449,0.146-0.658c0.098-0.207,0.242-0.373,0.432-0.492v-0.016h-1.95     v-1.068h5.355v1.016H8.775V92.188z M6.859,92.233c-0.147,0.029-0.278,0.082-0.39,0.154c-0.112,0.072-0.204,0.166-0.274,0.281     c-0.07,0.115-0.105,0.262-0.105,0.438s0.035,0.324,0.105,0.443c0.07,0.12,0.163,0.217,0.278,0.29     c0.115,0.072,0.246,0.125,0.394,0.158c0.147,0.032,0.301,0.049,0.461,0.049c0.15,0,0.3-0.019,0.45-0.053     c0.15-0.035,0.284-0.093,0.401-0.17c0.118-0.077,0.212-0.175,0.285-0.293c0.072-0.118,0.109-0.261,0.109-0.427     c0-0.176-0.035-0.321-0.105-0.439c-0.07-0.117-0.164-0.212-0.281-0.282c-0.117-0.069-0.251-0.12-0.401-0.149     c-0.15-0.03-0.306-0.045-0.466-0.045C7.161,92.188,7.007,92.203,6.859,92.233z"/>
			<path d="M8.34,89.207c0.155-0.16,0.233-0.392,0.233-0.692c0-0.216-0.054-0.4-0.162-0.557c-0.107-0.156-0.221-0.251-0.341-0.286     v-0.942c0.465,0.15,0.798,0.383,0.998,0.692c0.2,0.312,0.3,0.688,0.3,1.13c0,0.307-0.049,0.582-0.146,0.827     c-0.098,0.246-0.236,0.455-0.416,0.625c-0.18,0.171-0.395,0.304-0.645,0.396c-0.25,0.094-0.525,0.14-0.825,0.14     c-0.29,0-0.56-0.047-0.81-0.144C6.276,90.3,6.06,90.166,5.878,89.99c-0.182-0.177-0.327-0.386-0.432-0.63     c-0.105-0.242-0.157-0.512-0.157-0.809c0-0.332,0.063-0.619,0.191-0.865c0.127-0.246,0.299-0.448,0.514-0.605     c0.215-0.158,0.46-0.271,0.735-0.343s0.562-0.097,0.862-0.075v2.809C7.936,89.455,8.186,89.368,8.34,89.207z M6.3,87.999     c-0.14,0.128-0.21,0.322-0.21,0.583c0,0.171,0.029,0.312,0.086,0.426c0.058,0.112,0.129,0.203,0.214,0.271     c0.085,0.068,0.175,0.117,0.27,0.145c0.095,0.027,0.18,0.044,0.255,0.049v-1.738C6.646,87.782,6.44,87.871,6.3,87.999z"/>
			<path d="M5.393,86.317v-1.221l1.012-0.685l-1.012-0.679v-1.182l1.815,1.279l2.062-1.438v1.219l-1.223,0.812l1.223,0.812v1.197     l-2.04-1.4L5.393,86.317z"/>
			<path d="M8.34,80.845c0.155-0.16,0.233-0.392,0.233-0.691c0-0.217-0.054-0.401-0.162-0.557C8.304,79.438,8.19,79.345,8.07,79.31     v-0.94c0.465,0.149,0.798,0.382,0.998,0.692c0.2,0.312,0.3,0.688,0.3,1.129c0,0.307-0.049,0.582-0.146,0.828     c-0.098,0.246-0.236,0.455-0.416,0.625c-0.18,0.17-0.395,0.303-0.645,0.396s-0.525,0.139-0.825,0.139     c-0.29,0-0.56-0.047-0.81-0.143c-0.25-0.097-0.466-0.229-0.648-0.406C5.696,81.453,5.551,81.243,5.446,81     s-0.157-0.513-0.157-0.81c0-0.332,0.063-0.619,0.191-0.865c0.127-0.246,0.299-0.448,0.514-0.605     c0.215-0.158,0.46-0.271,0.735-0.343s0.562-0.096,0.862-0.075v2.809C7.936,81.093,8.186,81.006,8.34,80.845z M6.3,79.638     c-0.14,0.127-0.21,0.321-0.21,0.582c0,0.172,0.029,0.312,0.086,0.426c0.058,0.112,0.129,0.203,0.214,0.271     s0.175,0.116,0.27,0.145c0.095,0.026,0.18,0.043,0.255,0.049v-1.739C6.646,79.42,6.44,79.509,6.3,79.638z"/>
			<path d="M8.775,74.906c0.21,0.125,0.361,0.29,0.454,0.493c0.092,0.203,0.139,0.433,0.139,0.688c0,0.291-0.057,0.547-0.169,0.768     c-0.112,0.222-0.265,0.403-0.458,0.547c-0.192,0.144-0.414,0.25-0.664,0.324c-0.25,0.071-0.51,0.107-0.78,0.107     c-0.26,0-0.511-0.036-0.753-0.107c-0.243-0.074-0.457-0.182-0.642-0.324c-0.185-0.144-0.333-0.322-0.446-0.539     c-0.112-0.215-0.168-0.467-0.168-0.752c0-0.23,0.049-0.45,0.146-0.658c0.098-0.208,0.242-0.373,0.432-0.493v-0.017h-1.95v-1.067     h5.355v1.017H8.775V74.906z M6.859,74.951c-0.147,0.03-0.278,0.082-0.39,0.153c-0.112,0.073-0.204,0.168-0.274,0.282     c-0.07,0.115-0.105,0.261-0.105,0.438c0,0.176,0.035,0.323,0.105,0.444c0.07,0.119,0.163,0.217,0.278,0.289     c0.115,0.072,0.246,0.125,0.394,0.158c0.147,0.032,0.301,0.049,0.461,0.049c0.15,0,0.3-0.018,0.45-0.053     c0.15-0.035,0.284-0.092,0.401-0.17c0.118-0.077,0.212-0.175,0.285-0.293c0.072-0.118,0.109-0.26,0.109-0.426     c0-0.176-0.035-0.322-0.105-0.44c-0.07-0.116-0.164-0.212-0.281-0.282c-0.117-0.069-0.251-0.119-0.401-0.149     S7.48,74.906,7.32,74.906C7.161,74.906,7.007,74.921,6.859,74.951z"/>
			<path d="M5.393,69.96h0.495v-0.016c-0.21-0.131-0.363-0.295-0.458-0.496c-0.095-0.2-0.143-0.422-0.143-0.662     c0-0.307,0.058-0.569,0.172-0.791c0.115-0.221,0.268-0.403,0.458-0.549c0.19-0.146,0.411-0.254,0.664-0.324     s0.517-0.105,0.792-0.105c0.26,0,0.51,0.035,0.75,0.105c0.24,0.07,0.453,0.177,0.638,0.32c0.185,0.143,0.333,0.32,0.442,0.533     c0.11,0.215,0.165,0.463,0.165,0.75c0,0.24-0.049,0.463-0.146,0.666c-0.097,0.202-0.241,0.369-0.431,0.5v0.016h1.837v1.068H5.393     V69.96z M8.468,68.571c-0.07-0.118-0.161-0.213-0.273-0.286c-0.113-0.072-0.244-0.124-0.394-0.154     c-0.15-0.03-0.302-0.045-0.458-0.045c-0.155,0-0.307,0.017-0.457,0.049c-0.15,0.032-0.284,0.087-0.401,0.162     c-0.118,0.075-0.212,0.172-0.285,0.289c-0.073,0.118-0.11,0.263-0.11,0.435c0,0.176,0.037,0.321,0.109,0.439     c0.073,0.117,0.167,0.213,0.281,0.285c0.115,0.072,0.248,0.125,0.397,0.154c0.15,0.029,0.305,0.045,0.465,0.045     c0.155,0,0.308-0.017,0.458-0.049c0.15-0.033,0.281-0.086,0.394-0.158c0.112-0.072,0.204-0.17,0.273-0.289     c0.07-0.12,0.105-0.266,0.105-0.438C8.573,68.836,8.538,68.688,8.468,68.571z"/>
			<path d="M5.393,65.36h0.72v-0.015c-0.12-0.051-0.231-0.118-0.333-0.203c-0.103-0.086-0.19-0.184-0.263-0.294     c-0.072-0.11-0.128-0.229-0.168-0.354c-0.04-0.126-0.06-0.256-0.06-0.392c0-0.07,0.013-0.148,0.038-0.233h0.99     c-0.01,0.05-0.019,0.11-0.026,0.181c-0.007,0.07-0.011,0.138-0.011,0.203c0,0.195,0.033,0.361,0.098,0.497     s0.154,0.244,0.266,0.327c0.113,0.083,0.244,0.142,0.394,0.177s0.312,0.053,0.487,0.053h1.748v1.069h-3.88V65.36z"/>
			<path d="M4.793,63.419H3.916V62.35h0.877V63.419z M5.393,62.35H9.27v1.069H5.393V62.35z"/>
			<path d="M6.09,59.647c0,0.171,0.039,0.313,0.116,0.429c0.078,0.115,0.178,0.21,0.3,0.282c0.123,0.073,0.257,0.124,0.405,0.154     c0.148,0.03,0.294,0.046,0.439,0.046c0.14,0,0.282-0.016,0.427-0.046c0.145-0.03,0.276-0.079,0.394-0.146     c0.117-0.067,0.214-0.159,0.289-0.274c0.075-0.116,0.113-0.256,0.113-0.422c0-0.256-0.071-0.453-0.214-0.591     c-0.143-0.138-0.334-0.225-0.574-0.26v-1.031c0.515,0.07,0.907,0.271,1.177,0.603c0.27,0.331,0.405,0.755,0.405,1.271     c0,0.291-0.049,0.559-0.146,0.802c-0.097,0.243-0.233,0.45-0.409,0.621c-0.175,0.171-0.384,0.304-0.626,0.399     c-0.242,0.095-0.508,0.143-0.798,0.143c-0.3,0-0.579-0.044-0.836-0.132c-0.257-0.088-0.48-0.217-0.667-0.388     c-0.188-0.17-0.334-0.379-0.439-0.625c-0.105-0.245-0.157-0.526-0.157-0.843c0-0.23,0.03-0.453,0.09-0.666     c0.06-0.213,0.151-0.404,0.274-0.572s0.275-0.305,0.458-0.41c0.183-0.105,0.398-0.166,0.648-0.181v1.047     C6.313,58.928,6.09,59.19,6.09,59.647z"/>
			<path d="M8.34,56.042c0.155-0.16,0.233-0.392,0.233-0.692c0-0.216-0.054-0.401-0.162-0.557c-0.107-0.156-0.221-0.251-0.341-0.286     v-0.941c0.465,0.15,0.798,0.382,0.998,0.692c0.2,0.312,0.3,0.688,0.3,1.13c0,0.306-0.049,0.582-0.146,0.827     c-0.098,0.246-0.236,0.455-0.416,0.625c-0.18,0.171-0.395,0.303-0.645,0.396c-0.25,0.093-0.525,0.139-0.825,0.139     c-0.29,0-0.56-0.047-0.81-0.143s-0.466-0.23-0.648-0.406c-0.182-0.176-0.327-0.386-0.432-0.629     c-0.105-0.243-0.157-0.513-0.157-0.809c0-0.332,0.063-0.62,0.191-0.866c0.127-0.246,0.299-0.448,0.514-0.605     c0.215-0.158,0.46-0.272,0.735-0.343c0.275-0.071,0.562-0.096,0.862-0.075v2.808C7.936,56.29,8.186,56.203,8.34,56.042z      M6.3,54.834c-0.14,0.128-0.21,0.322-0.21,0.583c0,0.171,0.029,0.312,0.086,0.426c0.058,0.112,0.129,0.203,0.214,0.271     c0.085,0.068,0.175,0.116,0.27,0.144c0.095,0.027,0.18,0.044,0.255,0.049v-1.739C6.646,54.617,6.44,54.706,6.3,54.834z"/>
			<path d="M5.393,49.757h0.495v-0.015c-0.21-0.131-0.363-0.296-0.458-0.497c-0.095-0.2-0.143-0.422-0.143-0.662     c0-0.307,0.058-0.569,0.172-0.791c0.115-0.221,0.268-0.403,0.458-0.549s0.411-0.254,0.664-0.324     c0.253-0.07,0.517-0.105,0.792-0.105c0.26,0,0.51,0.035,0.75,0.105c0.24,0.07,0.453,0.177,0.638,0.32     c0.185,0.143,0.333,0.321,0.442,0.534c0.11,0.214,0.165,0.463,0.165,0.749c0,0.241-0.049,0.463-0.146,0.666     c-0.097,0.203-0.241,0.37-0.431,0.501v0.015h1.837v1.069H5.393V49.757z M8.468,48.368c-0.07-0.118-0.161-0.213-0.273-0.286     C8.082,48.01,7.951,47.958,7.8,47.928c-0.15-0.03-0.302-0.045-0.458-0.045c-0.155,0-0.307,0.017-0.457,0.049     c-0.15,0.032-0.284,0.087-0.401,0.162c-0.118,0.075-0.212,0.172-0.285,0.289c-0.072,0.118-0.109,0.263-0.109,0.434     c0,0.176,0.037,0.322,0.109,0.44c0.073,0.117,0.167,0.213,0.281,0.285c0.115,0.073,0.248,0.125,0.397,0.155     c0.15,0.029,0.305,0.045,0.465,0.045c0.155,0,0.308-0.017,0.458-0.049c0.15-0.033,0.281-0.086,0.394-0.158     c0.112-0.073,0.204-0.17,0.273-0.29c0.07-0.12,0.105-0.266,0.105-0.437C8.573,48.633,8.538,48.486,8.468,48.368z"/>
			<path d="M8.34,45.029c0.155-0.16,0.233-0.392,0.233-0.692c0-0.216-0.054-0.401-0.162-0.557c-0.107-0.156-0.221-0.251-0.341-0.286     v-0.941c0.465,0.15,0.798,0.382,0.998,0.692c0.2,0.312,0.3,0.688,0.3,1.13c0,0.306-0.049,0.582-0.146,0.827     c-0.098,0.246-0.236,0.455-0.416,0.625c-0.18,0.171-0.395,0.303-0.645,0.396c-0.25,0.093-0.525,0.139-0.825,0.139     c-0.29,0-0.56-0.047-0.81-0.143c-0.25-0.096-0.466-0.229-0.648-0.406c-0.182-0.176-0.327-0.386-0.432-0.629     c-0.105-0.243-0.157-0.513-0.157-0.809c0-0.332,0.063-0.62,0.191-0.866c0.127-0.246,0.299-0.448,0.514-0.605     c0.215-0.158,0.46-0.272,0.735-0.343s0.562-0.096,0.862-0.075v2.808C7.936,45.277,8.186,45.19,8.34,45.029z M6.3,43.821     c-0.14,0.128-0.21,0.322-0.21,0.583c0,0.171,0.029,0.312,0.086,0.426c0.058,0.112,0.129,0.203,0.214,0.271     s0.175,0.116,0.27,0.144c0.095,0.027,0.18,0.044,0.255,0.049v-1.739C6.646,43.604,6.44,43.693,6.3,43.821z"/>
			<path d="M5.393,40.837h0.72v-0.015c-0.12-0.051-0.231-0.118-0.333-0.203c-0.103-0.086-0.19-0.184-0.263-0.294     c-0.072-0.11-0.128-0.229-0.168-0.354c-0.04-0.126-0.06-0.256-0.06-0.392c0-0.07,0.013-0.148,0.038-0.233h0.99     c-0.01,0.05-0.019,0.11-0.026,0.181c-0.007,0.07-0.011,0.138-0.011,0.203c0,0.195,0.033,0.361,0.098,0.497     s0.154,0.244,0.266,0.327c0.113,0.083,0.244,0.142,0.394,0.177s0.312,0.053,0.487,0.053h1.748v1.069h-3.88V40.837z"/>
			<path d="M8.307,35.934c0.083-0.048,0.15-0.109,0.203-0.185c0.052-0.075,0.091-0.162,0.116-0.26     c0.025-0.098,0.038-0.199,0.038-0.305c0-0.075-0.009-0.154-0.026-0.237c-0.017-0.083-0.045-0.158-0.083-0.226     c-0.038-0.068-0.087-0.125-0.15-0.17c-0.063-0.045-0.141-0.067-0.236-0.067c-0.16,0-0.28,0.106-0.36,0.319     c-0.08,0.214-0.16,0.511-0.24,0.893c-0.035,0.155-0.076,0.308-0.124,0.455c-0.047,0.148-0.11,0.28-0.188,0.396     c-0.078,0.116-0.175,0.208-0.292,0.278c-0.117,0.07-0.261,0.105-0.431,0.105c-0.25,0-0.455-0.049-0.615-0.146     c-0.16-0.099-0.286-0.228-0.379-0.388c-0.092-0.161-0.157-0.342-0.195-0.542c-0.038-0.201-0.056-0.407-0.056-0.617     c0-0.211,0.02-0.416,0.06-0.614c0.04-0.198,0.107-0.375,0.202-0.53c0.095-0.155,0.222-0.285,0.379-0.388     c0.158-0.103,0.356-0.164,0.596-0.185v1.017C6.321,34.552,6.182,34.63,6.11,34.77C6.037,34.911,6,35.076,6,35.267     c0,0.061,0.004,0.126,0.011,0.196c0.007,0.07,0.024,0.134,0.049,0.191c0.025,0.059,0.061,0.107,0.109,0.147     c0.047,0.04,0.111,0.06,0.191,0.06c0.095,0,0.173-0.034,0.232-0.104c0.06-0.07,0.109-0.162,0.146-0.275     c0.038-0.112,0.071-0.242,0.101-0.388c0.03-0.146,0.063-0.293,0.098-0.444c0.035-0.155,0.078-0.307,0.127-0.455     c0.05-0.147,0.116-0.279,0.199-0.396c0.083-0.115,0.185-0.208,0.308-0.278c0.123-0.07,0.274-0.105,0.454-0.105     c0.255,0,0.469,0.052,0.642,0.154c0.172,0.104,0.311,0.237,0.416,0.403c0.105,0.165,0.179,0.354,0.221,0.568     c0.042,0.213,0.064,0.43,0.064,0.65c0,0.227-0.022,0.447-0.068,0.663c-0.045,0.216-0.12,0.407-0.225,0.575     c-0.105,0.169-0.244,0.307-0.417,0.414C8.486,36.951,8.269,37.01,8.01,37.02v-1.016C8.125,36.005,8.224,35.981,8.307,35.934z"/>
			<path d="M3.916,31.722h2.018V31.7c-0.225-0.136-0.389-0.309-0.491-0.52c-0.102-0.211-0.154-0.416-0.154-0.617     c0-0.286,0.039-0.521,0.116-0.704c0.078-0.183,0.185-0.327,0.322-0.433c0.138-0.105,0.305-0.179,0.503-0.222     c0.197-0.043,0.416-0.064,0.656-0.064h2.385v1.069h-2.19c-0.32,0-0.559,0.05-0.716,0.15c-0.157,0.1-0.236,0.278-0.236,0.534     c0,0.291,0.086,0.502,0.259,0.633c0.172,0.13,0.457,0.195,0.851,0.195h2.033v1.069H3.916V31.722z"/>
			<path d="M6.585,28.372c-0.25-0.015-0.458-0.078-0.623-0.188s-0.297-0.251-0.397-0.421c-0.1-0.171-0.171-0.363-0.214-0.576     c-0.042-0.213-0.063-0.428-0.063-0.644c0-0.195,0.014-0.394,0.041-0.595c0.028-0.2,0.082-0.384,0.162-0.55     c0.08-0.165,0.191-0.301,0.333-0.406c0.142-0.105,0.332-0.158,0.566-0.158h2.018c0.175,0,0.342-0.01,0.502-0.03     c0.16-0.02,0.28-0.055,0.36-0.105v1.084c-0.06,0.021-0.121,0.037-0.184,0.05c-0.062,0.012-0.126,0.021-0.191,0.026     c0.175,0.17,0.297,0.371,0.368,0.602c0.07,0.231,0.105,0.467,0.105,0.708c0,0.186-0.022,0.358-0.068,0.52     c-0.045,0.16-0.115,0.301-0.21,0.421c-0.095,0.121-0.215,0.215-0.36,0.282c-0.145,0.068-0.317,0.102-0.518,0.102     c-0.22,0-0.401-0.038-0.543-0.116C7.526,28.3,7.413,28.2,7.328,28.077s-0.149-0.264-0.191-0.422     c-0.042-0.158-0.076-0.317-0.101-0.479c-0.025-0.16-0.045-0.318-0.06-0.474c-0.015-0.156-0.038-0.294-0.067-0.414     c-0.03-0.12-0.074-0.216-0.131-0.286c-0.057-0.07-0.141-0.103-0.251-0.098c-0.115,0-0.206,0.019-0.273,0.057     c-0.068,0.037-0.12,0.088-0.158,0.15c-0.038,0.062-0.062,0.135-0.075,0.218C6.007,26.411,6,26.5,6,26.596     c0,0.211,0.045,0.376,0.135,0.497c0.09,0.12,0.24,0.19,0.45,0.21V28.372z M7.373,25.903c0.04,0.045,0.071,0.102,0.094,0.169     c0.022,0.068,0.041,0.141,0.056,0.219c0.015,0.077,0.028,0.159,0.038,0.244c0.01,0.086,0.022,0.171,0.038,0.256     c0.015,0.081,0.035,0.16,0.06,0.237c0.025,0.078,0.059,0.146,0.101,0.203s0.096,0.104,0.161,0.14s0.147,0.053,0.248,0.053     c0.095,0,0.175-0.018,0.24-0.053s0.116-0.083,0.153-0.144c0.038-0.06,0.064-0.13,0.079-0.21c0.015-0.081,0.022-0.163,0.022-0.249     c0-0.211-0.035-0.374-0.105-0.489c-0.07-0.115-0.154-0.2-0.251-0.256c-0.097-0.055-0.196-0.089-0.296-0.102     c-0.1-0.013-0.18-0.019-0.24-0.019L7.373,25.903L7.373,25.903z"/>
			<path d="M5.393,22.99h0.72v-0.015c-0.12-0.051-0.231-0.118-0.333-0.203c-0.103-0.086-0.19-0.184-0.263-0.294     c-0.072-0.11-0.128-0.229-0.168-0.354c-0.04-0.126-0.06-0.256-0.06-0.392c0-0.07,0.013-0.148,0.038-0.233h0.99     c-0.01,0.05-0.019,0.11-0.026,0.181c-0.007,0.07-0.011,0.138-0.011,0.203c0,0.195,0.033,0.361,0.098,0.497     c0.065,0.136,0.154,0.244,0.266,0.327c0.113,0.083,0.244,0.142,0.394,0.177c0.15,0.035,0.312,0.053,0.487,0.053h1.748v1.069     h-3.88V22.99z"/>
			<path d="M8.34,19.935c0.155-0.16,0.233-0.392,0.233-0.692c0-0.216-0.054-0.401-0.162-0.557C8.304,18.53,8.19,18.435,8.07,18.4     v-0.941c0.465,0.15,0.798,0.382,0.998,0.692c0.2,0.312,0.3,0.688,0.3,1.13c0,0.306-0.049,0.582-0.146,0.827     c-0.098,0.246-0.236,0.455-0.416,0.625c-0.18,0.171-0.395,0.303-0.645,0.396c-0.25,0.093-0.525,0.139-0.825,0.139     c-0.29,0-0.56-0.047-0.81-0.143s-0.466-0.23-0.648-0.406c-0.182-0.176-0.327-0.386-0.432-0.629     c-0.105-0.243-0.157-0.513-0.157-0.809c0-0.332,0.063-0.62,0.191-0.866c0.127-0.246,0.299-0.448,0.514-0.605     c0.215-0.158,0.46-0.272,0.735-0.343c0.275-0.071,0.562-0.096,0.862-0.075V20.2C7.936,20.183,8.186,20.096,8.34,19.935z      M6.3,18.727c-0.14,0.128-0.21,0.322-0.21,0.583c0,0.171,0.029,0.312,0.086,0.426c0.058,0.112,0.129,0.203,0.214,0.271     c0.085,0.068,0.175,0.116,0.27,0.144c0.095,0.027,0.18,0.044,0.255,0.049v-1.739C6.646,18.51,6.44,18.599,6.3,18.727z"/>
		</g>
	</g>
	<g>
		<g>
			<path d="M17.954,46.055c0.004-0.234,0.045-0.441,0.121-0.621c0.076-0.18,0.177-0.342,0.303-0.486     c0.125-0.144,0.267-0.275,0.423-0.396c0.157-0.119,0.318-0.233,0.484-0.344s0.331-0.224,0.494-0.338     c0.164-0.115,0.311-0.237,0.441-0.368c0.13-0.13,0.227-0.264,0.292-0.401c0.065-0.138,0.097-0.301,0.097-0.489     c0-0.153-0.028-0.289-0.084-0.408c-0.056-0.119-0.132-0.221-0.229-0.304c-0.097-0.084-0.208-0.146-0.336-0.189     c-0.127-0.043-0.263-0.064-0.407-0.064c-0.193,0-0.357,0.036-0.494,0.108c-0.137,0.072-0.248,0.169-0.333,0.29     c-0.085,0.122-0.147,0.262-0.185,0.419c-0.038,0.157-0.055,0.324-0.05,0.499h-0.424c-0.004-0.243,0.023-0.467,0.084-0.671     c0.061-0.205,0.154-0.382,0.279-0.53s0.283-0.265,0.474-0.348c0.19-0.083,0.414-0.125,0.669-0.125     c0.207,0,0.398,0.028,0.575,0.085c0.177,0.056,0.332,0.139,0.464,0.249c0.132,0.11,0.235,0.249,0.31,0.415     c0.074,0.167,0.111,0.36,0.111,0.581c0,0.198-0.033,0.378-0.098,0.54s-0.152,0.311-0.262,0.445     c-0.11,0.134-0.235,0.26-0.376,0.375c-0.141,0.114-0.291,0.222-0.447,0.32c-0.112,0.076-0.245,0.161-0.397,0.253     c-0.152,0.093-0.299,0.194-0.44,0.308c-0.141,0.112-0.266,0.234-0.373,0.367c-0.108,0.133-0.175,0.278-0.202,0.436h2.616v0.392     L17.954,46.055L17.954,46.055z"/>
			<path d="M24.158,41.516c0.213,0.15,0.379,0.343,0.498,0.577c0.119,0.233,0.2,0.495,0.242,0.782     c0.042,0.288,0.064,0.569,0.064,0.844c0,0.279-0.021,0.563-0.064,0.851c-0.042,0.288-0.124,0.55-0.242,0.783     c-0.119,0.234-0.285,0.426-0.498,0.574c-0.213,0.148-0.492,0.223-0.837,0.223c-0.341,0-0.619-0.074-0.834-0.223     c-0.215-0.149-0.382-0.34-0.501-0.574c-0.119-0.233-0.2-0.495-0.242-0.783c-0.043-0.288-0.064-0.57-0.064-0.844     c0-0.278,0.021-0.562,0.064-0.851c0.042-0.287,0.124-0.549,0.242-0.782c0.119-0.234,0.286-0.427,0.501-0.577     c0.215-0.151,0.493-0.227,0.834-0.227C23.666,41.289,23.945,41.364,24.158,41.516z M22.675,41.856     c-0.162,0.14-0.284,0.312-0.367,0.52s-0.138,0.432-0.165,0.675c-0.027,0.243-0.041,0.466-0.041,0.668     c0,0.207,0.014,0.432,0.041,0.672c0.027,0.241,0.082,0.466,0.165,0.675c0.083,0.21,0.205,0.384,0.367,0.523     c0.161,0.14,0.376,0.209,0.646,0.209s0.484-0.069,0.646-0.209c0.162-0.14,0.284-0.313,0.367-0.523     c0.083-0.209,0.138-0.434,0.165-0.675c0.027-0.24,0.041-0.465,0.041-0.672c0-0.202-0.013-0.425-0.041-0.668     c-0.027-0.243-0.082-0.468-0.165-0.675s-0.205-0.38-0.367-0.52c-0.161-0.14-0.376-0.21-0.646-0.21S22.836,41.717,22.675,41.856z"/>
			<path d="M27.897,41.516c0.213,0.15,0.379,0.343,0.498,0.577c0.119,0.233,0.2,0.495,0.242,0.782     c0.042,0.288,0.064,0.569,0.064,0.844c0,0.279-0.021,0.563-0.064,0.851c-0.042,0.288-0.124,0.55-0.242,0.783     c-0.119,0.234-0.285,0.426-0.498,0.574c-0.213,0.148-0.492,0.223-0.837,0.223c-0.341,0-0.619-0.074-0.834-0.223     c-0.215-0.149-0.382-0.34-0.501-0.574c-0.119-0.233-0.2-0.495-0.242-0.783c-0.042-0.287-0.064-0.569-0.064-0.844     c0-0.278,0.021-0.562,0.064-0.851c0.042-0.287,0.124-0.549,0.242-0.782c0.119-0.234,0.286-0.427,0.501-0.577     c0.215-0.151,0.493-0.227,0.834-0.227C27.405,41.289,27.685,41.364,27.897,41.516z M26.415,41.856     c-0.162,0.14-0.284,0.312-0.367,0.52s-0.138,0.432-0.165,0.675c-0.027,0.243-0.041,0.466-0.041,0.668     c0,0.207,0.014,0.432,0.041,0.672c0.027,0.241,0.082,0.466,0.165,0.675c0.083,0.21,0.205,0.384,0.367,0.523     c0.161,0.14,0.376,0.209,0.646,0.209s0.484-0.069,0.646-0.209c0.162-0.14,0.284-0.313,0.367-0.523     c0.083-0.209,0.138-0.434,0.165-0.675c0.027-0.24,0.041-0.465,0.041-0.672c0-0.202-0.013-0.425-0.041-0.668     c-0.027-0.243-0.082-0.468-0.165-0.675s-0.205-0.38-0.367-0.52c-0.161-0.14-0.376-0.21-0.646-0.21S26.576,41.717,26.415,41.856z"/>
		</g>
	</g>
	<g>
		<g>
			<path d="M17.954,27.62c0.004-0.234,0.045-0.441,0.121-0.621c0.076-0.18,0.177-0.342,0.303-0.486     c0.125-0.144,0.267-0.275,0.423-0.395c0.157-0.119,0.318-0.233,0.484-0.344s0.331-0.224,0.494-0.338     c0.164-0.115,0.311-0.237,0.441-0.368c0.13-0.13,0.227-0.264,0.292-0.401c0.065-0.138,0.097-0.301,0.097-0.489     c0-0.153-0.028-0.289-0.084-0.408c-0.056-0.119-0.132-0.221-0.229-0.304c-0.097-0.084-0.208-0.146-0.336-0.189     c-0.127-0.043-0.263-0.064-0.407-0.064c-0.193,0-0.357,0.036-0.494,0.108c-0.137,0.072-0.248,0.169-0.333,0.29     c-0.085,0.122-0.147,0.262-0.185,0.419c-0.038,0.157-0.055,0.324-0.05,0.499h-0.424c-0.004-0.243,0.023-0.467,0.084-0.671     c0.061-0.205,0.154-0.382,0.279-0.53s0.283-0.265,0.474-0.348c0.19-0.083,0.414-0.125,0.669-0.125     c0.207,0,0.398,0.028,0.575,0.085c0.177,0.056,0.332,0.139,0.464,0.249c0.132,0.11,0.235,0.249,0.31,0.415     c0.074,0.167,0.111,0.36,0.111,0.581c0,0.198-0.033,0.378-0.098,0.54s-0.152,0.311-0.262,0.445     c-0.11,0.134-0.235,0.26-0.376,0.375c-0.141,0.114-0.291,0.222-0.447,0.32c-0.112,0.076-0.245,0.161-0.397,0.253     c-0.152,0.093-0.299,0.194-0.44,0.308c-0.141,0.112-0.266,0.234-0.373,0.367c-0.108,0.133-0.175,0.278-0.202,0.436h2.616v0.392     L17.954,27.62L17.954,27.62z"/>
			<path d="M22.214,26.716c0.061,0.135,0.143,0.251,0.246,0.348s0.224,0.171,0.363,0.223c0.139,0.052,0.289,0.077,0.451,0.077     c0.184,0,0.347-0.034,0.491-0.104c0.144-0.069,0.267-0.164,0.37-0.283c0.103-0.119,0.182-0.257,0.235-0.412     c0.053-0.155,0.081-0.318,0.081-0.489c0-0.176-0.03-0.337-0.091-0.486c-0.061-0.148-0.144-0.277-0.249-0.388     c-0.105-0.11-0.232-0.196-0.38-0.26s-0.309-0.095-0.484-0.095c-0.215,0-0.415,0.049-0.599,0.146     c-0.184,0.097-0.334,0.235-0.451,0.415h-0.363l0.458-2.45h2.354v0.392h-2.058l-0.303,1.565l0.013,0.014     c0.117-0.14,0.265-0.247,0.444-0.324c0.179-0.076,0.363-0.114,0.551-0.114c0.242,0,0.46,0.04,0.656,0.121     c0.195,0.081,0.361,0.193,0.498,0.338c0.137,0.144,0.242,0.316,0.316,0.517c0.074,0.2,0.111,0.419,0.111,0.658     c0,0.229-0.043,0.441-0.128,0.638c-0.085,0.195-0.202,0.364-0.35,0.506s-0.322,0.252-0.521,0.331     c-0.199,0.078-0.411,0.118-0.635,0.118c-0.22,0-0.423-0.033-0.609-0.098s-0.347-0.16-0.484-0.284     c-0.137-0.123-0.246-0.275-0.326-0.455c-0.081-0.181-0.124-0.383-0.128-0.607h0.424C22.122,26.432,22.154,26.581,22.214,26.716z"/>
			<path d="M27.897,23.081c0.213,0.15,0.379,0.343,0.498,0.577c0.119,0.233,0.2,0.495,0.242,0.782     c0.042,0.288,0.064,0.569,0.064,0.844c0,0.279-0.021,0.563-0.064,0.851c-0.042,0.288-0.124,0.55-0.242,0.783     c-0.119,0.234-0.285,0.426-0.498,0.574c-0.213,0.148-0.492,0.223-0.837,0.223c-0.341,0-0.619-0.074-0.834-0.223     c-0.215-0.149-0.382-0.34-0.501-0.574c-0.119-0.233-0.2-0.495-0.242-0.783c-0.042-0.287-0.064-0.569-0.064-0.844     c0-0.278,0.021-0.562,0.064-0.851c0.042-0.287,0.124-0.549,0.242-0.782c0.119-0.234,0.286-0.427,0.501-0.577     c0.215-0.151,0.493-0.227,0.834-0.227C27.405,22.854,27.685,22.93,27.897,23.081z M26.415,23.422     c-0.162,0.14-0.284,0.312-0.367,0.52s-0.138,0.432-0.165,0.675c-0.027,0.243-0.041,0.466-0.041,0.668     c0,0.207,0.014,0.432,0.041,0.672c0.027,0.241,0.082,0.466,0.165,0.675c0.083,0.21,0.205,0.384,0.367,0.523     c0.161,0.14,0.376,0.209,0.646,0.209s0.484-0.069,0.646-0.209c0.162-0.14,0.284-0.313,0.367-0.523     c0.083-0.209,0.138-0.434,0.165-0.675c0.027-0.24,0.041-0.465,0.041-0.672c0-0.202-0.013-0.425-0.041-0.668     c-0.027-0.243-0.082-0.468-0.165-0.675s-0.205-0.38-0.367-0.52c-0.161-0.14-0.376-0.21-0.646-0.21S26.576,23.282,26.415,23.422z"/>
		</g>
	</g>
	<g>
		<g>
			<path d="M18.421,8.177c0.052,0.153,0.128,0.283,0.229,0.392c0.101,0.107,0.227,0.192,0.377,0.253     c0.15,0.061,0.319,0.091,0.508,0.091c0.157,0,0.307-0.022,0.45-0.067c0.143-0.045,0.271-0.112,0.384-0.202     c0.112-0.09,0.202-0.2,0.269-0.331c0.067-0.13,0.101-0.278,0.101-0.445c0-0.171-0.029-0.318-0.087-0.442     c-0.058-0.123-0.139-0.227-0.242-0.311c-0.103-0.083-0.223-0.146-0.36-0.186c-0.137-0.04-0.284-0.061-0.44-0.061h-0.356V6.51     h0.356c0.108,0,0.219-0.018,0.333-0.051c0.114-0.034,0.217-0.086,0.31-0.155c0.092-0.07,0.167-0.159,0.225-0.267     s0.087-0.236,0.087-0.385c0-0.157-0.027-0.291-0.081-0.401c-0.054-0.11-0.128-0.203-0.222-0.277     c-0.094-0.074-0.203-0.128-0.326-0.162c-0.124-0.033-0.257-0.051-0.4-0.051c-0.175,0-0.33,0.029-0.464,0.088     c-0.134,0.059-0.248,0.141-0.339,0.247c-0.092,0.105-0.161,0.231-0.205,0.378c-0.045,0.146-0.065,0.307-0.061,0.482h-0.424     c0-0.225,0.035-0.432,0.104-0.621c0.07-0.189,0.168-0.353,0.296-0.489c0.128-0.138,0.284-0.245,0.468-0.324     c0.184-0.078,0.39-0.118,0.619-0.118c0.184,0,0.363,0.023,0.538,0.071c0.175,0.047,0.331,0.119,0.467,0.216     c0.136,0.097,0.247,0.221,0.33,0.371c0.083,0.15,0.125,0.332,0.125,0.543c0,0.257-0.068,0.479-0.205,0.669     c-0.137,0.188-0.333,0.314-0.589,0.378v0.014c0.31,0.049,0.548,0.179,0.716,0.388c0.168,0.209,0.252,0.469,0.252,0.779     c0,0.234-0.044,0.44-0.131,0.618C20.946,8.629,20.828,8.778,20.68,8.9c-0.148,0.121-0.32,0.212-0.518,0.272     c-0.198,0.062-0.404,0.092-0.619,0.092c-0.242,0-0.465-0.036-0.669-0.108C18.67,9.085,18.495,8.98,18.35,8.845     c-0.146-0.135-0.256-0.301-0.33-0.499c-0.074-0.198-0.102-0.426-0.084-0.682h0.423C18.349,7.853,18.37,8.023,18.421,8.177z"/>
			<path d="M24.158,4.63c0.213,0.15,0.379,0.343,0.498,0.577c0.119,0.233,0.2,0.495,0.242,0.782     c0.042,0.288,0.064,0.569,0.064,0.844c0,0.279-0.021,0.563-0.064,0.851c-0.042,0.288-0.124,0.55-0.242,0.783     c-0.119,0.234-0.285,0.426-0.498,0.574c-0.213,0.148-0.492,0.223-0.837,0.223c-0.341,0-0.619-0.074-0.834-0.223     c-0.215-0.149-0.382-0.34-0.501-0.574c-0.119-0.233-0.2-0.495-0.242-0.783c-0.043-0.288-0.064-0.57-0.064-0.844     c0-0.278,0.021-0.562,0.064-0.851c0.042-0.287,0.124-0.549,0.242-0.782c0.119-0.234,0.286-0.427,0.501-0.577     c0.215-0.151,0.493-0.227,0.834-0.227C23.666,4.403,23.945,4.479,24.158,4.63z M22.675,4.971c-0.162,0.14-0.284,0.312-0.367,0.52     s-0.138,0.432-0.165,0.675s-0.041,0.466-0.041,0.668c0,0.207,0.014,0.432,0.041,0.672c0.027,0.241,0.082,0.466,0.165,0.675     c0.083,0.21,0.205,0.384,0.367,0.523c0.161,0.14,0.376,0.209,0.646,0.209s0.484-0.069,0.646-0.209     c0.162-0.14,0.284-0.313,0.367-0.523c0.083-0.209,0.138-0.434,0.165-0.675c0.027-0.24,0.041-0.465,0.041-0.672     c0-0.202-0.013-0.425-0.041-0.668c-0.027-0.243-0.082-0.468-0.165-0.675s-0.205-0.38-0.367-0.52     c-0.161-0.14-0.376-0.21-0.646-0.21S22.836,4.831,22.675,4.971z"/>
			<path d="M27.897,4.63c0.213,0.15,0.379,0.343,0.498,0.577c0.119,0.233,0.2,0.495,0.242,0.782     c0.042,0.288,0.064,0.569,0.064,0.844c0,0.279-0.021,0.563-0.064,0.851c-0.042,0.288-0.124,0.55-0.242,0.783     c-0.119,0.234-0.285,0.426-0.498,0.574s-0.492,0.223-0.837,0.223c-0.341,0-0.619-0.074-0.834-0.223s-0.382-0.34-0.501-0.574     c-0.119-0.233-0.2-0.495-0.242-0.783c-0.042-0.287-0.064-0.569-0.064-0.844c0-0.278,0.021-0.562,0.064-0.851     c0.042-0.287,0.124-0.549,0.242-0.782c0.119-0.234,0.286-0.427,0.501-0.577c0.215-0.151,0.493-0.227,0.834-0.227     C27.405,4.403,27.685,4.479,27.897,4.63z M26.415,4.971c-0.162,0.14-0.284,0.312-0.367,0.52s-0.138,0.432-0.165,0.675     c-0.027,0.243-0.041,0.466-0.041,0.668c0,0.207,0.014,0.432,0.041,0.672c0.027,0.241,0.082,0.466,0.165,0.675     c0.083,0.21,0.205,0.384,0.367,0.523c0.161,0.14,0.376,0.209,0.646,0.209s0.484-0.069,0.646-0.209     c0.162-0.14,0.284-0.313,0.367-0.523c0.083-0.209,0.138-0.434,0.165-0.675c0.027-0.24,0.041-0.465,0.041-0.672     c0-0.202-0.013-0.425-0.041-0.668c-0.027-0.243-0.082-0.468-0.165-0.675s-0.205-0.38-0.367-0.52     c-0.161-0.14-0.376-0.21-0.646-0.21S26.576,4.831,26.415,4.971z"/>
		</g>
	</g>
	
		<line fill="none" stroke="#000000" stroke-width="0.5" stroke-linejoin="round" stroke-miterlimit="10" x1="35.192" y1="117.603" x2="31.749" y2="117.603"/>
	
		<line fill="none" stroke="#000000" stroke-width="0.5" stroke-linejoin="round" stroke-miterlimit="10" x1="35.192" y1="99.16" x2="31.749" y2="99.16"/>
	
		<line fill="none" stroke="#000000" stroke-width="0.5" stroke-linejoin="round" stroke-miterlimit="10" x1="35.192" y1="80.717" x2="31.749" y2="80.717"/>
	
		<line fill="none" stroke="#000000" stroke-width="0.5" stroke-linejoin="round" stroke-miterlimit="10" x1="35.192" y1="62.274" x2="31.749" y2="62.274"/>
	
		<line fill="none" stroke="#000000" stroke-width="0.5" stroke-linejoin="round" stroke-miterlimit="10" x1="35.192" y1="43.832" x2="31.749" y2="43.832"/>
	
		<line fill="none" stroke="#000000" stroke-width="0.5" stroke-linejoin="round" stroke-miterlimit="10" x1="35.192" y1="25.389" x2="31.749" y2="25.389"/>
	
		<line fill="none" stroke="#000000" stroke-width="0.5" stroke-linejoin="round" stroke-miterlimit="10" x1="35.192" y1="6.946" x2="31.749" y2="6.946"/>
	<g>
		<path d="M219.122,31.211c0,0.198,0.033,0.367,0.102,0.508c0.066,0.14,0.16,0.255,0.281,0.344c0.12,0.09,0.26,0.155,0.415,0.196    c0.156,0.041,0.326,0.062,0.511,0.062c0.196,0,0.364-0.022,0.504-0.069c0.141-0.046,0.254-0.104,0.34-0.177    c0.088-0.073,0.149-0.156,0.188-0.251c0.039-0.094,0.058-0.189,0.058-0.286c0-0.198-0.043-0.344-0.133-0.438    c-0.09-0.094-0.188-0.16-0.293-0.199c-0.183-0.067-0.396-0.132-0.64-0.192s-0.543-0.139-0.897-0.235    c-0.223-0.059-0.406-0.135-0.554-0.229c-0.147-0.095-0.264-0.199-0.351-0.315c-0.088-0.116-0.148-0.239-0.186-0.37    c-0.035-0.13-0.054-0.263-0.054-0.398c0-0.261,0.054-0.486,0.162-0.678s0.252-0.35,0.43-0.475    c0.179-0.126,0.382-0.219,0.606-0.279c0.227-0.061,0.455-0.091,0.687-0.091c0.271,0,0.524,0.035,0.763,0.105    c0.239,0.07,0.447,0.175,0.629,0.315c0.181,0.14,0.324,0.312,0.43,0.518s0.158,0.444,0.158,0.715h-0.901    c-0.024-0.334-0.138-0.569-0.34-0.707c-0.202-0.138-0.46-0.207-0.772-0.207c-0.105,0-0.215,0.011-0.324,0.033    c-0.111,0.021-0.213,0.058-0.305,0.108c-0.092,0.05-0.168,0.12-0.228,0.207c-0.062,0.087-0.091,0.195-0.091,0.326    c0,0.184,0.057,0.327,0.17,0.431s0.262,0.183,0.443,0.236c0.021,0.005,0.096,0.025,0.229,0.062    c0.133,0.037,0.279,0.076,0.443,0.119c0.164,0.044,0.324,0.086,0.48,0.127s0.27,0.071,0.336,0.091    c0.168,0.054,0.314,0.126,0.439,0.218s0.23,0.197,0.314,0.315c0.084,0.118,0.146,0.245,0.188,0.38    c0.041,0.136,0.062,0.271,0.062,0.406c0,0.29-0.059,0.538-0.177,0.743c-0.118,0.206-0.272,0.374-0.466,0.504    c-0.193,0.131-0.412,0.227-0.657,0.286c-0.246,0.062-0.496,0.091-0.752,0.091c-0.293,0-0.57-0.036-0.83-0.108    c-0.261-0.072-0.485-0.184-0.681-0.334c-0.191-0.149-0.346-0.342-0.461-0.576s-0.176-0.511-0.182-0.83h0.904V31.211z"/>
		<path d="M225.961,32.356c-0.192,0.237-0.405,0.41-0.64,0.519c-0.233,0.109-0.502,0.163-0.805,0.163    c-0.236,0-0.455-0.035-0.654-0.105c-0.199-0.069-0.371-0.17-0.516-0.301c-0.146-0.13-0.258-0.291-0.337-0.482    c-0.079-0.19-0.118-0.406-0.118-0.648c0-0.184,0.032-0.351,0.101-0.5c0.067-0.15,0.155-0.286,0.268-0.41    c0.11-0.123,0.237-0.232,0.38-0.329c0.143-0.097,0.287-0.184,0.438-0.262c-0.067-0.087-0.133-0.173-0.195-0.257    c-0.062-0.085-0.117-0.173-0.166-0.265c-0.048-0.092-0.087-0.188-0.115-0.29c-0.029-0.102-0.043-0.208-0.043-0.319    c0-0.188,0.032-0.357,0.098-0.508c0.064-0.149,0.154-0.278,0.271-0.388c0.116-0.108,0.251-0.191,0.405-0.25    c0.152-0.058,0.316-0.087,0.49-0.087c0.164,0,0.324,0.025,0.48,0.076c0.156,0.051,0.293,0.128,0.411,0.232    s0.213,0.232,0.285,0.388c0.071,0.154,0.108,0.336,0.108,0.544c0,0.154-0.025,0.297-0.076,0.428    c-0.051,0.13-0.117,0.25-0.201,0.358c-0.085,0.108-0.184,0.207-0.297,0.294s-0.232,0.164-0.357,0.231l0.803,0.972    c0.028-0.082,0.058-0.176,0.086-0.282c0.029-0.106,0.054-0.244,0.072-0.414h0.723c-0.023,0.228-0.068,0.45-0.133,0.667    c-0.065,0.218-0.156,0.419-0.271,0.603l0.99,1.203h-1.012L225.961,32.356z M224.51,30.544c-0.077,0.049-0.161,0.097-0.253,0.146    c-0.092,0.048-0.178,0.108-0.257,0.181c-0.079,0.073-0.146,0.159-0.202,0.261c-0.056,0.102-0.083,0.23-0.083,0.385    c0,0.28,0.078,0.495,0.234,0.646c0.157,0.149,0.354,0.225,0.597,0.225c0.148,0,0.275-0.021,0.383-0.062    c0.105-0.041,0.195-0.091,0.271-0.149c0.074-0.058,0.138-0.12,0.188-0.188c0.051-0.067,0.096-0.128,0.135-0.181L224.51,30.544z     M224.842,28.253c-0.153,0-0.284,0.052-0.391,0.156c-0.104,0.104-0.158,0.242-0.158,0.417c0,0.087,0.017,0.168,0.047,0.242    c0.031,0.075,0.069,0.147,0.115,0.218c0.046,0.071,0.097,0.139,0.151,0.207c0.056,0.067,0.106,0.133,0.154,0.195    c0.077-0.053,0.152-0.107,0.225-0.163c0.074-0.056,0.138-0.116,0.195-0.182c0.059-0.064,0.104-0.139,0.137-0.221    c0.035-0.082,0.052-0.174,0.052-0.275c0-0.169-0.05-0.311-0.146-0.424C225.128,28.31,225.001,28.253,224.842,28.253z"/>
		<path d="M227.89,27.76h2.275c0.365,0,0.665,0.054,0.896,0.16c0.23,0.106,0.408,0.239,0.535,0.398    c0.125,0.159,0.209,0.333,0.256,0.521c0.045,0.188,0.068,0.363,0.068,0.522c0,0.159-0.023,0.332-0.068,0.519    c-0.047,0.186-0.131,0.358-0.256,0.519c-0.127,0.159-0.305,0.291-0.535,0.395s-0.529,0.156-0.896,0.156h-1.372v1.986h-0.903V27.76    z M228.793,30.211h1.321c0.102,0,0.205-0.015,0.311-0.044c0.106-0.029,0.204-0.076,0.293-0.142    c0.09-0.066,0.161-0.152,0.217-0.261c0.057-0.109,0.084-0.245,0.084-0.409c0-0.17-0.024-0.31-0.072-0.421    c-0.049-0.111-0.113-0.199-0.195-0.265s-0.176-0.11-0.281-0.134c-0.105-0.024-0.22-0.036-0.34-0.036h-1.336L228.793,30.211    L228.793,30.211z"/>
		<path d="M235.056,27.861h2.614V28.6h-2l-0.261,1.291l0.015,0.015c0.11-0.126,0.252-0.222,0.423-0.286    c0.172-0.065,0.342-0.099,0.51-0.099c0.25,0,0.475,0.043,0.672,0.127c0.197,0.085,0.363,0.203,0.498,0.355    c0.136,0.152,0.236,0.332,0.308,0.54c0.069,0.208,0.104,0.433,0.104,0.675c0,0.202-0.032,0.412-0.099,0.627    c-0.063,0.215-0.168,0.41-0.312,0.587c-0.141,0.177-0.322,0.321-0.545,0.435c-0.221,0.114-0.485,0.171-0.795,0.171    c-0.244,0-0.473-0.032-0.683-0.098c-0.209-0.065-0.394-0.163-0.553-0.294c-0.158-0.131-0.285-0.291-0.379-0.482    c-0.095-0.19-0.146-0.414-0.155-0.67h0.823c0.024,0.275,0.118,0.486,0.282,0.634c0.162,0.147,0.379,0.222,0.648,0.222    c0.174,0,0.32-0.029,0.441-0.087c0.119-0.059,0.218-0.138,0.292-0.239c0.075-0.102,0.128-0.221,0.159-0.355    c0.031-0.136,0.047-0.28,0.047-0.436c0-0.14-0.021-0.273-0.059-0.402c-0.039-0.128-0.097-0.24-0.174-0.337    c-0.076-0.097-0.177-0.174-0.3-0.231c-0.122-0.059-0.267-0.088-0.431-0.088c-0.172,0-0.336,0.033-0.486,0.099    c-0.15,0.064-0.262,0.188-0.329,0.366h-0.823L235.056,27.861z"/>
		<path d="M240.192,27.76c0.361,0,0.656,0.084,0.885,0.25c0.229,0.167,0.406,0.38,0.535,0.639c0.127,0.259,0.214,0.542,0.26,0.852    s0.068,0.609,0.068,0.899s-0.022,0.589-0.068,0.898c-0.046,0.309-0.133,0.594-0.26,0.852c-0.129,0.259-0.307,0.472-0.535,0.639    s-0.523,0.25-0.885,0.25c-0.362,0-0.656-0.083-0.885-0.25c-0.229-0.167-0.408-0.38-0.535-0.639    c-0.127-0.258-0.215-0.542-0.26-0.852c-0.046-0.31-0.068-0.608-0.068-0.898s0.022-0.59,0.068-0.899    c0.045-0.31,0.133-0.593,0.26-0.852c0.127-0.259,0.307-0.472,0.535-0.639C239.536,27.844,239.831,27.76,240.192,27.76z     M240.192,32.35c0.179,0,0.328-0.052,0.447-0.156c0.12-0.104,0.217-0.244,0.285-0.421c0.07-0.176,0.119-0.383,0.148-0.619    c0.027-0.237,0.043-0.488,0.043-0.754c0-0.267-0.016-0.517-0.043-0.751c-0.029-0.234-0.078-0.44-0.148-0.62    c-0.068-0.179-0.165-0.319-0.285-0.424c-0.119-0.104-0.27-0.155-0.447-0.155c-0.184,0-0.334,0.052-0.451,0.155    c-0.118,0.104-0.213,0.245-0.281,0.424c-0.07,0.18-0.119,0.386-0.148,0.62c-0.028,0.234-0.043,0.484-0.043,0.751    c0,0.266,0.015,0.517,0.043,0.754c0.029,0.236,0.078,0.443,0.148,0.619c0.068,0.177,0.163,0.317,0.281,0.421    C239.858,32.298,240.009,32.35,240.192,32.35z"/>
		<path d="M244.208,27.76c0.361,0,0.656,0.084,0.885,0.25c0.229,0.167,0.407,0.38,0.535,0.639c0.127,0.259,0.214,0.542,0.26,0.852    c0.047,0.31,0.068,0.609,0.068,0.899s-0.021,0.589-0.068,0.898c-0.046,0.309-0.133,0.594-0.26,0.852    c-0.128,0.259-0.307,0.472-0.535,0.639s-0.523,0.25-0.885,0.25s-0.656-0.083-0.885-0.25s-0.407-0.38-0.534-0.639    c-0.128-0.258-0.215-0.542-0.261-0.852c-0.045-0.31-0.068-0.608-0.068-0.898s0.023-0.59,0.068-0.899    c0.046-0.31,0.133-0.593,0.261-0.852c0.127-0.259,0.306-0.472,0.534-0.639C243.552,27.844,243.847,27.76,244.208,27.76z     M244.208,32.35c0.18,0,0.328-0.052,0.447-0.156c0.121-0.104,0.217-0.244,0.285-0.421c0.07-0.176,0.119-0.383,0.148-0.619    c0.028-0.237,0.043-0.488,0.043-0.754c0-0.267-0.015-0.517-0.043-0.751c-0.029-0.234-0.078-0.44-0.148-0.62    c-0.068-0.179-0.164-0.319-0.285-0.424c-0.119-0.104-0.27-0.155-0.447-0.155c-0.184,0-0.333,0.052-0.451,0.155    c-0.117,0.104-0.212,0.245-0.281,0.424c-0.07,0.18-0.119,0.386-0.147,0.62c-0.029,0.234-0.043,0.484-0.043,0.751    c0,0.266,0.014,0.517,0.043,0.754c0.028,0.236,0.077,0.443,0.147,0.619c0.069,0.177,0.164,0.317,0.281,0.421    C243.875,32.298,244.026,32.35,244.208,32.35z"/>
	</g>
	<g>
		<g>
			
				<line fill="none" stroke="#000000" stroke-width="0.5" stroke-linejoin="round" x1="256.617" y1="40.638" x2="245.903" y2="33.575"/>
			<g>
				<polygon points="257.188,38.775 258.864,42.119 255.13,41.897     "/>
			</g>
		</g>
	</g>
	<g>
		<g>
			
				<line fill="none" stroke="#000000" stroke-width="0.5" stroke-linejoin="round" x1="255.744" y1="69.451" x2="266.457" y2="76.515"/>
			<g>
				<polygon points="255.171,71.313 253.497,67.972 257.229,68.19     "/>
			</g>
		</g>
	</g>
</g>
</svg>