<svg xmlns="http://www.w3.org/2000/svg" xmlns:xlink="http://www.w3.org/1999/xlink" version="1.1" id="Layer_1" x="0px" y="0px" width="270.933px" height="126.526px" viewBox="0 0 270.933 126.526" enable-background="new 0 0 270.933 126.526" xml:space="preserve">
<line fill="none" stroke="#CCCCCC" stroke-width="0.5" stroke-linejoin="round" stroke-miterlimit="10" x1="23.165" y1="2.791" x2="264.605" y2="2.791"/>
<line fill="none" stroke="#CCCCCC" stroke-width="0.5" stroke-linejoin="round" stroke-miterlimit="10" x1="23.165" y1="28.098" x2="264.605" y2="28.098"/>
<line fill="none" stroke="#CCCCCC" stroke-width="0.5" stroke-linejoin="round" stroke-miterlimit="10" x1="23.165" y1="78.713" x2="264.605" y2="78.713"/>
<line fill="none" stroke="#CCCCCC" stroke-width="0.5" stroke-linejoin="round" stroke-miterlimit="10" x1="23.165" y1="104.021" x2="264.605" y2="104.021"/>
<line fill="none" stroke="#000000" stroke-width="0.5" stroke-linejoin="round" stroke-miterlimit="10" x1="23.165" y1="116.716" x2="264.605" y2="116.716"/>
<line fill="none" stroke="#CCCCCC" stroke-width="0.5" stroke-linejoin="round" stroke-miterlimit="10" x1="264.605" y1="2.791" x2="264.605" y2="116.716"/>
<line fill="none" stroke="#000000" stroke-width="0.5" stroke-linejoin="round" stroke-miterlimit="10" x1="23.165" y1="2.791" x2="23.165" y2="116.716"/>
<line fill="none" stroke="#000000" stroke-width="1.5" stroke-linejoin="round" stroke-miterlimit="10" x1="119.716" y1="116.675" x2="119.716" y2="2.832"/>
<line fill="none" stroke="#000000" stroke-width="1.5" stroke-linejoin="round" stroke-miterlimit="10" x1="23.125" y1="53.447" x2="264.646" y2="53.447"/>
<path fill="#7A9AA8" d="M85.091,59.041c0,0.95-0.766,1.709-1.709,1.709c-0.942,0-1.708-0.759-1.708-1.709  c0-0.942,0.766-1.709,1.708-1.709C84.325,57.332,85.091,58.099,85.091,59.041z"/>
<path fill="#7A9AA8" d="M148.646,55.054c0,0.949-0.766,1.709-1.709,1.709c-0.942,0-1.709-0.76-1.709-1.709  c0-0.942,0.767-1.709,1.709-1.709C147.879,53.345,148.646,54.111,148.646,55.054z"/>
<path fill="#7A9AA8" d="M176.639,21.039c0,0.949-0.767,1.709-1.709,1.709c-0.943,0-1.709-0.76-1.709-1.709  c0-0.943,0.766-1.709,1.709-1.709C175.872,19.33,176.639,20.096,176.639,21.039z"/>
<path fill="#7A9AA8" d="M135.625,27.793c0,0.95-0.766,1.709-1.709,1.709c-0.942,0-1.709-0.759-1.709-1.709  c0-0.942,0.767-1.708,1.709-1.708C134.859,26.084,135.625,26.851,135.625,27.793z"/>
<path fill="#7A9AA8" d="M38.871,60.587c0,0.949-0.767,1.709-1.709,1.709c-0.943,0-1.709-0.76-1.709-1.709  c0-0.943,0.766-1.709,1.709-1.709C38.104,58.878,38.871,59.645,38.871,60.587z"/>
<path fill="#7A9AA8" d="M67.921,65.551c0,0.949-0.766,1.709-1.709,1.709c-0.942,0-1.709-0.76-1.709-1.709  c0-0.943,0.767-1.709,1.709-1.709C67.155,63.842,67.921,64.608,67.921,65.551z"/>
<path fill="#7A9AA8" d="M185.671,39.186c0,0.95-0.766,1.709-1.708,1.709c-0.943,0-1.709-0.759-1.709-1.709  c0-0.942,0.766-1.709,1.709-1.709C184.905,37.477,185.671,38.243,185.671,39.186z"/>
<path fill="#7A9AA8" d="M74.513,49.195c0,0.949-0.766,1.709-1.709,1.709c-0.942,0-1.709-0.76-1.709-1.709  c0-0.943,0.767-1.709,1.709-1.709C73.747,47.486,74.513,48.252,74.513,49.195z"/>
<path fill="#7A9AA8" d="M202.516,28.281c0,0.95-0.766,1.709-1.709,1.709c-0.942,0-1.708-0.759-1.708-1.709  c0-0.942,0.766-1.709,1.708-1.709C201.75,26.572,202.516,27.339,202.516,28.281z"/>
<path fill="#7A9AA8" d="M156.376,34.954c0,0.949-0.766,1.709-1.709,1.709c-0.942,0-1.708-0.76-1.708-1.709  c0-0.942,0.766-1.709,1.708-1.709C155.61,33.245,156.376,34.012,156.376,34.954z"/>
<path fill="#7A9AA8" d="M119.269,48.951c0,0.949-0.766,1.709-1.709,1.709c-0.942,0-1.709-0.76-1.709-1.709  c0-0.943,0.767-1.709,1.709-1.709C118.503,47.242,119.269,48.008,119.269,48.951z"/>
<path fill="#7A9AA8" d="M182.579,58.716c0,0.949-0.766,1.708-1.708,1.708c-0.943,0-1.709-0.759-1.709-1.708  c0-0.943,0.766-1.709,1.709-1.709C181.812,57.007,182.579,57.773,182.579,58.716z"/>
<path fill="#7A9AA8" d="M143.112,65.551c0,0.949-0.766,1.709-1.709,1.709c-0.942,0-1.708-0.76-1.708-1.709  c0-0.943,0.766-1.709,1.708-1.709C142.346,63.842,143.112,64.608,143.112,65.551z"/>
<path fill="#7A9AA8" d="M151.819,33.001c0,0.95-0.766,1.709-1.708,1.709c-0.943,0-1.709-0.759-1.709-1.709  c0-0.942,0.766-1.708,1.709-1.708C151.053,31.292,151.819,32.059,151.819,33.001z"/>
<path fill="#7A9AA8" d="M120.408,48.218c0,0.949-0.766,1.709-1.709,1.709c-0.942,0-1.708-0.76-1.708-1.709  c0-0.942,0.766-1.709,1.708-1.709C119.642,46.509,120.408,47.276,120.408,48.218z"/>
<path fill="#7A9AA8" d="M148.564,42.522c0,0.949-0.766,1.709-1.709,1.709c-0.942,0-1.708-0.76-1.708-1.709  c0-0.942,0.766-1.709,1.708-1.709C147.798,40.813,148.564,41.58,148.564,42.522z"/>
<path fill="#7A9AA8" d="M108.365,43.905c0,0.95-0.766,1.709-1.709,1.709c-0.942,0-1.709-0.759-1.709-1.709  c0-0.942,0.767-1.709,1.709-1.709C107.599,42.196,108.365,42.963,108.365,43.905z"/>
<path fill="#7A9AA8" d="M103.645,53.833c0,0.95-0.766,1.709-1.709,1.709c-0.942,0-1.709-0.759-1.709-1.709  c0-0.942,0.767-1.709,1.709-1.709C102.879,52.124,103.645,52.891,103.645,53.833z"/>
<path fill="#7A9AA8" d="M100.471,64.819c0,0.949-0.766,1.709-1.709,1.709c-0.942,0-1.708-0.76-1.708-1.709  c0-0.943,0.766-1.709,1.708-1.709C99.705,63.11,100.471,63.876,100.471,64.819z"/>
<path fill="#7A9AA8" d="M64.992,44.556c0,0.95-0.766,1.709-1.709,1.709c-0.942,0-1.708-0.759-1.708-1.709  c0-0.942,0.766-1.708,1.708-1.708C64.226,42.848,64.992,43.614,64.992,44.556z"/>
<path fill="#7A9AA8" d="M49.531,77.757c0,0.95-0.767,1.709-1.709,1.709c-0.943,0-1.709-0.759-1.709-1.709  c0-0.942,0.766-1.709,1.709-1.709C48.764,76.048,49.531,76.815,49.531,77.757z"/>
<path fill="#7A9AA8" d="M220.255,32.92c0,0.949-0.766,1.708-1.708,1.708c-0.943,0-1.709-0.759-1.709-1.708  c0-0.943,0.766-1.709,1.709-1.709C219.489,31.211,220.255,31.977,220.255,32.92z"/>
<path fill="#7A9AA8" d="M116.583,40.081c0,0.95-0.766,1.709-1.709,1.709c-0.942,0-1.708-0.759-1.708-1.709  c0-0.942,0.766-1.709,1.708-1.709C115.817,38.372,116.583,39.138,116.583,40.081z"/>
<path fill="#7A9AA8" d="M129.685,40.406c0,0.949-0.766,1.709-1.709,1.709c-0.942,0-1.709-0.76-1.709-1.709  c0-0.943,0.767-1.709,1.709-1.709C128.919,38.697,129.685,39.463,129.685,40.406z"/>
<path fill="#7A9AA8" d="M162.642,35.605c0,0.949-0.767,1.709-1.709,1.709c-0.943,0-1.709-0.76-1.709-1.709  c0-0.942,0.766-1.709,1.709-1.709C161.875,33.896,162.642,34.663,162.642,35.605z"/>
<path fill="#7A9AA8" d="M159.875,40.406c0,0.949-0.766,1.709-1.708,1.709c-0.943,0-1.709-0.76-1.709-1.709  c0-0.943,0.766-1.709,1.709-1.709C159.109,38.697,159.875,39.463,159.875,40.406z"/>
<path fill="#7A9AA8" d="M151.25,35.28c0,0.949-0.766,1.708-1.709,1.708c-0.942,0-1.709-0.759-1.709-1.708  c0-0.943,0.767-1.709,1.709-1.709C150.483,33.571,151.25,34.337,151.25,35.28z"/>
<path fill="#7A9AA8" d="M114.224,47.974c0,0.949-0.766,1.709-1.709,1.709c-0.942,0-1.708-0.76-1.708-1.709  c0-0.942,0.766-1.709,1.708-1.709C113.458,46.265,114.224,47.032,114.224,47.974z"/>
<path fill="#7A9AA8" d="M58.97,60.343c0,0.949-0.767,1.709-1.709,1.709c-0.943,0-1.709-0.76-1.709-1.709  c0-0.943,0.766-1.709,1.709-1.709C58.204,58.634,58.97,59.4,58.97,60.343z"/>
<path fill="#7A9AA8" d="M158.898,75.804c0,0.95-0.766,1.709-1.708,1.709c-0.943,0-1.709-0.759-1.709-1.709  c0-0.942,0.766-1.708,1.709-1.708C158.132,74.096,158.898,74.862,158.898,75.804z"/>
<path fill="#7A9AA8" d="M133.51,51.799c0,0.949-0.767,1.709-1.709,1.709s-1.709-0.76-1.709-1.709c0-0.943,0.767-1.709,1.709-1.709  S133.51,50.856,133.51,51.799z"/>
<path fill="#7A9AA8" d="M140.345,56.274c0,0.949-0.767,1.709-1.709,1.709s-1.709-0.76-1.709-1.709c0-0.943,0.767-1.709,1.709-1.709  S140.345,55.332,140.345,56.274z"/>
<path fill="#7A9AA8" d="M144.577,43.254c0,0.949-0.766,1.709-1.709,1.709c-0.942,0-1.708-0.76-1.708-1.709  c0-0.943,0.766-1.709,1.708-1.709C143.811,41.545,144.577,42.312,144.577,43.254z"/>
<path fill="#7A9AA8" d="M102.18,39.43c0,0.95-0.766,1.709-1.709,1.709c-0.942,0-1.709-0.759-1.709-1.709  c0-0.942,0.767-1.709,1.709-1.709C101.414,37.721,102.18,38.487,102.18,39.43z"/>
<path fill="#7A9AA8" d="M124.233,62.866c0,0.949-0.766,1.709-1.709,1.709c-0.942,0-1.709-0.76-1.709-1.709  c0-0.942,0.767-1.709,1.709-1.709C123.467,61.157,124.233,61.923,124.233,62.866z"/>
<path fill="#7A9AA8" d="M128.22,56.03c0,0.949-0.766,1.709-1.709,1.709c-0.942,0-1.708-0.76-1.708-1.709  c0-0.943,0.766-1.709,1.708-1.709C127.454,54.321,128.22,55.087,128.22,56.03z"/>
<path fill="#7A9AA8" d="M168.989,59.041c0,0.95-0.766,1.709-1.709,1.709c-0.942,0-1.709-0.759-1.709-1.709  c0-0.942,0.767-1.709,1.709-1.709C168.223,57.332,168.989,58.099,168.989,59.041z"/>
<path fill="#7A9AA8" d="M132.045,49.52c0,0.95-0.766,1.709-1.709,1.709c-0.942,0-1.709-0.759-1.709-1.709  c0-0.942,0.767-1.708,1.709-1.708C131.279,47.812,132.045,48.578,132.045,49.52z"/>
<path fill="#7A9AA8" d="M155.562,29.665c0,0.949-0.766,1.709-1.708,1.709c-0.943,0-1.709-0.76-1.709-1.709  c0-0.942,0.766-1.709,1.709-1.709C154.796,27.956,155.562,28.722,155.562,29.665z"/>
<path fill="#7A9AA8" d="M138.799,67.26c0,0.949-0.766,1.708-1.708,1.708c-0.943,0-1.709-0.759-1.709-1.708  c0-0.943,0.766-1.709,1.709-1.709C138.033,65.551,138.799,66.317,138.799,67.26z"/>
<path fill="#7A9AA8" d="M141.322,53.02c0,0.949-0.767,1.708-1.709,1.708s-1.709-0.759-1.709-1.708c0-0.943,0.767-1.709,1.709-1.709  S141.322,52.077,141.322,53.02z"/>
<path fill="#7A9AA8" d="M106.819,47.567c0,0.949-0.767,1.708-1.709,1.708c-0.943,0-1.709-0.759-1.709-1.708  c0-0.943,0.766-1.709,1.709-1.709C106.052,45.858,106.819,46.625,106.819,47.567z"/>
<path fill="#7A9AA8" d="M168.094,40.732c0,0.949-0.767,1.708-1.709,1.708c-0.943,0-1.709-0.759-1.709-1.708  c0-0.943,0.766-1.709,1.709-1.709C167.328,39.023,168.094,39.789,168.094,40.732z"/>
<path fill="#7A9AA8" d="M90.707,62.133c0,0.949-0.767,1.709-1.709,1.709c-0.943,0-1.709-0.76-1.709-1.709  c0-0.942,0.766-1.709,1.709-1.709C89.94,60.424,90.707,61.191,90.707,62.133z"/>
<path fill="#7A9AA8" d="M149.785,48.544c0,0.949-0.766,1.708-1.709,1.708c-0.942,0-1.708-0.759-1.708-1.708  c0-0.943,0.766-1.709,1.708-1.709C149.019,46.835,149.785,47.601,149.785,48.544z"/>
<path fill="#7A9AA8" d="M163.619,67.179c0,0.949-0.767,1.709-1.709,1.709c-0.943,0-1.709-0.76-1.709-1.709  c0-0.943,0.766-1.709,1.709-1.709C162.852,65.47,163.619,66.236,163.619,67.179z"/>
<path fill="#7A9AA8" d="M148.157,16.563c0,0.949-0.767,1.708-1.709,1.708s-1.709-0.759-1.709-1.708c0-0.943,0.767-1.709,1.709-1.709  S148.157,15.621,148.157,16.563z"/>
<path fill="#7A9AA8" d="M143.926,60.262c0,0.949-0.767,1.709-1.709,1.709c-0.943,0-1.709-0.76-1.709-1.709  c0-0.942,0.766-1.709,1.709-1.709C143.159,58.553,143.926,59.319,143.926,60.262z"/>
<path fill="#7A9AA8" d="M86.475,83.454c0,0.949-0.767,1.709-1.709,1.709c-0.943,0-1.709-0.76-1.709-1.709  c0-0.942,0.766-1.709,1.709-1.709C85.708,81.745,86.475,82.511,86.475,83.454z"/>
<path fill="#7A9AA8" d="M162.235,26.817c0,0.949-0.766,1.708-1.708,1.708c-0.943,0-1.709-0.759-1.709-1.708  c0-0.943,0.766-1.709,1.709-1.709C161.469,25.108,162.235,25.874,162.235,26.817z"/>
<path fill="#7A9AA8" d="M128.139,49.032c0,0.95-0.766,1.709-1.708,1.709c-0.943,0-1.709-0.759-1.709-1.709  c0-0.942,0.766-1.708,1.709-1.708C127.373,47.323,128.139,48.089,128.139,49.032z"/>
<path fill="#7A9AA8" d="M127.407,48.137c0,0.95-0.767,1.709-1.709,1.709c-0.943,0-1.709-0.759-1.709-1.709  c0-0.942,0.766-1.709,1.709-1.709C126.64,46.428,127.407,47.194,127.407,48.137z"/>
<path fill="#7A9AA8" d="M141.566,50.66c0,0.949-0.767,1.708-1.709,1.708s-1.709-0.759-1.709-1.708c0-0.943,0.767-1.709,1.709-1.709  S141.566,49.717,141.566,50.66z"/>
<path fill="#7A9AA8" d="M139.694,41.057c0,0.95-0.767,1.709-1.709,1.709c-0.943,0-1.709-0.759-1.709-1.709  c0-0.942,0.766-1.709,1.709-1.709C138.928,39.348,139.694,40.115,139.694,41.057z"/>
<path fill="#7A9AA8" d="M106.819,93.219c0,0.949-0.767,1.709-1.709,1.709c-0.943,0-1.709-0.76-1.709-1.709  c0-0.943,0.766-1.709,1.709-1.709C106.052,91.51,106.819,92.276,106.819,93.219z"/>
<path fill="#7A9AA8" d="M157.19,41.057c0,0.95-0.767,1.709-1.709,1.709s-1.709-0.759-1.709-1.709c0-0.942,0.767-1.709,1.709-1.709  S157.19,40.115,157.19,41.057z"/>
<path fill="#7A9AA8" d="M106.331,55.054c0,0.949-0.767,1.709-1.709,1.709c-0.943,0-1.709-0.76-1.709-1.709  c0-0.942,0.766-1.709,1.709-1.709C105.564,53.345,106.331,54.111,106.331,55.054z"/>
<path fill="#7A9AA8" d="M143.6,53.996c0,0.949-0.766,1.708-1.709,1.708c-0.942,0-1.708-0.759-1.708-1.708  c0-0.943,0.766-1.709,1.708-1.709C142.834,52.287,143.6,53.053,143.6,53.996z"/>
<path fill="#7A9AA8" d="M144.902,32.92c0,0.949-0.767,1.708-1.709,1.708c-0.943,0-1.709-0.759-1.709-1.708  c0-0.943,0.766-1.709,1.709-1.709C144.136,31.211,144.902,31.977,144.902,32.92z"/>
<path fill="#7A9AA8" d="M117.397,68.318c0,0.949-0.767,1.709-1.709,1.709s-1.709-0.76-1.709-1.709c0-0.942,0.767-1.709,1.709-1.709  S117.397,67.375,117.397,68.318z"/>
<path fill="#7A9AA8" d="M91.032,55.46c0,0.95-0.766,1.709-1.709,1.709c-0.942,0-1.708-0.759-1.708-1.709  c0-0.942,0.766-1.709,1.708-1.709C90.266,53.751,91.032,54.518,91.032,55.46z"/>
<path fill="#7A9AA8" d="M173.058,22.259c0,0.95-0.767,1.709-1.709,1.709c-0.943,0-1.709-0.759-1.709-1.709  c0-0.942,0.766-1.708,1.709-1.708C172.292,20.551,173.058,21.317,173.058,22.259z"/>
<path fill="#7A9AA8" d="M104.54,60.994c0,0.949-0.766,1.709-1.709,1.709c-0.942,0-1.708-0.76-1.708-1.709  c0-0.943,0.766-1.709,1.708-1.709C103.774,59.285,104.54,60.051,104.54,60.994z"/>
<path fill="#7A9AA8" d="M129.685,31.211c0,0.949-0.766,1.709-1.709,1.709c-0.942,0-1.709-0.76-1.709-1.709  c0-0.943,0.767-1.709,1.709-1.709C128.919,29.502,129.685,30.268,129.685,31.211z"/>
<path fill="#7A9AA8" d="M131.557,39.674c0,0.949-0.766,1.709-1.709,1.709c-0.942,0-1.709-0.76-1.709-1.709  c0-0.942,0.767-1.709,1.709-1.709C130.791,37.965,131.557,38.731,131.557,39.674z"/>
<path fill="#7A9AA8" d="M100.959,53.508c0,0.949-0.766,1.708-1.708,1.708c-0.943,0-1.709-0.759-1.709-1.708  c0-0.943,0.766-1.709,1.709-1.709C100.193,51.799,100.959,52.565,100.959,53.508z"/>
<path fill="#7A9AA8" d="M140.345,60.018c0,0.949-0.767,1.709-1.709,1.709s-1.709-0.76-1.709-1.709c0-0.942,0.767-1.709,1.709-1.709  S140.345,59.075,140.345,60.018z"/>
<path fill="#7A9AA8" d="M59.051,76.048c0,0.95-0.766,1.709-1.708,1.709c-0.943,0-1.709-0.759-1.709-1.709  c0-0.942,0.766-1.708,1.709-1.708C58.285,74.34,59.051,75.106,59.051,76.048z"/>
<path fill="#7A9AA8" d="M95.589,52.856c0,0.95-0.766,1.709-1.709,1.709c-0.942,0-1.709-0.759-1.709-1.709  c0-0.942,0.767-1.708,1.709-1.708C94.823,51.148,95.589,51.914,95.589,52.856z"/>
<path fill="#7A9AA8" d="M198.447,83.779c0,0.949-0.766,1.708-1.708,1.708c-0.943,0-1.709-0.759-1.709-1.708  c0-0.943,0.766-1.709,1.709-1.709C197.681,82.07,198.447,82.836,198.447,83.779z"/>
<path fill="#7A9AA8" d="M121.955,45.452c0,0.949-0.767,1.708-1.709,1.708c-0.943,0-1.709-0.759-1.709-1.708  c0-0.943,0.766-1.709,1.709-1.709C121.188,43.743,121.955,44.509,121.955,45.452z"/>
<path fill="#7A9AA8" d="M104.377,51.555c0,0.949-0.767,1.709-1.709,1.709s-1.709-0.76-1.709-1.709c0-0.943,0.767-1.709,1.709-1.709  S104.377,50.612,104.377,51.555z"/>
<path fill="#7A9AA8" d="M71.176,55.786c0,0.949-0.766,1.709-1.709,1.709c-0.942,0-1.708-0.76-1.708-1.709  c0-0.943,0.766-1.709,1.708-1.709C70.41,54.077,71.176,54.843,71.176,55.786z"/>
<path fill="#7A9AA8" d="M117.479,50.741c0,0.95-0.767,1.709-1.709,1.709c-0.943,0-1.709-0.759-1.709-1.709  c0-0.942,0.766-1.709,1.709-1.709C116.712,49.032,117.479,49.798,117.479,50.741z"/>
<path fill="#7A9AA8" d="M183.148,22.667c0,0.949-0.766,1.709-1.709,1.709c-0.942,0-1.708-0.76-1.708-1.709  c0-0.943,0.766-1.709,1.708-1.709C182.382,20.958,183.148,21.724,183.148,22.667z"/>
<path fill="#7A9AA8" d="M124.07,60.587c0,0.949-0.767,1.709-1.709,1.709c-0.943,0-1.709-0.76-1.709-1.709  c0-0.943,0.766-1.709,1.709-1.709C123.304,58.878,124.07,59.645,124.07,60.587z"/>
<path fill="#7A9AA8" d="M136.114,43.58c0,0.95-0.767,1.709-1.709,1.709s-1.709-0.759-1.709-1.709c0-0.942,0.767-1.708,1.709-1.708  S136.114,42.637,136.114,43.58z"/>
<path fill="#7A9AA8" d="M122.361,50.904c0,0.949-0.767,1.708-1.709,1.708s-1.709-0.759-1.709-1.708c0-0.943,0.767-1.709,1.709-1.709  S122.361,49.961,122.361,50.904z"/>
<path fill="#7A9AA8" d="M155.237,34.384c0,0.95-0.766,1.709-1.709,1.709c-0.942,0-1.709-0.759-1.709-1.709  c0-0.942,0.767-1.708,1.709-1.708C154.471,32.676,155.237,33.442,155.237,34.384z"/>
<path fill="#7A9AA8" d="M120.246,47.974c0,0.949-0.767,1.709-1.709,1.709s-1.709-0.76-1.709-1.709c0-0.942,0.767-1.709,1.709-1.709  S120.246,47.032,120.246,47.974z"/>
<path fill="#7A9AA8" d="M120.246,53.182c0,0.949-0.767,1.709-1.709,1.709s-1.709-0.76-1.709-1.709c0-0.942,0.767-1.709,1.709-1.709  S120.246,52.24,120.246,53.182z"/>
<path fill="#7A9AA8" d="M102.506,66.365c0,0.949-0.767,1.709-1.709,1.709s-1.709-0.76-1.709-1.709c0-0.942,0.767-1.709,1.709-1.709  S102.506,65.422,102.506,66.365z"/>
<path fill="#7A9AA8" d="M153.935,45.94c0,0.949-0.766,1.708-1.708,1.708c-0.943,0-1.709-0.759-1.709-1.708  c0-0.943,0.766-1.709,1.709-1.709C153.168,44.231,153.935,44.997,153.935,45.94z"/>
<path fill="#7A9AA8" d="M138.88,53.67c0,0.949-0.766,1.709-1.709,1.709c-0.942,0-1.708-0.76-1.708-1.709  c0-0.942,0.766-1.709,1.708-1.709C138.114,51.961,138.88,52.728,138.88,53.67z"/>
<path fill="#7A9AA8" d="M138.555,44.8c0,0.95-0.767,1.709-1.709,1.709c-0.943,0-1.709-0.759-1.709-1.709  c0-0.942,0.766-1.708,1.709-1.708C137.789,43.092,138.555,43.858,138.555,44.8z"/>
<path fill="#7A9AA8" d="M156.702,53.101c0,0.95-0.767,1.709-1.709,1.709s-1.709-0.759-1.709-1.709c0-0.942,0.767-1.708,1.709-1.708  S156.702,52.158,156.702,53.101z"/>
<path fill="#7A9AA8" d="M121.059,59.041c0,0.95-0.766,1.709-1.708,1.709c-0.943,0-1.709-0.759-1.709-1.709  c0-0.942,0.766-1.709,1.709-1.709C120.293,57.332,121.059,58.099,121.059,59.041z"/>
<path fill="#7A9AA8" d="M130.173,46.265c0,0.95-0.767,1.709-1.709,1.709s-1.709-0.759-1.709-1.709c0-0.942,0.767-1.709,1.709-1.709  S130.173,45.323,130.173,46.265z"/>
<path fill="#7A9AA8" d="M132.533,27.061c0,0.95-0.766,1.709-1.709,1.709c-0.942,0-1.709-0.759-1.709-1.709  c0-0.942,0.767-1.708,1.709-1.708C131.767,25.352,132.533,26.118,132.533,27.061z"/>
<path fill="#7A9AA8" d="M126.104,49.602c0,0.949-0.766,1.709-1.709,1.709c-0.942,0-1.709-0.76-1.709-1.709  c0-0.942,0.767-1.709,1.709-1.709C125.338,47.893,126.104,48.659,126.104,49.602z"/>
<path fill="#7A9AA8" d="M139.938,47.648c0,0.95-0.767,1.709-1.709,1.709c-0.943,0-1.709-0.759-1.709-1.709  c0-0.942,0.766-1.708,1.709-1.708C139.172,45.94,139.938,46.706,139.938,47.648z"/>
<path fill="#7A9AA8" d="M121.955,47.974c0,0.949-0.767,1.709-1.709,1.709c-0.943,0-1.709-0.76-1.709-1.709  c0-0.942,0.766-1.709,1.709-1.709C121.188,46.265,121.955,47.032,121.955,47.974z"/>
<path fill="#7A9AA8" d="M139.938,64.249c0,0.95-0.767,1.709-1.709,1.709c-0.943,0-1.709-0.759-1.709-1.709  c0-0.942,0.766-1.709,1.709-1.709C139.172,62.54,139.938,63.307,139.938,64.249z"/>
<path fill="#7A9AA8" d="M142.624,50.578c0,0.949-0.766,1.709-1.709,1.709c-0.942,0-1.708-0.76-1.708-1.709  c0-0.942,0.766-1.709,1.708-1.709C141.857,48.869,142.624,49.636,142.624,50.578z"/>
<path fill="#7A9AA8" d="M125.047,24.538c0,0.949-0.767,1.709-1.709,1.709c-0.943,0-1.709-0.76-1.709-1.709  c0-0.942,0.766-1.709,1.709-1.709C124.28,22.829,125.047,23.596,125.047,24.538z"/>
<path fill="#7A9AA8" d="M154.098,58.228c0,0.949-0.767,1.708-1.709,1.708s-1.709-0.759-1.709-1.708c0-0.943,0.767-1.709,1.709-1.709  S154.098,57.285,154.098,58.228z"/>
<path fill="#7A9AA8" d="M174.278,44.394c0,0.95-0.766,1.709-1.708,1.709c-0.943,0-1.709-0.759-1.709-1.709  c0-0.942,0.766-1.709,1.709-1.709C173.512,42.685,174.278,43.451,174.278,44.394z"/>
<path fill="#7A9AA8" d="M83.057,63.272c0,0.95-0.766,1.709-1.709,1.709c-0.942,0-1.709-0.759-1.709-1.709  c0-0.942,0.767-1.708,1.709-1.708C82.291,61.564,83.057,62.33,83.057,63.272z"/>
<path fill="#7A9AA8" d="M95.101,40.895c0,0.949-0.766,1.709-1.709,1.709c-0.942,0-1.708-0.76-1.708-1.709  c0-0.943,0.766-1.709,1.708-1.709C94.334,39.186,95.101,39.952,95.101,40.895z"/>
<path fill="#7A9AA8" d="M124.07,47.648c0,0.95-0.767,1.709-1.709,1.709c-0.943,0-1.709-0.759-1.709-1.709  c0-0.942,0.766-1.708,1.709-1.708C123.304,45.94,124.07,46.706,124.07,47.648z"/>
<path fill="#7A9AA8" d="M142.135,70.759c0,0.949-0.766,1.709-1.708,1.709c-0.943,0-1.709-0.76-1.709-1.709  c0-0.943,0.766-1.709,1.709-1.709C141.369,69.05,142.135,69.816,142.135,70.759z"/>
<path fill="#7A9AA8" d="M126.104,62.215c0,0.949-0.766,1.709-1.709,1.709c-0.942,0-1.709-0.76-1.709-1.709  c0-0.943,0.767-1.709,1.709-1.709C125.338,60.506,126.104,61.272,126.104,62.215z"/>
<path fill="#7A9AA8" d="M150.924,51.799c0,0.949-0.766,1.709-1.709,1.709c-0.942,0-1.708-0.76-1.708-1.709  c0-0.943,0.766-1.709,1.708-1.709C150.158,50.09,150.924,50.856,150.924,51.799z"/>
<line fill="none" stroke="#F47920" stroke-width="2.5" stroke-linecap="round" stroke-linejoin="round" stroke-miterlimit="10" x1="37.121" y1="66.141" x2="218.587" y2="34.161"/>
<g>
	<path d="M0,103.715h3.375v0.391H0V103.715z"/>
	<path d="M3.618,105.767c0.004-0.234,0.045-0.441,0.121-0.621c0.077-0.18,0.178-0.342,0.304-0.486   c0.125-0.144,0.268-0.276,0.425-0.395c0.158-0.119,0.32-0.234,0.486-0.344s0.332-0.223,0.496-0.337   c0.164-0.115,0.312-0.237,0.442-0.368c0.131-0.131,0.229-0.265,0.294-0.402c0.065-0.137,0.098-0.3,0.098-0.489   c0-0.153-0.028-0.289-0.084-0.409c-0.056-0.119-0.133-0.22-0.229-0.304c-0.097-0.083-0.209-0.146-0.337-0.189   c-0.128-0.042-0.264-0.064-0.408-0.064c-0.194,0-0.359,0.036-0.496,0.108c-0.138,0.072-0.249,0.169-0.334,0.291   c-0.085,0.121-0.147,0.261-0.186,0.418c-0.038,0.157-0.055,0.324-0.05,0.5H3.733c-0.005-0.243,0.023-0.467,0.084-0.672   c0.061-0.205,0.154-0.381,0.28-0.53s0.285-0.264,0.476-0.348c0.191-0.083,0.415-0.125,0.671-0.125c0.207,0,0.399,0.028,0.577,0.084   s0.333,0.14,0.466,0.25c0.133,0.11,0.236,0.249,0.311,0.415s0.111,0.36,0.111,0.581c0,0.198-0.033,0.378-0.098,0.54   c-0.065,0.162-0.153,0.31-0.264,0.445c-0.11,0.135-0.236,0.26-0.378,0.375c-0.142,0.115-0.291,0.222-0.449,0.321   c-0.112,0.077-0.245,0.161-0.398,0.253c-0.153,0.092-0.3,0.195-0.442,0.307c-0.142,0.113-0.267,0.235-0.375,0.368   s-0.176,0.278-0.203,0.435H6.73v0.392H3.618z"/>
	<path d="M9.845,101.228c0.214,0.151,0.38,0.343,0.5,0.577c0.119,0.234,0.2,0.495,0.243,0.783c0.042,0.288,0.064,0.569,0.064,0.844   c0,0.279-0.021,0.562-0.064,0.851c-0.043,0.288-0.124,0.549-0.243,0.783c-0.119,0.234-0.286,0.425-0.5,0.574   s-0.494,0.223-0.84,0.223c-0.342,0-0.621-0.075-0.837-0.223s-0.384-0.339-0.503-0.574c-0.119-0.234-0.2-0.495-0.243-0.783   c-0.042-0.288-0.064-0.569-0.064-0.844c0-0.279,0.021-0.562,0.064-0.851c0.043-0.288,0.124-0.549,0.243-0.783   c0.119-0.234,0.287-0.426,0.503-0.577c0.216-0.15,0.495-0.226,0.837-0.226C9.351,101.001,9.631,101.077,9.845,101.228z    M8.356,101.568c-0.162,0.14-0.285,0.313-0.368,0.52c-0.083,0.207-0.139,0.432-0.166,0.675c-0.027,0.243-0.041,0.466-0.041,0.668   c0,0.207,0.014,0.431,0.041,0.671c0.027,0.241,0.082,0.466,0.166,0.675c0.083,0.209,0.206,0.384,0.368,0.523   c0.162,0.14,0.378,0.209,0.648,0.209s0.486-0.07,0.648-0.209c0.162-0.139,0.285-0.314,0.368-0.523   c0.083-0.209,0.138-0.434,0.165-0.675c0.027-0.241,0.041-0.464,0.041-0.671c0-0.203-0.013-0.425-0.041-0.668   c-0.027-0.243-0.082-0.468-0.165-0.675c-0.083-0.207-0.206-0.38-0.368-0.52c-0.162-0.139-0.378-0.209-0.648-0.209   S8.519,101.429,8.356,101.568z"/>
	<path d="M12.909,101.1c0.137,0.065,0.249,0.155,0.334,0.27s0.149,0.25,0.189,0.405c0.041,0.155,0.061,0.323,0.061,0.503   s-0.021,0.348-0.061,0.503c-0.04,0.155-0.104,0.29-0.189,0.405s-0.197,0.205-0.334,0.27c-0.137,0.065-0.3,0.098-0.489,0.098   s-0.352-0.033-0.489-0.098c-0.138-0.065-0.249-0.155-0.334-0.27s-0.148-0.25-0.189-0.405s-0.061-0.323-0.061-0.503   s0.02-0.348,0.061-0.503s0.104-0.29,0.189-0.405s0.197-0.205,0.334-0.27c0.137-0.065,0.3-0.098,0.489-0.098   S12.772,101.034,12.909,101.1z M12.065,101.396c-0.092,0.061-0.166,0.14-0.219,0.236c-0.054,0.097-0.091,0.203-0.111,0.317   c-0.021,0.115-0.03,0.226-0.03,0.334s0.01,0.218,0.03,0.331c0.02,0.113,0.057,0.216,0.111,0.311   c0.054,0.095,0.127,0.172,0.219,0.233s0.21,0.091,0.354,0.091c0.139,0,0.255-0.031,0.348-0.091s0.165-0.138,0.219-0.233   c0.054-0.094,0.092-0.198,0.115-0.311c0.022-0.112,0.034-0.223,0.034-0.331s-0.011-0.219-0.034-0.334s-0.061-0.221-0.115-0.317   s-0.127-0.176-0.219-0.236s-0.208-0.091-0.348-0.091C12.276,101.305,12.158,101.336,12.065,101.396z M15.539,100.874l-3.051,5.116   h-0.324l3.058-5.116H15.539z M15.873,103.415c0.137,0.065,0.249,0.155,0.334,0.27s0.148,0.25,0.189,0.405s0.061,0.323,0.061,0.503   c0,0.18-0.021,0.348-0.061,0.503c-0.041,0.155-0.104,0.29-0.189,0.405s-0.197,0.204-0.334,0.267s-0.3,0.095-0.489,0.095   s-0.353-0.032-0.49-0.095s-0.249-0.152-0.334-0.267s-0.148-0.25-0.189-0.405c-0.041-0.155-0.061-0.323-0.061-0.503   c0-0.18,0.02-0.348,0.061-0.503s0.104-0.291,0.189-0.405s0.197-0.205,0.334-0.27c0.137-0.065,0.301-0.098,0.49-0.098   S15.735,103.35,15.873,103.415z M15.029,103.712c-0.092,0.061-0.166,0.139-0.219,0.236c-0.054,0.097-0.091,0.203-0.112,0.317   c-0.02,0.115-0.03,0.226-0.03,0.334c0,0.108,0.01,0.219,0.03,0.331c0.021,0.112,0.058,0.216,0.112,0.311   c0.054,0.094,0.127,0.172,0.219,0.233c0.092,0.061,0.21,0.091,0.354,0.091c0.139,0,0.255-0.03,0.348-0.091   c0.092-0.061,0.165-0.139,0.219-0.233c0.054-0.095,0.092-0.198,0.115-0.311s0.034-0.223,0.034-0.331   c0-0.108-0.011-0.219-0.034-0.334s-0.061-0.22-0.115-0.317c-0.054-0.097-0.127-0.175-0.219-0.236   c-0.092-0.061-0.208-0.091-0.348-0.091C15.239,103.621,15.121,103.651,15.029,103.712z"/>
</g>
<g>
	<path d="M6.001,78.497h3.375v0.391H6.001V78.497z"/>
	<path d="M10.534,76.705c0.15-0.016,0.281-0.053,0.392-0.111c0.11-0.059,0.202-0.147,0.276-0.267s0.127-0.287,0.159-0.503h0.344   v4.725h-0.425v-3.51h-1.249v-0.304C10.215,76.73,10.383,76.721,10.534,76.705z"/>
	<path d="M15.846,76.009c0.214,0.151,0.38,0.343,0.5,0.577c0.119,0.234,0.2,0.495,0.243,0.783c0.042,0.288,0.064,0.569,0.064,0.844   c0,0.279-0.021,0.562-0.064,0.851c-0.043,0.288-0.124,0.549-0.243,0.783c-0.119,0.234-0.286,0.425-0.5,0.574   s-0.494,0.223-0.84,0.223c-0.342,0-0.621-0.075-0.837-0.223s-0.384-0.339-0.503-0.574c-0.119-0.234-0.2-0.495-0.243-0.783   c-0.042-0.288-0.064-0.569-0.064-0.844c0-0.279,0.021-0.562,0.064-0.851c0.043-0.288,0.124-0.549,0.243-0.783   c0.119-0.234,0.287-0.426,0.503-0.577c0.216-0.15,0.495-0.226,0.837-0.226C15.352,75.783,15.632,75.859,15.846,76.009z    M14.357,76.35c-0.162,0.14-0.285,0.313-0.368,0.52c-0.083,0.207-0.139,0.432-0.166,0.675c-0.027,0.243-0.041,0.466-0.041,0.668   c0,0.207,0.014,0.431,0.041,0.671c0.027,0.241,0.082,0.466,0.166,0.675c0.083,0.209,0.206,0.384,0.368,0.523   c0.162,0.14,0.378,0.209,0.648,0.209s0.486-0.07,0.648-0.209c0.162-0.139,0.285-0.314,0.368-0.523   c0.083-0.209,0.138-0.434,0.165-0.675c0.027-0.241,0.041-0.464,0.041-0.671c0-0.203-0.013-0.425-0.041-0.668   c-0.027-0.243-0.082-0.468-0.165-0.675c-0.083-0.207-0.206-0.38-0.368-0.52c-0.162-0.139-0.378-0.209-0.648-0.209   S14.52,76.211,14.357,76.35z"/>
</g>
<g>
	<path d="M15.846,50.791c0.214,0.151,0.38,0.343,0.5,0.577c0.119,0.234,0.2,0.495,0.243,0.783c0.042,0.288,0.064,0.569,0.064,0.844   c0,0.279-0.021,0.562-0.064,0.851c-0.043,0.288-0.124,0.549-0.243,0.783c-0.119,0.234-0.286,0.425-0.5,0.574   s-0.494,0.223-0.84,0.223c-0.342,0-0.621-0.075-0.837-0.223s-0.384-0.339-0.503-0.574c-0.119-0.234-0.2-0.495-0.243-0.783   c-0.042-0.288-0.064-0.569-0.064-0.844c0-0.279,0.021-0.562,0.064-0.851c0.043-0.288,0.124-0.549,0.243-0.783   c0.119-0.234,0.287-0.426,0.503-0.577c0.216-0.15,0.495-0.226,0.837-0.226C15.352,50.565,15.632,50.641,15.846,50.791z    M14.357,51.132c-0.162,0.14-0.285,0.313-0.368,0.52c-0.083,0.207-0.139,0.432-0.166,0.675c-0.027,0.243-0.041,0.466-0.041,0.668   c0,0.207,0.014,0.431,0.041,0.671c0.027,0.241,0.082,0.466,0.166,0.675c0.083,0.209,0.206,0.384,0.368,0.523   c0.162,0.14,0.378,0.209,0.648,0.209s0.486-0.07,0.648-0.209c0.162-0.139,0.285-0.314,0.368-0.523   c0.083-0.209,0.138-0.434,0.165-0.675c0.027-0.241,0.041-0.464,0.041-0.671c0-0.203-0.013-0.425-0.041-0.668   c-0.027-0.243-0.082-0.468-0.165-0.675c-0.083-0.207-0.206-0.38-0.368-0.52c-0.162-0.139-0.378-0.209-0.648-0.209   S14.52,50.993,14.357,51.132z"/>
</g>
<g>
	<path d="M10.534,26.268c0.15-0.016,0.281-0.053,0.392-0.111c0.11-0.059,0.202-0.147,0.276-0.267s0.127-0.287,0.159-0.503h0.344   v4.725h-0.425v-3.51h-1.249v-0.304C10.215,26.294,10.383,26.284,10.534,26.268z"/>
	<path d="M15.846,25.573c0.214,0.151,0.38,0.343,0.5,0.577c0.119,0.234,0.2,0.495,0.243,0.783c0.042,0.288,0.064,0.569,0.064,0.844   c0,0.279-0.021,0.562-0.064,0.851c-0.043,0.288-0.124,0.549-0.243,0.783c-0.119,0.234-0.286,0.425-0.5,0.574   s-0.494,0.223-0.84,0.223c-0.342,0-0.621-0.075-0.837-0.223s-0.384-0.339-0.503-0.574c-0.119-0.234-0.2-0.495-0.243-0.783   c-0.042-0.288-0.064-0.569-0.064-0.844c0-0.279,0.021-0.562,0.064-0.851c0.043-0.288,0.124-0.549,0.243-0.783   c0.119-0.234,0.287-0.426,0.503-0.577c0.216-0.15,0.495-0.226,0.837-0.226C15.352,25.347,15.632,25.422,15.846,25.573z    M14.357,25.914c-0.162,0.14-0.285,0.313-0.368,0.52c-0.083,0.207-0.139,0.432-0.166,0.675c-0.027,0.243-0.041,0.466-0.041,0.668   c0,0.207,0.014,0.431,0.041,0.671c0.027,0.241,0.082,0.466,0.166,0.675c0.083,0.209,0.206,0.384,0.368,0.523   c0.162,0.14,0.378,0.209,0.648,0.209s0.486-0.07,0.648-0.209c0.162-0.139,0.285-0.314,0.368-0.523   c0.083-0.209,0.138-0.434,0.165-0.675c0.027-0.241,0.041-0.464,0.041-0.671c0-0.203-0.013-0.425-0.041-0.668   c-0.027-0.243-0.082-0.468-0.165-0.675c-0.083-0.207-0.206-0.38-0.368-0.52c-0.162-0.139-0.378-0.209-0.648-0.209   S14.52,25.774,14.357,25.914z"/>
</g>
<g>
	<path d="M3.618,4.894C3.623,4.66,3.663,4.453,3.739,4.272c0.077-0.18,0.178-0.342,0.304-0.486c0.125-0.144,0.268-0.276,0.425-0.395   c0.158-0.119,0.32-0.234,0.486-0.344S5.286,2.825,5.451,2.71c0.164-0.115,0.312-0.237,0.442-0.368   C6.023,2.211,6.121,2.078,6.187,1.94c0.065-0.137,0.098-0.3,0.098-0.489c0-0.153-0.028-0.289-0.084-0.409   C6.144,0.923,6.067,0.822,5.97,0.739C5.874,0.656,5.761,0.593,5.633,0.55C5.504,0.507,5.369,0.486,5.225,0.486   c-0.194,0-0.359,0.036-0.496,0.108C4.591,0.666,4.479,0.763,4.394,0.884C4.309,1.005,4.247,1.145,4.208,1.303   c-0.038,0.157-0.055,0.324-0.05,0.5H3.733C3.728,1.559,3.756,1.335,3.817,1.13c0.061-0.205,0.154-0.381,0.28-0.53   s0.285-0.264,0.476-0.348C4.764,0.17,4.988,0.128,5.245,0.128c0.207,0,0.399,0.028,0.577,0.084s0.333,0.14,0.466,0.25   c0.133,0.11,0.236,0.249,0.311,0.415s0.111,0.36,0.111,0.581c0,0.198-0.033,0.378-0.098,0.54C6.546,2.16,6.458,2.308,6.348,2.443   c-0.11,0.135-0.236,0.26-0.378,0.375C5.829,2.933,5.679,3.04,5.521,3.139C5.409,3.215,5.276,3.299,5.123,3.392   c-0.153,0.092-0.3,0.195-0.442,0.307C4.54,3.812,4.415,3.934,4.307,4.067S4.131,4.345,4.104,4.502H6.73v0.392H3.618z"/>
	<path d="M9.845,0.354c0.214,0.151,0.38,0.343,0.5,0.577c0.119,0.234,0.2,0.495,0.243,0.783c0.042,0.288,0.064,0.569,0.064,0.844   c0,0.279-0.021,0.562-0.064,0.851c-0.043,0.288-0.124,0.549-0.243,0.783c-0.119,0.234-0.286,0.425-0.5,0.574   s-0.494,0.223-0.84,0.223c-0.342,0-0.621-0.075-0.837-0.223S7.784,4.426,7.665,4.191c-0.119-0.234-0.2-0.495-0.243-0.783   C7.379,3.121,7.357,2.839,7.357,2.565c0-0.279,0.021-0.562,0.064-0.851c0.043-0.288,0.124-0.549,0.243-0.783   c0.119-0.234,0.287-0.426,0.503-0.577c0.216-0.15,0.495-0.226,0.837-0.226C9.351,0.128,9.631,0.204,9.845,0.354z M8.356,0.695   c-0.162,0.14-0.285,0.313-0.368,0.52C7.905,1.422,7.85,1.647,7.823,1.89C7.796,2.133,7.783,2.355,7.783,2.558   c0,0.207,0.014,0.431,0.041,0.671C7.85,3.471,7.905,3.695,7.989,3.905c0.083,0.209,0.206,0.384,0.368,0.523   c0.162,0.14,0.378,0.209,0.648,0.209s0.486-0.07,0.648-0.209c0.162-0.139,0.285-0.314,0.368-0.523   c0.083-0.209,0.138-0.434,0.165-0.675c0.027-0.241,0.041-0.464,0.041-0.671c0-0.203-0.013-0.425-0.041-0.668   c-0.027-0.243-0.082-0.468-0.165-0.675c-0.083-0.207-0.206-0.38-0.368-0.52C9.49,0.556,9.274,0.486,9.004,0.486   S8.519,0.556,8.356,0.695z"/>
	<path d="M12.909,0.226c0.137,0.065,0.249,0.155,0.334,0.27s0.149,0.25,0.189,0.405c0.041,0.155,0.061,0.323,0.061,0.503   s-0.021,0.348-0.061,0.503c-0.04,0.155-0.104,0.29-0.189,0.405s-0.197,0.205-0.334,0.27c-0.137,0.065-0.3,0.098-0.489,0.098   s-0.352-0.033-0.489-0.098c-0.138-0.065-0.249-0.155-0.334-0.27s-0.148-0.25-0.189-0.405s-0.061-0.323-0.061-0.503   s0.02-0.348,0.061-0.503s0.104-0.29,0.189-0.405s0.197-0.205,0.334-0.27c0.137-0.065,0.3-0.098,0.489-0.098   S12.772,0.161,12.909,0.226z M12.065,0.523c-0.092,0.061-0.166,0.14-0.219,0.236c-0.054,0.097-0.091,0.203-0.111,0.317   c-0.021,0.115-0.03,0.226-0.03,0.334s0.01,0.218,0.03,0.331c0.02,0.113,0.057,0.216,0.111,0.311   c0.054,0.095,0.127,0.172,0.219,0.233s0.21,0.091,0.354,0.091c0.139,0,0.255-0.031,0.348-0.091s0.165-0.138,0.219-0.233   c0.054-0.094,0.092-0.198,0.115-0.311c0.022-0.112,0.034-0.223,0.034-0.331s-0.011-0.219-0.034-0.334s-0.061-0.221-0.115-0.317   s-0.127-0.176-0.219-0.236s-0.208-0.091-0.348-0.091C12.276,0.432,12.158,0.462,12.065,0.523z M15.539,0l-3.051,5.116h-0.324   L15.221,0H15.539z M15.873,2.541c0.137,0.065,0.249,0.155,0.334,0.27s0.148,0.25,0.189,0.405s0.061,0.323,0.061,0.503   c0,0.18-0.021,0.348-0.061,0.503c-0.041,0.155-0.104,0.29-0.189,0.405s-0.197,0.204-0.334,0.267s-0.3,0.095-0.489,0.095   s-0.353-0.032-0.49-0.095s-0.249-0.152-0.334-0.267s-0.148-0.25-0.189-0.405C14.33,4.067,14.31,3.899,14.31,3.719   c0-0.18,0.02-0.348,0.061-0.503s0.104-0.291,0.189-0.405s0.197-0.205,0.334-0.27c0.137-0.065,0.301-0.098,0.49-0.098   S15.735,2.476,15.873,2.541z M15.029,2.838c-0.092,0.061-0.166,0.139-0.219,0.236c-0.054,0.097-0.091,0.203-0.112,0.317   c-0.02,0.115-0.03,0.226-0.03,0.334c0,0.108,0.01,0.219,0.03,0.331c0.021,0.112,0.058,0.216,0.112,0.311   c0.054,0.094,0.127,0.172,0.219,0.233c0.092,0.061,0.21,0.091,0.354,0.091c0.139,0,0.255-0.03,0.348-0.091   c0.092-0.061,0.165-0.139,0.219-0.233c0.054-0.095,0.092-0.198,0.115-0.311s0.034-0.223,0.034-0.331   c0-0.108-0.011-0.219-0.034-0.334s-0.061-0.22-0.115-0.317c-0.054-0.097-0.127-0.175-0.219-0.236   c-0.092-0.061-0.208-0.091-0.348-0.091C15.239,2.747,15.121,2.777,15.029,2.838z"/>
</g>
<g>
	<path d="M14.684,124.252h3.375v0.391h-3.375V124.252z"/>
	<path d="M19.216,122.459c0.15-0.016,0.281-0.053,0.392-0.111c0.11-0.059,0.202-0.147,0.276-0.267s0.127-0.287,0.159-0.503h0.344   v4.725h-0.425v-3.51h-1.249v-0.304C18.898,122.485,19.065,122.476,19.216,122.459z"/>
	<path d="M24.528,121.764c0.214,0.151,0.38,0.343,0.5,0.577c0.119,0.234,0.2,0.495,0.243,0.783c0.042,0.288,0.064,0.569,0.064,0.844   c0,0.279-0.021,0.562-0.064,0.851c-0.043,0.288-0.124,0.549-0.243,0.783c-0.119,0.234-0.286,0.425-0.5,0.574   s-0.494,0.223-0.84,0.223c-0.342,0-0.621-0.075-0.837-0.223s-0.384-0.339-0.503-0.574c-0.119-0.234-0.2-0.495-0.243-0.783   c-0.042-0.288-0.064-0.569-0.064-0.844c0-0.279,0.021-0.562,0.064-0.851c0.043-0.288,0.124-0.549,0.243-0.783   c0.119-0.234,0.287-0.426,0.503-0.577c0.216-0.15,0.495-0.226,0.837-0.226C24.035,121.538,24.314,121.614,24.528,121.764z    M23.04,122.105c-0.162,0.14-0.285,0.313-0.368,0.52c-0.083,0.207-0.139,0.432-0.166,0.675c-0.027,0.243-0.041,0.466-0.041,0.668   c0,0.207,0.014,0.431,0.041,0.671c0.027,0.241,0.082,0.466,0.166,0.675c0.083,0.209,0.206,0.384,0.368,0.523   c0.162,0.14,0.378,0.209,0.648,0.209s0.486-0.07,0.648-0.209c0.162-0.139,0.285-0.314,0.368-0.523   c0.083-0.209,0.138-0.434,0.165-0.675c0.027-0.241,0.041-0.464,0.041-0.671c0-0.203-0.013-0.425-0.041-0.668   c-0.027-0.243-0.082-0.468-0.165-0.675c-0.083-0.207-0.206-0.38-0.368-0.52c-0.162-0.139-0.378-0.209-0.648-0.209   S23.202,121.966,23.04,122.105z"/>
	<path d="M27.593,121.636c0.137,0.065,0.249,0.155,0.334,0.27s0.149,0.25,0.189,0.405c0.041,0.155,0.061,0.323,0.061,0.503   s-0.021,0.348-0.061,0.503c-0.04,0.155-0.104,0.29-0.189,0.405s-0.197,0.205-0.334,0.27c-0.137,0.065-0.3,0.098-0.489,0.098   s-0.352-0.033-0.489-0.098c-0.138-0.065-0.249-0.155-0.334-0.27s-0.148-0.25-0.189-0.405s-0.061-0.323-0.061-0.503   s0.02-0.348,0.061-0.503s0.104-0.29,0.189-0.405s0.197-0.205,0.334-0.27c0.137-0.065,0.3-0.098,0.489-0.098   S27.456,121.571,27.593,121.636z M26.749,121.933c-0.092,0.061-0.166,0.14-0.219,0.236c-0.054,0.097-0.091,0.203-0.111,0.317   c-0.021,0.115-0.03,0.226-0.03,0.334s0.01,0.218,0.03,0.331c0.02,0.113,0.057,0.216,0.111,0.311   c0.054,0.095,0.127,0.172,0.219,0.233s0.21,0.091,0.354,0.091c0.139,0,0.255-0.031,0.348-0.091s0.165-0.138,0.219-0.233   c0.054-0.094,0.092-0.198,0.115-0.311c0.022-0.112,0.034-0.223,0.034-0.331s-0.011-0.219-0.034-0.334s-0.061-0.221-0.115-0.317   s-0.127-0.176-0.219-0.236s-0.208-0.091-0.348-0.091C26.959,121.842,26.841,121.873,26.749,121.933z M30.222,121.41l-3.051,5.116   h-0.324l3.058-5.116H30.222z M30.556,123.951c0.137,0.065,0.249,0.155,0.334,0.27s0.148,0.25,0.189,0.405s0.061,0.323,0.061,0.503   c0,0.18-0.021,0.348-0.061,0.503c-0.041,0.155-0.104,0.29-0.189,0.405s-0.197,0.204-0.334,0.267s-0.3,0.095-0.489,0.095   s-0.353-0.032-0.49-0.095s-0.249-0.152-0.334-0.267s-0.148-0.25-0.189-0.405c-0.041-0.155-0.061-0.323-0.061-0.503   c0-0.18,0.02-0.348,0.061-0.503s0.104-0.291,0.189-0.405s0.197-0.205,0.334-0.27c0.137-0.065,0.301-0.098,0.49-0.098   S30.419,123.886,30.556,123.951z M29.712,124.249c-0.092,0.061-0.166,0.139-0.219,0.236c-0.054,0.097-0.091,0.203-0.112,0.317   c-0.02,0.115-0.03,0.226-0.03,0.334c0,0.108,0.01,0.219,0.03,0.331c0.021,0.112,0.058,0.216,0.112,0.311   c0.054,0.094,0.127,0.172,0.219,0.233c0.092,0.061,0.21,0.091,0.354,0.091c0.139,0,0.255-0.03,0.348-0.091   c0.092-0.061,0.165-0.139,0.219-0.233c0.054-0.095,0.092-0.198,0.115-0.311s0.034-0.223,0.034-0.331   c0-0.108-0.011-0.219-0.034-0.334s-0.061-0.22-0.115-0.317c-0.054-0.097-0.127-0.175-0.219-0.236   c-0.092-0.061-0.208-0.091-0.348-0.091C29.923,124.157,29.805,124.188,29.712,124.249z"/>
</g>
<g>
	<path d="M67.856,124.252h3.375v0.391h-3.375V124.252z"/>
	<path d="M71.998,125.399c0.061,0.135,0.143,0.25,0.247,0.348c0.103,0.097,0.225,0.171,0.364,0.223s0.291,0.078,0.452,0.078   c0.185,0,0.349-0.035,0.493-0.105c0.144-0.069,0.268-0.164,0.372-0.283s0.182-0.257,0.236-0.412   c0.054-0.155,0.081-0.318,0.081-0.49c0-0.175-0.031-0.337-0.091-0.486c-0.061-0.148-0.144-0.278-0.25-0.388   c-0.105-0.11-0.233-0.197-0.381-0.26s-0.311-0.095-0.486-0.095c-0.216,0-0.417,0.048-0.601,0.146   c-0.185,0.097-0.335,0.235-0.453,0.415h-0.364l0.459-2.45h2.362v0.391h-2.065l-0.304,1.566l0.014,0.013   c0.117-0.139,0.265-0.248,0.445-0.324c0.18-0.077,0.365-0.115,0.554-0.115c0.243,0,0.462,0.041,0.658,0.121   c0.196,0.081,0.362,0.194,0.5,0.338c0.137,0.144,0.243,0.316,0.317,0.516s0.111,0.42,0.111,0.658c0,0.229-0.042,0.442-0.128,0.638   c-0.085,0.196-0.203,0.365-0.351,0.506c-0.148,0.142-0.323,0.252-0.523,0.331c-0.201,0.079-0.413,0.118-0.638,0.118   c-0.22,0-0.424-0.033-0.611-0.098c-0.187-0.065-0.349-0.16-0.486-0.284c-0.137-0.124-0.247-0.275-0.328-0.456   c-0.081-0.18-0.124-0.382-0.128-0.607H71.9C71.904,125.116,71.937,125.264,71.998,125.399z"/>
</g>
<g>
	<path d="M120.666,121.764c0.214,0.151,0.38,0.343,0.5,0.577c0.119,0.234,0.2,0.495,0.243,0.783   c0.042,0.288,0.064,0.569,0.064,0.844c0,0.279-0.021,0.562-0.064,0.851c-0.043,0.288-0.124,0.549-0.243,0.783   c-0.119,0.234-0.286,0.425-0.5,0.574s-0.494,0.223-0.84,0.223c-0.342,0-0.621-0.075-0.837-0.223s-0.384-0.339-0.503-0.574   c-0.119-0.234-0.2-0.495-0.243-0.783c-0.042-0.288-0.064-0.569-0.064-0.844c0-0.279,0.021-0.562,0.064-0.851   c0.043-0.288,0.124-0.549,0.243-0.783c0.119-0.234,0.287-0.426,0.503-0.577c0.216-0.15,0.495-0.226,0.837-0.226   C120.172,121.538,120.452,121.614,120.666,121.764z M119.177,122.105c-0.162,0.14-0.285,0.313-0.368,0.52   c-0.083,0.207-0.139,0.432-0.166,0.675c-0.027,0.243-0.041,0.466-0.041,0.668c0,0.207,0.014,0.431,0.041,0.671   c0.027,0.241,0.082,0.466,0.166,0.675c0.083,0.209,0.206,0.384,0.368,0.523c0.162,0.14,0.378,0.209,0.648,0.209   s0.486-0.07,0.648-0.209c0.162-0.139,0.285-0.314,0.368-0.523c0.083-0.209,0.138-0.434,0.165-0.675   c0.027-0.241,0.041-0.464,0.041-0.671c0-0.203-0.013-0.425-0.041-0.668c-0.027-0.243-0.082-0.468-0.165-0.675   c-0.083-0.207-0.206-0.38-0.368-0.52c-0.162-0.139-0.378-0.209-0.648-0.209S119.339,121.966,119.177,122.105z"/>
</g>
<g>
	<path d="M166.902,125.399c0.061,0.135,0.143,0.25,0.247,0.348c0.103,0.097,0.225,0.171,0.364,0.223s0.291,0.078,0.452,0.078   c0.185,0,0.349-0.035,0.493-0.105c0.144-0.069,0.268-0.164,0.372-0.283s0.182-0.257,0.236-0.412   c0.054-0.155,0.081-0.318,0.081-0.49c0-0.175-0.031-0.337-0.091-0.486c-0.061-0.148-0.144-0.278-0.25-0.388   c-0.105-0.11-0.233-0.197-0.381-0.26s-0.311-0.095-0.486-0.095c-0.216,0-0.417,0.048-0.601,0.146   c-0.185,0.097-0.335,0.235-0.453,0.415h-0.364l0.459-2.45h2.362v0.391h-2.065l-0.304,1.566l0.014,0.013   c0.117-0.139,0.265-0.248,0.445-0.324c0.18-0.077,0.365-0.115,0.554-0.115c0.243,0,0.462,0.041,0.658,0.121   c0.196,0.081,0.362,0.194,0.5,0.338c0.137,0.144,0.243,0.316,0.317,0.516s0.111,0.42,0.111,0.658c0,0.229-0.042,0.442-0.128,0.638   c-0.085,0.196-0.203,0.365-0.351,0.506c-0.148,0.142-0.323,0.252-0.523,0.331c-0.201,0.079-0.413,0.118-0.638,0.118   c-0.22,0-0.424-0.033-0.611-0.098c-0.187-0.065-0.349-0.16-0.486-0.284c-0.137-0.124-0.247-0.275-0.328-0.456   c-0.081-0.18-0.124-0.382-0.128-0.607h0.425C166.809,125.116,166.842,125.264,166.902,125.399z"/>
</g>
<g>
	<path d="M213.714,122.459c0.15-0.016,0.281-0.053,0.392-0.111c0.11-0.059,0.202-0.147,0.276-0.267s0.127-0.287,0.159-0.503h0.344   v4.725h-0.425v-3.51h-1.249v-0.304C213.396,122.485,213.563,122.476,213.714,122.459z"/>
	<path d="M219.026,121.764c0.214,0.151,0.38,0.343,0.5,0.577c0.119,0.234,0.2,0.495,0.243,0.783   c0.042,0.288,0.064,0.569,0.064,0.844c0,0.279-0.021,0.562-0.064,0.851c-0.043,0.288-0.124,0.549-0.243,0.783   c-0.119,0.234-0.286,0.425-0.5,0.574s-0.494,0.223-0.84,0.223c-0.342,0-0.621-0.075-0.837-0.223s-0.384-0.339-0.503-0.574   c-0.119-0.234-0.2-0.495-0.243-0.783c-0.042-0.288-0.064-0.569-0.064-0.844c0-0.279,0.021-0.562,0.064-0.851   c0.043-0.288,0.124-0.549,0.243-0.783c0.119-0.234,0.287-0.426,0.503-0.577c0.216-0.15,0.495-0.226,0.837-0.226   C218.532,121.538,218.812,121.614,219.026,121.764z M217.538,122.105c-0.162,0.14-0.285,0.313-0.368,0.52   c-0.083,0.207-0.139,0.432-0.166,0.675c-0.027,0.243-0.041,0.466-0.041,0.668c0,0.207,0.014,0.431,0.041,0.671   c0.027,0.241,0.082,0.466,0.166,0.675c0.083,0.209,0.206,0.384,0.368,0.523c0.162,0.14,0.378,0.209,0.648,0.209   s0.486-0.07,0.648-0.209c0.162-0.139,0.285-0.314,0.368-0.523c0.083-0.209,0.138-0.434,0.165-0.675   c0.027-0.241,0.041-0.464,0.041-0.671c0-0.203-0.013-0.425-0.041-0.668c-0.027-0.243-0.082-0.468-0.165-0.675   c-0.083-0.207-0.206-0.38-0.368-0.52c-0.162-0.139-0.378-0.209-0.648-0.209S217.7,121.966,217.538,122.105z"/>
</g>
<g>
	<path d="M259.009,122.459c0.151-0.016,0.281-0.053,0.392-0.111s0.203-0.147,0.277-0.267s0.127-0.287,0.158-0.503h0.345v4.725   h-0.426v-3.51h-1.249v-0.304C258.691,122.485,258.859,122.476,259.009,122.459z"/>
	<path d="M262.372,125.399c0.061,0.135,0.143,0.25,0.246,0.348c0.104,0.097,0.225,0.171,0.364,0.223s0.29,0.078,0.452,0.078   c0.185,0,0.349-0.035,0.493-0.105c0.144-0.069,0.268-0.164,0.371-0.283s0.183-0.257,0.236-0.412   c0.054-0.155,0.081-0.318,0.081-0.49c0-0.175-0.03-0.337-0.092-0.486c-0.061-0.148-0.144-0.278-0.249-0.388   c-0.106-0.11-0.233-0.197-0.382-0.26s-0.311-0.095-0.485-0.095c-0.217,0-0.417,0.048-0.602,0.146   c-0.185,0.097-0.335,0.235-0.452,0.415h-0.364l0.459-2.45h2.362v0.391h-2.065l-0.304,1.566l0.014,0.013   c0.117-0.139,0.266-0.248,0.445-0.324c0.18-0.077,0.364-0.115,0.554-0.115c0.243,0,0.462,0.041,0.658,0.121   c0.195,0.081,0.362,0.194,0.499,0.338c0.138,0.144,0.243,0.316,0.317,0.516s0.111,0.42,0.111,0.658   c0,0.229-0.043,0.442-0.128,0.638c-0.086,0.196-0.202,0.365-0.352,0.506c-0.148,0.142-0.322,0.252-0.522,0.331   c-0.2,0.079-0.413,0.118-0.638,0.118c-0.221,0-0.425-0.033-0.611-0.098c-0.187-0.065-0.349-0.16-0.486-0.284   c-0.137-0.124-0.246-0.275-0.327-0.456c-0.081-0.18-0.124-0.382-0.128-0.607h0.425C262.278,125.116,262.31,125.264,262.372,125.399   z"/>
	<path d="M267.386,121.636c0.138,0.065,0.249,0.155,0.334,0.27c0.086,0.115,0.148,0.25,0.189,0.405   c0.04,0.155,0.061,0.323,0.061,0.503s-0.021,0.348-0.061,0.503c-0.041,0.155-0.104,0.29-0.189,0.405   c-0.085,0.115-0.196,0.205-0.334,0.27c-0.138,0.065-0.301,0.098-0.489,0.098c-0.189,0-0.353-0.033-0.489-0.098   c-0.138-0.065-0.249-0.155-0.334-0.27c-0.086-0.115-0.148-0.25-0.189-0.405c-0.04-0.155-0.061-0.323-0.061-0.503   s0.021-0.348,0.061-0.503c0.041-0.155,0.104-0.29,0.189-0.405c0.085-0.115,0.196-0.205,0.334-0.27   c0.137-0.065,0.3-0.098,0.489-0.098C267.085,121.538,267.249,121.571,267.386,121.636z M266.542,121.933   c-0.092,0.061-0.165,0.14-0.22,0.236c-0.054,0.097-0.091,0.203-0.111,0.317c-0.02,0.115-0.03,0.226-0.03,0.334   s0.011,0.218,0.03,0.331c0.021,0.113,0.058,0.216,0.111,0.311c0.055,0.095,0.128,0.172,0.22,0.233s0.21,0.091,0.354,0.091   c0.14,0,0.255-0.031,0.348-0.091c0.092-0.061,0.165-0.138,0.22-0.233c0.054-0.094,0.092-0.198,0.114-0.311   c0.022-0.112,0.034-0.223,0.034-0.331s-0.012-0.219-0.034-0.334s-0.061-0.221-0.114-0.317c-0.055-0.097-0.128-0.176-0.22-0.236   c-0.093-0.061-0.208-0.091-0.348-0.091C266.752,121.842,266.634,121.873,266.542,121.933z M270.015,121.41l-3.051,5.116h-0.324   l3.058-5.116H270.015z M270.349,123.951c0.138,0.065,0.249,0.155,0.335,0.27c0.085,0.115,0.148,0.25,0.188,0.405   c0.041,0.155,0.061,0.323,0.061,0.503c0,0.18-0.02,0.348-0.061,0.503c-0.04,0.155-0.104,0.29-0.188,0.405   c-0.086,0.115-0.197,0.204-0.335,0.267c-0.137,0.063-0.3,0.095-0.489,0.095c-0.188,0-0.352-0.032-0.489-0.095   c-0.137-0.063-0.248-0.152-0.334-0.267s-0.148-0.25-0.188-0.405c-0.041-0.155-0.062-0.323-0.062-0.503   c0-0.18,0.021-0.348,0.062-0.503c0.04-0.155,0.103-0.291,0.188-0.405s0.197-0.205,0.334-0.27c0.138-0.065,0.301-0.098,0.489-0.098   C270.049,123.854,270.212,123.886,270.349,123.951z M269.505,124.249c-0.092,0.061-0.165,0.139-0.219,0.236   c-0.055,0.097-0.092,0.203-0.111,0.317c-0.021,0.115-0.03,0.226-0.03,0.334c0,0.108,0.01,0.219,0.03,0.331   c0.02,0.112,0.057,0.216,0.111,0.311c0.054,0.094,0.127,0.172,0.219,0.233c0.093,0.061,0.211,0.091,0.354,0.091   c0.14,0,0.256-0.03,0.348-0.091c0.093-0.061,0.166-0.139,0.22-0.233c0.054-0.095,0.092-0.198,0.114-0.311s0.034-0.223,0.034-0.331   c0-0.108-0.012-0.219-0.034-0.334s-0.061-0.22-0.114-0.317c-0.054-0.097-0.127-0.175-0.22-0.236   c-0.092-0.061-0.208-0.091-0.348-0.091C269.716,124.157,269.598,124.188,269.505,124.249z"/>
</g>
<line fill="none" stroke="#000000" stroke-width="0.5" stroke-linejoin="round" stroke-miterlimit="10" x1="20.709" y1="104.058" x2="23.165" y2="104.058"/>
<line fill="none" stroke="#000000" stroke-width="0.5" stroke-linejoin="round" stroke-miterlimit="10" x1="20.709" y1="91.399" x2="23.165" y2="91.399"/>
<line fill="none" stroke="#000000" stroke-width="0.5" stroke-linejoin="round" stroke-miterlimit="10" x1="20.709" y1="78.741" x2="23.165" y2="78.741"/>
<line fill="none" stroke="#000000" stroke-width="0.5" stroke-linejoin="round" stroke-miterlimit="10" x1="20.709" y1="66.083" x2="23.165" y2="66.083"/>
<line fill="none" stroke="#000000" stroke-width="0.5" stroke-linejoin="round" stroke-miterlimit="10" x1="20.709" y1="53.424" x2="23.165" y2="53.424"/>
<line fill="none" stroke="#000000" stroke-width="0.5" stroke-linejoin="round" stroke-miterlimit="10" x1="20.709" y1="40.766" x2="23.165" y2="40.766"/>
<line fill="none" stroke="#000000" stroke-width="0.5" stroke-linejoin="round" stroke-miterlimit="10" x1="20.709" y1="28.107" x2="23.165" y2="28.107"/>
<line fill="none" stroke="#000000" stroke-width="0.5" stroke-linejoin="round" stroke-miterlimit="10" x1="20.709" y1="15.449" x2="23.165" y2="15.449"/>
<line fill="none" stroke="#000000" stroke-width="0.5" stroke-linejoin="round" stroke-miterlimit="10" x1="20.709" y1="2.791" x2="23.165" y2="2.791"/>
<line fill="none" stroke="#000000" stroke-width="0.5" stroke-linejoin="round" stroke-miterlimit="10" x1="20.709" y1="116.716" x2="23.165" y2="116.716"/>
<line fill="none" stroke="#000000" stroke-width="0.5" stroke-linejoin="round" stroke-miterlimit="10" x1="23.125" y1="119.171" x2="23.125" y2="116.716"/>
<line fill="none" stroke="#000000" stroke-width="0.5" stroke-linejoin="round" stroke-miterlimit="10" x1="71.42" y1="119.171" x2="71.42" y2="116.716"/>
<line fill="none" stroke="#000000" stroke-width="0.5" stroke-linejoin="round" stroke-miterlimit="10" x1="119.717" y1="119.171" x2="119.717" y2="116.716"/>
<line fill="none" stroke="#000000" stroke-width="0.5" stroke-linejoin="round" stroke-miterlimit="10" x1="168.013" y1="119.171" x2="168.013" y2="116.716"/>
<line fill="none" stroke="#000000" stroke-width="0.5" stroke-linejoin="round" stroke-miterlimit="10" x1="216.309" y1="119.171" x2="216.309" y2="116.716"/>
<line fill="none" stroke="#000000" stroke-width="0.5" stroke-linejoin="round" stroke-miterlimit="10" x1="264.605" y1="119.171" x2="264.605" y2="116.716"/>
</svg>