<svg xmlns="http://www.w3.org/2000/svg" xmlns:xlink="http://www.w3.org/1999/xlink" version="1.1" x="0px" y="0px" width="271.152px" height="226.235px" viewBox="0 0 271.152 226.235" enable-background="new 0 0 271.152 226.235" xml:space="preserve">
<g id="Layer_1">
	
		<rect x="46.712" y="77.369" fill="none" stroke="#000000" stroke-width="0.5" stroke-miterlimit="10" width="42.789" height="25.883"/>
	<g>
		<path d="M63.01,90.804c-0.005,0.319,0.065,0.57,0.21,0.754s0.384,0.28,0.718,0.29v-1.754c-0.198-0.053-0.396-0.117-0.591-0.192    c-0.196-0.075-0.373-0.171-0.529-0.29c-0.157-0.118-0.284-0.267-0.381-0.446c-0.097-0.179-0.145-0.401-0.145-0.667    c0-0.232,0.045-0.436,0.134-0.612c0.089-0.177,0.21-0.324,0.362-0.442s0.328-0.209,0.526-0.272    c0.198-0.062,0.406-0.094,0.624-0.094v-0.565h0.312v0.565c0.218,0,0.423,0.029,0.616,0.087c0.193,0.058,0.361,0.145,0.504,0.261    c0.143,0.116,0.256,0.263,0.341,0.442c0.084,0.179,0.127,0.387,0.127,0.623h-0.827c-0.01-0.246-0.074-0.435-0.192-0.565    c-0.119-0.13-0.308-0.196-0.569-0.196v1.53c0.218,0.058,0.43,0.126,0.638,0.203c0.208,0.078,0.392,0.177,0.551,0.297    c0.16,0.121,0.288,0.271,0.384,0.449c0.097,0.179,0.145,0.399,0.145,0.66c0,0.271-0.045,0.506-0.134,0.707    c-0.089,0.201-0.211,0.368-0.366,0.5c-0.155,0.133-0.336,0.234-0.544,0.304c-0.208,0.07-0.433,0.11-0.674,0.12v0.566h-0.312V92.5    c-0.261-0.005-0.5-0.046-0.718-0.123c-0.218-0.077-0.404-0.187-0.559-0.33c-0.155-0.142-0.274-0.317-0.359-0.525    s-0.125-0.447-0.12-0.718H63.01z M63.938,87.729c-0.261,0-0.463,0.055-0.605,0.164c-0.143,0.108-0.214,0.291-0.214,0.547    c0,0.116,0.024,0.215,0.072,0.297c0.048,0.083,0.11,0.152,0.185,0.21c0.075,0.058,0.162,0.105,0.261,0.141    c0.099,0.037,0.2,0.067,0.301,0.091V87.729z M64.25,91.848c0.261-0.019,0.475-0.095,0.642-0.229    c0.167-0.133,0.25-0.344,0.25-0.634c0-0.135-0.025-0.249-0.076-0.341c-0.05-0.092-0.118-0.169-0.203-0.232    c-0.085-0.062-0.18-0.113-0.287-0.152c-0.106-0.039-0.215-0.072-0.326-0.101V91.848z"/>
		<path d="M69.876,91.173h-0.653v1.204H68.44v-1.204h-2.175v-0.819l2.175-3.052h0.783v3.219h0.653V91.173z M66.903,90.521h1.537    v-2.233h-0.015L66.903,90.521z"/>
		<path d="M72.138,87.201c0.362,0,0.658,0.083,0.888,0.25c0.229,0.167,0.408,0.379,0.536,0.638c0.128,0.259,0.215,0.543,0.261,0.852    c0.046,0.31,0.069,0.609,0.069,0.899s-0.023,0.59-0.069,0.899c-0.046,0.31-0.133,0.594-0.261,0.852    c-0.128,0.259-0.307,0.471-0.536,0.638c-0.23,0.167-0.526,0.25-0.888,0.25c-0.363,0-0.659-0.083-0.888-0.25    c-0.229-0.167-0.409-0.379-0.537-0.638c-0.128-0.258-0.215-0.542-0.261-0.852c-0.046-0.309-0.069-0.609-0.069-0.899    s0.022-0.589,0.069-0.899c0.046-0.309,0.133-0.593,0.261-0.852c0.128-0.258,0.307-0.471,0.537-0.638    C71.479,87.284,71.775,87.201,72.138,87.201z M72.138,91.79c0.179,0,0.329-0.052,0.449-0.156c0.121-0.104,0.216-0.244,0.287-0.42    c0.07-0.176,0.12-0.383,0.148-0.62c0.029-0.236,0.043-0.488,0.043-0.754c0-0.266-0.014-0.516-0.043-0.75    c-0.029-0.234-0.079-0.441-0.148-0.62c-0.07-0.179-0.166-0.32-0.287-0.424c-0.121-0.104-0.271-0.156-0.449-0.156    c-0.184,0-0.335,0.052-0.453,0.156c-0.119,0.104-0.213,0.246-0.283,0.424c-0.07,0.179-0.12,0.385-0.149,0.62    c-0.029,0.235-0.043,0.485-0.043,0.75c0,0.266,0.015,0.518,0.043,0.754c0.029,0.237,0.079,0.444,0.149,0.62    c0.07,0.176,0.164,0.316,0.283,0.42C71.803,91.738,71.954,91.79,72.138,91.79z"/>
	</g>
	<g>
		<g>
			<line fill="none" stroke="#000000" stroke-miterlimit="10" x1="179.636" y1="27.428" x2="178.818" y2="28.002"/>
			
				<line fill="none" stroke="#000000" stroke-miterlimit="10" stroke-dasharray="2.0307,2.0307" x1="177.155" y1="29.169" x2="91.545" y2="89.234"/>
			<polyline fill="none" stroke="#000000" stroke-miterlimit="10" points="90.714,89.817 89.895,90.392 90.633,91.066    "/>
			
				<line fill="none" stroke="#000000" stroke-miterlimit="10" stroke-dasharray="1.9699,1.9699" x1="92.087" y1="92.396" x2="178.604" y2="171.467"/>
			<line fill="none" stroke="#000000" stroke-miterlimit="10" x1="179.332" y1="172.132" x2="180.07" y2="172.807"/>
			<g>
				<polygon points="176.593,24.995 184.042,24.337 180.888,31.118     "/>
			</g>
			<g>
				<polygon points="176.739,174.829 184.042,176.438 181.785,169.308     "/>
			</g>
		</g>
	</g>
	<g>
		<g>
			<line fill="none" stroke="#000000" stroke-miterlimit="10" x1="89.895" y1="90.392" x2="90.895" y2="90.392"/>
			
				<line fill="none" stroke="#000000" stroke-miterlimit="10" stroke-dasharray="2.0218,2.0218" x1="92.917" y1="90.392" x2="176.822" y2="90.38"/>
			<line fill="none" stroke="#000000" stroke-miterlimit="10" x1="177.833" y1="90.379" x2="178.833" y2="90.379"/>
			<g>
				<polygon points="177.739,94.119 184.215,90.379 177.738,86.64     "/>
			</g>
		</g>
	</g>
	<g>
		<path d="M187.588,83.024h2.49c0.459,0,0.828,0.106,1.105,0.319s0.416,0.534,0.416,0.964c0,0.261-0.063,0.484-0.19,0.67    s-0.308,0.33-0.542,0.432v0.014c0.316,0.068,0.556,0.219,0.718,0.453c0.163,0.234,0.244,0.528,0.244,0.881    c0,0.203-0.035,0.393-0.107,0.569c-0.071,0.176-0.185,0.329-0.337,0.457c-0.153,0.128-0.35,0.23-0.589,0.305    s-0.524,0.112-0.854,0.112h-2.354V83.024z M188.485,85.192h1.465c0.215,0,0.395-0.062,0.538-0.185    c0.144-0.123,0.215-0.301,0.215-0.533c0-0.261-0.064-0.444-0.193-0.551s-0.315-0.16-0.56-0.16h-1.465V85.192z M188.485,87.461    h1.587c0.272,0,0.484-0.071,0.635-0.214c0.15-0.142,0.227-0.344,0.227-0.605c0-0.256-0.076-0.453-0.227-0.591    c-0.15-0.138-0.362-0.207-0.635-0.207h-1.587V87.461z"/>
		<path d="M195.785,88.201h-0.804v-0.522h-0.015c-0.101,0.188-0.25,0.339-0.448,0.453c-0.199,0.113-0.401,0.17-0.607,0.17    c-0.487,0-0.841-0.122-1.059-0.366s-0.326-0.613-0.326-1.105v-2.378h0.818v2.298c0,0.329,0.062,0.561,0.187,0.696    c0.124,0.135,0.299,0.203,0.523,0.203c0.173,0,0.316-0.027,0.431-0.08c0.115-0.053,0.209-0.125,0.28-0.214    c0.072-0.089,0.123-0.197,0.154-0.323c0.031-0.125,0.047-0.261,0.047-0.406v-2.175h0.818V88.201z"/>
		<path d="M196.237,84.453h0.897l0.969,2.798h0.015l0.94-2.798h0.854l-1.442,3.951c-0.067,0.169-0.133,0.331-0.197,0.486    c-0.064,0.154-0.144,0.291-0.237,0.409c-0.093,0.119-0.209,0.213-0.348,0.283c-0.139,0.07-0.316,0.105-0.531,0.105    c-0.191,0-0.381-0.015-0.567-0.043v-0.696c0.067,0.01,0.132,0.021,0.194,0.033c0.062,0.012,0.126,0.018,0.193,0.018    c0.096,0,0.175-0.012,0.237-0.036c0.062-0.024,0.113-0.059,0.154-0.105c0.04-0.046,0.075-0.101,0.104-0.163    c0.029-0.063,0.055-0.136,0.079-0.218l0.094-0.29L196.237,84.453z"/>
		<path d="M202.388,83.024h0.818v1.914h0.015c0.057-0.092,0.126-0.174,0.208-0.246c0.081-0.073,0.171-0.134,0.269-0.185    c0.099-0.051,0.201-0.089,0.309-0.116c0.108-0.026,0.215-0.04,0.319-0.04c0.292,0,0.547,0.052,0.765,0.156    s0.398,0.247,0.542,0.428s0.251,0.393,0.323,0.634c0.071,0.242,0.107,0.5,0.107,0.776c0,0.251-0.032,0.496-0.097,0.732    s-0.163,0.446-0.294,0.627c-0.132,0.181-0.298,0.326-0.499,0.435s-0.438,0.163-0.711,0.163c-0.124,0-0.25-0.009-0.377-0.025    c-0.127-0.017-0.247-0.05-0.362-0.098c-0.115-0.048-0.219-0.111-0.312-0.188c-0.093-0.077-0.171-0.179-0.232-0.304h-0.015v0.515    h-0.775V83.024z M205.245,86.33c0-0.169-0.021-0.333-0.064-0.493c-0.043-0.16-0.107-0.301-0.193-0.424    c-0.087-0.123-0.194-0.222-0.323-0.297c-0.129-0.075-0.277-0.112-0.445-0.112c-0.345,0-0.604,0.121-0.778,0.362    c-0.175,0.242-0.262,0.563-0.262,0.964c0,0.188,0.022,0.364,0.067,0.526c0.046,0.162,0.114,0.301,0.205,0.417    c0.091,0.116,0.199,0.208,0.326,0.276c0.127,0.067,0.274,0.102,0.441,0.102c0.187,0,0.345-0.039,0.474-0.116    c0.13-0.077,0.236-0.178,0.319-0.301c0.084-0.124,0.144-0.264,0.18-0.42C205.227,86.655,205.245,86.495,205.245,86.33z"/>
		<path d="M209.86,87.367c0,0.102,0.014,0.174,0.04,0.218s0.077,0.065,0.154,0.065c0.023,0,0.053,0,0.086,0s0.072-0.005,0.115-0.015    v0.573c-0.029,0.01-0.066,0.021-0.111,0.033c-0.046,0.012-0.093,0.023-0.141,0.032c-0.048,0.01-0.096,0.017-0.144,0.022    s-0.088,0.007-0.122,0.007c-0.167,0-0.306-0.034-0.416-0.102s-0.182-0.186-0.215-0.355c-0.163,0.16-0.362,0.276-0.6,0.348    c-0.237,0.073-0.466,0.109-0.686,0.109c-0.167,0-0.328-0.023-0.48-0.069c-0.153-0.046-0.289-0.114-0.406-0.203    s-0.21-0.203-0.279-0.341s-0.104-0.298-0.104-0.482c0-0.232,0.042-0.42,0.126-0.565c0.083-0.145,0.193-0.259,0.33-0.341    s0.289-0.142,0.459-0.178s0.341-0.064,0.514-0.083c0.148-0.029,0.289-0.049,0.423-0.062c0.135-0.012,0.253-0.033,0.355-0.062    c0.104-0.029,0.185-0.074,0.244-0.134c0.06-0.06,0.09-0.151,0.09-0.272c0-0.106-0.025-0.193-0.075-0.261    c-0.051-0.068-0.112-0.12-0.187-0.156c-0.074-0.037-0.157-0.061-0.248-0.073c-0.091-0.012-0.177-0.018-0.258-0.018    c-0.23,0-0.419,0.048-0.567,0.145s-0.232,0.247-0.251,0.45h-0.818c0.015-0.242,0.071-0.442,0.172-0.602    c0.101-0.159,0.229-0.288,0.384-0.384c0.156-0.097,0.332-0.164,0.528-0.203c0.196-0.039,0.396-0.058,0.603-0.058    c0.182,0,0.361,0.019,0.538,0.058c0.177,0.039,0.336,0.102,0.478,0.189c0.141,0.087,0.255,0.199,0.341,0.337    s0.129,0.306,0.129,0.504V87.367z M209.042,86.323c-0.125,0.083-0.278,0.132-0.46,0.149s-0.363,0.042-0.545,0.076    c-0.087,0.014-0.17,0.035-0.252,0.062c-0.081,0.026-0.153,0.063-0.215,0.109c-0.062,0.046-0.111,0.106-0.147,0.181    c-0.036,0.075-0.054,0.166-0.054,0.272c0,0.092,0.026,0.169,0.079,0.232c0.053,0.062,0.116,0.112,0.19,0.148    s0.155,0.062,0.244,0.076c0.088,0.015,0.168,0.022,0.24,0.022c0.091,0,0.188-0.012,0.294-0.037    c0.105-0.024,0.205-0.065,0.298-0.123c0.094-0.058,0.171-0.132,0.233-0.221s0.094-0.199,0.094-0.33V86.323z"/>
		<path d="M213.248,85.707c-0.033-0.232-0.126-0.407-0.276-0.525c-0.15-0.119-0.341-0.178-0.57-0.178    c-0.105,0-0.218,0.018-0.338,0.054c-0.119,0.037-0.229,0.104-0.33,0.203s-0.184,0.237-0.251,0.413    c-0.067,0.177-0.101,0.408-0.101,0.692c0,0.155,0.018,0.31,0.054,0.464s0.094,0.292,0.173,0.413    c0.078,0.121,0.181,0.219,0.305,0.293c0.124,0.075,0.275,0.113,0.452,0.113c0.239,0,0.437-0.075,0.592-0.225    c0.156-0.149,0.253-0.36,0.291-0.631h0.818c-0.077,0.488-0.26,0.862-0.549,1.121c-0.29,0.258-0.674,0.388-1.152,0.388    c-0.292,0-0.549-0.05-0.771-0.149c-0.223-0.099-0.41-0.234-0.563-0.406s-0.27-0.376-0.348-0.613    c-0.079-0.237-0.119-0.493-0.119-0.769c0-0.28,0.038-0.543,0.115-0.79c0.076-0.247,0.191-0.46,0.345-0.642    c0.152-0.181,0.343-0.324,0.57-0.428s0.494-0.156,0.8-0.156c0.216,0,0.42,0.028,0.614,0.083c0.193,0.056,0.366,0.139,0.517,0.25    s0.273,0.251,0.37,0.42c0.095,0.169,0.152,0.37,0.172,0.602H213.248z"/>
		<path d="M214.754,83.024h0.818v2.943l1.479-1.515h1.005l-1.421,1.377l1.558,2.371h-0.998l-1.134-1.82l-0.488,0.479v1.341h-0.818    V83.024z"/>
		<path d="M190.581,96.111c0,0.102,0.014,0.174,0.04,0.218s0.077,0.065,0.154,0.065c0.023,0,0.053,0,0.086,0    s0.072-0.005,0.115-0.015v0.573c-0.029,0.01-0.066,0.021-0.111,0.033c-0.046,0.012-0.093,0.023-0.141,0.032    c-0.048,0.01-0.096,0.017-0.144,0.022s-0.088,0.007-0.122,0.007c-0.167,0-0.306-0.034-0.416-0.102s-0.182-0.186-0.215-0.355    c-0.163,0.16-0.362,0.276-0.6,0.348c-0.237,0.073-0.466,0.109-0.686,0.109c-0.167,0-0.328-0.023-0.48-0.069    c-0.153-0.046-0.289-0.114-0.406-0.203s-0.21-0.203-0.279-0.341s-0.104-0.298-0.104-0.482c0-0.232,0.042-0.42,0.126-0.565    c0.083-0.145,0.193-0.259,0.33-0.341s0.289-0.142,0.459-0.178s0.341-0.064,0.514-0.083c0.148-0.029,0.289-0.049,0.423-0.062    c0.135-0.012,0.253-0.033,0.355-0.062c0.104-0.029,0.185-0.074,0.244-0.134c0.06-0.06,0.09-0.151,0.09-0.272    c0-0.106-0.025-0.193-0.075-0.261c-0.051-0.068-0.112-0.12-0.187-0.156c-0.074-0.037-0.157-0.061-0.248-0.073    c-0.091-0.012-0.177-0.018-0.258-0.018c-0.23,0-0.419,0.048-0.567,0.145s-0.232,0.247-0.251,0.45h-0.818    c0.015-0.242,0.071-0.442,0.172-0.602c0.101-0.159,0.229-0.288,0.384-0.384c0.156-0.097,0.332-0.164,0.528-0.203    c0.196-0.039,0.396-0.058,0.603-0.058c0.182,0,0.361,0.019,0.538,0.058c0.177,0.039,0.336,0.102,0.478,0.189    c0.141,0.087,0.255,0.199,0.341,0.337s0.129,0.306,0.129,0.504V96.111z M189.763,95.067c-0.125,0.083-0.278,0.132-0.46,0.149    s-0.363,0.042-0.545,0.076c-0.087,0.014-0.17,0.035-0.252,0.062c-0.081,0.026-0.153,0.063-0.215,0.109    c-0.062,0.046-0.111,0.106-0.147,0.181c-0.036,0.075-0.054,0.166-0.054,0.272c0,0.092,0.026,0.169,0.079,0.232    c0.053,0.062,0.116,0.112,0.19,0.148s0.155,0.062,0.244,0.076c0.088,0.015,0.168,0.022,0.24,0.022    c0.091,0,0.188-0.012,0.294-0.037c0.105-0.024,0.205-0.065,0.298-0.123c0.094-0.058,0.171-0.132,0.233-0.221    s0.094-0.199,0.094-0.33V95.067z"/>
		<path d="M191.09,93.197h0.617v-1.124h0.818v1.124h0.739v0.616h-0.739v2.001c0,0.087,0.003,0.162,0.011,0.225    c0.007,0.063,0.023,0.116,0.05,0.16s0.066,0.076,0.118,0.098c0.053,0.022,0.125,0.033,0.216,0.033    c0.058,0,0.115-0.001,0.172-0.004c0.058-0.002,0.115-0.011,0.173-0.025v0.638c-0.091,0.01-0.18,0.02-0.266,0.029    c-0.086,0.009-0.175,0.014-0.266,0.014c-0.216,0-0.389-0.021-0.521-0.062s-0.234-0.102-0.309-0.181s-0.124-0.18-0.15-0.301    c-0.026-0.121-0.042-0.259-0.047-0.414v-2.211h-0.617V93.197z"/>
		<path d="M196.358,95.372c-0.005,0.319,0.064,0.57,0.208,0.754s0.38,0.28,0.711,0.29v-1.754c-0.196-0.053-0.392-0.117-0.585-0.192    c-0.194-0.075-0.369-0.171-0.524-0.29c-0.155-0.118-0.281-0.267-0.377-0.446c-0.096-0.179-0.144-0.401-0.144-0.667    c0-0.232,0.044-0.436,0.133-0.612c0.089-0.177,0.208-0.324,0.359-0.442c0.15-0.119,0.324-0.209,0.521-0.272    c0.195-0.062,0.401-0.094,0.617-0.094V91.08h0.309v0.565c0.215,0,0.418,0.029,0.609,0.087c0.191,0.058,0.358,0.145,0.499,0.261    c0.142,0.116,0.254,0.263,0.338,0.442c0.083,0.179,0.125,0.387,0.125,0.623h-0.818c-0.01-0.246-0.072-0.435-0.189-0.565    c-0.118-0.13-0.306-0.196-0.563-0.196v1.53c0.215,0.058,0.426,0.126,0.631,0.203c0.206,0.078,0.388,0.177,0.546,0.297    s0.284,0.271,0.381,0.449c0.095,0.179,0.144,0.399,0.144,0.66c0,0.271-0.045,0.506-0.133,0.707c-0.089,0.201-0.21,0.368-0.363,0.5    c-0.152,0.133-0.332,0.234-0.538,0.304c-0.206,0.07-0.428,0.11-0.667,0.12v0.566h-0.309v-0.566    c-0.259-0.005-0.496-0.046-0.711-0.123c-0.216-0.077-0.399-0.187-0.553-0.33c-0.153-0.142-0.271-0.317-0.355-0.525    s-0.123-0.447-0.118-0.718H196.358z M197.277,92.297c-0.259,0-0.459,0.055-0.6,0.164c-0.142,0.108-0.212,0.291-0.212,0.547    c0,0.116,0.024,0.215,0.072,0.297c0.047,0.083,0.108,0.152,0.183,0.21s0.16,0.105,0.259,0.141    c0.098,0.037,0.197,0.067,0.298,0.091V92.297z M197.585,96.416c0.258-0.019,0.47-0.095,0.635-0.229    c0.165-0.133,0.248-0.344,0.248-0.634c0-0.135-0.025-0.249-0.076-0.341c-0.05-0.092-0.117-0.169-0.2-0.232    c-0.084-0.062-0.179-0.113-0.284-0.152c-0.104-0.039-0.213-0.072-0.322-0.101V96.416z"/>
		<path d="M201.403,97.046c-0.254,0-0.489-0.036-0.707-0.109c-0.218-0.072-0.405-0.178-0.563-0.315    c-0.157-0.138-0.281-0.306-0.369-0.504c-0.089-0.198-0.133-0.42-0.133-0.667c0-0.319,0.082-0.587,0.247-0.805    c0.165-0.217,0.389-0.362,0.672-0.435v-0.014c-0.23-0.087-0.406-0.221-0.528-0.402c-0.122-0.182-0.183-0.396-0.183-0.642    c0-0.435,0.135-0.774,0.405-1.019c0.271-0.244,0.657-0.366,1.159-0.366c0.503,0,0.889,0.122,1.159,0.366    c0.271,0.244,0.405,0.584,0.405,1.019c0,0.247-0.061,0.46-0.183,0.642c-0.122,0.181-0.298,0.315-0.527,0.402v0.014    c0.282,0.073,0.506,0.218,0.671,0.435c0.165,0.218,0.248,0.486,0.248,0.805c0,0.247-0.045,0.469-0.133,0.667    c-0.089,0.198-0.212,0.366-0.37,0.504s-0.346,0.243-0.563,0.315C201.892,97.01,201.657,97.046,201.403,97.046z M201.403,96.394    c0.273,0,0.5-0.083,0.682-0.247c0.183-0.165,0.273-0.396,0.273-0.696c0-0.28-0.091-0.499-0.273-0.656    c-0.182-0.157-0.408-0.236-0.682-0.236c-0.272,0-0.5,0.079-0.682,0.236c-0.182,0.157-0.272,0.375-0.272,0.656    c0,0.3,0.091,0.532,0.272,0.696C200.903,96.312,201.13,96.394,201.403,96.394z M201.403,92.421c-0.22,0-0.406,0.066-0.56,0.199    c-0.153,0.133-0.229,0.325-0.229,0.577c0,0.242,0.074,0.426,0.223,0.554c0.147,0.128,0.337,0.192,0.566,0.192    s0.419-0.064,0.567-0.192c0.148-0.128,0.223-0.312,0.223-0.554c0-0.251-0.077-0.443-0.229-0.577    C201.81,92.487,201.624,92.421,201.403,92.421z"/>
		<path d="M205.393,91.769c0.359,0,0.652,0.083,0.88,0.25c0.227,0.167,0.404,0.379,0.53,0.638c0.127,0.259,0.213,0.543,0.259,0.852    c0.046,0.31,0.068,0.609,0.068,0.899s-0.022,0.59-0.068,0.899c-0.046,0.31-0.132,0.594-0.259,0.852    c-0.126,0.259-0.304,0.471-0.53,0.638c-0.228,0.167-0.521,0.25-0.88,0.25c-0.358,0-0.651-0.083-0.879-0.25    c-0.228-0.167-0.404-0.379-0.531-0.638c-0.127-0.258-0.213-0.542-0.259-0.852c-0.045-0.309-0.067-0.609-0.067-0.899    s0.022-0.589,0.067-0.899c0.046-0.309,0.132-0.593,0.259-0.852c0.127-0.258,0.304-0.471,0.531-0.638    C204.742,91.852,205.035,91.769,205.393,91.769z M205.393,96.357c0.177,0,0.325-0.052,0.445-0.156    c0.119-0.104,0.214-0.244,0.283-0.42s0.119-0.383,0.147-0.62c0.028-0.236,0.043-0.488,0.043-0.754c0-0.266-0.015-0.516-0.043-0.75    c-0.028-0.234-0.078-0.441-0.147-0.62s-0.164-0.32-0.283-0.424c-0.12-0.104-0.269-0.156-0.445-0.156    c-0.182,0-0.331,0.052-0.448,0.156c-0.117,0.104-0.211,0.246-0.28,0.424s-0.118,0.385-0.146,0.62    c-0.029,0.235-0.044,0.485-0.044,0.75c0,0.266,0.015,0.518,0.044,0.754c0.028,0.237,0.077,0.444,0.146,0.62s0.163,0.316,0.28,0.42    S205.211,96.357,205.393,96.357z"/>
	</g>
	<g>
		<path d="M187.592,171.26h2.516c0.464,0,0.837,0.106,1.117,0.319s0.42,0.534,0.42,0.964c0,0.262-0.063,0.485-0.191,0.671    c-0.129,0.187-0.312,0.33-0.548,0.432v0.015c0.319,0.067,0.561,0.219,0.725,0.453c0.165,0.234,0.247,0.527,0.247,0.881    c0,0.202-0.036,0.393-0.109,0.568c-0.072,0.177-0.186,0.329-0.34,0.457c-0.155,0.128-0.354,0.229-0.595,0.305    c-0.242,0.075-0.529,0.112-0.863,0.112h-2.378V171.26z M188.499,173.428h1.479c0.217,0,0.398-0.062,0.544-0.185    c0.145-0.123,0.217-0.301,0.217-0.533c0-0.261-0.065-0.444-0.195-0.551c-0.131-0.106-0.319-0.159-0.565-0.159h-1.479V173.428z     M188.499,175.697h1.603c0.275,0,0.489-0.071,0.642-0.214s0.229-0.345,0.229-0.605c0-0.256-0.076-0.453-0.229-0.591    s-0.366-0.207-0.642-0.207h-1.603V175.697z"/>
		<path d="M195.872,176.437h-0.812v-0.522h-0.014c-0.102,0.188-0.253,0.34-0.453,0.453c-0.201,0.114-0.405,0.171-0.613,0.171    c-0.493,0-0.85-0.122-1.069-0.366s-0.33-0.612-0.33-1.105v-2.378h0.827v2.298c0,0.329,0.062,0.561,0.188,0.696    c0.125,0.136,0.302,0.203,0.529,0.203c0.174,0,0.318-0.026,0.435-0.08c0.116-0.053,0.21-0.124,0.283-0.214    c0.072-0.089,0.124-0.197,0.155-0.322c0.031-0.126,0.048-0.262,0.048-0.406v-2.175h0.826V176.437z"/>
		<path d="M196.328,172.688h0.906l0.979,2.798h0.014l0.95-2.798h0.862l-1.457,3.951c-0.067,0.169-0.134,0.331-0.199,0.485    c-0.065,0.155-0.146,0.291-0.239,0.41c-0.095,0.118-0.212,0.212-0.352,0.282c-0.141,0.07-0.319,0.105-0.536,0.105    c-0.193,0-0.385-0.015-0.573-0.044v-0.695c0.067,0.01,0.133,0.021,0.195,0.032c0.063,0.012,0.129,0.019,0.196,0.019    c0.097,0,0.177-0.013,0.239-0.036c0.062-0.024,0.114-0.06,0.156-0.105c0.041-0.046,0.076-0.101,0.104-0.163    c0.029-0.063,0.056-0.136,0.08-0.218l0.094-0.29L196.328,172.688z"/>
		<path d="M202.542,171.26h0.826v1.914h0.015c0.058-0.092,0.128-0.174,0.21-0.246s0.173-0.135,0.272-0.186    c0.099-0.05,0.202-0.089,0.312-0.115c0.108-0.026,0.216-0.04,0.322-0.04c0.295,0,0.553,0.052,0.772,0.155    c0.22,0.104,0.402,0.247,0.547,0.428c0.146,0.182,0.254,0.394,0.326,0.635c0.073,0.242,0.109,0.5,0.109,0.775    c0,0.252-0.033,0.496-0.098,0.732c-0.065,0.237-0.165,0.446-0.298,0.627c-0.133,0.182-0.301,0.327-0.504,0.436    s-0.442,0.163-0.718,0.163c-0.126,0-0.252-0.009-0.381-0.025c-0.128-0.017-0.25-0.05-0.365-0.098    c-0.116-0.049-0.222-0.111-0.315-0.188c-0.095-0.077-0.173-0.179-0.236-0.305h-0.014v0.515h-0.783V171.26z M205.426,174.566    c0-0.17-0.021-0.334-0.064-0.493c-0.044-0.16-0.109-0.301-0.196-0.425c-0.087-0.123-0.195-0.222-0.326-0.297    s-0.28-0.112-0.449-0.112c-0.349,0-0.61,0.121-0.787,0.362c-0.176,0.242-0.265,0.563-0.265,0.965c0,0.188,0.023,0.363,0.069,0.525    s0.114,0.301,0.206,0.417s0.202,0.208,0.33,0.275s0.277,0.102,0.446,0.102c0.188,0,0.348-0.039,0.479-0.116    c0.13-0.077,0.238-0.178,0.322-0.301c0.085-0.123,0.146-0.264,0.182-0.421C205.409,174.892,205.426,174.73,205.426,174.566z"/>
		<path d="M210.088,175.603c0,0.102,0.014,0.174,0.04,0.218s0.078,0.065,0.155,0.065c0.024,0,0.054,0,0.088,0    c0.033,0,0.072-0.005,0.115-0.015v0.572c-0.028,0.01-0.066,0.021-0.112,0.033c-0.046,0.012-0.093,0.022-0.141,0.032    c-0.049,0.01-0.098,0.018-0.146,0.022c-0.049,0.004-0.09,0.007-0.123,0.007c-0.169,0-0.31-0.034-0.421-0.102    s-0.184-0.186-0.217-0.355c-0.165,0.16-0.366,0.275-0.605,0.349c-0.239,0.072-0.471,0.108-0.692,0.108    c-0.17,0-0.331-0.023-0.486-0.069c-0.154-0.046-0.291-0.113-0.409-0.202c-0.119-0.09-0.213-0.203-0.283-0.341    s-0.104-0.299-0.104-0.482c0-0.232,0.042-0.421,0.126-0.565c0.085-0.146,0.196-0.259,0.334-0.341s0.292-0.142,0.464-0.178    s0.345-0.064,0.519-0.083c0.149-0.029,0.292-0.05,0.428-0.062c0.135-0.013,0.255-0.033,0.358-0.062    c0.104-0.028,0.187-0.073,0.247-0.134s0.091-0.151,0.091-0.271c0-0.106-0.025-0.193-0.076-0.262    c-0.051-0.067-0.114-0.119-0.188-0.155c-0.075-0.036-0.158-0.061-0.25-0.072c-0.093-0.013-0.18-0.019-0.262-0.019    c-0.231,0-0.423,0.049-0.572,0.145c-0.15,0.098-0.234,0.247-0.254,0.45h-0.826c0.014-0.242,0.072-0.442,0.174-0.602    c0.102-0.16,0.23-0.288,0.388-0.385s0.335-0.164,0.533-0.203c0.198-0.038,0.4-0.058,0.608-0.058c0.184,0,0.365,0.02,0.544,0.058    c0.179,0.039,0.34,0.102,0.482,0.188s0.257,0.199,0.344,0.337c0.087,0.139,0.131,0.307,0.131,0.504V175.603z M209.262,174.559    c-0.126,0.082-0.28,0.132-0.464,0.148c-0.185,0.018-0.368,0.043-0.552,0.076c-0.087,0.015-0.171,0.035-0.254,0.062    c-0.082,0.027-0.154,0.063-0.217,0.109c-0.063,0.046-0.112,0.106-0.148,0.181c-0.037,0.075-0.055,0.166-0.055,0.272    c0,0.092,0.026,0.169,0.08,0.231c0.053,0.063,0.117,0.112,0.191,0.149c0.075,0.036,0.157,0.062,0.247,0.076    c0.089,0.014,0.17,0.021,0.242,0.021c0.092,0,0.191-0.013,0.298-0.036c0.106-0.024,0.206-0.065,0.301-0.124    c0.094-0.058,0.173-0.131,0.235-0.221s0.095-0.199,0.095-0.33V174.559z"/>
		<path d="M213.51,173.942c-0.033-0.231-0.127-0.407-0.278-0.525c-0.152-0.118-0.345-0.178-0.577-0.178    c-0.106,0-0.22,0.019-0.341,0.055c-0.12,0.036-0.231,0.104-0.333,0.203c-0.102,0.099-0.187,0.236-0.254,0.413    c-0.067,0.176-0.102,0.407-0.102,0.692c0,0.154,0.019,0.31,0.055,0.464s0.094,0.292,0.174,0.413s0.183,0.219,0.309,0.294    c0.125,0.074,0.277,0.112,0.456,0.112c0.242,0,0.441-0.075,0.599-0.225c0.157-0.15,0.255-0.36,0.293-0.631h0.827    c-0.077,0.488-0.263,0.861-0.555,1.12c-0.293,0.259-0.681,0.388-1.164,0.388c-0.295,0-0.555-0.05-0.779-0.148    c-0.225-0.1-0.414-0.234-0.569-0.406c-0.154-0.172-0.271-0.376-0.352-0.612c-0.079-0.237-0.119-0.493-0.119-0.769    c0-0.28,0.038-0.544,0.116-0.79c0.077-0.247,0.193-0.461,0.348-0.643c0.154-0.181,0.347-0.323,0.576-0.428    c0.229-0.104,0.499-0.155,0.809-0.155c0.218,0,0.424,0.027,0.62,0.083c0.195,0.056,0.369,0.14,0.521,0.25    c0.152,0.111,0.277,0.252,0.374,0.421s0.154,0.37,0.174,0.602H213.51z"/>
		<path d="M215.034,171.26h0.826v2.943l1.493-1.515h1.016l-1.436,1.377l1.573,2.371h-1.008l-1.146-1.819l-0.493,0.479v1.341h-0.826    V171.26z"/>
		<path d="M190.616,184.347c0,0.102,0.014,0.174,0.04,0.218s0.078,0.065,0.155,0.065c0.024,0,0.054,0,0.088,0    c0.033,0,0.072-0.005,0.115-0.015v0.572c-0.028,0.01-0.066,0.021-0.112,0.033c-0.046,0.012-0.093,0.022-0.141,0.032    c-0.049,0.01-0.098,0.018-0.146,0.022c-0.049,0.004-0.09,0.007-0.123,0.007c-0.169,0-0.31-0.034-0.421-0.102    s-0.184-0.186-0.217-0.355c-0.165,0.16-0.366,0.275-0.605,0.349c-0.239,0.072-0.471,0.108-0.692,0.108    c-0.17,0-0.331-0.023-0.486-0.069c-0.154-0.046-0.291-0.113-0.409-0.202c-0.119-0.09-0.213-0.203-0.283-0.341    s-0.104-0.299-0.104-0.482c0-0.232,0.042-0.421,0.126-0.565c0.085-0.146,0.196-0.259,0.334-0.341s0.292-0.142,0.464-0.178    s0.345-0.064,0.519-0.083c0.149-0.029,0.292-0.05,0.428-0.062c0.135-0.013,0.255-0.033,0.358-0.062    c0.104-0.028,0.187-0.073,0.247-0.134s0.091-0.151,0.091-0.271c0-0.106-0.025-0.193-0.076-0.262    c-0.051-0.067-0.114-0.119-0.188-0.155c-0.075-0.036-0.158-0.061-0.25-0.072c-0.093-0.013-0.18-0.019-0.262-0.019    c-0.231,0-0.423,0.049-0.572,0.145c-0.15,0.098-0.234,0.247-0.254,0.45h-0.826c0.014-0.242,0.072-0.442,0.174-0.602    c0.102-0.16,0.23-0.288,0.388-0.385s0.335-0.164,0.533-0.203c0.198-0.038,0.4-0.058,0.608-0.058c0.184,0,0.365,0.02,0.544,0.058    c0.179,0.039,0.34,0.102,0.482,0.188s0.257,0.199,0.344,0.337c0.087,0.139,0.131,0.307,0.131,0.504V184.347z M189.79,183.303    c-0.126,0.082-0.28,0.132-0.464,0.148c-0.185,0.018-0.368,0.043-0.552,0.076c-0.087,0.015-0.171,0.035-0.254,0.062    c-0.082,0.027-0.154,0.063-0.217,0.109c-0.063,0.046-0.112,0.106-0.148,0.181c-0.037,0.075-0.055,0.166-0.055,0.272    c0,0.092,0.026,0.169,0.08,0.231c0.053,0.063,0.117,0.112,0.191,0.149c0.075,0.036,0.157,0.062,0.247,0.076    c0.089,0.014,0.17,0.021,0.242,0.021c0.092,0,0.191-0.013,0.298-0.036c0.106-0.024,0.206-0.065,0.301-0.124    c0.094-0.058,0.173-0.131,0.235-0.221s0.095-0.199,0.095-0.33V183.303z"/>
		<path d="M191.13,181.433h0.624v-1.124h0.826v1.124h0.747v0.616h-0.747v2.001c0,0.087,0.004,0.162,0.011,0.225    c0.008,0.062,0.024,0.116,0.051,0.159c0.026,0.044,0.066,0.076,0.12,0.099c0.053,0.021,0.125,0.032,0.218,0.032    c0.058,0,0.115-0.001,0.174-0.004c0.058-0.002,0.115-0.011,0.174-0.025v0.639c-0.092,0.009-0.182,0.019-0.269,0.028    s-0.177,0.015-0.269,0.015c-0.217,0-0.393-0.021-0.525-0.062s-0.236-0.102-0.312-0.182c-0.075-0.079-0.126-0.18-0.152-0.301    c-0.026-0.12-0.042-0.258-0.047-0.413v-2.211h-0.624V181.433z"/>
		<path d="M196.453,183.607c-0.005,0.319,0.064,0.57,0.21,0.754c0.145,0.184,0.384,0.28,0.718,0.29v-1.755    c-0.198-0.053-0.396-0.117-0.591-0.191c-0.196-0.075-0.372-0.172-0.529-0.29s-0.284-0.268-0.381-0.446s-0.145-0.401-0.145-0.667    c0-0.231,0.044-0.436,0.134-0.612c0.089-0.177,0.21-0.324,0.362-0.442s0.327-0.209,0.525-0.271    c0.198-0.063,0.406-0.095,0.624-0.095v-0.565h0.312v0.565c0.218,0,0.423,0.029,0.616,0.087c0.193,0.059,0.361,0.146,0.504,0.261    c0.143,0.116,0.256,0.264,0.341,0.442s0.127,0.387,0.127,0.624h-0.826c-0.01-0.247-0.074-0.436-0.192-0.565    c-0.119-0.131-0.309-0.196-0.569-0.196v1.53c0.218,0.058,0.43,0.125,0.638,0.203c0.208,0.077,0.392,0.176,0.552,0.297    c0.159,0.121,0.287,0.271,0.384,0.449s0.146,0.399,0.146,0.66c0,0.271-0.045,0.506-0.135,0.707c-0.089,0.2-0.211,0.367-0.366,0.5    c-0.154,0.133-0.336,0.234-0.544,0.305c-0.207,0.069-0.433,0.109-0.674,0.119v0.565h-0.312v-0.565    c-0.261-0.005-0.5-0.046-0.718-0.123s-0.403-0.188-0.559-0.33c-0.154-0.143-0.274-0.317-0.358-0.525    c-0.085-0.208-0.125-0.447-0.12-0.718H196.453z M197.38,180.533c-0.261,0-0.463,0.055-0.605,0.163    c-0.143,0.109-0.214,0.291-0.214,0.548c0,0.116,0.024,0.215,0.072,0.297c0.049,0.082,0.11,0.152,0.185,0.21    c0.075,0.059,0.162,0.105,0.262,0.142c0.099,0.036,0.199,0.066,0.301,0.091V180.533z M197.692,184.651    c0.261-0.02,0.475-0.096,0.642-0.229s0.25-0.344,0.25-0.634c0-0.136-0.025-0.249-0.076-0.341s-0.118-0.17-0.203-0.232    c-0.084-0.062-0.18-0.113-0.286-0.152c-0.106-0.038-0.215-0.072-0.326-0.102V184.651z"/>
		<path d="M199.917,180.946c0.175,0,0.344-0.014,0.508-0.043s0.313-0.077,0.446-0.146c0.133-0.067,0.246-0.154,0.341-0.261    c0.094-0.106,0.155-0.236,0.185-0.392h0.674v5.075h-0.906V181.6h-1.247V180.946z"/>
		<path d="M207.313,185.181h-3.465c0.004-0.421,0.105-0.788,0.304-1.102c0.198-0.314,0.469-0.588,0.812-0.819    c0.164-0.121,0.336-0.238,0.515-0.352c0.179-0.114,0.343-0.236,0.493-0.366c0.149-0.131,0.272-0.272,0.369-0.425    s0.147-0.327,0.152-0.525c0-0.092-0.011-0.189-0.032-0.294c-0.021-0.104-0.064-0.2-0.127-0.29    c-0.062-0.089-0.15-0.164-0.261-0.225c-0.111-0.06-0.257-0.09-0.436-0.09c-0.164,0-0.301,0.032-0.409,0.098    c-0.109,0.065-0.196,0.154-0.261,0.268c-0.065,0.114-0.114,0.248-0.146,0.402c-0.031,0.155-0.05,0.322-0.055,0.501h-0.826    c0-0.28,0.037-0.54,0.112-0.779s0.188-0.446,0.337-0.62c0.15-0.174,0.333-0.311,0.548-0.41c0.215-0.099,0.465-0.148,0.75-0.148    c0.31,0,0.568,0.051,0.776,0.152c0.207,0.102,0.375,0.229,0.504,0.385c0.128,0.154,0.218,0.322,0.271,0.504    c0.053,0.181,0.08,0.354,0.08,0.518c0,0.203-0.032,0.387-0.095,0.552c-0.062,0.164-0.147,0.315-0.254,0.453    s-0.227,0.265-0.362,0.38c-0.136,0.116-0.275,0.226-0.421,0.326c-0.145,0.102-0.289,0.198-0.435,0.29    c-0.145,0.093-0.279,0.185-0.402,0.276s-0.23,0.187-0.322,0.286c-0.092,0.099-0.155,0.204-0.188,0.315h2.472V185.181z"/>
		<path d="M209.612,180.004c0.362,0,0.658,0.084,0.888,0.25c0.229,0.167,0.408,0.38,0.537,0.639    c0.128,0.259,0.215,0.542,0.261,0.852s0.068,0.609,0.068,0.899s-0.022,0.589-0.068,0.898s-0.133,0.594-0.261,0.852    c-0.129,0.259-0.308,0.472-0.537,0.639s-0.525,0.25-0.888,0.25s-0.659-0.083-0.889-0.25s-0.408-0.38-0.536-0.639    c-0.128-0.258-0.215-0.542-0.261-0.852s-0.069-0.608-0.069-0.898s0.023-0.59,0.069-0.899s0.133-0.593,0.261-0.852    s0.307-0.472,0.536-0.639C208.953,180.088,209.25,180.004,209.612,180.004z M209.612,184.594c0.179,0,0.328-0.052,0.449-0.156    c0.121-0.104,0.217-0.244,0.286-0.421c0.07-0.176,0.12-0.383,0.149-0.619c0.028-0.237,0.043-0.488,0.043-0.754    c0-0.267-0.015-0.517-0.043-0.751c-0.029-0.234-0.079-0.44-0.149-0.62c-0.069-0.179-0.165-0.319-0.286-0.424    c-0.121-0.104-0.271-0.155-0.449-0.155c-0.184,0-0.335,0.052-0.453,0.155c-0.118,0.104-0.213,0.245-0.283,0.424    c-0.069,0.18-0.119,0.386-0.148,0.62s-0.043,0.484-0.043,0.751c0,0.266,0.014,0.517,0.043,0.754    c0.029,0.236,0.079,0.443,0.148,0.619c0.07,0.177,0.165,0.317,0.283,0.421C209.277,184.542,209.428,184.594,209.612,184.594z"/>
	</g>
	<g>
		<g>
			<path d="M232.31,4.163c0.064,0.125,0.15,0.226,0.258,0.304c0.108,0.078,0.234,0.135,0.379,0.172     c0.146,0.038,0.295,0.056,0.45,0.056c0.105,0,0.218-0.009,0.338-0.026c0.12-0.017,0.232-0.051,0.337-0.101     c0.105-0.05,0.192-0.119,0.263-0.206s0.105-0.199,0.105-0.334c0-0.145-0.047-0.262-0.139-0.353     c-0.093-0.09-0.214-0.165-0.364-0.225c-0.15-0.06-0.32-0.112-0.51-0.157c-0.19-0.045-0.383-0.095-0.578-0.15     c-0.199-0.05-0.395-0.111-0.585-0.184c-0.189-0.072-0.359-0.166-0.51-0.281c-0.149-0.115-0.271-0.259-0.363-0.431     c-0.093-0.172-0.139-0.381-0.139-0.626c0-0.275,0.059-0.514,0.176-0.716c0.117-0.203,0.271-0.372,0.461-0.506     c0.19-0.135,0.405-0.235,0.646-0.3S233.014,0,233.254,0c0.28,0,0.549,0.031,0.807,0.094c0.257,0.062,0.486,0.164,0.687,0.304     c0.199,0.14,0.358,0.319,0.476,0.536c0.117,0.218,0.177,0.481,0.177,0.792h-1.141c-0.01-0.16-0.044-0.292-0.101-0.397     c-0.058-0.105-0.134-0.188-0.229-0.248c-0.095-0.06-0.203-0.103-0.326-0.127c-0.122-0.025-0.256-0.038-0.401-0.038     c-0.095,0-0.189,0.01-0.284,0.03c-0.096,0.02-0.182,0.055-0.259,0.105c-0.078,0.05-0.142,0.113-0.191,0.188     c-0.05,0.075-0.075,0.17-0.075,0.285c0,0.105,0.02,0.19,0.06,0.255s0.119,0.125,0.236,0.18c0.118,0.055,0.28,0.11,0.488,0.165     c0.207,0.055,0.479,0.125,0.813,0.21c0.1,0.02,0.238,0.056,0.416,0.109c0.178,0.052,0.354,0.136,0.529,0.251     c0.175,0.115,0.326,0.269,0.453,0.461c0.128,0.192,0.191,0.438,0.191,0.739c0,0.245-0.048,0.472-0.143,0.682     c-0.095,0.21-0.236,0.392-0.424,0.544c-0.188,0.153-0.42,0.271-0.697,0.356s-0.599,0.127-0.964,0.127     c-0.295,0-0.581-0.037-0.858-0.109s-0.522-0.186-0.735-0.341c-0.213-0.155-0.381-0.353-0.506-0.592     c-0.125-0.24-0.186-0.525-0.181-0.855h1.141C232.212,3.885,232.245,4.038,232.31,4.163z"/>
			<path d="M238.017,2.302c-0.17,0-0.312,0.039-0.428,0.116c-0.115,0.078-0.209,0.178-0.281,0.3s-0.124,0.257-0.154,0.405     c-0.029,0.147-0.045,0.294-0.045,0.439c0,0.14,0.016,0.282,0.045,0.427c0.03,0.145,0.079,0.276,0.146,0.394     c0.067,0.117,0.159,0.214,0.274,0.289c0.114,0.075,0.255,0.113,0.42,0.113c0.255,0,0.451-0.071,0.589-0.214     c0.137-0.143,0.224-0.334,0.258-0.574h1.028c-0.07,0.515-0.271,0.907-0.601,1.177s-0.752,0.405-1.268,0.405     c-0.29,0-0.556-0.049-0.799-0.146c-0.242-0.098-0.448-0.233-0.618-0.409c-0.17-0.175-0.303-0.384-0.397-0.626     c-0.096-0.242-0.143-0.508-0.143-0.798c0-0.3,0.044-0.579,0.131-0.836c0.088-0.257,0.217-0.48,0.387-0.667     s0.377-0.334,0.622-0.439s0.525-0.157,0.84-0.157c0.23,0,0.451,0.03,0.664,0.09s0.402,0.151,0.57,0.274     c0.167,0.123,0.304,0.275,0.408,0.458c0.105,0.183,0.165,0.398,0.181,0.648h-1.043C238.734,2.525,238.472,2.302,238.017,2.302z"/>
			<path d="M241.609,4.552c0.16,0.155,0.39,0.233,0.69,0.233c0.215,0,0.399-0.054,0.555-0.162c0.155-0.107,0.25-0.221,0.285-0.341     h0.938c-0.15,0.465-0.38,0.798-0.69,0.998c-0.31,0.2-0.685,0.3-1.125,0.3c-0.305,0-0.58-0.049-0.825-0.146     c-0.244-0.098-0.452-0.236-0.622-0.416c-0.17-0.18-0.302-0.395-0.394-0.645c-0.093-0.25-0.139-0.525-0.139-0.825     c0-0.29,0.047-0.56,0.143-0.81c0.095-0.25,0.229-0.466,0.404-0.648c0.176-0.183,0.384-0.327,0.627-0.432     c0.242-0.105,0.511-0.157,0.806-0.157c0.33,0,0.618,0.063,0.862,0.191c0.245,0.127,0.446,0.299,0.604,0.514     c0.157,0.215,0.271,0.46,0.341,0.735s0.095,0.562,0.075,0.862h-2.798C241.362,4.147,241.449,4.397,241.609,4.552z M242.813,2.512     c-0.128-0.14-0.321-0.21-0.581-0.21c-0.171,0-0.312,0.029-0.424,0.086c-0.113,0.058-0.203,0.129-0.271,0.214     s-0.115,0.175-0.143,0.27c-0.027,0.095-0.044,0.18-0.049,0.255h1.732C243.029,2.857,242.94,2.652,242.813,2.512z"/>
			<path d="M245.787,1.605v0.54h0.022c0.135-0.225,0.31-0.389,0.524-0.491s0.436-0.154,0.66-0.154c0.285,0,0.519,0.039,0.701,0.116     s0.326,0.185,0.432,0.322c0.104,0.138,0.179,0.305,0.221,0.503c0.043,0.197,0.064,0.416,0.064,0.656v2.385h-1.065v-2.19     c0-0.32-0.05-0.559-0.15-0.716c-0.1-0.158-0.277-0.236-0.532-0.236c-0.29,0-0.5,0.086-0.63,0.259s-0.195,0.457-0.195,0.851v2.033     h-1.064V1.605H245.787z"/>
			<path d="M249.176,2.797c0.015-0.25,0.077-0.458,0.188-0.623c0.109-0.165,0.25-0.297,0.42-0.397s0.361-0.171,0.573-0.214     c0.213-0.042,0.427-0.063,0.642-0.063c0.195,0,0.393,0.014,0.593,0.041c0.199,0.028,0.382,0.082,0.547,0.162     c0.165,0.08,0.3,0.191,0.405,0.333c0.104,0.143,0.157,0.332,0.157,0.566V4.62c0,0.175,0.01,0.342,0.03,0.502     c0.02,0.16,0.055,0.28,0.104,0.36h-1.079c-0.021-0.06-0.037-0.121-0.049-0.184c-0.013-0.062-0.021-0.126-0.026-0.191     c-0.17,0.175-0.37,0.297-0.601,0.368c-0.229,0.07-0.465,0.105-0.705,0.105c-0.185,0-0.357-0.022-0.517-0.068     c-0.16-0.045-0.301-0.115-0.421-0.21c-0.119-0.095-0.213-0.215-0.281-0.36c-0.067-0.145-0.101-0.317-0.101-0.518     c0-0.22,0.038-0.401,0.116-0.543c0.077-0.143,0.177-0.256,0.3-0.341c0.122-0.085,0.263-0.149,0.42-0.191s0.316-0.076,0.477-0.101     s0.317-0.045,0.473-0.06c0.154-0.015,0.292-0.038,0.412-0.067c0.12-0.03,0.215-0.074,0.285-0.131     c0.069-0.058,0.103-0.141,0.098-0.251c0-0.115-0.02-0.206-0.057-0.273c-0.037-0.068-0.088-0.12-0.15-0.158     s-0.135-0.062-0.217-0.075c-0.083-0.012-0.172-0.019-0.267-0.019c-0.21,0-0.375,0.045-0.495,0.135     c-0.12,0.09-0.189,0.24-0.21,0.45H249.176z M251.636,3.585c-0.045,0.04-0.102,0.071-0.169,0.094s-0.141,0.041-0.218,0.056     s-0.158,0.028-0.243,0.038c-0.086,0.01-0.171,0.022-0.256,0.038c-0.08,0.015-0.158,0.035-0.235,0.06     c-0.078,0.025-0.146,0.059-0.203,0.101s-0.104,0.096-0.139,0.161s-0.053,0.147-0.053,0.248c0,0.095,0.018,0.175,0.053,0.24     s0.083,0.116,0.143,0.153c0.06,0.038,0.13,0.064,0.21,0.079c0.08,0.015,0.162,0.022,0.247,0.022c0.211,0,0.373-0.035,0.488-0.105     c0.114-0.07,0.199-0.154,0.255-0.251c0.055-0.097,0.089-0.196,0.101-0.296c0.013-0.1,0.02-0.18,0.02-0.24V3.585z"/>
			<path d="M254.539,1.605v0.72h0.015c0.05-0.12,0.117-0.231,0.202-0.333s0.183-0.19,0.293-0.263     c0.109-0.072,0.228-0.128,0.353-0.168s0.255-0.06,0.39-0.06c0.07,0,0.147,0.013,0.232,0.038v0.99     c-0.05-0.01-0.11-0.019-0.18-0.026c-0.07-0.007-0.138-0.011-0.203-0.011c-0.194,0-0.359,0.033-0.494,0.098     c-0.136,0.065-0.244,0.154-0.326,0.266c-0.083,0.113-0.142,0.244-0.177,0.394s-0.053,0.312-0.053,0.487v1.748h-1.064V1.605     H254.539z"/>
			<path d="M256.472,1.005V0.127h1.065v0.877H256.472z M257.538,1.605v3.877h-1.065V1.605H257.538z"/>
			<path d="M258.4,2.704c0.095-0.252,0.229-0.467,0.404-0.645c0.176-0.177,0.386-0.315,0.631-0.413     c0.244-0.097,0.52-0.146,0.824-0.146c0.306,0,0.582,0.049,0.829,0.146c0.247,0.098,0.459,0.235,0.634,0.413     c0.175,0.178,0.31,0.393,0.405,0.645c0.095,0.252,0.143,0.534,0.143,0.844s-0.048,0.59-0.143,0.84     c-0.096,0.25-0.23,0.464-0.405,0.642c-0.175,0.177-0.387,0.313-0.634,0.409c-0.247,0.095-0.523,0.143-0.829,0.143     c-0.305,0-0.58-0.048-0.824-0.143c-0.245-0.095-0.455-0.231-0.631-0.409c-0.175-0.178-0.31-0.391-0.404-0.642     c-0.096-0.25-0.143-0.53-0.143-0.84S258.304,2.956,258.4,2.704z M259.367,4.001c0.03,0.148,0.082,0.28,0.154,0.397     c0.072,0.118,0.169,0.211,0.289,0.281c0.119,0.07,0.27,0.105,0.449,0.105c0.181,0,0.332-0.035,0.454-0.105     c0.122-0.07,0.22-0.164,0.293-0.281c0.072-0.117,0.123-0.25,0.153-0.397c0.03-0.147,0.045-0.298,0.045-0.454     c0-0.155-0.015-0.308-0.045-0.458s-0.081-0.282-0.153-0.397c-0.073-0.115-0.171-0.208-0.293-0.281     c-0.122-0.072-0.273-0.109-0.454-0.109c-0.18,0-0.33,0.037-0.449,0.109c-0.12,0.073-0.217,0.167-0.289,0.281     c-0.072,0.115-0.124,0.248-0.154,0.397c-0.029,0.15-0.045,0.303-0.045,0.458C259.322,3.703,259.337,3.854,259.367,4.001z"/>
		</g>
	</g>
	<g>
		<g>
			<path d="M0.969,92.274h2.284c0.367,0,0.667,0.053,0.899,0.159c0.232,0.106,0.411,0.239,0.536,0.399     c0.126,0.159,0.211,0.333,0.258,0.522c0.046,0.188,0.069,0.362,0.069,0.522s-0.023,0.333-0.069,0.519     c-0.046,0.186-0.132,0.359-0.258,0.518c-0.125,0.16-0.304,0.292-0.536,0.395c-0.232,0.104-0.532,0.156-0.899,0.156H1.875v1.986     H0.969V92.274z M1.875,94.725h1.327c0.102,0,0.205-0.015,0.312-0.043s0.204-0.076,0.293-0.141     c0.089-0.065,0.162-0.152,0.218-0.261s0.083-0.245,0.083-0.41c0-0.169-0.024-0.309-0.073-0.42S3.922,93.25,3.84,93.184     s-0.176-0.11-0.283-0.134c-0.106-0.024-0.22-0.036-0.341-0.036H1.875V94.725z"/>
			<path d="M5.319,93.703h0.616v-0.312c0-0.237,0.029-0.429,0.087-0.576s0.135-0.261,0.232-0.341s0.207-0.133,0.33-0.16     c0.123-0.026,0.252-0.04,0.388-0.04c0.266,0,0.459,0.017,0.58,0.05v0.646c-0.053-0.015-0.11-0.025-0.17-0.033     s-0.132-0.011-0.214-0.011c-0.111,0-0.207,0.026-0.287,0.08c-0.08,0.053-0.12,0.157-0.12,0.312v0.384h0.704v0.616H6.761v3.132     H5.935v-3.132H5.319V93.703z"/>
			<path d="M7.994,92.274H8.82v0.783H7.994V92.274z M7.994,93.703H8.82v3.748H7.994V93.703z"/>
			<path d="M9.589,93.703h3.045v0.58l-2.146,2.516h2.254v0.652H9.444v-0.58l2.073-2.516H9.589V93.703z"/>
			<path d="M13.989,95.791c0,0.145,0.021,0.285,0.062,0.42c0.041,0.135,0.103,0.254,0.185,0.355     c0.082,0.101,0.186,0.182,0.312,0.243c0.125,0.061,0.275,0.091,0.449,0.091c0.242,0,0.436-0.052,0.583-0.156     c0.147-0.104,0.258-0.26,0.33-0.467h0.783c-0.043,0.203-0.119,0.384-0.225,0.543c-0.106,0.16-0.234,0.294-0.384,0.402     c-0.15,0.109-0.318,0.191-0.504,0.247s-0.38,0.083-0.583,0.083c-0.295,0-0.556-0.048-0.783-0.145     c-0.228-0.097-0.419-0.232-0.577-0.406c-0.157-0.174-0.275-0.381-0.355-0.624c-0.08-0.241-0.12-0.507-0.12-0.797     c0-0.266,0.042-0.518,0.127-0.757c0.084-0.239,0.205-0.45,0.362-0.631c0.157-0.181,0.347-0.325,0.569-0.432     c0.223-0.106,0.474-0.159,0.754-0.159c0.294,0,0.559,0.062,0.794,0.185c0.234,0.124,0.429,0.287,0.583,0.49     c0.154,0.203,0.267,0.436,0.337,0.699c0.07,0.264,0.088,0.536,0.055,0.816H13.989z M15.918,95.247     c-0.01-0.13-0.038-0.256-0.083-0.377c-0.046-0.121-0.109-0.226-0.188-0.315c-0.08-0.089-0.176-0.162-0.29-0.217     c-0.113-0.056-0.24-0.083-0.38-0.083c-0.145,0-0.277,0.025-0.396,0.076c-0.118,0.051-0.22,0.121-0.304,0.21     c-0.084,0.089-0.152,0.194-0.203,0.315c-0.051,0.121-0.079,0.251-0.083,0.392H15.918z"/>
			<path d="M17.375,93.703h0.776v0.725h0.014c0.024-0.101,0.071-0.2,0.142-0.297c0.07-0.097,0.155-0.185,0.254-0.265     c0.099-0.08,0.209-0.144,0.33-0.192s0.244-0.072,0.37-0.072c0.097,0,0.163,0.002,0.2,0.007c0.036,0.005,0.073,0.01,0.112,0.014     v0.798c-0.058-0.01-0.117-0.019-0.178-0.025c-0.061-0.007-0.12-0.011-0.178-0.011c-0.14,0-0.272,0.028-0.395,0.083     s-0.231,0.138-0.323,0.247s-0.164,0.243-0.217,0.402s-0.08,0.343-0.08,0.551v1.784h-0.827V93.703z"/>
			<path d="M25.082,96.617c0,0.102,0.013,0.174,0.04,0.218c0.026,0.043,0.079,0.065,0.156,0.065c0.024,0,0.053,0,0.087,0     s0.073-0.005,0.116-0.015v0.573c-0.029,0.01-0.066,0.021-0.112,0.033c-0.046,0.012-0.093,0.023-0.142,0.032     c-0.048,0.01-0.097,0.017-0.145,0.022s-0.089,0.007-0.123,0.007c-0.169,0-0.31-0.034-0.421-0.102     c-0.111-0.068-0.184-0.186-0.217-0.355c-0.165,0.16-0.366,0.276-0.605,0.348c-0.239,0.073-0.47,0.109-0.692,0.109     c-0.169,0-0.331-0.023-0.486-0.069c-0.154-0.046-0.291-0.114-0.409-0.203c-0.119-0.089-0.213-0.203-0.283-0.341     c-0.07-0.138-0.105-0.298-0.105-0.482c0-0.232,0.042-0.42,0.127-0.565s0.196-0.259,0.333-0.341s0.292-0.142,0.464-0.178     c0.172-0.036,0.345-0.064,0.519-0.083c0.15-0.029,0.292-0.049,0.428-0.062s0.255-0.033,0.359-0.062     c0.104-0.029,0.186-0.074,0.247-0.134c0.06-0.06,0.09-0.151,0.09-0.272c0-0.106-0.025-0.193-0.076-0.261s-0.113-0.12-0.188-0.156     c-0.075-0.037-0.158-0.061-0.25-0.073c-0.092-0.012-0.179-0.018-0.261-0.018c-0.232,0-0.423,0.048-0.573,0.145     c-0.15,0.097-0.235,0.247-0.254,0.45h-0.827c0.015-0.242,0.073-0.442,0.174-0.602c0.101-0.159,0.23-0.288,0.388-0.384     s0.334-0.164,0.533-0.203c0.198-0.039,0.401-0.058,0.609-0.058c0.184,0,0.365,0.019,0.543,0.058     c0.179,0.039,0.339,0.102,0.482,0.189c0.142,0.087,0.257,0.199,0.344,0.337s0.13,0.306,0.13,0.504V96.617z M24.255,95.573     c-0.125,0.083-0.28,0.132-0.464,0.149s-0.367,0.042-0.551,0.076c-0.087,0.014-0.172,0.035-0.254,0.062s-0.155,0.063-0.217,0.109     c-0.063,0.046-0.113,0.106-0.149,0.181c-0.036,0.075-0.054,0.166-0.054,0.272c0,0.092,0.026,0.169,0.08,0.232     c0.053,0.062,0.117,0.112,0.192,0.148c0.075,0.036,0.157,0.062,0.246,0.076s0.17,0.022,0.243,0.022     c0.092,0,0.191-0.012,0.297-0.037c0.106-0.024,0.207-0.065,0.301-0.123s0.173-0.132,0.235-0.221     c0.063-0.089,0.094-0.199,0.094-0.33V95.573z"/>
			<path d="M25.596,93.703h0.624v-1.124h0.826v1.124h0.747v0.616h-0.747v2.001c0,0.087,0.004,0.162,0.011,0.225     s0.024,0.116,0.051,0.16c0.026,0.043,0.066,0.076,0.12,0.098c0.053,0.022,0.125,0.033,0.217,0.033     c0.058,0,0.116-0.001,0.174-0.004c0.058-0.002,0.116-0.011,0.174-0.025v0.638c-0.092,0.01-0.181,0.02-0.269,0.029     c-0.087,0.009-0.176,0.014-0.268,0.014c-0.217,0-0.393-0.021-0.526-0.062c-0.133-0.041-0.237-0.102-0.312-0.181     c-0.075-0.08-0.125-0.18-0.152-0.301c-0.026-0.121-0.042-0.259-0.047-0.414v-2.211h-0.624V93.703z"/>
			<path d="M30.917,95.877c-0.005,0.319,0.065,0.57,0.21,0.754s0.384,0.28,0.718,0.29v-1.754c-0.198-0.053-0.396-0.117-0.591-0.192     c-0.196-0.075-0.373-0.171-0.529-0.29c-0.157-0.118-0.284-0.267-0.381-0.446c-0.097-0.179-0.145-0.401-0.145-0.667     c0-0.232,0.045-0.436,0.134-0.612c0.089-0.177,0.21-0.324,0.362-0.442s0.328-0.209,0.526-0.272     c0.198-0.062,0.406-0.094,0.624-0.094v-0.565h0.312v0.565c0.218,0,0.423,0.029,0.616,0.087c0.193,0.058,0.361,0.145,0.504,0.261     c0.143,0.116,0.256,0.263,0.341,0.442c0.084,0.179,0.127,0.387,0.127,0.623h-0.827c-0.01-0.246-0.074-0.435-0.192-0.565     c-0.119-0.13-0.308-0.196-0.569-0.196v1.53c0.218,0.058,0.43,0.126,0.638,0.203c0.208,0.078,0.392,0.177,0.551,0.297     c0.16,0.121,0.288,0.271,0.384,0.449c0.097,0.179,0.145,0.399,0.145,0.66c0,0.271-0.045,0.506-0.134,0.707     c-0.089,0.201-0.211,0.368-0.366,0.5c-0.155,0.133-0.336,0.234-0.544,0.304c-0.208,0.07-0.433,0.11-0.674,0.12v0.566h-0.312     v-0.566c-0.261-0.005-0.5-0.046-0.718-0.123c-0.218-0.077-0.404-0.187-0.559-0.33c-0.155-0.142-0.274-0.317-0.359-0.525     s-0.125-0.447-0.12-0.718H30.917z M31.846,92.803c-0.261,0-0.463,0.055-0.605,0.164c-0.143,0.108-0.214,0.291-0.214,0.547     c0,0.116,0.024,0.215,0.072,0.297c0.048,0.083,0.11,0.152,0.185,0.21c0.075,0.058,0.162,0.105,0.261,0.141     c0.099,0.037,0.2,0.067,0.301,0.091V92.803z M32.157,96.921c0.261-0.019,0.475-0.095,0.642-0.229     c0.167-0.133,0.25-0.344,0.25-0.634c0-0.135-0.025-0.249-0.076-0.341c-0.05-0.092-0.118-0.169-0.203-0.232     c-0.085-0.062-0.18-0.113-0.287-0.152c-0.106-0.039-0.215-0.072-0.326-0.101V96.921z"/>
			<path d="M37.783,96.247H37.13v1.204h-0.783v-1.204h-2.175v-0.819l2.175-3.052h0.783v3.219h0.653V96.247z M34.811,95.595h1.537     v-2.233h-0.015L34.811,95.595z"/>
			<path d="M40.045,92.274c0.362,0,0.658,0.083,0.888,0.25c0.229,0.167,0.408,0.379,0.536,0.638     c0.128,0.259,0.215,0.543,0.261,0.852c0.046,0.31,0.069,0.609,0.069,0.899s-0.023,0.59-0.069,0.899     c-0.046,0.31-0.133,0.594-0.261,0.852c-0.128,0.259-0.307,0.471-0.536,0.638c-0.23,0.167-0.526,0.25-0.888,0.25     c-0.363,0-0.659-0.083-0.888-0.25c-0.229-0.167-0.409-0.379-0.537-0.638c-0.128-0.258-0.215-0.542-0.261-0.852     c-0.046-0.309-0.069-0.609-0.069-0.899s0.022-0.589,0.069-0.899c0.046-0.309,0.133-0.593,0.261-0.852     c0.128-0.258,0.307-0.471,0.537-0.638C39.386,92.357,39.682,92.274,40.045,92.274z M40.045,96.863     c0.179,0,0.329-0.052,0.449-0.156c0.121-0.104,0.216-0.244,0.287-0.42c0.07-0.176,0.12-0.383,0.148-0.62     c0.029-0.236,0.043-0.488,0.043-0.754c0-0.266-0.014-0.516-0.043-0.75c-0.029-0.234-0.079-0.441-0.148-0.62     c-0.07-0.179-0.166-0.32-0.287-0.424c-0.121-0.104-0.271-0.156-0.449-0.156c-0.184,0-0.335,0.052-0.453,0.156     c-0.119,0.104-0.213,0.246-0.283,0.424c-0.07,0.179-0.12,0.385-0.149,0.62c-0.029,0.235-0.043,0.485-0.043,0.75     c0,0.266,0.015,0.518,0.043,0.754c0.029,0.237,0.079,0.444,0.149,0.62c0.07,0.176,0.164,0.316,0.283,0.42     C39.71,96.812,39.861,96.863,40.045,96.863z"/>
		</g>
		<g>
			<g>
				<path d="M0.906,85.513c0,0.198,0.034,0.368,0.102,0.508c0.067,0.14,0.162,0.255,0.283,0.344c0.121,0.089,0.26,0.155,0.417,0.196      c0.157,0.041,0.327,0.062,0.511,0.062c0.198,0,0.368-0.023,0.508-0.069s0.254-0.105,0.341-0.178      c0.087-0.072,0.149-0.156,0.188-0.25c0.039-0.094,0.058-0.19,0.058-0.287c0-0.198-0.045-0.344-0.134-0.438      s-0.188-0.161-0.294-0.199c-0.184-0.068-0.397-0.132-0.642-0.192C2,84.949,1.699,84.87,1.341,84.773      c-0.223-0.058-0.407-0.134-0.555-0.229s-0.265-0.199-0.352-0.315c-0.087-0.116-0.149-0.239-0.185-0.37s-0.054-0.264-0.054-0.399      c0-0.261,0.054-0.487,0.163-0.678s0.252-0.349,0.431-0.475c0.179-0.125,0.382-0.218,0.609-0.279      c0.227-0.061,0.457-0.091,0.688-0.091c0.271,0,0.526,0.035,0.765,0.105c0.239,0.07,0.449,0.175,0.63,0.315      c0.182,0.141,0.325,0.313,0.432,0.519s0.16,0.443,0.16,0.714H3.168c-0.024-0.333-0.138-0.569-0.341-0.707      c-0.203-0.138-0.462-0.207-0.776-0.207c-0.106,0-0.215,0.011-0.326,0.032c-0.111,0.022-0.213,0.058-0.305,0.109      s-0.168,0.12-0.229,0.207c-0.06,0.087-0.09,0.196-0.09,0.326c0,0.184,0.057,0.328,0.17,0.432      c0.113,0.104,0.262,0.183,0.446,0.235c0.019,0.005,0.095,0.025,0.229,0.062c0.133,0.036,0.281,0.076,0.446,0.12      c0.164,0.043,0.325,0.086,0.482,0.127s0.27,0.071,0.337,0.09c0.169,0.053,0.316,0.126,0.442,0.218      c0.126,0.092,0.231,0.197,0.315,0.315c0.084,0.119,0.147,0.246,0.188,0.381s0.062,0.271,0.062,0.406      c0,0.29-0.06,0.538-0.178,0.743c-0.119,0.206-0.274,0.374-0.468,0.504c-0.193,0.131-0.413,0.226-0.66,0.287      c-0.247,0.06-0.498,0.09-0.754,0.09c-0.295,0-0.573-0.036-0.834-0.108c-0.261-0.073-0.488-0.184-0.682-0.333      s-0.348-0.342-0.464-0.577C0.065,86.108,0.005,85.832,0,85.513H0.906z"/>
				<path d="M4.894,82.062H5.72v1.921h0.014c0.102-0.169,0.252-0.311,0.453-0.424c0.201-0.114,0.424-0.17,0.671-0.17      c0.411,0,0.734,0.106,0.971,0.319c0.237,0.213,0.355,0.532,0.355,0.957v2.574H7.358v-2.356c-0.01-0.294-0.072-0.508-0.188-0.642      c-0.116-0.133-0.297-0.199-0.543-0.199c-0.141,0-0.266,0.025-0.377,0.076c-0.111,0.051-0.205,0.121-0.283,0.21      c-0.077,0.089-0.138,0.194-0.181,0.315c-0.043,0.121-0.065,0.249-0.065,0.384v2.211H4.894V82.062z"/>
				<path d="M10.773,87.34c-0.3,0-0.567-0.05-0.801-0.149c-0.234-0.099-0.433-0.235-0.594-0.409      c-0.162-0.174-0.286-0.382-0.37-0.624S8.881,85.65,8.881,85.36c0-0.285,0.042-0.548,0.126-0.79s0.208-0.45,0.37-0.624      c0.162-0.174,0.36-0.311,0.594-0.41s0.501-0.148,0.801-0.148c0.299,0,0.566,0.049,0.801,0.148      c0.234,0.099,0.432,0.236,0.594,0.41s0.285,0.382,0.37,0.624s0.127,0.505,0.127,0.79c0,0.29-0.042,0.556-0.127,0.798      s-0.208,0.449-0.37,0.624c-0.162,0.174-0.36,0.311-0.594,0.409C11.34,87.29,11.073,87.34,10.773,87.34z M10.773,86.688      c0.184,0,0.343-0.039,0.479-0.116s0.247-0.179,0.333-0.305c0.087-0.125,0.151-0.267,0.192-0.424s0.062-0.318,0.062-0.482      c0-0.159-0.021-0.319-0.062-0.479c-0.041-0.159-0.105-0.301-0.192-0.424c-0.087-0.124-0.198-0.224-0.333-0.301      c-0.135-0.078-0.295-0.116-0.479-0.116s-0.343,0.039-0.479,0.116c-0.135,0.077-0.247,0.177-0.333,0.301      c-0.087,0.123-0.151,0.265-0.192,0.424c-0.041,0.16-0.062,0.319-0.062,0.479c0,0.165,0.021,0.325,0.062,0.482      s0.105,0.298,0.192,0.424c0.087,0.126,0.198,0.228,0.333,0.305S10.59,86.688,10.773,86.688z"/>
				<path d="M13.354,83.49h0.776v0.725h0.014c0.024-0.101,0.071-0.2,0.142-0.297c0.07-0.097,0.155-0.185,0.254-0.265      c0.099-0.08,0.209-0.144,0.33-0.192s0.244-0.072,0.37-0.072c0.097,0,0.163,0.002,0.2,0.007c0.036,0.005,0.073,0.01,0.112,0.014      v0.798c-0.058-0.01-0.117-0.019-0.178-0.025c-0.061-0.007-0.12-0.011-0.178-0.011c-0.14,0-0.272,0.028-0.395,0.083      s-0.231,0.138-0.323,0.247s-0.164,0.243-0.217,0.402s-0.08,0.343-0.08,0.551v1.784h-0.827V83.49z"/>
				<path d="M15.529,83.49h0.624v-1.124h0.826v1.124h0.747v0.616h-0.747v2.001c0,0.087,0.004,0.162,0.011,0.225      s0.024,0.116,0.051,0.16c0.026,0.043,0.066,0.076,0.12,0.098c0.053,0.022,0.125,0.033,0.217,0.033      c0.058,0,0.116-0.001,0.174-0.004c0.058-0.002,0.116-0.011,0.174-0.025v0.638c-0.092,0.01-0.181,0.02-0.269,0.029      c-0.087,0.009-0.176,0.014-0.268,0.014c-0.217,0-0.393-0.021-0.526-0.062c-0.133-0.041-0.237-0.102-0.312-0.181      c-0.075-0.08-0.125-0.18-0.152-0.301c-0.026-0.121-0.042-0.259-0.047-0.414v-2.211h-0.624V83.49z"/>
				<path d="M20.959,86.035c0.024,0.242,0.116,0.411,0.275,0.508s0.351,0.145,0.573,0.145c0.077,0,0.166-0.006,0.265-0.019      c0.099-0.012,0.192-0.035,0.279-0.069c0.087-0.034,0.158-0.083,0.214-0.148c0.055-0.065,0.081-0.151,0.076-0.257      c-0.005-0.106-0.044-0.193-0.116-0.261c-0.073-0.067-0.166-0.122-0.279-0.163c-0.113-0.041-0.243-0.076-0.388-0.105      s-0.292-0.061-0.442-0.094c-0.155-0.034-0.303-0.075-0.446-0.123s-0.271-0.114-0.384-0.196      c-0.114-0.083-0.204-0.188-0.272-0.315c-0.067-0.128-0.102-0.287-0.102-0.475c0-0.203,0.05-0.373,0.149-0.511      c0.099-0.138,0.225-0.249,0.377-0.333c0.152-0.084,0.321-0.144,0.507-0.177s0.364-0.051,0.533-0.051      c0.193,0,0.378,0.021,0.555,0.062c0.176,0.041,0.335,0.107,0.478,0.199s0.261,0.211,0.355,0.359s0.153,0.325,0.178,0.533h-0.863      c-0.039-0.198-0.129-0.331-0.272-0.399s-0.306-0.102-0.489-0.102c-0.058,0-0.127,0.005-0.207,0.015      c-0.08,0.01-0.155,0.028-0.225,0.054c-0.07,0.027-0.129,0.065-0.177,0.116c-0.048,0.051-0.073,0.117-0.073,0.199      c0,0.102,0.035,0.184,0.105,0.247c0.07,0.063,0.162,0.115,0.276,0.156c0.113,0.041,0.243,0.076,0.388,0.105      c0.145,0.029,0.295,0.061,0.45,0.094c0.149,0.034,0.297,0.075,0.442,0.124s0.274,0.113,0.388,0.196      c0.113,0.082,0.205,0.186,0.275,0.312c0.07,0.126,0.105,0.28,0.105,0.464c0,0.223-0.051,0.411-0.152,0.566      c-0.101,0.154-0.233,0.28-0.395,0.377s-0.342,0.167-0.54,0.21s-0.394,0.065-0.587,0.065c-0.237,0-0.456-0.027-0.656-0.08      c-0.201-0.053-0.375-0.134-0.522-0.243c-0.148-0.109-0.264-0.244-0.348-0.406c-0.084-0.162-0.129-0.354-0.134-0.577H20.959z"/>
				<path d="M24.744,85.578c0,0.145,0.021,0.285,0.062,0.42c0.041,0.135,0.103,0.254,0.185,0.355      c0.082,0.101,0.186,0.182,0.312,0.243c0.125,0.061,0.275,0.091,0.449,0.091c0.242,0,0.436-0.052,0.583-0.156      c0.147-0.104,0.258-0.26,0.33-0.467h0.783c-0.043,0.203-0.119,0.384-0.225,0.543c-0.106,0.16-0.234,0.294-0.384,0.402      c-0.15,0.109-0.318,0.191-0.504,0.247s-0.38,0.083-0.583,0.083c-0.295,0-0.556-0.048-0.783-0.145      c-0.228-0.097-0.419-0.232-0.577-0.406c-0.157-0.174-0.275-0.381-0.355-0.624c-0.08-0.241-0.12-0.507-0.12-0.797      c0-0.266,0.042-0.518,0.127-0.757c0.084-0.239,0.205-0.45,0.362-0.631c0.157-0.181,0.347-0.325,0.569-0.432      c0.223-0.106,0.474-0.159,0.754-0.159c0.294,0,0.559,0.062,0.794,0.185c0.234,0.124,0.429,0.287,0.583,0.49      c0.154,0.203,0.267,0.436,0.337,0.699c0.07,0.264,0.088,0.536,0.055,0.816H24.744z M26.672,85.034      c-0.01-0.13-0.038-0.256-0.083-0.377c-0.046-0.121-0.109-0.226-0.188-0.315c-0.08-0.089-0.176-0.162-0.29-0.217      c-0.113-0.056-0.24-0.083-0.38-0.083c-0.145,0-0.277,0.025-0.396,0.076c-0.118,0.051-0.22,0.121-0.304,0.21      c-0.084,0.089-0.152,0.194-0.203,0.315c-0.051,0.121-0.079,0.251-0.083,0.392H26.672z"/>
				<path d="M28.151,82.062h0.827v5.176h-0.827V82.062z"/>
				<path d="M29.898,82.062h0.827v5.176h-0.827V82.062z"/>
			</g>
		</g>
	</g>
	<g>
		<g>
			<path d="M187.592,16.873h2.516c0.464,0,0.837,0.106,1.117,0.319s0.42,0.534,0.42,0.964c0,0.261-0.063,0.484-0.191,0.67     c-0.129,0.186-0.312,0.33-0.548,0.432v0.014c0.319,0.068,0.561,0.219,0.725,0.453c0.165,0.234,0.247,0.528,0.247,0.881     c0,0.203-0.036,0.393-0.109,0.569c-0.072,0.176-0.186,0.329-0.34,0.457c-0.155,0.128-0.354,0.23-0.595,0.305     c-0.242,0.075-0.529,0.112-0.863,0.112h-2.378V16.873z M188.499,19.041h1.479c0.217,0,0.398-0.062,0.544-0.185     c0.145-0.123,0.217-0.301,0.217-0.533c0-0.261-0.065-0.444-0.195-0.551c-0.131-0.106-0.319-0.16-0.565-0.16h-1.479V19.041z      M188.499,21.31h1.603c0.275,0,0.489-0.071,0.642-0.214c0.152-0.142,0.229-0.344,0.229-0.605c0-0.256-0.076-0.453-0.229-0.591     c-0.152-0.138-0.366-0.207-0.642-0.207h-1.603V21.31z"/>
			<path d="M195.872,22.049h-0.812v-0.522h-0.014c-0.102,0.188-0.253,0.339-0.453,0.453c-0.201,0.113-0.405,0.17-0.613,0.17     c-0.493,0-0.85-0.122-1.069-0.366s-0.33-0.613-0.33-1.105v-2.378h0.827v2.298c0,0.329,0.062,0.561,0.188,0.696     c0.125,0.135,0.302,0.203,0.529,0.203c0.174,0,0.318-0.027,0.435-0.08s0.21-0.125,0.283-0.214     c0.072-0.089,0.124-0.197,0.155-0.323c0.031-0.125,0.048-0.261,0.048-0.406v-2.175h0.826V22.049z"/>
			<path d="M196.328,18.301h0.906l0.979,2.798h0.014l0.95-2.798h0.862l-1.457,3.951c-0.067,0.169-0.134,0.331-0.199,0.486     c-0.065,0.154-0.146,0.291-0.239,0.409c-0.095,0.119-0.212,0.213-0.352,0.283c-0.141,0.07-0.319,0.105-0.536,0.105     c-0.193,0-0.385-0.015-0.573-0.043v-0.696c0.067,0.01,0.133,0.021,0.195,0.033c0.063,0.012,0.129,0.018,0.196,0.018     c0.097,0,0.177-0.012,0.239-0.036c0.062-0.024,0.114-0.059,0.156-0.105c0.041-0.046,0.076-0.101,0.104-0.163     c0.029-0.063,0.056-0.136,0.08-0.218l0.094-0.29L196.328,18.301z"/>
			<path d="M202.542,16.873h0.826v1.914h0.015c0.058-0.092,0.128-0.174,0.21-0.246c0.082-0.073,0.173-0.134,0.272-0.185     c0.099-0.051,0.202-0.089,0.312-0.116c0.108-0.026,0.216-0.04,0.322-0.04c0.295,0,0.553,0.052,0.772,0.156     s0.402,0.247,0.547,0.428c0.146,0.181,0.254,0.393,0.326,0.634c0.073,0.242,0.109,0.5,0.109,0.776     c0,0.251-0.033,0.496-0.098,0.732c-0.065,0.237-0.165,0.446-0.298,0.627s-0.301,0.326-0.504,0.435s-0.442,0.163-0.718,0.163     c-0.126,0-0.252-0.009-0.381-0.025c-0.128-0.017-0.25-0.05-0.365-0.098c-0.116-0.048-0.222-0.111-0.315-0.188     c-0.095-0.077-0.173-0.179-0.236-0.304h-0.014v0.515h-0.783V16.873z M205.426,20.179c0-0.169-0.021-0.333-0.064-0.493     c-0.044-0.16-0.109-0.301-0.196-0.424s-0.195-0.222-0.326-0.297c-0.131-0.075-0.28-0.112-0.449-0.112     c-0.349,0-0.61,0.121-0.787,0.362c-0.176,0.242-0.265,0.563-0.265,0.964c0,0.188,0.023,0.364,0.069,0.526     c0.046,0.162,0.114,0.301,0.206,0.417c0.092,0.116,0.202,0.208,0.33,0.276c0.128,0.067,0.277,0.102,0.446,0.102     c0.188,0,0.348-0.039,0.479-0.116c0.13-0.077,0.238-0.178,0.322-0.301c0.085-0.124,0.146-0.264,0.182-0.42     C205.409,20.504,205.426,20.343,205.426,20.179z"/>
			<path d="M210.088,21.215c0,0.102,0.014,0.174,0.04,0.218s0.078,0.065,0.155,0.065c0.024,0,0.054,0,0.088,0     c0.033,0,0.072-0.005,0.115-0.015v0.573c-0.028,0.01-0.066,0.021-0.112,0.033c-0.046,0.012-0.093,0.023-0.141,0.032     c-0.049,0.01-0.098,0.017-0.146,0.022c-0.049,0.005-0.09,0.007-0.123,0.007c-0.169,0-0.31-0.034-0.421-0.102     s-0.184-0.186-0.217-0.355c-0.165,0.16-0.366,0.276-0.605,0.348c-0.239,0.073-0.471,0.109-0.692,0.109     c-0.17,0-0.331-0.023-0.486-0.069c-0.154-0.046-0.291-0.114-0.409-0.203c-0.119-0.089-0.213-0.203-0.283-0.341     s-0.104-0.298-0.104-0.482c0-0.232,0.042-0.42,0.126-0.565c0.085-0.145,0.196-0.259,0.334-0.341s0.292-0.142,0.464-0.178     s0.345-0.064,0.519-0.083c0.149-0.029,0.292-0.049,0.428-0.062c0.135-0.012,0.255-0.033,0.358-0.062     c0.104-0.029,0.187-0.074,0.247-0.134c0.061-0.06,0.091-0.151,0.091-0.272c0-0.106-0.025-0.193-0.076-0.261     s-0.114-0.12-0.188-0.156c-0.075-0.037-0.158-0.061-0.25-0.073c-0.093-0.012-0.18-0.018-0.262-0.018     c-0.231,0-0.423,0.048-0.572,0.145c-0.15,0.097-0.234,0.247-0.254,0.45h-0.826c0.014-0.242,0.072-0.442,0.174-0.602     c0.102-0.159,0.23-0.288,0.388-0.384s0.335-0.164,0.533-0.203c0.198-0.039,0.4-0.058,0.608-0.058     c0.184,0,0.365,0.019,0.544,0.058c0.179,0.039,0.34,0.102,0.482,0.189c0.143,0.087,0.257,0.199,0.344,0.337     s0.131,0.306,0.131,0.504V21.215z M209.262,20.171c-0.126,0.083-0.28,0.132-0.464,0.149c-0.185,0.017-0.368,0.042-0.552,0.076     c-0.087,0.014-0.171,0.035-0.254,0.062c-0.082,0.026-0.154,0.063-0.217,0.109c-0.063,0.046-0.112,0.106-0.148,0.181     c-0.037,0.075-0.055,0.166-0.055,0.272c0,0.092,0.026,0.169,0.08,0.232c0.053,0.062,0.117,0.112,0.191,0.148     c0.075,0.036,0.157,0.062,0.247,0.076c0.089,0.015,0.17,0.022,0.242,0.022c0.092,0,0.191-0.012,0.298-0.037     c0.106-0.024,0.206-0.065,0.301-0.123c0.094-0.058,0.173-0.132,0.235-0.221s0.095-0.199,0.095-0.33V20.171z"/>
			<path d="M213.51,19.555c-0.033-0.232-0.127-0.407-0.278-0.525c-0.152-0.119-0.345-0.178-0.577-0.178     c-0.106,0-0.22,0.018-0.341,0.054c-0.12,0.037-0.231,0.104-0.333,0.203s-0.187,0.237-0.254,0.413     c-0.067,0.177-0.102,0.408-0.102,0.692c0,0.155,0.019,0.31,0.055,0.464s0.094,0.292,0.174,0.413     c0.08,0.121,0.183,0.219,0.309,0.293c0.125,0.075,0.277,0.113,0.456,0.113c0.242,0,0.441-0.075,0.599-0.225     c0.157-0.149,0.255-0.36,0.293-0.631h0.827c-0.077,0.488-0.263,0.862-0.555,1.121c-0.293,0.258-0.681,0.388-1.164,0.388     c-0.295,0-0.555-0.05-0.779-0.149c-0.225-0.099-0.414-0.234-0.569-0.406c-0.154-0.171-0.271-0.376-0.352-0.613     c-0.079-0.237-0.119-0.493-0.119-0.769c0-0.28,0.038-0.543,0.116-0.79c0.077-0.247,0.193-0.46,0.348-0.642     s0.347-0.324,0.576-0.428s0.499-0.156,0.809-0.156c0.218,0,0.424,0.028,0.62,0.083c0.195,0.056,0.369,0.139,0.521,0.25     s0.277,0.251,0.374,0.42c0.097,0.169,0.154,0.37,0.174,0.602H213.51z"/>
			<path d="M215.034,16.873h0.826v2.943l1.493-1.515h1.016l-1.436,1.377l1.573,2.371h-1.008l-1.146-1.82l-0.493,0.479v1.341h-0.826     V16.873z"/>
			<path d="M190.616,29.959c0,0.102,0.014,0.174,0.04,0.218s0.078,0.065,0.155,0.065c0.024,0,0.054,0,0.088,0     c0.033,0,0.072-0.005,0.115-0.015v0.573c-0.028,0.01-0.066,0.021-0.112,0.033c-0.046,0.012-0.093,0.023-0.141,0.032     c-0.049,0.01-0.098,0.017-0.146,0.022c-0.049,0.005-0.09,0.007-0.123,0.007c-0.169,0-0.31-0.034-0.421-0.102     s-0.184-0.186-0.217-0.355c-0.165,0.16-0.366,0.276-0.605,0.348c-0.239,0.073-0.471,0.109-0.692,0.109     c-0.17,0-0.331-0.023-0.486-0.069c-0.154-0.046-0.291-0.114-0.409-0.203c-0.119-0.089-0.213-0.203-0.283-0.341     s-0.104-0.298-0.104-0.482c0-0.232,0.042-0.42,0.126-0.565c0.085-0.145,0.196-0.259,0.334-0.341s0.292-0.142,0.464-0.178     s0.345-0.064,0.519-0.083c0.149-0.029,0.292-0.049,0.428-0.062c0.135-0.012,0.255-0.033,0.358-0.062     c0.104-0.029,0.187-0.074,0.247-0.134c0.061-0.06,0.091-0.151,0.091-0.272c0-0.106-0.025-0.193-0.076-0.261     s-0.114-0.12-0.188-0.156c-0.075-0.037-0.158-0.061-0.25-0.073c-0.093-0.012-0.18-0.018-0.262-0.018     c-0.231,0-0.423,0.048-0.572,0.145c-0.15,0.097-0.234,0.247-0.254,0.45h-0.826c0.014-0.242,0.072-0.442,0.174-0.602     c0.102-0.159,0.23-0.288,0.388-0.384s0.335-0.164,0.533-0.203c0.198-0.039,0.4-0.058,0.608-0.058     c0.184,0,0.365,0.019,0.544,0.058c0.179,0.039,0.34,0.102,0.482,0.189c0.143,0.087,0.257,0.199,0.344,0.337     s0.131,0.306,0.131,0.504V29.959z M189.79,28.916c-0.126,0.083-0.28,0.132-0.464,0.149c-0.185,0.017-0.368,0.042-0.552,0.076     c-0.087,0.014-0.171,0.035-0.254,0.062c-0.082,0.026-0.154,0.063-0.217,0.109c-0.063,0.046-0.112,0.106-0.148,0.181     c-0.037,0.075-0.055,0.166-0.055,0.272c0,0.092,0.026,0.169,0.08,0.232c0.053,0.062,0.117,0.112,0.191,0.148     c0.075,0.036,0.157,0.062,0.247,0.076c0.089,0.015,0.17,0.022,0.242,0.022c0.092,0,0.191-0.012,0.298-0.037     c0.106-0.024,0.206-0.065,0.301-0.123c0.094-0.058,0.173-0.132,0.235-0.221s0.095-0.199,0.095-0.33V28.916z"/>
			<path d="M191.13,27.045h0.624v-1.124h0.826v1.124h0.747v0.616h-0.747v2.001c0,0.087,0.004,0.162,0.011,0.225     c0.008,0.063,0.024,0.116,0.051,0.16s0.066,0.076,0.12,0.098c0.053,0.022,0.125,0.033,0.218,0.033     c0.058,0,0.115-0.001,0.174-0.004c0.058-0.002,0.115-0.011,0.174-0.025v0.638c-0.092,0.01-0.182,0.02-0.269,0.029     c-0.087,0.009-0.177,0.014-0.269,0.014c-0.217,0-0.393-0.021-0.525-0.062s-0.236-0.102-0.312-0.181s-0.126-0.18-0.152-0.301     c-0.026-0.121-0.042-0.259-0.047-0.414v-2.211h-0.624V27.045z"/>
			<path d="M196.453,29.22c-0.005,0.319,0.064,0.57,0.21,0.754c0.145,0.184,0.384,0.28,0.718,0.29V28.51     c-0.198-0.053-0.396-0.117-0.591-0.192c-0.196-0.075-0.372-0.171-0.529-0.29c-0.157-0.118-0.284-0.267-0.381-0.446     c-0.097-0.179-0.145-0.401-0.145-0.667c0-0.232,0.044-0.436,0.134-0.612c0.089-0.177,0.21-0.324,0.362-0.442     s0.327-0.209,0.525-0.272c0.198-0.062,0.406-0.094,0.624-0.094v-0.565h0.312v0.565c0.218,0,0.423,0.029,0.616,0.087     c0.193,0.058,0.361,0.145,0.504,0.261c0.143,0.116,0.256,0.263,0.341,0.442c0.085,0.179,0.127,0.387,0.127,0.623h-0.826     c-0.01-0.246-0.074-0.435-0.192-0.565c-0.119-0.13-0.309-0.196-0.569-0.196v1.53c0.218,0.058,0.43,0.126,0.638,0.203     c0.208,0.078,0.392,0.177,0.552,0.297c0.159,0.121,0.287,0.271,0.384,0.449c0.097,0.179,0.146,0.399,0.146,0.66     c0,0.271-0.045,0.506-0.135,0.707c-0.089,0.201-0.211,0.368-0.366,0.5c-0.154,0.133-0.336,0.234-0.544,0.304     c-0.207,0.07-0.433,0.11-0.674,0.12v0.566h-0.312v-0.566c-0.261-0.005-0.5-0.046-0.718-0.123s-0.403-0.187-0.559-0.33     c-0.154-0.142-0.274-0.317-0.358-0.525c-0.085-0.208-0.125-0.447-0.12-0.718H196.453z M197.38,26.146     c-0.261,0-0.463,0.055-0.605,0.164c-0.143,0.108-0.214,0.291-0.214,0.547c0,0.116,0.024,0.215,0.072,0.297     c0.049,0.083,0.11,0.152,0.185,0.21c0.075,0.058,0.162,0.105,0.262,0.141c0.099,0.037,0.199,0.067,0.301,0.091V26.146z      M197.692,30.264c0.261-0.019,0.475-0.095,0.642-0.229c0.167-0.133,0.25-0.344,0.25-0.634c0-0.135-0.025-0.249-0.076-0.341     s-0.118-0.169-0.203-0.232c-0.084-0.062-0.18-0.113-0.286-0.152c-0.106-0.039-0.215-0.072-0.326-0.101V30.264z"/>
			<path d="M203.282,30.793h-3.465c0.004-0.42,0.105-0.788,0.304-1.102c0.198-0.314,0.469-0.587,0.812-0.819     c0.164-0.121,0.336-0.238,0.515-0.352c0.179-0.113,0.343-0.235,0.493-0.366c0.149-0.13,0.272-0.271,0.369-0.424     s0.147-0.328,0.152-0.526c0-0.092-0.011-0.189-0.032-0.293s-0.064-0.201-0.127-0.29s-0.15-0.164-0.261-0.225     c-0.111-0.061-0.257-0.091-0.436-0.091c-0.164,0-0.301,0.033-0.409,0.098c-0.109,0.065-0.196,0.154-0.261,0.268     c-0.065,0.114-0.114,0.248-0.146,0.402s-0.05,0.321-0.055,0.5h-0.826c0-0.28,0.037-0.54,0.112-0.779s0.188-0.446,0.337-0.62     c0.15-0.174,0.333-0.311,0.548-0.41s0.465-0.148,0.75-0.148c0.31,0,0.568,0.05,0.776,0.152c0.207,0.102,0.375,0.23,0.504,0.384     c0.128,0.155,0.218,0.323,0.271,0.504c0.053,0.181,0.08,0.354,0.08,0.519c0,0.203-0.032,0.387-0.095,0.551     c-0.062,0.165-0.147,0.315-0.254,0.453s-0.227,0.265-0.362,0.381c-0.136,0.116-0.275,0.225-0.421,0.326     c-0.145,0.102-0.289,0.198-0.435,0.29c-0.145,0.092-0.279,0.184-0.402,0.275s-0.23,0.188-0.322,0.287s-0.155,0.204-0.188,0.315     h2.472V30.793z"/>
			<path d="M205.581,25.617c0.362,0,0.658,0.083,0.888,0.25c0.229,0.167,0.408,0.379,0.537,0.638     c0.128,0.259,0.215,0.543,0.261,0.852c0.046,0.31,0.068,0.609,0.068,0.899s-0.022,0.59-0.068,0.899     c-0.046,0.31-0.133,0.594-0.261,0.852c-0.129,0.259-0.308,0.471-0.537,0.638c-0.229,0.167-0.525,0.25-0.888,0.25     s-0.659-0.083-0.889-0.25c-0.229-0.167-0.408-0.379-0.536-0.638c-0.128-0.258-0.215-0.542-0.261-0.852     c-0.046-0.309-0.069-0.609-0.069-0.899s0.023-0.589,0.069-0.899c0.046-0.309,0.133-0.593,0.261-0.852     c0.128-0.258,0.307-0.471,0.536-0.638C204.921,25.7,205.218,25.617,205.581,25.617z M205.581,30.206     c0.179,0,0.328-0.052,0.449-0.156s0.217-0.244,0.286-0.42c0.07-0.176,0.12-0.383,0.149-0.62c0.028-0.236,0.043-0.488,0.043-0.754     c0-0.266-0.015-0.516-0.043-0.75c-0.029-0.234-0.079-0.441-0.149-0.62c-0.069-0.179-0.165-0.32-0.286-0.424     c-0.121-0.104-0.271-0.156-0.449-0.156c-0.184,0-0.335,0.052-0.453,0.156c-0.118,0.104-0.213,0.246-0.283,0.424     c-0.069,0.179-0.119,0.385-0.148,0.62c-0.029,0.235-0.043,0.485-0.043,0.75c0,0.266,0.014,0.518,0.043,0.754     c0.029,0.237,0.079,0.444,0.148,0.62c0.07,0.176,0.165,0.316,0.283,0.42S205.397,30.206,205.581,30.206z"/>
		</g>
		<g>
			<g>
				
					<rect x="222.546" y="11.396" fill="#35A987" stroke="#000000" stroke-width="0.5" stroke-miterlimit="10" width="48.355" height="12.941"/>
				
					<rect x="222.546" y="24.337" fill="#FFFFFF" stroke="#000000" stroke-width="0.5" stroke-miterlimit="10" width="48.355" height="12.941"/>
			</g>
			<g>
				<g>
					<path fill="#FFFFFF" d="M231.822,18.83c-0.005,0.319,0.064,0.57,0.21,0.754c0.145,0.184,0.384,0.28,0.718,0.29v-1.754       c-0.198-0.053-0.396-0.117-0.591-0.192c-0.196-0.075-0.372-0.171-0.529-0.29c-0.157-0.118-0.284-0.267-0.381-0.446       c-0.097-0.179-0.145-0.401-0.145-0.667c0-0.232,0.044-0.436,0.134-0.612c0.089-0.177,0.21-0.324,0.362-0.442       s0.327-0.209,0.525-0.272c0.198-0.062,0.406-0.094,0.624-0.094v-0.565h0.312v0.565c0.218,0,0.423,0.029,0.616,0.087       c0.193,0.058,0.361,0.145,0.504,0.261c0.143,0.116,0.256,0.263,0.341,0.442c0.085,0.179,0.127,0.387,0.127,0.623h-0.826       c-0.01-0.246-0.074-0.435-0.192-0.565c-0.119-0.13-0.309-0.196-0.569-0.196v1.53c0.218,0.058,0.43,0.126,0.638,0.203       c0.208,0.078,0.392,0.177,0.552,0.297c0.159,0.121,0.287,0.271,0.384,0.449c0.097,0.179,0.146,0.399,0.146,0.66       c0,0.271-0.045,0.506-0.135,0.707c-0.089,0.201-0.211,0.368-0.366,0.5c-0.154,0.133-0.336,0.234-0.544,0.304       c-0.207,0.07-0.433,0.11-0.674,0.12v0.566h-0.312v-0.566c-0.261-0.005-0.5-0.046-0.718-0.123s-0.403-0.187-0.559-0.33       c-0.154-0.142-0.274-0.317-0.358-0.525c-0.085-0.208-0.125-0.447-0.12-0.718H231.822z M232.75,15.755       c-0.261,0-0.463,0.055-0.605,0.164c-0.143,0.108-0.214,0.291-0.214,0.547c0,0.116,0.024,0.215,0.072,0.297       c0.049,0.083,0.11,0.152,0.185,0.21c0.075,0.058,0.162,0.105,0.262,0.141c0.099,0.037,0.199,0.067,0.301,0.091V15.755z        M233.061,19.874c0.261-0.019,0.475-0.095,0.642-0.229c0.167-0.133,0.25-0.344,0.25-0.634c0-0.135-0.025-0.249-0.076-0.341       s-0.118-0.169-0.203-0.232c-0.084-0.062-0.18-0.113-0.286-0.152c-0.106-0.039-0.215-0.072-0.326-0.101V19.874z"/>
					<path fill="#FFFFFF" d="M238.651,20.403h-3.465c0.004-0.42,0.105-0.788,0.304-1.102c0.198-0.314,0.469-0.587,0.812-0.819       c0.164-0.121,0.336-0.238,0.515-0.352c0.179-0.113,0.343-0.235,0.493-0.366c0.149-0.13,0.272-0.271,0.369-0.424       s0.147-0.328,0.152-0.526c0-0.092-0.011-0.189-0.032-0.293s-0.064-0.201-0.127-0.29s-0.15-0.164-0.261-0.225       c-0.111-0.061-0.257-0.091-0.436-0.091c-0.164,0-0.301,0.033-0.409,0.098c-0.109,0.065-0.196,0.154-0.261,0.268       c-0.065,0.114-0.114,0.248-0.146,0.402s-0.05,0.321-0.055,0.5h-0.826c0-0.28,0.037-0.54,0.112-0.779s0.188-0.446,0.337-0.62       c0.15-0.174,0.333-0.311,0.548-0.41s0.465-0.148,0.75-0.148c0.31,0,0.568,0.05,0.776,0.152c0.207,0.102,0.375,0.23,0.504,0.384       c0.128,0.155,0.218,0.323,0.271,0.504c0.053,0.181,0.08,0.354,0.08,0.519c0,0.203-0.032,0.387-0.095,0.551       c-0.062,0.165-0.147,0.315-0.254,0.453s-0.227,0.265-0.362,0.381c-0.136,0.116-0.275,0.225-0.421,0.326       c-0.145,0.102-0.289,0.198-0.435,0.29c-0.145,0.092-0.279,0.184-0.402,0.275s-0.23,0.188-0.322,0.287s-0.155,0.204-0.188,0.315       h2.472V20.403z"/>
					<path fill="#FFFFFF" d="M240.95,15.227c0.362,0,0.658,0.083,0.888,0.25c0.229,0.167,0.408,0.379,0.537,0.638       c0.128,0.259,0.215,0.543,0.261,0.852c0.046,0.31,0.068,0.609,0.068,0.899s-0.022,0.59-0.068,0.899       c-0.046,0.31-0.133,0.594-0.261,0.852c-0.129,0.259-0.308,0.471-0.537,0.638c-0.229,0.167-0.525,0.25-0.888,0.25       s-0.659-0.083-0.889-0.25c-0.229-0.167-0.408-0.379-0.536-0.638c-0.128-0.258-0.215-0.542-0.261-0.852       c-0.046-0.309-0.069-0.609-0.069-0.899s0.023-0.589,0.069-0.899c0.046-0.309,0.133-0.593,0.261-0.852       c0.128-0.258,0.307-0.471,0.536-0.638C240.291,15.31,240.587,15.227,240.95,15.227z M240.95,19.815       c0.179,0,0.328-0.052,0.449-0.156s0.217-0.244,0.286-0.42c0.07-0.176,0.12-0.383,0.149-0.62       c0.028-0.236,0.043-0.488,0.043-0.754c0-0.266-0.015-0.516-0.043-0.75c-0.029-0.234-0.079-0.441-0.149-0.62       c-0.069-0.179-0.165-0.32-0.286-0.424c-0.121-0.104-0.271-0.156-0.449-0.156c-0.184,0-0.335,0.052-0.453,0.156       c-0.118,0.104-0.213,0.246-0.283,0.424c-0.069,0.179-0.119,0.385-0.148,0.62c-0.029,0.235-0.043,0.485-0.043,0.75       c0,0.266,0.014,0.518,0.043,0.754c0.029,0.237,0.079,0.444,0.148,0.62c0.07,0.176,0.165,0.316,0.283,0.42       S240.766,19.815,240.95,19.815z"/>
					<path fill="#FFFFFF" d="M245.438,16.655h0.783v0.507h0.014c0.116-0.217,0.278-0.374,0.486-0.468s0.433-0.141,0.674-0.141       c0.295,0,0.553,0.052,0.772,0.156s0.402,0.247,0.547,0.428c0.146,0.181,0.254,0.393,0.326,0.634       c0.073,0.242,0.109,0.5,0.109,0.776c0,0.251-0.033,0.496-0.098,0.732c-0.065,0.237-0.165,0.446-0.298,0.627       s-0.301,0.326-0.504,0.435s-0.442,0.163-0.718,0.163c-0.121,0-0.241-0.011-0.362-0.033c-0.121-0.021-0.237-0.057-0.348-0.105       c-0.111-0.048-0.214-0.11-0.309-0.185c-0.094-0.075-0.173-0.163-0.235-0.265h-0.015v1.871h-0.826V16.655z M248.323,18.532       c0-0.169-0.021-0.333-0.064-0.493c-0.044-0.16-0.109-0.301-0.196-0.424s-0.195-0.222-0.326-0.297       c-0.131-0.075-0.28-0.112-0.449-0.112c-0.349,0-0.61,0.121-0.787,0.362c-0.176,0.242-0.265,0.563-0.265,0.964       c0,0.188,0.023,0.364,0.069,0.526c0.046,0.162,0.114,0.301,0.206,0.417c0.092,0.116,0.202,0.208,0.33,0.276       c0.128,0.067,0.277,0.102,0.446,0.102c0.188,0,0.348-0.039,0.479-0.116c0.13-0.077,0.238-0.178,0.322-0.301       c0.085-0.124,0.146-0.264,0.182-0.42C248.305,18.857,248.323,18.697,248.323,18.532z"/>
					<path fill="#FFFFFF" d="M249.845,16.655h0.776v0.725h0.015c0.023-0.101,0.071-0.2,0.141-0.297       c0.07-0.097,0.155-0.185,0.254-0.265c0.1-0.08,0.209-0.144,0.33-0.192s0.244-0.072,0.37-0.072c0.097,0,0.163,0.002,0.199,0.007       s0.073,0.01,0.112,0.014v0.798c-0.058-0.01-0.117-0.019-0.178-0.025c-0.061-0.007-0.119-0.011-0.178-0.011       c-0.14,0-0.271,0.028-0.395,0.083c-0.124,0.056-0.231,0.138-0.323,0.247s-0.164,0.243-0.218,0.402       c-0.053,0.16-0.079,0.343-0.079,0.551v1.784h-0.827V16.655z"/>
					<path fill="#FFFFFF" d="M253.985,20.504c-0.3,0-0.566-0.05-0.801-0.149c-0.235-0.099-0.433-0.235-0.595-0.409       c-0.162-0.174-0.285-0.382-0.37-0.624c-0.084-0.242-0.127-0.508-0.127-0.798c0-0.285,0.043-0.548,0.127-0.79       c0.085-0.242,0.208-0.45,0.37-0.624s0.359-0.311,0.595-0.41c0.234-0.099,0.501-0.148,0.801-0.148s0.566,0.049,0.801,0.148       s0.433,0.236,0.595,0.41s0.285,0.382,0.37,0.624c0.084,0.242,0.127,0.505,0.127,0.79c0,0.29-0.043,0.556-0.127,0.798       c-0.085,0.242-0.208,0.449-0.37,0.624c-0.162,0.174-0.36,0.311-0.595,0.409C254.551,20.455,254.285,20.504,253.985,20.504z        M253.985,19.852c0.184,0,0.343-0.039,0.479-0.116c0.135-0.077,0.246-0.179,0.333-0.305c0.088-0.125,0.151-0.267,0.192-0.424       s0.062-0.318,0.062-0.482c0-0.159-0.021-0.319-0.062-0.479c-0.041-0.159-0.104-0.301-0.192-0.424       c-0.087-0.124-0.198-0.224-0.333-0.301c-0.136-0.078-0.295-0.116-0.479-0.116s-0.344,0.039-0.479,0.116       c-0.136,0.077-0.246,0.177-0.334,0.301c-0.087,0.123-0.15,0.265-0.191,0.424c-0.041,0.16-0.062,0.319-0.062,0.479       c0,0.165,0.021,0.325,0.062,0.482s0.104,0.298,0.191,0.424c0.088,0.126,0.198,0.228,0.334,0.305       C253.641,19.813,253.801,19.852,253.985,19.852z"/>
					<path fill="#FFFFFF" d="M256.196,16.655h0.616v-0.312c0-0.237,0.029-0.429,0.087-0.576s0.135-0.261,0.232-0.341       c0.096-0.08,0.206-0.133,0.329-0.16c0.124-0.026,0.253-0.04,0.388-0.04c0.267,0,0.46,0.017,0.58,0.05v0.646       c-0.053-0.015-0.109-0.025-0.17-0.033s-0.132-0.011-0.214-0.011c-0.111,0-0.207,0.026-0.286,0.08       c-0.08,0.053-0.12,0.157-0.12,0.312v0.384h0.703v0.616h-0.703v3.132h-0.826v-3.132h-0.616V16.655z"/>
					<path fill="#FFFFFF" d="M258.871,15.227h0.826v0.783h-0.826V15.227z M258.871,16.655h0.826v3.748h-0.826V16.655z"/>
					<path fill="#FFFFFF" d="M260.218,16.655h0.624v-1.124h0.826v1.124h0.747v0.616h-0.747v2.001c0,0.087,0.004,0.162,0.011,0.225       c0.008,0.063,0.024,0.116,0.051,0.16s0.066,0.076,0.12,0.098c0.053,0.022,0.125,0.033,0.218,0.033       c0.058,0,0.115-0.001,0.174-0.004c0.058-0.002,0.115-0.011,0.174-0.025v0.638c-0.092,0.01-0.182,0.02-0.269,0.029       c-0.087,0.009-0.177,0.014-0.269,0.014c-0.217,0-0.393-0.021-0.525-0.062s-0.236-0.102-0.312-0.181s-0.126-0.18-0.152-0.301       c-0.026-0.121-0.042-0.259-0.047-0.414v-2.211h-0.624V16.655z"/>
				</g>
			</g>
		</g>
	</g>
	
		<rect x="222.546" y="64.6" fill="#EF4130" stroke="#000000" stroke-width="0.5" stroke-miterlimit="10" width="48.355" height="25.883"/>
	
		<rect x="222.546" y="90.53" fill="#FFFFFF" stroke="#000000" stroke-width="0.5" stroke-miterlimit="10" width="48.355" height="25.883"/>
	<g>
		<g>
			<path fill="#FFFFFF" d="M233.834,76.466c-0.005,0.319,0.064,0.57,0.21,0.754c0.145,0.184,0.384,0.28,0.718,0.29v-1.754     c-0.198-0.053-0.396-0.117-0.591-0.192c-0.196-0.075-0.372-0.171-0.529-0.29c-0.157-0.118-0.284-0.267-0.381-0.446     c-0.097-0.179-0.145-0.401-0.145-0.667c0-0.232,0.044-0.436,0.134-0.612c0.089-0.177,0.21-0.324,0.362-0.442     s0.327-0.209,0.525-0.272c0.198-0.062,0.406-0.094,0.624-0.094v-0.565h0.312v0.565c0.218,0,0.423,0.029,0.616,0.087     c0.193,0.058,0.361,0.145,0.504,0.261c0.143,0.116,0.256,0.263,0.341,0.442c0.085,0.179,0.127,0.387,0.127,0.623h-0.826     c-0.01-0.246-0.074-0.435-0.192-0.565c-0.119-0.13-0.309-0.196-0.569-0.196v1.53c0.218,0.058,0.43,0.126,0.638,0.203     c0.208,0.078,0.392,0.177,0.552,0.297c0.159,0.121,0.287,0.271,0.384,0.449c0.097,0.179,0.146,0.399,0.146,0.66     c0,0.271-0.045,0.506-0.135,0.707c-0.089,0.201-0.211,0.368-0.366,0.5c-0.154,0.133-0.336,0.234-0.544,0.304     c-0.207,0.07-0.433,0.11-0.674,0.12v0.566h-0.312v-0.566c-0.261-0.005-0.5-0.046-0.718-0.123s-0.403-0.187-0.559-0.33     c-0.154-0.142-0.274-0.317-0.358-0.525c-0.085-0.208-0.125-0.447-0.12-0.718H233.834z M234.762,73.392     c-0.261,0-0.463,0.055-0.605,0.164c-0.143,0.108-0.214,0.291-0.214,0.547c0,0.116,0.024,0.215,0.072,0.297     c0.049,0.083,0.11,0.152,0.185,0.21c0.075,0.058,0.162,0.105,0.262,0.141c0.099,0.037,0.199,0.067,0.301,0.091V73.392z      M235.074,77.51c0.261-0.019,0.475-0.095,0.642-0.229c0.167-0.133,0.25-0.344,0.25-0.634c0-0.135-0.025-0.249-0.076-0.341     s-0.118-0.169-0.203-0.232c-0.084-0.062-0.18-0.113-0.286-0.152c-0.106-0.039-0.215-0.072-0.326-0.101V77.51z"/>
			<path fill="#FFFFFF" d="M240.7,76.836h-0.652v1.204h-0.783v-1.204h-2.175v-0.819l2.175-3.052h0.783v3.219h0.652V76.836z      M237.727,76.184h1.537v-2.233h-0.014L237.727,76.184z"/>
			<path fill="#FFFFFF" d="M242.962,72.863c0.362,0,0.658,0.083,0.888,0.25c0.229,0.167,0.408,0.379,0.537,0.638     c0.128,0.259,0.215,0.543,0.261,0.852c0.046,0.31,0.068,0.609,0.068,0.899s-0.022,0.59-0.068,0.899     c-0.046,0.31-0.133,0.594-0.261,0.852c-0.129,0.259-0.308,0.471-0.537,0.638c-0.229,0.167-0.525,0.25-0.888,0.25     s-0.659-0.083-0.889-0.25c-0.229-0.167-0.408-0.379-0.536-0.638c-0.128-0.258-0.215-0.542-0.261-0.852     c-0.046-0.309-0.069-0.609-0.069-0.899s0.023-0.589,0.069-0.899c0.046-0.309,0.133-0.593,0.261-0.852     c0.128-0.258,0.307-0.471,0.536-0.638C242.303,72.946,242.6,72.863,242.962,72.863z M242.962,77.452     c0.179,0,0.328-0.052,0.449-0.156s0.217-0.244,0.286-0.42c0.07-0.176,0.12-0.383,0.149-0.62c0.028-0.236,0.043-0.488,0.043-0.754     c0-0.266-0.015-0.516-0.043-0.75c-0.029-0.234-0.079-0.441-0.149-0.62c-0.069-0.179-0.165-0.32-0.286-0.424     c-0.121-0.104-0.271-0.156-0.449-0.156c-0.184,0-0.335,0.052-0.453,0.156c-0.118,0.104-0.213,0.246-0.283,0.424     c-0.069,0.179-0.119,0.385-0.148,0.62c-0.029,0.235-0.043,0.485-0.043,0.75c0,0.266,0.014,0.518,0.043,0.754     c0.029,0.237,0.079,0.444,0.148,0.62c0.07,0.176,0.165,0.316,0.283,0.42S242.779,77.452,242.962,77.452z"/>
			<path fill="#FFFFFF" d="M247.451,72.863h0.826v5.176h-0.826V72.863z"/>
			<path fill="#FFFFFF" d="M250.894,78.141c-0.3,0-0.566-0.05-0.801-0.149c-0.235-0.099-0.433-0.235-0.595-0.409     c-0.162-0.174-0.285-0.382-0.37-0.624c-0.084-0.242-0.127-0.508-0.127-0.798c0-0.285,0.043-0.548,0.127-0.79     c0.085-0.242,0.208-0.45,0.37-0.624s0.359-0.311,0.595-0.41c0.234-0.099,0.501-0.148,0.801-0.148s0.566,0.049,0.801,0.148     s0.433,0.236,0.595,0.41s0.285,0.382,0.37,0.624c0.084,0.242,0.127,0.505,0.127,0.79c0,0.29-0.043,0.556-0.127,0.798     c-0.085,0.242-0.208,0.449-0.37,0.624c-0.162,0.174-0.36,0.311-0.595,0.409C251.46,78.091,251.194,78.141,250.894,78.141z      M250.894,77.489c0.184,0,0.343-0.039,0.479-0.116c0.135-0.077,0.246-0.179,0.333-0.305c0.088-0.125,0.151-0.267,0.192-0.424     s0.062-0.318,0.062-0.482c0-0.159-0.021-0.319-0.062-0.479c-0.041-0.159-0.104-0.301-0.192-0.424     c-0.087-0.124-0.198-0.224-0.333-0.301c-0.136-0.078-0.295-0.116-0.479-0.116s-0.344,0.039-0.479,0.116     c-0.136,0.077-0.246,0.177-0.334,0.301c-0.087,0.123-0.15,0.265-0.191,0.424c-0.041,0.16-0.062,0.319-0.062,0.479     c0,0.165,0.021,0.325,0.062,0.482s0.104,0.298,0.191,0.424c0.088,0.126,0.198,0.228,0.334,0.305     C250.55,77.45,250.71,77.489,250.894,77.489z"/>
			<path fill="#FFFFFF" d="M254.098,76.836c0.024,0.242,0.116,0.411,0.275,0.508s0.351,0.145,0.573,0.145     c0.077,0,0.165-0.006,0.264-0.019c0.1-0.012,0.192-0.035,0.279-0.069c0.087-0.034,0.158-0.083,0.214-0.148     s0.081-0.151,0.076-0.257s-0.043-0.193-0.116-0.261c-0.072-0.067-0.165-0.122-0.278-0.163c-0.114-0.041-0.243-0.076-0.389-0.105     c-0.145-0.029-0.292-0.061-0.441-0.094c-0.155-0.034-0.304-0.075-0.446-0.123s-0.271-0.114-0.384-0.196     c-0.114-0.083-0.205-0.188-0.272-0.315s-0.102-0.287-0.102-0.475c0-0.203,0.05-0.373,0.148-0.511     c0.1-0.138,0.226-0.249,0.377-0.333c0.152-0.084,0.322-0.144,0.508-0.177c0.187-0.034,0.364-0.051,0.533-0.051     c0.193,0,0.378,0.021,0.555,0.062c0.176,0.041,0.336,0.107,0.479,0.199s0.261,0.211,0.355,0.359     c0.094,0.147,0.153,0.325,0.177,0.533h-0.862c-0.039-0.198-0.13-0.331-0.271-0.399c-0.144-0.068-0.307-0.102-0.49-0.102     c-0.058,0-0.126,0.005-0.206,0.015s-0.155,0.028-0.225,0.054c-0.07,0.027-0.13,0.065-0.178,0.116     c-0.049,0.051-0.072,0.117-0.072,0.199c0,0.102,0.034,0.184,0.104,0.247s0.162,0.115,0.275,0.156     c0.114,0.041,0.243,0.076,0.389,0.105c0.145,0.029,0.294,0.061,0.449,0.094c0.149,0.034,0.297,0.075,0.442,0.124     c0.145,0.048,0.273,0.113,0.388,0.196c0.113,0.082,0.205,0.186,0.275,0.312c0.07,0.126,0.105,0.28,0.105,0.464     c0,0.223-0.051,0.411-0.152,0.566c-0.102,0.154-0.233,0.28-0.396,0.377s-0.342,0.167-0.54,0.21s-0.394,0.065-0.587,0.065     c-0.237,0-0.456-0.027-0.656-0.08c-0.201-0.053-0.375-0.134-0.522-0.243s-0.264-0.244-0.348-0.406     c-0.085-0.162-0.13-0.354-0.134-0.577H254.098z"/>
			<path fill="#FFFFFF" d="M257.861,76.836c0.024,0.242,0.116,0.411,0.275,0.508s0.351,0.145,0.573,0.145     c0.077,0,0.165-0.006,0.264-0.019c0.1-0.012,0.192-0.035,0.279-0.069c0.087-0.034,0.158-0.083,0.214-0.148     s0.081-0.151,0.076-0.257s-0.043-0.193-0.116-0.261c-0.072-0.067-0.165-0.122-0.278-0.163c-0.114-0.041-0.243-0.076-0.389-0.105     c-0.145-0.029-0.292-0.061-0.441-0.094c-0.155-0.034-0.304-0.075-0.446-0.123s-0.271-0.114-0.384-0.196     c-0.114-0.083-0.205-0.188-0.272-0.315s-0.102-0.287-0.102-0.475c0-0.203,0.05-0.373,0.148-0.511     c0.1-0.138,0.226-0.249,0.377-0.333c0.152-0.084,0.322-0.144,0.508-0.177c0.187-0.034,0.364-0.051,0.533-0.051     c0.193,0,0.378,0.021,0.555,0.062c0.176,0.041,0.336,0.107,0.479,0.199s0.261,0.211,0.355,0.359     c0.094,0.147,0.153,0.325,0.177,0.533h-0.862c-0.039-0.198-0.13-0.331-0.271-0.399c-0.144-0.068-0.307-0.102-0.49-0.102     c-0.058,0-0.126,0.005-0.206,0.015s-0.155,0.028-0.225,0.054c-0.07,0.027-0.13,0.065-0.178,0.116     c-0.049,0.051-0.072,0.117-0.072,0.199c0,0.102,0.034,0.184,0.104,0.247s0.162,0.115,0.275,0.156     c0.114,0.041,0.243,0.076,0.389,0.105c0.145,0.029,0.294,0.061,0.449,0.094c0.149,0.034,0.297,0.075,0.442,0.124     c0.145,0.048,0.273,0.113,0.388,0.196c0.113,0.082,0.205,0.186,0.275,0.312c0.07,0.126,0.105,0.28,0.105,0.464     c0,0.223-0.051,0.411-0.152,0.566c-0.102,0.154-0.233,0.28-0.396,0.377s-0.342,0.167-0.54,0.21s-0.394,0.065-0.587,0.065     c-0.237,0-0.456-0.027-0.656-0.08c-0.201-0.053-0.375-0.134-0.522-0.243s-0.264-0.244-0.348-0.406     c-0.085-0.162-0.13-0.354-0.134-0.577H257.861z"/>
		</g>
	</g>
	<g display="none">
		
			<rect x="222.545" y="156.527" display="inline" fill="#EF4130" stroke="#000000" stroke-width="0.5" stroke-miterlimit="10" width="48.355" height="53.02"/>
		
			<rect x="222.545" y="209.588" display="inline" fill="#FFFFFF" stroke="#000000" stroke-width="0.5" stroke-miterlimit="10" width="48.355" height="53.021"/>
		<g display="inline">
			<text transform="matrix(1 0 0 1 231.8765 173.1045)" fill="#FFFFFF" font-family="'HelveticaNeue-Medium'" font-size="7.25">$ 80 loss</text>
		</g>
	</g>
	<g>
		
			<rect x="222.546" y="196.966" fill="#FFFFFF" stroke="#000000" stroke-width="0.5" stroke-miterlimit="10" width="48.355" height="29.02"/>
		<g>
			
				<rect x="222.546" y="136.966" fill="#EF4130" stroke="#000000" stroke-width="0.5" stroke-miterlimit="10" width="48.355" height="60"/>
		</g>
		<g>
			<g>
				<path fill="#FFFFFF" d="M233.834,167.9c-0.005,0.319,0.064,0.57,0.21,0.754c0.145,0.184,0.384,0.28,0.718,0.29v-1.755      c-0.198-0.053-0.396-0.117-0.591-0.191c-0.196-0.075-0.372-0.172-0.529-0.29s-0.284-0.268-0.381-0.446s-0.145-0.401-0.145-0.667      c0-0.231,0.044-0.436,0.134-0.612c0.089-0.177,0.21-0.324,0.362-0.442s0.327-0.209,0.525-0.271      c0.198-0.063,0.406-0.095,0.624-0.095v-0.565h0.312v0.565c0.218,0,0.423,0.029,0.616,0.087c0.193,0.059,0.361,0.146,0.504,0.261      c0.143,0.116,0.256,0.264,0.341,0.442s0.127,0.387,0.127,0.624h-0.826c-0.01-0.247-0.074-0.436-0.192-0.565      c-0.119-0.131-0.309-0.196-0.569-0.196v1.53c0.218,0.058,0.43,0.125,0.638,0.203c0.208,0.077,0.392,0.176,0.552,0.297      c0.159,0.121,0.287,0.271,0.384,0.449s0.146,0.399,0.146,0.66c0,0.271-0.045,0.506-0.135,0.707      c-0.089,0.2-0.211,0.367-0.366,0.5c-0.154,0.133-0.336,0.234-0.544,0.305c-0.207,0.069-0.433,0.109-0.674,0.119v0.565h-0.312      v-0.565c-0.261-0.005-0.5-0.046-0.718-0.123s-0.403-0.188-0.559-0.33c-0.154-0.143-0.274-0.317-0.358-0.525      c-0.085-0.208-0.125-0.447-0.12-0.718H233.834z M234.762,164.826c-0.261,0-0.463,0.055-0.605,0.163      c-0.143,0.109-0.214,0.291-0.214,0.548c0,0.116,0.024,0.215,0.072,0.297c0.049,0.082,0.11,0.152,0.185,0.21      c0.075,0.059,0.162,0.105,0.262,0.142c0.099,0.036,0.199,0.066,0.301,0.091V164.826z M235.074,168.944      c0.261-0.02,0.475-0.096,0.642-0.229s0.25-0.344,0.25-0.634c0-0.136-0.025-0.249-0.076-0.341s-0.118-0.17-0.203-0.232      c-0.084-0.062-0.18-0.113-0.286-0.152c-0.106-0.038-0.215-0.072-0.326-0.102V168.944z"/>
				<path fill="#FFFFFF" d="M238.931,169.575c-0.257,0-0.494-0.036-0.714-0.108c-0.221-0.073-0.41-0.178-0.569-0.315      c-0.16-0.138-0.284-0.306-0.374-0.504c-0.089-0.198-0.134-0.421-0.134-0.667c0-0.319,0.084-0.588,0.25-0.805      c0.167-0.218,0.393-0.363,0.678-0.436v-0.015c-0.231-0.087-0.409-0.221-0.532-0.402c-0.123-0.181-0.186-0.395-0.186-0.642      c0-0.435,0.137-0.774,0.41-1.019c0.272-0.244,0.663-0.366,1.171-0.366s0.897,0.122,1.171,0.366      c0.272,0.244,0.409,0.584,0.409,1.019c0,0.247-0.062,0.461-0.185,0.642c-0.123,0.182-0.301,0.315-0.533,0.402v0.015      c0.285,0.072,0.512,0.218,0.678,0.436c0.167,0.217,0.251,0.485,0.251,0.805c0,0.246-0.045,0.469-0.135,0.667      c-0.089,0.198-0.214,0.366-0.373,0.504s-0.35,0.242-0.569,0.315C239.425,169.539,239.187,169.575,238.931,169.575z       M238.931,168.923c0.275,0,0.505-0.082,0.688-0.247c0.184-0.164,0.275-0.396,0.275-0.695c0-0.28-0.092-0.499-0.275-0.656      s-0.413-0.235-0.688-0.235s-0.505,0.078-0.688,0.235c-0.185,0.157-0.276,0.376-0.276,0.656c0,0.3,0.092,0.531,0.276,0.695      C238.426,168.841,238.656,168.923,238.931,168.923z M238.931,164.949c-0.223,0-0.411,0.067-0.565,0.2      c-0.155,0.133-0.232,0.325-0.232,0.576c0,0.241,0.075,0.427,0.225,0.555c0.15,0.128,0.341,0.191,0.573,0.191      c0.231,0,0.423-0.063,0.572-0.191c0.15-0.128,0.226-0.313,0.226-0.555c0-0.251-0.078-0.443-0.232-0.576      C239.341,165.017,239.153,164.949,238.931,164.949z"/>
				<path fill="#FFFFFF" d="M242.962,164.297c0.362,0,0.658,0.084,0.888,0.25c0.229,0.167,0.408,0.38,0.537,0.639      c0.128,0.259,0.215,0.542,0.261,0.852s0.068,0.609,0.068,0.899s-0.022,0.589-0.068,0.898s-0.133,0.594-0.261,0.852      c-0.129,0.259-0.308,0.472-0.537,0.639s-0.525,0.25-0.888,0.25s-0.659-0.083-0.889-0.25s-0.408-0.38-0.536-0.639      c-0.128-0.258-0.215-0.542-0.261-0.852s-0.069-0.608-0.069-0.898s0.023-0.59,0.069-0.899s0.133-0.593,0.261-0.852      s0.307-0.472,0.536-0.639C242.303,164.381,242.6,164.297,242.962,164.297z M242.962,168.887c0.179,0,0.328-0.052,0.449-0.156      c0.121-0.104,0.217-0.244,0.286-0.421c0.07-0.176,0.12-0.383,0.149-0.619c0.028-0.237,0.043-0.488,0.043-0.754      c0-0.267-0.015-0.517-0.043-0.751c-0.029-0.234-0.079-0.44-0.149-0.62c-0.069-0.179-0.165-0.319-0.286-0.424      c-0.121-0.104-0.271-0.155-0.449-0.155c-0.184,0-0.335,0.052-0.453,0.155c-0.118,0.104-0.213,0.245-0.283,0.424      c-0.069,0.18-0.119,0.386-0.148,0.62s-0.043,0.484-0.043,0.751c0,0.266,0.014,0.517,0.043,0.754      c0.029,0.236,0.079,0.443,0.148,0.619c0.07,0.177,0.165,0.317,0.283,0.421C242.627,168.835,242.779,168.887,242.962,168.887z"/>
				<path fill="#FFFFFF" d="M247.451,164.297h0.826v5.177h-0.826V164.297z"/>
				<path fill="#FFFFFF" d="M250.894,169.575c-0.3,0-0.566-0.05-0.801-0.148c-0.235-0.1-0.433-0.236-0.595-0.41      s-0.285-0.382-0.37-0.623c-0.084-0.242-0.127-0.508-0.127-0.798c0-0.285,0.043-0.548,0.127-0.79      c0.085-0.241,0.208-0.449,0.37-0.623c0.162-0.175,0.359-0.311,0.595-0.41c0.234-0.099,0.501-0.148,0.801-0.148      s0.566,0.05,0.801,0.148c0.234,0.1,0.433,0.235,0.595,0.41c0.162,0.174,0.285,0.382,0.37,0.623      c0.084,0.242,0.127,0.505,0.127,0.79c0,0.29-0.043,0.556-0.127,0.798c-0.085,0.241-0.208,0.449-0.37,0.623      s-0.36,0.311-0.595,0.41C251.46,169.525,251.194,169.575,250.894,169.575z M250.894,168.923c0.184,0,0.343-0.039,0.479-0.116      c0.135-0.077,0.246-0.179,0.333-0.305c0.088-0.125,0.151-0.267,0.192-0.424s0.062-0.317,0.062-0.482      c0-0.159-0.021-0.318-0.062-0.479c-0.041-0.159-0.104-0.301-0.192-0.424c-0.087-0.123-0.198-0.224-0.333-0.301      c-0.136-0.077-0.295-0.116-0.479-0.116s-0.344,0.039-0.479,0.116c-0.136,0.077-0.246,0.178-0.334,0.301      c-0.087,0.123-0.15,0.265-0.191,0.424c-0.041,0.16-0.062,0.319-0.062,0.479c0,0.165,0.021,0.325,0.062,0.482      s0.104,0.299,0.191,0.424c0.088,0.126,0.198,0.228,0.334,0.305C250.55,168.884,250.71,168.923,250.894,168.923z"/>
				<path fill="#FFFFFF" d="M254.098,168.271c0.024,0.241,0.116,0.41,0.275,0.507s0.351,0.146,0.573,0.146      c0.077,0,0.165-0.006,0.264-0.019c0.1-0.012,0.192-0.035,0.279-0.068c0.087-0.034,0.158-0.084,0.214-0.149      c0.056-0.064,0.081-0.15,0.076-0.257s-0.043-0.193-0.116-0.261c-0.072-0.068-0.165-0.122-0.278-0.163      c-0.114-0.041-0.243-0.076-0.389-0.105c-0.145-0.029-0.292-0.061-0.441-0.095c-0.155-0.033-0.304-0.074-0.446-0.123      c-0.143-0.048-0.271-0.113-0.384-0.195c-0.114-0.082-0.205-0.188-0.272-0.315s-0.102-0.286-0.102-0.475      c0-0.203,0.05-0.374,0.148-0.512c0.1-0.138,0.226-0.249,0.377-0.333c0.152-0.085,0.322-0.144,0.508-0.178      c0.187-0.034,0.364-0.051,0.533-0.051c0.193,0,0.378,0.021,0.555,0.062c0.176,0.041,0.336,0.107,0.479,0.199      s0.261,0.212,0.355,0.359c0.094,0.147,0.153,0.325,0.177,0.532h-0.862c-0.039-0.198-0.13-0.331-0.271-0.398      c-0.144-0.067-0.307-0.102-0.49-0.102c-0.058,0-0.126,0.005-0.206,0.015s-0.155,0.027-0.225,0.055      c-0.07,0.026-0.13,0.064-0.178,0.115c-0.049,0.051-0.072,0.117-0.072,0.199c0,0.102,0.034,0.185,0.104,0.247      s0.162,0.115,0.275,0.156c0.114,0.041,0.243,0.075,0.389,0.104c0.145,0.029,0.294,0.061,0.449,0.095      c0.149,0.033,0.297,0.074,0.442,0.123c0.145,0.048,0.273,0.113,0.388,0.195c0.113,0.083,0.205,0.187,0.275,0.312      c0.07,0.125,0.105,0.28,0.105,0.464c0,0.222-0.051,0.41-0.152,0.565c-0.102,0.154-0.233,0.28-0.396,0.377      s-0.342,0.167-0.54,0.21c-0.198,0.044-0.394,0.065-0.587,0.065c-0.237,0-0.456-0.026-0.656-0.08      c-0.201-0.053-0.375-0.134-0.522-0.242c-0.147-0.109-0.264-0.244-0.348-0.406c-0.085-0.162-0.13-0.354-0.134-0.576H254.098z"/>
				<path fill="#FFFFFF" d="M257.861,168.271c0.024,0.241,0.116,0.41,0.275,0.507s0.351,0.146,0.573,0.146      c0.077,0,0.165-0.006,0.264-0.019c0.1-0.012,0.192-0.035,0.279-0.068c0.087-0.034,0.158-0.084,0.214-0.149      c0.056-0.064,0.081-0.15,0.076-0.257s-0.043-0.193-0.116-0.261c-0.072-0.068-0.165-0.122-0.278-0.163      c-0.114-0.041-0.243-0.076-0.389-0.105c-0.145-0.029-0.292-0.061-0.441-0.095c-0.155-0.033-0.304-0.074-0.446-0.123      c-0.143-0.048-0.271-0.113-0.384-0.195c-0.114-0.082-0.205-0.188-0.272-0.315s-0.102-0.286-0.102-0.475      c0-0.203,0.05-0.374,0.148-0.512c0.1-0.138,0.226-0.249,0.377-0.333c0.152-0.085,0.322-0.144,0.508-0.178      c0.187-0.034,0.364-0.051,0.533-0.051c0.193,0,0.378,0.021,0.555,0.062c0.176,0.041,0.336,0.107,0.479,0.199      s0.261,0.212,0.355,0.359c0.094,0.147,0.153,0.325,0.177,0.532h-0.862c-0.039-0.198-0.13-0.331-0.271-0.398      c-0.144-0.067-0.307-0.102-0.49-0.102c-0.058,0-0.126,0.005-0.206,0.015s-0.155,0.027-0.225,0.055      c-0.07,0.026-0.13,0.064-0.178,0.115c-0.049,0.051-0.072,0.117-0.072,0.199c0,0.102,0.034,0.185,0.104,0.247      s0.162,0.115,0.275,0.156c0.114,0.041,0.243,0.075,0.389,0.104c0.145,0.029,0.294,0.061,0.449,0.095      c0.149,0.033,0.297,0.074,0.442,0.123c0.145,0.048,0.273,0.113,0.388,0.195c0.113,0.083,0.205,0.187,0.275,0.312      c0.07,0.125,0.105,0.28,0.105,0.464c0,0.222-0.051,0.41-0.152,0.565c-0.102,0.154-0.233,0.28-0.396,0.377      s-0.342,0.167-0.54,0.21c-0.198,0.044-0.394,0.065-0.587,0.065c-0.237,0-0.456-0.026-0.656-0.08      c-0.201-0.053-0.375-0.134-0.522-0.242c-0.147-0.109-0.264-0.244-0.348-0.406c-0.085-0.162-0.13-0.354-0.134-0.576H257.861z"/>
			</g>
		</g>
	</g>
</g>
<g id="Layer_2">
</g>
</svg>