<svg xmlns="http://www.w3.org/2000/svg" xmlns:xlink="http://www.w3.org/1999/xlink" version="1.1" id="Layer_1" x="0px" y="0px" width="268.507px" height="158.722px" viewBox="0 0 268.507 158.722" enable-background="new 0 0 268.507 158.722" xml:space="preserve">
<path fill="none" stroke="#CCCCCC" stroke-width="0.5" stroke-linejoin="round" stroke-miterlimit="10" d="M26.98,2.898h239.162   M26.98,23.885h239.162 M26.98,44.767h239.162 M26.98,65.753h239.162 M26.98,86.74h239.162 M26.98,107.623h239.162"/>
<polyline fill="none" stroke="#000000" stroke-width="0.5" stroke-linecap="square" stroke-linejoin="round" stroke-miterlimit="10" points="  266.142,128.609 26.98,128.609 26.98,2.898 "/>
<polyline fill="none" stroke="#7A9AA8" stroke-width="2.5" stroke-linecap="round" stroke-linejoin="round" stroke-miterlimit="10" points="  26.616,70.792 26.928,71.832 27.967,70.377 28.279,70.377 28.59,68.507 28.902,64.455 29.213,67.364 30.252,67.052 30.564,66.325   30.876,63.104 31.188,65.39 31.5,66.637 32.85,66.117 33.162,69.442 33.473,71.312 33.785,72.663 34.824,70.065 35.136,69.857   35.447,69.546 35.759,72.87 36.071,75.987 37.109,75.883 37.421,72.87 37.733,69.961 38.044,69.234 38.356,68.299 39.395,67.26   39.707,68.507 40.019,68.091 40.33,68.715 40.642,67.468 41.681,66.221 41.993,68.091 42.304,50.949 42.616,53.234 42.927,52.299   44.278,55.208 44.59,55.624 44.901,56.248 45.213,55.417 46.252,48.144 46.564,52.611 46.875,52.196 47.187,49.183 47.499,50.533   48.538,52.715 48.85,51.261 49.161,52.299 49.473,54.273 49.888,53.858 50.823,57.079 51.135,59.884 51.447,64.767 51.758,66.014   52.174,61.858 53.109,59.78 53.421,59.78 53.732,55.936 54.044,55.312 54.459,56.144 55.395,58.949 55.707,59.157 56.018,60.507   56.33,61.858 56.746,63.624 57.68,64.559 57.992,62.689 58.304,59.053 58.719,58.429 59.031,61.234 59.966,60.923 60.278,59.884   60.589,52.403 61.005,57.286 61.317,57.598 62.251,59.78 62.563,58.014 62.875,54.897 63.291,53.962 64.538,52.819 64.849,48.975   65.161,49.806 65.576,48.144 65.888,51.884 66.823,52.196 67.135,48.456 67.446,48.04 67.862,47.625 68.173,46.274 69.109,44.404   69.42,42.118 69.836,38.793 70.147,39.521 70.459,42.534 71.394,46.377 71.706,47.417 72.122,38.585 72.433,42.845 72.745,46.274   73.68,51.676 73.992,52.092 74.407,51.468 74.719,48.456 75.031,48.56 76.277,45.546 76.693,50.533 77.004,48.767 77.316,50.637   78.251,47.417 78.667,47.417 78.979,50.118 79.29,49.806 79.602,51.884 80.537,48.663 80.953,45.235 81.264,46.481 81.576,46.377   81.888,46.274 82.823,44.404 83.238,42.949 83.55,44.196 83.861,43.572 84.173,47.105 85.108,47.001 85.524,46.274 85.835,42.014   86.147,39.417 86.459,36.196 87.81,36.196 88.121,36.923 88.433,34.43 88.745,34.534 89.783,39.625 90.095,40.664 90.407,40.871   90.718,39.209 91.03,36.3 92.069,38.17 92.381,31.625 92.692,30.586 93.004,34.845 93.316,35.573 94.354,34.638 94.667,34.845   94.978,41.806 95.29,40.56 95.602,43.884 96.64,43.884 96.952,48.663 97.264,47.521 97.575,56.767 97.887,56.144 98.926,67.676   99.238,62.792 99.549,70.792 99.861,59.676 100.173,58.118 101.211,51.572 101.523,48.456 101.835,65.078 102.146,69.65   102.458,67.156 103.497,66.949 103.809,60.091 104.121,60.091 104.432,64.975 104.744,59.988 105.783,57.079 106.095,58.222   106.406,58.118 106.718,59.884 107.03,64.663 108.38,64.559 108.692,61.442 109.003,63.624 109.315,67.468 110.354,65.182   110.666,63.208 110.978,58.222 111.289,53.546 111.601,54.689 112.64,58.118 112.952,58.014 113.263,59.988 113.575,67.156   113.887,63 114.926,59.364 115.237,55 115.549,57.806 115.86,58.118 116.276,65.702 117.211,68.091 117.523,61.65 117.834,52.819   118.146,51.053 118.562,53.858 119.497,45.339 119.809,44.507 120.12,43.884 120.432,42.637 120.848,39.936 121.783,46.689   122.094,42.534 122.406,47.417 122.718,56.248 123.133,54.273 124.068,49.494 124.38,50.429 124.691,47.312 125.107,43.053   125.419,43.157 126.354,48.352 126.666,55.417 126.977,52.092 127.393,49.806 127.705,53.027 128.64,51.053 128.951,50.637   129.263,58.845 129.678,57.183 129.99,53.131 130.925,53.442 131.237,50.222 131.548,55.417 131.964,57.598 132.276,57.806   133.211,58.118 133.522,58.533 133.938,64.04 134.562,64.871 135.497,56.975 135.808,57.39 136.224,48.871 136.535,48.456   136.847,49.494 137.782,47.105 138.094,47.832 138.509,47.417 138.821,51.572 139.133,48.56 140.068,52.403 140.379,54.793   140.795,56.248 141.106,56.248 141.418,56.455 142.354,60.091 142.769,55.208 143.081,59.884 143.392,59.157 143.704,57.806   145.055,58.222 145.366,60.091 145.678,59.26 145.99,60.611 147.34,56.975 147.652,56.559 147.964,55 148.275,53.234 149.21,50.741   149.626,48.248 149.938,48.456 150.25,47.001 150.561,47.625 151.912,45.546 152.223,42.326 152.535,40.456 152.847,39.417   153.886,37.339 154.197,37.547 154.509,38.17 154.821,39.209 155.132,38.689 156.171,36.196 156.483,33.599 156.794,31.833   157.106,29.755 157.418,29.131 158.457,29.235 158.769,27.365 159.08,25.08 159.392,24.976 159.704,28.196 160.743,25.807   161.054,25.183 161.366,25.703 161.678,22.274 161.989,23.937 163.34,23.417 163.652,34.43 163.963,31.833 164.275,31.521   165.314,30.586 165.625,29.962 165.937,32.872 166.249,32.041 166.561,32.248 167.599,34.845 167.912,37.962 168.223,35.988   168.535,33.807 168.846,36.715 169.885,36.404 170.197,33.599 170.508,31.625 170.82,32.352 171.132,32.872 172.17,32.144   172.483,34.326 172.794,33.703 173.106,35.78 173.417,41.495 174.457,39.105 174.768,39.521 175.08,41.079 175.391,40.144   175.704,40.248 176.742,38.378 177.054,40.04 177.366,41.599 177.677,41.287 179.028,44.092 179.339,43.78 179.651,43.78   179.962,43.676 180.378,45.235 181.313,45.027 181.625,42.43 181.937,44.715 182.249,44.819 182.664,44.715 183.599,45.339   183.911,44.507 184.222,42.014 184.534,40.871 184.95,41.806 185.884,42.534 186.197,42.222 186.508,44.611 186.82,43.988   187.235,48.352 188.17,48.248 188.482,49.391 188.793,49.806 189.209,51.053 189.521,52.403 190.456,52.196 190.768,53.234   191.08,56.559 191.495,57.39 191.806,59.468 192.742,57.079 193.053,55.936 193.365,82.74 193.781,83.156 194.092,83.052   195.339,80.974 195.651,82.013 196.066,84.403 196.377,87.104 197.313,87.831 197.625,86.168 198.041,85.649 198.352,86.48   198.664,86.584 199.598,89.286 199.911,88.143 200.326,85.026 200.637,84.299 200.949,84.714 201.884,83.467 202.196,85.961   202.612,84.714 202.923,87.831 203.235,85.753 204.169,88.455 204.482,88.662 204.897,84.403 205.208,88.351 205.52,82.533   206.456,83.883 206.871,80.766 207.495,81.286 207.806,82.013 208.741,85.026 209.157,84.714 209.468,84.922 209.78,86.48   210.091,84.506 211.027,85.857 211.443,86.584 211.754,87.104 212.066,85.441 212.377,87.831 213.312,89.909 213.728,92.402   214.04,93.129 214.351,89.597 214.663,87.623 215.598,89.39 216.014,89.078 216.326,90.013 216.637,93.337 216.949,90.948   217.988,89.909 218.299,86.272 218.611,84.714 218.922,83.779 219.235,83.571 220.273,84.403 220.585,85.857 220.897,85.649   221.208,85.441 221.52,85.545 222.559,82.013 222.871,84.299 223.182,91.156 223.494,95.727 223.806,95.519 224.844,96.974   225.157,99.155 225.468,99.467 225.78,101.545 226.091,102.48 227.442,102.792 227.753,103.207 228.065,103.207 228.377,101.96   229.416,102.272 229.728,101.96 230.04,101.96 230.351,102.064 230.663,99.987 231.702,101.337 232.013,102.792 232.325,104.039   232.636,103.415 232.949,104.87 233.987,106.947 234.299,108.817 234.611,108.61 234.922,108.194 235.234,110.064 236.273,110.688   236.584,109.648 236.896,114.532 237.208,114.116 237.52,112.142 238.558,110.688 238.871,113.181 239.182,114.532 239.494,115.363   239.805,111.831 240.844,111.103 241.156,109.648 241.467,110.168 241.779,110.688 242.091,113.285 243.129,112.869   243.442,115.363 243.753,116.402 244.065,116.505 244.481,116.505 246.039,116.505 246.35,115.57 246.766,117.44 247.702,115.363   248.013,113.493 248.325,117.129 248.636,114.324 249.051,114.739 249.987,115.363 250.298,114.843 250.61,112.973 250.922,113.181   251.337,120.454 252.272,117.648 252.584,119.103 252.896,118.375 253.624,113.285 254.558,109.233 254.87,110.999 255.181,111.623   255.597,111.519 255.909,112.35 256.844,107.986 257.156,105.389 257.467,104.766 257.882,103.519 258.195,103.935 259.129,102.064   259.441,101.649 259.752,102.688 260.168,103.103 260.48,104.142 261.416,106.012 261.727,102.792 262.039,103.519 262.454,103.415   262.766,104.142 263.701,106.116 264.428,105.701 264.74,106.636 265.051,108.921 265.987,107.155 "/>
<g>
	<path d="M14.384,130.468c0.191,0.209,0.465,0.334,0.82,0.375v-1.998c-0.189-0.041-0.37-0.089-0.543-0.145   c-0.173-0.057-0.324-0.135-0.452-0.236c-0.128-0.102-0.231-0.229-0.307-0.385c-0.077-0.155-0.115-0.35-0.115-0.584   c0-0.203,0.037-0.385,0.111-0.547s0.175-0.3,0.304-0.415s0.279-0.203,0.452-0.263s0.356-0.091,0.55-0.091v-0.526h0.263v0.526   c0.198,0,0.383,0.035,0.557,0.105s0.326,0.168,0.459,0.297c0.133,0.128,0.236,0.282,0.311,0.462c0.074,0.18,0.109,0.38,0.105,0.601   h-0.425c-0.005-0.337-0.099-0.606-0.284-0.807s-0.425-0.3-0.722-0.3v1.944c0.193,0.041,0.383,0.09,0.57,0.148   c0.187,0.059,0.353,0.14,0.5,0.243c0.146,0.104,0.264,0.233,0.354,0.388c0.09,0.155,0.135,0.352,0.135,0.591   c0,0.22-0.044,0.415-0.131,0.583c-0.088,0.169-0.205,0.31-0.351,0.422c-0.146,0.113-0.313,0.197-0.5,0.253   c-0.187,0.056-0.379,0.084-0.577,0.084v0.574h-0.263v-0.581c-0.527-0.05-0.91-0.205-1.151-0.466   c-0.241-0.261-0.37-0.648-0.388-1.161h0.425C14.095,129.956,14.192,130.259,14.384,130.468z M14.823,126.593   c-0.12,0.039-0.225,0.098-0.317,0.179s-0.165,0.186-0.216,0.314c-0.052,0.128-0.078,0.28-0.078,0.456   c0,0.157,0.028,0.286,0.084,0.385c0.057,0.099,0.131,0.18,0.223,0.243c0.092,0.063,0.198,0.113,0.317,0.149   c0.119,0.036,0.242,0.07,0.368,0.101v-1.883C15.069,126.536,14.942,126.555,14.823,126.593z M15.886,130.789   c0.135-0.036,0.255-0.094,0.361-0.175c0.105-0.081,0.191-0.184,0.256-0.307c0.065-0.124,0.098-0.273,0.098-0.449   c0-0.162-0.035-0.297-0.104-0.405s-0.159-0.197-0.267-0.267s-0.229-0.127-0.364-0.172c-0.135-0.045-0.268-0.083-0.398-0.115v1.944   C15.611,130.843,15.751,130.825,15.886,130.789z"/>
	<path d="M20.327,128.173c-0.135,0.183-0.324,0.31-0.567,0.381v0.014c0.311,0.063,0.549,0.199,0.715,0.408   c0.167,0.209,0.25,0.476,0.25,0.8c0,0.239-0.043,0.447-0.128,0.625s-0.203,0.325-0.351,0.442c-0.148,0.117-0.32,0.205-0.516,0.263   c-0.196,0.058-0.406,0.088-0.631,0.088c-0.221,0-0.43-0.03-0.628-0.088c-0.198-0.059-0.371-0.146-0.52-0.263   c-0.148-0.117-0.266-0.265-0.351-0.442s-0.128-0.386-0.128-0.625c0.009-0.31,0.097-0.576,0.264-0.796   c0.166-0.22,0.398-0.357,0.695-0.412v-0.014c-0.247-0.076-0.438-0.204-0.57-0.381s-0.199-0.397-0.199-0.658   c0-0.202,0.042-0.378,0.125-0.526c0.083-0.148,0.192-0.271,0.328-0.368c0.135-0.097,0.288-0.169,0.459-0.216   c0.171-0.047,0.344-0.071,0.52-0.071c0.176,0,0.349,0.024,0.52,0.071c0.171,0.047,0.325,0.12,0.462,0.216   c0.137,0.097,0.247,0.219,0.331,0.368c0.083,0.148,0.125,0.324,0.125,0.526C20.53,127.771,20.462,127.991,20.327,128.173z    M19.568,130.778c0.146-0.042,0.273-0.108,0.381-0.196c0.108-0.087,0.193-0.199,0.256-0.334c0.063-0.135,0.095-0.292,0.095-0.473   c0-0.171-0.033-0.32-0.098-0.449c-0.065-0.128-0.153-0.236-0.263-0.324c-0.11-0.088-0.238-0.153-0.385-0.196   c-0.146-0.043-0.298-0.062-0.456-0.058c-0.162-0.004-0.316,0.014-0.462,0.054c-0.146,0.041-0.273,0.104-0.381,0.192   s-0.195,0.197-0.26,0.327c-0.065,0.131-0.098,0.281-0.098,0.452c0,0.176,0.032,0.331,0.095,0.466   c0.063,0.135,0.148,0.247,0.256,0.334c0.108,0.087,0.235,0.154,0.381,0.199c0.146,0.045,0.303,0.068,0.469,0.068   S19.421,130.821,19.568,130.778z M19.477,128.349c0.122-0.034,0.229-0.087,0.321-0.159s0.167-0.164,0.223-0.277   c0.056-0.112,0.084-0.245,0.084-0.398c0-0.135-0.026-0.254-0.078-0.357s-0.123-0.189-0.213-0.257   c-0.09-0.067-0.195-0.119-0.317-0.155c-0.122-0.036-0.254-0.054-0.398-0.054c-0.13,0-0.256,0.018-0.378,0.054   c-0.122,0.036-0.229,0.087-0.324,0.155c-0.094,0.068-0.17,0.153-0.226,0.257s-0.084,0.223-0.084,0.357   c0,0.158,0.029,0.293,0.088,0.405s0.135,0.205,0.229,0.277c0.095,0.072,0.203,0.124,0.324,0.155   c0.122,0.031,0.245,0.045,0.371,0.041C19.229,128.397,19.355,128.382,19.477,128.349z"/>
</g>
<g>
	<path d="M8.085,153.418l2.458,2.457c0.175,0.176,0.309,0.344,0.4,0.506c0.092,0.163,0.141,0.324,0.146,0.485   c0.004,0.161-0.035,0.324-0.12,0.491s-0.218,0.343-0.403,0.527c-0.194,0.194-0.386,0.32-0.575,0.379   c-0.189,0.061-0.372,0.07-0.548,0.034c-0.177-0.036-0.348-0.112-0.514-0.227c-0.165-0.114-0.323-0.247-0.473-0.396l0.325-0.325   c0.076,0.07,0.169,0.154,0.277,0.249c0.108,0.096,0.228,0.171,0.358,0.225c0.13,0.054,0.272,0.069,0.424,0.048   c0.153-0.023,0.314-0.118,0.482-0.287c0.127-0.127,0.215-0.249,0.265-0.365c0.049-0.115,0.062-0.233,0.038-0.354   c-0.023-0.119-0.082-0.243-0.174-0.375c-0.092-0.129-0.216-0.272-0.373-0.429l-2.319-2.319L8.085,153.418z"/>
	<path d="M10.104,154.053c-0.054-0.156-0.071-0.312-0.05-0.466c0.021-0.154,0.075-0.306,0.16-0.456   c0.086-0.149,0.2-0.296,0.344-0.439c0.108-0.107,0.226-0.205,0.355-0.293c0.129-0.088,0.265-0.146,0.408-0.174   c0.143-0.029,0.293-0.018,0.451,0.031c0.158,0.049,0.319,0.156,0.484,0.322l1.308,1.308c0.121,0.12,0.24,0.122,0.358,0.005   c0.035-0.035,0.061-0.074,0.077-0.115l0.253,0.253c-0.029,0.042-0.055,0.077-0.079,0.107c-0.023,0.03-0.057,0.066-0.098,0.107   c-0.077,0.077-0.148,0.128-0.215,0.153c-0.066,0.025-0.131,0.031-0.195,0.018c-0.063-0.012-0.126-0.041-0.186-0.085   c-0.061-0.045-0.123-0.099-0.187-0.162l-0.009,0.009c0.025,0.135,0.042,0.26,0.048,0.377c0.007,0.119-0.003,0.232-0.031,0.342   c-0.027,0.11-0.073,0.22-0.139,0.33c-0.065,0.109-0.158,0.225-0.279,0.346c-0.114,0.114-0.235,0.208-0.362,0.281   c-0.127,0.074-0.258,0.117-0.392,0.134c-0.134,0.016-0.268,0-0.401-0.048c-0.133-0.049-0.262-0.133-0.386-0.258   c-0.172-0.172-0.268-0.344-0.289-0.518c-0.021-0.174,0.006-0.348,0.081-0.525c0.075-0.176,0.181-0.354,0.317-0.531   c0.137-0.179,0.277-0.359,0.42-0.54c0.057-0.069,0.105-0.134,0.143-0.19c0.038-0.059,0.061-0.114,0.069-0.17   c0.008-0.055,0-0.113-0.024-0.172c-0.023-0.059-0.069-0.121-0.137-0.188c-0.101-0.101-0.201-0.169-0.3-0.2   c-0.099-0.031-0.197-0.037-0.294-0.017c-0.097,0.021-0.191,0.062-0.284,0.126c-0.092,0.063-0.183,0.141-0.272,0.229   c-0.191,0.191-0.301,0.393-0.332,0.604s0.052,0.421,0.246,0.628l-0.301,0.301C10.251,154.363,10.158,154.208,10.104,154.053z    M12.342,153.285c0.016,0.054,0.005,0.116-0.033,0.186c-0.038,0.07-0.075,0.129-0.11,0.177c-0.105,0.15-0.217,0.301-0.334,0.453   s-0.215,0.303-0.292,0.449c-0.076,0.146-0.117,0.287-0.124,0.425c-0.007,0.137,0.051,0.266,0.172,0.387   c0.076,0.076,0.159,0.129,0.248,0.157c0.089,0.029,0.181,0.039,0.274,0.031s0.186-0.034,0.274-0.079   c0.089-0.044,0.169-0.102,0.239-0.171c0.115-0.115,0.207-0.242,0.277-0.383s0.11-0.282,0.122-0.428   c0.011-0.144-0.008-0.287-0.057-0.429c-0.05-0.142-0.135-0.272-0.256-0.394l-0.391-0.391L12.342,153.285z"/>
	<path d="M12.433,150.959l0.425,0.425l0.009-0.009c-0.092-0.207-0.11-0.43-0.055-0.666c0.056-0.237,0.17-0.443,0.346-0.619   c0.172-0.172,0.338-0.293,0.499-0.364c0.162-0.071,0.317-0.103,0.468-0.091s0.3,0.061,0.446,0.15   c0.147,0.09,0.293,0.207,0.439,0.353l1.585,1.585l-0.301,0.301l-1.537-1.537c-0.105-0.104-0.213-0.193-0.323-0.265   c-0.109-0.071-0.222-0.116-0.336-0.136c-0.114-0.02-0.231-0.008-0.351,0.035c-0.12,0.043-0.24,0.125-0.361,0.246   c-0.121,0.121-0.207,0.25-0.257,0.387c-0.051,0.137-0.072,0.275-0.062,0.415c0.01,0.141,0.047,0.28,0.114,0.421   c0.067,0.139,0.16,0.271,0.278,0.396l1.437,1.437l-0.301,0.301l-2.463-2.463L12.433,150.959z"/>
	<path d="M16.833,150.473l0.401-0.4l0.506,0.506l-0.401,0.4L16.833,150.473z"/>
	<path d="M19.702,148.616c-0.163-0.168-0.28-0.343-0.354-0.523c-0.073-0.182-0.116-0.368-0.128-0.56   c-0.014-0.19-0.006-0.384,0.021-0.579c0.027-0.196,0.061-0.393,0.1-0.588c0.04-0.195,0.077-0.392,0.113-0.59   c0.035-0.196,0.052-0.388,0.052-0.572s-0.026-0.348-0.077-0.492c-0.051-0.143-0.143-0.281-0.276-0.414   c-0.108-0.108-0.225-0.186-0.349-0.229c-0.124-0.044-0.25-0.062-0.377-0.053c-0.127,0.01-0.251,0.045-0.372,0.105   s-0.232,0.142-0.334,0.243c-0.137,0.137-0.229,0.279-0.274,0.427c-0.046,0.149-0.057,0.296-0.031,0.442   c0.025,0.146,0.081,0.289,0.165,0.427s0.19,0.269,0.317,0.389l-0.301,0.301c-0.175-0.169-0.313-0.347-0.416-0.534   c-0.102-0.188-0.161-0.379-0.176-0.573c-0.016-0.194,0.015-0.388,0.091-0.582c0.076-0.194,0.205-0.382,0.386-0.563   c0.146-0.146,0.303-0.262,0.468-0.348s0.334-0.137,0.506-0.153c0.171-0.017,0.343,0.009,0.513,0.074   c0.17,0.065,0.333,0.175,0.49,0.331c0.14,0.141,0.244,0.291,0.312,0.451c0.068,0.161,0.111,0.328,0.128,0.502   c0.018,0.173,0.017,0.35-0.002,0.531c-0.019,0.182-0.049,0.363-0.09,0.545c-0.025,0.133-0.06,0.287-0.103,0.461   c-0.042,0.173-0.075,0.35-0.095,0.529s-0.022,0.355-0.004,0.525s0.072,0.32,0.164,0.451l1.857-1.857l0.277,0.277L19.702,148.616z"/>
	<path d="M20.895,141.003c0.258-0.044,0.512-0.026,0.761,0.056c0.25,0.08,0.492,0.208,0.726,0.381   c0.234,0.174,0.448,0.357,0.642,0.552c0.197,0.197,0.383,0.413,0.556,0.647c0.173,0.233,0.301,0.475,0.381,0.725   c0.082,0.25,0.099,0.502,0.053,0.759s-0.191,0.507-0.437,0.752c-0.242,0.241-0.492,0.386-0.75,0.435   c-0.258,0.047-0.511,0.031-0.761-0.051c-0.25-0.08-0.491-0.208-0.725-0.381c-0.234-0.174-0.448-0.357-0.642-0.552   c-0.198-0.198-0.383-0.413-0.556-0.647c-0.173-0.233-0.301-0.475-0.382-0.725c-0.082-0.25-0.099-0.504-0.053-0.764   c0.046-0.26,0.19-0.51,0.432-0.752C20.386,141.193,20.637,141.048,20.895,141.003z M20.084,142.297   c-0.016,0.213,0.02,0.422,0.107,0.627c0.087,0.206,0.208,0.404,0.36,0.595c0.153,0.19,0.301,0.358,0.444,0.501   c0.146,0.146,0.314,0.295,0.503,0.446c0.19,0.151,0.388,0.271,0.595,0.36c0.207,0.09,0.417,0.126,0.63,0.109   c0.213-0.016,0.416-0.119,0.606-0.31s0.294-0.394,0.31-0.606c0.017-0.213-0.02-0.424-0.109-0.63   c-0.089-0.207-0.208-0.405-0.361-0.595c-0.15-0.189-0.299-0.356-0.446-0.503c-0.143-0.144-0.31-0.292-0.501-0.444   c-0.19-0.152-0.388-0.272-0.594-0.359c-0.205-0.088-0.415-0.124-0.628-0.107c-0.213,0.016-0.415,0.119-0.606,0.31   S20.1,142.084,20.084,142.297z"/>
	<path d="M22.938,139.944c0.095-0.117,0.162-0.236,0.198-0.355c0.036-0.119,0.039-0.248,0.007-0.384   c-0.032-0.138-0.112-0.293-0.244-0.468l0.244-0.244l3.341,3.342l-0.301,0.301l-2.482-2.482l-0.883,0.883l-0.215-0.215   C22.731,140.187,22.842,140.062,22.938,139.944z"/>
	<path d="M25.592,137.29c0.095-0.117,0.162-0.235,0.198-0.355c0.036-0.119,0.039-0.247,0.007-0.383   c-0.032-0.138-0.112-0.293-0.244-0.469l0.243-0.243l3.341,3.341l-0.3,0.301l-2.482-2.482l-0.883,0.884l-0.215-0.215   C25.385,137.534,25.496,137.409,25.592,137.29z"/>
</g>
<g>
	<path d="M37.735,153.581l4.744,2.072L42.131,156l-1.475-0.645l-1.551,1.552l0.649,1.47l-0.344,0.344l-2.038-4.777L37.735,153.581z    M40.27,155.19l-2.405-1.088l1.064,2.429L40.27,155.19z"/>
	<path d="M40.546,152.661l0.468,0.468l0.01-0.01c-0.102-0.241-0.122-0.489-0.058-0.74c0.063-0.251,0.196-0.478,0.396-0.677   c0.188-0.188,0.387-0.316,0.594-0.385c0.208-0.068,0.418-0.09,0.63-0.062c0.211,0.027,0.418,0.098,0.621,0.21   c0.202,0.113,0.391,0.257,0.565,0.432c0.175,0.175,0.319,0.364,0.432,0.565c0.112,0.203,0.183,0.41,0.21,0.621   c0.026,0.212,0.005,0.421-0.065,0.628c-0.069,0.206-0.198,0.404-0.386,0.593c-0.089,0.088-0.189,0.166-0.301,0.232   s-0.227,0.116-0.349,0.148c-0.121,0.032-0.244,0.043-0.369,0.035c-0.126-0.008-0.25-0.04-0.371-0.098l-0.01,0.01l1.375,1.375   l-0.301,0.301l-3.37-3.369L40.546,152.661z M43.047,151.863c-0.156-0.095-0.315-0.159-0.479-0.193   c-0.164-0.033-0.328-0.03-0.491,0.01c-0.165,0.04-0.318,0.132-0.461,0.274c-0.165,0.166-0.275,0.333-0.329,0.502   c-0.054,0.168-0.066,0.334-0.038,0.496c0.029,0.162,0.093,0.32,0.193,0.475s0.22,0.302,0.36,0.441   c0.127,0.127,0.269,0.238,0.425,0.334c0.156,0.096,0.317,0.158,0.484,0.189c0.167,0.029,0.336,0.021,0.508-0.027   c0.172-0.047,0.337-0.15,0.496-0.31c0.144-0.144,0.235-0.297,0.275-0.462c0.04-0.163,0.043-0.326,0.01-0.49   c-0.034-0.164-0.098-0.324-0.194-0.48c-0.095-0.156-0.207-0.297-0.334-0.425C43.345,152.07,43.204,151.958,43.047,151.863z"/>
	<path d="M43.286,149.92l0.578,0.578l0.01-0.01c-0.125-0.277-0.16-0.55-0.107-0.819c0.052-0.269,0.194-0.51,0.427-0.724l0.301,0.301   c-0.144,0.131-0.249,0.273-0.318,0.428c-0.068,0.154-0.103,0.312-0.105,0.473c-0.001,0.161,0.031,0.318,0.095,0.473   c0.065,0.154,0.163,0.297,0.293,0.428l1.312,1.312l-0.301,0.301l-2.462-2.463L43.286,149.92z"/>
	<path d="M46.646,150.474l0.401-0.401l0.506,0.506l-0.401,0.401L46.646,150.474z"/>
	<path d="M49.515,148.618c-0.162-0.168-0.28-0.344-0.354-0.525c-0.073-0.181-0.116-0.367-0.128-0.559   c-0.013-0.189-0.006-0.384,0.021-0.58c0.027-0.195,0.061-0.391,0.101-0.586c0.04-0.196,0.077-0.393,0.112-0.59   c0.035-0.197,0.053-0.389,0.053-0.572c0-0.186-0.026-0.349-0.077-0.492c-0.051-0.143-0.143-0.281-0.277-0.416   c-0.108-0.107-0.224-0.184-0.349-0.229c-0.124-0.045-0.249-0.062-0.376-0.053c-0.127,0.01-0.251,0.045-0.373,0.105   s-0.232,0.141-0.334,0.243c-0.137,0.137-0.228,0.28-0.274,0.427c-0.047,0.148-0.057,0.296-0.032,0.442   c0.026,0.146,0.081,0.288,0.165,0.427s0.19,0.268,0.318,0.389l-0.301,0.301c-0.175-0.168-0.313-0.346-0.416-0.534   s-0.161-0.379-0.176-0.573c-0.016-0.193,0.014-0.388,0.09-0.582c0.076-0.193,0.205-0.382,0.386-0.562   c0.146-0.146,0.303-0.264,0.468-0.35c0.166-0.085,0.334-0.136,0.506-0.152c0.171-0.016,0.343,0.009,0.513,0.074   c0.171,0.065,0.334,0.176,0.49,0.332c0.14,0.14,0.244,0.29,0.312,0.451c0.068,0.16,0.111,0.327,0.128,0.501   c0.018,0.173,0.017,0.351-0.002,0.532c-0.019,0.182-0.048,0.362-0.09,0.544c-0.025,0.134-0.06,0.287-0.103,0.46   c-0.042,0.174-0.075,0.351-0.095,0.53s-0.022,0.354-0.004,0.524c0.018,0.171,0.072,0.322,0.164,0.451l1.857-1.856l0.277,0.276   L49.515,148.618z"/>
	<path d="M50.708,141.004c0.258-0.045,0.512-0.025,0.761,0.055c0.25,0.082,0.492,0.209,0.726,0.383   c0.234,0.174,0.448,0.357,0.642,0.551c0.197,0.197,0.383,0.413,0.556,0.646c0.173,0.234,0.301,0.477,0.382,0.727   c0.082,0.249,0.099,0.502,0.052,0.758s-0.191,0.508-0.436,0.752c-0.242,0.242-0.492,0.387-0.75,0.434   c-0.258,0.049-0.511,0.032-0.761-0.049c-0.25-0.082-0.492-0.209-0.726-0.383c-0.234-0.173-0.448-0.356-0.642-0.551   c-0.197-0.197-0.382-0.412-0.556-0.646c-0.173-0.234-0.3-0.476-0.382-0.727c-0.081-0.248-0.099-0.504-0.053-0.764   c0.047-0.258,0.19-0.51,0.432-0.751C50.199,141.194,50.45,141.049,50.708,141.004z M49.896,142.297   c-0.016,0.214,0.02,0.424,0.107,0.629c0.087,0.205,0.208,0.403,0.36,0.594c0.153,0.19,0.301,0.357,0.444,0.501   c0.146,0.146,0.314,0.295,0.503,0.446c0.189,0.152,0.387,0.271,0.595,0.361c0.206,0.088,0.417,0.125,0.63,0.109   c0.213-0.016,0.415-0.119,0.606-0.311s0.294-0.393,0.31-0.605c0.016-0.214-0.021-0.424-0.109-0.631   c-0.089-0.207-0.209-0.404-0.361-0.594c-0.151-0.189-0.3-0.357-0.446-0.504c-0.143-0.143-0.31-0.291-0.501-0.443   c-0.19-0.153-0.388-0.273-0.594-0.361c-0.205-0.088-0.415-0.123-0.628-0.107c-0.213,0.016-0.415,0.119-0.606,0.311   S49.912,142.084,49.896,142.297z"/>
	<path d="M52.75,139.945c0.096-0.117,0.162-0.235,0.198-0.355c0.036-0.119,0.039-0.247,0.007-0.384   c-0.032-0.137-0.112-0.293-0.243-0.468l0.244-0.243l3.341,3.34l-0.301,0.301l-2.481-2.48l-0.883,0.883l-0.215-0.216   C52.544,140.188,52.655,140.063,52.75,139.945z"/>
	<path d="M55.404,137.292c0.096-0.117,0.162-0.236,0.198-0.355c0.036-0.119,0.039-0.248,0.007-0.385   c-0.032-0.137-0.112-0.293-0.243-0.467l0.243-0.244l3.341,3.342l-0.3,0.3L56.168,137l-0.883,0.883l-0.215-0.215   C55.198,137.535,55.309,137.41,55.404,137.292z"/>
</g>
<g>
	<path d="M68.214,152.708l2.458,2.457c0.175,0.176,0.308,0.345,0.401,0.507c0.092,0.163,0.141,0.323,0.146,0.484   s-0.035,0.325-0.12,0.491c-0.084,0.168-0.218,0.344-0.403,0.528c-0.194,0.194-0.386,0.319-0.575,0.379   c-0.19,0.06-0.373,0.071-0.549,0.033c-0.177-0.036-0.348-0.112-0.514-0.227c-0.165-0.114-0.322-0.246-0.472-0.396l0.324-0.324   c0.077,0.069,0.169,0.152,0.277,0.248c0.108,0.095,0.228,0.17,0.357,0.225c0.131,0.053,0.272,0.068,0.425,0.047   c0.152-0.022,0.313-0.117,0.482-0.287c0.127-0.127,0.215-0.248,0.265-0.365c0.049-0.115,0.062-0.232,0.038-0.352   c-0.023-0.121-0.082-0.245-0.174-0.375c-0.092-0.131-0.216-0.274-0.372-0.43l-2.32-2.32L68.214,152.708z"/>
	<path d="M73.97,153.767l-0.444-0.443l-0.01,0.01c0.086,0.246,0.097,0.486,0.033,0.726c-0.063,0.239-0.187,0.45-0.372,0.636   c-0.156,0.155-0.311,0.267-0.463,0.333c-0.153,0.067-0.303,0.095-0.451,0.084s-0.295-0.059-0.441-0.142   c-0.146-0.082-0.292-0.197-0.439-0.344l-1.599-1.598l0.301-0.301l1.604,1.604c0.229,0.216,0.449,0.332,0.661,0.351   c0.212,0.018,0.437-0.093,0.675-0.331c0.131-0.131,0.214-0.271,0.251-0.418c0.037-0.148,0.039-0.299,0.007-0.451   s-0.093-0.303-0.183-0.451c-0.091-0.148-0.198-0.284-0.323-0.408l-1.293-1.293l0.301-0.301l2.462,2.462L73.97,153.767z"/>
	<path d="M71.712,149.21l3.408,3.407l-0.301,0.301l-3.408-3.407L71.712,149.21z"/>
	<path d="M73.278,149.534l2.911,1.289l-1.34-2.859l0.3-0.301l1.766,3.904c0.06,0.15,0.105,0.277,0.136,0.385   c0.03,0.106,0.042,0.202,0.036,0.288c-0.006,0.087-0.032,0.169-0.076,0.248c-0.045,0.08-0.115,0.167-0.21,0.263   c-0.064,0.058-0.113,0.102-0.148,0.134s-0.07,0.056-0.105,0.071l-0.253-0.252c0.042-0.029,0.081-0.059,0.119-0.086   c0.039-0.029,0.075-0.061,0.11-0.096c0.067-0.067,0.112-0.132,0.136-0.193c0.023-0.062,0.035-0.126,0.033-0.191   s-0.015-0.133-0.041-0.203c-0.025-0.069-0.054-0.146-0.086-0.229l-0.172-0.382l-3.436-1.47L73.278,149.534z"/>
	<path d="M79.12,148.618c-0.162-0.168-0.28-0.344-0.354-0.525c-0.072-0.182-0.116-0.367-0.128-0.559   c-0.013-0.19-0.005-0.385,0.021-0.58c0.028-0.195,0.061-0.391,0.101-0.586c0.04-0.197,0.077-0.393,0.112-0.59   c0.035-0.197,0.053-0.389,0.053-0.572c0-0.186-0.025-0.35-0.076-0.492c-0.051-0.144-0.144-0.281-0.277-0.416   c-0.108-0.107-0.224-0.184-0.349-0.229c-0.124-0.045-0.25-0.062-0.377-0.053c-0.127,0.01-0.251,0.045-0.372,0.105   s-0.232,0.141-0.334,0.242c-0.137,0.138-0.228,0.28-0.274,0.428c-0.046,0.148-0.057,0.296-0.031,0.441   c0.025,0.146,0.08,0.289,0.165,0.428s0.19,0.268,0.318,0.389l-0.301,0.301c-0.175-0.168-0.313-0.346-0.416-0.534   s-0.161-0.378-0.176-0.573c-0.016-0.193,0.014-0.388,0.09-0.582c0.077-0.193,0.205-0.382,0.387-0.563   c0.146-0.146,0.302-0.263,0.467-0.349c0.166-0.086,0.335-0.137,0.506-0.152c0.172-0.016,0.343,0.009,0.513,0.074   s0.333,0.176,0.489,0.332c0.14,0.14,0.244,0.291,0.312,0.451s0.111,0.327,0.129,0.5c0.017,0.174,0.017,0.352-0.002,0.533   s-0.049,0.362-0.091,0.544c-0.025,0.134-0.06,0.287-0.103,0.46c-0.042,0.174-0.074,0.351-0.095,0.529   c-0.021,0.181-0.022,0.355-0.005,0.525c0.018,0.171,0.073,0.321,0.165,0.451l1.857-1.857l0.277,0.277L79.12,148.618z"/>
	<path d="M80.312,141.005c0.258-0.045,0.512-0.025,0.762,0.055c0.25,0.082,0.491,0.209,0.726,0.382   c0.234,0.175,0.448,0.358,0.642,0.552c0.197,0.197,0.383,0.413,0.557,0.646c0.173,0.234,0.3,0.477,0.382,0.726   c0.081,0.25,0.099,0.503,0.052,0.759c-0.046,0.256-0.191,0.508-0.436,0.752c-0.242,0.242-0.492,0.387-0.75,0.434   c-0.257,0.049-0.511,0.032-0.761-0.049c-0.25-0.082-0.492-0.209-0.726-0.383c-0.234-0.173-0.448-0.356-0.642-0.551   c-0.197-0.197-0.382-0.412-0.556-0.646c-0.173-0.234-0.3-0.476-0.382-0.727c-0.081-0.248-0.098-0.504-0.053-0.764   c0.047-0.258,0.19-0.51,0.432-0.751C79.804,141.194,80.055,141.05,80.312,141.005z M79.501,142.298   c-0.016,0.214,0.02,0.423,0.107,0.629c0.088,0.205,0.208,0.402,0.36,0.594c0.153,0.19,0.301,0.357,0.444,0.501   c0.146,0.146,0.314,0.295,0.504,0.446s0.387,0.271,0.594,0.361c0.207,0.088,0.417,0.125,0.63,0.109   c0.213-0.017,0.415-0.119,0.606-0.311s0.294-0.393,0.311-0.606c0.016-0.213-0.021-0.423-0.109-0.63   c-0.09-0.207-0.209-0.404-0.361-0.594s-0.3-0.357-0.447-0.504c-0.143-0.143-0.31-0.291-0.501-0.444   c-0.19-0.152-0.389-0.272-0.594-0.36c-0.206-0.088-0.415-0.123-0.628-0.107c-0.213,0.016-0.416,0.119-0.606,0.311   S79.518,142.085,79.501,142.298z"/>
	<path d="M82.355,139.945c0.096-0.117,0.162-0.236,0.198-0.355s0.039-0.247,0.007-0.384s-0.113-0.293-0.244-0.468l0.244-0.243   l3.341,3.34l-0.301,0.301l-2.481-2.48l-0.883,0.883l-0.215-0.216C82.149,140.188,82.261,140.063,82.355,139.945z"/>
	<path d="M85.009,137.292c0.096-0.117,0.162-0.236,0.198-0.355c0.036-0.119,0.039-0.248,0.007-0.385   c-0.031-0.137-0.112-0.293-0.243-0.467l0.244-0.244l3.341,3.341l-0.301,0.301l-2.481-2.481l-0.883,0.883l-0.215-0.215   C84.803,137.535,84.915,137.409,85.009,137.292z"/>
</g>
<g>
	<path d="M96.996,156.23c-0.146-0.279-0.235-0.568-0.265-0.865c-0.03-0.299,0.007-0.596,0.112-0.896   c0.104-0.299,0.291-0.582,0.558-0.849c0.268-0.268,0.549-0.452,0.847-0.556s0.595-0.141,0.893-0.109   c0.297,0.029,0.586,0.117,0.866,0.264c0.28,0.146,0.538,0.338,0.773,0.572c0.235,0.236,0.426,0.494,0.573,0.774   c0.147,0.28,0.234,0.567,0.263,0.864c0.029,0.295-0.009,0.592-0.112,0.89c-0.104,0.298-0.289,0.579-0.556,0.847   c-0.267,0.268-0.551,0.453-0.849,0.559c-0.3,0.105-0.597,0.144-0.893,0.115c-0.296-0.029-0.584-0.116-0.864-0.263   c-0.28-0.147-0.538-0.338-0.773-0.573S97.143,156.51,96.996,156.23z M98.514,157.152c0.229,0.131,0.466,0.215,0.711,0.253   s0.492,0.019,0.74-0.058c0.249-0.076,0.485-0.227,0.711-0.453s0.376-0.463,0.451-0.709s0.093-0.492,0.055-0.737   s-0.123-0.481-0.253-0.711s-0.288-0.437-0.473-0.621c-0.187-0.187-0.395-0.345-0.623-0.474s-0.464-0.213-0.709-0.252   c-0.245-0.037-0.491-0.02-0.737,0.056c-0.247,0.074-0.483,0.225-0.709,0.45c-0.226,0.227-0.377,0.463-0.453,0.713   c-0.077,0.247-0.096,0.494-0.058,0.738c0.038,0.246,0.122,0.482,0.251,0.709c0.129,0.229,0.288,0.436,0.475,0.623   C98.079,156.864,98.285,157.021,98.514,157.152z"/>
	<path d="M102.318,151.414c-0.217,0.008-0.424,0.11-0.625,0.311c-0.144,0.145-0.239,0.3-0.287,0.468   c-0.048,0.169-0.058,0.339-0.031,0.509c0.027,0.17,0.085,0.336,0.174,0.498s0.199,0.31,0.33,0.44   c0.13,0.13,0.277,0.239,0.439,0.329c0.162,0.088,0.329,0.146,0.499,0.174c0.17,0.027,0.34,0.018,0.509-0.031   c0.168-0.047,0.324-0.143,0.467-0.287c0.092-0.092,0.163-0.196,0.21-0.314c0.048-0.117,0.073-0.239,0.074-0.365   c0.003-0.125-0.019-0.252-0.064-0.379c-0.044-0.127-0.112-0.246-0.205-0.358l0.301-0.301c0.258,0.341,0.381,0.685,0.371,1.028   c-0.012,0.346-0.157,0.658-0.437,0.938c-0.188,0.188-0.388,0.319-0.602,0.396c-0.213,0.076-0.428,0.104-0.645,0.086   c-0.217-0.02-0.428-0.083-0.637-0.188c-0.208-0.107-0.401-0.249-0.58-0.428c-0.178-0.178-0.321-0.371-0.428-0.58   c-0.106-0.209-0.169-0.42-0.188-0.637c-0.02-0.217,0.009-0.432,0.083-0.646s0.206-0.416,0.394-0.604   c0.264-0.265,0.557-0.418,0.88-0.461s0.644,0.06,0.962,0.308l-0.301,0.301C102.756,151.476,102.534,151.408,102.318,151.414z"/>
	<path d="M103.927,149.128l0.253,0.253l-0.501,0.501l1.661,1.66c0.099,0.1,0.189,0.164,0.272,0.191   c0.083,0.029,0.181-0.008,0.296-0.109c0.086-0.086,0.167-0.178,0.243-0.272l0.253,0.253c-0.044,0.045-0.088,0.092-0.129,0.139   c-0.042,0.047-0.084,0.094-0.128,0.139c-0.201,0.201-0.38,0.301-0.538,0.303c-0.158,0.002-0.339-0.104-0.546-0.317l-1.685-1.685   l-0.43,0.43l-0.253-0.254l0.43-0.43l-0.74-0.739l0.301-0.301l0.74,0.739L103.927,149.128z"/>
	<path d="M106.495,150.474l0.401-0.4l0.506,0.506l-0.401,0.4L106.495,150.474z"/>
	<path d="M109.363,148.617c-0.162-0.168-0.28-0.344-0.353-0.524s-0.116-0.367-0.129-0.56c-0.012-0.189-0.005-0.383,0.021-0.578   c0.028-0.196,0.061-0.392,0.101-0.588c0.04-0.195,0.076-0.393,0.112-0.59c0.035-0.197,0.052-0.388,0.052-0.572   c0-0.184-0.025-0.348-0.076-0.492c-0.052-0.143-0.144-0.281-0.277-0.414c-0.108-0.109-0.225-0.186-0.348-0.229   c-0.125-0.044-0.25-0.062-0.377-0.052c-0.128,0.008-0.251,0.043-0.372,0.104s-0.233,0.142-0.334,0.243   c-0.137,0.138-0.228,0.28-0.274,0.428c-0.046,0.148-0.056,0.296-0.031,0.441c0.026,0.147,0.081,0.29,0.165,0.428   s0.19,0.269,0.317,0.389l-0.301,0.301c-0.175-0.169-0.313-0.347-0.415-0.534c-0.102-0.188-0.161-0.379-0.177-0.573   c-0.016-0.194,0.014-0.388,0.091-0.582s0.205-0.382,0.387-0.563c0.146-0.146,0.302-0.262,0.468-0.348   c0.165-0.087,0.334-0.138,0.505-0.154c0.172-0.016,0.343,0.01,0.514,0.074c0.17,0.066,0.333,0.176,0.489,0.332   c0.14,0.141,0.244,0.291,0.313,0.451c0.068,0.161,0.111,0.328,0.128,0.502c0.018,0.172,0.017,0.35-0.002,0.532   c-0.02,0.181-0.049,0.362-0.09,0.544c-0.026,0.133-0.06,0.287-0.103,0.46c-0.043,0.174-0.075,0.351-0.095,0.53   c-0.021,0.18-0.023,0.354-0.006,0.524c0.018,0.171,0.073,0.321,0.165,0.451l1.857-1.856l0.277,0.276L109.363,148.617z"/>
	<path d="M110.557,141.005c0.258-0.045,0.511-0.027,0.762,0.055c0.249,0.08,0.492,0.208,0.725,0.381   c0.233,0.174,0.447,0.357,0.641,0.551c0.198,0.198,0.383,0.414,0.557,0.646c0.173,0.234,0.301,0.477,0.382,0.727   c0.082,0.25,0.099,0.503,0.053,0.76c-0.046,0.256-0.192,0.506-0.437,0.751c-0.242,0.241-0.491,0.387-0.749,0.435   c-0.257,0.047-0.511,0.031-0.762-0.051c-0.249-0.081-0.492-0.209-0.726-0.382c-0.233-0.173-0.448-0.356-0.642-0.552   c-0.197-0.196-0.382-0.412-0.556-0.646c-0.173-0.232-0.3-0.476-0.381-0.725c-0.082-0.25-0.099-0.505-0.053-0.764   c0.046-0.26,0.19-0.51,0.432-0.752C110.047,141.194,110.299,141.048,110.557,141.005z M109.745,142.298   c-0.016,0.213,0.02,0.422,0.108,0.627c0.087,0.205,0.207,0.403,0.36,0.594c0.153,0.191,0.301,0.359,0.443,0.502   c0.146,0.146,0.315,0.295,0.504,0.445c0.19,0.152,0.388,0.271,0.595,0.361s0.416,0.125,0.63,0.109   c0.213-0.016,0.415-0.119,0.605-0.311c0.191-0.19,0.295-0.393,0.311-0.605c0.015-0.213-0.021-0.423-0.11-0.631   c-0.089-0.206-0.209-0.404-0.361-0.594c-0.151-0.189-0.3-0.357-0.446-0.504c-0.143-0.143-0.31-0.291-0.501-0.443   s-0.389-0.272-0.594-0.36c-0.206-0.087-0.415-0.122-0.628-0.107c-0.213,0.017-0.416,0.119-0.607,0.31   C109.864,141.882,109.761,142.084,109.745,142.298z"/>
	<path d="M112.6,139.945c0.095-0.117,0.162-0.236,0.198-0.355s0.039-0.247,0.007-0.384c-0.032-0.137-0.113-0.293-0.244-0.468   l0.244-0.244l3.341,3.342l-0.301,0.301l-2.482-2.482l-0.883,0.883l-0.214-0.215C112.393,140.189,112.504,140.062,112.6,139.945z"/>
	<path d="M115.253,137.292c0.095-0.118,0.162-0.237,0.198-0.355c0.036-0.119,0.039-0.247,0.007-0.384   c-0.032-0.137-0.113-0.293-0.244-0.469l0.244-0.243l3.341,3.341l-0.301,0.301L116.017,137l-0.883,0.883l-0.214-0.214   C115.046,137.535,115.158,137.409,115.253,137.292z"/>
</g>
<g>
	<path d="M187.762,152.708l2.459,2.458c0.174,0.175,0.307,0.344,0.399,0.506c0.093,0.163,0.142,0.324,0.146,0.484   c0.005,0.161-0.035,0.325-0.119,0.492s-0.219,0.343-0.403,0.527c-0.194,0.194-0.386,0.32-0.575,0.379   c-0.189,0.061-0.373,0.07-0.549,0.033c-0.177-0.036-0.348-0.111-0.514-0.227c-0.165-0.114-0.322-0.246-0.473-0.396l0.324-0.324   c0.077,0.07,0.17,0.153,0.277,0.248c0.109,0.096,0.229,0.17,0.358,0.226c0.131,0.054,0.272,0.069,0.425,0.047   c0.153-0.021,0.313-0.117,0.482-0.286c0.127-0.127,0.215-0.248,0.265-0.365c0.05-0.115,0.062-0.233,0.038-0.354   c-0.023-0.119-0.082-0.244-0.174-0.374c-0.093-0.131-0.217-0.274-0.373-0.431l-2.318-2.318L187.762,152.708z"/>
	<path d="M193.518,153.768l-0.443-0.443l-0.01,0.01c0.086,0.244,0.097,0.486,0.033,0.726c-0.064,0.237-0.188,0.45-0.373,0.634   c-0.155,0.156-0.31,0.269-0.463,0.334c-0.152,0.067-0.303,0.096-0.451,0.084c-0.147-0.011-0.294-0.058-0.44-0.141   s-0.293-0.197-0.439-0.344l-1.599-1.6l0.301-0.301l1.604,1.604c0.229,0.216,0.449,0.333,0.661,0.352   c0.211,0.017,0.437-0.095,0.675-0.333c0.131-0.131,0.215-0.27,0.25-0.418c0.037-0.146,0.04-0.297,0.008-0.45   c-0.032-0.152-0.094-0.304-0.184-0.451c-0.091-0.147-0.198-0.284-0.322-0.407l-1.293-1.295l0.301-0.301l2.463,2.463   L193.518,153.768z"/>
	<path d="M191.26,149.21l3.408,3.407l-0.301,0.301l-3.408-3.407L191.26,149.21z"/>
	<path d="M192.826,149.534l2.911,1.29l-1.341-2.86l0.3-0.3l1.767,3.903c0.06,0.149,0.106,0.278,0.137,0.385s0.042,0.202,0.036,0.288   c-0.008,0.086-0.033,0.17-0.077,0.248c-0.044,0.08-0.114,0.168-0.21,0.264c-0.064,0.057-0.113,0.102-0.148,0.133   c-0.034,0.032-0.069,0.057-0.104,0.072l-0.253-0.254c0.041-0.027,0.081-0.057,0.119-0.085c0.038-0.029,0.074-0.062,0.109-0.096   c0.067-0.067,0.113-0.132,0.137-0.194c0.023-0.061,0.035-0.125,0.033-0.189c-0.002-0.066-0.016-0.133-0.041-0.203   s-0.054-0.146-0.086-0.229l-0.172-0.383l-3.436-1.471L192.826,149.534z"/>
	<path d="M198.667,148.618c-0.163-0.169-0.28-0.344-0.354-0.524c-0.072-0.182-0.116-0.367-0.129-0.56   c-0.013-0.19-0.005-0.384,0.021-0.579c0.028-0.195,0.062-0.391,0.101-0.587c0.041-0.196,0.076-0.394,0.112-0.59   c0.034-0.197,0.052-0.388,0.052-0.573c0.001-0.184-0.024-0.348-0.075-0.491c-0.052-0.144-0.144-0.282-0.277-0.415   c-0.108-0.108-0.225-0.185-0.349-0.229c-0.124-0.045-0.25-0.062-0.377-0.053c-0.128,0.009-0.251,0.044-0.372,0.104   s-0.233,0.142-0.335,0.243c-0.137,0.137-0.228,0.279-0.273,0.428c-0.047,0.148-0.057,0.295-0.031,0.441s0.08,0.289,0.164,0.428   c0.085,0.138,0.191,0.268,0.318,0.389l-0.301,0.301c-0.176-0.169-0.314-0.348-0.416-0.535s-0.16-0.379-0.176-0.572   c-0.017-0.194,0.014-0.389,0.09-0.582c0.077-0.194,0.205-0.383,0.387-0.564c0.146-0.146,0.303-0.262,0.469-0.348   c0.164-0.086,0.334-0.137,0.505-0.153c0.172-0.016,0.343,0.009,0.514,0.074c0.17,0.065,0.333,0.176,0.489,0.332   c0.141,0.14,0.244,0.29,0.312,0.451s0.111,0.328,0.129,0.501c0.018,0.174,0.017,0.351-0.002,0.533   c-0.02,0.18-0.049,0.361-0.092,0.543c-0.025,0.133-0.059,0.287-0.103,0.461c-0.042,0.174-0.074,0.35-0.095,0.529   c-0.021,0.18-0.023,0.355-0.006,0.525c0.019,0.17,0.073,0.32,0.166,0.451l1.856-1.857l0.276,0.277L198.667,148.618z"/>
	<path d="M199.861,141.006c0.258-0.045,0.511-0.027,0.762,0.055c0.249,0.081,0.491,0.209,0.725,0.381   c0.233,0.174,0.448,0.357,0.642,0.552c0.197,0.198,0.383,0.413,0.557,0.646c0.173,0.234,0.301,0.477,0.382,0.726   c0.081,0.25,0.099,0.504,0.053,0.76s-0.192,0.506-0.437,0.752c-0.242,0.241-0.492,0.387-0.75,0.434   c-0.257,0.048-0.512,0.031-0.762-0.051c-0.249-0.08-0.491-0.208-0.725-0.381c-0.234-0.174-0.448-0.357-0.643-0.552   c-0.197-0.196-0.383-0.413-0.557-0.647c-0.172-0.232-0.3-0.475-0.381-0.725c-0.082-0.25-0.098-0.504-0.053-0.764   c0.047-0.26,0.19-0.51,0.432-0.752C199.352,141.195,199.602,141.051,199.861,141.006z M199.049,142.299   c-0.016,0.214,0.02,0.422,0.107,0.628c0.088,0.205,0.207,0.403,0.36,0.594s0.301,0.358,0.443,0.501   c0.146,0.146,0.315,0.295,0.504,0.446c0.19,0.151,0.388,0.271,0.595,0.36c0.207,0.09,0.416,0.126,0.63,0.11   c0.214-0.017,0.415-0.12,0.605-0.311s0.295-0.393,0.312-0.606c0.015-0.213-0.021-0.422-0.11-0.63   c-0.089-0.206-0.209-0.404-0.36-0.595c-0.151-0.188-0.301-0.356-0.447-0.503c-0.143-0.143-0.31-0.291-0.5-0.444   c-0.191-0.152-0.389-0.271-0.594-0.359c-0.206-0.088-0.415-0.123-0.629-0.107c-0.213,0.016-0.416,0.119-0.606,0.31   S199.065,142.086,199.049,142.299z"/>
	<path d="M201.904,139.946c0.095-0.118,0.161-0.237,0.198-0.355c0.036-0.119,0.039-0.247,0.008-0.384   c-0.033-0.137-0.113-0.293-0.244-0.469l0.243-0.243l3.341,3.341l-0.301,0.301l-2.482-2.482l-0.883,0.883l-0.214-0.214   C201.697,140.189,201.808,140.063,201.904,139.946z"/>
	<path d="M206.629,140.656c-0.163-0.168-0.281-0.344-0.354-0.523c-0.073-0.182-0.117-0.367-0.129-0.561   c-0.014-0.189-0.006-0.383,0.021-0.578s0.061-0.392,0.1-0.588c0.041-0.195,0.076-0.393,0.112-0.589   c0.034-0.198,0.053-0.389,0.052-0.573c0.002-0.184-0.024-0.348-0.075-0.491c-0.052-0.144-0.144-0.282-0.277-0.415   c-0.108-0.108-0.225-0.185-0.349-0.229c-0.123-0.045-0.25-0.062-0.377-0.053c-0.127,0.008-0.251,0.044-0.372,0.104   s-0.232,0.141-0.335,0.243c-0.137,0.137-0.228,0.279-0.273,0.427c-0.047,0.149-0.057,0.296-0.031,0.442s0.08,0.289,0.165,0.427   c0.084,0.139,0.19,0.269,0.317,0.389l-0.301,0.301c-0.176-0.169-0.313-0.347-0.416-0.534c-0.102-0.188-0.16-0.379-0.176-0.572   c-0.016-0.195,0.014-0.389,0.091-0.583c0.076-0.193,0.205-0.382,0.386-0.563c0.146-0.146,0.303-0.262,0.469-0.348   c0.164-0.086,0.334-0.137,0.505-0.153c0.173-0.017,0.344,0.009,0.514,0.074c0.171,0.065,0.333,0.176,0.489,0.332   c0.141,0.14,0.244,0.29,0.312,0.45c0.068,0.162,0.111,0.328,0.129,0.502c0.018,0.173,0.018,0.35-0.002,0.532   c-0.02,0.181-0.049,0.362-0.091,0.544c-0.026,0.133-0.06,0.287-0.103,0.461c-0.043,0.173-0.075,0.35-0.096,0.529   s-0.022,0.354-0.005,0.524c0.018,0.171,0.072,0.321,0.165,0.452l1.856-1.857l0.276,0.277L206.629,140.656z"/>
</g>
<g>
	<path d="M216.544,156.231c-0.146-0.281-0.235-0.569-0.265-0.867c-0.031-0.298,0.007-0.596,0.112-0.895   c0.104-0.3,0.29-0.583,0.558-0.85c0.268-0.268,0.549-0.453,0.848-0.557c0.297-0.103,0.595-0.141,0.893-0.109   c0.297,0.03,0.586,0.118,0.866,0.266c0.28,0.146,0.538,0.336,0.772,0.571c0.236,0.235,0.427,0.493,0.573,0.774   c0.147,0.279,0.234,0.568,0.263,0.863c0.029,0.296-0.01,0.593-0.112,0.891c-0.104,0.297-0.288,0.58-0.556,0.848   c-0.268,0.267-0.551,0.452-0.85,0.557c-0.3,0.105-0.597,0.145-0.893,0.115c-0.296-0.027-0.584-0.115-0.864-0.262   c-0.28-0.147-0.538-0.338-0.773-0.574C216.881,156.769,216.692,156.511,216.544,156.231z M218.062,157.151   c0.229,0.131,0.466,0.216,0.711,0.254c0.245,0.037,0.492,0.02,0.739-0.058c0.25-0.076,0.486-0.228,0.713-0.453   c0.226-0.226,0.376-0.462,0.45-0.71c0.075-0.246,0.093-0.492,0.055-0.736c-0.038-0.245-0.122-0.482-0.253-0.711   c-0.13-0.229-0.287-0.437-0.473-0.621c-0.188-0.188-0.395-0.346-0.623-0.475c-0.227-0.129-0.463-0.213-0.709-0.251   c-0.244-0.038-0.49-0.021-0.736,0.056c-0.247,0.074-0.483,0.225-0.709,0.45c-0.227,0.226-0.377,0.463-0.453,0.712   c-0.077,0.248-0.096,0.494-0.059,0.739c0.039,0.245,0.123,0.481,0.252,0.709s0.287,0.435,0.475,0.622   C217.626,156.864,217.833,157.022,218.062,157.151z"/>
	<path d="M221.866,151.414c-0.217,0.007-0.424,0.11-0.625,0.311c-0.143,0.144-0.238,0.3-0.286,0.468   c-0.048,0.169-0.058,0.338-0.03,0.509c0.027,0.17,0.084,0.336,0.174,0.498c0.089,0.163,0.199,0.31,0.329,0.44   c0.13,0.13,0.276,0.239,0.438,0.328c0.163,0.09,0.33,0.147,0.499,0.174c0.171,0.027,0.341,0.018,0.509-0.031   c0.169-0.047,0.324-0.143,0.468-0.285c0.092-0.092,0.162-0.197,0.21-0.315s0.072-0.239,0.074-0.365s-0.02-0.251-0.064-0.379   s-0.113-0.247-0.205-0.358l0.301-0.301c0.257,0.34,0.381,0.684,0.369,1.028c-0.011,0.347-0.156,0.659-0.436,0.938   c-0.188,0.188-0.389,0.319-0.603,0.396c-0.213,0.076-0.429,0.104-0.644,0.086c-0.217-0.02-0.43-0.083-0.638-0.189   c-0.208-0.105-0.401-0.248-0.579-0.427c-0.179-0.179-0.321-0.372-0.428-0.58c-0.107-0.209-0.17-0.421-0.189-0.637   c-0.02-0.217,0.01-0.433,0.084-0.647s0.206-0.416,0.395-0.604c0.264-0.264,0.557-0.418,0.88-0.461s0.644,0.061,0.962,0.309   l-0.301,0.301C222.303,151.477,222.083,151.408,221.866,151.414z"/>
	<path d="M223.475,149.128l0.253,0.254l-0.501,0.5l1.66,1.661c0.1,0.099,0.189,0.163,0.272,0.19   c0.083,0.029,0.181-0.007,0.296-0.109c0.086-0.086,0.168-0.177,0.243-0.271l0.253,0.253c-0.044,0.044-0.088,0.091-0.129,0.139   s-0.084,0.094-0.128,0.138c-0.2,0.201-0.38,0.302-0.537,0.303c-0.158,0.002-0.339-0.104-0.546-0.316l-1.686-1.686l-0.43,0.43   l-0.254-0.253l0.43-0.43l-0.739-0.739l0.301-0.301l0.739,0.739L223.475,149.128z"/>
	<path d="M226.042,150.474l0.401-0.4l0.506,0.506l-0.4,0.401L226.042,150.474z"/>
	<path d="M228.912,148.618c-0.163-0.17-0.28-0.345-0.354-0.525c-0.073-0.182-0.116-0.367-0.129-0.559s-0.005-0.385,0.021-0.58   c0.028-0.195,0.062-0.391,0.102-0.587s0.076-0.393,0.111-0.59c0.035-0.198,0.053-0.388,0.053-0.573   c0-0.184-0.025-0.348-0.076-0.491s-0.144-0.282-0.277-0.415c-0.107-0.108-0.224-0.184-0.348-0.229s-0.25-0.062-0.377-0.053   c-0.128,0.01-0.252,0.044-0.373,0.104s-0.232,0.142-0.334,0.243c-0.137,0.137-0.229,0.279-0.273,0.428   c-0.047,0.148-0.057,0.295-0.031,0.441s0.08,0.289,0.164,0.428c0.084,0.138,0.19,0.268,0.317,0.389l-0.301,0.301   c-0.175-0.169-0.313-0.348-0.415-0.534c-0.102-0.188-0.16-0.379-0.176-0.573c-0.017-0.193,0.014-0.389,0.09-0.582   c0.076-0.194,0.205-0.383,0.387-0.564c0.146-0.146,0.303-0.262,0.468-0.348s0.334-0.137,0.506-0.152s0.343,0.008,0.513,0.073   c0.171,0.065,0.334,0.177,0.49,0.332c0.14,0.14,0.244,0.29,0.312,0.45c0.068,0.162,0.111,0.328,0.129,0.502   c0.018,0.173,0.016,0.351-0.003,0.533c-0.019,0.181-0.049,0.361-0.091,0.543c-0.025,0.133-0.059,0.287-0.103,0.461   c-0.042,0.174-0.075,0.35-0.095,0.529c-0.021,0.18-0.023,0.354-0.006,0.525c0.018,0.17,0.073,0.32,0.165,0.451l1.856-1.857   l0.277,0.277L228.912,148.618z"/>
	<path d="M230.104,141.005c0.258-0.045,0.512-0.026,0.762,0.055s0.492,0.209,0.726,0.381c0.233,0.174,0.447,0.357,0.642,0.553   c0.197,0.197,0.383,0.413,0.557,0.646s0.301,0.477,0.382,0.725c0.081,0.25,0.099,0.504,0.052,0.76   c-0.045,0.256-0.191,0.507-0.436,0.752c-0.242,0.242-0.492,0.387-0.75,0.434c-0.258,0.048-0.512,0.031-0.762-0.05   c-0.248-0.081-0.491-0.208-0.725-0.382c-0.234-0.173-0.449-0.357-0.643-0.551c-0.197-0.197-0.383-0.414-0.557-0.647   c-0.172-0.233-0.3-0.476-0.381-0.726s-0.099-0.504-0.053-0.764s0.189-0.51,0.432-0.752   C229.595,141.194,229.846,141.049,230.104,141.005z M229.293,142.298c-0.016,0.214,0.02,0.422,0.107,0.627   c0.088,0.206,0.207,0.404,0.359,0.595c0.154,0.191,0.301,0.358,0.444,0.501c0.146,0.146,0.315,0.296,0.504,0.447   c0.189,0.15,0.388,0.271,0.595,0.359c0.207,0.09,0.416,0.127,0.629,0.11c0.214-0.017,0.416-0.119,0.606-0.31   c0.19-0.191,0.294-0.394,0.311-0.607c0.016-0.213-0.021-0.422-0.11-0.63c-0.089-0.206-0.209-0.404-0.359-0.594   c-0.151-0.188-0.301-0.357-0.447-0.504c-0.143-0.144-0.31-0.29-0.501-0.444c-0.19-0.152-0.389-0.271-0.594-0.359   c-0.206-0.088-0.415-0.123-0.628-0.107s-0.416,0.119-0.606,0.311C229.413,141.883,229.309,142.085,229.293,142.298z"/>
	<path d="M232.147,139.945c0.096-0.117,0.162-0.236,0.199-0.355c0.036-0.12,0.038-0.247,0.007-0.384   c-0.032-0.137-0.113-0.293-0.243-0.468l0.243-0.243l3.341,3.34l-0.301,0.301l-2.482-2.481l-0.883,0.883l-0.215-0.215   C231.94,140.188,232.052,140.063,232.147,139.945z"/>
	<path d="M236.874,140.656c-0.164-0.169-0.281-0.345-0.354-0.524c-0.073-0.182-0.116-0.368-0.128-0.56   c-0.014-0.19-0.006-0.384,0.021-0.579c0.027-0.195,0.062-0.392,0.101-0.587c0.04-0.196,0.076-0.393,0.112-0.591   c0.034-0.197,0.053-0.387,0.052-0.572c0.001-0.184-0.025-0.348-0.076-0.491s-0.143-0.282-0.276-0.415   c-0.108-0.109-0.224-0.185-0.349-0.229c-0.123-0.045-0.25-0.062-0.377-0.053c-0.127,0.009-0.252,0.044-0.373,0.104   s-0.231,0.142-0.334,0.243c-0.137,0.137-0.229,0.279-0.273,0.428c-0.047,0.148-0.057,0.295-0.031,0.441s0.08,0.289,0.164,0.427   c0.085,0.138,0.191,0.269,0.318,0.389l-0.301,0.301c-0.176-0.169-0.314-0.347-0.415-0.534c-0.103-0.188-0.161-0.379-0.177-0.572   c-0.016-0.194,0.014-0.389,0.09-0.583c0.076-0.193,0.205-0.382,0.387-0.563c0.146-0.146,0.303-0.262,0.469-0.348   c0.164-0.086,0.333-0.137,0.506-0.153c0.172-0.016,0.342,0.009,0.512,0.074c0.172,0.065,0.334,0.176,0.49,0.331   c0.141,0.141,0.244,0.291,0.312,0.451c0.068,0.162,0.111,0.328,0.129,0.502c0.018,0.173,0.017,0.35-0.002,0.532   c-0.02,0.181-0.049,0.362-0.092,0.544c-0.025,0.133-0.059,0.287-0.103,0.461c-0.042,0.174-0.075,0.35-0.095,0.529   c-0.021,0.18-0.023,0.354-0.005,0.525c0.018,0.17,0.072,0.32,0.164,0.451l1.856-1.857l0.277,0.277L236.874,140.656z"/>
</g>
<g>
	<path d="M127.632,153.419l2.458,2.458c0.175,0.176,0.308,0.344,0.4,0.506c0.092,0.163,0.141,0.324,0.146,0.484   c0.004,0.161-0.035,0.325-0.12,0.492c-0.084,0.167-0.218,0.343-0.403,0.527c-0.194,0.194-0.386,0.32-0.575,0.379   c-0.189,0.061-0.373,0.07-0.549,0.033c-0.177-0.036-0.348-0.111-0.514-0.227c-0.166-0.114-0.322-0.246-0.472-0.396l0.325-0.325   c0.076,0.07,0.168,0.153,0.276,0.248c0.109,0.097,0.228,0.171,0.358,0.225c0.131,0.055,0.272,0.07,0.425,0.049   c0.153-0.023,0.314-0.118,0.482-0.287c0.127-0.127,0.216-0.248,0.265-0.365c0.049-0.116,0.062-0.233,0.038-0.354   c-0.024-0.119-0.082-0.244-0.174-0.375c-0.093-0.13-0.217-0.273-0.373-0.429l-2.32-2.319L127.632,153.419z"/>
	<path d="M129.651,154.054c-0.054-0.155-0.07-0.311-0.05-0.465c0.021-0.155,0.074-0.307,0.16-0.456s0.2-0.296,0.344-0.439   c0.108-0.107,0.227-0.205,0.355-0.293s0.265-0.146,0.408-0.174c0.143-0.029,0.293-0.02,0.451,0.031   c0.158,0.049,0.319,0.156,0.484,0.321l1.308,1.308c0.121,0.121,0.241,0.123,0.358,0.006c0.035-0.035,0.06-0.074,0.076-0.115   l0.253,0.252c-0.028,0.043-0.054,0.078-0.079,0.108c-0.023,0.03-0.057,0.066-0.098,0.107c-0.077,0.077-0.148,0.127-0.215,0.153   c-0.067,0.024-0.132,0.031-0.195,0.018c-0.064-0.012-0.126-0.041-0.187-0.086c-0.06-0.044-0.123-0.098-0.186-0.161l-0.009,0.009   c0.025,0.135,0.042,0.26,0.048,0.377c0.006,0.117-0.004,0.231-0.031,0.342c-0.027,0.109-0.073,0.219-0.139,0.329   c-0.064,0.11-0.157,0.226-0.278,0.347c-0.114,0.114-0.236,0.207-0.363,0.281c-0.127,0.073-0.258,0.117-0.392,0.133   c-0.133,0.017-0.267,0.001-0.4-0.047c-0.134-0.049-0.263-0.133-0.387-0.258c-0.172-0.172-0.268-0.344-0.289-0.518   s0.006-0.349,0.081-0.525c0.075-0.176,0.181-0.354,0.317-0.531c0.137-0.18,0.277-0.359,0.42-0.54   c0.057-0.07,0.104-0.134,0.143-0.19c0.038-0.059,0.061-0.114,0.068-0.17c0.008-0.056,0.001-0.113-0.023-0.172   s-0.069-0.121-0.136-0.188c-0.103-0.104-0.202-0.17-0.301-0.201c-0.099-0.032-0.196-0.037-0.294-0.018   c-0.097,0.021-0.191,0.062-0.284,0.127c-0.092,0.062-0.183,0.141-0.272,0.229c-0.191,0.191-0.301,0.393-0.332,0.604   c-0.031,0.212,0.051,0.421,0.246,0.628l-0.301,0.301C129.799,154.365,129.705,154.209,129.651,154.054z M131.89,153.286   c0.016,0.055,0.004,0.116-0.033,0.186c-0.038,0.071-0.075,0.13-0.11,0.178c-0.105,0.149-0.217,0.301-0.334,0.453   c-0.118,0.152-0.215,0.303-0.292,0.449c-0.076,0.146-0.117,0.287-0.124,0.424s0.051,0.266,0.172,0.387   c0.077,0.077,0.159,0.129,0.248,0.158c0.089,0.028,0.181,0.039,0.274,0.031s0.186-0.035,0.275-0.079   c0.089-0.045,0.168-0.103,0.238-0.172c0.115-0.114,0.207-0.242,0.277-0.382c0.07-0.141,0.111-0.282,0.122-0.428   c0.01-0.145-0.008-0.287-0.057-0.429c-0.05-0.142-0.135-0.272-0.256-0.394l-0.392-0.392L131.89,153.286z"/>
	<path d="M131.98,150.961l0.425,0.425l0.009-0.009c-0.093-0.207-0.111-0.43-0.055-0.666c0.055-0.238,0.17-0.443,0.346-0.619   c0.172-0.172,0.338-0.293,0.498-0.365c0.162-0.071,0.317-0.102,0.469-0.09c0.15,0.011,0.299,0.061,0.446,0.15   c0.146,0.089,0.292,0.206,0.439,0.353l1.585,1.585l-0.301,0.301l-1.538-1.537c-0.104-0.105-0.212-0.193-0.322-0.266   c-0.109-0.07-0.222-0.115-0.336-0.135c-0.115-0.02-0.232-0.008-0.351,0.035c-0.119,0.043-0.239,0.125-0.36,0.246   c-0.121,0.121-0.207,0.25-0.258,0.387c-0.05,0.137-0.071,0.275-0.061,0.415c0.009,0.14,0.047,0.28,0.114,0.421   c0.067,0.139,0.159,0.271,0.277,0.395l1.437,1.438l-0.301,0.301l-2.463-2.463L131.98,150.961z"/>
	<path d="M136.381,150.475l0.401-0.401l0.506,0.507l-0.401,0.4L136.381,150.475z"/>
	<path d="M139.25,148.618c-0.163-0.168-0.281-0.344-0.354-0.524c-0.073-0.181-0.116-0.368-0.128-0.56   c-0.013-0.189-0.006-0.383,0.021-0.579c0.027-0.195,0.061-0.392,0.101-0.587c0.04-0.195,0.076-0.393,0.112-0.59   c0.034-0.197,0.053-0.388,0.052-0.572c0-0.185-0.025-0.348-0.076-0.492c-0.051-0.143-0.144-0.281-0.277-0.415   c-0.108-0.108-0.224-0.185-0.349-0.229c-0.124-0.044-0.25-0.062-0.377-0.053s-0.251,0.044-0.373,0.104s-0.232,0.142-0.334,0.244   c-0.137,0.137-0.229,0.279-0.274,0.427c-0.047,0.148-0.057,0.296-0.032,0.442c0.026,0.146,0.081,0.289,0.165,0.426   c0.084,0.139,0.19,0.27,0.317,0.389l-0.301,0.301c-0.175-0.168-0.313-0.346-0.415-0.533c-0.102-0.188-0.161-0.379-0.177-0.573   c-0.016-0.194,0.014-0.389,0.09-0.583c0.076-0.193,0.205-0.381,0.386-0.562c0.146-0.146,0.303-0.263,0.468-0.348   c0.165-0.086,0.333-0.138,0.506-0.154c0.172-0.016,0.343,0.01,0.513,0.074c0.171,0.066,0.334,0.176,0.49,0.332   c0.14,0.141,0.244,0.291,0.312,0.451c0.068,0.161,0.111,0.328,0.128,0.502c0.018,0.172,0.017,0.35-0.002,0.531   s-0.049,0.363-0.091,0.545c-0.025,0.133-0.059,0.287-0.103,0.46c-0.042,0.174-0.075,0.351-0.095,0.53   c-0.021,0.18-0.023,0.354-0.005,0.524c0.018,0.17,0.072,0.321,0.164,0.451l1.857-1.856l0.277,0.277L139.25,148.618z"/>
	<path d="M140.443,141.005c0.258-0.045,0.512-0.026,0.761,0.056c0.25,0.08,0.492,0.208,0.725,0.381   c0.234,0.174,0.448,0.357,0.642,0.551c0.197,0.197,0.383,0.414,0.556,0.647c0.173,0.233,0.301,0.476,0.382,0.726   c0.082,0.25,0.099,0.502,0.053,0.759s-0.191,0.507-0.437,0.752c-0.242,0.241-0.492,0.386-0.75,0.435   c-0.258,0.047-0.512,0.031-0.761-0.051c-0.25-0.08-0.492-0.209-0.726-0.382c-0.233-0.173-0.448-0.357-0.642-0.552   c-0.197-0.196-0.383-0.412-0.556-0.646c-0.173-0.233-0.301-0.476-0.381-0.725c-0.082-0.25-0.099-0.505-0.053-0.764   c0.046-0.26,0.19-0.511,0.432-0.752C139.934,141.194,140.185,141.049,140.443,141.005z M139.632,142.299   c-0.016,0.213,0.019,0.422,0.107,0.627c0.087,0.205,0.207,0.403,0.36,0.594c0.154,0.191,0.301,0.358,0.444,0.502   c0.146,0.146,0.315,0.295,0.503,0.446c0.189,0.151,0.387,0.271,0.594,0.36s0.417,0.125,0.63,0.109   c0.213-0.016,0.415-0.119,0.606-0.311c0.191-0.19,0.294-0.393,0.31-0.605c0.016-0.213-0.02-0.424-0.11-0.631   c-0.089-0.207-0.208-0.404-0.36-0.594c-0.15-0.189-0.3-0.357-0.446-0.504c-0.143-0.143-0.31-0.291-0.501-0.443   c-0.19-0.153-0.388-0.273-0.594-0.36c-0.205-0.088-0.414-0.123-0.627-0.106c-0.213,0.016-0.416,0.118-0.606,0.309   C139.75,141.883,139.647,142.086,139.632,142.299z"/>
	<path d="M142.486,139.946c0.096-0.117,0.162-0.236,0.198-0.355c0.036-0.119,0.039-0.248,0.007-0.384   c-0.032-0.138-0.113-0.294-0.243-0.468l0.244-0.244l3.341,3.342l-0.301,0.301l-2.482-2.482l-0.883,0.883l-0.215-0.215   C142.279,140.189,142.39,140.064,142.486,139.946z"/>
	<path d="M147.211,140.657c-0.163-0.169-0.281-0.344-0.354-0.525c-0.073-0.181-0.116-0.367-0.129-0.559   c-0.013-0.189-0.005-0.384,0.021-0.579c0.028-0.196,0.062-0.392,0.102-0.587c0.04-0.195,0.076-0.393,0.111-0.59   c0.035-0.197,0.053-0.388,0.052-0.572c0.001-0.186-0.025-0.349-0.076-0.492c-0.051-0.143-0.144-0.281-0.277-0.415   c-0.108-0.108-0.224-0.185-0.348-0.229c-0.124-0.044-0.25-0.062-0.377-0.053c-0.127,0.01-0.251,0.045-0.373,0.105   s-0.232,0.142-0.334,0.243c-0.137,0.138-0.229,0.279-0.274,0.428c-0.046,0.147-0.057,0.295-0.031,0.441   c0.026,0.147,0.081,0.29,0.165,0.427c0.084,0.139,0.19,0.27,0.317,0.389l-0.3,0.301c-0.176-0.168-0.314-0.346-0.415-0.533   c-0.102-0.188-0.161-0.379-0.177-0.573s0.014-0.389,0.09-0.583c0.077-0.193,0.206-0.382,0.387-0.562   c0.146-0.146,0.302-0.263,0.468-0.349c0.165-0.086,0.333-0.138,0.505-0.153s0.343,0.01,0.513,0.074   c0.17,0.066,0.333,0.176,0.489,0.332c0.14,0.141,0.245,0.291,0.313,0.451s0.111,0.328,0.128,0.501   c0.018,0.173,0.017,0.351-0.002,0.532c-0.02,0.182-0.049,0.363-0.091,0.544c-0.026,0.134-0.059,0.288-0.103,0.46   c-0.042,0.175-0.075,0.351-0.095,0.531c-0.021,0.18-0.023,0.354-0.005,0.524c0.018,0.17,0.073,0.321,0.165,0.45l1.857-1.856   l0.277,0.277L147.211,140.657z"/>
</g>
<g>
	<path d="M247.18,153.419l2.459,2.459c0.174,0.175,0.308,0.344,0.399,0.506c0.093,0.162,0.142,0.324,0.146,0.484   c0.005,0.16-0.035,0.324-0.119,0.492c-0.084,0.166-0.219,0.342-0.403,0.527c-0.194,0.193-0.386,0.32-0.575,0.379   c-0.189,0.06-0.372,0.07-0.549,0.033s-0.348-0.112-0.514-0.227c-0.165-0.115-0.322-0.246-0.472-0.396l0.325-0.324   c0.075,0.07,0.168,0.152,0.275,0.248c0.109,0.096,0.229,0.17,0.359,0.225c0.13,0.055,0.271,0.07,0.424,0.047   c0.154-0.021,0.314-0.117,0.482-0.285c0.127-0.128,0.216-0.25,0.266-0.366c0.049-0.116,0.062-0.233,0.037-0.353   c-0.023-0.12-0.082-0.244-0.174-0.375c-0.093-0.131-0.217-0.273-0.373-0.43l-2.318-2.319L247.18,153.419z"/>
	<path d="M249.199,154.054c-0.054-0.155-0.071-0.311-0.05-0.465c0.021-0.154,0.074-0.307,0.16-0.455   c0.086-0.15,0.2-0.297,0.344-0.439c0.107-0.108,0.227-0.206,0.355-0.293c0.129-0.088,0.264-0.146,0.408-0.175   c0.143-0.028,0.293-0.019,0.45,0.03c0.157,0.05,0.319,0.158,0.484,0.322l1.308,1.309c0.121,0.121,0.241,0.123,0.359,0.005   c0.035-0.035,0.06-0.073,0.076-0.115l0.252,0.253c-0.027,0.042-0.054,0.078-0.078,0.107c-0.023,0.03-0.057,0.066-0.098,0.107   c-0.077,0.076-0.148,0.127-0.215,0.153c-0.067,0.024-0.133,0.03-0.195,0.019c-0.064-0.012-0.127-0.041-0.188-0.086   c-0.06-0.045-0.122-0.098-0.186-0.162l-0.01,0.01c0.025,0.133,0.042,0.26,0.049,0.377c0.006,0.117-0.005,0.23-0.031,0.341   c-0.027,0.11-0.074,0.22-0.14,0.329c-0.064,0.111-0.157,0.226-0.278,0.347c-0.115,0.114-0.236,0.208-0.363,0.281   s-0.258,0.118-0.391,0.134c-0.135,0.016-0.268,0-0.401-0.047c-0.134-0.049-0.263-0.135-0.387-0.258   c-0.172-0.172-0.269-0.345-0.288-0.519c-0.021-0.173,0.006-0.349,0.08-0.525c0.075-0.177,0.182-0.354,0.317-0.532   c0.138-0.178,0.277-0.357,0.421-0.539c0.057-0.07,0.104-0.133,0.143-0.191c0.039-0.057,0.062-0.113,0.068-0.169   c0.009-0.056,0.002-0.112-0.022-0.171c-0.024-0.06-0.069-0.122-0.137-0.189c-0.103-0.102-0.202-0.169-0.3-0.2   c-0.1-0.032-0.197-0.037-0.295-0.017c-0.096,0.021-0.191,0.062-0.283,0.127c-0.092,0.062-0.184,0.14-0.271,0.229   c-0.191,0.191-0.302,0.393-0.332,0.604c-0.031,0.212,0.051,0.421,0.246,0.628l-0.301,0.301   C249.346,154.365,249.252,154.21,249.199,154.054z M251.438,153.287c0.016,0.055,0.004,0.115-0.033,0.186   c-0.039,0.07-0.075,0.129-0.11,0.178c-0.105,0.148-0.217,0.301-0.335,0.452c-0.117,0.153-0.214,0.304-0.291,0.449   c-0.076,0.146-0.117,0.288-0.123,0.425c-0.008,0.137,0.051,0.266,0.171,0.387c0.077,0.076,0.159,0.129,0.249,0.157   c0.088,0.028,0.18,0.039,0.273,0.031c0.094-0.009,0.186-0.034,0.275-0.079c0.089-0.045,0.168-0.102,0.238-0.172   c0.114-0.115,0.207-0.242,0.277-0.382s0.109-0.282,0.121-0.427c0.011-0.145-0.008-0.287-0.057-0.43   c-0.051-0.142-0.135-0.272-0.256-0.393l-0.392-0.393L251.438,153.287z"/>
	<path d="M251.528,150.961l0.426,0.425l0.01-0.009c-0.094-0.207-0.111-0.429-0.055-0.666c0.055-0.237,0.17-0.442,0.346-0.618   c0.172-0.172,0.338-0.294,0.498-0.365c0.161-0.072,0.316-0.102,0.469-0.091c0.15,0.011,0.299,0.062,0.445,0.151   c0.146,0.088,0.293,0.205,0.439,0.352l1.584,1.585l-0.301,0.301l-1.537-1.537c-0.104-0.104-0.211-0.192-0.322-0.265   c-0.109-0.071-0.221-0.116-0.336-0.136s-0.231-0.007-0.351,0.036s-0.239,0.125-0.36,0.246c-0.121,0.12-0.207,0.249-0.258,0.386   c-0.051,0.138-0.071,0.276-0.062,0.415c0.01,0.141,0.049,0.281,0.115,0.421s0.158,0.271,0.276,0.396l1.437,1.437l-0.301,0.301   l-2.463-2.463L251.528,150.961z"/>
	<path d="M255.928,150.475l0.401-0.401l0.506,0.506l-0.401,0.401L255.928,150.475z"/>
	<path d="M258.797,148.619c-0.162-0.169-0.28-0.344-0.354-0.525c-0.072-0.181-0.115-0.367-0.129-0.559   c-0.013-0.189-0.006-0.384,0.021-0.58c0.027-0.195,0.061-0.391,0.101-0.586s0.077-0.393,0.112-0.59   c0.034-0.197,0.053-0.389,0.053-0.573s-0.025-0.348-0.076-0.491c-0.053-0.144-0.145-0.282-0.277-0.416   c-0.108-0.107-0.225-0.184-0.349-0.229s-0.25-0.062-0.377-0.053c-0.128,0.01-0.251,0.045-0.372,0.105s-0.232,0.141-0.335,0.242   c-0.137,0.137-0.228,0.28-0.274,0.428c-0.046,0.148-0.057,0.296-0.031,0.441c0.026,0.146,0.082,0.29,0.166,0.428   c0.084,0.139,0.189,0.269,0.316,0.389l-0.301,0.301c-0.175-0.168-0.312-0.347-0.414-0.534c-0.103-0.188-0.162-0.379-0.178-0.573   c-0.016-0.193,0.015-0.389,0.092-0.582c0.076-0.193,0.205-0.382,0.386-0.562c0.146-0.146,0.303-0.264,0.468-0.349   c0.166-0.086,0.334-0.138,0.506-0.153s0.344,0.009,0.514,0.074c0.17,0.064,0.333,0.176,0.489,0.332   c0.14,0.14,0.243,0.29,0.312,0.451c0.068,0.16,0.111,0.328,0.128,0.501c0.018,0.173,0.018,0.351-0.002,0.532   c-0.019,0.182-0.049,0.362-0.09,0.544c-0.025,0.133-0.061,0.287-0.104,0.46c-0.042,0.174-0.074,0.351-0.095,0.531   c-0.021,0.179-0.022,0.354-0.005,0.523s0.072,0.321,0.164,0.451l1.857-1.856l0.276,0.276L258.797,148.619z"/>
	<path d="M259.991,141.005c0.258-0.045,0.512-0.026,0.762,0.056c0.249,0.081,0.491,0.208,0.725,0.382   c0.234,0.173,0.447,0.356,0.642,0.551c0.198,0.197,0.384,0.413,0.556,0.646c0.174,0.234,0.302,0.477,0.383,0.726   c0.082,0.25,0.1,0.503,0.053,0.759c-0.047,0.257-0.191,0.507-0.438,0.752c-0.241,0.242-0.49,0.387-0.748,0.435   s-0.512,0.031-0.762-0.051c-0.25-0.081-0.492-0.208-0.727-0.382c-0.232-0.173-0.447-0.357-0.642-0.551   c-0.196-0.197-0.382-0.413-0.556-0.646c-0.173-0.234-0.301-0.477-0.381-0.726c-0.082-0.25-0.1-0.505-0.053-0.764   c0.045-0.26,0.189-0.511,0.432-0.752C259.481,141.195,259.733,141.05,259.991,141.005z M259.18,142.299   c-0.017,0.214,0.019,0.423,0.106,0.628c0.087,0.205,0.207,0.402,0.36,0.594c0.152,0.19,0.301,0.357,0.443,0.5   c0.146,0.146,0.315,0.297,0.504,0.447c0.189,0.152,0.387,0.271,0.594,0.36c0.207,0.09,0.417,0.126,0.631,0.11   c0.213-0.016,0.414-0.12,0.605-0.311c0.191-0.191,0.295-0.393,0.311-0.605c0.016-0.215-0.02-0.424-0.109-0.631   s-0.209-0.404-0.361-0.594c-0.15-0.189-0.3-0.357-0.446-0.504c-0.143-0.143-0.31-0.291-0.501-0.443   c-0.19-0.154-0.389-0.273-0.594-0.361s-0.414-0.123-0.627-0.106c-0.214,0.015-0.416,0.118-0.607,0.31   C259.297,141.883,259.195,142.085,259.18,142.299z"/>
	<path d="M262.034,139.947c0.096-0.118,0.162-0.236,0.198-0.355s0.038-0.248,0.007-0.385s-0.113-0.293-0.244-0.468l0.244-0.243   l3.341,3.34l-0.301,0.301l-2.481-2.48l-0.883,0.883l-0.215-0.215C261.827,140.189,261.938,140.064,262.034,139.947z"/>
	<path d="M266.388,139.625c0.146,0.071,0.292,0.109,0.44,0.114c0.146,0.004,0.296-0.024,0.445-0.089   c0.148-0.063,0.291-0.162,0.424-0.296c0.111-0.111,0.203-0.233,0.273-0.368c0.069-0.133,0.112-0.271,0.129-0.414   c0.016-0.143,0.002-0.285-0.043-0.425s-0.125-0.269-0.244-0.387c-0.121-0.121-0.245-0.204-0.375-0.251   c-0.128-0.045-0.258-0.062-0.391-0.048c-0.133,0.015-0.261,0.056-0.387,0.124c-0.125,0.069-0.244,0.158-0.355,0.27l-0.253,0.254   l-0.253-0.254l0.253-0.252c0.077-0.077,0.144-0.168,0.2-0.272c0.057-0.105,0.094-0.216,0.11-0.329   c0.015-0.115,0.005-0.231-0.028-0.349c-0.036-0.118-0.105-0.229-0.211-0.334c-0.111-0.111-0.225-0.187-0.342-0.227   c-0.115-0.04-0.233-0.054-0.353-0.038c-0.12,0.014-0.234,0.053-0.347,0.116c-0.111,0.064-0.218,0.146-0.32,0.248   c-0.123,0.124-0.213,0.255-0.267,0.392s-0.076,0.275-0.065,0.416c0.008,0.14,0.049,0.277,0.121,0.412   c0.07,0.136,0.17,0.264,0.298,0.385l-0.301,0.301c-0.159-0.159-0.28-0.33-0.364-0.514c-0.086-0.183-0.131-0.368-0.137-0.556   c-0.006-0.188,0.028-0.374,0.103-0.562c0.075-0.186,0.193-0.359,0.355-0.521c0.13-0.131,0.274-0.242,0.433-0.332   c0.157-0.092,0.318-0.15,0.484-0.18c0.165-0.027,0.33-0.019,0.496,0.029c0.165,0.047,0.322,0.146,0.472,0.295   c0.182,0.182,0.292,0.388,0.328,0.619c0.036,0.23-0.015,0.459-0.151,0.685l0.01,0.01c0.255-0.185,0.516-0.263,0.783-0.233   c0.268,0.027,0.51,0.151,0.73,0.371c0.166,0.166,0.279,0.343,0.344,0.53c0.063,0.188,0.086,0.377,0.066,0.568   c-0.02,0.19-0.077,0.378-0.174,0.561c-0.098,0.184-0.223,0.351-0.375,0.503c-0.172,0.172-0.355,0.305-0.551,0.398   c-0.195,0.095-0.394,0.145-0.592,0.153c-0.199,0.009-0.395-0.031-0.588-0.119c-0.191-0.088-0.373-0.229-0.541-0.423l0.301-0.301   C266.108,139.447,266.243,139.552,266.388,139.625z"/>
</g>
<g>
	<path d="M157.284,153.581l4.744,2.072l-0.349,0.348l-1.475-0.645l-1.551,1.552l0.649,1.47l-0.344,0.344l-2.038-4.777   L157.284,153.581z M159.818,155.19l-2.406-1.089l1.064,2.43L159.818,155.19z"/>
	<path d="M160.094,152.66l0.468,0.468l0.01-0.01c-0.102-0.241-0.121-0.487-0.057-0.739c0.063-0.251,0.196-0.478,0.396-0.677   c0.188-0.188,0.386-0.318,0.594-0.385c0.208-0.069,0.418-0.09,0.63-0.062c0.211,0.027,0.417,0.097,0.62,0.209   c0.202,0.113,0.391,0.258,0.565,0.433c0.176,0.175,0.319,0.364,0.432,0.565c0.113,0.203,0.184,0.41,0.211,0.62   c0.026,0.212,0.005,0.421-0.065,0.628c-0.069,0.207-0.198,0.404-0.386,0.593c-0.09,0.089-0.189,0.167-0.301,0.233   s-0.227,0.116-0.349,0.148c-0.121,0.031-0.244,0.043-0.37,0.035c-0.125-0.008-0.249-0.04-0.37-0.098l-0.01,0.01l1.375,1.375   l-0.301,0.301l-3.37-3.371L160.094,152.66z M162.595,151.862c-0.156-0.095-0.315-0.158-0.479-0.192   c-0.164-0.033-0.328-0.03-0.492,0.009c-0.164,0.041-0.318,0.132-0.461,0.275c-0.165,0.165-0.274,0.333-0.329,0.501   c-0.054,0.169-0.066,0.334-0.038,0.496s0.093,0.321,0.194,0.476c0.1,0.154,0.22,0.301,0.36,0.441   c0.127,0.127,0.269,0.238,0.425,0.334c0.155,0.096,0.317,0.158,0.484,0.189c0.167,0.029,0.336,0.021,0.508-0.027   c0.17-0.048,0.336-0.151,0.496-0.311c0.144-0.143,0.235-0.297,0.275-0.461c0.04-0.163,0.042-0.327,0.01-0.49   c-0.034-0.164-0.099-0.324-0.194-0.48s-0.206-0.297-0.334-0.425C162.893,152.069,162.751,151.958,162.595,151.862z"/>
	<path d="M162.833,149.921l0.578,0.578l0.01-0.01c-0.124-0.277-0.16-0.551-0.107-0.82c0.052-0.268,0.194-0.509,0.427-0.723   l0.301,0.301c-0.143,0.131-0.248,0.273-0.316,0.428c-0.069,0.154-0.104,0.312-0.105,0.473c-0.002,0.16,0.029,0.317,0.095,0.473   c0.065,0.154,0.163,0.297,0.294,0.427l1.312,1.313l-0.301,0.301l-2.463-2.464L162.833,149.921z"/>
	<path d="M166.194,150.474l0.4-0.4l0.507,0.506l-0.401,0.401L166.194,150.474z"/>
	<path d="M169.063,148.618c-0.163-0.17-0.28-0.344-0.354-0.525s-0.116-0.367-0.129-0.559c-0.014-0.19-0.006-0.385,0.021-0.58   s0.061-0.391,0.101-0.586c0.04-0.196,0.076-0.393,0.112-0.59c0.034-0.197,0.053-0.389,0.053-0.573s-0.025-0.348-0.077-0.491   s-0.144-0.282-0.276-0.416c-0.108-0.107-0.225-0.184-0.349-0.229s-0.25-0.062-0.377-0.053c-0.128,0.01-0.251,0.045-0.373,0.105   c-0.121,0.061-0.231,0.141-0.334,0.242c-0.137,0.137-0.229,0.279-0.274,0.428s-0.057,0.296-0.031,0.441   c0.026,0.146,0.081,0.289,0.166,0.428c0.084,0.138,0.189,0.268,0.316,0.389l-0.301,0.301c-0.176-0.169-0.313-0.348-0.414-0.534   c-0.103-0.188-0.162-0.379-0.178-0.573c-0.016-0.193,0.015-0.389,0.091-0.582s0.205-0.383,0.386-0.563   c0.146-0.146,0.303-0.263,0.469-0.348c0.165-0.087,0.334-0.138,0.506-0.153s0.344,0.009,0.513,0.074   c0.171,0.064,0.334,0.176,0.49,0.332c0.14,0.14,0.243,0.29,0.312,0.451c0.067,0.16,0.11,0.327,0.128,0.501   c0.018,0.173,0.018,0.351-0.002,0.532c-0.02,0.181-0.049,0.362-0.09,0.544c-0.025,0.133-0.061,0.287-0.104,0.46   c-0.043,0.174-0.075,0.35-0.096,0.53c-0.02,0.18-0.021,0.354-0.004,0.524s0.072,0.321,0.164,0.451l1.857-1.856l0.276,0.276   L169.063,148.618z"/>
	<path d="M170.256,141.005c0.258-0.045,0.512-0.026,0.761,0.055s0.491,0.209,0.726,0.382c0.233,0.173,0.447,0.357,0.642,0.552   c0.198,0.197,0.384,0.413,0.556,0.646c0.174,0.234,0.302,0.477,0.383,0.726s0.1,0.503,0.053,0.759   c-0.047,0.257-0.191,0.507-0.438,0.752c-0.241,0.242-0.49,0.387-0.748,0.435s-0.513,0.03-0.762-0.051   c-0.25-0.081-0.492-0.208-0.727-0.382c-0.232-0.173-0.447-0.357-0.642-0.551c-0.196-0.197-0.383-0.414-0.556-0.647   c-0.174-0.233-0.301-0.476-0.382-0.726c-0.081-0.249-0.099-0.504-0.052-0.763c0.045-0.261,0.189-0.511,0.431-0.753   C169.747,141.194,169.998,141.05,170.256,141.005z M169.445,142.298c-0.017,0.214,0.02,0.424,0.106,0.628   c0.088,0.206,0.208,0.403,0.361,0.595c0.152,0.19,0.301,0.357,0.443,0.5c0.146,0.146,0.314,0.296,0.504,0.447   s0.387,0.271,0.594,0.359c0.207,0.09,0.417,0.127,0.631,0.11c0.213-0.015,0.414-0.119,0.605-0.31   c0.191-0.191,0.295-0.393,0.311-0.606s-0.021-0.423-0.11-0.63c-0.089-0.207-0.208-0.405-0.36-0.594   c-0.15-0.189-0.3-0.357-0.446-0.504c-0.144-0.144-0.31-0.291-0.501-0.443c-0.19-0.154-0.389-0.273-0.594-0.361   s-0.414-0.123-0.628-0.107c-0.213,0.016-0.415,0.119-0.606,0.311C169.563,141.883,169.46,142.085,169.445,142.298z"/>
	<path d="M172.299,139.945c0.096-0.117,0.161-0.235,0.197-0.355c0.037-0.119,0.039-0.247,0.008-0.384s-0.113-0.293-0.244-0.468   l0.244-0.243l3.341,3.34l-0.301,0.301l-2.481-2.481l-0.883,0.883l-0.215-0.215C172.092,140.188,172.204,140.063,172.299,139.945z"/>
	<path d="M177.024,140.657c-0.162-0.17-0.28-0.344-0.354-0.525c-0.072-0.182-0.116-0.367-0.129-0.559s-0.006-0.385,0.021-0.58   s0.062-0.391,0.102-0.587c0.039-0.196,0.076-0.393,0.111-0.589c0.035-0.198,0.053-0.389,0.053-0.573s-0.025-0.349-0.076-0.492   c-0.052-0.144-0.145-0.281-0.277-0.415c-0.108-0.107-0.225-0.184-0.348-0.229c-0.125-0.045-0.25-0.062-0.377-0.053   c-0.129,0.009-0.252,0.045-0.373,0.104c-0.121,0.061-0.232,0.142-0.334,0.243c-0.138,0.137-0.229,0.279-0.275,0.428   c-0.045,0.148-0.056,0.295-0.031,0.441c0.026,0.146,0.081,0.289,0.166,0.428c0.084,0.138,0.189,0.268,0.316,0.389l-0.301,0.3   c-0.176-0.168-0.313-0.347-0.414-0.533c-0.102-0.188-0.161-0.38-0.178-0.573c-0.016-0.193,0.015-0.389,0.091-0.582   c0.077-0.194,0.206-0.383,0.387-0.564c0.146-0.146,0.302-0.262,0.469-0.348c0.165-0.086,0.333-0.137,0.505-0.152   s0.344,0.009,0.514,0.073c0.17,0.065,0.333,0.177,0.489,0.333c0.14,0.14,0.244,0.289,0.313,0.45   c0.067,0.161,0.11,0.327,0.128,0.501s0.017,0.352-0.002,0.533c-0.021,0.181-0.05,0.362-0.091,0.543   c-0.025,0.134-0.06,0.287-0.104,0.461c-0.043,0.174-0.074,0.35-0.095,0.529s-0.022,0.355-0.005,0.525s0.072,0.32,0.164,0.451   l1.857-1.857l0.277,0.277L177.024,140.657z"/>
</g>
<g>
	<path d="M14.627,106.313c0.15-0.016,0.281-0.053,0.392-0.111c0.11-0.059,0.202-0.147,0.276-0.267s0.127-0.287,0.159-0.503h0.344   v4.725h-0.425v-3.51h-1.249v-0.304C14.309,106.339,14.476,106.329,14.627,106.313z"/>
	<path d="M19.939,105.618c0.214,0.151,0.38,0.343,0.5,0.577c0.119,0.234,0.2,0.495,0.243,0.783c0.042,0.288,0.064,0.569,0.064,0.844   c0,0.279-0.021,0.562-0.064,0.851c-0.043,0.288-0.124,0.549-0.243,0.783c-0.119,0.234-0.286,0.425-0.5,0.574   s-0.494,0.223-0.84,0.223c-0.342,0-0.621-0.075-0.837-0.223s-0.384-0.339-0.503-0.574c-0.119-0.234-0.2-0.495-0.243-0.783   c-0.042-0.288-0.064-0.569-0.064-0.844c0-0.279,0.021-0.562,0.064-0.851c0.043-0.288,0.124-0.549,0.243-0.783   c0.119-0.234,0.287-0.426,0.503-0.577c0.216-0.15,0.495-0.226,0.837-0.226C19.445,105.392,19.725,105.467,19.939,105.618z    M18.451,105.958c-0.162,0.14-0.285,0.313-0.368,0.52c-0.083,0.207-0.139,0.432-0.166,0.675c-0.027,0.243-0.041,0.466-0.041,0.668   c0,0.207,0.014,0.431,0.041,0.671c0.027,0.241,0.082,0.466,0.166,0.675c0.083,0.209,0.206,0.384,0.368,0.523   c0.162,0.14,0.378,0.209,0.648,0.209s0.486-0.07,0.648-0.209c0.162-0.139,0.285-0.314,0.368-0.523   c0.083-0.209,0.138-0.434,0.165-0.675c0.027-0.241,0.041-0.464,0.041-0.671c0-0.203-0.013-0.425-0.041-0.668   c-0.027-0.243-0.082-0.468-0.165-0.675c-0.083-0.207-0.206-0.38-0.368-0.52c-0.162-0.139-0.378-0.209-0.648-0.209   S18.613,105.819,18.451,105.958z"/>
</g>
<g>
	<path d="M14.627,85.386c0.15-0.016,0.281-0.053,0.392-0.111c0.11-0.059,0.202-0.147,0.276-0.267s0.127-0.287,0.159-0.503h0.344   v4.725h-0.425v-3.51h-1.249v-0.304C14.309,85.412,14.476,85.402,14.627,85.386z"/>
	<path d="M17.465,89.23c0.004-0.234,0.045-0.441,0.121-0.621c0.077-0.18,0.178-0.342,0.304-0.486   c0.125-0.144,0.268-0.276,0.425-0.395c0.158-0.119,0.32-0.234,0.486-0.344s0.332-0.223,0.496-0.337   c0.164-0.115,0.312-0.237,0.442-0.368c0.131-0.131,0.229-0.265,0.294-0.402c0.065-0.137,0.098-0.3,0.098-0.489   c0-0.153-0.028-0.289-0.084-0.409c-0.056-0.119-0.133-0.22-0.229-0.304c-0.097-0.083-0.209-0.146-0.337-0.189   c-0.128-0.042-0.264-0.064-0.408-0.064c-0.194,0-0.359,0.036-0.496,0.108c-0.138,0.072-0.249,0.169-0.334,0.291   c-0.085,0.121-0.147,0.261-0.186,0.418c-0.038,0.157-0.055,0.324-0.05,0.5H17.58c-0.005-0.243,0.023-0.467,0.084-0.672   c0.061-0.205,0.154-0.381,0.28-0.53s0.285-0.264,0.476-0.348c0.191-0.083,0.415-0.125,0.671-0.125c0.207,0,0.399,0.028,0.577,0.084   s0.333,0.14,0.466,0.25c0.133,0.11,0.236,0.249,0.311,0.415s0.111,0.36,0.111,0.581c0,0.198-0.033,0.378-0.098,0.54   c-0.065,0.162-0.153,0.31-0.264,0.445c-0.11,0.135-0.236,0.26-0.378,0.375c-0.142,0.115-0.291,0.222-0.449,0.321   c-0.112,0.077-0.245,0.161-0.398,0.253c-0.153,0.092-0.3,0.195-0.442,0.307c-0.142,0.113-0.267,0.235-0.375,0.368   s-0.176,0.278-0.203,0.435h2.626v0.392H17.465z"/>
</g>
<g>
	<path d="M14.627,64.442c0.15-0.016,0.281-0.053,0.392-0.111c0.11-0.059,0.202-0.147,0.276-0.267s0.127-0.287,0.159-0.503h0.344   v4.725h-0.425v-3.51h-1.249v-0.304C14.309,64.468,14.476,64.458,14.627,64.442z"/>
	<path d="M19.612,63.562h0.385v3.193h0.708v0.358h-0.708v1.174h-0.392v-1.174h-2.18V66.7L19.612,63.562z M19.605,64.183h-0.014   l-1.782,2.572h1.795V64.183z"/>
</g>
<g>
	<path d="M0,90.411c0-0.335,0.049-0.62,0.146-0.855c0.098-0.235,0.227-0.426,0.387-0.574c0.16-0.147,0.342-0.255,0.547-0.322   c0.205-0.068,0.417-0.102,0.637-0.102c0.215,0,0.427,0.034,0.634,0.102c0.208,0.067,0.392,0.175,0.551,0.322   c0.16,0.147,0.289,0.339,0.386,0.574c0.098,0.235,0.146,0.52,0.146,0.855v1.238h1.92v1.177H0V90.411z M2.52,90.734   c0-0.135-0.01-0.265-0.03-0.39c-0.02-0.125-0.059-0.235-0.116-0.33c-0.057-0.095-0.139-0.171-0.244-0.229s-0.242-0.086-0.413-0.086   c-0.17,0-0.307,0.029-0.412,0.086s-0.187,0.134-0.244,0.229c-0.057,0.095-0.096,0.205-0.116,0.33c-0.02,0.125-0.03,0.255-0.03,0.39   v0.915H2.52V90.734z"/>
	<path d="M1.478,86.924h0.72v-0.015c-0.12-0.05-0.231-0.117-0.333-0.202s-0.19-0.183-0.263-0.293   c-0.072-0.11-0.128-0.227-0.168-0.352s-0.06-0.255-0.06-0.39c0-0.07,0.013-0.147,0.038-0.232H2.4c-0.01,0.05-0.019,0.11-0.026,0.18   c-0.007,0.07-0.011,0.138-0.011,0.203c0,0.195,0.033,0.36,0.098,0.495c0.065,0.135,0.154,0.244,0.266,0.326   c0.113,0.083,0.244,0.141,0.394,0.176s0.312,0.052,0.487,0.052h1.748v1.065H1.478V86.924z"/>
	<path d="M0.877,84.989H0v-1.065h0.877V84.989z M1.478,83.924h3.877v1.065H1.478V83.924z"/>
	<path d="M2.175,81.231c0,0.17,0.039,0.312,0.116,0.427c0.078,0.115,0.178,0.209,0.3,0.281c0.123,0.073,0.257,0.124,0.405,0.154   s0.294,0.045,0.439,0.045c0.14,0,0.282-0.015,0.427-0.045s0.276-0.079,0.394-0.146c0.117-0.068,0.214-0.159,0.289-0.274   c0.075-0.115,0.113-0.255,0.113-0.42c0-0.255-0.071-0.451-0.214-0.589S4.11,80.441,3.87,80.406v-1.027   c0.515,0.07,0.907,0.27,1.177,0.6c0.27,0.33,0.405,0.752,0.405,1.267c0,0.29-0.049,0.557-0.146,0.799   c-0.098,0.243-0.233,0.449-0.409,0.619c-0.175,0.17-0.384,0.303-0.626,0.397c-0.242,0.095-0.508,0.143-0.798,0.143   c-0.3,0-0.579-0.043-0.836-0.131c-0.257-0.088-0.48-0.216-0.667-0.387c-0.188-0.17-0.334-0.377-0.439-0.622   c-0.105-0.245-0.157-0.525-0.157-0.84c0-0.23,0.03-0.451,0.09-0.664s0.151-0.402,0.274-0.57s0.275-0.304,0.458-0.409   s0.398-0.165,0.648-0.18v1.042C2.397,80.514,2.175,80.776,2.175,81.231z"/>
	<path d="M4.425,77.639c0.155-0.16,0.233-0.39,0.233-0.69c0-0.215-0.054-0.4-0.162-0.555c-0.107-0.155-0.221-0.25-0.341-0.285   v-0.938c0.465,0.15,0.798,0.38,0.998,0.69c0.2,0.31,0.3,0.685,0.3,1.125c0,0.305-0.049,0.58-0.146,0.825   c-0.098,0.245-0.236,0.453-0.416,0.623c-0.18,0.17-0.395,0.301-0.645,0.394c-0.25,0.093-0.525,0.139-0.825,0.139   c-0.29,0-0.56-0.048-0.81-0.143c-0.25-0.095-0.466-0.23-0.648-0.405c-0.183-0.175-0.327-0.383-0.432-0.626   s-0.157-0.511-0.157-0.806c0-0.33,0.063-0.618,0.191-0.863c0.127-0.245,0.299-0.446,0.514-0.604   c0.215-0.158,0.46-0.271,0.735-0.341c0.275-0.07,0.562-0.095,0.862-0.075v2.797C4.02,77.887,4.27,77.799,4.425,77.639z    M2.385,76.436c-0.14,0.127-0.21,0.321-0.21,0.581c0,0.17,0.029,0.311,0.086,0.424c0.058,0.112,0.129,0.203,0.214,0.27   s0.175,0.115,0.27,0.143C2.84,77.88,2.925,77.896,3,77.901v-1.732C2.73,76.219,2.525,76.308,2.385,76.436z"/>
	<path d="M1.478,71.377h0.495v-0.015c-0.21-0.13-0.363-0.295-0.458-0.495c-0.095-0.2-0.143-0.42-0.143-0.66   c0-0.305,0.058-0.567,0.172-0.788c0.115-0.22,0.268-0.402,0.458-0.547s0.411-0.252,0.664-0.323c0.253-0.07,0.517-0.105,0.792-0.105   c0.26,0,0.51,0.035,0.75,0.105c0.24,0.07,0.453,0.176,0.638,0.319c0.185,0.143,0.333,0.32,0.442,0.533   c0.11,0.212,0.165,0.461,0.165,0.746c0,0.24-0.049,0.461-0.146,0.664c-0.098,0.203-0.241,0.369-0.431,0.499v0.015h1.837v1.065   H1.478V71.377z M4.552,69.993c-0.07-0.117-0.161-0.212-0.273-0.285c-0.113-0.072-0.244-0.124-0.394-0.154   c-0.15-0.03-0.302-0.045-0.458-0.045c-0.155,0-0.307,0.017-0.457,0.049c-0.15,0.033-0.284,0.086-0.401,0.161   c-0.118,0.075-0.212,0.171-0.285,0.289c-0.072,0.117-0.109,0.261-0.109,0.431c0,0.175,0.037,0.321,0.109,0.439   c0.073,0.117,0.167,0.212,0.281,0.285c0.115,0.073,0.248,0.124,0.397,0.154c0.15,0.03,0.305,0.045,0.465,0.045   c0.155,0,0.308-0.016,0.458-0.049c0.15-0.032,0.281-0.085,0.394-0.157c0.112-0.072,0.204-0.169,0.273-0.289   c0.07-0.12,0.105-0.265,0.105-0.435C4.658,70.257,4.623,70.111,4.552,69.993z"/>
	<path d="M4.425,66.667c0.155-0.16,0.233-0.39,0.233-0.69c0-0.215-0.054-0.4-0.162-0.555c-0.107-0.155-0.221-0.25-0.341-0.285   v-0.938c0.465,0.15,0.798,0.38,0.998,0.69c0.2,0.31,0.3,0.685,0.3,1.125c0,0.305-0.049,0.58-0.146,0.825   c-0.098,0.245-0.236,0.453-0.416,0.623c-0.18,0.17-0.395,0.301-0.645,0.394c-0.25,0.093-0.525,0.139-0.825,0.139   c-0.29,0-0.56-0.048-0.81-0.143c-0.25-0.095-0.466-0.23-0.648-0.405c-0.183-0.175-0.327-0.383-0.432-0.626   s-0.157-0.511-0.157-0.806c0-0.33,0.063-0.618,0.191-0.863c0.127-0.245,0.299-0.446,0.514-0.604   c0.215-0.158,0.46-0.271,0.735-0.341c0.275-0.07,0.562-0.095,0.862-0.075v2.797C4.02,66.915,4.27,66.827,4.425,66.667z    M2.385,65.463c-0.14,0.127-0.21,0.321-0.21,0.581c0,0.17,0.029,0.311,0.086,0.424c0.058,0.112,0.129,0.203,0.214,0.27   s0.175,0.115,0.27,0.143C2.84,66.908,2.925,66.924,3,66.929v-1.732C2.73,65.247,2.525,65.335,2.385,65.463z"/>
	<path d="M1.478,62.49h0.72v-0.015c-0.12-0.05-0.231-0.117-0.333-0.202s-0.19-0.183-0.263-0.293   c-0.072-0.11-0.128-0.227-0.168-0.352s-0.06-0.255-0.06-0.39c0-0.07,0.013-0.147,0.038-0.232H2.4c-0.01,0.05-0.019,0.11-0.026,0.18   c-0.007,0.07-0.011,0.138-0.011,0.203c0,0.195,0.033,0.36,0.098,0.495c0.065,0.135,0.154,0.244,0.266,0.326   c0.113,0.083,0.244,0.141,0.394,0.176s0.312,0.052,0.487,0.052h1.748v1.065H1.478V62.49z"/>
	<path d="M4.391,57.604c0.083-0.047,0.15-0.109,0.203-0.184c0.052-0.075,0.091-0.162,0.116-0.259   c0.025-0.098,0.038-0.199,0.038-0.304c0-0.075-0.009-0.154-0.026-0.236s-0.045-0.158-0.083-0.225s-0.087-0.124-0.15-0.169   c-0.062-0.045-0.141-0.067-0.236-0.067c-0.16,0-0.28,0.106-0.36,0.319s-0.16,0.509-0.24,0.889   c-0.035,0.155-0.076,0.307-0.124,0.454c-0.047,0.148-0.11,0.279-0.188,0.394s-0.175,0.208-0.292,0.277   c-0.118,0.07-0.261,0.105-0.431,0.105c-0.25,0-0.455-0.049-0.615-0.146c-0.16-0.098-0.286-0.226-0.379-0.386   c-0.092-0.16-0.157-0.34-0.195-0.54c-0.038-0.2-0.056-0.405-0.056-0.615s0.02-0.414,0.06-0.611c0.04-0.197,0.107-0.374,0.202-0.528   c0.095-0.155,0.222-0.284,0.379-0.387C2.171,55.281,2.37,55.22,2.61,55.2v1.013c-0.205,0.015-0.344,0.092-0.416,0.232   c-0.073,0.14-0.109,0.305-0.109,0.495c0,0.06,0.004,0.125,0.011,0.195c0.007,0.07,0.024,0.134,0.049,0.191s0.061,0.106,0.109,0.146   c0.047,0.04,0.111,0.06,0.191,0.06c0.095,0,0.173-0.035,0.232-0.105c0.06-0.07,0.109-0.161,0.146-0.274   c0.038-0.112,0.071-0.241,0.101-0.386c0.03-0.145,0.063-0.292,0.098-0.442C3.058,56.17,3.1,56.019,3.15,55.871   c0.05-0.147,0.116-0.279,0.199-0.394c0.083-0.115,0.185-0.207,0.308-0.277c0.123-0.07,0.274-0.105,0.454-0.105   c0.255,0,0.469,0.051,0.642,0.154c0.172,0.103,0.311,0.236,0.416,0.401s0.179,0.354,0.221,0.566   c0.042,0.213,0.064,0.429,0.064,0.649c0,0.225-0.022,0.445-0.068,0.66c-0.045,0.215-0.12,0.406-0.225,0.574   s-0.244,0.305-0.417,0.413s-0.389,0.166-0.648,0.176v-1.013C4.21,57.675,4.309,57.651,4.391,57.604z"/>
	<path d="M0,53.407h2.018v-0.022c-0.225-0.135-0.389-0.307-0.491-0.517c-0.103-0.21-0.154-0.415-0.154-0.615   c0-0.285,0.039-0.519,0.116-0.701s0.185-0.326,0.322-0.431c0.138-0.105,0.305-0.179,0.503-0.221   c0.197-0.042,0.416-0.064,0.656-0.064h2.385V51.9h-2.19c-0.32,0-0.559,0.05-0.716,0.15c-0.158,0.1-0.236,0.278-0.236,0.533   c0,0.29,0.086,0.5,0.259,0.63s0.457,0.195,0.851,0.195h2.033v1.065H0V53.407z"/>
	<path d="M2.67,50.07c-0.25-0.015-0.458-0.078-0.623-0.188s-0.297-0.25-0.397-0.42s-0.171-0.361-0.214-0.574   c-0.042-0.213-0.063-0.426-0.063-0.642c0-0.195,0.014-0.393,0.041-0.592c0.028-0.2,0.082-0.383,0.162-0.547   c0.08-0.165,0.191-0.3,0.333-0.405s0.332-0.157,0.566-0.157h2.018c0.175,0,0.342-0.01,0.502-0.03s0.28-0.055,0.36-0.105v1.08   c-0.06,0.02-0.121,0.036-0.184,0.049c-0.062,0.012-0.126,0.021-0.191,0.026c0.175,0.17,0.297,0.37,0.368,0.6   c0.07,0.23,0.105,0.465,0.105,0.705c0,0.185-0.022,0.357-0.068,0.518c-0.045,0.16-0.115,0.3-0.21,0.42   c-0.095,0.12-0.215,0.214-0.36,0.281S4.498,50.19,4.297,50.19c-0.22,0-0.401-0.039-0.543-0.116c-0.143-0.077-0.256-0.177-0.341-0.3   s-0.149-0.263-0.191-0.42c-0.042-0.158-0.076-0.316-0.101-0.477c-0.025-0.16-0.045-0.317-0.06-0.472s-0.038-0.292-0.067-0.413   c-0.03-0.12-0.074-0.215-0.131-0.285c-0.058-0.07-0.141-0.102-0.251-0.097c-0.115,0-0.206,0.019-0.273,0.056   c-0.068,0.038-0.12,0.087-0.158,0.15s-0.062,0.135-0.075,0.217c-0.012,0.083-0.019,0.171-0.019,0.267   c0,0.21,0.045,0.375,0.135,0.495c0.09,0.12,0.24,0.19,0.45,0.21V50.07z M3.458,47.61c0.04,0.045,0.071,0.101,0.094,0.168   s0.041,0.14,0.056,0.218s0.028,0.159,0.038,0.244c0.01,0.085,0.022,0.17,0.038,0.255c0.015,0.08,0.035,0.159,0.06,0.236   c0.025,0.078,0.059,0.145,0.101,0.203s0.096,0.104,0.161,0.139s0.147,0.052,0.248,0.052c0.095,0,0.175-0.017,0.24-0.052   s0.116-0.083,0.153-0.143c0.038-0.06,0.064-0.13,0.079-0.21c0.015-0.08,0.022-0.163,0.022-0.248c0-0.21-0.035-0.373-0.105-0.487   c-0.07-0.115-0.154-0.2-0.251-0.255c-0.097-0.055-0.196-0.088-0.296-0.101c-0.1-0.012-0.18-0.019-0.24-0.019H3.458z"/>
	<path d="M1.478,44.708h0.72v-0.015c-0.12-0.05-0.231-0.117-0.333-0.202s-0.19-0.183-0.263-0.293   c-0.072-0.11-0.128-0.227-0.168-0.352s-0.06-0.255-0.06-0.39c0-0.07,0.013-0.147,0.038-0.232H2.4c-0.01,0.05-0.019,0.11-0.026,0.18   c-0.007,0.07-0.011,0.138-0.011,0.203c0,0.195,0.033,0.36,0.098,0.495c0.065,0.135,0.154,0.244,0.266,0.326   c0.113,0.083,0.244,0.141,0.394,0.176s0.312,0.052,0.487,0.052h1.748v1.065H1.478V44.708z"/>
	<path d="M4.425,41.663c0.155-0.16,0.233-0.39,0.233-0.69c0-0.215-0.054-0.4-0.162-0.555c-0.107-0.155-0.221-0.25-0.341-0.285   v-0.938c0.465,0.15,0.798,0.38,0.998,0.69c0.2,0.31,0.3,0.685,0.3,1.125c0,0.305-0.049,0.58-0.146,0.825   c-0.098,0.245-0.236,0.453-0.416,0.623c-0.18,0.17-0.395,0.301-0.645,0.394c-0.25,0.093-0.525,0.139-0.825,0.139   c-0.29,0-0.56-0.048-0.81-0.143c-0.25-0.095-0.466-0.23-0.648-0.405c-0.183-0.175-0.327-0.383-0.432-0.626   s-0.157-0.511-0.157-0.806c0-0.33,0.063-0.618,0.191-0.863c0.127-0.245,0.299-0.446,0.514-0.604   c0.215-0.158,0.46-0.271,0.735-0.341c0.275-0.07,0.562-0.095,0.862-0.075v2.797C4.02,41.911,4.27,41.823,4.425,41.663z    M2.385,40.459c-0.14,0.127-0.21,0.321-0.21,0.581c0,0.17,0.029,0.311,0.086,0.424c0.058,0.112,0.129,0.203,0.214,0.27   s0.175,0.115,0.27,0.143C2.84,41.904,2.925,41.92,3,41.925v-1.732C2.73,40.243,2.525,40.332,2.385,40.459z"/>
</g>
<g>
	<path d="M14.627,43.5c0.15-0.016,0.281-0.053,0.392-0.111c0.11-0.059,0.202-0.147,0.276-0.267s0.127-0.287,0.159-0.503h0.344v4.725   h-0.425v-3.51h-1.249V43.53C14.309,43.525,14.476,43.516,14.627,43.5z"/>
	<path d="M19.892,43.179c-0.173-0.162-0.397-0.243-0.671-0.243s-0.498,0.07-0.668,0.209c-0.171,0.14-0.304,0.315-0.398,0.527   c-0.095,0.211-0.158,0.44-0.189,0.685c-0.032,0.245-0.047,0.476-0.047,0.692h0.014c0.112-0.234,0.282-0.423,0.509-0.567   s0.476-0.216,0.746-0.216c0.238,0,0.453,0.04,0.645,0.118c0.191,0.079,0.354,0.188,0.489,0.328c0.135,0.139,0.24,0.306,0.314,0.5   c0.074,0.193,0.111,0.405,0.111,0.634s-0.04,0.442-0.118,0.638c-0.079,0.196-0.189,0.365-0.331,0.506   c-0.142,0.142-0.311,0.252-0.506,0.331c-0.196,0.079-0.411,0.118-0.645,0.118c-0.288,0-0.536-0.044-0.743-0.132   s-0.378-0.23-0.513-0.429c-0.135-0.198-0.235-0.456-0.301-0.773c-0.065-0.317-0.098-0.708-0.098-1.171   c0-0.095,0.005-0.218,0.017-0.371c0.011-0.153,0.037-0.316,0.077-0.49c0.041-0.173,0.098-0.349,0.172-0.526   s0.173-0.338,0.297-0.482c0.124-0.144,0.278-0.261,0.462-0.351c0.185-0.09,0.405-0.135,0.662-0.135   c0.423,0,0.758,0.102,1.006,0.304c0.247,0.203,0.396,0.513,0.445,0.932h-0.425C20.169,43.553,20.065,43.341,19.892,43.179z    M18.684,44.721c-0.146,0.065-0.27,0.154-0.371,0.267c-0.102,0.113-0.178,0.244-0.229,0.395c-0.052,0.151-0.078,0.314-0.078,0.489   c0,0.167,0.022,0.324,0.067,0.473s0.116,0.278,0.212,0.388s0.22,0.197,0.368,0.26s0.326,0.095,0.533,0.095   c0.171,0,0.325-0.033,0.462-0.098c0.137-0.065,0.256-0.153,0.357-0.263c0.102-0.11,0.179-0.24,0.233-0.388   c0.054-0.148,0.081-0.304,0.081-0.466c0-0.171-0.026-0.333-0.078-0.486s-0.126-0.286-0.223-0.398   c-0.097-0.112-0.216-0.201-0.358-0.267c-0.142-0.065-0.303-0.098-0.482-0.098C18.995,44.624,18.83,44.656,18.684,44.721z"/>
</g>
<g>
	<path d="M14.627,22.548c0.15-0.016,0.281-0.053,0.392-0.111c0.11-0.059,0.202-0.147,0.276-0.267s0.127-0.287,0.159-0.503h0.344   v4.725h-0.425v-3.51h-1.249v-0.304C14.309,22.574,14.476,22.564,14.627,22.548z"/>
	<path d="M20.327,23.466c-0.135,0.183-0.324,0.31-0.567,0.381v0.014c0.311,0.063,0.549,0.199,0.715,0.408   c0.167,0.209,0.25,0.476,0.25,0.8c0,0.239-0.043,0.447-0.128,0.625s-0.203,0.325-0.351,0.442c-0.148,0.117-0.32,0.205-0.516,0.263   c-0.196,0.058-0.406,0.088-0.631,0.088c-0.221,0-0.43-0.03-0.628-0.088c-0.198-0.059-0.371-0.146-0.52-0.263   c-0.148-0.117-0.266-0.265-0.351-0.442s-0.128-0.386-0.128-0.625c0.009-0.31,0.097-0.576,0.264-0.796   c0.166-0.22,0.398-0.357,0.695-0.412v-0.014c-0.247-0.076-0.438-0.204-0.57-0.381s-0.199-0.397-0.199-0.658   c0-0.202,0.042-0.378,0.125-0.526c0.083-0.148,0.192-0.271,0.328-0.368c0.135-0.097,0.288-0.169,0.459-0.216   c0.171-0.047,0.344-0.071,0.52-0.071c0.176,0,0.349,0.024,0.52,0.071c0.171,0.047,0.325,0.12,0.462,0.216   c0.137,0.097,0.247,0.219,0.331,0.368c0.083,0.148,0.125,0.324,0.125,0.526C20.53,23.064,20.462,23.284,20.327,23.466z    M19.568,26.071c0.146-0.042,0.273-0.108,0.381-0.196c0.108-0.087,0.193-0.199,0.256-0.334c0.063-0.135,0.095-0.292,0.095-0.473   c0-0.171-0.033-0.32-0.098-0.449c-0.065-0.128-0.153-0.236-0.263-0.324c-0.11-0.088-0.238-0.153-0.385-0.196   c-0.146-0.043-0.298-0.062-0.456-0.058c-0.162-0.004-0.316,0.014-0.462,0.054c-0.146,0.041-0.273,0.104-0.381,0.192   s-0.195,0.197-0.26,0.327c-0.065,0.131-0.098,0.281-0.098,0.452c0,0.176,0.032,0.331,0.095,0.466   c0.063,0.135,0.148,0.247,0.256,0.334c0.108,0.087,0.235,0.154,0.381,0.199c0.146,0.045,0.303,0.068,0.469,0.068   S19.421,26.114,19.568,26.071z M19.477,23.642c0.122-0.034,0.229-0.087,0.321-0.159s0.167-0.164,0.223-0.277   c0.056-0.112,0.084-0.245,0.084-0.398c0-0.135-0.026-0.254-0.078-0.357s-0.123-0.189-0.213-0.257   c-0.09-0.067-0.195-0.119-0.317-0.155c-0.122-0.036-0.254-0.054-0.398-0.054c-0.13,0-0.256,0.018-0.378,0.054   c-0.122,0.036-0.229,0.087-0.324,0.155c-0.094,0.068-0.17,0.153-0.226,0.257s-0.084,0.223-0.084,0.357   c0,0.158,0.029,0.293,0.088,0.405s0.135,0.205,0.229,0.277c0.095,0.072,0.203,0.124,0.324,0.155   c0.122,0.031,0.245,0.045,0.371,0.041C19.229,23.69,19.355,23.675,19.477,23.642z"/>
</g>
<g>
	<path d="M10.631,4.816c0.191,0.209,0.465,0.334,0.82,0.375V3.193c-0.189-0.041-0.37-0.089-0.543-0.145   c-0.173-0.057-0.324-0.135-0.452-0.236c-0.128-0.102-0.231-0.229-0.307-0.385c-0.077-0.155-0.115-0.35-0.115-0.584   c0-0.203,0.037-0.385,0.111-0.547s0.175-0.3,0.304-0.415s0.279-0.203,0.452-0.263s0.356-0.091,0.55-0.091V0h0.263v0.526   c0.198,0,0.383,0.035,0.557,0.105S12.597,0.8,12.73,0.928c0.133,0.128,0.236,0.282,0.311,0.462c0.074,0.18,0.109,0.38,0.105,0.601   H12.72c-0.005-0.337-0.099-0.606-0.284-0.807s-0.425-0.3-0.722-0.3v1.944c0.193,0.041,0.383,0.09,0.57,0.148   c0.187,0.059,0.353,0.14,0.5,0.243c0.146,0.104,0.264,0.233,0.354,0.388c0.09,0.155,0.135,0.352,0.135,0.591   c0,0.22-0.044,0.415-0.131,0.583c-0.088,0.169-0.205,0.31-0.351,0.422c-0.146,0.113-0.313,0.197-0.5,0.253   c-0.187,0.056-0.379,0.084-0.577,0.084v0.574h-0.263V5.535c-0.527-0.05-0.91-0.205-1.151-0.466C10.06,4.808,9.93,4.421,9.912,3.908   h0.425C10.342,4.304,10.439,4.607,10.631,4.816z M11.07,0.941c-0.12,0.039-0.225,0.098-0.317,0.179s-0.165,0.186-0.216,0.314   c-0.052,0.128-0.078,0.28-0.078,0.456c0,0.157,0.028,0.286,0.084,0.385c0.057,0.099,0.131,0.18,0.223,0.243   c0.092,0.063,0.198,0.113,0.317,0.149c0.119,0.036,0.242,0.07,0.368,0.101V0.884C11.316,0.884,11.189,0.903,11.07,0.941z    M12.133,5.137c0.135-0.036,0.255-0.094,0.361-0.175C12.6,4.88,12.685,4.778,12.75,4.654c0.065-0.124,0.098-0.273,0.098-0.449   c0-0.162-0.035-0.297-0.104-0.405s-0.159-0.197-0.267-0.267s-0.229-0.127-0.364-0.172c-0.135-0.045-0.268-0.083-0.398-0.115v1.944   C11.858,5.191,11.998,5.173,12.133,5.137z"/>
	<path d="M13.712,5.447c0.004-0.234,0.045-0.441,0.121-0.621c0.077-0.18,0.178-0.342,0.304-0.486   c0.125-0.144,0.268-0.276,0.425-0.395c0.158-0.119,0.32-0.234,0.486-0.344s0.332-0.223,0.496-0.337   c0.164-0.115,0.312-0.237,0.442-0.368c0.131-0.131,0.229-0.265,0.294-0.402c0.065-0.137,0.098-0.3,0.098-0.489   c0-0.153-0.028-0.289-0.084-0.409c-0.056-0.119-0.133-0.22-0.229-0.304c-0.097-0.083-0.209-0.146-0.337-0.189   c-0.128-0.042-0.264-0.064-0.408-0.064c-0.194,0-0.359,0.036-0.496,0.108c-0.138,0.072-0.249,0.169-0.334,0.291   c-0.085,0.121-0.147,0.261-0.186,0.418c-0.038,0.157-0.055,0.324-0.05,0.5h-0.425c-0.005-0.243,0.023-0.467,0.084-0.672   c0.061-0.205,0.154-0.381,0.28-0.53s0.285-0.264,0.476-0.348c0.191-0.083,0.415-0.125,0.671-0.125c0.207,0,0.399,0.028,0.577,0.084   s0.333,0.14,0.466,0.25c0.133,0.11,0.236,0.249,0.311,0.415s0.111,0.36,0.111,0.581c0,0.198-0.033,0.378-0.098,0.54   c-0.065,0.162-0.153,0.31-0.264,0.445c-0.11,0.135-0.236,0.26-0.378,0.375c-0.142,0.115-0.291,0.222-0.449,0.321   c-0.112,0.077-0.245,0.161-0.398,0.253c-0.153,0.092-0.3,0.195-0.442,0.307c-0.142,0.113-0.267,0.235-0.375,0.368   s-0.176,0.278-0.203,0.435h2.626v0.392H13.712z"/>
	<path d="M19.939,0.908c0.214,0.151,0.38,0.343,0.5,0.577c0.119,0.234,0.2,0.495,0.243,0.783c0.042,0.288,0.064,0.569,0.064,0.844   c0,0.279-0.021,0.562-0.064,0.851c-0.043,0.288-0.124,0.549-0.243,0.783c-0.119,0.234-0.286,0.425-0.5,0.574   s-0.494,0.223-0.84,0.223c-0.342,0-0.621-0.075-0.837-0.223s-0.384-0.339-0.503-0.574c-0.119-0.234-0.2-0.495-0.243-0.783   c-0.042-0.288-0.064-0.569-0.064-0.844c0-0.279,0.021-0.562,0.064-0.851c0.043-0.288,0.124-0.549,0.243-0.783   c0.119-0.234,0.287-0.426,0.503-0.577c0.216-0.15,0.495-0.226,0.837-0.226C19.445,0.682,19.725,0.757,19.939,0.908z M18.451,1.249   c-0.162,0.14-0.285,0.313-0.368,0.52C18,1.976,17.944,2.201,17.917,2.443c-0.027,0.243-0.041,0.466-0.041,0.668   c0,0.207,0.014,0.431,0.041,0.671C17.944,4.024,18,4.249,18.083,4.458c0.083,0.209,0.206,0.384,0.368,0.523   c0.162,0.14,0.378,0.209,0.648,0.209s0.486-0.07,0.648-0.209c0.162-0.139,0.285-0.314,0.368-0.523   c0.083-0.209,0.138-0.434,0.165-0.675c0.027-0.241,0.041-0.464,0.041-0.671c0-0.203-0.013-0.425-0.041-0.668   c-0.027-0.243-0.082-0.468-0.165-0.675c-0.083-0.207-0.206-0.38-0.368-0.52c-0.162-0.139-0.378-0.209-0.648-0.209   S18.613,1.109,18.451,1.249z"/>
</g>
<line fill="none" stroke="#000000" stroke-width="0.5" stroke-linejoin="round" stroke-miterlimit="10" x1="26.98" y1="128.609" x2="26.98" y2="131.662"/>
<line fill="none" stroke="#000000" stroke-width="0.5" stroke-linejoin="round" stroke-miterlimit="10" x1="56.875" y1="128.609" x2="56.875" y2="131.662"/>
<line fill="none" stroke="#000000" stroke-width="0.5" stroke-linejoin="round" stroke-miterlimit="10" x1="86.771" y1="128.609" x2="86.771" y2="131.662"/>
<line fill="none" stroke="#000000" stroke-width="0.5" stroke-linejoin="round" stroke-miterlimit="10" x1="116.666" y1="128.609" x2="116.666" y2="131.662"/>
<line fill="none" stroke="#000000" stroke-width="0.5" stroke-linejoin="round" stroke-miterlimit="10" x1="146.561" y1="128.609" x2="146.561" y2="131.662"/>
<line fill="none" stroke="#000000" stroke-width="0.5" stroke-linejoin="round" stroke-miterlimit="10" x1="176.457" y1="128.609" x2="176.457" y2="131.662"/>
<line fill="none" stroke="#000000" stroke-width="0.5" stroke-linejoin="round" stroke-miterlimit="10" x1="206.352" y1="128.609" x2="206.352" y2="131.662"/>
<line fill="none" stroke="#000000" stroke-width="0.5" stroke-linejoin="round" stroke-miterlimit="10" x1="236.247" y1="128.609" x2="236.247" y2="131.662"/>
<line fill="none" stroke="#000000" stroke-width="0.5" stroke-linejoin="round" stroke-miterlimit="10" x1="266.142" y1="128.609" x2="266.142" y2="131.662"/>
<line fill="none" stroke="#000000" stroke-width="0.5" stroke-linejoin="round" stroke-miterlimit="10" x1="23.927" y1="2.898" x2="26.98" y2="2.898"/>
<line fill="none" stroke="#000000" stroke-width="0.5" stroke-linejoin="round" stroke-miterlimit="10" x1="23.927" y1="23.85" x2="26.98" y2="23.85"/>
<line fill="none" stroke="#000000" stroke-width="0.5" stroke-linejoin="round" stroke-miterlimit="10" x1="23.927" y1="44.802" x2="26.98" y2="44.802"/>
<line fill="none" stroke="#000000" stroke-width="0.5" stroke-linejoin="round" stroke-miterlimit="10" x1="23.927" y1="65.753" x2="26.98" y2="65.753"/>
<line fill="none" stroke="#000000" stroke-width="0.5" stroke-linejoin="round" stroke-miterlimit="10" x1="23.927" y1="86.706" x2="26.98" y2="86.706"/>
<line fill="none" stroke="#000000" stroke-width="0.5" stroke-linejoin="round" stroke-miterlimit="10" x1="23.927" y1="107.657" x2="26.98" y2="107.657"/>
<line fill="none" stroke="#000000" stroke-width="0.5" stroke-linejoin="round" stroke-miterlimit="10" x1="23.927" y1="128.609" x2="26.98" y2="128.609"/>
</svg>