<svg xmlns="http://www.w3.org/2000/svg" xmlns:xlink="http://www.w3.org/1999/xlink" version="1.1" id="Layer_1" x="0px" y="0px" width="234.17px" height="158.958px" viewBox="0 0 234.17 158.958" enable-background="new 0 0 234.17 158.958" xml:space="preserve">
<g>
	<g>
		<path d="M198.355,112.378c0,0.198,0.034,0.367,0.102,0.508c0.067,0.14,0.162,0.255,0.282,0.344c0.121,0.09,0.26,0.155,0.417,0.196    s0.328,0.062,0.512,0.062c0.198,0,0.367-0.022,0.507-0.069c0.141-0.046,0.254-0.104,0.341-0.177    c0.087-0.073,0.15-0.156,0.188-0.251c0.039-0.094,0.059-0.189,0.059-0.286c0-0.198-0.045-0.344-0.135-0.438    c-0.089-0.094-0.187-0.16-0.293-0.199c-0.184-0.067-0.397-0.132-0.642-0.192s-0.545-0.139-0.903-0.235    c-0.222-0.059-0.407-0.135-0.555-0.229c-0.147-0.095-0.264-0.199-0.352-0.315c-0.087-0.116-0.148-0.239-0.185-0.37    c-0.036-0.13-0.055-0.263-0.055-0.398c0-0.261,0.055-0.486,0.163-0.678c0.109-0.191,0.253-0.35,0.432-0.475    c0.179-0.126,0.382-0.219,0.609-0.279c0.227-0.061,0.457-0.091,0.688-0.091c0.271,0,0.525,0.035,0.765,0.105    s0.45,0.175,0.631,0.315c0.182,0.14,0.325,0.312,0.432,0.518c0.106,0.206,0.159,0.444,0.159,0.715h-0.906    c-0.024-0.334-0.138-0.569-0.341-0.707s-0.461-0.207-0.775-0.207c-0.106,0-0.215,0.011-0.326,0.033    c-0.111,0.021-0.213,0.058-0.305,0.108s-0.168,0.12-0.229,0.207s-0.091,0.195-0.091,0.326c0,0.184,0.058,0.327,0.171,0.431    c0.113,0.104,0.262,0.183,0.445,0.236c0.02,0.005,0.096,0.025,0.229,0.062s0.282,0.076,0.446,0.119    c0.164,0.044,0.325,0.086,0.482,0.127c0.156,0.041,0.269,0.071,0.337,0.091c0.169,0.054,0.316,0.126,0.442,0.218    c0.125,0.092,0.23,0.197,0.315,0.315c0.084,0.118,0.147,0.245,0.188,0.38c0.041,0.136,0.062,0.271,0.062,0.406    c0,0.29-0.06,0.538-0.178,0.743c-0.118,0.206-0.274,0.374-0.468,0.504c-0.193,0.131-0.413,0.227-0.66,0.286    c-0.246,0.061-0.497,0.091-0.754,0.091c-0.295,0-0.572-0.036-0.833-0.108c-0.262-0.072-0.488-0.184-0.682-0.334    c-0.193-0.149-0.349-0.342-0.464-0.576c-0.116-0.234-0.177-0.511-0.182-0.83H198.355z"/>
		<path d="M201.929,110.355h0.906l0.979,2.798h0.014l0.95-2.798h0.862l-1.457,3.951c-0.067,0.169-0.134,0.331-0.199,0.485    c-0.065,0.155-0.146,0.291-0.239,0.41c-0.095,0.118-0.212,0.212-0.352,0.282c-0.141,0.07-0.319,0.105-0.536,0.105    c-0.193,0-0.385-0.015-0.573-0.044v-0.695c0.067,0.01,0.133,0.021,0.195,0.032c0.063,0.012,0.129,0.019,0.196,0.019    c0.097,0,0.177-0.013,0.239-0.036c0.062-0.024,0.114-0.06,0.156-0.105c0.041-0.046,0.076-0.101,0.104-0.163    c0.029-0.063,0.056-0.136,0.08-0.218l0.094-0.29L201.929,110.355z"/>
		<path d="M206.729,112.9c0.024,0.241,0.116,0.41,0.275,0.507s0.351,0.146,0.573,0.146c0.077,0,0.165-0.006,0.264-0.019    c0.1-0.012,0.192-0.035,0.279-0.068c0.087-0.034,0.158-0.084,0.214-0.149c0.056-0.064,0.081-0.15,0.076-0.257    s-0.043-0.193-0.116-0.261c-0.072-0.068-0.165-0.122-0.278-0.163c-0.114-0.041-0.243-0.076-0.389-0.105    c-0.145-0.029-0.292-0.061-0.441-0.095c-0.155-0.033-0.304-0.074-0.446-0.123c-0.143-0.048-0.271-0.113-0.384-0.195    c-0.114-0.082-0.205-0.188-0.272-0.315s-0.102-0.286-0.102-0.475c0-0.203,0.05-0.374,0.148-0.512    c0.1-0.138,0.226-0.249,0.377-0.333c0.152-0.085,0.322-0.144,0.508-0.178c0.187-0.034,0.364-0.051,0.533-0.051    c0.193,0,0.378,0.021,0.555,0.062c0.176,0.041,0.336,0.107,0.479,0.199s0.261,0.212,0.355,0.359    c0.094,0.147,0.153,0.325,0.177,0.532h-0.862c-0.039-0.198-0.13-0.331-0.271-0.398c-0.144-0.067-0.307-0.102-0.49-0.102    c-0.058,0-0.126,0.005-0.206,0.015s-0.155,0.027-0.225,0.055c-0.07,0.026-0.13,0.064-0.178,0.115    c-0.049,0.051-0.072,0.117-0.072,0.199c0,0.102,0.034,0.185,0.104,0.247s0.162,0.115,0.275,0.156    c0.114,0.041,0.243,0.075,0.389,0.104c0.145,0.029,0.294,0.061,0.449,0.095c0.149,0.033,0.297,0.074,0.442,0.123    c0.145,0.048,0.273,0.113,0.388,0.195c0.113,0.083,0.205,0.187,0.275,0.312c0.07,0.125,0.105,0.28,0.105,0.464    c0,0.222-0.051,0.41-0.152,0.565c-0.102,0.154-0.233,0.28-0.396,0.377s-0.342,0.167-0.54,0.21    c-0.198,0.044-0.394,0.065-0.587,0.065c-0.237,0-0.456-0.026-0.656-0.08c-0.201-0.053-0.375-0.134-0.522-0.242    c-0.147-0.109-0.264-0.244-0.348-0.406c-0.085-0.162-0.13-0.354-0.134-0.576H206.729z"/>
		<path d="M209.491,110.355h0.624v-1.124h0.826v1.124h0.747v0.616h-0.747v2.001c0,0.087,0.004,0.162,0.011,0.225    c0.008,0.062,0.024,0.116,0.051,0.159c0.026,0.044,0.066,0.076,0.12,0.099c0.053,0.021,0.125,0.032,0.218,0.032    c0.058,0,0.115-0.001,0.174-0.004c0.058-0.002,0.115-0.011,0.174-0.025v0.639c-0.092,0.009-0.182,0.019-0.269,0.028    s-0.177,0.015-0.269,0.015c-0.217,0-0.393-0.021-0.525-0.062s-0.236-0.102-0.312-0.182c-0.075-0.079-0.126-0.18-0.152-0.301    c-0.026-0.12-0.042-0.258-0.047-0.413v-2.211h-0.624V110.355z"/>
		<path d="M212.927,112.443c0,0.145,0.021,0.285,0.062,0.42c0.041,0.136,0.103,0.254,0.186,0.355    c0.082,0.102,0.186,0.183,0.312,0.243c0.125,0.061,0.275,0.091,0.449,0.091c0.242,0,0.437-0.052,0.584-0.156    c0.147-0.104,0.257-0.26,0.33-0.468h0.782c-0.043,0.203-0.118,0.385-0.225,0.544s-0.234,0.294-0.384,0.402    c-0.15,0.109-0.318,0.191-0.504,0.247c-0.187,0.055-0.381,0.083-0.584,0.083c-0.295,0-0.556-0.049-0.783-0.146    c-0.227-0.096-0.419-0.231-0.576-0.405s-0.275-0.382-0.355-0.624c-0.079-0.241-0.119-0.507-0.119-0.797    c0-0.267,0.042-0.519,0.127-0.758c0.084-0.239,0.205-0.449,0.362-0.631s0.347-0.325,0.569-0.432    c0.222-0.106,0.474-0.159,0.754-0.159c0.295,0,0.56,0.062,0.794,0.185s0.429,0.286,0.583,0.489c0.155,0.203,0.268,0.437,0.338,0.7    c0.069,0.264,0.088,0.535,0.054,0.815H212.927z M214.856,111.899c-0.01-0.131-0.037-0.256-0.083-0.377    c-0.047-0.121-0.109-0.226-0.188-0.315c-0.08-0.089-0.177-0.162-0.29-0.218c-0.114-0.055-0.241-0.083-0.381-0.083    c-0.146,0-0.277,0.025-0.396,0.076s-0.22,0.121-0.305,0.21c-0.084,0.09-0.151,0.195-0.202,0.315    c-0.051,0.121-0.079,0.252-0.084,0.392H214.856z"/>
		<path d="M216.313,110.355h0.783v0.521h0.022c0.062-0.092,0.13-0.176,0.202-0.254c0.073-0.077,0.153-0.142,0.243-0.195    c0.09-0.053,0.192-0.096,0.309-0.127c0.115-0.031,0.248-0.047,0.398-0.047c0.227,0,0.438,0.051,0.635,0.152    c0.195,0.102,0.334,0.259,0.416,0.471c0.141-0.193,0.303-0.345,0.486-0.456s0.413-0.167,0.688-0.167    c0.396,0,0.704,0.097,0.925,0.29c0.22,0.193,0.329,0.517,0.329,0.972v2.588h-0.826v-2.189c0-0.149-0.005-0.286-0.015-0.41    c-0.01-0.123-0.037-0.229-0.083-0.318c-0.046-0.09-0.115-0.158-0.207-0.207c-0.092-0.048-0.217-0.072-0.377-0.072    c-0.28,0-0.483,0.087-0.608,0.261c-0.126,0.174-0.188,0.421-0.188,0.74v2.196h-0.827v-2.407c0-0.261-0.047-0.458-0.141-0.591    c-0.095-0.133-0.268-0.199-0.519-0.199c-0.106,0-0.209,0.021-0.309,0.065c-0.099,0.043-0.186,0.106-0.261,0.188    s-0.136,0.184-0.182,0.305c-0.046,0.12-0.068,0.258-0.068,0.413v2.226h-0.827V110.355z"/>
		<path d="M225.76,113.27c0,0.102,0.014,0.174,0.04,0.218s0.078,0.065,0.155,0.065c0.024,0,0.054,0,0.088,0    c0.033,0,0.072-0.005,0.115-0.015v0.572c-0.028,0.01-0.066,0.021-0.112,0.033c-0.046,0.012-0.093,0.022-0.141,0.032    c-0.049,0.01-0.098,0.018-0.146,0.022c-0.049,0.004-0.09,0.007-0.123,0.007c-0.169,0-0.31-0.034-0.421-0.102    s-0.184-0.186-0.217-0.355c-0.165,0.16-0.366,0.275-0.605,0.349c-0.239,0.072-0.471,0.108-0.692,0.108    c-0.17,0-0.331-0.023-0.486-0.069c-0.154-0.046-0.291-0.113-0.409-0.202c-0.119-0.09-0.213-0.203-0.283-0.341    s-0.104-0.299-0.104-0.482c0-0.232,0.042-0.421,0.126-0.565c0.085-0.146,0.196-0.259,0.334-0.341s0.292-0.142,0.464-0.178    s0.345-0.064,0.519-0.083c0.149-0.029,0.292-0.05,0.428-0.062c0.135-0.013,0.255-0.033,0.358-0.062    c0.104-0.028,0.187-0.073,0.247-0.134s0.091-0.151,0.091-0.271c0-0.106-0.025-0.193-0.076-0.262    c-0.051-0.067-0.114-0.119-0.188-0.155c-0.075-0.036-0.158-0.061-0.25-0.072c-0.093-0.013-0.18-0.019-0.262-0.019    c-0.231,0-0.423,0.049-0.572,0.145c-0.15,0.098-0.234,0.247-0.254,0.45h-0.826c0.014-0.242,0.072-0.442,0.174-0.602    c0.102-0.16,0.23-0.288,0.388-0.385s0.335-0.164,0.533-0.203c0.198-0.038,0.4-0.058,0.608-0.058c0.184,0,0.365,0.02,0.544,0.058    c0.179,0.039,0.34,0.102,0.482,0.188s0.257,0.199,0.344,0.337c0.087,0.139,0.131,0.307,0.131,0.504V113.27z M224.934,112.226    c-0.126,0.082-0.28,0.132-0.464,0.148c-0.185,0.018-0.368,0.043-0.552,0.076c-0.087,0.015-0.171,0.035-0.254,0.062    c-0.082,0.027-0.154,0.063-0.217,0.109c-0.063,0.046-0.112,0.106-0.148,0.181c-0.037,0.075-0.055,0.166-0.055,0.272    c0,0.092,0.026,0.169,0.08,0.231c0.053,0.063,0.117,0.112,0.191,0.149c0.075,0.036,0.157,0.062,0.247,0.076    c0.089,0.014,0.17,0.021,0.242,0.021c0.092,0,0.191-0.013,0.298-0.036c0.106-0.024,0.206-0.065,0.301-0.124    c0.094-0.058,0.173-0.131,0.235-0.221s0.095-0.199,0.095-0.33V112.226z"/>
		<path d="M226.275,110.355h0.624v-1.124h0.826v1.124h0.747v0.616h-0.747v2.001c0,0.087,0.004,0.162,0.011,0.225    c0.008,0.062,0.024,0.116,0.051,0.159c0.026,0.044,0.066,0.076,0.12,0.099c0.053,0.021,0.125,0.032,0.218,0.032    c0.058,0,0.115-0.001,0.174-0.004c0.058-0.002,0.115-0.011,0.174-0.025v0.639c-0.092,0.009-0.182,0.019-0.269,0.028    s-0.177,0.015-0.269,0.015c-0.217,0-0.393-0.021-0.525-0.062s-0.236-0.102-0.312-0.182c-0.075-0.079-0.126-0.18-0.152-0.301    c-0.026-0.12-0.042-0.258-0.047-0.413v-2.211h-0.624V110.355z"/>
		<path d="M229.088,108.927h0.826v0.783h-0.826V108.927z M229.088,110.355h0.826v3.748h-0.826V110.355z"/>
		<path d="M233.343,111.609c-0.033-0.231-0.127-0.407-0.278-0.525c-0.152-0.118-0.345-0.178-0.577-0.178    c-0.106,0-0.22,0.019-0.341,0.055c-0.12,0.036-0.231,0.104-0.333,0.203c-0.102,0.099-0.187,0.236-0.254,0.413    c-0.067,0.176-0.102,0.407-0.102,0.692c0,0.154,0.019,0.31,0.055,0.464s0.094,0.292,0.174,0.413s0.183,0.219,0.309,0.294    c0.125,0.074,0.277,0.112,0.456,0.112c0.242,0,0.441-0.075,0.599-0.225c0.157-0.15,0.255-0.36,0.293-0.631h0.827    c-0.077,0.488-0.263,0.861-0.555,1.12c-0.293,0.259-0.681,0.388-1.164,0.388c-0.295,0-0.555-0.05-0.779-0.148    c-0.225-0.1-0.414-0.234-0.569-0.406c-0.154-0.172-0.271-0.376-0.352-0.612c-0.079-0.237-0.119-0.493-0.119-0.769    c0-0.28,0.038-0.544,0.116-0.79c0.077-0.247,0.193-0.461,0.348-0.643c0.154-0.181,0.347-0.323,0.576-0.428    c0.229-0.104,0.499-0.155,0.809-0.155c0.218,0,0.424,0.027,0.62,0.083c0.195,0.056,0.369,0.14,0.521,0.25    c0.152,0.111,0.277,0.252,0.374,0.421s0.154,0.37,0.174,0.602H233.343z"/>
		<path d="M197.644,119.056h0.776v0.725h0.015c0.023-0.102,0.071-0.2,0.141-0.297c0.07-0.097,0.155-0.186,0.254-0.265    c0.1-0.08,0.209-0.144,0.33-0.192c0.121-0.048,0.244-0.072,0.37-0.072c0.097,0,0.163,0.002,0.199,0.007s0.073,0.01,0.112,0.015    v0.798c-0.058-0.01-0.117-0.019-0.178-0.025c-0.061-0.008-0.119-0.011-0.178-0.011c-0.14,0-0.271,0.027-0.395,0.083    c-0.124,0.056-0.231,0.138-0.323,0.246c-0.092,0.109-0.164,0.243-0.218,0.402c-0.053,0.16-0.079,0.344-0.079,0.552v1.783h-0.827    V119.056z"/>
		<path d="M200.218,117.627h0.826v0.783h-0.826V117.627z M200.218,119.056h0.826v3.748h-0.826V119.056z"/>
		<path d="M202.567,121.601c0.024,0.241,0.116,0.41,0.275,0.507s0.351,0.146,0.573,0.146c0.077,0,0.165-0.006,0.264-0.019    c0.1-0.012,0.192-0.035,0.279-0.068c0.087-0.034,0.158-0.084,0.214-0.149c0.056-0.064,0.081-0.15,0.076-0.257    s-0.043-0.193-0.116-0.261c-0.072-0.068-0.165-0.122-0.278-0.163c-0.114-0.041-0.243-0.076-0.389-0.105    c-0.145-0.029-0.292-0.061-0.441-0.095c-0.155-0.033-0.304-0.074-0.446-0.123c-0.143-0.048-0.271-0.113-0.384-0.195    c-0.114-0.082-0.205-0.188-0.272-0.315s-0.102-0.286-0.102-0.475c0-0.203,0.05-0.374,0.148-0.512    c0.1-0.138,0.226-0.249,0.377-0.333c0.152-0.085,0.322-0.144,0.508-0.178c0.187-0.034,0.364-0.051,0.533-0.051    c0.193,0,0.378,0.021,0.555,0.062c0.176,0.041,0.336,0.107,0.479,0.199s0.261,0.212,0.355,0.359    c0.094,0.147,0.153,0.325,0.177,0.532h-0.862c-0.039-0.198-0.13-0.331-0.271-0.398c-0.144-0.067-0.307-0.102-0.49-0.102    c-0.058,0-0.126,0.005-0.206,0.015s-0.155,0.027-0.225,0.055c-0.07,0.026-0.13,0.064-0.178,0.115    c-0.049,0.051-0.072,0.117-0.072,0.199c0,0.102,0.034,0.185,0.104,0.247s0.162,0.115,0.275,0.156    c0.114,0.041,0.243,0.075,0.389,0.104c0.145,0.029,0.294,0.061,0.449,0.095c0.149,0.033,0.297,0.074,0.442,0.123    c0.145,0.048,0.273,0.113,0.388,0.195c0.113,0.083,0.205,0.187,0.275,0.312c0.07,0.125,0.105,0.28,0.105,0.464    c0,0.222-0.051,0.41-0.152,0.565c-0.102,0.154-0.233,0.28-0.396,0.377s-0.342,0.167-0.54,0.21    c-0.198,0.044-0.394,0.065-0.587,0.065c-0.237,0-0.456-0.026-0.656-0.08c-0.201-0.053-0.375-0.134-0.522-0.242    c-0.147-0.109-0.264-0.244-0.348-0.406c-0.085-0.162-0.13-0.354-0.134-0.576H202.567z"/>
		<path d="M205.728,117.627h0.826v2.943l1.493-1.515h1.016l-1.436,1.377l1.573,2.371h-1.008l-1.146-1.819l-0.493,0.479v1.341h-0.826    V117.627z"/>
	</g>
</g>
<g>
	<g>
		<path d="M61.611,147.475c0.061,0.135,0.143,0.251,0.247,0.348c0.103,0.097,0.225,0.171,0.364,0.223s0.291,0.077,0.452,0.077    c0.185,0,0.349-0.034,0.493-0.104c0.144-0.069,0.268-0.164,0.372-0.283s0.182-0.257,0.236-0.412    c0.054-0.155,0.081-0.318,0.081-0.489c0-0.176-0.031-0.337-0.091-0.486c-0.061-0.148-0.144-0.277-0.25-0.388    c-0.105-0.11-0.233-0.196-0.381-0.26s-0.311-0.095-0.486-0.095c-0.216,0-0.417,0.049-0.601,0.146    c-0.185,0.097-0.335,0.235-0.453,0.415h-0.364l0.459-2.45h2.362v0.392h-2.065l-0.304,1.565l0.014,0.014    c0.117-0.14,0.265-0.247,0.445-0.324c0.18-0.076,0.365-0.114,0.554-0.114c0.243,0,0.462,0.04,0.658,0.121s0.362,0.193,0.5,0.338    c0.137,0.144,0.243,0.316,0.317,0.517s0.111,0.419,0.111,0.658c0,0.229-0.042,0.441-0.128,0.638    c-0.085,0.195-0.203,0.364-0.351,0.506s-0.323,0.252-0.523,0.331c-0.201,0.078-0.413,0.118-0.638,0.118    c-0.22,0-0.424-0.033-0.611-0.098c-0.187-0.065-0.349-0.16-0.486-0.284c-0.137-0.123-0.247-0.275-0.328-0.455    c-0.081-0.181-0.124-0.383-0.128-0.607h0.425C61.518,147.19,61.55,147.34,61.611,147.475z"/>
	</g>
</g>
<g>
	<g>
		<path d="M90.24,144.535c0.15-0.016,0.281-0.053,0.392-0.111c0.11-0.059,0.202-0.147,0.276-0.267s0.127-0.287,0.159-0.503h0.344    v4.725h-0.425v-3.51h-1.249v-0.304C89.921,144.561,90.089,144.551,90.24,144.535z"/>
		<path d="M95.552,143.84c0.214,0.15,0.38,0.343,0.5,0.577c0.119,0.233,0.2,0.495,0.243,0.782c0.042,0.288,0.064,0.569,0.064,0.844    c0,0.279-0.021,0.563-0.064,0.851c-0.043,0.288-0.124,0.55-0.243,0.783c-0.119,0.234-0.286,0.426-0.5,0.574    s-0.494,0.223-0.84,0.223c-0.342,0-0.621-0.074-0.837-0.223s-0.384-0.34-0.503-0.574c-0.119-0.233-0.2-0.495-0.243-0.783    c-0.042-0.287-0.064-0.569-0.064-0.844c0-0.278,0.021-0.562,0.064-0.851c0.043-0.287,0.124-0.549,0.243-0.782    c0.119-0.234,0.287-0.427,0.503-0.577c0.216-0.151,0.495-0.227,0.837-0.227C95.058,143.613,95.338,143.688,95.552,143.84z     M94.063,144.181c-0.162,0.14-0.285,0.312-0.368,0.52c-0.083,0.207-0.139,0.432-0.166,0.675s-0.041,0.466-0.041,0.668    c0,0.207,0.014,0.432,0.041,0.672c0.027,0.241,0.082,0.466,0.166,0.675c0.083,0.21,0.206,0.384,0.368,0.523    s0.378,0.209,0.648,0.209s0.486-0.069,0.648-0.209s0.285-0.313,0.368-0.523c0.083-0.209,0.138-0.434,0.165-0.675    c0.027-0.24,0.041-0.465,0.041-0.672c0-0.202-0.013-0.425-0.041-0.668c-0.027-0.243-0.082-0.468-0.165-0.675    c-0.083-0.207-0.206-0.38-0.368-0.52s-0.378-0.21-0.648-0.21S94.226,144.041,94.063,144.181z"/>
	</g>
</g>
<g>
	<g>
		<path d="M119.88,144.535c0.15-0.016,0.281-0.053,0.392-0.111c0.11-0.059,0.202-0.147,0.276-0.267s0.127-0.287,0.159-0.503h0.344    v4.725h-0.425v-3.51h-1.249v-0.304C119.562,144.561,119.729,144.551,119.88,144.535z"/>
		<path d="M123.241,147.475c0.061,0.135,0.143,0.251,0.247,0.348c0.103,0.097,0.225,0.171,0.364,0.223s0.291,0.077,0.452,0.077    c0.185,0,0.349-0.034,0.493-0.104c0.144-0.069,0.268-0.164,0.372-0.283s0.182-0.257,0.236-0.412    c0.054-0.155,0.081-0.318,0.081-0.489c0-0.176-0.031-0.337-0.091-0.486c-0.061-0.148-0.144-0.277-0.25-0.388    c-0.105-0.11-0.233-0.196-0.381-0.26s-0.311-0.095-0.486-0.095c-0.216,0-0.417,0.049-0.601,0.146    c-0.185,0.097-0.335,0.235-0.453,0.415h-0.364l0.459-2.45h2.362v0.392h-2.065l-0.304,1.565l0.014,0.014    c0.117-0.14,0.265-0.247,0.445-0.324c0.18-0.076,0.365-0.114,0.554-0.114c0.243,0,0.462,0.04,0.658,0.121s0.362,0.193,0.5,0.338    c0.137,0.144,0.243,0.316,0.317,0.517s0.111,0.419,0.111,0.658c0,0.229-0.042,0.441-0.128,0.638    c-0.085,0.195-0.203,0.364-0.351,0.506s-0.323,0.252-0.523,0.331c-0.201,0.078-0.413,0.118-0.638,0.118    c-0.22,0-0.424-0.033-0.611-0.098c-0.187-0.065-0.349-0.16-0.486-0.284c-0.137-0.123-0.247-0.275-0.328-0.455    c-0.081-0.181-0.124-0.383-0.128-0.607h0.425C123.148,147.19,123.181,147.34,123.241,147.475z"/>
	</g>
</g>
<g>
	<g>
		<path d="M57.79,152.245l2.235,3.593h0.015v-3.593h1.103v5.355h-1.178l-2.228-3.585h-0.015v3.585H56.62v-5.355H57.79z"/>
		<path d="M64.689,157.601v-0.54h-0.022c-0.135,0.225-0.31,0.388-0.525,0.487c-0.215,0.101-0.435,0.15-0.66,0.15    c-0.285,0-0.519-0.038-0.701-0.112c-0.183-0.075-0.326-0.182-0.431-0.319s-0.179-0.305-0.221-0.502    c-0.042-0.198-0.064-0.417-0.064-0.656v-2.386h1.065v2.19c0,0.32,0.05,0.559,0.15,0.716c0.1,0.158,0.277,0.236,0.532,0.236    c0.29,0,0.5-0.086,0.63-0.259c0.13-0.172,0.195-0.456,0.195-0.851v-2.033h1.065v3.878H64.689z"/>
		<path d="M67.547,153.723v0.525h0.015c0.14-0.2,0.309-0.354,0.506-0.465c0.197-0.11,0.423-0.165,0.679-0.165    c0.245,0,0.469,0.048,0.671,0.143c0.203,0.095,0.356,0.263,0.461,0.502c0.115-0.17,0.271-0.319,0.469-0.449    c0.197-0.13,0.431-0.195,0.701-0.195c0.205,0,0.395,0.025,0.57,0.075c0.175,0.05,0.325,0.13,0.45,0.239    c0.125,0.11,0.223,0.254,0.292,0.432c0.07,0.178,0.105,0.392,0.105,0.642v2.595h-1.065v-2.197c0-0.13-0.005-0.253-0.015-0.368    c-0.01-0.114-0.037-0.215-0.083-0.3c-0.045-0.085-0.111-0.152-0.199-0.202s-0.206-0.075-0.356-0.075s-0.271,0.029-0.364,0.086    c-0.093,0.058-0.165,0.133-0.218,0.226c-0.052,0.093-0.087,0.197-0.105,0.314c-0.018,0.118-0.026,0.236-0.026,0.356v2.16h-1.065    v-2.175c0-0.115-0.003-0.229-0.008-0.342c-0.005-0.112-0.026-0.216-0.063-0.311c-0.038-0.096-0.1-0.172-0.188-0.229    c-0.088-0.057-0.216-0.086-0.386-0.086c-0.05,0-0.117,0.012-0.199,0.034c-0.083,0.022-0.163,0.064-0.24,0.127    s-0.144,0.152-0.199,0.271c-0.055,0.117-0.083,0.271-0.083,0.461v2.25h-1.065v-3.878H67.547z"/>
		<path d="M74.372,152.245v1.95h0.015c0.13-0.199,0.306-0.346,0.529-0.438s0.454-0.139,0.694-0.139c0.195,0,0.387,0.04,0.578,0.12    c0.19,0.08,0.361,0.202,0.514,0.367c0.152,0.165,0.276,0.376,0.371,0.634c0.095,0.258,0.143,0.563,0.143,0.919    c0,0.354-0.047,0.661-0.143,0.919c-0.095,0.257-0.219,0.469-0.371,0.634c-0.153,0.165-0.324,0.287-0.514,0.367    c-0.19,0.08-0.383,0.12-0.578,0.12c-0.285,0-0.54-0.045-0.765-0.135c-0.225-0.091-0.395-0.243-0.51-0.458h-0.015v0.495h-1.013    v-5.355H74.372z M76.097,155.193c-0.035-0.15-0.09-0.282-0.165-0.397c-0.075-0.115-0.168-0.207-0.281-0.274    c-0.112-0.067-0.249-0.101-0.409-0.101c-0.155,0-0.29,0.033-0.405,0.101c-0.115,0.067-0.21,0.159-0.285,0.274    c-0.075,0.115-0.13,0.247-0.165,0.397c-0.035,0.149-0.052,0.308-0.052,0.473c0,0.159,0.018,0.314,0.052,0.465    c0.035,0.149,0.09,0.282,0.165,0.397c0.075,0.115,0.17,0.206,0.285,0.273c0.115,0.067,0.25,0.102,0.405,0.102    c0.16,0,0.296-0.034,0.409-0.102c0.113-0.067,0.207-0.158,0.281-0.273c0.075-0.115,0.13-0.248,0.165-0.397    c0.035-0.15,0.053-0.306,0.053-0.465C76.149,155.501,76.132,155.343,76.097,155.193z"/>
		<path d="M79.029,156.671c0.16,0.154,0.39,0.232,0.69,0.232c0.215,0,0.4-0.054,0.555-0.161c0.155-0.107,0.25-0.222,0.285-0.342    h0.938c-0.15,0.465-0.38,0.798-0.69,0.998c-0.31,0.199-0.685,0.3-1.125,0.3c-0.305,0-0.58-0.049-0.825-0.146    c-0.245-0.098-0.453-0.236-0.623-0.416s-0.301-0.396-0.394-0.646c-0.093-0.25-0.139-0.524-0.139-0.824    c0-0.29,0.048-0.561,0.143-0.811c0.095-0.25,0.23-0.466,0.405-0.648c0.175-0.183,0.383-0.326,0.626-0.432    c0.243-0.104,0.511-0.157,0.806-0.157c0.33,0,0.618,0.063,0.863,0.191c0.245,0.127,0.446,0.299,0.604,0.514    c0.158,0.215,0.271,0.46,0.341,0.734c0.07,0.275,0.095,0.562,0.075,0.863h-2.797C78.782,156.266,78.869,156.516,79.029,156.671z     M80.233,154.631c-0.127-0.141-0.321-0.21-0.581-0.21c-0.17,0-0.311,0.028-0.424,0.086c-0.112,0.058-0.203,0.129-0.27,0.214    s-0.115,0.175-0.143,0.27c-0.027,0.096-0.043,0.181-0.048,0.255H80.5C80.449,154.976,80.361,154.771,80.233,154.631z"/>
		<path d="M83.207,153.723v0.721h0.015c0.05-0.12,0.117-0.231,0.202-0.334s0.183-0.19,0.293-0.263    c0.11-0.072,0.227-0.129,0.352-0.169s0.255-0.06,0.39-0.06c0.07,0,0.147,0.013,0.232,0.037v0.99c-0.05-0.01-0.11-0.019-0.18-0.026    c-0.07-0.007-0.138-0.011-0.203-0.011c-0.195,0-0.36,0.032-0.495,0.098c-0.135,0.064-0.244,0.153-0.326,0.266    s-0.141,0.244-0.176,0.394c-0.035,0.15-0.052,0.312-0.052,0.488v1.747h-1.065v-3.878H83.207z"/>
		<path d="M87.219,154.822c0.095-0.253,0.229-0.468,0.405-0.646c0.175-0.178,0.385-0.314,0.63-0.412s0.52-0.146,0.825-0.146    c0.305,0,0.581,0.049,0.829,0.146s0.458,0.234,0.634,0.412c0.175,0.178,0.31,0.393,0.405,0.646    c0.095,0.252,0.143,0.533,0.143,0.844c0,0.31-0.047,0.59-0.143,0.84c-0.095,0.25-0.23,0.464-0.405,0.641    c-0.175,0.178-0.386,0.314-0.634,0.409s-0.524,0.143-0.829,0.143c-0.305,0-0.58-0.048-0.825-0.143s-0.455-0.231-0.63-0.409    c-0.175-0.177-0.31-0.391-0.405-0.641c-0.095-0.25-0.143-0.53-0.143-0.84C87.077,155.355,87.124,155.074,87.219,154.822z     M88.187,156.119c0.03,0.147,0.081,0.28,0.154,0.397c0.072,0.118,0.168,0.212,0.289,0.281c0.12,0.07,0.27,0.105,0.45,0.105    c0.18,0,0.331-0.035,0.454-0.105c0.123-0.069,0.22-0.163,0.292-0.281c0.072-0.117,0.124-0.25,0.154-0.397s0.045-0.299,0.045-0.453    c0-0.155-0.015-0.308-0.045-0.458s-0.082-0.282-0.154-0.397s-0.17-0.209-0.292-0.281s-0.274-0.108-0.454-0.108    c-0.18,0-0.33,0.036-0.45,0.108s-0.216,0.166-0.289,0.281c-0.073,0.115-0.124,0.247-0.154,0.397s-0.045,0.303-0.045,0.458    C88.142,155.82,88.157,155.972,88.187,156.119z"/>
		<path d="M91.374,154.436v-0.713h0.638v-0.3c0-0.345,0.107-0.627,0.322-0.848c0.215-0.22,0.54-0.33,0.975-0.33    c0.095,0,0.19,0.004,0.285,0.012c0.095,0.008,0.188,0.014,0.277,0.019v0.795c-0.125-0.015-0.255-0.022-0.39-0.022    c-0.145,0-0.249,0.034-0.311,0.102s-0.094,0.182-0.094,0.341v0.232h0.735v0.713h-0.735v3.165h-1.065v-3.165H91.374z"/>
		<path d="M97.258,156.637c0.047,0.083,0.109,0.15,0.184,0.202c0.075,0.053,0.162,0.092,0.259,0.117    c0.098,0.024,0.199,0.037,0.304,0.037c0.075,0,0.154-0.009,0.236-0.026s0.158-0.045,0.225-0.082    c0.067-0.038,0.124-0.088,0.169-0.15c0.045-0.062,0.067-0.142,0.067-0.236c0-0.16-0.106-0.28-0.319-0.36    c-0.212-0.079-0.509-0.159-0.889-0.239c-0.155-0.035-0.307-0.076-0.454-0.124c-0.148-0.048-0.279-0.11-0.394-0.188    s-0.208-0.175-0.277-0.293c-0.07-0.117-0.105-0.261-0.105-0.431c0-0.25,0.049-0.455,0.146-0.615    c0.098-0.16,0.226-0.286,0.386-0.379c0.16-0.092,0.34-0.157,0.54-0.194c0.2-0.038,0.405-0.057,0.615-0.057s0.414,0.02,0.611,0.06    c0.197,0.04,0.374,0.108,0.528,0.203c0.155,0.095,0.284,0.221,0.387,0.379c0.102,0.157,0.164,0.355,0.184,0.596h-1.013    c-0.015-0.205-0.092-0.344-0.232-0.416s-0.305-0.108-0.495-0.108c-0.06,0-0.125,0.003-0.195,0.011    c-0.07,0.008-0.134,0.023-0.191,0.049s-0.106,0.062-0.146,0.108c-0.04,0.048-0.06,0.111-0.06,0.191    c0,0.095,0.035,0.173,0.105,0.232c0.07,0.061,0.161,0.109,0.274,0.146c0.112,0.037,0.241,0.071,0.386,0.102    c0.145,0.029,0.292,0.062,0.442,0.098c0.155,0.034,0.306,0.077,0.454,0.127s0.279,0.116,0.394,0.199    c0.115,0.082,0.207,0.185,0.277,0.307c0.07,0.123,0.105,0.274,0.105,0.454c0,0.255-0.051,0.469-0.154,0.642    c-0.103,0.172-0.236,0.311-0.401,0.416s-0.354,0.179-0.566,0.222c-0.213,0.042-0.429,0.063-0.649,0.063    c-0.225,0-0.445-0.022-0.66-0.067s-0.406-0.12-0.574-0.226c-0.167-0.104-0.305-0.243-0.413-0.416s-0.166-0.389-0.176-0.648h1.013    C97.187,156.456,97.21,156.555,97.258,156.637z"/>
		<path d="M101.529,156.671c0.16,0.154,0.39,0.232,0.69,0.232c0.215,0,0.4-0.054,0.555-0.161c0.155-0.107,0.25-0.222,0.285-0.342    h0.938c-0.15,0.465-0.38,0.798-0.69,0.998c-0.31,0.199-0.685,0.3-1.125,0.3c-0.305,0-0.58-0.049-0.825-0.146    c-0.245-0.098-0.453-0.236-0.623-0.416s-0.301-0.396-0.394-0.646c-0.093-0.25-0.139-0.524-0.139-0.824    c0-0.29,0.048-0.561,0.143-0.811c0.095-0.25,0.23-0.466,0.405-0.648c0.175-0.183,0.383-0.326,0.626-0.432    c0.243-0.104,0.511-0.157,0.806-0.157c0.33,0,0.618,0.063,0.863,0.191c0.245,0.127,0.446,0.299,0.604,0.514    c0.158,0.215,0.271,0.46,0.341,0.734c0.07,0.275,0.095,0.562,0.075,0.863h-2.797C101.281,156.266,101.369,156.516,101.529,156.671    z M102.732,154.631c-0.127-0.141-0.321-0.21-0.581-0.21c-0.17,0-0.311,0.028-0.424,0.086c-0.112,0.058-0.203,0.129-0.27,0.214    s-0.115,0.175-0.143,0.27c-0.027,0.096-0.043,0.181-0.048,0.255h1.732C102.949,154.976,102.86,154.771,102.732,154.631z"/>
		<path d="M106.546,154.421c-0.17,0-0.312,0.038-0.427,0.116c-0.115,0.077-0.209,0.178-0.281,0.3    c-0.073,0.122-0.124,0.258-0.154,0.405s-0.045,0.293-0.045,0.438c0,0.14,0.015,0.282,0.045,0.428    c0.03,0.145,0.079,0.276,0.146,0.394c0.068,0.117,0.159,0.214,0.274,0.289c0.115,0.074,0.255,0.112,0.42,0.112    c0.255,0,0.451-0.071,0.589-0.214s0.224-0.334,0.259-0.574h1.027c-0.07,0.516-0.27,0.908-0.6,1.178    c-0.33,0.271-0.752,0.405-1.267,0.405c-0.29,0-0.557-0.049-0.799-0.146c-0.243-0.098-0.449-0.233-0.619-0.408    c-0.17-0.176-0.303-0.384-0.397-0.627c-0.095-0.242-0.143-0.509-0.143-0.799c0-0.3,0.043-0.578,0.131-0.836    c0.088-0.258,0.216-0.48,0.387-0.668c0.17-0.188,0.377-0.333,0.622-0.438c0.245-0.104,0.525-0.157,0.84-0.157    c0.23,0,0.451,0.03,0.664,0.09c0.212,0.061,0.402,0.151,0.57,0.273c0.167,0.123,0.304,0.275,0.409,0.458s0.165,0.398,0.18,0.648    h-1.042C107.264,154.644,107.001,154.421,106.546,154.421z"/>
		<path d="M111.623,157.601v-0.54h-0.022c-0.135,0.225-0.31,0.388-0.525,0.487c-0.215,0.101-0.435,0.15-0.66,0.15    c-0.285,0-0.519-0.038-0.701-0.112c-0.183-0.075-0.326-0.182-0.431-0.319s-0.179-0.305-0.221-0.502    c-0.042-0.198-0.064-0.417-0.064-0.656v-2.386h1.065v2.19c0,0.32,0.05,0.559,0.15,0.716c0.1,0.158,0.277,0.236,0.532,0.236    c0.29,0,0.5-0.086,0.63-0.259c0.13-0.172,0.195-0.456,0.195-0.851v-2.033h1.065v3.878H111.623z"/>
		<path d="M114.458,153.723v0.721h0.015c0.05-0.12,0.117-0.231,0.202-0.334s0.183-0.19,0.293-0.263    c0.11-0.072,0.227-0.129,0.352-0.169s0.255-0.06,0.39-0.06c0.07,0,0.147,0.013,0.232,0.037v0.99c-0.05-0.01-0.11-0.019-0.18-0.026    c-0.07-0.007-0.138-0.011-0.203-0.011c-0.195,0-0.36,0.032-0.495,0.098c-0.135,0.064-0.244,0.153-0.326,0.266    s-0.141,0.244-0.176,0.394c-0.035,0.15-0.052,0.312-0.052,0.488v1.747h-1.065v-3.878H114.458z"/>
		<path d="M116.393,153.123v-0.878h1.065v0.878H116.393z M117.458,153.723v3.878h-1.065v-3.878H117.458z"/>
		<path d="M120.428,153.723v0.713h-0.78v1.92c0,0.18,0.03,0.3,0.09,0.36c0.06,0.06,0.18,0.09,0.36,0.09    c0.06,0,0.117-0.003,0.172-0.008s0.107-0.012,0.158-0.022v0.825c-0.09,0.015-0.19,0.025-0.3,0.03s-0.217,0.007-0.322,0.007    c-0.165,0-0.321-0.011-0.469-0.033s-0.278-0.066-0.39-0.132c-0.112-0.064-0.201-0.157-0.266-0.277s-0.098-0.277-0.098-0.473    v-2.287h-0.645v-0.713h0.645v-1.162h1.065v1.162H120.428z"/>
		<path d="M120.968,153.123v-0.878h1.065v0.878H120.968z M122.033,153.723v3.878h-1.065v-3.878H122.033z"/>
		<path d="M124.013,156.671c0.16,0.154,0.39,0.232,0.69,0.232c0.215,0,0.4-0.054,0.555-0.161c0.155-0.107,0.25-0.222,0.285-0.342    h0.938c-0.15,0.465-0.38,0.798-0.69,0.998c-0.31,0.199-0.685,0.3-1.125,0.3c-0.305,0-0.58-0.049-0.825-0.146    c-0.245-0.098-0.453-0.236-0.623-0.416s-0.301-0.396-0.394-0.646c-0.093-0.25-0.139-0.524-0.139-0.824    c0-0.29,0.048-0.561,0.143-0.811c0.095-0.25,0.23-0.466,0.405-0.648c0.175-0.183,0.383-0.326,0.626-0.432    c0.243-0.104,0.511-0.157,0.806-0.157c0.33,0,0.618,0.063,0.863,0.191c0.245,0.127,0.446,0.299,0.604,0.514    c0.158,0.215,0.271,0.46,0.341,0.734c0.07,0.275,0.095,0.562,0.075,0.863h-2.797C123.766,156.266,123.853,156.516,124.013,156.671    z M125.217,154.631c-0.127-0.141-0.321-0.21-0.581-0.21c-0.17,0-0.311,0.028-0.424,0.086c-0.112,0.058-0.203,0.129-0.27,0.214    s-0.115,0.175-0.143,0.27c-0.027,0.096-0.043,0.181-0.048,0.255h1.732C125.433,154.976,125.345,154.771,125.217,154.631z"/>
		<path d="M128.074,156.637c0.047,0.083,0.109,0.15,0.184,0.202c0.075,0.053,0.162,0.092,0.259,0.117    c0.098,0.024,0.199,0.037,0.304,0.037c0.075,0,0.154-0.009,0.236-0.026s0.158-0.045,0.225-0.082    c0.067-0.038,0.124-0.088,0.169-0.15c0.045-0.062,0.067-0.142,0.067-0.236c0-0.16-0.106-0.28-0.319-0.36    c-0.212-0.079-0.509-0.159-0.889-0.239c-0.155-0.035-0.307-0.076-0.454-0.124c-0.148-0.048-0.279-0.11-0.394-0.188    s-0.208-0.175-0.277-0.293c-0.07-0.117-0.105-0.261-0.105-0.431c0-0.25,0.049-0.455,0.146-0.615    c0.098-0.16,0.226-0.286,0.386-0.379c0.16-0.092,0.34-0.157,0.54-0.194c0.2-0.038,0.405-0.057,0.615-0.057s0.414,0.02,0.611,0.06    c0.197,0.04,0.374,0.108,0.528,0.203c0.155,0.095,0.284,0.221,0.387,0.379c0.102,0.157,0.164,0.355,0.184,0.596h-1.013    c-0.015-0.205-0.092-0.344-0.232-0.416s-0.305-0.108-0.495-0.108c-0.06,0-0.125,0.003-0.195,0.011    c-0.07,0.008-0.134,0.023-0.191,0.049s-0.106,0.062-0.146,0.108c-0.04,0.048-0.06,0.111-0.06,0.191    c0,0.095,0.035,0.173,0.105,0.232c0.07,0.061,0.161,0.109,0.274,0.146c0.112,0.037,0.241,0.071,0.386,0.102    c0.145,0.029,0.292,0.062,0.442,0.098c0.155,0.034,0.306,0.077,0.454,0.127s0.279,0.116,0.394,0.199    c0.115,0.082,0.207,0.185,0.277,0.307c0.07,0.123,0.105,0.274,0.105,0.454c0,0.255-0.051,0.469-0.154,0.642    c-0.103,0.172-0.236,0.311-0.401,0.416s-0.354,0.179-0.566,0.222c-0.213,0.042-0.429,0.063-0.649,0.063    c-0.225,0-0.445-0.022-0.66-0.067s-0.406-0.12-0.574-0.226c-0.167-0.104-0.305-0.243-0.413-0.416s-0.166-0.389-0.176-0.648h1.013    C128.003,156.456,128.027,156.555,128.074,156.637z"/>
		<path d="M133.32,153.123v-0.878h1.065v0.878H133.32z M134.385,153.723v3.878h-1.065v-3.878H134.385z"/>
		<path d="M136.238,153.723v0.54h0.022c0.135-0.225,0.31-0.389,0.525-0.491s0.435-0.153,0.66-0.153c0.285,0,0.519,0.039,0.701,0.116    s0.326,0.185,0.431,0.322s0.179,0.306,0.221,0.503s0.064,0.416,0.064,0.656v2.385h-1.065v-2.19c0-0.319-0.05-0.559-0.15-0.716    c-0.1-0.157-0.278-0.236-0.533-0.236c-0.29,0-0.5,0.086-0.63,0.259s-0.195,0.456-0.195,0.852v2.032h-1.065v-3.878H136.238z"/>
		<path d="M142.77,153.723v0.495h0.015c0.13-0.21,0.295-0.362,0.495-0.457c0.2-0.095,0.42-0.143,0.66-0.143    c0.305,0,0.567,0.058,0.788,0.173c0.22,0.114,0.402,0.268,0.547,0.457c0.145,0.19,0.252,0.411,0.323,0.664    c0.07,0.252,0.105,0.516,0.105,0.791c0,0.26-0.035,0.51-0.105,0.75c-0.07,0.24-0.176,0.452-0.319,0.638    c-0.143,0.185-0.32,0.332-0.533,0.442c-0.212,0.109-0.461,0.165-0.746,0.165c-0.24,0-0.461-0.049-0.664-0.146    c-0.203-0.098-0.369-0.241-0.499-0.432h-0.015v1.838h-1.065v-5.235H142.77z M144.154,156.798c0.117-0.069,0.212-0.161,0.285-0.273    c0.072-0.112,0.124-0.244,0.154-0.394c0.03-0.15,0.045-0.303,0.045-0.458c0-0.154-0.017-0.308-0.049-0.457    c-0.033-0.15-0.086-0.284-0.161-0.401c-0.075-0.117-0.171-0.213-0.289-0.285c-0.117-0.072-0.261-0.108-0.431-0.108    c-0.175,0-0.321,0.036-0.439,0.108c-0.117,0.072-0.212,0.166-0.285,0.281c-0.073,0.115-0.124,0.247-0.154,0.397    c-0.03,0.15-0.045,0.305-0.045,0.465c0,0.155,0.016,0.308,0.049,0.458c0.032,0.149,0.085,0.281,0.157,0.394    s0.169,0.204,0.289,0.273c0.12,0.07,0.265,0.105,0.435,0.105C143.89,156.903,144.036,156.868,144.154,156.798z"/>
		<path d="M146.363,154.822c0.095-0.253,0.229-0.468,0.405-0.646c0.175-0.178,0.385-0.314,0.63-0.412    c0.244-0.098,0.52-0.146,0.824-0.146c0.306,0,0.582,0.049,0.829,0.146s0.459,0.234,0.634,0.412s0.31,0.393,0.405,0.646    c0.095,0.252,0.143,0.533,0.143,0.844c0,0.31-0.048,0.59-0.143,0.84c-0.096,0.25-0.23,0.464-0.405,0.641    c-0.175,0.178-0.387,0.314-0.634,0.409s-0.523,0.143-0.829,0.143c-0.305,0-0.58-0.048-0.824-0.143    c-0.245-0.095-0.455-0.231-0.63-0.409c-0.176-0.177-0.311-0.391-0.405-0.641s-0.143-0.53-0.143-0.84    C146.22,155.355,146.268,155.074,146.363,154.822z M147.33,156.119c0.03,0.147,0.082,0.28,0.154,0.397    c0.072,0.118,0.169,0.212,0.289,0.281c0.119,0.07,0.27,0.105,0.449,0.105c0.181,0,0.332-0.035,0.454-0.105    c0.122-0.069,0.22-0.163,0.293-0.281c0.072-0.117,0.123-0.25,0.153-0.397s0.045-0.299,0.045-0.453    c0-0.155-0.015-0.308-0.045-0.458s-0.081-0.282-0.153-0.397c-0.073-0.115-0.171-0.209-0.293-0.281s-0.273-0.108-0.454-0.108    c-0.18,0-0.33,0.036-0.449,0.108c-0.12,0.072-0.217,0.166-0.289,0.281s-0.124,0.247-0.154,0.397    c-0.029,0.15-0.045,0.303-0.045,0.458C147.285,155.82,147.3,155.972,147.33,156.119z"/>
		<path d="M151.935,153.723v0.721h0.015c0.05-0.12,0.117-0.231,0.202-0.334s0.183-0.19,0.293-0.263    c0.109-0.072,0.228-0.129,0.353-0.169s0.255-0.06,0.39-0.06c0.07,0,0.147,0.013,0.232,0.037v0.99    c-0.05-0.01-0.11-0.019-0.18-0.026c-0.07-0.007-0.138-0.011-0.203-0.011c-0.194,0-0.359,0.032-0.494,0.098    c-0.136,0.064-0.244,0.153-0.326,0.266c-0.083,0.112-0.142,0.244-0.177,0.394c-0.035,0.15-0.053,0.312-0.053,0.488v1.747h-1.064    v-3.878H151.935z"/>
		<path d="M155.969,153.723v0.713h-0.78v1.92c0,0.18,0.03,0.3,0.09,0.36c0.061,0.06,0.181,0.09,0.36,0.09    c0.06,0,0.117-0.003,0.173-0.008c0.055-0.005,0.107-0.012,0.157-0.022v0.825c-0.09,0.015-0.19,0.025-0.3,0.03    c-0.11,0.005-0.218,0.007-0.323,0.007c-0.165,0-0.321-0.011-0.469-0.033s-0.277-0.066-0.39-0.132    c-0.112-0.064-0.201-0.157-0.267-0.277c-0.064-0.12-0.097-0.277-0.097-0.473v-2.287h-0.646v-0.713h0.646v-1.162h1.064v1.162    H155.969z"/>
		<path d="M156.074,154.436v-0.713h0.638v-0.3c0-0.345,0.107-0.627,0.322-0.848c0.215-0.22,0.54-0.33,0.975-0.33    c0.096,0,0.19,0.004,0.285,0.012s0.188,0.014,0.277,0.019v0.795c-0.125-0.015-0.255-0.022-0.39-0.022    c-0.145,0-0.249,0.034-0.312,0.102s-0.094,0.182-0.094,0.341v0.232h0.735v0.713h-0.735v3.165h-1.064v-3.165H156.074z"/>
		<path d="M158.999,154.822c0.095-0.253,0.229-0.468,0.404-0.646c0.176-0.178,0.386-0.314,0.631-0.412    c0.244-0.098,0.52-0.146,0.824-0.146c0.306,0,0.582,0.049,0.829,0.146s0.459,0.234,0.634,0.412s0.31,0.393,0.405,0.646    c0.095,0.252,0.143,0.533,0.143,0.844c0,0.31-0.048,0.59-0.143,0.84c-0.096,0.25-0.23,0.464-0.405,0.641    c-0.175,0.178-0.387,0.314-0.634,0.409s-0.523,0.143-0.829,0.143c-0.305,0-0.58-0.048-0.824-0.143    c-0.245-0.095-0.455-0.231-0.631-0.409c-0.175-0.177-0.31-0.391-0.404-0.641c-0.096-0.25-0.143-0.53-0.143-0.84    C158.856,155.355,158.903,155.074,158.999,154.822z M159.965,156.119c0.03,0.147,0.082,0.28,0.154,0.397    c0.072,0.118,0.169,0.212,0.289,0.281c0.119,0.07,0.27,0.105,0.449,0.105c0.181,0,0.332-0.035,0.454-0.105    c0.122-0.069,0.22-0.163,0.293-0.281c0.072-0.117,0.123-0.25,0.153-0.397s0.045-0.299,0.045-0.453    c0-0.155-0.015-0.308-0.045-0.458s-0.081-0.282-0.153-0.397c-0.073-0.115-0.171-0.209-0.293-0.281s-0.273-0.108-0.454-0.108    c-0.18,0-0.33,0.036-0.449,0.108c-0.12,0.072-0.217,0.166-0.289,0.281s-0.124,0.247-0.154,0.397    c-0.029,0.15-0.045,0.303-0.045,0.458C159.92,155.82,159.936,155.972,159.965,156.119z"/>
		<path d="M164.653,152.245v5.355h-1.065v-5.355H164.653z"/>
		<path d="M165.522,153.123v-0.878h1.065v0.878H165.522z M166.587,153.723v3.878h-1.065v-3.878H166.587z"/>
		<path d="M167.45,154.822c0.095-0.253,0.229-0.468,0.404-0.646c0.176-0.178,0.386-0.314,0.631-0.412    c0.244-0.098,0.52-0.146,0.824-0.146c0.306,0,0.582,0.049,0.829,0.146s0.459,0.234,0.634,0.412s0.31,0.393,0.405,0.646    c0.095,0.252,0.143,0.533,0.143,0.844c0,0.31-0.048,0.59-0.143,0.84c-0.096,0.25-0.23,0.464-0.405,0.641    c-0.175,0.178-0.387,0.314-0.634,0.409s-0.523,0.143-0.829,0.143c-0.305,0-0.58-0.048-0.824-0.143    c-0.245-0.095-0.455-0.231-0.631-0.409c-0.175-0.177-0.31-0.391-0.404-0.641c-0.096-0.25-0.143-0.53-0.143-0.84    C167.307,155.355,167.354,155.074,167.45,154.822z M168.417,156.119c0.03,0.147,0.082,0.28,0.154,0.397    c0.072,0.118,0.169,0.212,0.289,0.281c0.119,0.07,0.27,0.105,0.449,0.105c0.181,0,0.332-0.035,0.454-0.105    c0.122-0.069,0.22-0.163,0.293-0.281c0.072-0.117,0.123-0.25,0.153-0.397s0.045-0.299,0.045-0.453    c0-0.155-0.015-0.308-0.045-0.458s-0.081-0.282-0.153-0.397c-0.073-0.115-0.171-0.209-0.293-0.281s-0.273-0.108-0.454-0.108    c-0.18,0-0.33,0.036-0.449,0.108c-0.12,0.072-0.217,0.166-0.289,0.281s-0.124,0.247-0.154,0.397    c-0.029,0.15-0.045,0.303-0.045,0.458C168.372,155.82,168.387,155.972,168.417,156.119z"/>
	</g>
</g>
<g>
	<g>
		<path d="M2.528,3.3c0.335,0,0.62,0.049,0.855,0.146c0.235,0.098,0.426,0.227,0.574,0.387S4.211,4.176,4.279,4.38    C4.347,4.585,4.38,4.798,4.38,5.018c0,0.215-0.034,0.427-0.102,0.634C4.211,5.859,4.104,6.043,3.957,6.203    S3.618,6.491,3.383,6.589c-0.235,0.098-0.52,0.146-0.855,0.146H1.29v1.92H0.113V3.3H2.528z M2.205,5.82    c0.135,0,0.265-0.01,0.39-0.03c0.125-0.02,0.235-0.059,0.33-0.116C3.02,5.616,3.096,5.535,3.154,5.431    C3.211,5.325,3.24,5.188,3.24,5.018S3.211,4.71,3.154,4.605C3.096,4.5,3.02,4.419,2.925,4.361C2.83,4.304,2.72,4.266,2.595,4.245    c-0.125-0.02-0.255-0.03-0.39-0.03H1.29V5.82H2.205z"/>
		<path d="M5.025,5.877C5.12,5.624,5.255,5.409,5.43,5.231c0.175-0.178,0.385-0.314,0.63-0.412s0.52-0.146,0.825-0.146    c0.305,0,0.581,0.049,0.829,0.146s0.458,0.234,0.634,0.412c0.175,0.178,0.31,0.393,0.405,0.646    C8.848,6.129,8.895,6.41,8.895,6.721c0,0.31-0.047,0.59-0.143,0.84c-0.095,0.25-0.23,0.464-0.405,0.641    C8.172,8.379,7.961,8.516,7.714,8.61S7.19,8.753,6.885,8.753c-0.305,0-0.58-0.048-0.825-0.143S5.605,8.379,5.43,8.201    C5.255,8.024,5.12,7.811,5.025,7.561c-0.095-0.25-0.143-0.53-0.143-0.84C4.883,6.41,4.93,6.129,5.025,5.877z M5.993,7.174    c0.03,0.147,0.081,0.28,0.154,0.397c0.072,0.118,0.168,0.212,0.289,0.281c0.12,0.07,0.27,0.105,0.45,0.105    c0.18,0,0.331-0.035,0.454-0.105c0.123-0.069,0.22-0.163,0.292-0.281c0.072-0.117,0.124-0.25,0.154-0.397S7.83,6.875,7.83,6.721    c0-0.155-0.015-0.308-0.045-0.458S7.704,5.98,7.631,5.865s-0.17-0.209-0.292-0.281S7.065,5.476,6.885,5.476    c-0.18,0-0.33,0.036-0.45,0.108S6.219,5.75,6.146,5.865C6.074,5.98,6.022,6.112,5.993,6.263S5.948,6.565,5.948,6.721    C5.948,6.875,5.963,7.026,5.993,7.174z"/>
		<path d="M10.598,4.777v0.721h0.015c0.05-0.12,0.117-0.231,0.202-0.334s0.183-0.19,0.293-0.263c0.11-0.072,0.227-0.129,0.352-0.169    s0.255-0.06,0.39-0.06c0.07,0,0.147,0.013,0.232,0.037V5.7c-0.05-0.01-0.11-0.019-0.18-0.026c-0.07-0.007-0.138-0.011-0.203-0.011    c-0.195,0-0.36,0.032-0.495,0.098c-0.135,0.064-0.244,0.153-0.326,0.266s-0.141,0.244-0.176,0.394    c-0.035,0.15-0.052,0.312-0.052,0.488v1.747H9.585V4.777H10.598z"/>
		<path d="M14.633,4.777V5.49h-0.78v1.92c0,0.18,0.03,0.3,0.09,0.36c0.06,0.06,0.18,0.09,0.36,0.09c0.06,0,0.117-0.003,0.172-0.008    s0.107-0.012,0.158-0.022v0.825c-0.09,0.015-0.19,0.025-0.3,0.03s-0.217,0.007-0.322,0.007c-0.165,0-0.321-0.011-0.469-0.033    s-0.278-0.066-0.39-0.132C13.039,8.463,12.95,8.37,12.885,8.25s-0.098-0.277-0.098-0.473V5.49h-0.645V4.777h0.645V3.615h1.065    v1.162H14.633z"/>
		<path d="M14.738,5.49V4.777h0.638v-0.3c0-0.345,0.107-0.627,0.322-0.848c0.215-0.22,0.54-0.33,0.975-0.33    c0.095,0,0.19,0.004,0.285,0.012c0.095,0.008,0.188,0.014,0.277,0.019v0.795c-0.125-0.015-0.255-0.022-0.39-0.022    c-0.145,0-0.249,0.034-0.311,0.102S16.44,4.386,16.44,4.545v0.232h0.735V5.49H16.44v3.165h-1.065V5.49H14.738z"/>
		<path d="M17.663,5.877c0.095-0.253,0.229-0.468,0.405-0.646c0.175-0.178,0.385-0.314,0.63-0.412s0.52-0.146,0.825-0.146    c0.305,0,0.581,0.049,0.829,0.146s0.458,0.234,0.634,0.412c0.175,0.178,0.31,0.393,0.405,0.646    c0.095,0.252,0.143,0.533,0.143,0.844c0,0.31-0.047,0.59-0.143,0.84c-0.095,0.25-0.23,0.464-0.405,0.641    c-0.175,0.178-0.386,0.314-0.634,0.409s-0.524,0.143-0.829,0.143c-0.305,0-0.58-0.048-0.825-0.143s-0.455-0.231-0.63-0.409    c-0.175-0.177-0.31-0.391-0.405-0.641c-0.095-0.25-0.143-0.53-0.143-0.84C17.521,6.41,17.568,6.129,17.663,5.877z M18.63,7.174    c0.03,0.147,0.081,0.28,0.154,0.397c0.072,0.118,0.168,0.212,0.289,0.281c0.12,0.07,0.27,0.105,0.45,0.105    c0.18,0,0.331-0.035,0.454-0.105c0.123-0.069,0.22-0.163,0.292-0.281c0.072-0.117,0.124-0.25,0.154-0.397s0.045-0.299,0.045-0.453    c0-0.155-0.015-0.308-0.045-0.458s-0.082-0.282-0.154-0.397s-0.17-0.209-0.292-0.281s-0.274-0.108-0.454-0.108    c-0.18,0-0.33,0.036-0.45,0.108s-0.216,0.166-0.289,0.281C18.711,5.98,18.66,6.112,18.63,6.263s-0.045,0.303-0.045,0.458    C18.585,6.875,18.601,7.026,18.63,7.174z"/>
		<path d="M23.318,3.3v5.355h-1.065V3.3H23.318z"/>
		<path d="M24.188,4.178V3.3h1.065v0.878H24.188z M25.253,4.777v3.878h-1.065V4.777H25.253z"/>
		<path d="M26.116,5.877c0.095-0.253,0.229-0.468,0.405-0.646c0.175-0.178,0.385-0.314,0.63-0.412s0.52-0.146,0.825-0.146    c0.305,0,0.581,0.049,0.829,0.146s0.458,0.234,0.634,0.412c0.175,0.178,0.31,0.393,0.405,0.646    c0.095,0.252,0.143,0.533,0.143,0.844c0,0.31-0.047,0.59-0.143,0.84c-0.095,0.25-0.23,0.464-0.405,0.641    c-0.175,0.178-0.386,0.314-0.634,0.409s-0.524,0.143-0.829,0.143c-0.305,0-0.58-0.048-0.825-0.143s-0.455-0.231-0.63-0.409    c-0.175-0.177-0.31-0.391-0.405-0.641c-0.095-0.25-0.143-0.53-0.143-0.84C25.973,6.41,26.021,6.129,26.116,5.877z M27.083,7.174    c0.03,0.147,0.081,0.28,0.154,0.397c0.072,0.118,0.168,0.212,0.289,0.281c0.12,0.07,0.27,0.105,0.45,0.105    c0.18,0,0.331-0.035,0.454-0.105c0.123-0.069,0.22-0.163,0.292-0.281c0.072-0.117,0.124-0.25,0.154-0.397s0.045-0.299,0.045-0.453    c0-0.155-0.015-0.308-0.045-0.458s-0.082-0.282-0.154-0.397s-0.17-0.209-0.292-0.281s-0.274-0.108-0.454-0.108    c-0.18,0-0.33,0.036-0.45,0.108s-0.216,0.166-0.289,0.281c-0.073,0.115-0.124,0.247-0.154,0.397s-0.045,0.303-0.045,0.458    C27.038,6.875,27.053,7.026,27.083,7.174z"/>
		<path d="M1.013,13.777v0.721h0.015c0.05-0.12,0.117-0.231,0.202-0.334s0.183-0.19,0.293-0.263c0.11-0.072,0.227-0.129,0.352-0.169    s0.255-0.06,0.39-0.06c0.07,0,0.147,0.013,0.232,0.037v0.99c-0.05-0.01-0.11-0.019-0.18-0.026    c-0.07-0.007-0.138-0.011-0.203-0.011c-0.195,0-0.36,0.032-0.495,0.098c-0.135,0.064-0.244,0.153-0.326,0.266    s-0.141,0.244-0.176,0.394c-0.035,0.15-0.052,0.312-0.052,0.488v1.747H0v-3.878H1.013z"/>
		<path d="M2.948,13.178V12.3h1.065v0.878H2.948z M4.013,13.777v3.878H2.948v-3.878H4.013z"/>
		<path d="M5.749,16.691c0.047,0.083,0.109,0.15,0.184,0.202c0.075,0.053,0.162,0.092,0.259,0.117    c0.098,0.024,0.199,0.037,0.304,0.037c0.075,0,0.154-0.009,0.236-0.026s0.158-0.045,0.225-0.082    c0.067-0.038,0.124-0.088,0.169-0.15c0.045-0.062,0.067-0.142,0.067-0.236c0-0.16-0.106-0.28-0.319-0.36    c-0.212-0.079-0.509-0.159-0.889-0.239c-0.155-0.035-0.307-0.076-0.454-0.124c-0.148-0.048-0.279-0.11-0.394-0.188    S4.93,15.467,4.86,15.349c-0.07-0.117-0.105-0.261-0.105-0.431c0-0.25,0.049-0.455,0.146-0.615    c0.098-0.16,0.226-0.286,0.386-0.379c0.16-0.092,0.34-0.157,0.54-0.194c0.2-0.038,0.405-0.057,0.615-0.057s0.414,0.02,0.611,0.06    c0.197,0.04,0.374,0.108,0.528,0.203c0.155,0.095,0.284,0.221,0.387,0.379c0.102,0.157,0.164,0.355,0.184,0.596H7.14    c-0.015-0.205-0.092-0.344-0.232-0.416s-0.305-0.108-0.495-0.108c-0.06,0-0.125,0.003-0.195,0.011    c-0.07,0.008-0.134,0.023-0.191,0.049S5.92,14.507,5.88,14.554c-0.04,0.048-0.06,0.111-0.06,0.191    c0,0.095,0.035,0.173,0.105,0.232c0.07,0.061,0.161,0.109,0.274,0.146c0.112,0.037,0.241,0.071,0.386,0.102    c0.145,0.029,0.292,0.062,0.442,0.098c0.155,0.034,0.306,0.077,0.454,0.127s0.279,0.116,0.394,0.199    c0.115,0.082,0.207,0.185,0.277,0.307c0.07,0.123,0.105,0.274,0.105,0.454c0,0.255-0.051,0.469-0.154,0.642    c-0.103,0.172-0.236,0.311-0.401,0.416s-0.354,0.179-0.566,0.222c-0.213,0.042-0.429,0.063-0.649,0.063    c-0.225,0-0.445-0.022-0.66-0.067s-0.406-0.12-0.574-0.226c-0.167-0.104-0.305-0.243-0.413-0.416s-0.166-0.389-0.176-0.648h1.013    C5.678,16.511,5.702,16.609,5.749,16.691z"/>
		<path d="M10.042,12.3v2.873l1.343-1.396h1.26l-1.462,1.426l1.627,2.452h-1.29l-1.065-1.732l-0.413,0.397v1.335H8.978V12.3H10.042z    "/>
	</g>
</g>
<g>
	<g>
		<path d="M150.025,148.379c0.004-0.234,0.045-0.441,0.121-0.621c0.077-0.18,0.178-0.342,0.304-0.486    c0.126-0.144,0.268-0.275,0.426-0.395c0.157-0.119,0.319-0.233,0.485-0.344c0.167-0.11,0.332-0.224,0.496-0.338    c0.165-0.115,0.312-0.237,0.442-0.368c0.131-0.13,0.229-0.264,0.294-0.401s0.098-0.301,0.098-0.489    c0-0.153-0.028-0.289-0.084-0.408c-0.057-0.119-0.133-0.221-0.229-0.304c-0.097-0.084-0.21-0.146-0.338-0.189    s-0.265-0.064-0.408-0.064c-0.193,0-0.359,0.036-0.496,0.108c-0.138,0.072-0.249,0.169-0.334,0.29    c-0.086,0.122-0.147,0.262-0.186,0.419c-0.039,0.157-0.056,0.324-0.051,0.499h-0.426c-0.004-0.243,0.024-0.467,0.085-0.671    c0.061-0.205,0.154-0.382,0.28-0.53s0.284-0.265,0.476-0.348s0.415-0.125,0.672-0.125c0.207,0,0.399,0.028,0.577,0.085    c0.178,0.056,0.333,0.139,0.466,0.249c0.132,0.11,0.235,0.249,0.31,0.415c0.075,0.167,0.112,0.36,0.112,0.581    c0,0.198-0.033,0.378-0.099,0.54s-0.152,0.311-0.263,0.445s-0.236,0.26-0.378,0.375c-0.142,0.114-0.292,0.222-0.449,0.32    c-0.112,0.076-0.245,0.161-0.398,0.253c-0.152,0.093-0.3,0.194-0.442,0.308c-0.142,0.112-0.267,0.234-0.374,0.367    c-0.108,0.133-0.176,0.278-0.203,0.436h2.626v0.392H150.025z"/>
		<path d="M156.251,143.84c0.214,0.15,0.38,0.343,0.5,0.577c0.119,0.233,0.2,0.495,0.242,0.782c0.043,0.288,0.064,0.569,0.064,0.844    c0,0.279-0.021,0.563-0.064,0.851c-0.042,0.288-0.123,0.55-0.242,0.783c-0.12,0.234-0.286,0.426-0.5,0.574    s-0.494,0.223-0.84,0.223c-0.343,0-0.621-0.074-0.838-0.223c-0.216-0.148-0.383-0.34-0.502-0.574    c-0.12-0.233-0.201-0.495-0.243-0.783c-0.043-0.287-0.064-0.569-0.064-0.844c0-0.278,0.021-0.562,0.064-0.851    c0.042-0.287,0.123-0.549,0.243-0.782c0.119-0.234,0.286-0.427,0.502-0.577c0.217-0.151,0.495-0.227,0.838-0.227    C155.757,143.613,156.038,143.688,156.251,143.84z M154.763,144.181c-0.162,0.14-0.285,0.312-0.368,0.52s-0.138,0.432-0.165,0.675    s-0.041,0.466-0.041,0.668c0,0.207,0.014,0.432,0.041,0.672c0.027,0.241,0.082,0.466,0.165,0.675    c0.083,0.21,0.206,0.384,0.368,0.523s0.378,0.209,0.648,0.209c0.27,0,0.485-0.069,0.647-0.209s0.284-0.313,0.368-0.523    c0.083-0.209,0.138-0.434,0.165-0.675c0.027-0.24,0.041-0.465,0.041-0.672c0-0.202-0.014-0.425-0.041-0.668    s-0.082-0.468-0.165-0.675c-0.084-0.207-0.206-0.38-0.368-0.52s-0.378-0.21-0.647-0.21    C155.141,143.971,154.925,144.041,154.763,144.181z"/>
	</g>
</g>
<g>
	<g>
		<path d="M179.824,148.379c0.004-0.234,0.045-0.441,0.121-0.621c0.077-0.18,0.178-0.342,0.304-0.486    c0.126-0.144,0.268-0.275,0.426-0.395c0.157-0.119,0.319-0.233,0.485-0.344c0.167-0.11,0.332-0.224,0.496-0.338    c0.165-0.115,0.312-0.237,0.442-0.368c0.131-0.13,0.229-0.264,0.294-0.401s0.098-0.301,0.098-0.489    c0-0.153-0.028-0.289-0.084-0.408c-0.057-0.119-0.133-0.221-0.229-0.304c-0.097-0.084-0.21-0.146-0.338-0.189    s-0.265-0.064-0.408-0.064c-0.193,0-0.359,0.036-0.496,0.108c-0.138,0.072-0.249,0.169-0.334,0.29    c-0.086,0.122-0.147,0.262-0.186,0.419c-0.039,0.157-0.056,0.324-0.051,0.499h-0.426c-0.004-0.243,0.024-0.467,0.085-0.671    c0.061-0.205,0.154-0.382,0.28-0.53s0.284-0.265,0.476-0.348s0.415-0.125,0.672-0.125c0.207,0,0.399,0.028,0.577,0.085    c0.178,0.056,0.333,0.139,0.466,0.249c0.132,0.11,0.235,0.249,0.31,0.415c0.075,0.167,0.112,0.36,0.112,0.581    c0,0.198-0.033,0.378-0.099,0.54s-0.152,0.311-0.263,0.445s-0.236,0.26-0.378,0.375c-0.142,0.114-0.292,0.222-0.449,0.32    c-0.112,0.076-0.245,0.161-0.398,0.253c-0.152,0.093-0.3,0.194-0.442,0.308c-0.142,0.112-0.267,0.234-0.374,0.367    c-0.108,0.133-0.176,0.278-0.203,0.436h2.626v0.392H179.824z"/>
		<path d="M184.1,147.475c0.061,0.135,0.143,0.251,0.246,0.348s0.225,0.171,0.364,0.223s0.29,0.077,0.452,0.077    c0.185,0,0.349-0.034,0.493-0.104c0.144-0.069,0.268-0.164,0.371-0.283s0.183-0.257,0.236-0.412s0.081-0.318,0.081-0.489    c0-0.176-0.03-0.337-0.092-0.486c-0.061-0.148-0.144-0.277-0.249-0.388c-0.106-0.11-0.233-0.196-0.382-0.26    s-0.311-0.095-0.485-0.095c-0.217,0-0.417,0.049-0.602,0.146s-0.335,0.235-0.452,0.415h-0.364l0.459-2.45h2.362v0.392h-2.065    l-0.304,1.565l0.014,0.014c0.117-0.14,0.266-0.247,0.445-0.324c0.18-0.076,0.364-0.114,0.554-0.114    c0.243,0,0.462,0.04,0.658,0.121c0.195,0.081,0.362,0.193,0.499,0.338c0.138,0.144,0.243,0.316,0.317,0.517    s0.111,0.419,0.111,0.658c0,0.229-0.043,0.441-0.128,0.638c-0.086,0.195-0.202,0.364-0.352,0.506    c-0.148,0.142-0.322,0.252-0.522,0.331c-0.2,0.078-0.413,0.118-0.638,0.118c-0.221,0-0.425-0.033-0.611-0.098    c-0.187-0.065-0.349-0.16-0.486-0.284c-0.137-0.123-0.246-0.275-0.327-0.455c-0.081-0.181-0.124-0.383-0.128-0.607h0.425    C184.006,147.19,184.039,147.34,184.1,147.475z"/>
	</g>
</g>
<g>
	<path d="M192.061,122.787v6.257c0,2.521-0.261,4.229-0.781,5.123c-0.521,0.893-1.5,1.345-2.938,1.357v-1.067   c0.968-0.075,1.62-0.432,1.959-1.068s0.509-1.916,0.509-3.839v-5.301c0-2.835,0.194-4.746,0.583-5.731   c0.39-0.987,1.114-1.712,2.174-2.174c-1.06-0.462-1.784-1.189-2.174-2.182c-0.389-0.993-0.583-2.9-0.583-5.723v-5.282   c0-1.936-0.172-3.228-0.515-3.878c-0.342-0.648-0.992-1.005-1.953-1.066v-1.05c1.438,0.025,2.417,0.48,2.938,1.368   c0.521,0.887,0.781,2.591,0.781,5.113v6.256c0,2.16,0.188,3.625,0.563,4.393c0.376,0.769,1.107,1.265,2.195,1.489v1.143   c-1.081,0.225-1.812,0.725-2.19,1.498C192.25,119.197,192.061,120.652,192.061,122.787z"/>
</g>
<g>
	<g>
		<polyline fill="none" stroke="#000000" stroke-width="0.5" stroke-miterlimit="10" points="33.5,2.69 33.5,137.272     191.518,137.272   "/>
		<g>
			<polygon points="31.63,3.238 33.5,0 35.371,3.238    "/>
		</g>
		<g>
			<polygon points="190.971,139.143 194.209,137.272 190.971,135.402    "/>
		</g>
	</g>
</g>
<line fill="none" stroke="#000000" stroke-width="0.5" stroke-miterlimit="10" x1="63.556" y1="137.272" x2="63.556" y2="140.304"/>
<line fill="none" stroke="#000000" stroke-width="0.5" stroke-miterlimit="10" x1="93.593" y1="137.272" x2="93.593" y2="140.304"/>
<line fill="none" stroke="#000000" stroke-width="0.5" stroke-miterlimit="10" x1="123.63" y1="137.272" x2="123.63" y2="140.304"/>
<line fill="none" stroke="#000000" stroke-width="0.5" stroke-miterlimit="10" x1="153.667" y1="137.272" x2="153.667" y2="140.304"/>
<line fill="none" stroke="#000000" stroke-width="0.5" stroke-miterlimit="10" x1="183.704" y1="137.272" x2="183.704" y2="140.304"/>
<line fill="none" stroke="#999999" stroke-miterlimit="10" stroke-dasharray="4,2" x1="33.5" y1="97.544" x2="183.704" y2="97.544"/>
<path fill="none" stroke="#F47920" stroke-width="2.5" stroke-linecap="round" stroke-linejoin="round" stroke-miterlimit="10" d="  M41.939,24.125c0,0,15.737,30.174,42.027,46.968c10.745,6.864,21.078,12.359,32.629,16.259c16.079,5.429,37.246,6.394,68.807,5.429"/>
</svg>