<svg xmlns="http://www.w3.org/2000/svg" xmlns:xlink="http://www.w3.org/1999/xlink" version="1.1" id="Layer_1" x="0px" y="0px" width="260.04px" height="124.801px" viewBox="0 0 260.04 124.801" enable-background="new 0 0 260.04 124.801" xml:space="preserve">
<rect fill="#FFFFFF" width="260.04" height="124.801"/>
<g>
	
		<line fill="none" stroke="#D9D9D9" stroke-width="0.5" stroke-linejoin="round" stroke-miterlimit="10" x1="26.569" y1="6.799" x2="252.232" y2="6.799"/>
	
		<line fill="none" stroke="#D9D9D9" stroke-width="0.5" stroke-linejoin="round" stroke-miterlimit="10" x1="26.569" y1="27.549" x2="252.232" y2="27.549"/>
	
		<line fill="none" stroke="#D9D9D9" stroke-width="0.5" stroke-linejoin="round" stroke-miterlimit="10" x1="26.569" y1="48.31" x2="252.232" y2="48.31"/>
	
		<line fill="none" stroke="#D9D9D9" stroke-width="0.5" stroke-linejoin="round" stroke-miterlimit="10" x1="26.569" y1="69.065" x2="252.232" y2="69.065"/>
	
		<line fill="none" stroke="#D9D9D9" stroke-width="0.5" stroke-linejoin="round" stroke-miterlimit="10" x1="26.569" y1="89.82" x2="252.232" y2="89.82"/>
	<g>
		<g>
			<path d="M14.574,108.141c0.214,0.15,0.38,0.343,0.5,0.577c0.119,0.233,0.2,0.495,0.243,0.782     c0.042,0.288,0.064,0.569,0.064,0.844c0,0.279-0.021,0.563-0.064,0.851c-0.043,0.288-0.124,0.55-0.243,0.783     c-0.119,0.234-0.286,0.426-0.5,0.574s-0.494,0.223-0.84,0.223c-0.342,0-0.621-0.074-0.837-0.223s-0.384-0.34-0.503-0.574     c-0.119-0.233-0.2-0.495-0.243-0.783c-0.042-0.287-0.064-0.569-0.064-0.844c0-0.278,0.021-0.562,0.064-0.851     c0.043-0.287,0.124-0.549,0.243-0.782c0.119-0.234,0.287-0.427,0.503-0.577c0.216-0.151,0.495-0.227,0.837-0.227     C14.08,107.914,14.36,107.989,14.574,108.141z M13.085,108.481c-0.162,0.14-0.285,0.312-0.368,0.52     c-0.083,0.207-0.139,0.432-0.166,0.675s-0.041,0.466-0.041,0.668c0,0.207,0.014,0.432,0.041,0.672     c0.027,0.241,0.082,0.466,0.166,0.675c0.083,0.21,0.206,0.384,0.368,0.523s0.378,0.209,0.648,0.209s0.486-0.069,0.648-0.209     s0.285-0.313,0.368-0.523c0.083-0.209,0.138-0.434,0.165-0.675c0.027-0.24,0.041-0.465,0.041-0.672     c0-0.202-0.013-0.425-0.041-0.668c-0.027-0.243-0.082-0.468-0.165-0.675c-0.083-0.207-0.206-0.38-0.368-0.52     s-0.378-0.21-0.648-0.21S13.248,108.342,13.085,108.481z"/>
		</g>
	</g>
	<g>
		<g>
			<path d="M14.247,87.211h0.385v3.192h0.708v0.357h-0.708v1.175H14.24v-1.175h-2.18V90.35L14.247,87.211z M14.24,87.832h-0.014     l-1.782,2.571h1.795V87.832z"/>
		</g>
	</g>
	<g>
		<g>
			<path d="M14.962,68.248c-0.135,0.182-0.324,0.31-0.567,0.381v0.014c0.311,0.063,0.549,0.199,0.715,0.408s0.25,0.476,0.25,0.8     c0,0.239-0.043,0.447-0.128,0.625s-0.203,0.325-0.351,0.441c-0.148,0.117-0.32,0.205-0.516,0.264s-0.406,0.088-0.631,0.088     c-0.221,0-0.43-0.029-0.628-0.088c-0.198-0.059-0.371-0.146-0.52-0.264c-0.148-0.116-0.266-0.264-0.351-0.441     s-0.128-0.386-0.128-0.625c0.009-0.311,0.097-0.576,0.264-0.796c0.166-0.221,0.398-0.358,0.695-0.412v-0.014     c-0.247-0.076-0.438-0.203-0.57-0.381s-0.199-0.397-0.199-0.658c0-0.203,0.042-0.378,0.125-0.526     c0.083-0.148,0.192-0.271,0.328-0.368c0.135-0.097,0.288-0.169,0.459-0.216c0.171-0.048,0.344-0.071,0.52-0.071     c0.176,0,0.349,0.023,0.52,0.071c0.171,0.047,0.325,0.119,0.462,0.216c0.137,0.097,0.247,0.22,0.331,0.368     c0.083,0.148,0.125,0.323,0.125,0.526C15.165,67.846,15.097,68.065,14.962,68.248z M14.203,70.854     c0.146-0.043,0.273-0.108,0.381-0.196s0.193-0.199,0.256-0.334s0.095-0.292,0.095-0.473c0-0.171-0.033-0.32-0.098-0.448     c-0.065-0.129-0.153-0.236-0.263-0.324s-0.238-0.153-0.385-0.196c-0.146-0.042-0.298-0.062-0.456-0.057     c-0.162-0.005-0.316,0.013-0.462,0.054c-0.146,0.04-0.273,0.104-0.381,0.192s-0.195,0.197-0.26,0.327     c-0.065,0.131-0.098,0.281-0.098,0.452c0,0.176,0.032,0.331,0.095,0.466s0.148,0.246,0.256,0.334s0.235,0.154,0.381,0.199     c0.146,0.045,0.303,0.067,0.469,0.067S14.056,70.896,14.203,70.854z M14.111,68.423c0.122-0.033,0.229-0.086,0.321-0.158     s0.167-0.164,0.223-0.276c0.056-0.113,0.084-0.246,0.084-0.398c0-0.136-0.026-0.255-0.078-0.358s-0.123-0.188-0.213-0.256     c-0.09-0.067-0.195-0.119-0.317-0.155s-0.254-0.055-0.398-0.055c-0.13,0-0.256,0.019-0.378,0.055s-0.229,0.088-0.324,0.155     c-0.094,0.067-0.17,0.152-0.226,0.256s-0.084,0.223-0.084,0.358c0,0.157,0.029,0.292,0.088,0.404     c0.059,0.113,0.135,0.205,0.229,0.277c0.095,0.072,0.203,0.124,0.324,0.155s0.245,0.045,0.371,0.04     C13.864,68.472,13.99,68.457,14.111,68.423z"/>
		</g>
	</g>
	<g>
		<g>
			<path d="M9.275,46.574c0.15-0.016,0.281-0.053,0.392-0.111c0.11-0.059,0.202-0.147,0.276-0.267s0.127-0.287,0.159-0.503h0.344     v4.725h-0.425v-3.51H8.772v-0.304C8.957,46.6,9.125,46.59,9.275,46.574z"/>
			<path d="M12.114,50.418c0.004-0.234,0.045-0.441,0.121-0.621c0.077-0.18,0.178-0.342,0.304-0.486     c0.125-0.144,0.268-0.275,0.425-0.395c0.158-0.119,0.32-0.233,0.486-0.344s0.332-0.224,0.496-0.338     c0.164-0.115,0.312-0.237,0.442-0.368c0.131-0.13,0.229-0.264,0.294-0.401c0.065-0.138,0.098-0.301,0.098-0.489     c0-0.153-0.028-0.289-0.084-0.408s-0.133-0.221-0.229-0.304c-0.097-0.084-0.209-0.146-0.337-0.189s-0.264-0.064-0.408-0.064     c-0.194,0-0.359,0.036-0.496,0.108c-0.138,0.072-0.249,0.169-0.334,0.29c-0.085,0.122-0.147,0.262-0.186,0.419     s-0.055,0.324-0.05,0.499h-0.425c-0.005-0.243,0.023-0.467,0.084-0.671c0.061-0.205,0.154-0.382,0.28-0.53     s0.285-0.265,0.476-0.348c0.191-0.083,0.415-0.125,0.671-0.125c0.207,0,0.399,0.028,0.577,0.085     c0.178,0.056,0.333,0.139,0.466,0.249s0.236,0.249,0.311,0.415c0.074,0.167,0.111,0.36,0.111,0.581     c0,0.198-0.033,0.378-0.098,0.54c-0.065,0.162-0.153,0.311-0.264,0.445c-0.11,0.135-0.236,0.26-0.378,0.375     c-0.142,0.114-0.291,0.222-0.449,0.32c-0.112,0.076-0.245,0.161-0.398,0.253c-0.153,0.093-0.3,0.194-0.442,0.308     c-0.142,0.112-0.267,0.234-0.375,0.367s-0.176,0.278-0.203,0.436h2.626v0.392H12.114z"/>
		</g>
	</g>
	<g>
		<g>
			<path d="M9.262,25.824c0.15-0.016,0.281-0.053,0.392-0.111c0.11-0.059,0.202-0.147,0.276-0.267s0.127-0.287,0.159-0.503h0.344     v4.725h-0.425v-3.51H8.759v-0.304C8.943,25.85,9.111,25.84,9.262,25.824z"/>
			<path d="M14.526,25.503c-0.173-0.162-0.397-0.243-0.671-0.243s-0.498,0.07-0.668,0.21s-0.304,0.314-0.398,0.526     c-0.095,0.212-0.158,0.439-0.189,0.685c-0.032,0.246-0.047,0.477-0.047,0.692h0.014c0.112-0.234,0.282-0.423,0.509-0.567     c0.227-0.144,0.476-0.216,0.746-0.216c0.238,0,0.453,0.04,0.645,0.118c0.191,0.079,0.354,0.188,0.489,0.327     c0.135,0.14,0.24,0.307,0.314,0.5s0.111,0.405,0.111,0.635s-0.04,0.441-0.118,0.638c-0.079,0.195-0.189,0.364-0.331,0.506     s-0.311,0.252-0.506,0.331c-0.196,0.078-0.411,0.118-0.645,0.118c-0.288,0-0.536-0.044-0.743-0.132s-0.378-0.23-0.513-0.429     c-0.135-0.198-0.235-0.455-0.301-0.772c-0.065-0.317-0.098-0.708-0.098-1.172c0-0.094,0.005-0.218,0.017-0.371     c0.011-0.152,0.037-0.315,0.077-0.489c0.041-0.173,0.098-0.349,0.172-0.526s0.173-0.339,0.297-0.482     c0.124-0.145,0.278-0.261,0.462-0.352c0.185-0.09,0.405-0.135,0.662-0.135c0.423,0,0.758,0.102,1.006,0.304     c0.247,0.203,0.396,0.513,0.445,0.932H14.84C14.804,25.877,14.7,25.665,14.526,25.503z M13.318,27.046     c-0.146,0.065-0.27,0.154-0.371,0.267c-0.102,0.112-0.178,0.244-0.229,0.395c-0.052,0.151-0.078,0.313-0.078,0.489     c0,0.167,0.022,0.324,0.067,0.473s0.116,0.278,0.212,0.388c0.097,0.11,0.22,0.197,0.368,0.261     c0.148,0.062,0.326,0.094,0.533,0.094c0.171,0,0.325-0.032,0.462-0.098c0.137-0.065,0.256-0.152,0.357-0.263     c0.102-0.11,0.179-0.24,0.233-0.389c0.054-0.148,0.081-0.304,0.081-0.466c0-0.171-0.026-0.333-0.078-0.485     c-0.052-0.153-0.126-0.286-0.223-0.398s-0.216-0.201-0.358-0.267c-0.142-0.065-0.303-0.099-0.482-0.099     C13.63,26.947,13.464,26.98,13.318,27.046z"/>
		</g>
	</g>
	<g>
		<g>
			<path d="M7.801,8.913c0.004-0.234,0.045-0.441,0.121-0.621C7.999,8.112,8.1,7.95,8.226,7.806C8.352,7.662,8.494,7.53,8.651,7.411     c0.158-0.119,0.32-0.234,0.486-0.344s0.332-0.223,0.496-0.337c0.164-0.115,0.312-0.237,0.442-0.368     c0.131-0.131,0.229-0.265,0.294-0.402c0.065-0.137,0.098-0.3,0.098-0.489c0-0.153-0.028-0.289-0.084-0.409     c-0.056-0.119-0.133-0.22-0.229-0.304c-0.097-0.083-0.209-0.146-0.337-0.189C9.687,4.527,9.551,4.505,9.407,4.505     c-0.194,0-0.359,0.036-0.496,0.108C8.773,4.686,8.662,4.782,8.577,4.904C8.491,5.025,8.429,5.165,8.391,5.322     c-0.038,0.157-0.055,0.324-0.05,0.5H7.916C7.911,5.579,7.939,5.355,8,5.15c0.061-0.205,0.154-0.381,0.28-0.53     s0.285-0.264,0.476-0.348c0.191-0.083,0.415-0.125,0.671-0.125c0.207,0,0.399,0.028,0.577,0.084s0.333,0.14,0.466,0.25     c0.133,0.11,0.236,0.249,0.311,0.415s0.111,0.36,0.111,0.581c0,0.198-0.033,0.378-0.098,0.54     c-0.065,0.162-0.153,0.31-0.264,0.445c-0.11,0.135-0.236,0.26-0.378,0.375c-0.142,0.115-0.291,0.222-0.449,0.321     C9.592,7.235,9.459,7.319,9.306,7.411c-0.153,0.092-0.3,0.195-0.442,0.307C8.722,7.831,8.597,7.954,8.489,8.086     S8.313,8.364,8.287,8.521h2.626v0.392H7.801z"/>
			<path d="M14.027,4.374c0.214,0.151,0.38,0.343,0.5,0.577c0.119,0.234,0.2,0.495,0.243,0.783c0.042,0.288,0.064,0.569,0.064,0.844     c0,0.279-0.021,0.562-0.064,0.851c-0.043,0.288-0.124,0.549-0.243,0.783c-0.119,0.234-0.286,0.425-0.5,0.574     s-0.494,0.223-0.84,0.223c-0.342,0-0.621-0.075-0.837-0.223s-0.384-0.339-0.503-0.574c-0.119-0.234-0.2-0.495-0.243-0.783     C11.562,7.14,11.54,6.859,11.54,6.584c0-0.279,0.021-0.562,0.064-0.851c0.043-0.288,0.124-0.549,0.243-0.783     c0.119-0.234,0.287-0.426,0.503-0.577c0.216-0.15,0.495-0.226,0.837-0.226C13.534,4.147,13.813,4.223,14.027,4.374z      M12.539,4.714c-0.162,0.14-0.285,0.313-0.368,0.52c-0.083,0.207-0.139,0.432-0.166,0.675c-0.027,0.243-0.041,0.466-0.041,0.668     c0,0.207,0.014,0.431,0.041,0.671c0.027,0.241,0.082,0.466,0.166,0.675c0.083,0.209,0.206,0.384,0.368,0.523     c0.162,0.14,0.378,0.209,0.648,0.209s0.486-0.07,0.648-0.209c0.162-0.139,0.285-0.314,0.368-0.523     c0.083-0.209,0.138-0.434,0.165-0.675c0.027-0.241,0.041-0.464,0.041-0.671c0-0.203-0.013-0.425-0.041-0.668     c-0.027-0.243-0.082-0.468-0.165-0.675c-0.083-0.207-0.206-0.38-0.368-0.52c-0.162-0.139-0.378-0.209-0.648-0.209     S12.701,4.575,12.539,4.714z"/>
			<path d="M17.092,4.246c0.137,0.065,0.249,0.155,0.334,0.27s0.149,0.25,0.189,0.405c0.041,0.155,0.061,0.323,0.061,0.503     s-0.021,0.348-0.061,0.503c-0.04,0.155-0.104,0.29-0.189,0.405s-0.197,0.205-0.334,0.27c-0.137,0.065-0.3,0.098-0.489,0.098     s-0.352-0.033-0.489-0.098c-0.138-0.065-0.249-0.155-0.334-0.27s-0.148-0.25-0.189-0.405s-0.061-0.323-0.061-0.503     s0.02-0.348,0.061-0.503s0.104-0.29,0.189-0.405s0.197-0.205,0.334-0.27c0.137-0.065,0.3-0.098,0.489-0.098     S16.955,4.18,17.092,4.246z M16.248,4.542c-0.092,0.061-0.166,0.14-0.219,0.236c-0.054,0.097-0.091,0.203-0.111,0.317     c-0.021,0.115-0.03,0.226-0.03,0.334s0.01,0.218,0.03,0.331c0.02,0.113,0.057,0.216,0.111,0.311     c0.054,0.095,0.127,0.172,0.219,0.233s0.21,0.091,0.354,0.091c0.139,0,0.255-0.031,0.348-0.091s0.165-0.138,0.219-0.233     c0.054-0.094,0.092-0.198,0.115-0.311c0.022-0.112,0.034-0.223,0.034-0.331s-0.011-0.219-0.034-0.334s-0.061-0.221-0.115-0.317     s-0.127-0.176-0.219-0.236s-0.208-0.091-0.348-0.091C16.458,4.451,16.34,4.482,16.248,4.542z M19.721,4.02L16.67,9.136h-0.324     l3.058-5.116H19.721z M20.055,6.561c0.137,0.065,0.249,0.155,0.334,0.27s0.148,0.25,0.189,0.405s0.061,0.323,0.061,0.503     c0,0.18-0.021,0.348-0.061,0.503c-0.041,0.155-0.104,0.29-0.189,0.405s-0.197,0.204-0.334,0.267s-0.3,0.095-0.489,0.095     s-0.353-0.032-0.49-0.095s-0.249-0.152-0.334-0.267s-0.148-0.25-0.189-0.405c-0.041-0.155-0.061-0.323-0.061-0.503     c0-0.18,0.02-0.348,0.061-0.503s0.104-0.291,0.189-0.405s0.197-0.205,0.334-0.27c0.137-0.065,0.301-0.098,0.49-0.098     S19.918,6.496,20.055,6.561z M19.211,6.858c-0.092,0.061-0.166,0.139-0.219,0.236c-0.054,0.097-0.091,0.203-0.112,0.317     c-0.02,0.115-0.03,0.226-0.03,0.334c0,0.108,0.01,0.219,0.03,0.331c0.021,0.112,0.058,0.216,0.112,0.311     c0.054,0.094,0.127,0.172,0.219,0.233c0.092,0.061,0.21,0.091,0.354,0.091c0.139,0,0.255-0.03,0.348-0.091     c0.092-0.061,0.165-0.139,0.219-0.233c0.054-0.095,0.092-0.198,0.115-0.311s0.034-0.223,0.034-0.331     c0-0.108-0.011-0.219-0.034-0.334s-0.061-0.22-0.115-0.317c-0.054-0.097-0.127-0.175-0.219-0.236     c-0.092-0.061-0.208-0.091-0.348-0.091C19.422,6.767,19.304,6.797,19.211,6.858z"/>
		</g>
	</g>
	<g>
		<g>
			<path d="M19.307,120.801c0.004-0.234,0.045-0.441,0.121-0.621c0.077-0.18,0.178-0.342,0.304-0.486     c0.125-0.144,0.268-0.275,0.425-0.395c0.158-0.119,0.32-0.233,0.486-0.344s0.332-0.224,0.496-0.338     c0.164-0.115,0.312-0.237,0.442-0.368c0.131-0.13,0.229-0.264,0.294-0.401c0.065-0.138,0.098-0.301,0.098-0.489     c0-0.153-0.028-0.289-0.084-0.408s-0.133-0.221-0.229-0.304c-0.097-0.084-0.209-0.146-0.337-0.189s-0.264-0.064-0.408-0.064     c-0.194,0-0.359,0.036-0.496,0.108c-0.138,0.072-0.249,0.169-0.334,0.29c-0.085,0.122-0.147,0.262-0.186,0.419     s-0.055,0.324-0.05,0.499h-0.425c-0.005-0.243,0.023-0.467,0.084-0.671c0.061-0.205,0.154-0.382,0.28-0.53     s0.285-0.265,0.476-0.348c0.191-0.083,0.415-0.125,0.671-0.125c0.207,0,0.399,0.028,0.577,0.085     c0.178,0.056,0.333,0.139,0.466,0.249s0.236,0.249,0.311,0.415c0.074,0.167,0.111,0.36,0.111,0.581     c0,0.198-0.033,0.378-0.098,0.54c-0.065,0.162-0.153,0.311-0.264,0.445c-0.11,0.135-0.236,0.26-0.378,0.375     c-0.142,0.114-0.291,0.222-0.449,0.32c-0.112,0.076-0.245,0.161-0.398,0.253c-0.153,0.093-0.3,0.194-0.442,0.308     c-0.142,0.112-0.267,0.234-0.375,0.367s-0.176,0.278-0.203,0.436h2.626v0.392H19.307z"/>
			<path d="M25.533,116.262c0.214,0.15,0.38,0.343,0.5,0.577c0.119,0.233,0.2,0.495,0.243,0.782     c0.042,0.288,0.064,0.569,0.064,0.844c0,0.279-0.021,0.563-0.064,0.851c-0.043,0.288-0.124,0.55-0.243,0.783     c-0.119,0.234-0.286,0.426-0.5,0.574s-0.494,0.223-0.84,0.223c-0.342,0-0.621-0.074-0.837-0.223s-0.384-0.34-0.503-0.574     c-0.119-0.233-0.2-0.495-0.243-0.783c-0.042-0.287-0.064-0.569-0.064-0.844c0-0.278,0.021-0.562,0.064-0.851     c0.043-0.287,0.124-0.549,0.243-0.782c0.119-0.234,0.287-0.427,0.503-0.577c0.216-0.151,0.495-0.227,0.837-0.227     C25.04,116.035,25.319,116.11,25.533,116.262z M24.045,116.603c-0.162,0.14-0.285,0.312-0.368,0.52     c-0.083,0.207-0.139,0.432-0.166,0.675s-0.041,0.466-0.041,0.668c0,0.207,0.014,0.432,0.041,0.672     c0.027,0.241,0.082,0.466,0.166,0.675c0.083,0.21,0.206,0.384,0.368,0.523s0.378,0.209,0.648,0.209s0.486-0.069,0.648-0.209     s0.285-0.313,0.368-0.523c0.083-0.209,0.138-0.434,0.165-0.675c0.027-0.24,0.041-0.465,0.041-0.672     c0-0.202-0.013-0.425-0.041-0.668c-0.027-0.243-0.082-0.468-0.165-0.675c-0.083-0.207-0.206-0.38-0.368-0.52     s-0.378-0.21-0.648-0.21S24.207,116.463,24.045,116.603z"/>
			<path d="M29.286,116.262c0.214,0.15,0.38,0.343,0.5,0.577c0.119,0.233,0.2,0.495,0.243,0.782     c0.042,0.288,0.064,0.569,0.064,0.844c0,0.279-0.021,0.563-0.064,0.851c-0.043,0.288-0.124,0.55-0.243,0.783     c-0.119,0.234-0.286,0.426-0.5,0.574s-0.494,0.223-0.84,0.223c-0.342,0-0.621-0.074-0.837-0.223s-0.384-0.34-0.503-0.574     c-0.119-0.233-0.2-0.495-0.243-0.783c-0.042-0.287-0.064-0.569-0.064-0.844c0-0.278,0.021-0.562,0.064-0.851     c0.043-0.287,0.124-0.549,0.243-0.782c0.119-0.234,0.287-0.427,0.503-0.577c0.216-0.151,0.495-0.227,0.837-0.227     C28.792,116.035,29.072,116.11,29.286,116.262z M27.798,116.603c-0.162,0.14-0.285,0.312-0.368,0.52     c-0.083,0.207-0.139,0.432-0.166,0.675s-0.041,0.466-0.041,0.668c0,0.207,0.014,0.432,0.041,0.672     c0.027,0.241,0.082,0.466,0.166,0.675c0.083,0.21,0.206,0.384,0.368,0.523s0.378,0.209,0.648,0.209s0.486-0.069,0.648-0.209     s0.285-0.313,0.368-0.523c0.083-0.209,0.138-0.434,0.165-0.675c0.027-0.24,0.041-0.465,0.041-0.672     c0-0.202-0.013-0.425-0.041-0.668c-0.027-0.243-0.082-0.468-0.165-0.675c-0.083-0.207-0.206-0.38-0.368-0.52     s-0.378-0.21-0.648-0.21S27.96,116.463,27.798,116.603z"/>
			<path d="M31.034,119.809c0.052,0.153,0.128,0.283,0.229,0.392c0.102,0.107,0.228,0.192,0.378,0.253     c0.15,0.061,0.32,0.091,0.509,0.091c0.158,0,0.308-0.022,0.453-0.067c0.144-0.045,0.272-0.112,0.384-0.202     c0.113-0.09,0.203-0.2,0.27-0.331c0.068-0.13,0.102-0.278,0.102-0.445c0-0.171-0.029-0.318-0.088-0.442     c-0.059-0.123-0.14-0.227-0.243-0.311c-0.104-0.083-0.224-0.145-0.361-0.186c-0.137-0.04-0.285-0.061-0.442-0.061h-0.357v-0.357     h0.357c0.108,0,0.22-0.018,0.334-0.051c0.115-0.034,0.218-0.086,0.311-0.155c0.092-0.07,0.167-0.159,0.226-0.267     c0.058-0.108,0.087-0.236,0.087-0.385c0-0.157-0.027-0.291-0.081-0.401c-0.054-0.11-0.128-0.203-0.223-0.277     c-0.094-0.074-0.204-0.128-0.327-0.162c-0.124-0.033-0.258-0.051-0.402-0.051c-0.175,0-0.331,0.029-0.466,0.088     c-0.135,0.059-0.249,0.141-0.341,0.247c-0.092,0.105-0.161,0.231-0.206,0.378c-0.045,0.146-0.065,0.307-0.061,0.482h-0.425     c0-0.225,0.035-0.432,0.105-0.621c0.069-0.189,0.168-0.353,0.297-0.489c0.128-0.138,0.285-0.245,0.469-0.324     c0.184-0.078,0.391-0.118,0.621-0.118c0.185,0,0.365,0.023,0.54,0.071c0.176,0.047,0.332,0.119,0.469,0.216     s0.248,0.221,0.331,0.371c0.083,0.15,0.125,0.332,0.125,0.543c0,0.257-0.068,0.479-0.206,0.669     c-0.138,0.188-0.334,0.314-0.591,0.378v0.014c0.311,0.049,0.55,0.179,0.719,0.388c0.169,0.209,0.253,0.469,0.253,0.779     c0,0.234-0.044,0.44-0.132,0.618s-0.206,0.327-0.354,0.449c-0.148,0.121-0.322,0.212-0.52,0.272     c-0.198,0.062-0.405,0.092-0.621,0.092c-0.243,0-0.467-0.036-0.671-0.108c-0.205-0.071-0.38-0.176-0.527-0.311     c-0.146-0.135-0.256-0.301-0.331-0.499s-0.103-0.426-0.084-0.682h0.425C30.961,119.484,30.982,119.655,31.034,119.809z"/>
		</g>
	</g>
	<g>
		<g>
			<path d="M50.434,120.801c0.004-0.234,0.045-0.441,0.121-0.621c0.077-0.18,0.178-0.342,0.304-0.486     c0.125-0.144,0.268-0.275,0.425-0.395c0.158-0.119,0.32-0.233,0.486-0.344s0.332-0.224,0.496-0.338     c0.164-0.115,0.312-0.237,0.442-0.368c0.131-0.13,0.229-0.264,0.294-0.401c0.065-0.138,0.098-0.301,0.098-0.489     c0-0.153-0.028-0.289-0.084-0.408s-0.133-0.221-0.229-0.304c-0.097-0.084-0.209-0.146-0.337-0.189s-0.264-0.064-0.408-0.064     c-0.194,0-0.359,0.036-0.496,0.108c-0.138,0.072-0.249,0.169-0.334,0.29c-0.085,0.122-0.147,0.262-0.186,0.419     s-0.055,0.324-0.05,0.499h-0.425c-0.005-0.243,0.023-0.467,0.084-0.671c0.061-0.205,0.154-0.382,0.28-0.53     s0.285-0.265,0.476-0.348c0.191-0.083,0.415-0.125,0.671-0.125c0.207,0,0.399,0.028,0.577,0.085     c0.178,0.056,0.333,0.139,0.466,0.249s0.236,0.249,0.311,0.415c0.074,0.167,0.111,0.36,0.111,0.581     c0,0.198-0.033,0.378-0.098,0.54c-0.065,0.162-0.153,0.311-0.264,0.445c-0.11,0.135-0.236,0.26-0.378,0.375     c-0.142,0.114-0.291,0.222-0.449,0.32c-0.112,0.076-0.245,0.161-0.398,0.253c-0.153,0.093-0.3,0.194-0.442,0.308     c-0.142,0.112-0.267,0.234-0.375,0.367s-0.176,0.278-0.203,0.436h2.626v0.392H50.434z"/>
			<path d="M56.66,116.262c0.214,0.15,0.38,0.343,0.5,0.577c0.119,0.233,0.2,0.495,0.243,0.782c0.042,0.288,0.064,0.569,0.064,0.844     c0,0.279-0.021,0.563-0.064,0.851c-0.043,0.288-0.124,0.55-0.243,0.783c-0.119,0.234-0.286,0.426-0.5,0.574     s-0.494,0.223-0.84,0.223c-0.342,0-0.621-0.074-0.837-0.223s-0.384-0.34-0.503-0.574c-0.119-0.233-0.2-0.495-0.243-0.783     c-0.042-0.287-0.064-0.569-0.064-0.844c0-0.278,0.021-0.562,0.064-0.851c0.043-0.287,0.124-0.549,0.243-0.782     c0.119-0.234,0.287-0.427,0.503-0.577c0.216-0.151,0.495-0.227,0.837-0.227C56.167,116.035,56.446,116.11,56.66,116.262z      M55.172,116.603c-0.162,0.14-0.285,0.312-0.368,0.52c-0.083,0.207-0.139,0.432-0.166,0.675s-0.041,0.466-0.041,0.668     c0,0.207,0.014,0.432,0.041,0.672c0.027,0.241,0.082,0.466,0.166,0.675c0.083,0.21,0.206,0.384,0.368,0.523     s0.378,0.209,0.648,0.209s0.486-0.069,0.648-0.209s0.285-0.313,0.368-0.523c0.083-0.209,0.138-0.434,0.165-0.675     c0.027-0.24,0.041-0.465,0.041-0.672c0-0.202-0.013-0.425-0.041-0.668c-0.027-0.243-0.082-0.468-0.165-0.675     c-0.083-0.207-0.206-0.38-0.368-0.52s-0.378-0.21-0.648-0.21S55.334,116.463,55.172,116.603z"/>
			<path d="M60.413,116.262c0.214,0.15,0.38,0.343,0.5,0.577c0.119,0.233,0.2,0.495,0.243,0.782     c0.042,0.288,0.064,0.569,0.064,0.844c0,0.279-0.021,0.563-0.064,0.851c-0.043,0.288-0.124,0.55-0.243,0.783     c-0.119,0.234-0.286,0.426-0.5,0.574s-0.494,0.223-0.84,0.223c-0.342,0-0.621-0.074-0.837-0.223s-0.384-0.34-0.503-0.574     c-0.119-0.233-0.2-0.495-0.243-0.783c-0.042-0.287-0.064-0.569-0.064-0.844c0-0.278,0.021-0.562,0.064-0.851     c0.043-0.287,0.124-0.549,0.243-0.782c0.119-0.234,0.287-0.427,0.503-0.577c0.216-0.151,0.495-0.227,0.837-0.227     C59.919,116.035,60.199,116.11,60.413,116.262z M58.925,116.603c-0.162,0.14-0.285,0.312-0.368,0.52     c-0.083,0.207-0.139,0.432-0.166,0.675s-0.041,0.466-0.041,0.668c0,0.207,0.014,0.432,0.041,0.672     c0.027,0.241,0.082,0.466,0.166,0.675c0.083,0.21,0.206,0.384,0.368,0.523s0.378,0.209,0.648,0.209s0.486-0.069,0.648-0.209     s0.285-0.313,0.368-0.523c0.083-0.209,0.138-0.434,0.165-0.675c0.027-0.24,0.041-0.465,0.041-0.672     c0-0.202-0.013-0.425-0.041-0.668c-0.027-0.243-0.082-0.468-0.165-0.675c-0.083-0.207-0.206-0.38-0.368-0.52     s-0.378-0.21-0.648-0.21S59.087,116.463,58.925,116.603z"/>
			<path d="M62.215,119.896c0.061,0.135,0.143,0.251,0.247,0.348c0.103,0.097,0.225,0.171,0.364,0.223s0.291,0.077,0.452,0.077     c0.185,0,0.349-0.034,0.493-0.104c0.144-0.069,0.268-0.164,0.372-0.283s0.182-0.257,0.236-0.412     c0.054-0.155,0.081-0.318,0.081-0.489c0-0.176-0.031-0.337-0.091-0.486c-0.061-0.148-0.144-0.277-0.25-0.388     c-0.105-0.11-0.233-0.196-0.381-0.26s-0.311-0.095-0.486-0.095c-0.216,0-0.417,0.049-0.601,0.146     c-0.185,0.097-0.335,0.235-0.453,0.415h-0.364l0.459-2.45h2.362v0.392H62.59l-0.304,1.565l0.014,0.014     c0.117-0.14,0.265-0.247,0.445-0.324c0.18-0.076,0.365-0.114,0.554-0.114c0.243,0,0.462,0.04,0.658,0.121s0.362,0.193,0.5,0.338     c0.137,0.144,0.243,0.316,0.317,0.517s0.111,0.419,0.111,0.658c0,0.229-0.042,0.441-0.128,0.638     c-0.085,0.195-0.203,0.364-0.351,0.506s-0.323,0.252-0.523,0.331c-0.201,0.078-0.413,0.118-0.638,0.118     c-0.22,0-0.424-0.033-0.611-0.098c-0.187-0.065-0.349-0.16-0.486-0.284c-0.137-0.123-0.247-0.275-0.328-0.455     c-0.081-0.181-0.124-0.383-0.128-0.607h0.425C62.122,119.612,62.155,119.762,62.215,119.896z"/>
		</g>
	</g>
	<g>
		<g>
			<path d="M81.559,120.801c0.004-0.234,0.045-0.441,0.121-0.621c0.077-0.18,0.178-0.342,0.304-0.486     c0.126-0.144,0.268-0.275,0.426-0.395c0.157-0.119,0.319-0.233,0.485-0.344c0.167-0.11,0.332-0.224,0.496-0.338     c0.165-0.115,0.312-0.237,0.442-0.368c0.131-0.13,0.229-0.264,0.294-0.401s0.098-0.301,0.098-0.489     c0-0.153-0.028-0.289-0.084-0.408c-0.057-0.119-0.133-0.221-0.229-0.304c-0.097-0.084-0.21-0.146-0.338-0.189     s-0.265-0.064-0.408-0.064c-0.193,0-0.359,0.036-0.496,0.108c-0.138,0.072-0.249,0.169-0.334,0.29     c-0.086,0.122-0.147,0.262-0.186,0.419c-0.039,0.157-0.056,0.324-0.051,0.499h-0.426c-0.004-0.243,0.024-0.467,0.085-0.671     c0.061-0.205,0.154-0.382,0.28-0.53s0.284-0.265,0.476-0.348s0.415-0.125,0.672-0.125c0.207,0,0.399,0.028,0.577,0.085     c0.178,0.056,0.333,0.139,0.466,0.249c0.132,0.11,0.235,0.249,0.31,0.415c0.075,0.167,0.112,0.36,0.112,0.581     c0,0.198-0.033,0.378-0.099,0.54s-0.152,0.311-0.263,0.445s-0.236,0.26-0.378,0.375c-0.142,0.114-0.292,0.222-0.449,0.32     c-0.112,0.076-0.245,0.161-0.398,0.253c-0.152,0.093-0.3,0.194-0.442,0.308c-0.142,0.112-0.267,0.234-0.374,0.367     c-0.108,0.133-0.176,0.278-0.203,0.436h2.626v0.392H81.559z"/>
			<path d="M87.786,116.262c0.214,0.15,0.38,0.343,0.5,0.577c0.119,0.233,0.2,0.495,0.242,0.782     c0.043,0.288,0.064,0.569,0.064,0.844c0,0.279-0.021,0.563-0.064,0.851c-0.042,0.288-0.123,0.55-0.242,0.783     c-0.12,0.234-0.286,0.426-0.5,0.574s-0.494,0.223-0.84,0.223c-0.343,0-0.621-0.074-0.838-0.223     c-0.216-0.148-0.383-0.34-0.502-0.574c-0.12-0.233-0.201-0.495-0.243-0.783c-0.043-0.287-0.064-0.569-0.064-0.844     c0-0.278,0.021-0.562,0.064-0.851c0.042-0.287,0.123-0.549,0.243-0.782c0.119-0.234,0.286-0.427,0.502-0.577     c0.217-0.151,0.495-0.227,0.838-0.227C87.292,116.035,87.572,116.11,87.786,116.262z M86.297,116.603     c-0.162,0.14-0.285,0.312-0.368,0.52s-0.138,0.432-0.165,0.675s-0.041,0.466-0.041,0.668c0,0.207,0.014,0.432,0.041,0.672     c0.027,0.241,0.082,0.466,0.165,0.675c0.083,0.21,0.206,0.384,0.368,0.523s0.378,0.209,0.648,0.209     c0.27,0,0.485-0.069,0.647-0.209s0.284-0.313,0.368-0.523c0.083-0.209,0.138-0.434,0.165-0.675     c0.027-0.24,0.041-0.465,0.041-0.672c0-0.202-0.014-0.425-0.041-0.668s-0.082-0.468-0.165-0.675     c-0.084-0.207-0.206-0.38-0.368-0.52s-0.378-0.21-0.647-0.21C86.675,116.393,86.459,116.463,86.297,116.603z"/>
			<path d="M91.539,116.262c0.214,0.15,0.38,0.343,0.5,0.577c0.119,0.233,0.2,0.495,0.242,0.782     c0.043,0.288,0.064,0.569,0.064,0.844c0,0.279-0.021,0.563-0.064,0.851c-0.042,0.288-0.123,0.55-0.242,0.783     c-0.12,0.234-0.286,0.426-0.5,0.574s-0.494,0.223-0.84,0.223c-0.343,0-0.621-0.074-0.838-0.223     c-0.216-0.148-0.383-0.34-0.502-0.574c-0.12-0.233-0.201-0.495-0.243-0.783c-0.043-0.287-0.064-0.569-0.064-0.844     c0-0.278,0.021-0.562,0.064-0.851c0.042-0.287,0.123-0.549,0.243-0.782c0.119-0.234,0.286-0.427,0.502-0.577     c0.217-0.151,0.495-0.227,0.838-0.227C91.044,116.035,91.325,116.11,91.539,116.262z M90.05,116.603     c-0.162,0.14-0.285,0.312-0.368,0.52s-0.138,0.432-0.165,0.675s-0.041,0.466-0.041,0.668c0,0.207,0.014,0.432,0.041,0.672     c0.027,0.241,0.082,0.466,0.165,0.675c0.083,0.21,0.206,0.384,0.368,0.523s0.378,0.209,0.648,0.209     c0.27,0,0.485-0.069,0.647-0.209s0.284-0.313,0.368-0.523c0.083-0.209,0.138-0.434,0.165-0.675     c0.027-0.24,0.041-0.465,0.041-0.672c0-0.202-0.014-0.425-0.041-0.668s-0.082-0.468-0.165-0.675     c-0.084-0.207-0.206-0.38-0.368-0.52s-0.378-0.21-0.647-0.21C90.428,116.393,90.212,116.463,90.05,116.603z"/>
			<path d="M95.957,116.137v0.392c-0.148,0.152-0.326,0.358-0.533,0.617s-0.408,0.567-0.604,0.925     c-0.195,0.357-0.366,0.766-0.513,1.222c-0.146,0.457-0.233,0.96-0.26,1.509h-0.459c0.026-0.4,0.082-0.778,0.165-1.134     s0.203-0.703,0.357-1.043c0.155-0.34,0.35-0.681,0.581-1.022s0.512-0.7,0.84-1.073h-2.611v-0.392H95.957z"/>
		</g>
	</g>
	<g>
		<g>
			<path d="M112.684,120.801c0.004-0.234,0.045-0.441,0.121-0.621c0.077-0.18,0.178-0.342,0.304-0.486     c0.126-0.144,0.268-0.275,0.426-0.395c0.157-0.119,0.319-0.233,0.485-0.344c0.167-0.11,0.332-0.224,0.496-0.338     c0.165-0.115,0.312-0.237,0.442-0.368c0.131-0.13,0.229-0.264,0.294-0.401s0.098-0.301,0.098-0.489     c0-0.153-0.028-0.289-0.084-0.408c-0.057-0.119-0.133-0.221-0.229-0.304c-0.097-0.084-0.21-0.146-0.338-0.189     s-0.265-0.064-0.408-0.064c-0.193,0-0.359,0.036-0.496,0.108c-0.138,0.072-0.249,0.169-0.334,0.29     c-0.086,0.122-0.147,0.262-0.186,0.419c-0.039,0.157-0.056,0.324-0.051,0.499h-0.426c-0.004-0.243,0.024-0.467,0.085-0.671     c0.061-0.205,0.154-0.382,0.28-0.53s0.284-0.265,0.476-0.348s0.415-0.125,0.672-0.125c0.207,0,0.399,0.028,0.577,0.085     c0.178,0.056,0.333,0.139,0.466,0.249c0.132,0.11,0.235,0.249,0.31,0.415c0.075,0.167,0.112,0.36,0.112,0.581     c0,0.198-0.033,0.378-0.099,0.54s-0.152,0.311-0.263,0.445s-0.236,0.26-0.378,0.375c-0.142,0.114-0.292,0.222-0.449,0.32     c-0.112,0.076-0.245,0.161-0.398,0.253c-0.152,0.093-0.3,0.194-0.442,0.308c-0.142,0.112-0.267,0.234-0.374,0.367     c-0.108,0.133-0.176,0.278-0.203,0.436h2.626v0.392H112.684z"/>
			<path d="M118.911,116.262c0.214,0.15,0.38,0.343,0.5,0.577c0.119,0.233,0.2,0.495,0.242,0.782     c0.043,0.288,0.064,0.569,0.064,0.844c0,0.279-0.021,0.563-0.064,0.851c-0.042,0.288-0.123,0.55-0.242,0.783     c-0.12,0.234-0.286,0.426-0.5,0.574s-0.494,0.223-0.84,0.223c-0.343,0-0.621-0.074-0.838-0.223     c-0.216-0.148-0.383-0.34-0.502-0.574c-0.12-0.233-0.201-0.495-0.243-0.783c-0.043-0.287-0.064-0.569-0.064-0.844     c0-0.278,0.021-0.562,0.064-0.851c0.042-0.287,0.123-0.549,0.243-0.782c0.119-0.234,0.286-0.427,0.502-0.577     c0.217-0.151,0.495-0.227,0.838-0.227C118.417,116.035,118.697,116.11,118.911,116.262z M117.422,116.603     c-0.162,0.14-0.285,0.312-0.368,0.52s-0.138,0.432-0.165,0.675s-0.041,0.466-0.041,0.668c0,0.207,0.014,0.432,0.041,0.672     c0.027,0.241,0.082,0.466,0.165,0.675c0.083,0.21,0.206,0.384,0.368,0.523s0.378,0.209,0.648,0.209     c0.27,0,0.485-0.069,0.647-0.209s0.284-0.313,0.368-0.523c0.083-0.209,0.138-0.434,0.165-0.675     c0.027-0.24,0.041-0.465,0.041-0.672c0-0.202-0.014-0.425-0.041-0.668s-0.082-0.468-0.165-0.675     c-0.084-0.207-0.206-0.38-0.368-0.52s-0.378-0.21-0.647-0.21C117.8,116.393,117.584,116.463,117.422,116.603z"/>
			<path d="M122.664,116.262c0.214,0.15,0.38,0.343,0.5,0.577c0.119,0.233,0.2,0.495,0.242,0.782     c0.043,0.288,0.064,0.569,0.064,0.844c0,0.279-0.021,0.563-0.064,0.851c-0.042,0.288-0.123,0.55-0.242,0.783     c-0.12,0.234-0.286,0.426-0.5,0.574s-0.494,0.223-0.84,0.223c-0.343,0-0.621-0.074-0.838-0.223     c-0.216-0.148-0.383-0.34-0.502-0.574c-0.12-0.233-0.201-0.495-0.243-0.783c-0.043-0.287-0.064-0.569-0.064-0.844     c0-0.278,0.021-0.562,0.064-0.851c0.042-0.287,0.123-0.549,0.243-0.782c0.119-0.234,0.286-0.427,0.502-0.577     c0.217-0.151,0.495-0.227,0.838-0.227C122.169,116.035,122.45,116.11,122.664,116.262z M121.175,116.603     c-0.162,0.14-0.285,0.312-0.368,0.52s-0.138,0.432-0.165,0.675s-0.041,0.466-0.041,0.668c0,0.207,0.014,0.432,0.041,0.672     c0.027,0.241,0.082,0.466,0.165,0.675c0.083,0.21,0.206,0.384,0.368,0.523s0.378,0.209,0.648,0.209     c0.27,0,0.485-0.069,0.647-0.209s0.284-0.313,0.368-0.523c0.083-0.209,0.138-0.434,0.165-0.675     c0.027-0.24,0.041-0.465,0.041-0.672c0-0.202-0.014-0.425-0.041-0.668s-0.082-0.468-0.165-0.675     c-0.084-0.207-0.206-0.38-0.368-0.52s-0.378-0.21-0.647-0.21C121.553,116.393,121.337,116.463,121.175,116.603z"/>
			<path d="M124.783,120.302c0.174,0.161,0.397,0.242,0.672,0.242c0.279,0,0.503-0.069,0.672-0.209s0.3-0.314,0.395-0.526     s0.157-0.439,0.189-0.686c0.031-0.245,0.047-0.476,0.047-0.691h-0.014c-0.112,0.234-0.282,0.423-0.51,0.566     c-0.227,0.145-0.476,0.217-0.745,0.217c-0.234,0-0.448-0.04-0.642-0.118c-0.193-0.079-0.357-0.188-0.493-0.328     c-0.135-0.139-0.239-0.306-0.313-0.499s-0.111-0.405-0.111-0.635s0.039-0.441,0.118-0.638c0.079-0.195,0.189-0.364,0.331-0.506     s0.311-0.254,0.506-0.334c0.196-0.081,0.411-0.122,0.645-0.122c0.288,0,0.535,0.044,0.742,0.132s0.379,0.231,0.514,0.432     s0.235,0.46,0.3,0.78c0.065,0.319,0.099,0.708,0.099,1.167c0,0.095-0.006,0.219-0.018,0.372     c-0.011,0.152-0.037,0.315-0.077,0.489c-0.041,0.173-0.098,0.349-0.172,0.526s-0.174,0.337-0.298,0.479     c-0.123,0.142-0.277,0.257-0.462,0.348c-0.185,0.09-0.405,0.135-0.661,0.135c-0.424,0-0.759-0.101-1.006-0.301     c-0.248-0.2-0.396-0.51-0.445-0.928h0.425C124.505,119.928,124.61,120.14,124.783,120.302z M125.992,118.759     c0.146-0.065,0.27-0.154,0.371-0.267c0.101-0.112,0.178-0.244,0.229-0.395c0.052-0.151,0.077-0.314,0.077-0.489     c0-0.171-0.022-0.33-0.067-0.477c-0.045-0.146-0.116-0.274-0.213-0.385s-0.219-0.196-0.367-0.26     c-0.148-0.062-0.326-0.095-0.533-0.095c-0.167,0-0.32,0.033-0.459,0.099c-0.14,0.065-0.26,0.152-0.361,0.263     s-0.179,0.24-0.233,0.389c-0.054,0.148-0.081,0.304-0.081,0.466c0,0.171,0.026,0.333,0.078,0.485     c0.052,0.153,0.126,0.286,0.223,0.398s0.216,0.201,0.357,0.267c0.143,0.065,0.303,0.098,0.483,0.098     C125.679,118.856,125.845,118.824,125.992,118.759z"/>
		</g>
	</g>
	<g>
		<g>
			<path d="M143.809,120.801c0.004-0.234,0.045-0.441,0.121-0.621c0.077-0.18,0.178-0.342,0.304-0.486     c0.126-0.144,0.268-0.275,0.426-0.395c0.157-0.119,0.319-0.233,0.485-0.344c0.167-0.11,0.332-0.224,0.496-0.338     c0.165-0.115,0.312-0.237,0.442-0.368c0.131-0.13,0.229-0.264,0.294-0.401s0.098-0.301,0.098-0.489     c0-0.153-0.028-0.289-0.084-0.408c-0.057-0.119-0.133-0.221-0.229-0.304c-0.097-0.084-0.21-0.146-0.338-0.189     s-0.265-0.064-0.408-0.064c-0.193,0-0.359,0.036-0.496,0.108c-0.138,0.072-0.249,0.169-0.334,0.29     c-0.086,0.122-0.147,0.262-0.186,0.419c-0.039,0.157-0.056,0.324-0.051,0.499h-0.426c-0.004-0.243,0.024-0.467,0.085-0.671     c0.061-0.205,0.154-0.382,0.28-0.53s0.284-0.265,0.476-0.348s0.415-0.125,0.672-0.125c0.207,0,0.399,0.028,0.577,0.085     c0.178,0.056,0.333,0.139,0.466,0.249c0.132,0.11,0.235,0.249,0.31,0.415c0.075,0.167,0.112,0.36,0.112,0.581     c0,0.198-0.033,0.378-0.099,0.54s-0.152,0.311-0.263,0.445s-0.236,0.26-0.378,0.375c-0.142,0.114-0.292,0.222-0.449,0.32     c-0.112,0.076-0.245,0.161-0.398,0.253c-0.152,0.093-0.3,0.194-0.442,0.308c-0.142,0.112-0.267,0.234-0.374,0.367     c-0.108,0.133-0.176,0.278-0.203,0.436h2.626v0.392H143.809z"/>
			<path d="M150.036,116.262c0.214,0.15,0.38,0.343,0.5,0.577c0.119,0.233,0.2,0.495,0.242,0.782     c0.043,0.288,0.064,0.569,0.064,0.844c0,0.279-0.021,0.563-0.064,0.851c-0.042,0.288-0.123,0.55-0.242,0.783     c-0.12,0.234-0.286,0.426-0.5,0.574s-0.494,0.223-0.84,0.223c-0.343,0-0.621-0.074-0.838-0.223     c-0.216-0.148-0.383-0.34-0.502-0.574c-0.12-0.233-0.201-0.495-0.243-0.783c-0.043-0.287-0.064-0.569-0.064-0.844     c0-0.278,0.021-0.562,0.064-0.851c0.042-0.287,0.123-0.549,0.243-0.782c0.119-0.234,0.286-0.427,0.502-0.577     c0.217-0.151,0.495-0.227,0.838-0.227C149.542,116.035,149.822,116.11,150.036,116.262z M148.547,116.603     c-0.162,0.14-0.285,0.312-0.368,0.52s-0.138,0.432-0.165,0.675s-0.041,0.466-0.041,0.668c0,0.207,0.014,0.432,0.041,0.672     c0.027,0.241,0.082,0.466,0.165,0.675c0.083,0.21,0.206,0.384,0.368,0.523s0.378,0.209,0.648,0.209     c0.27,0,0.485-0.069,0.647-0.209s0.284-0.313,0.368-0.523c0.083-0.209,0.138-0.434,0.165-0.675     c0.027-0.24,0.041-0.465,0.041-0.672c0-0.202-0.014-0.425-0.041-0.668s-0.082-0.468-0.165-0.675     c-0.084-0.207-0.206-0.38-0.368-0.52s-0.378-0.21-0.647-0.21C148.925,116.393,148.709,116.463,148.547,116.603z"/>
			<path d="M152.229,116.957c0.151-0.016,0.281-0.053,0.392-0.111s0.203-0.147,0.277-0.267s0.127-0.287,0.158-0.503h0.345v4.725     h-0.426v-3.51h-1.249v-0.304C151.911,116.982,152.079,116.973,152.229,116.957z"/>
			<path d="M155.982,116.957c0.151-0.016,0.281-0.053,0.392-0.111s0.203-0.147,0.277-0.267s0.127-0.287,0.158-0.503h0.345v4.725     h-0.426v-3.51h-1.249v-0.304C155.664,116.982,155.832,116.973,155.982,116.957z"/>
		</g>
	</g>
	<g>
		<g>
			<path d="M174.935,120.801c0.004-0.234,0.045-0.441,0.121-0.621c0.077-0.18,0.178-0.342,0.304-0.486     c0.126-0.144,0.268-0.275,0.426-0.395c0.157-0.119,0.319-0.233,0.485-0.344c0.167-0.11,0.332-0.224,0.496-0.338     c0.165-0.115,0.312-0.237,0.442-0.368c0.131-0.13,0.229-0.264,0.294-0.401s0.098-0.301,0.098-0.489     c0-0.153-0.028-0.289-0.084-0.408c-0.057-0.119-0.133-0.221-0.229-0.304c-0.097-0.084-0.21-0.146-0.338-0.189     s-0.265-0.064-0.408-0.064c-0.193,0-0.359,0.036-0.496,0.108c-0.138,0.072-0.249,0.169-0.334,0.29     c-0.086,0.122-0.147,0.262-0.186,0.419c-0.039,0.157-0.056,0.324-0.051,0.499h-0.426c-0.004-0.243,0.024-0.467,0.085-0.671     c0.061-0.205,0.154-0.382,0.28-0.53s0.284-0.265,0.476-0.348s0.415-0.125,0.672-0.125c0.207,0,0.399,0.028,0.577,0.085     c0.178,0.056,0.333,0.139,0.466,0.249c0.132,0.11,0.235,0.249,0.31,0.415c0.075,0.167,0.112,0.36,0.112,0.581     c0,0.198-0.033,0.378-0.099,0.54s-0.152,0.311-0.263,0.445s-0.236,0.26-0.378,0.375c-0.142,0.114-0.292,0.222-0.449,0.32     c-0.112,0.076-0.245,0.161-0.398,0.253c-0.152,0.093-0.3,0.194-0.442,0.308c-0.142,0.112-0.267,0.234-0.374,0.367     c-0.108,0.133-0.176,0.278-0.203,0.436h2.626v0.392H174.935z"/>
			<path d="M181.162,116.262c0.214,0.15,0.38,0.343,0.5,0.577c0.119,0.233,0.2,0.495,0.242,0.782     c0.043,0.288,0.064,0.569,0.064,0.844c0,0.279-0.021,0.563-0.064,0.851c-0.042,0.288-0.123,0.55-0.242,0.783     c-0.12,0.234-0.286,0.426-0.5,0.574s-0.494,0.223-0.84,0.223c-0.343,0-0.621-0.074-0.838-0.223     c-0.216-0.148-0.383-0.34-0.502-0.574c-0.12-0.233-0.201-0.495-0.243-0.783c-0.043-0.287-0.064-0.569-0.064-0.844     c0-0.278,0.021-0.562,0.064-0.851c0.042-0.287,0.123-0.549,0.243-0.782c0.119-0.234,0.286-0.427,0.502-0.577     c0.217-0.151,0.495-0.227,0.838-0.227C180.667,116.035,180.948,116.11,181.162,116.262z M179.673,116.603     c-0.162,0.14-0.285,0.312-0.368,0.52s-0.138,0.432-0.165,0.675s-0.041,0.466-0.041,0.668c0,0.207,0.014,0.432,0.041,0.672     c0.027,0.241,0.082,0.466,0.165,0.675c0.083,0.21,0.206,0.384,0.368,0.523s0.378,0.209,0.648,0.209     c0.27,0,0.485-0.069,0.647-0.209s0.284-0.313,0.368-0.523c0.083-0.209,0.138-0.434,0.165-0.675     c0.027-0.24,0.041-0.465,0.041-0.672c0-0.202-0.014-0.425-0.041-0.668s-0.082-0.468-0.165-0.675     c-0.084-0.207-0.206-0.38-0.368-0.52s-0.378-0.21-0.647-0.21C180.051,116.393,179.835,116.463,179.673,116.603z"/>
			<path d="M183.355,116.957c0.151-0.016,0.281-0.053,0.392-0.111s0.203-0.147,0.277-0.267s0.127-0.287,0.158-0.503h0.345v4.725     h-0.426v-3.51h-1.249v-0.304C183.037,116.982,183.205,116.973,183.355,116.957z"/>
			<path d="M186.663,119.809c0.052,0.153,0.129,0.283,0.229,0.392c0.102,0.107,0.228,0.192,0.378,0.253     c0.151,0.061,0.321,0.091,0.51,0.091c0.157,0,0.309-0.022,0.452-0.067c0.145-0.045,0.272-0.112,0.385-0.202     s0.203-0.2,0.271-0.331c0.067-0.13,0.101-0.278,0.101-0.445c0-0.171-0.029-0.318-0.087-0.442     c-0.059-0.123-0.14-0.227-0.243-0.311c-0.104-0.083-0.225-0.145-0.361-0.186c-0.138-0.04-0.285-0.061-0.442-0.061h-0.357v-0.357     h0.357c0.108,0,0.22-0.018,0.334-0.051c0.115-0.034,0.219-0.086,0.311-0.155c0.093-0.07,0.168-0.159,0.227-0.267     c0.059-0.108,0.088-0.236,0.088-0.385c0-0.157-0.027-0.291-0.081-0.401c-0.055-0.11-0.129-0.203-0.223-0.277     c-0.095-0.074-0.204-0.128-0.328-0.162c-0.123-0.033-0.257-0.051-0.401-0.051c-0.176,0-0.331,0.029-0.466,0.088     s-0.248,0.141-0.341,0.247c-0.092,0.105-0.161,0.231-0.206,0.378c-0.045,0.146-0.064,0.307-0.061,0.482h-0.425     c0-0.225,0.034-0.432,0.104-0.621c0.069-0.189,0.169-0.353,0.297-0.489c0.128-0.138,0.284-0.245,0.469-0.324     c0.185-0.078,0.392-0.118,0.621-0.118c0.185,0,0.364,0.023,0.54,0.071c0.176,0.047,0.332,0.119,0.47,0.216     c0.137,0.097,0.247,0.221,0.33,0.371s0.125,0.332,0.125,0.543c0,0.257-0.068,0.479-0.206,0.669     c-0.137,0.188-0.334,0.314-0.59,0.378v0.014c0.31,0.049,0.55,0.179,0.719,0.388c0.168,0.209,0.253,0.469,0.253,0.779     c0,0.234-0.044,0.44-0.132,0.618s-0.206,0.327-0.354,0.449c-0.148,0.121-0.321,0.212-0.52,0.272     c-0.198,0.062-0.405,0.092-0.621,0.092c-0.243,0-0.467-0.036-0.672-0.108c-0.204-0.071-0.38-0.176-0.526-0.311     s-0.256-0.301-0.331-0.499c-0.074-0.198-0.102-0.426-0.084-0.682h0.426C186.589,119.484,186.611,119.655,186.663,119.809z"/>
		</g>
	</g>
	<g>
		<g>
			<path d="M206.061,120.801c0.004-0.234,0.045-0.441,0.121-0.621c0.077-0.18,0.178-0.342,0.304-0.486     c0.126-0.144,0.268-0.275,0.426-0.395c0.157-0.119,0.319-0.233,0.485-0.344c0.167-0.11,0.332-0.224,0.496-0.338     c0.165-0.115,0.312-0.237,0.442-0.368c0.131-0.13,0.229-0.264,0.294-0.401s0.098-0.301,0.098-0.489     c0-0.153-0.028-0.289-0.084-0.408c-0.057-0.119-0.133-0.221-0.229-0.304c-0.097-0.084-0.21-0.146-0.338-0.189     s-0.265-0.064-0.408-0.064c-0.193,0-0.359,0.036-0.496,0.108c-0.138,0.072-0.249,0.169-0.334,0.29     c-0.086,0.122-0.147,0.262-0.186,0.419c-0.039,0.157-0.056,0.324-0.051,0.499h-0.426c-0.004-0.243,0.024-0.467,0.085-0.671     c0.061-0.205,0.154-0.382,0.28-0.53s0.284-0.265,0.476-0.348s0.415-0.125,0.672-0.125c0.207,0,0.399,0.028,0.577,0.085     c0.178,0.056,0.333,0.139,0.466,0.249c0.132,0.11,0.235,0.249,0.31,0.415c0.075,0.167,0.112,0.36,0.112,0.581     c0,0.198-0.033,0.378-0.099,0.54s-0.152,0.311-0.263,0.445s-0.236,0.26-0.378,0.375c-0.142,0.114-0.292,0.222-0.449,0.32     c-0.112,0.076-0.245,0.161-0.398,0.253c-0.152,0.093-0.3,0.194-0.442,0.308c-0.142,0.112-0.267,0.234-0.374,0.367     c-0.108,0.133-0.176,0.278-0.203,0.436h2.626v0.392H206.061z"/>
			<path d="M212.288,116.262c0.214,0.15,0.38,0.343,0.5,0.577c0.119,0.233,0.2,0.495,0.242,0.782     c0.043,0.288,0.064,0.569,0.064,0.844c0,0.279-0.021,0.563-0.064,0.851c-0.042,0.288-0.123,0.55-0.242,0.783     c-0.12,0.234-0.286,0.426-0.5,0.574s-0.494,0.223-0.84,0.223c-0.343,0-0.621-0.074-0.838-0.223     c-0.216-0.148-0.383-0.34-0.502-0.574c-0.12-0.233-0.201-0.495-0.243-0.783c-0.043-0.287-0.064-0.569-0.064-0.844     c0-0.278,0.021-0.562,0.064-0.851c0.042-0.287,0.123-0.549,0.243-0.782c0.119-0.234,0.286-0.427,0.502-0.577     c0.217-0.151,0.495-0.227,0.838-0.227C211.793,116.035,212.074,116.11,212.288,116.262z M210.799,116.603     c-0.162,0.14-0.285,0.312-0.368,0.52s-0.138,0.432-0.165,0.675s-0.041,0.466-0.041,0.668c0,0.207,0.014,0.432,0.041,0.672     c0.027,0.241,0.082,0.466,0.165,0.675c0.083,0.21,0.206,0.384,0.368,0.523s0.378,0.209,0.648,0.209     c0.27,0,0.485-0.069,0.647-0.209s0.284-0.313,0.368-0.523c0.083-0.209,0.138-0.434,0.165-0.675     c0.027-0.24,0.041-0.465,0.041-0.672c0-0.202-0.014-0.425-0.041-0.668s-0.082-0.468-0.165-0.675     c-0.084-0.207-0.206-0.38-0.368-0.52s-0.378-0.21-0.647-0.21C211.177,116.393,210.961,116.463,210.799,116.603z"/>
			<path d="M214.481,116.957c0.151-0.016,0.281-0.053,0.392-0.111s0.203-0.147,0.277-0.267s0.127-0.287,0.158-0.503h0.345v4.725     h-0.426v-3.51h-1.249v-0.304C214.163,116.982,214.331,116.973,214.481,116.957z"/>
			<path d="M217.843,119.896c0.061,0.135,0.143,0.251,0.246,0.348s0.225,0.171,0.364,0.223s0.29,0.077,0.452,0.077     c0.185,0,0.349-0.034,0.493-0.104c0.144-0.069,0.268-0.164,0.371-0.283s0.183-0.257,0.236-0.412s0.081-0.318,0.081-0.489     c0-0.176-0.03-0.337-0.092-0.486c-0.061-0.148-0.144-0.277-0.249-0.388c-0.106-0.11-0.233-0.196-0.382-0.26     s-0.311-0.095-0.485-0.095c-0.217,0-0.417,0.049-0.602,0.146s-0.335,0.235-0.452,0.415h-0.364l0.459-2.45h2.362v0.392h-2.065     l-0.304,1.565l0.014,0.014c0.117-0.14,0.266-0.247,0.445-0.324c0.18-0.076,0.364-0.114,0.554-0.114     c0.243,0,0.462,0.04,0.658,0.121c0.195,0.081,0.362,0.193,0.499,0.338c0.138,0.144,0.243,0.316,0.317,0.517     s0.111,0.419,0.111,0.658c0,0.229-0.043,0.441-0.128,0.638c-0.086,0.195-0.202,0.364-0.352,0.506     c-0.148,0.142-0.322,0.252-0.522,0.331c-0.2,0.078-0.413,0.118-0.638,0.118c-0.221,0-0.425-0.033-0.611-0.098     c-0.187-0.065-0.349-0.16-0.486-0.284c-0.137-0.123-0.246-0.275-0.327-0.455c-0.081-0.181-0.124-0.383-0.128-0.607h0.425     C217.75,119.612,217.782,119.762,217.843,119.896z"/>
		</g>
	</g>
	<g>
		<g>
			<path d="M237.186,120.801c0.004-0.234,0.045-0.441,0.121-0.621c0.077-0.18,0.178-0.342,0.304-0.486     c0.126-0.144,0.268-0.275,0.426-0.395c0.157-0.119,0.319-0.233,0.485-0.344c0.167-0.11,0.332-0.224,0.496-0.338     c0.165-0.115,0.312-0.237,0.442-0.368c0.131-0.13,0.229-0.264,0.294-0.401s0.098-0.301,0.098-0.489     c0-0.153-0.028-0.289-0.084-0.408c-0.057-0.119-0.133-0.221-0.229-0.304c-0.097-0.084-0.21-0.146-0.338-0.189     s-0.265-0.064-0.408-0.064c-0.193,0-0.359,0.036-0.496,0.108c-0.138,0.072-0.249,0.169-0.334,0.29     c-0.086,0.122-0.147,0.262-0.186,0.419c-0.039,0.157-0.056,0.324-0.051,0.499H237.3c-0.004-0.243,0.024-0.467,0.085-0.671     c0.061-0.205,0.154-0.382,0.28-0.53s0.284-0.265,0.476-0.348s0.415-0.125,0.672-0.125c0.207,0,0.399,0.028,0.577,0.085     c0.178,0.056,0.333,0.139,0.466,0.249c0.132,0.11,0.235,0.249,0.31,0.415c0.075,0.167,0.112,0.36,0.112,0.581     c0,0.198-0.033,0.378-0.099,0.54s-0.152,0.311-0.263,0.445s-0.236,0.26-0.378,0.375c-0.142,0.114-0.292,0.222-0.449,0.32     c-0.112,0.076-0.245,0.161-0.398,0.253c-0.152,0.093-0.3,0.194-0.442,0.308c-0.142,0.112-0.267,0.234-0.374,0.367     c-0.108,0.133-0.176,0.278-0.203,0.436h2.626v0.392H237.186z"/>
			<path d="M243.413,116.262c0.214,0.15,0.38,0.343,0.5,0.577c0.119,0.233,0.2,0.495,0.242,0.782     c0.043,0.288,0.064,0.569,0.064,0.844c0,0.279-0.021,0.563-0.064,0.851c-0.042,0.288-0.123,0.55-0.242,0.783     c-0.12,0.234-0.286,0.426-0.5,0.574s-0.494,0.223-0.84,0.223c-0.343,0-0.621-0.074-0.838-0.223     c-0.216-0.148-0.383-0.34-0.502-0.574c-0.12-0.233-0.201-0.495-0.243-0.783c-0.043-0.287-0.064-0.569-0.064-0.844     c0-0.278,0.021-0.562,0.064-0.851c0.042-0.287,0.123-0.549,0.243-0.782c0.119-0.234,0.286-0.427,0.502-0.577     c0.217-0.151,0.495-0.227,0.838-0.227C242.918,116.035,243.199,116.11,243.413,116.262z M241.924,116.603     c-0.162,0.14-0.285,0.312-0.368,0.52s-0.138,0.432-0.165,0.675s-0.041,0.466-0.041,0.668c0,0.207,0.014,0.432,0.041,0.672     c0.027,0.241,0.082,0.466,0.165,0.675c0.083,0.21,0.206,0.384,0.368,0.523s0.378,0.209,0.648,0.209     c0.27,0,0.485-0.069,0.647-0.209s0.284-0.313,0.368-0.523c0.083-0.209,0.138-0.434,0.165-0.675     c0.027-0.24,0.041-0.465,0.041-0.672c0-0.202-0.014-0.425-0.041-0.668s-0.082-0.468-0.165-0.675     c-0.084-0.207-0.206-0.38-0.368-0.52s-0.378-0.21-0.647-0.21C242.302,116.393,242.086,116.463,241.924,116.603z"/>
			<path d="M245.606,116.957c0.151-0.016,0.281-0.053,0.392-0.111s0.203-0.147,0.277-0.267s0.127-0.287,0.158-0.503h0.345v4.725     h-0.426v-3.51h-1.249v-0.304C245.288,116.982,245.456,116.973,245.606,116.957z"/>
			<path d="M251.583,116.137v0.392c-0.148,0.152-0.326,0.358-0.533,0.617s-0.408,0.567-0.604,0.925     c-0.195,0.357-0.366,0.766-0.513,1.222c-0.146,0.457-0.233,0.96-0.26,1.509h-0.459c0.026-0.4,0.082-0.778,0.165-1.134     s0.203-0.703,0.357-1.043c0.155-0.34,0.35-0.681,0.581-1.022s0.512-0.7,0.84-1.073h-2.611v-0.392H251.583z"/>
		</g>
	</g>
	
		<line fill="none" stroke="#000000" stroke-width="0.5" stroke-linejoin="round" stroke-miterlimit="10" x1="26.569" y1="110.555" x2="26.569" y2="113.421"/>
	
		<line fill="none" stroke="#000000" stroke-width="0.5" stroke-linejoin="round" stroke-miterlimit="10" x1="23.703" y1="110.555" x2="26.569" y2="110.555"/>
	
		<line fill="none" stroke="#000000" stroke-width="0.5" stroke-linejoin="round" stroke-miterlimit="10" x1="23.703" y1="100.18" x2="26.569" y2="100.18"/>
	
		<line fill="none" stroke="#000000" stroke-width="0.5" stroke-linejoin="round" stroke-miterlimit="10" x1="23.703" y1="89.804" x2="26.569" y2="89.804"/>
	
		<line fill="none" stroke="#000000" stroke-width="0.5" stroke-linejoin="round" stroke-miterlimit="10" x1="23.703" y1="79.428" x2="26.569" y2="79.428"/>
	
		<line fill="none" stroke="#000000" stroke-width="0.5" stroke-linejoin="round" stroke-miterlimit="10" x1="23.703" y1="69.053" x2="26.569" y2="69.053"/>
	
		<line fill="none" stroke="#000000" stroke-width="0.5" stroke-linejoin="round" stroke-miterlimit="10" x1="23.703" y1="58.677" x2="26.569" y2="58.677"/>
	
		<line fill="none" stroke="#000000" stroke-width="0.5" stroke-linejoin="round" stroke-miterlimit="10" x1="23.703" y1="48.302" x2="26.569" y2="48.302"/>
	
		<line fill="none" stroke="#000000" stroke-width="0.5" stroke-linejoin="round" stroke-miterlimit="10" x1="23.703" y1="37.926" x2="26.569" y2="37.926"/>
	
		<line fill="none" stroke="#000000" stroke-width="0.5" stroke-linejoin="round" stroke-miterlimit="10" x1="23.703" y1="27.55" x2="26.569" y2="27.55"/>
	
		<line fill="none" stroke="#000000" stroke-width="0.5" stroke-linejoin="round" stroke-miterlimit="10" x1="23.703" y1="17.175" x2="26.569" y2="17.175"/>
	
		<line fill="none" stroke="#000000" stroke-width="0.5" stroke-linejoin="round" stroke-miterlimit="10" x1="23.703" y1="6.799" x2="26.569" y2="6.799"/>
	
		<line fill="none" stroke="#000000" stroke-width="0.5" stroke-linejoin="round" stroke-miterlimit="10" x1="57.695" y1="110.555" x2="57.695" y2="113.421"/>
	
		<line fill="none" stroke="#000000" stroke-width="0.5" stroke-linejoin="round" stroke-miterlimit="10" x1="88.821" y1="110.555" x2="88.821" y2="113.421"/>
	
		<line fill="none" stroke="#000000" stroke-width="0.5" stroke-linejoin="round" stroke-miterlimit="10" x1="119.947" y1="110.555" x2="119.947" y2="113.421"/>
	
		<line fill="none" stroke="#000000" stroke-width="0.5" stroke-linejoin="round" stroke-miterlimit="10" x1="151.073" y1="110.555" x2="151.073" y2="113.421"/>
	
		<line fill="none" stroke="#000000" stroke-width="0.5" stroke-linejoin="round" stroke-miterlimit="10" x1="182.199" y1="110.555" x2="182.199" y2="113.421"/>
	
		<line fill="none" stroke="#000000" stroke-width="0.5" stroke-linejoin="round" stroke-miterlimit="10" x1="213.325" y1="110.555" x2="213.325" y2="113.421"/>
	
		<line fill="none" stroke="#000000" stroke-width="0.5" stroke-linejoin="round" stroke-miterlimit="10" x1="244.451" y1="110.555" x2="244.451" y2="113.421"/>
	<g>
		<defs>
			<rect id="SVGID_1_" x="26.569" y="6.733" width="225.663" height="103.821"/>
		</defs>
		<clipPath id="SVGID_2_">
			<use xlink:href="#SVGID_1_" overflow="visible"/>
		</clipPath>
		
			<polyline clip-path="url(#SVGID_2_)" fill="none" stroke="#7A9AA8" stroke-width="2.5" stroke-linecap="round" stroke-linejoin="round" stroke-miterlimit="10" points="    26.569,51.57 42.122,34.245 57.689,16.581 73.257,23.701 88.825,34.415 104.393,28.64 119.96,56.176 135.529,47.807     151.096,50.903 166.665,76.847 182.232,80.366 197.8,98.946 213.284,105.489 228.851,103.801 244.451,93.256   "/>
	</g>
	<polyline fill="none" stroke="#000000" stroke-width="0.5" stroke-linecap="square" stroke-miterlimit="10" points="   252.232,110.555 26.569,110.555 26.569,6.799  "/>
</g>
</svg>