<svg xmlns="http://www.w3.org/2000/svg" xmlns:xlink="http://www.w3.org/1999/xlink" version="1.1" id="Layer_1" x="0px" y="0px" width="268.539px" height="147.165px" viewBox="0 0 268.539 147.165" enable-background="new 0 0 268.539 147.165" xml:space="preserve">
<line fill="none" stroke="#CCCCCC" stroke-width="0.5" stroke-miterlimit="10" x1="32.559" y1="108.347" x2="268.289" y2="108.347"/>
<line fill="none" stroke="#CCCCCC" stroke-width="0.5" stroke-miterlimit="10" x1="32.559" y1="81.859" x2="268.289" y2="81.859"/>
<line fill="none" stroke="#CCCCCC" stroke-width="0.5" stroke-miterlimit="10" x1="32.559" y1="55.372" x2="268.289" y2="55.372"/>
<line fill="none" stroke="#CCCCCC" stroke-width="0.5" stroke-miterlimit="10" x1="32.559" y1="28.884" x2="268.289" y2="28.884"/>
<line fill="none" stroke="#CCCCCC" stroke-width="0.5" stroke-miterlimit="10" x1="32.559" y1="2.396" x2="268.289" y2="2.396"/>
<g>
	<path d="M16.18,0.922c0.15-0.016,0.281-0.053,0.392-0.111c0.11-0.059,0.202-0.147,0.276-0.267s0.127-0.287,0.159-0.503h0.344v4.725   h-0.425v-3.51h-1.249V0.952C15.861,0.947,16.029,0.938,16.18,0.922z"/>
	<path d="M19.018,4.766c0.004-0.234,0.045-0.441,0.121-0.621c0.077-0.18,0.178-0.342,0.304-0.486   c0.125-0.144,0.268-0.275,0.425-0.395c0.158-0.119,0.32-0.233,0.486-0.344s0.332-0.224,0.496-0.338   c0.164-0.115,0.312-0.237,0.442-0.368c0.131-0.13,0.229-0.264,0.294-0.401c0.065-0.138,0.098-0.301,0.098-0.489   c0-0.153-0.028-0.289-0.084-0.408s-0.133-0.221-0.229-0.304c-0.097-0.084-0.209-0.146-0.337-0.189s-0.264-0.064-0.408-0.064   c-0.194,0-0.359,0.036-0.496,0.108c-0.138,0.072-0.249,0.169-0.334,0.29c-0.085,0.122-0.147,0.262-0.186,0.419   s-0.055,0.324-0.05,0.499h-0.425c-0.005-0.243,0.023-0.467,0.084-0.671c0.061-0.205,0.154-0.382,0.28-0.53s0.285-0.265,0.476-0.348   C20.164,0.042,20.388,0,20.645,0c0.207,0,0.399,0.028,0.577,0.085c0.178,0.056,0.333,0.139,0.466,0.249s0.236,0.249,0.311,0.415   c0.074,0.167,0.111,0.36,0.111,0.581c0,0.198-0.033,0.378-0.098,0.54c-0.065,0.162-0.153,0.311-0.264,0.445   c-0.11,0.135-0.236,0.26-0.378,0.375c-0.142,0.114-0.291,0.222-0.449,0.32c-0.112,0.076-0.245,0.161-0.398,0.253   c-0.153,0.093-0.3,0.194-0.442,0.308c-0.142,0.112-0.267,0.234-0.375,0.367s-0.176,0.278-0.203,0.436h2.626v0.392H19.018z"/>
	<path d="M25.245,0.227c0.214,0.15,0.38,0.343,0.5,0.577c0.119,0.233,0.2,0.495,0.243,0.782c0.042,0.288,0.064,0.569,0.064,0.844   c0,0.279-0.021,0.563-0.064,0.851c-0.043,0.288-0.124,0.55-0.243,0.783c-0.119,0.234-0.286,0.426-0.5,0.574   s-0.494,0.223-0.84,0.223c-0.342,0-0.621-0.074-0.837-0.223s-0.384-0.34-0.503-0.574c-0.119-0.233-0.2-0.495-0.243-0.783   c-0.042-0.287-0.064-0.569-0.064-0.844c0-0.278,0.021-0.562,0.064-0.851c0.043-0.287,0.124-0.549,0.243-0.782   c0.119-0.234,0.287-0.427,0.503-0.577C23.783,0.075,24.062,0,24.404,0C24.751,0,25.031,0.075,25.245,0.227z M23.756,0.567   c-0.162,0.14-0.285,0.312-0.368,0.52c-0.083,0.207-0.139,0.432-0.166,0.675s-0.041,0.466-0.041,0.668   c0,0.207,0.014,0.432,0.041,0.672c0.027,0.241,0.082,0.466,0.166,0.675c0.083,0.21,0.206,0.384,0.368,0.523   s0.378,0.209,0.648,0.209S24.89,4.439,25.052,4.3s0.285-0.313,0.368-0.523c0.083-0.209,0.138-0.434,0.165-0.675   c0.027-0.24,0.041-0.465,0.041-0.672c0-0.202-0.013-0.425-0.041-0.668c-0.027-0.243-0.082-0.468-0.165-0.675   c-0.083-0.207-0.206-0.38-0.368-0.52s-0.378-0.21-0.648-0.21S23.918,0.428,23.756,0.567z"/>
</g>
<g>
	<path d="M16.18,27.8c0.15-0.016,0.281-0.053,0.392-0.111c0.11-0.059,0.202-0.147,0.276-0.267s0.127-0.287,0.159-0.503h0.344v4.725   h-0.425v-3.51h-1.249V27.83C15.861,27.825,16.029,27.815,16.18,27.8z"/>
	<path d="M21.492,27.104c0.214,0.15,0.38,0.343,0.5,0.577c0.119,0.233,0.2,0.495,0.243,0.782c0.042,0.288,0.064,0.569,0.064,0.844   c0,0.279-0.021,0.563-0.064,0.851c-0.043,0.288-0.124,0.55-0.243,0.783c-0.119,0.234-0.286,0.426-0.5,0.574   s-0.494,0.223-0.84,0.223c-0.342,0-0.621-0.074-0.837-0.223s-0.384-0.34-0.503-0.574c-0.119-0.233-0.2-0.495-0.243-0.783   c-0.042-0.287-0.064-0.569-0.064-0.844c0-0.278,0.021-0.562,0.064-0.851c0.043-0.287,0.124-0.549,0.243-0.782   c0.119-0.234,0.287-0.427,0.503-0.577c0.216-0.151,0.495-0.227,0.837-0.227C20.998,26.878,21.278,26.953,21.492,27.104z    M20.003,27.445c-0.162,0.14-0.285,0.312-0.368,0.52c-0.083,0.207-0.139,0.432-0.166,0.675s-0.041,0.466-0.041,0.668   c0,0.207,0.014,0.432,0.041,0.672c0.027,0.241,0.082,0.466,0.166,0.675c0.083,0.21,0.206,0.384,0.368,0.523   s0.378,0.209,0.648,0.209s0.486-0.069,0.648-0.209s0.285-0.313,0.368-0.523c0.083-0.209,0.138-0.434,0.165-0.675   c0.027-0.24,0.041-0.465,0.041-0.672c0-0.202-0.013-0.425-0.041-0.668c-0.027-0.243-0.082-0.468-0.165-0.675   c-0.083-0.207-0.206-0.38-0.368-0.52s-0.378-0.21-0.648-0.21S20.166,27.306,20.003,27.445z"/>
	<path d="M25.245,27.104c0.214,0.15,0.38,0.343,0.5,0.577c0.119,0.233,0.2,0.495,0.243,0.782c0.042,0.288,0.064,0.569,0.064,0.844   c0,0.279-0.021,0.563-0.064,0.851c-0.043,0.288-0.124,0.55-0.243,0.783c-0.119,0.234-0.286,0.426-0.5,0.574   s-0.494,0.223-0.84,0.223c-0.342,0-0.621-0.074-0.837-0.223s-0.384-0.34-0.503-0.574c-0.119-0.233-0.2-0.495-0.243-0.783   c-0.042-0.287-0.064-0.569-0.064-0.844c0-0.278,0.021-0.562,0.064-0.851c0.043-0.287,0.124-0.549,0.243-0.782   c0.119-0.234,0.287-0.427,0.503-0.577c0.216-0.151,0.495-0.227,0.837-0.227C24.751,26.878,25.031,26.953,25.245,27.104z    M23.756,27.445c-0.162,0.14-0.285,0.312-0.368,0.52c-0.083,0.207-0.139,0.432-0.166,0.675s-0.041,0.466-0.041,0.668   c0,0.207,0.014,0.432,0.041,0.672c0.027,0.241,0.082,0.466,0.166,0.675c0.083,0.21,0.206,0.384,0.368,0.523   s0.378,0.209,0.648,0.209s0.486-0.069,0.648-0.209s0.285-0.313,0.368-0.523c0.083-0.209,0.138-0.434,0.165-0.675   c0.027-0.24,0.041-0.465,0.041-0.672c0-0.202-0.013-0.425-0.041-0.668c-0.027-0.243-0.082-0.468-0.165-0.675   c-0.083-0.207-0.206-0.38-0.368-0.52s-0.378-0.21-0.648-0.21S23.918,27.306,23.756,27.445z"/>
</g>
<g>
	<path d="M21.88,55.268c-0.135,0.182-0.324,0.31-0.567,0.381v0.014c0.311,0.063,0.549,0.199,0.715,0.408s0.25,0.476,0.25,0.8   c0,0.239-0.043,0.447-0.128,0.625s-0.203,0.325-0.351,0.441c-0.148,0.117-0.32,0.205-0.516,0.264s-0.406,0.088-0.631,0.088   c-0.221,0-0.43-0.029-0.628-0.088c-0.198-0.059-0.371-0.146-0.52-0.264c-0.148-0.116-0.266-0.264-0.351-0.441   s-0.128-0.386-0.128-0.625c0.009-0.311,0.097-0.576,0.264-0.796c0.166-0.221,0.398-0.358,0.695-0.412v-0.014   c-0.247-0.076-0.438-0.203-0.57-0.381s-0.199-0.397-0.199-0.658c0-0.203,0.042-0.378,0.125-0.526   c0.083-0.148,0.192-0.271,0.328-0.368c0.135-0.097,0.288-0.169,0.459-0.216c0.171-0.048,0.344-0.071,0.52-0.071   c0.176,0,0.349,0.023,0.52,0.071c0.171,0.047,0.325,0.119,0.462,0.216c0.137,0.097,0.247,0.22,0.331,0.368   c0.083,0.148,0.125,0.323,0.125,0.526C22.083,54.865,22.015,55.085,21.88,55.268z M21.121,57.873   c0.146-0.043,0.273-0.108,0.381-0.196s0.193-0.199,0.256-0.334s0.095-0.292,0.095-0.473c0-0.171-0.033-0.32-0.098-0.448   c-0.065-0.129-0.153-0.236-0.263-0.324s-0.238-0.153-0.385-0.196c-0.146-0.042-0.298-0.062-0.456-0.057   c-0.162-0.005-0.316,0.013-0.462,0.054c-0.146,0.04-0.273,0.104-0.381,0.192s-0.195,0.197-0.26,0.327   c-0.065,0.131-0.098,0.281-0.098,0.452c0,0.176,0.032,0.331,0.095,0.466s0.148,0.246,0.256,0.334s0.235,0.154,0.381,0.199   c0.146,0.045,0.303,0.067,0.469,0.067S20.974,57.916,21.121,57.873z M21.029,55.442c0.122-0.033,0.229-0.086,0.321-0.158   s0.167-0.164,0.223-0.276c0.056-0.113,0.084-0.246,0.084-0.398c0-0.136-0.026-0.255-0.078-0.358s-0.123-0.188-0.213-0.256   c-0.09-0.067-0.195-0.119-0.317-0.155s-0.254-0.055-0.398-0.055c-0.13,0-0.256,0.019-0.378,0.055s-0.229,0.088-0.324,0.155   c-0.094,0.067-0.17,0.152-0.226,0.256s-0.084,0.223-0.084,0.358c0,0.157,0.029,0.292,0.088,0.404   c0.059,0.113,0.135,0.205,0.229,0.277c0.095,0.072,0.203,0.124,0.324,0.155s0.245,0.045,0.371,0.04   C20.782,55.491,20.908,55.477,21.029,55.442z"/>
	<path d="M25.245,53.654c0.214,0.15,0.38,0.343,0.5,0.577c0.119,0.233,0.2,0.495,0.243,0.782c0.042,0.288,0.064,0.569,0.064,0.844   c0,0.279-0.021,0.563-0.064,0.851c-0.043,0.288-0.124,0.55-0.243,0.783c-0.119,0.234-0.286,0.426-0.5,0.574   s-0.494,0.223-0.84,0.223c-0.342,0-0.621-0.074-0.837-0.223s-0.384-0.34-0.503-0.574c-0.119-0.233-0.2-0.495-0.243-0.783   c-0.042-0.287-0.064-0.569-0.064-0.844c0-0.278,0.021-0.562,0.064-0.851c0.043-0.287,0.124-0.549,0.243-0.782   c0.119-0.234,0.287-0.427,0.503-0.577c0.216-0.151,0.495-0.227,0.837-0.227C24.751,53.428,25.031,53.503,25.245,53.654z    M23.756,53.995c-0.162,0.14-0.285,0.312-0.368,0.52c-0.083,0.207-0.139,0.432-0.166,0.675s-0.041,0.466-0.041,0.668   c0,0.207,0.014,0.432,0.041,0.672c0.027,0.241,0.082,0.466,0.166,0.675c0.083,0.21,0.206,0.384,0.368,0.523   s0.378,0.209,0.648,0.209s0.486-0.069,0.648-0.209s0.285-0.313,0.368-0.523c0.083-0.209,0.138-0.434,0.165-0.675   c0.027-0.24,0.041-0.465,0.041-0.672c0-0.202-0.013-0.425-0.041-0.668c-0.027-0.243-0.082-0.468-0.165-0.675   c-0.083-0.207-0.206-0.38-0.368-0.52s-0.378-0.21-0.648-0.21S23.918,53.855,23.756,53.995z"/>
</g>
<g>
	<path d="M21.444,80.579c-0.173-0.162-0.397-0.243-0.671-0.243s-0.498,0.07-0.668,0.21s-0.304,0.314-0.398,0.526   c-0.095,0.212-0.158,0.439-0.189,0.685c-0.032,0.246-0.047,0.477-0.047,0.692h0.014c0.112-0.234,0.282-0.423,0.509-0.567   c0.227-0.144,0.476-0.216,0.746-0.216c0.238,0,0.453,0.04,0.645,0.118c0.191,0.079,0.354,0.188,0.489,0.327   c0.135,0.14,0.24,0.307,0.314,0.5s0.111,0.405,0.111,0.635s-0.04,0.441-0.118,0.638c-0.079,0.195-0.189,0.364-0.331,0.506   s-0.311,0.252-0.506,0.331c-0.196,0.078-0.411,0.118-0.645,0.118c-0.288,0-0.536-0.044-0.743-0.132s-0.378-0.23-0.513-0.429   c-0.135-0.198-0.235-0.455-0.301-0.772c-0.065-0.317-0.098-0.708-0.098-1.172c0-0.094,0.005-0.218,0.017-0.371   c0.011-0.152,0.037-0.315,0.077-0.489c0.041-0.173,0.098-0.349,0.172-0.526s0.173-0.339,0.297-0.482   c0.124-0.145,0.278-0.261,0.462-0.352c0.185-0.09,0.405-0.135,0.662-0.135c0.423,0,0.758,0.102,1.006,0.304   c0.247,0.203,0.396,0.513,0.445,0.932h-0.425C21.722,80.953,21.618,80.741,21.444,80.579z M20.236,82.122   c-0.146,0.065-0.27,0.154-0.371,0.267c-0.102,0.112-0.178,0.244-0.229,0.395c-0.052,0.151-0.078,0.313-0.078,0.489   c0,0.167,0.022,0.324,0.067,0.473s0.116,0.278,0.212,0.388c0.097,0.11,0.22,0.197,0.368,0.261c0.148,0.062,0.326,0.094,0.533,0.094   c0.171,0,0.325-0.032,0.462-0.098c0.137-0.065,0.256-0.152,0.357-0.263c0.102-0.11,0.179-0.24,0.233-0.389   c0.054-0.148,0.081-0.304,0.081-0.466c0-0.171-0.026-0.333-0.078-0.485c-0.052-0.153-0.126-0.286-0.223-0.398   s-0.216-0.201-0.358-0.267c-0.142-0.065-0.303-0.099-0.482-0.099C20.548,82.023,20.382,82.057,20.236,82.122z"/>
	<path d="M25.245,80.205c0.214,0.15,0.38,0.343,0.5,0.577c0.119,0.233,0.2,0.495,0.243,0.782c0.042,0.288,0.064,0.569,0.064,0.844   c0,0.279-0.021,0.563-0.064,0.851c-0.043,0.288-0.124,0.55-0.243,0.783c-0.119,0.234-0.286,0.426-0.5,0.574   s-0.494,0.223-0.84,0.223c-0.342,0-0.621-0.074-0.837-0.223s-0.384-0.34-0.503-0.574c-0.119-0.233-0.2-0.495-0.243-0.783   c-0.042-0.287-0.064-0.569-0.064-0.844c0-0.278,0.021-0.562,0.064-0.851c0.043-0.287,0.124-0.549,0.243-0.782   c0.119-0.234,0.287-0.427,0.503-0.577c0.216-0.151,0.495-0.227,0.837-0.227C24.751,79.979,25.031,80.054,25.245,80.205z    M23.756,80.546c-0.162,0.14-0.285,0.312-0.368,0.52c-0.083,0.207-0.139,0.432-0.166,0.675s-0.041,0.466-0.041,0.668   c0,0.207,0.014,0.432,0.041,0.672c0.027,0.241,0.082,0.466,0.166,0.675c0.083,0.21,0.206,0.384,0.368,0.523   s0.378,0.209,0.648,0.209s0.486-0.069,0.648-0.209s0.285-0.313,0.368-0.523c0.083-0.209,0.138-0.434,0.165-0.675   c0.027-0.24,0.041-0.465,0.041-0.672c0-0.202-0.013-0.425-0.041-0.668c-0.027-0.243-0.082-0.468-0.165-0.675   c-0.083-0.207-0.206-0.38-0.368-0.52s-0.378-0.21-0.648-0.21S23.918,80.406,23.756,80.546z"/>
</g>
<g>
	<path d="M0,105.188v-0.938h5.355v0.938H0z"/>
	<path d="M1.478,103.223v-0.81h0.57l0.015-0.016c-0.215-0.13-0.384-0.3-0.506-0.51s-0.184-0.442-0.184-0.697   c0-0.425,0.11-0.76,0.33-1.005c0.22-0.245,0.55-0.368,0.99-0.368h2.663v0.855H2.917c-0.305,0.01-0.526,0.075-0.664,0.195   c-0.138,0.12-0.207,0.308-0.207,0.562c0,0.145,0.026,0.274,0.079,0.39c0.052,0.115,0.125,0.213,0.217,0.293   c0.093,0.08,0.201,0.142,0.326,0.188c0.125,0.045,0.258,0.067,0.397,0.067h2.288v0.854H1.478z"/>
	<path d="M5.355,95.266v0.81H4.83v0.016c0.225,0.115,0.386,0.282,0.484,0.502c0.097,0.221,0.146,0.453,0.146,0.698   c0,0.305-0.054,0.571-0.161,0.799s-0.254,0.416-0.439,0.565c-0.185,0.15-0.404,0.263-0.656,0.338S3.68,99.105,3.39,99.105   c-0.35,0-0.653-0.047-0.908-0.143c-0.255-0.095-0.465-0.221-0.63-0.379c-0.165-0.157-0.286-0.337-0.364-0.54   c-0.078-0.202-0.116-0.408-0.116-0.618c0-0.12,0.011-0.242,0.034-0.367s0.059-0.245,0.109-0.36c0.05-0.115,0.114-0.222,0.191-0.318   c0.078-0.098,0.169-0.179,0.274-0.244v-0.015H0v-0.855H5.355z M3.458,98.251c0.165,0,0.328-0.021,0.487-0.064   c0.16-0.042,0.303-0.107,0.428-0.194c0.125-0.088,0.225-0.199,0.3-0.334c0.075-0.135,0.113-0.295,0.113-0.48   c0-0.189-0.04-0.354-0.12-0.491c-0.08-0.137-0.185-0.25-0.315-0.337c-0.13-0.088-0.276-0.152-0.439-0.195   c-0.162-0.042-0.329-0.063-0.499-0.063c-0.43,0-0.765,0.096-1.005,0.289c-0.24,0.192-0.36,0.453-0.36,0.783   c0,0.2,0.042,0.369,0.124,0.506c0.083,0.138,0.19,0.251,0.322,0.338c0.133,0.088,0.283,0.15,0.45,0.188S3.283,98.251,3.458,98.251z   "/>
	<path d="M3.638,93.669c0.15,0,0.295-0.021,0.435-0.064c0.14-0.042,0.263-0.105,0.368-0.19s0.189-0.192,0.251-0.323   c0.062-0.13,0.094-0.285,0.094-0.465c0-0.25-0.054-0.451-0.162-0.604c-0.107-0.152-0.269-0.267-0.483-0.342v-0.81   c0.21,0.045,0.397,0.123,0.562,0.232c0.165,0.11,0.304,0.243,0.416,0.397c0.113,0.155,0.198,0.329,0.255,0.521   c0.058,0.192,0.086,0.394,0.086,0.604c0,0.306-0.05,0.575-0.15,0.811c-0.1,0.234-0.24,0.434-0.42,0.596   c-0.18,0.163-0.395,0.285-0.645,0.367c-0.25,0.083-0.525,0.124-0.825,0.124c-0.275,0-0.536-0.044-0.784-0.131   c-0.248-0.088-0.465-0.213-0.652-0.375c-0.188-0.163-0.336-0.359-0.446-0.589c-0.11-0.23-0.165-0.49-0.165-0.78   c0-0.305,0.063-0.578,0.191-0.821c0.127-0.242,0.296-0.443,0.506-0.604s0.452-0.276,0.724-0.349s0.554-0.091,0.844-0.057V93.669z    M3.075,91.674c-0.135,0.01-0.265,0.039-0.39,0.086c-0.125,0.048-0.234,0.112-0.326,0.195c-0.093,0.082-0.167,0.183-0.225,0.3   s-0.086,0.249-0.086,0.394c0,0.15,0.026,0.286,0.079,0.409c0.052,0.122,0.125,0.228,0.217,0.314   c0.093,0.088,0.201,0.158,0.326,0.21c0.125,0.053,0.26,0.082,0.405,0.087V91.674z"/>
	<path d="M3.315,89.124l-1.837,1.342v-1.034l1.192-0.811l-1.192-0.848v-0.989l1.792,1.319l2.085-1.484v1.027l-1.433,0.982   l1.433,0.952v1.005L3.315,89.124z"/>
	<path d="M3.638,85.472c0.15,0,0.295-0.021,0.435-0.064c0.14-0.042,0.263-0.105,0.368-0.19s0.189-0.192,0.251-0.323   c0.062-0.13,0.094-0.285,0.094-0.465c0-0.25-0.054-0.451-0.162-0.604c-0.107-0.152-0.269-0.267-0.483-0.342v-0.81   c0.21,0.045,0.397,0.123,0.562,0.232c0.165,0.11,0.304,0.243,0.416,0.397c0.113,0.155,0.198,0.329,0.255,0.521   c0.058,0.192,0.086,0.394,0.086,0.604c0,0.306-0.05,0.575-0.15,0.811c-0.1,0.234-0.24,0.434-0.42,0.596   c-0.18,0.163-0.395,0.285-0.645,0.367c-0.25,0.083-0.525,0.124-0.825,0.124c-0.275,0-0.536-0.044-0.784-0.131   c-0.248-0.088-0.465-0.213-0.652-0.375c-0.188-0.163-0.336-0.359-0.446-0.589c-0.11-0.23-0.165-0.49-0.165-0.78   c0-0.305,0.063-0.578,0.191-0.821c0.127-0.242,0.296-0.443,0.506-0.604s0.452-0.276,0.724-0.349s0.554-0.091,0.844-0.057V85.472z    M3.075,83.477c-0.135,0.01-0.265,0.039-0.39,0.086c-0.125,0.048-0.234,0.112-0.326,0.195c-0.093,0.082-0.167,0.183-0.225,0.3   s-0.086,0.249-0.086,0.394c0,0.15,0.026,0.286,0.079,0.409c0.052,0.122,0.125,0.228,0.217,0.314   c0.093,0.088,0.201,0.158,0.326,0.21c0.125,0.053,0.26,0.082,0.405,0.087V83.477z"/>
	<path d="M5.355,78.316v0.81H4.83v0.016c0.225,0.115,0.386,0.282,0.484,0.502c0.097,0.221,0.146,0.453,0.146,0.698   c0,0.305-0.054,0.571-0.161,0.799s-0.254,0.416-0.439,0.565c-0.185,0.15-0.404,0.263-0.656,0.338S3.68,82.156,3.39,82.156   c-0.35,0-0.653-0.047-0.908-0.143c-0.255-0.095-0.465-0.221-0.63-0.379c-0.165-0.157-0.286-0.337-0.364-0.54   c-0.078-0.202-0.116-0.408-0.116-0.618c0-0.12,0.011-0.242,0.034-0.367s0.059-0.245,0.109-0.36c0.05-0.115,0.114-0.222,0.191-0.318   c0.078-0.098,0.169-0.179,0.274-0.244v-0.015H0v-0.855H5.355z M3.458,81.302c0.165,0,0.328-0.021,0.487-0.064   c0.16-0.042,0.303-0.107,0.428-0.194c0.125-0.088,0.225-0.199,0.3-0.334c0.075-0.135,0.113-0.295,0.113-0.48   c0-0.189-0.04-0.354-0.12-0.491c-0.08-0.137-0.185-0.25-0.315-0.337c-0.13-0.088-0.276-0.152-0.439-0.195   c-0.162-0.042-0.329-0.063-0.499-0.063c-0.43,0-0.765,0.096-1.005,0.289c-0.24,0.192-0.36,0.453-0.36,0.783   c0,0.2,0.042,0.369,0.124,0.506c0.083,0.138,0.19,0.251,0.322,0.338c0.133,0.088,0.283,0.15,0.45,0.188S3.283,81.302,3.458,81.302z   "/>
	<path d="M1.478,75.279v-0.81h0.525v-0.016c-0.225-0.12-0.386-0.287-0.484-0.502c-0.097-0.215-0.146-0.447-0.146-0.697   c0-0.306,0.054-0.571,0.161-0.799s0.255-0.417,0.442-0.566c0.188-0.15,0.406-0.263,0.656-0.338s0.518-0.112,0.803-0.112   c0.26,0,0.513,0.034,0.757,0.102c0.245,0.067,0.461,0.17,0.649,0.308c0.188,0.137,0.337,0.311,0.45,0.521   c0.113,0.21,0.169,0.458,0.169,0.743c0,0.125-0.011,0.25-0.034,0.375s-0.059,0.245-0.109,0.359   c-0.05,0.115-0.114,0.222-0.191,0.319c-0.078,0.098-0.169,0.179-0.274,0.243v0.016h1.935v0.854H1.478z M3.42,72.295   c-0.175,0-0.345,0.022-0.51,0.067s-0.312,0.112-0.439,0.202s-0.23,0.202-0.308,0.338c-0.077,0.135-0.116,0.29-0.116,0.465   c0,0.359,0.125,0.631,0.375,0.813s0.583,0.273,0.998,0.273c0.195,0,0.376-0.023,0.544-0.071c0.167-0.047,0.311-0.118,0.431-0.213   c0.12-0.096,0.215-0.209,0.285-0.342c0.07-0.133,0.105-0.286,0.105-0.461c0-0.195-0.04-0.36-0.12-0.495s-0.184-0.246-0.312-0.334   c-0.127-0.087-0.272-0.149-0.435-0.188C3.756,72.313,3.59,72.295,3.42,72.295z"/>
	<path d="M1.478,70.72v-0.803h0.75v-0.015c-0.105-0.024-0.208-0.073-0.308-0.146c-0.1-0.072-0.191-0.159-0.274-0.262   c-0.082-0.103-0.148-0.217-0.199-0.342c-0.05-0.125-0.075-0.252-0.075-0.383c0-0.1,0.002-0.168,0.007-0.206   c0.005-0.037,0.01-0.076,0.015-0.116H2.22c-0.01,0.061-0.019,0.121-0.026,0.184c-0.008,0.062-0.011,0.124-0.011,0.184   c0,0.146,0.029,0.281,0.086,0.409c0.058,0.128,0.143,0.239,0.255,0.334c0.112,0.095,0.251,0.17,0.416,0.225   c0.165,0.056,0.355,0.083,0.57,0.083h1.845v0.854H1.478z"/>
	<path d="M0,68.058v-0.854h0.81v0.854H0z M1.478,68.058v-0.854h3.877v0.854H1.478z"/>
	<path d="M2.775,63.655c-0.24,0.035-0.421,0.131-0.543,0.289C2.109,64.102,2.047,64.3,2.047,64.54c0,0.11,0.019,0.228,0.056,0.353   c0.038,0.125,0.108,0.24,0.21,0.345c0.103,0.105,0.245,0.193,0.427,0.263c0.183,0.07,0.421,0.105,0.716,0.105   c0.16,0,0.32-0.02,0.48-0.057s0.303-0.098,0.427-0.18c0.125-0.083,0.227-0.188,0.304-0.319c0.077-0.13,0.116-0.287,0.116-0.472   c0-0.25-0.078-0.457-0.233-0.619C4.397,63.797,4.18,63.695,3.9,63.655V62.8c0.505,0.08,0.892,0.271,1.159,0.574   c0.268,0.303,0.401,0.704,0.401,1.204c0,0.305-0.051,0.573-0.154,0.806s-0.242,0.429-0.42,0.589   c-0.177,0.16-0.389,0.281-0.634,0.363c-0.245,0.083-0.51,0.124-0.795,0.124c-0.29,0-0.562-0.04-0.817-0.12   c-0.255-0.08-0.477-0.199-0.664-0.359s-0.335-0.359-0.442-0.597s-0.161-0.516-0.161-0.836c0-0.226,0.029-0.438,0.086-0.642   c0.058-0.202,0.144-0.383,0.259-0.54c0.115-0.157,0.26-0.286,0.435-0.386c0.175-0.101,0.383-0.16,0.623-0.181V63.655z"/>
	<path d="M3.638,61.436c0.15,0,0.295-0.021,0.435-0.064c0.14-0.042,0.263-0.105,0.368-0.19s0.189-0.192,0.251-0.323   c0.062-0.13,0.094-0.285,0.094-0.465c0-0.25-0.054-0.451-0.162-0.604c-0.107-0.152-0.269-0.267-0.483-0.342v-0.81   c0.21,0.045,0.397,0.123,0.562,0.232c0.165,0.11,0.304,0.243,0.416,0.397c0.113,0.155,0.198,0.329,0.255,0.521   c0.058,0.192,0.086,0.394,0.086,0.604c0,0.306-0.05,0.575-0.15,0.811c-0.1,0.234-0.24,0.434-0.42,0.596   c-0.18,0.163-0.395,0.285-0.645,0.367C3.995,62.249,3.72,62.29,3.42,62.29c-0.275,0-0.536-0.044-0.784-0.131   c-0.248-0.088-0.465-0.213-0.652-0.375c-0.188-0.163-0.336-0.359-0.446-0.589c-0.11-0.23-0.165-0.49-0.165-0.78   c0-0.305,0.063-0.578,0.191-0.821C1.691,59.352,1.86,59.15,2.07,58.99s0.452-0.276,0.724-0.349s0.554-0.091,0.844-0.057V61.436z    M3.075,59.44c-0.135,0.01-0.265,0.039-0.39,0.086c-0.125,0.048-0.234,0.112-0.326,0.195c-0.093,0.082-0.167,0.183-0.225,0.3   s-0.086,0.249-0.086,0.394c0,0.15,0.026,0.286,0.079,0.409c0.052,0.122,0.125,0.228,0.217,0.314   c0.093,0.088,0.201,0.158,0.326,0.21c0.125,0.053,0.26,0.082,0.405,0.087V59.44z"/>
	<path d="M1.478,55.825v-0.81h0.525V55c-0.225-0.12-0.386-0.287-0.484-0.502c-0.097-0.215-0.146-0.447-0.146-0.697   c0-0.306,0.054-0.571,0.161-0.799s0.255-0.417,0.442-0.566c0.188-0.15,0.406-0.263,0.656-0.338s0.518-0.112,0.803-0.112   c0.26,0,0.513,0.034,0.757,0.102c0.245,0.067,0.461,0.17,0.649,0.308c0.188,0.137,0.337,0.311,0.45,0.521   c0.113,0.21,0.169,0.458,0.169,0.743c0,0.125-0.011,0.25-0.034,0.375s-0.059,0.245-0.109,0.359   c-0.05,0.115-0.114,0.222-0.191,0.319c-0.078,0.098-0.169,0.179-0.274,0.243v0.016h1.935v0.854H1.478z M3.42,52.841   c-0.175,0-0.345,0.022-0.51,0.067s-0.312,0.112-0.439,0.202s-0.23,0.202-0.308,0.338c-0.077,0.135-0.116,0.29-0.116,0.465   c0,0.359,0.125,0.631,0.375,0.813S3.005,55,3.42,55c0.195,0,0.376-0.023,0.544-0.071c0.167-0.047,0.311-0.118,0.431-0.213   c0.12-0.096,0.215-0.209,0.285-0.342c0.07-0.133,0.105-0.286,0.105-0.461c0-0.195-0.04-0.36-0.12-0.495s-0.184-0.246-0.312-0.334   c-0.127-0.087-0.272-0.149-0.435-0.188C3.756,52.859,3.59,52.841,3.42,52.841z"/>
	<path d="M3.638,50.599c0.15,0,0.295-0.021,0.435-0.064c0.14-0.042,0.263-0.105,0.368-0.19s0.189-0.192,0.251-0.323   c0.062-0.13,0.094-0.285,0.094-0.465c0-0.25-0.054-0.451-0.162-0.604C4.516,48.8,4.355,48.686,4.14,48.61v-0.81   c0.21,0.045,0.397,0.123,0.562,0.232c0.165,0.11,0.304,0.243,0.416,0.397c0.113,0.155,0.198,0.329,0.255,0.521   c0.058,0.192,0.086,0.394,0.086,0.604c0,0.306-0.05,0.575-0.15,0.811c-0.1,0.234-0.24,0.434-0.42,0.596   c-0.18,0.163-0.395,0.285-0.645,0.367c-0.25,0.083-0.525,0.124-0.825,0.124c-0.275,0-0.536-0.044-0.784-0.131   c-0.248-0.088-0.465-0.213-0.652-0.375c-0.188-0.163-0.336-0.359-0.446-0.589c-0.11-0.23-0.165-0.49-0.165-0.78   c0-0.305,0.063-0.578,0.191-0.821c0.127-0.242,0.296-0.443,0.506-0.604s0.452-0.276,0.724-0.349s0.554-0.091,0.844-0.057V50.599z    M3.075,48.604c-0.135,0.01-0.265,0.039-0.39,0.086c-0.125,0.048-0.234,0.112-0.326,0.195c-0.093,0.082-0.167,0.183-0.225,0.3   s-0.086,0.249-0.086,0.394c0,0.15,0.026,0.286,0.079,0.409c0.052,0.122,0.125,0.228,0.217,0.314   c0.093,0.088,0.201,0.158,0.326,0.21c0.125,0.053,0.26,0.082,0.405,0.087V48.604z"/>
	<path d="M1.478,47.096v-0.803h0.75v-0.015c-0.105-0.024-0.208-0.073-0.308-0.146c-0.1-0.072-0.191-0.159-0.274-0.262   c-0.082-0.103-0.148-0.217-0.199-0.342c-0.05-0.125-0.075-0.252-0.075-0.383c0-0.1,0.002-0.168,0.007-0.206   c0.005-0.037,0.01-0.076,0.015-0.116H2.22c-0.01,0.061-0.019,0.121-0.026,0.184c-0.008,0.062-0.011,0.124-0.011,0.184   c0,0.146,0.029,0.281,0.086,0.409c0.058,0.128,0.143,0.239,0.255,0.334c0.112,0.095,0.251,0.17,0.416,0.225   c0.165,0.056,0.355,0.083,0.57,0.083h1.845v0.854H1.478z"/>
	<path d="M4.11,41.727c0.25-0.025,0.425-0.12,0.525-0.285c0.1-0.165,0.15-0.362,0.15-0.593c0-0.08-0.006-0.171-0.019-0.273   c-0.012-0.103-0.036-0.199-0.071-0.289c-0.035-0.09-0.086-0.163-0.154-0.221c-0.067-0.058-0.156-0.084-0.266-0.079   c-0.11,0.005-0.2,0.045-0.27,0.12c-0.07,0.075-0.126,0.171-0.168,0.289c-0.042,0.117-0.079,0.251-0.109,0.4   c-0.03,0.15-0.062,0.303-0.098,0.458c-0.035,0.16-0.077,0.313-0.127,0.461c-0.05,0.147-0.117,0.28-0.203,0.397   c-0.085,0.118-0.193,0.212-0.326,0.281c-0.132,0.07-0.296,0.105-0.491,0.105c-0.21,0-0.386-0.052-0.529-0.154   s-0.257-0.232-0.345-0.39S1.46,41.623,1.425,41.43c-0.035-0.192-0.052-0.376-0.052-0.551c0-0.2,0.021-0.392,0.063-0.574   c0.043-0.182,0.111-0.347,0.207-0.495c0.095-0.146,0.219-0.27,0.371-0.367c0.153-0.098,0.336-0.158,0.551-0.184v0.893   c-0.205,0.04-0.342,0.134-0.413,0.281c-0.07,0.147-0.105,0.316-0.105,0.506c0,0.061,0.005,0.132,0.015,0.214   c0.01,0.083,0.029,0.16,0.056,0.232c0.028,0.073,0.067,0.134,0.12,0.184c0.052,0.051,0.121,0.075,0.206,0.075   c0.105,0,0.19-0.036,0.255-0.108s0.119-0.168,0.161-0.285s0.079-0.251,0.109-0.401c0.03-0.149,0.062-0.305,0.097-0.465   c0.035-0.155,0.078-0.308,0.127-0.457c0.05-0.15,0.118-0.284,0.203-0.401c0.085-0.118,0.192-0.213,0.323-0.285   c0.13-0.072,0.29-0.109,0.48-0.109c0.23,0,0.425,0.053,0.585,0.158c0.16,0.104,0.29,0.241,0.39,0.408   c0.1,0.168,0.173,0.354,0.218,0.559c0.045,0.205,0.067,0.408,0.067,0.608c0,0.244-0.027,0.471-0.083,0.679   c-0.055,0.207-0.139,0.387-0.251,0.54c-0.113,0.152-0.252,0.272-0.42,0.359C4.539,42.53,4.34,42.576,4.11,42.581V41.727z"/>
	<path d="M0,38.479v-0.854h1.987v-0.016c-0.175-0.104-0.321-0.261-0.438-0.469c-0.118-0.207-0.176-0.438-0.176-0.693   c0-0.425,0.11-0.76,0.33-1.005c0.22-0.245,0.55-0.368,0.99-0.368h2.663v0.855H2.917c-0.305,0.01-0.526,0.075-0.664,0.195   c-0.138,0.12-0.207,0.308-0.207,0.562c0,0.145,0.026,0.274,0.079,0.39c0.052,0.115,0.125,0.213,0.217,0.293   c0.093,0.08,0.201,0.142,0.326,0.188c0.125,0.045,0.258,0.067,0.397,0.067h2.288v0.854H0z"/>
	<path d="M4.493,30.927c0.105,0,0.18-0.014,0.225-0.041c0.045-0.028,0.068-0.082,0.068-0.162c0-0.024,0-0.055,0-0.09   s-0.005-0.075-0.015-0.12h0.592c0.01,0.03,0.021,0.069,0.034,0.116c0.013,0.048,0.024,0.097,0.034,0.146   c0.01,0.05,0.017,0.101,0.022,0.15c0.005,0.05,0.007,0.093,0.007,0.127c0,0.176-0.035,0.32-0.105,0.436s-0.192,0.189-0.368,0.225   c0.165,0.17,0.285,0.379,0.36,0.626c0.075,0.248,0.112,0.486,0.112,0.717c0,0.175-0.024,0.343-0.071,0.502   c-0.047,0.16-0.117,0.302-0.21,0.424c-0.092,0.123-0.21,0.221-0.353,0.293s-0.309,0.108-0.499,0.108   c-0.24,0-0.435-0.044-0.585-0.131c-0.15-0.088-0.268-0.203-0.353-0.345c-0.085-0.143-0.146-0.303-0.184-0.48   C3.169,33.25,3.14,33.071,3.12,32.892c-0.03-0.155-0.051-0.303-0.064-0.442c-0.012-0.14-0.034-0.264-0.063-0.371   c-0.03-0.107-0.076-0.192-0.139-0.255c-0.062-0.062-0.156-0.094-0.281-0.094c-0.11,0-0.2,0.025-0.27,0.078   c-0.07,0.053-0.124,0.118-0.161,0.195s-0.062,0.164-0.075,0.259c-0.013,0.095-0.019,0.185-0.019,0.27c0,0.24,0.05,0.438,0.15,0.593   c0.1,0.155,0.255,0.242,0.465,0.263v0.854c-0.25-0.015-0.458-0.074-0.623-0.18s-0.297-0.238-0.397-0.401   c-0.1-0.162-0.17-0.346-0.21-0.551s-0.06-0.415-0.06-0.63c0-0.19,0.02-0.378,0.06-0.562c0.04-0.186,0.105-0.352,0.195-0.499   s0.206-0.267,0.349-0.356s0.316-0.135,0.521-0.135H4.493z M3.413,31.781c0.085,0.13,0.136,0.29,0.154,0.48   c0.018,0.189,0.043,0.38,0.079,0.569c0.015,0.091,0.036,0.178,0.063,0.263c0.028,0.085,0.065,0.16,0.113,0.226   c0.047,0.064,0.11,0.116,0.188,0.153c0.078,0.038,0.171,0.057,0.281,0.057c0.095,0,0.175-0.027,0.24-0.083   c0.065-0.055,0.116-0.121,0.154-0.198c0.038-0.078,0.064-0.163,0.079-0.255c0.015-0.093,0.022-0.177,0.022-0.252   c0-0.095-0.013-0.197-0.038-0.308c-0.025-0.109-0.067-0.213-0.127-0.311s-0.136-0.179-0.229-0.244   c-0.092-0.064-0.206-0.098-0.341-0.098H3.413z"/>
	<path d="M1.478,30.004v-0.803h0.75v-0.015C2.123,29.162,2.02,29.113,1.92,29.04c-0.1-0.072-0.191-0.159-0.274-0.262   c-0.082-0.103-0.148-0.217-0.199-0.342c-0.05-0.125-0.075-0.252-0.075-0.383c0-0.1,0.002-0.168,0.007-0.206   c0.005-0.037,0.01-0.076,0.015-0.116H2.22c-0.01,0.061-0.019,0.121-0.026,0.184c-0.008,0.062-0.011,0.124-0.011,0.184   c0,0.146,0.029,0.281,0.086,0.409c0.058,0.128,0.143,0.239,0.255,0.334c0.112,0.095,0.251,0.17,0.416,0.225   c0.165,0.056,0.355,0.083,0.57,0.083h1.845v0.854H1.478z"/>
	<path d="M3.638,26.832c0.15,0,0.295-0.021,0.435-0.064c0.14-0.042,0.263-0.105,0.368-0.19s0.189-0.192,0.251-0.323   c0.062-0.13,0.094-0.285,0.094-0.465c0-0.25-0.054-0.451-0.162-0.604c-0.107-0.152-0.269-0.267-0.483-0.342v-0.81   c0.21,0.045,0.397,0.123,0.562,0.232c0.165,0.11,0.304,0.243,0.416,0.397c0.113,0.155,0.198,0.329,0.255,0.521   c0.058,0.192,0.086,0.394,0.086,0.604c0,0.306-0.05,0.575-0.15,0.811c-0.1,0.234-0.24,0.434-0.42,0.596   c-0.18,0.163-0.395,0.285-0.645,0.367c-0.25,0.083-0.525,0.124-0.825,0.124c-0.275,0-0.536-0.044-0.784-0.131   c-0.248-0.088-0.465-0.213-0.652-0.375c-0.188-0.163-0.336-0.359-0.446-0.589c-0.11-0.23-0.165-0.49-0.165-0.78   c0-0.305,0.063-0.578,0.191-0.821c0.127-0.242,0.296-0.443,0.506-0.604s0.452-0.276,0.724-0.349s0.554-0.091,0.844-0.057V26.832z    M3.075,24.837c-0.135,0.01-0.265,0.039-0.39,0.086c-0.125,0.048-0.234,0.112-0.326,0.195c-0.093,0.082-0.167,0.183-0.225,0.3   s-0.086,0.249-0.086,0.394c0,0.15,0.026,0.286,0.079,0.409c0.052,0.122,0.125,0.228,0.217,0.314   c0.093,0.088,0.201,0.158,0.326,0.21c0.125,0.053,0.26,0.082,0.405,0.087V24.837z"/>
</g>
<g>
	<path d="M21.165,106.57h0.385v3.192h0.708v0.357h-0.708v1.175h-0.392v-1.175h-2.18v-0.411L21.165,106.57z M21.158,107.191h-0.014   l-1.782,2.571h1.795V107.191z"/>
	<path d="M25.245,106.756c0.214,0.15,0.38,0.343,0.5,0.577c0.119,0.233,0.2,0.495,0.243,0.782c0.042,0.288,0.064,0.569,0.064,0.844   c0,0.279-0.021,0.563-0.064,0.851c-0.043,0.288-0.124,0.55-0.243,0.783c-0.119,0.234-0.286,0.426-0.5,0.574   s-0.494,0.223-0.84,0.223c-0.342,0-0.621-0.074-0.837-0.223s-0.384-0.34-0.503-0.574c-0.119-0.233-0.2-0.495-0.243-0.783   c-0.042-0.287-0.064-0.569-0.064-0.844c0-0.278,0.021-0.562,0.064-0.851c0.043-0.287,0.124-0.549,0.243-0.782   c0.119-0.234,0.287-0.427,0.503-0.577c0.216-0.151,0.495-0.227,0.837-0.227C24.751,106.529,25.031,106.604,25.245,106.756z    M23.756,107.097c-0.162,0.14-0.285,0.312-0.368,0.52c-0.083,0.207-0.139,0.432-0.166,0.675s-0.041,0.466-0.041,0.668   c0,0.207,0.014,0.432,0.041,0.672c0.027,0.241,0.082,0.466,0.166,0.675c0.083,0.21,0.206,0.384,0.368,0.523   s0.378,0.209,0.648,0.209s0.486-0.069,0.648-0.209s0.285-0.313,0.368-0.523c0.083-0.209,0.138-0.434,0.165-0.675   c0.027-0.24,0.041-0.465,0.041-0.672c0-0.202-0.013-0.425-0.041-0.668c-0.027-0.243-0.082-0.468-0.165-0.675   c-0.083-0.207-0.206-0.38-0.368-0.52s-0.378-0.21-0.648-0.21S23.918,106.957,23.756,107.097z"/>
</g>
<g>
	<path d="M19.018,137.845c0.004-0.234,0.045-0.441,0.121-0.621c0.077-0.18,0.178-0.342,0.304-0.486   c0.125-0.144,0.268-0.275,0.425-0.395c0.158-0.119,0.32-0.233,0.486-0.344s0.332-0.224,0.496-0.338   c0.164-0.115,0.312-0.237,0.442-0.368c0.131-0.13,0.229-0.264,0.294-0.401c0.065-0.138,0.098-0.301,0.098-0.489   c0-0.153-0.028-0.289-0.084-0.408s-0.133-0.221-0.229-0.304c-0.097-0.084-0.209-0.146-0.337-0.189s-0.264-0.064-0.408-0.064   c-0.194,0-0.359,0.036-0.496,0.108c-0.138,0.072-0.249,0.169-0.334,0.29c-0.085,0.122-0.147,0.262-0.186,0.419   s-0.055,0.324-0.05,0.499h-0.425c-0.005-0.243,0.023-0.467,0.084-0.671c0.061-0.205,0.154-0.382,0.28-0.53s0.285-0.265,0.476-0.348   c0.191-0.083,0.415-0.125,0.671-0.125c0.207,0,0.399,0.028,0.577,0.085c0.178,0.056,0.333,0.139,0.466,0.249   s0.236,0.249,0.311,0.415c0.074,0.167,0.111,0.36,0.111,0.581c0,0.198-0.033,0.378-0.098,0.54   c-0.065,0.162-0.153,0.311-0.264,0.445c-0.11,0.135-0.236,0.26-0.378,0.375c-0.142,0.114-0.291,0.222-0.449,0.32   c-0.112,0.076-0.245,0.161-0.398,0.253c-0.153,0.093-0.3,0.194-0.442,0.308c-0.142,0.112-0.267,0.234-0.375,0.367   s-0.176,0.278-0.203,0.436h2.626v0.392H19.018z"/>
	<path d="M25.245,133.306c0.214,0.15,0.38,0.343,0.5,0.577c0.119,0.233,0.2,0.495,0.243,0.782c0.042,0.288,0.064,0.569,0.064,0.844   c0,0.279-0.021,0.563-0.064,0.851c-0.043,0.288-0.124,0.55-0.243,0.783c-0.119,0.234-0.286,0.426-0.5,0.574   s-0.494,0.223-0.84,0.223c-0.342,0-0.621-0.074-0.837-0.223s-0.384-0.34-0.503-0.574c-0.119-0.233-0.2-0.495-0.243-0.783   c-0.042-0.287-0.064-0.569-0.064-0.844c0-0.278,0.021-0.562,0.064-0.851c0.043-0.287,0.124-0.549,0.243-0.782   c0.119-0.234,0.287-0.427,0.503-0.577c0.216-0.151,0.495-0.227,0.837-0.227C24.751,133.079,25.031,133.154,25.245,133.306z    M23.756,133.646c-0.162,0.14-0.285,0.312-0.368,0.52c-0.083,0.207-0.139,0.432-0.166,0.675s-0.041,0.466-0.041,0.668   c0,0.207,0.014,0.432,0.041,0.672c0.027,0.241,0.082,0.466,0.166,0.675c0.083,0.21,0.206,0.384,0.368,0.523   s0.378,0.209,0.648,0.209s0.486-0.069,0.648-0.209s0.285-0.313,0.368-0.523c0.083-0.209,0.138-0.434,0.165-0.675   c0.027-0.24,0.041-0.465,0.041-0.672c0-0.202-0.013-0.425-0.041-0.668c-0.027-0.243-0.082-0.468-0.165-0.675   c-0.083-0.207-0.206-0.38-0.368-0.52s-0.378-0.21-0.648-0.21S23.918,133.507,23.756,133.646z"/>
</g>
<g>
	<path d="M48.87,147.07c0.004-0.234,0.045-0.441,0.121-0.621c0.077-0.18,0.178-0.342,0.304-0.486   c0.125-0.144,0.268-0.275,0.425-0.395c0.158-0.119,0.32-0.233,0.486-0.344s0.332-0.224,0.496-0.338   c0.164-0.115,0.312-0.237,0.442-0.368c0.131-0.13,0.229-0.264,0.294-0.401c0.065-0.138,0.098-0.301,0.098-0.489   c0-0.153-0.028-0.289-0.084-0.408s-0.133-0.221-0.229-0.304c-0.097-0.084-0.209-0.146-0.337-0.189s-0.264-0.064-0.408-0.064   c-0.194,0-0.359,0.036-0.496,0.108c-0.138,0.072-0.249,0.169-0.334,0.29c-0.085,0.122-0.147,0.262-0.186,0.419   s-0.055,0.324-0.05,0.499h-0.425c-0.005-0.243,0.023-0.467,0.084-0.671c0.061-0.205,0.154-0.382,0.28-0.53s0.285-0.265,0.476-0.348   c0.191-0.083,0.415-0.125,0.671-0.125c0.207,0,0.399,0.028,0.577,0.085c0.178,0.056,0.333,0.139,0.466,0.249   s0.236,0.249,0.311,0.415c0.074,0.167,0.111,0.36,0.111,0.581c0,0.198-0.033,0.378-0.098,0.54   c-0.065,0.162-0.153,0.311-0.264,0.445c-0.11,0.135-0.236,0.26-0.378,0.375c-0.142,0.114-0.291,0.222-0.449,0.32   c-0.112,0.076-0.245,0.161-0.398,0.253c-0.153,0.093-0.3,0.194-0.442,0.308c-0.142,0.112-0.267,0.234-0.375,0.367   s-0.176,0.278-0.203,0.436h2.626v0.392H48.87z"/>
	<path d="M55.096,142.531c0.214,0.15,0.38,0.343,0.5,0.577c0.119,0.233,0.2,0.495,0.243,0.782c0.042,0.288,0.064,0.569,0.064,0.844   c0,0.279-0.021,0.563-0.064,0.851c-0.043,0.288-0.124,0.55-0.243,0.783c-0.119,0.234-0.286,0.426-0.5,0.574   s-0.494,0.223-0.84,0.223c-0.342,0-0.621-0.074-0.837-0.223s-0.384-0.34-0.503-0.574c-0.119-0.233-0.2-0.495-0.243-0.783   c-0.042-0.287-0.064-0.569-0.064-0.844c0-0.278,0.021-0.562,0.064-0.851c0.043-0.287,0.124-0.549,0.243-0.782   c0.119-0.234,0.287-0.427,0.503-0.577c0.216-0.151,0.495-0.227,0.837-0.227C54.603,142.305,54.882,142.38,55.096,142.531z    M53.608,142.872c-0.162,0.14-0.285,0.312-0.368,0.52c-0.083,0.207-0.139,0.432-0.166,0.675s-0.041,0.466-0.041,0.668   c0,0.207,0.014,0.432,0.041,0.672c0.027,0.241,0.082,0.466,0.166,0.675c0.083,0.21,0.206,0.384,0.368,0.523   s0.378,0.209,0.648,0.209s0.486-0.069,0.648-0.209s0.285-0.313,0.368-0.523c0.083-0.209,0.138-0.434,0.165-0.675   c0.027-0.24,0.041-0.465,0.041-0.672c0-0.202-0.013-0.425-0.041-0.668c-0.027-0.243-0.082-0.468-0.165-0.675   c-0.083-0.207-0.206-0.38-0.368-0.52s-0.378-0.21-0.648-0.21S53.77,142.732,53.608,142.872z"/>
	<path d="M58.849,142.531c0.214,0.15,0.38,0.343,0.5,0.577c0.119,0.233,0.2,0.495,0.243,0.782c0.042,0.288,0.064,0.569,0.064,0.844   c0,0.279-0.021,0.563-0.064,0.851c-0.043,0.288-0.124,0.55-0.243,0.783c-0.119,0.234-0.286,0.426-0.5,0.574   s-0.494,0.223-0.84,0.223c-0.342,0-0.621-0.074-0.837-0.223s-0.384-0.34-0.503-0.574c-0.119-0.233-0.2-0.495-0.243-0.783   c-0.042-0.287-0.064-0.569-0.064-0.844c0-0.278,0.021-0.562,0.064-0.851c0.043-0.287,0.124-0.549,0.243-0.782   c0.119-0.234,0.287-0.427,0.503-0.577c0.216-0.151,0.495-0.227,0.837-0.227C58.355,142.305,58.635,142.38,58.849,142.531z    M57.361,142.872c-0.162,0.14-0.285,0.312-0.368,0.52c-0.083,0.207-0.139,0.432-0.166,0.675s-0.041,0.466-0.041,0.668   c0,0.207,0.014,0.432,0.041,0.672c0.027,0.241,0.082,0.466,0.166,0.675c0.083,0.21,0.206,0.384,0.368,0.523   s0.378,0.209,0.648,0.209s0.486-0.069,0.648-0.209s0.285-0.313,0.368-0.523c0.083-0.209,0.138-0.434,0.165-0.675   c0.027-0.24,0.041-0.465,0.041-0.672c0-0.202-0.013-0.425-0.041-0.668c-0.027-0.243-0.082-0.468-0.165-0.675   c-0.083-0.207-0.206-0.38-0.368-0.52s-0.378-0.21-0.648-0.21S57.523,142.732,57.361,142.872z"/>
	<path d="M62.99,144.145c-0.135,0.182-0.324,0.31-0.567,0.381v0.014c0.311,0.063,0.549,0.199,0.715,0.408s0.25,0.476,0.25,0.8   c0,0.239-0.043,0.447-0.128,0.625s-0.203,0.325-0.351,0.441c-0.148,0.117-0.32,0.205-0.516,0.264s-0.406,0.088-0.631,0.088   c-0.221,0-0.43-0.029-0.628-0.088c-0.198-0.059-0.371-0.146-0.52-0.264c-0.148-0.116-0.266-0.264-0.351-0.441   s-0.128-0.386-0.128-0.625c0.009-0.311,0.097-0.576,0.264-0.796c0.166-0.221,0.398-0.358,0.695-0.412v-0.014   c-0.247-0.076-0.438-0.203-0.57-0.381s-0.199-0.397-0.199-0.658c0-0.203,0.042-0.378,0.125-0.526   c0.083-0.148,0.192-0.271,0.328-0.368c0.135-0.097,0.288-0.169,0.459-0.216c0.171-0.048,0.344-0.071,0.52-0.071   c0.176,0,0.349,0.023,0.52,0.071c0.171,0.047,0.325,0.119,0.462,0.216c0.137,0.097,0.247,0.22,0.331,0.368   c0.083,0.148,0.125,0.323,0.125,0.526C63.193,143.742,63.125,143.962,62.99,144.145z M62.231,146.75   c0.146-0.043,0.273-0.108,0.381-0.196s0.193-0.199,0.256-0.334s0.095-0.292,0.095-0.473c0-0.171-0.033-0.32-0.098-0.448   c-0.065-0.129-0.153-0.236-0.263-0.324s-0.238-0.153-0.385-0.196c-0.146-0.042-0.298-0.062-0.456-0.057   c-0.162-0.005-0.316,0.013-0.462,0.054c-0.146,0.04-0.273,0.104-0.381,0.192s-0.195,0.197-0.26,0.327   c-0.065,0.131-0.098,0.281-0.098,0.452c0,0.176,0.032,0.331,0.095,0.466s0.148,0.246,0.256,0.334s0.235,0.154,0.381,0.199   c0.146,0.045,0.303,0.067,0.469,0.067S62.084,146.793,62.231,146.75z M62.14,144.319c0.122-0.033,0.229-0.086,0.321-0.158   s0.167-0.164,0.223-0.276c0.056-0.113,0.084-0.246,0.084-0.398c0-0.136-0.026-0.255-0.078-0.358s-0.123-0.188-0.213-0.256   c-0.09-0.067-0.195-0.119-0.317-0.155s-0.254-0.055-0.398-0.055c-0.13,0-0.256,0.019-0.378,0.055s-0.229,0.088-0.324,0.155   c-0.094,0.067-0.17,0.152-0.226,0.256s-0.084,0.223-0.084,0.358c0,0.157,0.029,0.292,0.088,0.404   c0.059,0.113,0.135,0.205,0.229,0.277c0.095,0.072,0.203,0.124,0.324,0.155s0.245,0.045,0.371,0.04   C61.892,144.368,62.018,144.354,62.14,144.319z"/>
</g>
<g>
	<path d="M96.015,147.07c0.004-0.234,0.045-0.441,0.121-0.621c0.077-0.18,0.178-0.342,0.304-0.486   c0.125-0.144,0.268-0.275,0.425-0.395c0.158-0.119,0.32-0.233,0.486-0.344s0.332-0.224,0.496-0.338   c0.164-0.115,0.312-0.237,0.442-0.368c0.131-0.13,0.229-0.264,0.294-0.401c0.065-0.138,0.098-0.301,0.098-0.489   c0-0.153-0.028-0.289-0.084-0.408s-0.133-0.221-0.229-0.304c-0.097-0.084-0.209-0.146-0.337-0.189s-0.264-0.064-0.408-0.064   c-0.194,0-0.359,0.036-0.496,0.108c-0.138,0.072-0.249,0.169-0.334,0.29c-0.085,0.122-0.147,0.262-0.186,0.419   s-0.055,0.324-0.05,0.499H96.13c-0.005-0.243,0.023-0.467,0.084-0.671c0.061-0.205,0.154-0.382,0.28-0.53s0.285-0.265,0.476-0.348   c0.191-0.083,0.415-0.125,0.671-0.125c0.207,0,0.399,0.028,0.577,0.085c0.178,0.056,0.333,0.139,0.466,0.249   s0.236,0.249,0.311,0.415c0.074,0.167,0.111,0.36,0.111,0.581c0,0.198-0.033,0.378-0.098,0.54   c-0.065,0.162-0.153,0.311-0.264,0.445c-0.11,0.135-0.236,0.26-0.378,0.375c-0.142,0.114-0.291,0.222-0.449,0.32   c-0.112,0.076-0.245,0.161-0.398,0.253c-0.153,0.093-0.3,0.194-0.442,0.308c-0.142,0.112-0.267,0.234-0.375,0.367   s-0.176,0.278-0.203,0.436h2.626v0.392H96.015z"/>
	<path d="M102.242,142.531c0.214,0.15,0.38,0.343,0.5,0.577c0.119,0.233,0.2,0.495,0.243,0.782c0.042,0.288,0.064,0.569,0.064,0.844   c0,0.279-0.021,0.563-0.064,0.851c-0.043,0.288-0.124,0.55-0.243,0.783c-0.119,0.234-0.286,0.426-0.5,0.574   s-0.494,0.223-0.84,0.223c-0.342,0-0.621-0.074-0.837-0.223s-0.384-0.34-0.503-0.574c-0.119-0.233-0.2-0.495-0.243-0.783   c-0.042-0.287-0.064-0.569-0.064-0.844c0-0.278,0.021-0.562,0.064-0.851c0.043-0.287,0.124-0.549,0.243-0.782   c0.119-0.234,0.287-0.427,0.503-0.577c0.216-0.151,0.495-0.227,0.837-0.227C101.748,142.305,102.028,142.38,102.242,142.531z    M100.753,142.872c-0.162,0.14-0.285,0.312-0.368,0.52c-0.083,0.207-0.139,0.432-0.166,0.675s-0.041,0.466-0.041,0.668   c0,0.207,0.014,0.432,0.041,0.672c0.027,0.241,0.082,0.466,0.166,0.675c0.083,0.21,0.206,0.384,0.368,0.523   s0.378,0.209,0.648,0.209s0.486-0.069,0.648-0.209s0.285-0.313,0.368-0.523c0.083-0.209,0.138-0.434,0.165-0.675   c0.027-0.24,0.041-0.465,0.041-0.672c0-0.202-0.013-0.425-0.041-0.668c-0.027-0.243-0.082-0.468-0.165-0.675   c-0.083-0.207-0.206-0.38-0.368-0.52s-0.378-0.21-0.648-0.21S100.916,142.732,100.753,142.872z"/>
	<path d="M105.995,142.531c0.214,0.15,0.38,0.343,0.5,0.577c0.119,0.233,0.2,0.495,0.243,0.782c0.042,0.288,0.064,0.569,0.064,0.844   c0,0.279-0.021,0.563-0.064,0.851c-0.043,0.288-0.124,0.55-0.243,0.783c-0.119,0.234-0.286,0.426-0.5,0.574   s-0.494,0.223-0.84,0.223c-0.342,0-0.621-0.074-0.837-0.223s-0.384-0.34-0.503-0.574c-0.119-0.233-0.2-0.495-0.243-0.783   c-0.042-0.287-0.064-0.569-0.064-0.844c0-0.278,0.021-0.562,0.064-0.851c0.043-0.287,0.124-0.549,0.243-0.782   c0.119-0.234,0.287-0.427,0.503-0.577c0.216-0.151,0.495-0.227,0.837-0.227C105.501,142.305,105.781,142.38,105.995,142.531z    M104.506,142.872c-0.162,0.14-0.285,0.312-0.368,0.52c-0.083,0.207-0.139,0.432-0.166,0.675s-0.041,0.466-0.041,0.668   c0,0.207,0.014,0.432,0.041,0.672c0.027,0.241,0.082,0.466,0.166,0.675c0.083,0.21,0.206,0.384,0.368,0.523   s0.378,0.209,0.648,0.209s0.486-0.069,0.648-0.209s0.285-0.313,0.368-0.523c0.083-0.209,0.138-0.434,0.165-0.675   c0.027-0.24,0.041-0.465,0.041-0.672c0-0.202-0.013-0.425-0.041-0.668c-0.027-0.243-0.082-0.468-0.165-0.675   c-0.083-0.207-0.206-0.38-0.368-0.52s-0.378-0.21-0.648-0.21S104.668,142.732,104.506,142.872z"/>
	<path d="M108.114,146.571c0.173,0.161,0.397,0.242,0.671,0.242c0.279,0,0.503-0.069,0.672-0.209c0.168-0.14,0.3-0.314,0.395-0.526   c0.095-0.212,0.158-0.439,0.189-0.686c0.031-0.245,0.047-0.476,0.047-0.691h-0.013c-0.113,0.234-0.283,0.423-0.51,0.566   c-0.228,0.145-0.476,0.217-0.746,0.217c-0.234,0-0.448-0.04-0.641-0.118c-0.193-0.079-0.358-0.188-0.493-0.328   c-0.135-0.139-0.24-0.306-0.314-0.499s-0.111-0.405-0.111-0.635s0.04-0.441,0.118-0.638c0.079-0.195,0.189-0.364,0.331-0.506   c0.142-0.142,0.311-0.254,0.506-0.334c0.196-0.081,0.411-0.122,0.645-0.122c0.288,0,0.536,0.044,0.743,0.132   s0.378,0.231,0.513,0.432c0.135,0.2,0.235,0.46,0.3,0.78c0.065,0.319,0.098,0.708,0.098,1.167c0,0.095-0.005,0.219-0.017,0.372   c-0.011,0.152-0.037,0.315-0.078,0.489c-0.041,0.173-0.098,0.349-0.172,0.526s-0.173,0.337-0.297,0.479   c-0.124,0.142-0.278,0.257-0.462,0.348c-0.185,0.09-0.405,0.135-0.662,0.135c-0.423,0-0.758-0.101-1.006-0.301   s-0.396-0.51-0.445-0.928h0.425C107.836,146.197,107.941,146.409,108.114,146.571z M109.322,145.028   c0.146-0.065,0.27-0.154,0.372-0.267c0.101-0.112,0.178-0.244,0.229-0.395c0.051-0.151,0.078-0.314,0.078-0.489   c0-0.171-0.023-0.33-0.068-0.477c-0.045-0.146-0.116-0.274-0.212-0.385s-0.219-0.196-0.368-0.26   c-0.148-0.062-0.326-0.095-0.533-0.095c-0.167,0-0.319,0.033-0.459,0.099c-0.139,0.065-0.26,0.152-0.361,0.263   c-0.102,0.11-0.179,0.24-0.233,0.389c-0.054,0.148-0.081,0.304-0.081,0.466c0,0.171,0.026,0.333,0.078,0.485   c0.052,0.153,0.126,0.286,0.223,0.398s0.216,0.201,0.358,0.267c0.142,0.065,0.302,0.098,0.482,0.098   C109.011,145.126,109.176,145.094,109.322,145.028z"/>
</g>
<g>
	<path d="M143.161,147.07c0.004-0.234,0.045-0.441,0.121-0.621c0.077-0.18,0.178-0.342,0.304-0.486   c0.125-0.144,0.268-0.275,0.425-0.395c0.158-0.119,0.32-0.233,0.486-0.344s0.332-0.224,0.496-0.338   c0.164-0.115,0.312-0.237,0.442-0.368c0.131-0.13,0.229-0.264,0.294-0.401c0.065-0.138,0.098-0.301,0.098-0.489   c0-0.153-0.028-0.289-0.084-0.408s-0.133-0.221-0.229-0.304c-0.097-0.084-0.209-0.146-0.337-0.189s-0.264-0.064-0.408-0.064   c-0.194,0-0.359,0.036-0.496,0.108c-0.138,0.072-0.249,0.169-0.334,0.29c-0.085,0.122-0.147,0.262-0.186,0.419   s-0.055,0.324-0.05,0.499h-0.425c-0.005-0.243,0.023-0.467,0.084-0.671c0.061-0.205,0.154-0.382,0.28-0.53s0.285-0.265,0.476-0.348   c0.191-0.083,0.415-0.125,0.671-0.125c0.207,0,0.399,0.028,0.577,0.085c0.178,0.056,0.333,0.139,0.466,0.249   s0.236,0.249,0.311,0.415c0.074,0.167,0.111,0.36,0.111,0.581c0,0.198-0.033,0.378-0.098,0.54   c-0.065,0.162-0.153,0.311-0.264,0.445c-0.11,0.135-0.236,0.26-0.378,0.375c-0.142,0.114-0.291,0.222-0.449,0.32   c-0.112,0.076-0.245,0.161-0.398,0.253c-0.153,0.093-0.3,0.194-0.442,0.308c-0.142,0.112-0.267,0.234-0.375,0.367   s-0.176,0.278-0.203,0.436h2.626v0.392H143.161z"/>
	<path d="M149.388,142.531c0.214,0.15,0.38,0.343,0.5,0.577c0.119,0.233,0.2,0.495,0.243,0.782c0.042,0.288,0.064,0.569,0.064,0.844   c0,0.279-0.021,0.563-0.064,0.851c-0.043,0.288-0.124,0.55-0.243,0.783c-0.119,0.234-0.286,0.426-0.5,0.574   s-0.494,0.223-0.84,0.223c-0.342,0-0.621-0.074-0.837-0.223s-0.384-0.34-0.503-0.574c-0.119-0.233-0.2-0.495-0.243-0.783   c-0.042-0.287-0.064-0.569-0.064-0.844c0-0.278,0.021-0.562,0.064-0.851c0.043-0.287,0.124-0.549,0.243-0.782   c0.119-0.234,0.287-0.427,0.503-0.577c0.216-0.151,0.495-0.227,0.837-0.227C148.894,142.305,149.174,142.38,149.388,142.531z    M147.899,142.872c-0.162,0.14-0.285,0.312-0.368,0.52c-0.083,0.207-0.139,0.432-0.166,0.675s-0.041,0.466-0.041,0.668   c0,0.207,0.014,0.432,0.041,0.672c0.027,0.241,0.082,0.466,0.166,0.675c0.083,0.21,0.206,0.384,0.368,0.523   s0.378,0.209,0.648,0.209s0.486-0.069,0.648-0.209s0.285-0.313,0.368-0.523c0.083-0.209,0.138-0.434,0.165-0.675   c0.027-0.24,0.041-0.465,0.041-0.672c0-0.202-0.013-0.425-0.041-0.668c-0.027-0.243-0.082-0.468-0.165-0.675   c-0.083-0.207-0.206-0.38-0.368-0.52s-0.378-0.21-0.648-0.21S148.062,142.732,147.899,142.872z"/>
	<path d="M151.581,143.227c0.151-0.016,0.281-0.053,0.392-0.111s0.203-0.147,0.277-0.267s0.127-0.287,0.158-0.503h0.345v4.725   h-0.426v-3.51h-1.249v-0.304C151.263,143.252,151.431,143.242,151.581,143.227z"/>
	<path d="M156.894,142.531c0.214,0.15,0.38,0.343,0.5,0.577c0.119,0.233,0.2,0.495,0.242,0.782c0.043,0.288,0.064,0.569,0.064,0.844   c0,0.279-0.021,0.563-0.064,0.851c-0.042,0.288-0.123,0.55-0.242,0.783c-0.12,0.234-0.286,0.426-0.5,0.574s-0.494,0.223-0.84,0.223   c-0.343,0-0.621-0.074-0.838-0.223c-0.216-0.148-0.383-0.34-0.502-0.574c-0.12-0.233-0.201-0.495-0.243-0.783   c-0.043-0.287-0.064-0.569-0.064-0.844c0-0.278,0.021-0.562,0.064-0.851c0.042-0.287,0.123-0.549,0.243-0.782   c0.119-0.234,0.286-0.427,0.502-0.577c0.217-0.151,0.495-0.227,0.838-0.227C156.399,142.305,156.68,142.38,156.894,142.531z    M155.405,142.872c-0.162,0.14-0.285,0.312-0.368,0.52s-0.138,0.432-0.165,0.675s-0.041,0.466-0.041,0.668   c0,0.207,0.014,0.432,0.041,0.672c0.027,0.241,0.082,0.466,0.165,0.675c0.083,0.21,0.206,0.384,0.368,0.523   s0.378,0.209,0.648,0.209c0.27,0,0.485-0.069,0.647-0.209s0.284-0.313,0.368-0.523c0.083-0.209,0.138-0.434,0.165-0.675   c0.027-0.24,0.041-0.465,0.041-0.672c0-0.202-0.014-0.425-0.041-0.668s-0.082-0.468-0.165-0.675   c-0.084-0.207-0.206-0.38-0.368-0.52s-0.378-0.21-0.647-0.21C155.783,142.662,155.567,142.732,155.405,142.872z"/>
</g>
<g>
	<path d="M202.383,23.064c0,0.198,0.034,0.367,0.102,0.508c0.067,0.14,0.162,0.255,0.282,0.344c0.121,0.09,0.26,0.155,0.417,0.196   s0.328,0.062,0.512,0.062c0.198,0,0.367-0.022,0.507-0.069c0.141-0.046,0.254-0.104,0.341-0.177   c0.087-0.073,0.15-0.156,0.188-0.251c0.039-0.094,0.059-0.189,0.059-0.286c0-0.198-0.045-0.344-0.135-0.438   c-0.089-0.094-0.187-0.16-0.293-0.199c-0.184-0.067-0.397-0.132-0.642-0.192s-0.545-0.139-0.903-0.235   c-0.222-0.059-0.407-0.135-0.555-0.229c-0.147-0.095-0.264-0.199-0.352-0.315c-0.087-0.116-0.148-0.239-0.185-0.37   c-0.036-0.13-0.055-0.263-0.055-0.398c0-0.261,0.055-0.486,0.163-0.678c0.109-0.191,0.253-0.35,0.432-0.475   c0.179-0.126,0.382-0.219,0.609-0.279c0.227-0.061,0.457-0.091,0.688-0.091c0.271,0,0.525,0.035,0.765,0.105   s0.45,0.175,0.631,0.315c0.182,0.14,0.325,0.312,0.432,0.518c0.106,0.206,0.159,0.444,0.159,0.715h-0.906   c-0.024-0.334-0.138-0.569-0.341-0.707s-0.461-0.207-0.775-0.207c-0.106,0-0.215,0.011-0.326,0.033   c-0.111,0.021-0.213,0.058-0.305,0.108s-0.168,0.12-0.229,0.207s-0.091,0.195-0.091,0.326c0,0.184,0.058,0.327,0.171,0.431   c0.113,0.104,0.262,0.183,0.445,0.236c0.02,0.005,0.096,0.025,0.229,0.062s0.282,0.076,0.446,0.119   c0.164,0.044,0.325,0.086,0.482,0.127c0.156,0.041,0.269,0.071,0.337,0.091c0.169,0.054,0.316,0.126,0.442,0.218   c0.125,0.092,0.23,0.197,0.315,0.315c0.084,0.118,0.147,0.245,0.188,0.38c0.041,0.136,0.062,0.271,0.062,0.406   c0,0.29-0.06,0.538-0.178,0.743c-0.118,0.206-0.274,0.374-0.468,0.504c-0.193,0.131-0.413,0.227-0.66,0.286   c-0.246,0.061-0.497,0.091-0.754,0.091c-0.295,0-0.572-0.036-0.833-0.108c-0.262-0.072-0.488-0.184-0.682-0.334   c-0.193-0.149-0.349-0.342-0.464-0.576c-0.116-0.234-0.177-0.511-0.182-0.83H202.383z"/>
	<path d="M209.249,24.21c-0.193,0.237-0.407,0.41-0.642,0.519s-0.504,0.163-0.809,0.163c-0.237,0-0.456-0.035-0.656-0.105   c-0.2-0.069-0.373-0.17-0.519-0.301c-0.145-0.13-0.257-0.291-0.337-0.482c-0.08-0.19-0.119-0.406-0.119-0.648   c0-0.184,0.033-0.351,0.102-0.5c0.067-0.15,0.156-0.286,0.268-0.41c0.111-0.123,0.238-0.232,0.381-0.329s0.289-0.184,0.438-0.262   c-0.067-0.087-0.133-0.173-0.195-0.257c-0.063-0.085-0.119-0.173-0.167-0.265c-0.049-0.092-0.087-0.188-0.116-0.29   s-0.043-0.208-0.043-0.319c0-0.188,0.032-0.357,0.098-0.508c0.065-0.149,0.155-0.278,0.271-0.388   c0.116-0.108,0.251-0.191,0.406-0.25c0.154-0.058,0.319-0.087,0.493-0.087c0.164,0,0.325,0.025,0.481,0.076   c0.157,0.051,0.295,0.128,0.414,0.232c0.118,0.104,0.214,0.232,0.286,0.388c0.072,0.154,0.108,0.336,0.108,0.544   c0,0.154-0.025,0.297-0.076,0.428c-0.051,0.13-0.118,0.25-0.203,0.358c-0.084,0.108-0.184,0.207-0.297,0.294   s-0.233,0.164-0.358,0.231l0.805,0.972c0.028-0.082,0.058-0.176,0.087-0.282c0.028-0.106,0.053-0.244,0.072-0.414h0.725   c-0.023,0.228-0.068,0.45-0.134,0.667c-0.065,0.218-0.156,0.419-0.271,0.603l0.993,1.203h-1.016L209.249,24.21z M207.792,22.397   c-0.078,0.049-0.162,0.097-0.254,0.146c-0.092,0.048-0.178,0.108-0.258,0.181s-0.147,0.159-0.203,0.261s-0.083,0.23-0.083,0.385   c0,0.28,0.078,0.495,0.235,0.646c0.157,0.149,0.356,0.225,0.599,0.225c0.149,0,0.277-0.021,0.384-0.062s0.197-0.091,0.272-0.149   c0.074-0.058,0.138-0.12,0.188-0.188c0.051-0.067,0.095-0.128,0.134-0.181L207.792,22.397z M208.125,20.106   c-0.154,0-0.285,0.052-0.392,0.156c-0.106,0.104-0.159,0.242-0.159,0.417c0,0.087,0.016,0.168,0.047,0.242   c0.031,0.075,0.07,0.147,0.116,0.218s0.097,0.139,0.152,0.207c0.056,0.067,0.107,0.133,0.155,0.195   c0.077-0.053,0.152-0.107,0.226-0.163c0.072-0.056,0.138-0.116,0.195-0.182c0.058-0.064,0.104-0.139,0.138-0.221   s0.051-0.174,0.051-0.275c0-0.169-0.049-0.311-0.145-0.424C208.412,20.163,208.284,20.106,208.125,20.106z"/>
	<path d="M211.185,19.613h2.284c0.367,0,0.667,0.054,0.898,0.16c0.232,0.106,0.411,0.239,0.537,0.398   c0.125,0.159,0.211,0.333,0.257,0.521s0.069,0.363,0.069,0.522s-0.023,0.332-0.069,0.519c-0.046,0.186-0.132,0.358-0.257,0.519   c-0.126,0.159-0.305,0.291-0.537,0.395c-0.231,0.104-0.531,0.156-0.898,0.156h-1.378v1.986h-0.906V19.613z M212.091,22.064h1.327   c0.102,0,0.205-0.015,0.312-0.044s0.204-0.076,0.294-0.142c0.089-0.065,0.161-0.152,0.217-0.261s0.084-0.245,0.084-0.409   c0-0.17-0.024-0.31-0.072-0.421c-0.049-0.111-0.114-0.199-0.196-0.265s-0.177-0.11-0.282-0.134   c-0.106-0.024-0.221-0.036-0.341-0.036h-1.342V22.064z"/>
	<path d="M218.377,19.715h2.625v0.739h-2.009l-0.261,1.291l0.015,0.015c0.111-0.126,0.252-0.222,0.424-0.286   c0.172-0.065,0.342-0.099,0.511-0.099c0.252,0,0.477,0.043,0.675,0.127c0.198,0.085,0.365,0.203,0.5,0.355   c0.136,0.152,0.238,0.332,0.309,0.54c0.069,0.208,0.104,0.433,0.104,0.675c0,0.202-0.032,0.412-0.098,0.627   s-0.169,0.41-0.312,0.587s-0.325,0.321-0.548,0.435c-0.222,0.114-0.488,0.171-0.797,0.171c-0.247,0-0.476-0.032-0.686-0.098   s-0.395-0.163-0.555-0.294c-0.159-0.131-0.286-0.291-0.381-0.482c-0.094-0.19-0.146-0.414-0.155-0.67h0.826   c0.024,0.275,0.118,0.486,0.283,0.634c0.164,0.147,0.382,0.222,0.652,0.222c0.174,0,0.321-0.029,0.442-0.087   c0.12-0.059,0.219-0.138,0.293-0.239c0.075-0.102,0.128-0.221,0.16-0.355c0.031-0.136,0.047-0.28,0.047-0.436   c0-0.14-0.02-0.273-0.058-0.402c-0.039-0.128-0.097-0.24-0.175-0.337c-0.077-0.097-0.177-0.174-0.301-0.231   c-0.123-0.059-0.267-0.088-0.431-0.088c-0.175,0-0.338,0.033-0.49,0.099c-0.151,0.064-0.262,0.188-0.329,0.366h-0.827   L218.377,19.715z"/>
	<path d="M223.532,19.613c0.362,0,0.658,0.084,0.888,0.25c0.229,0.167,0.408,0.38,0.537,0.639c0.128,0.259,0.215,0.542,0.261,0.852   s0.068,0.609,0.068,0.899s-0.022,0.589-0.068,0.898s-0.133,0.594-0.261,0.852c-0.129,0.259-0.308,0.472-0.537,0.639   s-0.525,0.25-0.888,0.25s-0.659-0.083-0.889-0.25s-0.408-0.38-0.536-0.639c-0.128-0.258-0.215-0.542-0.261-0.852   s-0.069-0.608-0.069-0.898s0.023-0.59,0.069-0.899s0.133-0.593,0.261-0.852s0.307-0.472,0.536-0.639   C222.873,19.697,223.17,19.613,223.532,19.613z M223.532,24.203c0.179,0,0.328-0.052,0.449-0.156   c0.121-0.104,0.217-0.244,0.286-0.421c0.07-0.176,0.12-0.383,0.149-0.619c0.028-0.237,0.043-0.488,0.043-0.754   c0-0.267-0.015-0.517-0.043-0.751c-0.029-0.234-0.079-0.44-0.149-0.62c-0.069-0.179-0.165-0.319-0.286-0.424   c-0.121-0.104-0.271-0.155-0.449-0.155c-0.184,0-0.335,0.052-0.453,0.155c-0.118,0.104-0.213,0.245-0.283,0.424   c-0.069,0.18-0.119,0.386-0.148,0.62s-0.043,0.484-0.043,0.751c0,0.266,0.014,0.517,0.043,0.754   c0.029,0.236,0.079,0.443,0.148,0.619c0.07,0.177,0.165,0.317,0.283,0.421C223.197,24.151,223.349,24.203,223.532,24.203z"/>
	<path d="M227.563,19.613c0.362,0,0.658,0.084,0.888,0.25c0.229,0.167,0.408,0.38,0.537,0.639c0.128,0.259,0.215,0.542,0.261,0.852   s0.068,0.609,0.068,0.899s-0.022,0.589-0.068,0.898s-0.133,0.594-0.261,0.852c-0.129,0.259-0.308,0.472-0.537,0.639   s-0.525,0.25-0.888,0.25s-0.659-0.083-0.889-0.25s-0.408-0.38-0.536-0.639c-0.128-0.258-0.215-0.542-0.261-0.852   s-0.069-0.608-0.069-0.898s0.023-0.59,0.069-0.899s0.133-0.593,0.261-0.852s0.307-0.472,0.536-0.639   C226.904,19.697,227.201,19.613,227.563,19.613z M227.563,24.203c0.179,0,0.328-0.052,0.449-0.156   c0.121-0.104,0.217-0.244,0.286-0.421c0.07-0.176,0.12-0.383,0.149-0.619c0.028-0.237,0.043-0.488,0.043-0.754   c0-0.267-0.015-0.517-0.043-0.751c-0.029-0.234-0.079-0.44-0.149-0.62c-0.069-0.179-0.165-0.319-0.286-0.424   c-0.121-0.104-0.271-0.155-0.449-0.155c-0.184,0-0.335,0.052-0.453,0.155c-0.118,0.104-0.213,0.245-0.283,0.424   c-0.069,0.18-0.119,0.386-0.148,0.62s-0.043,0.484-0.043,0.751c0,0.266,0.014,0.517,0.043,0.754   c0.029,0.236,0.079,0.443,0.148,0.619c0.07,0.177,0.165,0.317,0.283,0.421C227.229,24.151,227.38,24.203,227.563,24.203z"/>
</g>
<g>
	<path d="M170.175,91.087h0.906v4.394h2.632v0.783h-3.538V91.087z"/>
	<path d="M178.853,96.264h-0.58l-0.138-0.609c-0.241,0.275-0.483,0.467-0.725,0.573c-0.242,0.106-0.52,0.159-0.834,0.159   c-0.387,0-0.733-0.071-1.04-0.214s-0.566-0.337-0.779-0.583c-0.213-0.247-0.376-0.534-0.489-0.863   c-0.114-0.328-0.171-0.679-0.171-1.051c0-0.367,0.057-0.716,0.171-1.044c0.113-0.329,0.276-0.616,0.489-0.863   c0.213-0.246,0.473-0.442,0.779-0.587c0.307-0.146,0.653-0.218,1.04-0.218c0.28,0,0.548,0.037,0.802,0.112   c0.253,0.075,0.479,0.187,0.678,0.334s0.362,0.332,0.493,0.555c0.13,0.222,0.212,0.479,0.246,0.769h-0.885   c-0.024-0.17-0.076-0.318-0.155-0.446c-0.08-0.128-0.181-0.235-0.301-0.322c-0.121-0.088-0.257-0.152-0.406-0.196   c-0.15-0.043-0.308-0.065-0.472-0.065c-0.275,0-0.514,0.056-0.714,0.167s-0.364,0.26-0.489,0.446   c-0.126,0.186-0.219,0.397-0.279,0.634c-0.061,0.237-0.091,0.479-0.091,0.726c0,0.246,0.03,0.488,0.091,0.725   c0.061,0.237,0.153,0.448,0.279,0.635c0.125,0.186,0.289,0.334,0.489,0.445s0.438,0.167,0.714,0.167   c0.232,0.005,0.438-0.025,0.616-0.091s0.33-0.159,0.453-0.282c0.123-0.124,0.217-0.274,0.279-0.453s0.097-0.377,0.102-0.595h-1.378   v-0.688h2.204V96.264z"/>
	<path d="M181.854,91.087h2.146c0.396,0,0.739,0.068,1.029,0.203c0.29,0.136,0.526,0.32,0.71,0.555   c0.185,0.234,0.32,0.509,0.41,0.823c0.089,0.313,0.134,0.649,0.134,1.008c0,0.357-0.045,0.693-0.134,1.008   c-0.09,0.313-0.226,0.588-0.41,0.822c-0.184,0.234-0.42,0.42-0.71,0.555c-0.29,0.136-0.634,0.203-1.029,0.203h-2.146V91.087z    M182.761,95.524h0.892c0.354,0,0.642-0.048,0.867-0.142c0.225-0.095,0.4-0.225,0.528-0.392c0.129-0.167,0.216-0.362,0.262-0.587   s0.068-0.468,0.068-0.729c0-0.262-0.022-0.504-0.068-0.729c-0.046-0.226-0.133-0.421-0.262-0.588   c-0.128-0.167-0.304-0.297-0.528-0.392c-0.226-0.094-0.514-0.141-0.867-0.141h-0.892V95.524z"/>
	<path d="M186.995,91.087h0.826v0.783h-0.826V91.087z M186.995,92.516h0.826v3.748h-0.826V92.516z"/>
	<path d="M189.344,95.061c0.024,0.241,0.116,0.41,0.275,0.507s0.351,0.146,0.573,0.146c0.077,0,0.165-0.006,0.264-0.019   c0.1-0.012,0.192-0.035,0.279-0.068c0.087-0.034,0.158-0.084,0.214-0.149c0.056-0.064,0.081-0.15,0.076-0.257   s-0.043-0.193-0.116-0.261c-0.072-0.068-0.165-0.122-0.278-0.163c-0.114-0.041-0.243-0.076-0.389-0.105   c-0.145-0.029-0.292-0.061-0.441-0.095c-0.155-0.033-0.304-0.074-0.446-0.123c-0.143-0.048-0.271-0.113-0.384-0.195   c-0.114-0.082-0.205-0.188-0.272-0.315s-0.102-0.286-0.102-0.475c0-0.203,0.05-0.374,0.148-0.512   c0.1-0.138,0.226-0.249,0.377-0.333c0.152-0.085,0.322-0.144,0.508-0.178c0.187-0.034,0.364-0.051,0.533-0.051   c0.193,0,0.378,0.021,0.555,0.062c0.176,0.041,0.336,0.107,0.479,0.199s0.261,0.212,0.355,0.359   c0.094,0.147,0.153,0.325,0.177,0.532h-0.862c-0.039-0.198-0.13-0.331-0.271-0.398c-0.144-0.067-0.307-0.102-0.49-0.102   c-0.058,0-0.126,0.005-0.206,0.015s-0.155,0.027-0.225,0.055c-0.07,0.026-0.13,0.064-0.178,0.115   c-0.049,0.051-0.072,0.117-0.072,0.199c0,0.102,0.034,0.185,0.104,0.247s0.162,0.115,0.275,0.156   c0.114,0.041,0.243,0.075,0.389,0.104c0.145,0.029,0.294,0.061,0.449,0.095c0.149,0.033,0.297,0.074,0.442,0.123   c0.145,0.048,0.273,0.113,0.388,0.195c0.113,0.083,0.205,0.187,0.275,0.312c0.07,0.125,0.105,0.28,0.105,0.464   c0,0.222-0.051,0.41-0.152,0.565c-0.102,0.154-0.233,0.28-0.396,0.377s-0.342,0.167-0.54,0.21   c-0.198,0.044-0.394,0.065-0.587,0.065c-0.237,0-0.456-0.026-0.656-0.08c-0.201-0.053-0.375-0.134-0.522-0.242   c-0.147-0.109-0.264-0.244-0.348-0.406c-0.085-0.162-0.13-0.354-0.134-0.576H189.344z"/>
	<path d="M192.505,92.516h0.783v0.507h0.014c0.116-0.217,0.278-0.373,0.486-0.467c0.208-0.095,0.433-0.142,0.674-0.142   c0.295,0,0.553,0.052,0.772,0.155c0.22,0.104,0.402,0.247,0.547,0.428c0.146,0.182,0.254,0.394,0.326,0.635   c0.073,0.242,0.109,0.5,0.109,0.775c0,0.252-0.033,0.496-0.098,0.732c-0.065,0.237-0.165,0.446-0.298,0.627   c-0.133,0.182-0.301,0.327-0.504,0.436s-0.442,0.163-0.718,0.163c-0.121,0-0.241-0.011-0.362-0.032   c-0.121-0.022-0.237-0.058-0.348-0.105c-0.111-0.049-0.214-0.11-0.309-0.185c-0.094-0.075-0.173-0.163-0.235-0.265h-0.015v1.87   h-0.826V92.516z M195.39,94.394c0-0.17-0.021-0.334-0.064-0.493c-0.044-0.16-0.109-0.301-0.196-0.425   c-0.087-0.123-0.195-0.222-0.326-0.297s-0.28-0.112-0.449-0.112c-0.349,0-0.61,0.121-0.787,0.362   c-0.176,0.242-0.265,0.563-0.265,0.965c0,0.188,0.023,0.363,0.069,0.525s0.114,0.301,0.206,0.417s0.202,0.208,0.33,0.275   s0.277,0.102,0.446,0.102c0.188,0,0.348-0.039,0.479-0.116c0.13-0.077,0.238-0.178,0.322-0.301   c0.085-0.123,0.146-0.264,0.182-0.421C195.372,94.719,195.39,94.558,195.39,94.394z"/>
	<path d="M196.935,91.087h0.826v5.177h-0.826V91.087z"/>
	<path d="M201.799,95.43c0,0.102,0.014,0.174,0.04,0.218s0.078,0.065,0.155,0.065c0.024,0,0.054,0,0.088,0   c0.033,0,0.072-0.005,0.115-0.015v0.572c-0.028,0.01-0.066,0.021-0.112,0.033c-0.046,0.012-0.093,0.022-0.141,0.032   c-0.049,0.01-0.098,0.018-0.146,0.022c-0.049,0.004-0.09,0.007-0.123,0.007c-0.169,0-0.31-0.034-0.421-0.102   s-0.184-0.186-0.217-0.355c-0.165,0.16-0.366,0.275-0.605,0.349c-0.239,0.072-0.471,0.108-0.692,0.108   c-0.17,0-0.331-0.023-0.486-0.069c-0.154-0.046-0.291-0.113-0.409-0.202c-0.119-0.09-0.213-0.203-0.283-0.341   s-0.104-0.299-0.104-0.482c0-0.232,0.042-0.421,0.126-0.565c0.085-0.146,0.196-0.259,0.334-0.341s0.292-0.142,0.464-0.178   s0.345-0.064,0.519-0.083c0.149-0.029,0.292-0.05,0.428-0.062c0.135-0.013,0.255-0.033,0.358-0.062   c0.104-0.028,0.187-0.073,0.247-0.134s0.091-0.151,0.091-0.271c0-0.106-0.025-0.193-0.076-0.262   c-0.051-0.067-0.114-0.119-0.188-0.155c-0.075-0.036-0.158-0.061-0.25-0.072c-0.093-0.013-0.18-0.019-0.262-0.019   c-0.231,0-0.423,0.049-0.572,0.145c-0.15,0.098-0.234,0.247-0.254,0.45h-0.826c0.014-0.242,0.072-0.442,0.174-0.602   c0.102-0.16,0.23-0.288,0.388-0.385s0.335-0.164,0.533-0.203c0.198-0.038,0.4-0.058,0.608-0.058c0.184,0,0.365,0.02,0.544,0.058   c0.179,0.039,0.34,0.102,0.482,0.188s0.257,0.199,0.344,0.337c0.087,0.139,0.131,0.307,0.131,0.504V95.43z M200.973,94.386   c-0.126,0.082-0.28,0.132-0.464,0.148c-0.185,0.018-0.368,0.043-0.552,0.076c-0.087,0.015-0.171,0.035-0.254,0.062   c-0.082,0.027-0.154,0.063-0.217,0.109c-0.063,0.046-0.112,0.106-0.148,0.181c-0.037,0.075-0.055,0.166-0.055,0.272   c0,0.092,0.026,0.169,0.08,0.231c0.053,0.063,0.117,0.112,0.191,0.149c0.075,0.036,0.157,0.062,0.247,0.076   c0.089,0.014,0.17,0.021,0.242,0.021c0.092,0,0.191-0.013,0.298-0.036c0.106-0.024,0.206-0.065,0.301-0.124   c0.094-0.058,0.173-0.131,0.235-0.221s0.095-0.199,0.095-0.33V94.386z"/>
	<path d="M202.277,92.516h0.906l0.979,2.798h0.014l0.95-2.798h0.862l-1.457,3.951c-0.067,0.169-0.134,0.331-0.199,0.485   c-0.065,0.155-0.146,0.291-0.239,0.41c-0.095,0.118-0.212,0.212-0.352,0.282c-0.141,0.07-0.319,0.105-0.536,0.105   c-0.193,0-0.385-0.015-0.573-0.044v-0.695c0.067,0.01,0.133,0.021,0.195,0.032c0.063,0.012,0.129,0.019,0.196,0.019   c0.097,0,0.177-0.013,0.239-0.036c0.062-0.024,0.114-0.06,0.156-0.105c0.041-0.046,0.076-0.101,0.104-0.163   c0.029-0.063,0.056-0.136,0.08-0.218l0.094-0.29L202.277,92.516z"/>
</g>
<g>
	<path d="M218.646,47.249c-0.039-0.15-0.092-0.288-0.16-0.414c-0.067-0.125-0.154-0.234-0.261-0.326s-0.23-0.163-0.373-0.214   s-0.309-0.076-0.497-0.076c-0.275,0-0.514,0.056-0.714,0.167c-0.201,0.111-0.364,0.26-0.489,0.446   c-0.126,0.186-0.219,0.397-0.279,0.634c-0.061,0.237-0.091,0.479-0.091,0.726c0,0.246,0.03,0.488,0.091,0.725   c0.061,0.237,0.153,0.448,0.279,0.635c0.125,0.186,0.288,0.334,0.489,0.445c0.2,0.111,0.438,0.167,0.714,0.167   c0.203,0,0.382-0.035,0.536-0.105c0.155-0.069,0.288-0.166,0.399-0.29c0.111-0.123,0.198-0.267,0.261-0.431   c0.062-0.165,0.104-0.341,0.123-0.529h0.885c-0.02,0.309-0.086,0.592-0.199,0.848c-0.113,0.257-0.268,0.478-0.461,0.664   c-0.193,0.186-0.42,0.329-0.681,0.431c-0.262,0.102-0.549,0.152-0.863,0.152c-0.387,0-0.733-0.071-1.04-0.214   c-0.308-0.143-0.567-0.337-0.779-0.583c-0.213-0.247-0.376-0.534-0.489-0.863c-0.114-0.328-0.171-0.679-0.171-1.051   c0-0.367,0.057-0.716,0.171-1.044c0.113-0.329,0.276-0.616,0.489-0.863c0.212-0.246,0.472-0.442,0.779-0.587   c0.307-0.146,0.653-0.218,1.04-0.218c0.29,0,0.563,0.04,0.819,0.12c0.256,0.079,0.482,0.195,0.678,0.348   c0.196,0.152,0.354,0.337,0.475,0.555c0.121,0.218,0.196,0.467,0.226,0.747H218.646z"/>
	<path d="M221.988,50.881c-0.3,0-0.566-0.05-0.801-0.148c-0.235-0.1-0.433-0.236-0.595-0.41s-0.285-0.382-0.37-0.623   c-0.084-0.242-0.127-0.508-0.127-0.798c0-0.285,0.043-0.548,0.127-0.79c0.085-0.241,0.208-0.449,0.37-0.623   c0.162-0.175,0.359-0.311,0.595-0.41c0.234-0.099,0.501-0.148,0.801-0.148s0.566,0.05,0.801,0.148   c0.234,0.1,0.433,0.235,0.595,0.41c0.162,0.174,0.285,0.382,0.37,0.623c0.084,0.242,0.127,0.505,0.127,0.79   c0,0.29-0.043,0.556-0.127,0.798c-0.085,0.241-0.208,0.449-0.37,0.623s-0.36,0.311-0.595,0.41   C222.555,50.831,222.288,50.881,221.988,50.881z M221.988,50.229c0.184,0,0.343-0.039,0.479-0.116   c0.135-0.077,0.246-0.179,0.333-0.305c0.088-0.125,0.151-0.267,0.192-0.424s0.062-0.317,0.062-0.482   c0-0.159-0.021-0.318-0.062-0.479c-0.041-0.159-0.104-0.301-0.192-0.424c-0.087-0.123-0.198-0.224-0.333-0.301   c-0.136-0.077-0.295-0.116-0.479-0.116s-0.344,0.039-0.479,0.116c-0.136,0.077-0.246,0.178-0.334,0.301   c-0.087,0.123-0.15,0.265-0.191,0.424c-0.041,0.16-0.062,0.319-0.062,0.479c0,0.165,0.021,0.325,0.062,0.482   s0.104,0.299,0.191,0.424c0.088,0.126,0.198,0.228,0.334,0.305C221.645,50.189,221.805,50.229,221.988,50.229z"/>
	<path d="M224.568,47.031h0.776v0.725h0.015c0.023-0.102,0.071-0.2,0.141-0.297c0.07-0.097,0.155-0.186,0.254-0.265   c0.1-0.08,0.209-0.144,0.33-0.192c0.121-0.048,0.244-0.072,0.37-0.072c0.097,0,0.163,0.002,0.199,0.007s0.073,0.01,0.112,0.015   v0.798c-0.058-0.01-0.117-0.019-0.178-0.025c-0.061-0.008-0.119-0.011-0.178-0.011c-0.14,0-0.271,0.027-0.395,0.083   c-0.124,0.056-0.231,0.138-0.323,0.246c-0.092,0.109-0.164,0.243-0.218,0.402c-0.053,0.16-0.079,0.344-0.079,0.552v1.783h-0.827   V47.031z"/>
	<path d="M227.251,47.031h0.783v0.551l0.015,0.015c0.126-0.208,0.29-0.371,0.493-0.489s0.428-0.178,0.674-0.178   c0.411,0,0.735,0.106,0.972,0.319c0.237,0.212,0.355,0.531,0.355,0.956v2.574h-0.826v-2.356c-0.01-0.295-0.073-0.509-0.188-0.642   c-0.116-0.133-0.298-0.199-0.544-0.199c-0.141,0-0.266,0.025-0.377,0.076s-0.206,0.121-0.283,0.21   c-0.077,0.09-0.138,0.195-0.181,0.315c-0.044,0.121-0.065,0.249-0.065,0.385v2.211h-0.827V47.031z"/>
	<path d="M231.435,45.603h0.826v0.783h-0.826V45.603z M231.435,47.031h0.826v3.748h-0.826V47.031z"/>
	<path d="M233.159,47.031h0.783v0.551l0.015,0.015c0.126-0.208,0.29-0.371,0.493-0.489s0.428-0.178,0.674-0.178   c0.411,0,0.735,0.106,0.972,0.319c0.237,0.212,0.355,0.531,0.355,0.956v2.574h-0.826v-2.356c-0.01-0.295-0.073-0.509-0.188-0.642   c-0.116-0.133-0.298-0.199-0.544-0.199c-0.141,0-0.266,0.025-0.377,0.076s-0.206,0.121-0.283,0.21   c-0.077,0.09-0.138,0.195-0.181,0.315c-0.044,0.121-0.065,0.249-0.065,0.385v2.211h-0.827V47.031z"/>
	<path d="M240.786,50.584c0,0.565-0.158,0.986-0.475,1.265s-0.772,0.417-1.367,0.417c-0.188,0-0.378-0.02-0.568-0.058   c-0.191-0.039-0.365-0.104-0.522-0.196s-0.289-0.213-0.396-0.362c-0.105-0.15-0.169-0.334-0.188-0.551h0.827   c0.024,0.115,0.065,0.21,0.123,0.282s0.127,0.13,0.207,0.171c0.079,0.041,0.168,0.067,0.265,0.079   c0.097,0.013,0.197,0.019,0.304,0.019c0.334,0,0.578-0.082,0.732-0.247c0.155-0.164,0.232-0.4,0.232-0.71v-0.573h-0.015   c-0.116,0.208-0.274,0.37-0.475,0.486c-0.201,0.116-0.417,0.174-0.649,0.174c-0.3,0-0.555-0.052-0.765-0.156   c-0.21-0.104-0.384-0.246-0.522-0.428c-0.138-0.181-0.237-0.39-0.301-0.627c-0.062-0.236-0.094-0.49-0.094-0.761   c0-0.252,0.038-0.491,0.116-0.718c0.077-0.228,0.188-0.427,0.333-0.599c0.146-0.171,0.322-0.308,0.533-0.409   c0.21-0.102,0.448-0.152,0.714-0.152c0.236,0,0.454,0.05,0.652,0.148c0.198,0.1,0.351,0.255,0.457,0.468h0.015v-0.515h0.826V50.584   z M238.952,50.127c0.184,0,0.339-0.037,0.468-0.112c0.128-0.075,0.231-0.174,0.312-0.298c0.08-0.123,0.138-0.263,0.174-0.42   s0.055-0.315,0.055-0.475c0-0.16-0.02-0.314-0.059-0.465c-0.038-0.149-0.098-0.282-0.178-0.398   c-0.079-0.116-0.184-0.208-0.312-0.275s-0.281-0.102-0.46-0.102c-0.184,0-0.339,0.039-0.464,0.116   c-0.126,0.077-0.228,0.178-0.305,0.301s-0.133,0.264-0.167,0.42c-0.034,0.157-0.051,0.313-0.051,0.468   c0,0.155,0.02,0.306,0.059,0.453c0.038,0.147,0.098,0.279,0.177,0.396c0.08,0.116,0.182,0.21,0.305,0.282   C238.629,50.091,238.778,50.127,238.952,50.127z"/>
	<path d="M248.268,50.779h-0.58l-0.138-0.609c-0.241,0.275-0.483,0.467-0.725,0.573c-0.242,0.106-0.52,0.159-0.834,0.159   c-0.387,0-0.733-0.071-1.04-0.214s-0.566-0.337-0.779-0.583c-0.213-0.247-0.376-0.534-0.489-0.863   c-0.114-0.328-0.171-0.679-0.171-1.051c0-0.367,0.057-0.716,0.171-1.044c0.113-0.329,0.276-0.616,0.489-0.863   c0.213-0.246,0.473-0.442,0.779-0.587c0.307-0.146,0.653-0.218,1.04-0.218c0.28,0,0.548,0.037,0.802,0.112   c0.253,0.075,0.479,0.187,0.678,0.334s0.362,0.332,0.493,0.555c0.13,0.222,0.212,0.479,0.246,0.769h-0.885   c-0.024-0.17-0.076-0.318-0.155-0.446c-0.08-0.128-0.181-0.235-0.301-0.322c-0.121-0.088-0.257-0.152-0.406-0.196   c-0.15-0.043-0.308-0.065-0.472-0.065c-0.275,0-0.514,0.056-0.714,0.167s-0.364,0.26-0.489,0.446   c-0.126,0.186-0.219,0.397-0.279,0.634c-0.061,0.237-0.091,0.479-0.091,0.726c0,0.246,0.03,0.488,0.091,0.725   c0.061,0.237,0.153,0.448,0.279,0.635c0.125,0.186,0.289,0.334,0.489,0.445s0.438,0.167,0.714,0.167   c0.232,0.005,0.438-0.025,0.616-0.091s0.33-0.159,0.453-0.282c0.123-0.124,0.217-0.274,0.279-0.453s0.097-0.377,0.102-0.595h-1.378   v-0.688h2.204V50.779z"/>
	<path d="M249.16,45.603h0.826v5.177h-0.826V45.603z"/>
	<path d="M254.024,49.945c0,0.102,0.014,0.174,0.04,0.218s0.078,0.065,0.155,0.065c0.024,0,0.054,0,0.088,0   c0.033,0,0.072-0.005,0.115-0.015v0.572c-0.028,0.01-0.066,0.021-0.112,0.033c-0.046,0.012-0.093,0.022-0.141,0.032   c-0.049,0.01-0.098,0.018-0.146,0.022c-0.049,0.004-0.09,0.007-0.123,0.007c-0.169,0-0.31-0.034-0.421-0.102   s-0.184-0.186-0.217-0.355c-0.165,0.16-0.366,0.275-0.605,0.349c-0.239,0.072-0.471,0.108-0.692,0.108   c-0.17,0-0.331-0.023-0.486-0.069c-0.154-0.046-0.291-0.113-0.409-0.202c-0.119-0.09-0.213-0.203-0.283-0.341   s-0.104-0.299-0.104-0.482c0-0.232,0.042-0.421,0.126-0.565c0.085-0.146,0.196-0.259,0.334-0.341s0.292-0.142,0.464-0.178   s0.345-0.064,0.519-0.083c0.149-0.029,0.292-0.05,0.428-0.062c0.135-0.013,0.255-0.033,0.358-0.062   c0.104-0.028,0.187-0.073,0.247-0.134s0.091-0.151,0.091-0.271c0-0.106-0.025-0.193-0.076-0.262   c-0.051-0.067-0.114-0.119-0.188-0.155c-0.075-0.036-0.158-0.061-0.25-0.072c-0.093-0.013-0.18-0.019-0.262-0.019   c-0.231,0-0.423,0.049-0.572,0.145c-0.15,0.098-0.234,0.247-0.254,0.45h-0.826c0.014-0.242,0.072-0.442,0.174-0.602   c0.102-0.16,0.23-0.288,0.388-0.385s0.335-0.164,0.533-0.203c0.198-0.038,0.4-0.058,0.608-0.058c0.184,0,0.365,0.02,0.544,0.058   c0.179,0.039,0.34,0.102,0.482,0.188s0.257,0.199,0.344,0.337c0.087,0.139,0.131,0.307,0.131,0.504V49.945z M253.198,48.901   c-0.126,0.082-0.28,0.132-0.464,0.148c-0.185,0.018-0.368,0.043-0.552,0.076c-0.087,0.015-0.171,0.035-0.254,0.062   c-0.082,0.027-0.154,0.063-0.217,0.109c-0.063,0.046-0.112,0.106-0.148,0.181c-0.037,0.075-0.055,0.166-0.055,0.272   c0,0.092,0.026,0.169,0.08,0.231c0.053,0.063,0.117,0.112,0.191,0.149c0.075,0.036,0.157,0.062,0.247,0.076   c0.089,0.014,0.17,0.021,0.242,0.021c0.092,0,0.191-0.013,0.298-0.036c0.106-0.024,0.206-0.065,0.301-0.124   c0.094-0.058,0.173-0.131,0.235-0.221s0.095-0.199,0.095-0.33V48.901z"/>
	<path d="M255.54,49.576c0.024,0.241,0.116,0.41,0.275,0.507s0.351,0.146,0.573,0.146c0.077,0,0.165-0.006,0.264-0.019   c0.1-0.012,0.192-0.035,0.279-0.068c0.087-0.034,0.158-0.084,0.214-0.149c0.056-0.064,0.081-0.15,0.076-0.257   s-0.043-0.193-0.116-0.261c-0.072-0.068-0.165-0.122-0.278-0.163c-0.114-0.041-0.243-0.076-0.389-0.105   c-0.145-0.029-0.292-0.061-0.441-0.095c-0.155-0.033-0.304-0.074-0.446-0.123c-0.143-0.048-0.271-0.113-0.384-0.195   c-0.114-0.082-0.205-0.188-0.272-0.315s-0.102-0.286-0.102-0.475c0-0.203,0.05-0.374,0.148-0.512   c0.1-0.138,0.226-0.249,0.377-0.333c0.152-0.085,0.322-0.144,0.508-0.178c0.187-0.034,0.364-0.051,0.533-0.051   c0.193,0,0.378,0.021,0.555,0.062c0.176,0.041,0.336,0.107,0.479,0.199s0.261,0.212,0.355,0.359   c0.094,0.147,0.153,0.325,0.177,0.532h-0.862c-0.039-0.198-0.13-0.331-0.271-0.398c-0.144-0.067-0.307-0.102-0.49-0.102   c-0.058,0-0.126,0.005-0.206,0.015s-0.155,0.027-0.225,0.055c-0.07,0.026-0.13,0.064-0.178,0.115   c-0.049,0.051-0.072,0.117-0.072,0.199c0,0.102,0.034,0.185,0.104,0.247s0.162,0.115,0.275,0.156   c0.114,0.041,0.243,0.075,0.389,0.104c0.145,0.029,0.294,0.061,0.449,0.095c0.149,0.033,0.297,0.074,0.442,0.123   c0.145,0.048,0.273,0.113,0.388,0.195c0.113,0.083,0.205,0.187,0.275,0.312c0.07,0.125,0.105,0.28,0.105,0.464   c0,0.222-0.051,0.41-0.152,0.565c-0.102,0.154-0.233,0.28-0.396,0.377s-0.342,0.167-0.54,0.21   c-0.198,0.044-0.394,0.065-0.587,0.065c-0.237,0-0.456-0.026-0.656-0.08c-0.201-0.053-0.375-0.134-0.522-0.242   c-0.147-0.109-0.264-0.244-0.348-0.406c-0.085-0.162-0.13-0.354-0.134-0.576H255.54z"/>
	<path d="M259.303,49.576c0.024,0.241,0.116,0.41,0.275,0.507s0.351,0.146,0.573,0.146c0.077,0,0.165-0.006,0.264-0.019   c0.1-0.012,0.192-0.035,0.279-0.068c0.087-0.034,0.158-0.084,0.214-0.149c0.056-0.064,0.081-0.15,0.076-0.257   s-0.043-0.193-0.116-0.261c-0.072-0.068-0.165-0.122-0.278-0.163c-0.114-0.041-0.243-0.076-0.389-0.105   c-0.145-0.029-0.292-0.061-0.441-0.095c-0.155-0.033-0.304-0.074-0.446-0.123c-0.143-0.048-0.271-0.113-0.384-0.195   c-0.114-0.082-0.205-0.188-0.272-0.315s-0.102-0.286-0.102-0.475c0-0.203,0.05-0.374,0.148-0.512   c0.1-0.138,0.226-0.249,0.377-0.333c0.152-0.085,0.322-0.144,0.508-0.178c0.187-0.034,0.364-0.051,0.533-0.051   c0.193,0,0.378,0.021,0.555,0.062c0.176,0.041,0.336,0.107,0.479,0.199s0.261,0.212,0.355,0.359   c0.094,0.147,0.153,0.325,0.177,0.532h-0.862c-0.039-0.198-0.13-0.331-0.271-0.398c-0.144-0.067-0.307-0.102-0.49-0.102   c-0.058,0-0.126,0.005-0.206,0.015s-0.155,0.027-0.225,0.055c-0.07,0.026-0.13,0.064-0.178,0.115   c-0.049,0.051-0.072,0.117-0.072,0.199c0,0.102,0.034,0.185,0.104,0.247s0.162,0.115,0.275,0.156   c0.114,0.041,0.243,0.075,0.389,0.104c0.145,0.029,0.294,0.061,0.449,0.095c0.149,0.033,0.297,0.074,0.442,0.123   c0.145,0.048,0.273,0.113,0.388,0.195c0.113,0.083,0.205,0.187,0.275,0.312c0.07,0.125,0.105,0.28,0.105,0.464   c0,0.222-0.051,0.41-0.152,0.565c-0.102,0.154-0.233,0.28-0.396,0.377s-0.342,0.167-0.54,0.21   c-0.198,0.044-0.394,0.065-0.587,0.065c-0.237,0-0.456-0.026-0.656-0.08c-0.201-0.053-0.375-0.134-0.522-0.242   c-0.147-0.109-0.264-0.244-0.348-0.406c-0.085-0.162-0.13-0.354-0.134-0.576H259.303z"/>
</g>
<g>
	<path d="M190.308,147.07c0.004-0.234,0.045-0.441,0.121-0.621c0.077-0.18,0.178-0.342,0.304-0.486   c0.126-0.144,0.268-0.275,0.426-0.395c0.157-0.119,0.319-0.233,0.485-0.344c0.167-0.11,0.332-0.224,0.496-0.338   c0.165-0.115,0.312-0.237,0.442-0.368c0.131-0.13,0.229-0.264,0.294-0.401s0.098-0.301,0.098-0.489   c0-0.153-0.028-0.289-0.084-0.408c-0.057-0.119-0.133-0.221-0.229-0.304c-0.097-0.084-0.21-0.146-0.338-0.189   s-0.265-0.064-0.408-0.064c-0.193,0-0.359,0.036-0.496,0.108c-0.138,0.072-0.249,0.169-0.334,0.29   c-0.086,0.122-0.147,0.262-0.186,0.419c-0.039,0.157-0.056,0.324-0.051,0.499h-0.426c-0.004-0.243,0.024-0.467,0.085-0.671   c0.061-0.205,0.154-0.382,0.28-0.53s0.284-0.265,0.476-0.348s0.415-0.125,0.672-0.125c0.207,0,0.399,0.028,0.577,0.085   c0.178,0.056,0.333,0.139,0.466,0.249c0.132,0.11,0.235,0.249,0.31,0.415c0.075,0.167,0.112,0.36,0.112,0.581   c0,0.198-0.033,0.378-0.099,0.54s-0.152,0.311-0.263,0.445s-0.236,0.26-0.378,0.375c-0.142,0.114-0.292,0.222-0.449,0.32   c-0.112,0.076-0.245,0.161-0.398,0.253c-0.152,0.093-0.3,0.194-0.442,0.308c-0.142,0.112-0.267,0.234-0.374,0.367   c-0.108,0.133-0.176,0.278-0.203,0.436h2.626v0.392H190.308z"/>
	<path d="M196.534,142.531c0.214,0.15,0.38,0.343,0.5,0.577c0.119,0.233,0.2,0.495,0.242,0.782c0.043,0.288,0.064,0.569,0.064,0.844   c0,0.279-0.021,0.563-0.064,0.851c-0.042,0.288-0.123,0.55-0.242,0.783c-0.12,0.234-0.286,0.426-0.5,0.574s-0.494,0.223-0.84,0.223   c-0.343,0-0.621-0.074-0.838-0.223c-0.216-0.148-0.383-0.34-0.502-0.574c-0.12-0.233-0.201-0.495-0.243-0.783   c-0.043-0.287-0.064-0.569-0.064-0.844c0-0.278,0.021-0.562,0.064-0.851c0.042-0.287,0.123-0.549,0.243-0.782   c0.119-0.234,0.286-0.427,0.502-0.577c0.217-0.151,0.495-0.227,0.838-0.227C196.04,142.305,196.32,142.38,196.534,142.531z    M195.046,142.872c-0.162,0.14-0.285,0.312-0.368,0.52s-0.138,0.432-0.165,0.675s-0.041,0.466-0.041,0.668   c0,0.207,0.014,0.432,0.041,0.672c0.027,0.241,0.082,0.466,0.165,0.675c0.083,0.21,0.206,0.384,0.368,0.523   s0.378,0.209,0.648,0.209c0.27,0,0.485-0.069,0.647-0.209s0.284-0.313,0.368-0.523c0.083-0.209,0.138-0.434,0.165-0.675   c0.027-0.24,0.041-0.465,0.041-0.672c0-0.202-0.014-0.425-0.041-0.668s-0.082-0.468-0.165-0.675   c-0.084-0.207-0.206-0.38-0.368-0.52s-0.378-0.21-0.647-0.21C195.424,142.662,195.208,142.732,195.046,142.872z"/>
	<path d="M198.728,143.227c0.151-0.016,0.281-0.053,0.392-0.111s0.203-0.147,0.277-0.267s0.127-0.287,0.158-0.503h0.345v4.725   h-0.426v-3.51h-1.249v-0.304C198.409,143.252,198.577,143.242,198.728,143.227z"/>
	<path d="M202.48,143.227c0.151-0.016,0.281-0.053,0.392-0.111s0.203-0.147,0.277-0.267s0.127-0.287,0.158-0.503h0.345v4.725h-0.426   v-3.51h-1.249v-0.304C202.162,143.252,202.33,143.242,202.48,143.227z"/>
</g>
<g>
	<path d="M237.454,147.07c0.004-0.234,0.045-0.441,0.121-0.621c0.077-0.18,0.178-0.342,0.304-0.486   c0.126-0.144,0.268-0.275,0.426-0.395c0.157-0.119,0.319-0.233,0.485-0.344c0.167-0.11,0.332-0.224,0.496-0.338   c0.165-0.115,0.312-0.237,0.442-0.368c0.131-0.13,0.229-0.264,0.294-0.401s0.098-0.301,0.098-0.489   c0-0.153-0.028-0.289-0.084-0.408c-0.057-0.119-0.133-0.221-0.229-0.304c-0.097-0.084-0.21-0.146-0.338-0.189   s-0.265-0.064-0.408-0.064c-0.193,0-0.359,0.036-0.496,0.108c-0.138,0.072-0.249,0.169-0.334,0.29   c-0.086,0.122-0.147,0.262-0.186,0.419c-0.039,0.157-0.056,0.324-0.051,0.499h-0.426c-0.004-0.243,0.024-0.467,0.085-0.671   c0.061-0.205,0.154-0.382,0.28-0.53s0.284-0.265,0.476-0.348s0.415-0.125,0.672-0.125c0.207,0,0.399,0.028,0.577,0.085   c0.178,0.056,0.333,0.139,0.466,0.249c0.132,0.11,0.235,0.249,0.31,0.415c0.075,0.167,0.112,0.36,0.112,0.581   c0,0.198-0.033,0.378-0.099,0.54s-0.152,0.311-0.263,0.445s-0.236,0.26-0.378,0.375c-0.142,0.114-0.292,0.222-0.449,0.32   c-0.112,0.076-0.245,0.161-0.398,0.253c-0.152,0.093-0.3,0.194-0.442,0.308c-0.142,0.112-0.267,0.234-0.374,0.367   c-0.108,0.133-0.176,0.278-0.203,0.436h2.626v0.392H237.454z"/>
	<path d="M243.681,142.531c0.214,0.15,0.38,0.343,0.5,0.577c0.119,0.233,0.2,0.495,0.242,0.782c0.043,0.288,0.064,0.569,0.064,0.844   c0,0.279-0.021,0.563-0.064,0.851c-0.042,0.288-0.123,0.55-0.242,0.783c-0.12,0.234-0.286,0.426-0.5,0.574s-0.494,0.223-0.84,0.223   c-0.343,0-0.621-0.074-0.838-0.223c-0.216-0.148-0.383-0.34-0.502-0.574c-0.12-0.233-0.201-0.495-0.243-0.783   c-0.043-0.287-0.064-0.569-0.064-0.844c0-0.278,0.021-0.562,0.064-0.851c0.042-0.287,0.123-0.549,0.243-0.782   c0.119-0.234,0.286-0.427,0.502-0.577c0.217-0.151,0.495-0.227,0.838-0.227C243.187,142.305,243.467,142.38,243.681,142.531z    M242.192,142.872c-0.162,0.14-0.285,0.312-0.368,0.52s-0.138,0.432-0.165,0.675s-0.041,0.466-0.041,0.668   c0,0.207,0.014,0.432,0.041,0.672c0.027,0.241,0.082,0.466,0.165,0.675c0.083,0.21,0.206,0.384,0.368,0.523   s0.378,0.209,0.648,0.209c0.27,0,0.485-0.069,0.647-0.209s0.284-0.313,0.368-0.523c0.083-0.209,0.138-0.434,0.165-0.675   c0.027-0.24,0.041-0.465,0.041-0.672c0-0.202-0.014-0.425-0.041-0.668s-0.082-0.468-0.165-0.675   c-0.084-0.207-0.206-0.38-0.368-0.52s-0.378-0.21-0.647-0.21C242.57,142.662,242.354,142.732,242.192,142.872z"/>
	<path d="M245.874,143.227c0.151-0.016,0.281-0.053,0.392-0.111s0.203-0.147,0.277-0.267s0.127-0.287,0.158-0.503h0.345v4.725   h-0.426v-3.51h-1.249v-0.304C245.556,143.252,245.724,143.242,245.874,143.227z"/>
	<path d="M248.713,147.07c0.004-0.234,0.045-0.441,0.121-0.621c0.077-0.18,0.178-0.342,0.304-0.486   c0.126-0.144,0.268-0.275,0.426-0.395c0.157-0.119,0.319-0.233,0.485-0.344c0.167-0.11,0.332-0.224,0.496-0.338   c0.165-0.115,0.312-0.237,0.442-0.368c0.131-0.13,0.229-0.264,0.294-0.401s0.098-0.301,0.098-0.489   c0-0.153-0.028-0.289-0.084-0.408c-0.057-0.119-0.133-0.221-0.229-0.304c-0.097-0.084-0.21-0.146-0.338-0.189   s-0.265-0.064-0.408-0.064c-0.193,0-0.359,0.036-0.496,0.108c-0.138,0.072-0.249,0.169-0.334,0.29   c-0.086,0.122-0.147,0.262-0.186,0.419c-0.039,0.157-0.056,0.324-0.051,0.499h-0.426c-0.004-0.243,0.024-0.467,0.085-0.671   c0.061-0.205,0.154-0.382,0.28-0.53s0.284-0.265,0.476-0.348s0.415-0.125,0.672-0.125c0.207,0,0.399,0.028,0.577,0.085   c0.178,0.056,0.333,0.139,0.466,0.249c0.132,0.11,0.235,0.249,0.31,0.415c0.075,0.167,0.112,0.36,0.112,0.581   c0,0.198-0.033,0.378-0.099,0.54s-0.152,0.311-0.263,0.445s-0.236,0.26-0.378,0.375c-0.142,0.114-0.292,0.222-0.449,0.32   c-0.112,0.076-0.245,0.161-0.398,0.253c-0.152,0.093-0.3,0.194-0.442,0.308c-0.142,0.112-0.267,0.234-0.374,0.367   c-0.108,0.133-0.176,0.278-0.203,0.436h2.626v0.392H248.713z"/>
</g>
<polyline fill="none" stroke="#000000" stroke-width="0.5" stroke-linecap="square" stroke-miterlimit="10" points="32.559,2.396   32.559,134.835 268.289,134.835 "/>
<line fill="none" stroke="#000000" stroke-width="0.5" stroke-miterlimit="10" x1="32.559" y1="134.835" x2="32.559" y2="137.974"/>
<line fill="none" stroke="#000000" stroke-width="0.5" stroke-miterlimit="10" x1="29.419" y1="134.835" x2="32.559" y2="134.835"/>
<line fill="none" stroke="#000000" stroke-width="0.5" stroke-miterlimit="10" x1="29.419" y1="108.347" x2="32.559" y2="108.347"/>
<line fill="none" stroke="#000000" stroke-width="0.5" stroke-miterlimit="10" x1="29.419" y1="81.859" x2="32.559" y2="81.859"/>
<line fill="none" stroke="#000000" stroke-width="0.5" stroke-miterlimit="10" x1="29.419" y1="55.372" x2="32.559" y2="55.372"/>
<line fill="none" stroke="#000000" stroke-width="0.5" stroke-miterlimit="10" x1="29.419" y1="28.884" x2="32.559" y2="28.884"/>
<line fill="none" stroke="#000000" stroke-width="0.5" stroke-miterlimit="10" x1="29.419" y1="2.396" x2="32.559" y2="2.396"/>
<line fill="none" stroke="#000000" stroke-width="0.5" stroke-miterlimit="10" x1="79.705" y1="134.835" x2="79.705" y2="137.974"/>
<line fill="none" stroke="#000000" stroke-width="0.5" stroke-miterlimit="10" x1="126.851" y1="134.835" x2="126.851" y2="137.974"/>
<line fill="none" stroke="#000000" stroke-width="0.5" stroke-miterlimit="10" x1="173.997" y1="134.835" x2="173.997" y2="137.974"/>
<line fill="none" stroke="#000000" stroke-width="0.5" stroke-miterlimit="10" x1="221.144" y1="134.835" x2="221.144" y2="137.974"/>
<line fill="none" stroke="#000000" stroke-width="0.5" stroke-miterlimit="10" x1="268.289" y1="134.835" x2="268.289" y2="137.974"/>
<g>
	
		<polyline fill="none" stroke="#7A9AA8" stroke-width="2.5" stroke-linecap="round" stroke-linejoin="round" stroke-miterlimit="10" points="   34.701,24.487 38.786,18.576 42.694,25.421 46.602,17.021 50.509,7.063 54.417,7.997 58.325,27.91 62.233,38.8 66.141,37.866    70.048,62.447 73.956,82.049 77.864,94.494 81.771,87.027 85.857,86.094 89.765,89.827 93.672,67.736 97.58,67.114 101.488,60.892    105.396,61.202 109.304,55.291 113.211,64.625 117.119,64.003 121.027,66.181 124.935,53.424 128.843,42.223 132.928,49.067    136.836,50.935 140.743,38.489 144.651,41.289 148.559,57.157 152.467,58.402 156.374,44.4 160.282,57.469 164.19,48.757    168.098,47.201 172.006,49.379 175.913,43.467 179.999,27.599 183.906,30.71 187.814,37.244 191.723,35.688 195.63,41.601    199.538,47.201 203.445,60.892 207.354,64.937 211.261,76.138 215.169,68.98 219.077,71.159 222.984,73.337 226.893,73.648    230.978,73.337 234.886,68.98 238.793,67.114 242.701,75.204 246.608,73.648 250.517,81.115 254.424,78.004 258.332,72.715    262.239,79.249 266.147,77.382  "/>
</g>
<g>
	
		<polyline fill="none" stroke="#F47920" stroke-width="2.5" stroke-linecap="round" stroke-linejoin="round" stroke-miterlimit="10" points="   34.701,24.487 38.786,43.467 42.694,29.777 46.602,30.399 50.509,31.644 54.417,28.844 58.325,44.09 62.233,63.691 66.141,75.826    70.048,64.625 73.956,82.049 77.864,83.916 81.771,79.871 85.857,70.848 89.765,77.07 93.672,67.425 97.58,61.514 101.488,67.736    105.396,60.269 109.304,50.623 113.211,48.135 117.119,56.224 121.027,67.114 124.935,55.291 128.843,37.866 132.928,48.135    136.836,53.735 140.743,37.244 144.651,25.732 148.559,30.71 152.467,43.467 156.374,50.001 160.282,57.157 164.19,43.467    168.098,45.334 172.006,41.289 175.913,41.601 179.999,44.4 183.906,50.935 187.814,51.868 191.723,44.712 195.63,52.49    199.538,62.758 203.445,68.358 207.354,86.716 211.261,88.271 215.169,80.182 219.077,73.337 222.984,76.448 226.893,64.313    230.978,65.559 234.886,72.093 238.793,76.448 242.701,85.16 246.608,84.227 250.517,78.004 254.424,73.959 258.332,68.358    262.239,57.469 266.147,54.668  "/>
</g>
<g>
	
		<polyline fill="none" stroke="#A7A9AC" stroke-width="2.5" stroke-linecap="round" stroke-linejoin="round" stroke-miterlimit="10" points="   34.701,24.487 38.786,28.222 42.694,33.199 46.602,30.088 50.509,27.288 54.417,29.154 58.325,36.622 62.233,38.489 66.141,36.934    70.048,46.268 73.956,60.892 77.864,72.403 81.771,63.691 85.857,71.781 89.765,81.115 93.672,72.715 97.58,67.736 101.488,62.758    105.396,64.313 109.304,58.091 113.211,58.713 117.119,56.224 121.027,55.291 124.935,50.001 128.843,48.445 132.928,51.557    136.836,49.69 140.743,44.712 144.651,43.156 148.559,53.112 152.467,56.224 156.374,48.757 160.282,52.179 164.19,47.201    168.098,44.4 172.006,42.845 175.913,38.8 179.999,35.066 183.906,35.066 187.814,33.199 191.723,30.71 195.63,34.444    199.538,32.577 203.445,36.622 207.354,42.845 211.261,48.445 215.169,41.911 219.077,39.733 222.984,38.8 226.893,33.821    230.978,30.088 234.886,26.665 238.793,27.599 242.701,37.244 246.608,30.71 250.517,29.777 254.424,27.599 258.332,24.487    262.239,25.732 266.147,27.288  "/>
</g>
<g>
	<g>
		
			<line fill="none" stroke="#000000" stroke-width="0.5" stroke-linejoin="round" x1="221.646" y1="36.596" x2="215.51" y2="25.694"/>
		<g>
			<polygon points="223.008,35.201 222.968,38.94 219.749,37.036    "/>
		</g>
	</g>
</g>
<g>
	<g>
		
			<line fill="none" stroke="#000000" stroke-width="0.5" stroke-linejoin="round" x1="236.344" y1="64.994" x2="230.206" y2="54.093"/>
		<g>
			<polygon points="237.705,63.6 237.664,67.339 234.446,65.435    "/>
		</g>
	</g>
</g>
<g>
	<g>
		
			<line fill="none" stroke="#000000" stroke-width="0.5" stroke-linejoin="round" x1="193.422" y1="89.232" x2="202.905" y2="81.923"/>
		<g>
			<polygon points="203.613,83.738 205.036,80.28 201.33,80.776    "/>
		</g>
	</g>
</g>
</svg>