<svg xmlns="http://www.w3.org/2000/svg" xmlns:xlink="http://www.w3.org/1999/xlink" version="1.1" x="0px" y="0px" width="266.699px" height="137.775px" viewBox="0 0 266.699 137.775" enable-background="new 0 0 266.699 137.775" xml:space="preserve">
<g id="Layer_1">
	<line fill="none" stroke="#CCCCCC" stroke-width="0.5" stroke-miterlimit="10" x1="266.449" y1="2.576" x2="32.882" y2="2.576"/>
	<line fill="none" stroke="#CCCCCC" stroke-width="0.5" stroke-miterlimit="10" x1="266.449" y1="17.421" x2="32.882" y2="17.421"/>
	<line fill="none" stroke="#CCCCCC" stroke-width="0.5" stroke-miterlimit="10" x1="266.449" y1="32.266" x2="32.882" y2="32.266"/>
	<line fill="none" stroke="#CCCCCC" stroke-width="0.5" stroke-miterlimit="10" x1="266.449" y1="47.111" x2="32.882" y2="47.111"/>
	<line fill="none" stroke="#CCCCCC" stroke-width="0.5" stroke-miterlimit="10" x1="266.449" y1="61.956" x2="32.882" y2="61.956"/>
	<line fill="none" stroke="#CCCCCC" stroke-width="0.5" stroke-miterlimit="10" x1="266.449" y1="76.8" x2="32.882" y2="76.8"/>
	<line fill="none" stroke="#CCCCCC" stroke-width="0.5" stroke-miterlimit="10" x1="266.449" y1="91.645" x2="32.882" y2="91.645"/>
	<g>
		<path d="M14.539,4.766c0.004-0.234,0.045-0.441,0.121-0.621c0.077-0.18,0.178-0.342,0.304-0.486    c0.125-0.144,0.268-0.276,0.425-0.395c0.158-0.119,0.32-0.234,0.486-0.344s0.332-0.223,0.496-0.337    c0.164-0.115,0.312-0.237,0.442-0.368c0.131-0.131,0.229-0.265,0.294-0.402c0.065-0.137,0.098-0.3,0.098-0.489    c0-0.153-0.028-0.289-0.084-0.409c-0.056-0.119-0.133-0.22-0.229-0.304c-0.097-0.083-0.209-0.146-0.337-0.189    c-0.128-0.042-0.264-0.064-0.408-0.064c-0.194,0-0.359,0.036-0.496,0.108c-0.138,0.072-0.249,0.169-0.334,0.291    c-0.085,0.121-0.147,0.261-0.186,0.418c-0.038,0.157-0.055,0.324-0.05,0.5h-0.425c-0.005-0.243,0.023-0.467,0.084-0.672    c0.061-0.205,0.154-0.381,0.28-0.53s0.285-0.264,0.476-0.348C15.685,0.042,15.909,0,16.166,0c0.207,0,0.399,0.028,0.577,0.084    s0.333,0.14,0.466,0.25c0.133,0.11,0.236,0.249,0.311,0.415s0.111,0.36,0.111,0.581c0,0.198-0.033,0.378-0.098,0.54    c-0.065,0.162-0.153,0.31-0.264,0.445c-0.11,0.135-0.236,0.26-0.378,0.375C16.75,2.805,16.6,2.912,16.442,3.011    c-0.112,0.077-0.245,0.161-0.398,0.253c-0.153,0.092-0.3,0.195-0.442,0.307c-0.142,0.113-0.267,0.235-0.375,0.368    s-0.176,0.278-0.203,0.435h2.626v0.392H14.539z"/>
		<path d="M20.766,0.226c0.214,0.151,0.38,0.343,0.5,0.577c0.119,0.234,0.2,0.495,0.243,0.783c0.042,0.288,0.064,0.569,0.064,0.844    c0,0.279-0.021,0.562-0.064,0.851c-0.043,0.288-0.124,0.549-0.243,0.783c-0.119,0.234-0.286,0.425-0.5,0.574    s-0.494,0.223-0.84,0.223c-0.342,0-0.621-0.075-0.837-0.223s-0.384-0.339-0.503-0.574c-0.119-0.234-0.2-0.495-0.243-0.783    c-0.042-0.288-0.064-0.569-0.064-0.844c0-0.279,0.021-0.562,0.064-0.851c0.043-0.288,0.124-0.549,0.243-0.783    c0.119-0.234,0.287-0.426,0.503-0.577C19.304,0.076,19.583,0,19.925,0C20.272,0,20.552,0.076,20.766,0.226z M19.277,0.567    c-0.162,0.14-0.285,0.313-0.368,0.52c-0.083,0.207-0.139,0.432-0.166,0.675c-0.027,0.243-0.041,0.466-0.041,0.668    c0,0.207,0.014,0.431,0.041,0.671c0.027,0.241,0.082,0.466,0.166,0.675c0.083,0.209,0.206,0.384,0.368,0.523    c0.162,0.14,0.378,0.209,0.648,0.209s0.486-0.07,0.648-0.209c0.162-0.139,0.285-0.314,0.368-0.523    c0.083-0.209,0.138-0.434,0.165-0.675c0.027-0.241,0.041-0.464,0.041-0.671c0-0.203-0.013-0.425-0.041-0.668    c-0.027-0.243-0.082-0.468-0.165-0.675c-0.083-0.207-0.206-0.38-0.368-0.52c-0.162-0.139-0.378-0.209-0.648-0.209    S19.439,0.428,19.277,0.567z"/>
		<path d="M24.519,0.226c0.214,0.151,0.38,0.343,0.5,0.577c0.119,0.234,0.2,0.495,0.243,0.783c0.042,0.288,0.064,0.569,0.064,0.844    c0,0.279-0.021,0.562-0.064,0.851c-0.043,0.288-0.124,0.549-0.243,0.783c-0.119,0.234-0.286,0.425-0.5,0.574    s-0.494,0.223-0.84,0.223c-0.342,0-0.621-0.075-0.837-0.223s-0.384-0.339-0.503-0.574c-0.119-0.234-0.2-0.495-0.243-0.783    c-0.042-0.288-0.064-0.569-0.064-0.844c0-0.279,0.021-0.562,0.064-0.851c0.043-0.288,0.124-0.549,0.243-0.783    c0.119-0.234,0.287-0.426,0.503-0.577C23.057,0.076,23.336,0,23.678,0C24.025,0,24.305,0.076,24.519,0.226z M23.03,0.567    c-0.162,0.14-0.285,0.313-0.368,0.52c-0.083,0.207-0.139,0.432-0.166,0.675c-0.027,0.243-0.041,0.466-0.041,0.668    c0,0.207,0.014,0.431,0.041,0.671c0.027,0.241,0.082,0.466,0.166,0.675c0.083,0.209,0.206,0.384,0.368,0.523    c0.162,0.14,0.378,0.209,0.648,0.209s0.486-0.07,0.648-0.209c0.162-0.139,0.285-0.314,0.368-0.523    c0.083-0.209,0.138-0.434,0.165-0.675C24.887,2.861,24.9,2.637,24.9,2.43c0-0.203-0.013-0.425-0.041-0.668    c-0.027-0.243-0.082-0.468-0.165-0.675c-0.083-0.207-0.206-0.38-0.368-0.52c-0.162-0.139-0.378-0.209-0.648-0.209    S23.192,0.428,23.03,0.567z"/>
	</g>
	<g>
		<path d="M15.453,15.838c0.15-0.016,0.281-0.053,0.392-0.111c0.11-0.059,0.202-0.147,0.276-0.267s0.127-0.287,0.159-0.503h0.344    v4.725h-0.425v-3.51H14.95v-0.304C15.134,15.864,15.302,15.854,15.453,15.838z"/>
		<path d="M21.153,16.756c-0.135,0.183-0.324,0.31-0.567,0.381v0.014c0.311,0.063,0.549,0.199,0.715,0.408    c0.167,0.209,0.25,0.476,0.25,0.8c0,0.239-0.043,0.447-0.128,0.625s-0.203,0.325-0.351,0.442c-0.148,0.117-0.32,0.205-0.516,0.263    c-0.196,0.058-0.406,0.088-0.631,0.088c-0.221,0-0.43-0.03-0.628-0.088c-0.198-0.059-0.371-0.146-0.52-0.263    c-0.148-0.117-0.266-0.265-0.351-0.442s-0.128-0.386-0.128-0.625c0.009-0.31,0.097-0.576,0.264-0.796    c0.166-0.22,0.398-0.357,0.695-0.412v-0.014c-0.247-0.076-0.438-0.204-0.57-0.381s-0.199-0.397-0.199-0.658    c0-0.202,0.042-0.378,0.125-0.526c0.083-0.148,0.192-0.271,0.328-0.368c0.135-0.097,0.288-0.169,0.459-0.216    c0.171-0.047,0.344-0.071,0.52-0.071c0.176,0,0.349,0.024,0.52,0.071c0.171,0.047,0.325,0.12,0.462,0.216    c0.137,0.097,0.247,0.219,0.331,0.368c0.083,0.148,0.125,0.324,0.125,0.526C21.355,16.355,21.288,16.574,21.153,16.756z     M20.394,19.362c0.146-0.042,0.273-0.108,0.381-0.196c0.108-0.087,0.193-0.199,0.256-0.334c0.063-0.135,0.095-0.292,0.095-0.473    c0-0.171-0.033-0.32-0.098-0.449c-0.065-0.128-0.153-0.236-0.263-0.324c-0.11-0.088-0.238-0.153-0.385-0.196    c-0.146-0.043-0.298-0.062-0.456-0.058c-0.162-0.004-0.316,0.014-0.462,0.054c-0.146,0.041-0.273,0.104-0.381,0.192    s-0.195,0.197-0.26,0.327c-0.065,0.131-0.098,0.281-0.098,0.452c0,0.176,0.032,0.331,0.095,0.466    c0.063,0.135,0.148,0.247,0.256,0.334c0.108,0.087,0.235,0.154,0.381,0.199c0.146,0.045,0.303,0.068,0.469,0.068    S20.247,19.405,20.394,19.362z M20.302,16.932c0.122-0.034,0.229-0.087,0.321-0.159s0.167-0.164,0.223-0.277    c0.056-0.112,0.084-0.245,0.084-0.398c0-0.135-0.026-0.254-0.078-0.357s-0.123-0.189-0.213-0.257    c-0.09-0.067-0.195-0.119-0.317-0.155c-0.122-0.036-0.254-0.054-0.398-0.054c-0.13,0-0.256,0.018-0.378,0.054    c-0.122,0.036-0.229,0.087-0.324,0.155c-0.094,0.068-0.17,0.153-0.226,0.257s-0.084,0.223-0.084,0.357    c0,0.158,0.029,0.293,0.088,0.405s0.135,0.205,0.229,0.277c0.095,0.072,0.203,0.124,0.324,0.155    c0.122,0.031,0.245,0.045,0.371,0.041C20.055,16.98,20.181,16.966,20.302,16.932z"/>
		<path d="M24.518,15.143c0.214,0.151,0.38,0.343,0.5,0.577c0.119,0.234,0.2,0.495,0.243,0.783c0.042,0.288,0.064,0.569,0.064,0.844    c0,0.279-0.021,0.562-0.064,0.851c-0.043,0.288-0.124,0.549-0.243,0.783c-0.119,0.234-0.286,0.425-0.5,0.574    s-0.494,0.223-0.84,0.223c-0.342,0-0.621-0.075-0.837-0.223s-0.384-0.339-0.503-0.574c-0.119-0.234-0.2-0.495-0.243-0.783    c-0.042-0.288-0.064-0.569-0.064-0.844c0-0.279,0.021-0.562,0.064-0.851c0.043-0.288,0.124-0.549,0.243-0.783    c0.119-0.234,0.287-0.426,0.503-0.577c0.216-0.15,0.495-0.226,0.837-0.226C24.024,14.917,24.304,14.993,24.518,15.143z     M23.029,15.484c-0.162,0.14-0.285,0.313-0.368,0.52c-0.083,0.207-0.139,0.432-0.166,0.675c-0.027,0.243-0.041,0.466-0.041,0.668    c0,0.207,0.014,0.431,0.041,0.671c0.027,0.241,0.082,0.466,0.166,0.675c0.083,0.209,0.206,0.384,0.368,0.523    c0.162,0.14,0.378,0.209,0.648,0.209s0.486-0.07,0.648-0.209c0.162-0.139,0.285-0.314,0.368-0.523    c0.083-0.209,0.138-0.434,0.165-0.675c0.027-0.241,0.041-0.464,0.041-0.671c0-0.203-0.013-0.425-0.041-0.668    c-0.027-0.243-0.082-0.468-0.165-0.675c-0.083-0.207-0.206-0.38-0.368-0.52c-0.162-0.139-0.378-0.209-0.648-0.209    S23.191,15.345,23.029,15.484z"/>
	</g>
	<g>
		<path d="M15.453,30.756c0.15-0.016,0.281-0.053,0.392-0.111c0.11-0.059,0.202-0.147,0.276-0.267s0.127-0.287,0.159-0.503h0.344    v4.725h-0.425v-3.51H14.95v-0.304C15.134,30.782,15.302,30.772,15.453,30.756z"/>
		<path d="M20.717,30.436c-0.173-0.162-0.397-0.243-0.671-0.243s-0.498,0.07-0.668,0.209c-0.171,0.14-0.304,0.315-0.398,0.527    c-0.095,0.211-0.158,0.44-0.189,0.685c-0.032,0.245-0.047,0.476-0.047,0.692h0.014c0.112-0.234,0.282-0.423,0.509-0.567    s0.476-0.216,0.746-0.216c0.238,0,0.453,0.04,0.645,0.118c0.191,0.079,0.354,0.188,0.489,0.328c0.135,0.139,0.24,0.306,0.314,0.5    c0.074,0.193,0.111,0.405,0.111,0.634s-0.04,0.442-0.118,0.638c-0.079,0.196-0.189,0.365-0.331,0.506    c-0.142,0.142-0.311,0.252-0.506,0.331c-0.196,0.079-0.411,0.118-0.645,0.118c-0.288,0-0.536-0.043-0.743-0.131    s-0.378-0.23-0.513-0.429c-0.135-0.198-0.235-0.456-0.301-0.773c-0.065-0.317-0.098-0.708-0.098-1.171    c0-0.095,0.005-0.218,0.017-0.371c0.011-0.153,0.037-0.316,0.077-0.49c0.041-0.173,0.098-0.349,0.172-0.526    s0.173-0.338,0.297-0.482c0.124-0.144,0.278-0.261,0.462-0.351c0.185-0.09,0.405-0.135,0.662-0.135    c0.423,0,0.758,0.102,1.006,0.304c0.247,0.203,0.396,0.513,0.445,0.932h-0.425C20.995,30.81,20.891,30.598,20.717,30.436z     M19.509,31.978c-0.146,0.065-0.27,0.154-0.371,0.267c-0.102,0.113-0.178,0.244-0.229,0.395c-0.052,0.151-0.078,0.314-0.078,0.489    c0,0.167,0.022,0.324,0.067,0.473s0.116,0.278,0.212,0.388s0.22,0.197,0.368,0.26s0.326,0.095,0.533,0.095    c0.171,0,0.325-0.033,0.462-0.098c0.137-0.065,0.256-0.153,0.357-0.263c0.102-0.11,0.179-0.24,0.233-0.388    c0.054-0.148,0.081-0.304,0.081-0.466c0-0.171-0.026-0.333-0.078-0.486s-0.126-0.286-0.223-0.398    c-0.097-0.112-0.216-0.201-0.358-0.267c-0.142-0.065-0.303-0.098-0.482-0.098C19.821,31.88,19.655,31.913,19.509,31.978z"/>
		<path d="M24.518,30.061c0.214,0.151,0.38,0.343,0.5,0.577c0.119,0.234,0.2,0.495,0.243,0.783c0.042,0.288,0.064,0.569,0.064,0.844    c0,0.279-0.021,0.562-0.064,0.851c-0.043,0.288-0.124,0.549-0.243,0.783c-0.119,0.234-0.286,0.425-0.5,0.574    s-0.494,0.223-0.84,0.223c-0.342,0-0.621-0.074-0.837-0.223s-0.384-0.339-0.503-0.574c-0.119-0.234-0.2-0.495-0.243-0.783    c-0.042-0.288-0.064-0.569-0.064-0.844c0-0.279,0.021-0.562,0.064-0.851c0.043-0.288,0.124-0.549,0.243-0.783    c0.119-0.234,0.287-0.426,0.503-0.577c0.216-0.15,0.495-0.226,0.837-0.226C24.024,29.835,24.304,29.911,24.518,30.061z     M23.029,30.402c-0.162,0.14-0.285,0.313-0.368,0.52c-0.083,0.207-0.139,0.432-0.166,0.675c-0.027,0.243-0.041,0.466-0.041,0.668    c0,0.207,0.014,0.431,0.041,0.671c0.027,0.241,0.082,0.466,0.166,0.675c0.083,0.209,0.206,0.384,0.368,0.523    c0.162,0.14,0.378,0.209,0.648,0.209s0.486-0.07,0.648-0.209c0.162-0.139,0.285-0.314,0.368-0.523    c0.083-0.209,0.138-0.434,0.165-0.675c0.027-0.241,0.041-0.464,0.041-0.671c0-0.203-0.013-0.425-0.041-0.668    c-0.027-0.243-0.082-0.468-0.165-0.675c-0.083-0.207-0.206-0.38-0.368-0.52c-0.162-0.139-0.378-0.209-0.648-0.209    S23.191,30.263,23.029,30.402z"/>
	</g>
	<g>
		<path d="M15.453,45.675c0.15-0.016,0.281-0.053,0.392-0.111c0.11-0.059,0.202-0.147,0.276-0.267s0.127-0.287,0.159-0.503h0.344    v4.725h-0.425v-3.51H14.95v-0.304C15.134,45.701,15.302,45.691,15.453,45.675z"/>
		<path d="M20.438,44.794h0.385v3.192h0.708v0.357h-0.708v1.175h-0.392v-1.175h-2.18v-0.411L20.438,44.794z M20.431,45.416h-0.014    l-1.782,2.571h1.795V45.416z"/>
		<path d="M24.518,44.98c0.214,0.15,0.38,0.343,0.5,0.577c0.119,0.233,0.2,0.495,0.243,0.782c0.042,0.288,0.064,0.569,0.064,0.844    c0,0.279-0.021,0.563-0.064,0.851c-0.043,0.288-0.124,0.55-0.243,0.783c-0.119,0.234-0.286,0.426-0.5,0.574    s-0.494,0.223-0.84,0.223c-0.342,0-0.621-0.074-0.837-0.223s-0.384-0.34-0.503-0.574c-0.119-0.233-0.2-0.495-0.243-0.783    c-0.042-0.287-0.064-0.569-0.064-0.844c0-0.278,0.021-0.562,0.064-0.851c0.043-0.287,0.124-0.549,0.243-0.782    c0.119-0.234,0.287-0.427,0.503-0.577c0.216-0.151,0.495-0.227,0.837-0.227C24.024,44.753,24.304,44.829,24.518,44.98z     M23.029,45.321c-0.162,0.14-0.285,0.312-0.368,0.52c-0.083,0.207-0.139,0.432-0.166,0.675s-0.041,0.466-0.041,0.668    c0,0.207,0.014,0.432,0.041,0.672c0.027,0.241,0.082,0.466,0.166,0.675c0.083,0.21,0.206,0.384,0.368,0.523    s0.378,0.209,0.648,0.209s0.486-0.069,0.648-0.209s0.285-0.313,0.368-0.523c0.083-0.209,0.138-0.434,0.165-0.675    c0.027-0.24,0.041-0.465,0.041-0.672c0-0.202-0.013-0.425-0.041-0.668c-0.027-0.243-0.082-0.468-0.165-0.675    c-0.083-0.207-0.206-0.38-0.368-0.52s-0.378-0.21-0.648-0.21S23.191,45.181,23.029,45.321z"/>
	</g>
	<g>
		<path d="M15.453,60.593c0.15-0.016,0.281-0.053,0.392-0.111c0.11-0.059,0.202-0.147,0.276-0.267s0.127-0.287,0.159-0.503h0.344    v4.725h-0.425v-3.51H14.95v-0.304C15.134,60.619,15.302,60.609,15.453,60.593z"/>
		<path d="M18.291,64.437c0.004-0.234,0.045-0.441,0.121-0.621c0.077-0.18,0.178-0.342,0.304-0.486    c0.125-0.144,0.268-0.275,0.425-0.395c0.158-0.119,0.32-0.233,0.486-0.344s0.332-0.224,0.496-0.338    c0.164-0.115,0.312-0.237,0.442-0.368c0.131-0.13,0.229-0.264,0.294-0.401c0.065-0.138,0.098-0.301,0.098-0.489    c0-0.153-0.028-0.289-0.084-0.408s-0.133-0.221-0.229-0.304c-0.097-0.084-0.209-0.146-0.337-0.189s-0.264-0.064-0.408-0.064    c-0.194,0-0.359,0.036-0.496,0.108c-0.138,0.072-0.249,0.169-0.334,0.29c-0.085,0.122-0.147,0.262-0.186,0.419    s-0.055,0.324-0.05,0.499h-0.425c-0.005-0.243,0.023-0.467,0.084-0.671c0.061-0.205,0.154-0.382,0.28-0.53    s0.285-0.265,0.476-0.348c0.191-0.083,0.415-0.125,0.671-0.125c0.207,0,0.399,0.028,0.577,0.085    c0.178,0.056,0.333,0.139,0.466,0.249s0.236,0.249,0.311,0.415c0.074,0.167,0.111,0.36,0.111,0.581    c0,0.198-0.033,0.378-0.098,0.54c-0.065,0.162-0.153,0.311-0.264,0.445c-0.11,0.135-0.236,0.26-0.378,0.375    c-0.142,0.114-0.291,0.222-0.449,0.32c-0.112,0.076-0.245,0.161-0.398,0.253c-0.153,0.093-0.3,0.194-0.442,0.308    c-0.142,0.112-0.267,0.234-0.375,0.367s-0.176,0.278-0.203,0.436h2.626v0.392H18.291z"/>
		<path d="M24.518,59.898c0.214,0.15,0.38,0.343,0.5,0.577c0.119,0.233,0.2,0.495,0.243,0.782c0.042,0.288,0.064,0.569,0.064,0.844    c0,0.279-0.021,0.563-0.064,0.851c-0.043,0.288-0.124,0.55-0.243,0.783c-0.119,0.234-0.286,0.426-0.5,0.574    s-0.494,0.223-0.84,0.223c-0.342,0-0.621-0.074-0.837-0.223s-0.384-0.34-0.503-0.574c-0.119-0.233-0.2-0.495-0.243-0.783    c-0.042-0.287-0.064-0.569-0.064-0.844c0-0.278,0.021-0.562,0.064-0.851c0.043-0.287,0.124-0.549,0.243-0.782    c0.119-0.234,0.287-0.427,0.503-0.577c0.216-0.151,0.495-0.227,0.837-0.227C24.024,59.671,24.304,59.747,24.518,59.898z     M23.029,60.239c-0.162,0.14-0.285,0.312-0.368,0.52c-0.083,0.207-0.139,0.432-0.166,0.675s-0.041,0.466-0.041,0.668    c0,0.207,0.014,0.432,0.041,0.672c0.027,0.241,0.082,0.466,0.166,0.675c0.083,0.21,0.206,0.384,0.368,0.523    s0.378,0.209,0.648,0.209s0.486-0.069,0.648-0.209s0.285-0.313,0.368-0.523c0.083-0.209,0.138-0.434,0.165-0.675    c0.027-0.24,0.041-0.465,0.041-0.672c0-0.202-0.013-0.425-0.041-0.668c-0.027-0.243-0.082-0.468-0.165-0.675    c-0.083-0.207-0.206-0.38-0.368-0.52s-0.378-0.21-0.648-0.21S23.191,60.099,23.029,60.239z"/>
	</g>
	<g>
		<path d="M15.453,75.511c0.15-0.016,0.281-0.053,0.392-0.111c0.11-0.059,0.202-0.147,0.276-0.267s0.127-0.287,0.159-0.503h0.344    v4.725h-0.425v-3.51H14.95v-0.304C15.134,75.537,15.302,75.527,15.453,75.511z"/>
		<path d="M20.765,74.816c0.214,0.15,0.38,0.343,0.5,0.577c0.119,0.233,0.2,0.495,0.243,0.782c0.042,0.288,0.064,0.569,0.064,0.844    c0,0.279-0.021,0.563-0.064,0.851c-0.043,0.288-0.124,0.55-0.243,0.783c-0.119,0.234-0.286,0.426-0.5,0.574    s-0.494,0.223-0.84,0.223c-0.342,0-0.621-0.074-0.837-0.223s-0.384-0.34-0.503-0.574c-0.119-0.233-0.2-0.495-0.243-0.783    c-0.042-0.287-0.064-0.569-0.064-0.844c0-0.278,0.021-0.562,0.064-0.851c0.043-0.287,0.124-0.549,0.243-0.782    c0.119-0.234,0.287-0.427,0.503-0.577c0.216-0.151,0.495-0.227,0.837-0.227C20.271,74.589,20.551,74.665,20.765,74.816z     M19.276,75.157c-0.162,0.14-0.285,0.312-0.368,0.52c-0.083,0.207-0.139,0.432-0.166,0.675s-0.041,0.466-0.041,0.668    c0,0.207,0.014,0.432,0.041,0.672c0.027,0.241,0.082,0.466,0.166,0.675c0.083,0.21,0.206,0.384,0.368,0.523    s0.378,0.209,0.648,0.209s0.486-0.069,0.648-0.209s0.285-0.313,0.368-0.523c0.083-0.209,0.138-0.434,0.165-0.675    c0.027-0.24,0.041-0.465,0.041-0.672c0-0.202-0.013-0.425-0.041-0.668c-0.027-0.243-0.082-0.468-0.165-0.675    c-0.083-0.207-0.206-0.38-0.368-0.52s-0.378-0.21-0.648-0.21S19.438,75.017,19.276,75.157z"/>
		<path d="M24.518,74.816c0.214,0.15,0.38,0.343,0.5,0.577c0.119,0.233,0.2,0.495,0.243,0.782c0.042,0.288,0.064,0.569,0.064,0.844    c0,0.279-0.021,0.563-0.064,0.851c-0.043,0.288-0.124,0.55-0.243,0.783c-0.119,0.234-0.286,0.426-0.5,0.574    s-0.494,0.223-0.84,0.223c-0.342,0-0.621-0.074-0.837-0.223s-0.384-0.34-0.503-0.574c-0.119-0.233-0.2-0.495-0.243-0.783    c-0.042-0.287-0.064-0.569-0.064-0.844c0-0.278,0.021-0.562,0.064-0.851c0.043-0.287,0.124-0.549,0.243-0.782    c0.119-0.234,0.287-0.427,0.503-0.577c0.216-0.151,0.495-0.227,0.837-0.227C24.024,74.589,24.304,74.665,24.518,74.816z     M23.029,75.157c-0.162,0.14-0.285,0.312-0.368,0.52c-0.083,0.207-0.139,0.432-0.166,0.675s-0.041,0.466-0.041,0.668    c0,0.207,0.014,0.432,0.041,0.672c0.027,0.241,0.082,0.466,0.166,0.675c0.083,0.21,0.206,0.384,0.368,0.523    s0.378,0.209,0.648,0.209s0.486-0.069,0.648-0.209s0.285-0.313,0.368-0.523c0.083-0.209,0.138-0.434,0.165-0.675    c0.027-0.24,0.041-0.465,0.041-0.672c0-0.202-0.013-0.425-0.041-0.668c-0.027-0.243-0.082-0.468-0.165-0.675    c-0.083-0.207-0.206-0.38-0.368-0.52s-0.378-0.21-0.648-0.21S23.191,75.017,23.029,75.157z"/>
	</g>
	<g>
		<path d="M21.153,91.346c-0.135,0.182-0.324,0.31-0.567,0.381v0.014c0.311,0.063,0.549,0.199,0.715,0.408s0.25,0.476,0.25,0.8    c0,0.239-0.043,0.447-0.128,0.625s-0.203,0.325-0.351,0.441c-0.148,0.117-0.32,0.205-0.516,0.264s-0.406,0.088-0.631,0.088    c-0.221,0-0.43-0.029-0.628-0.088c-0.198-0.059-0.371-0.146-0.52-0.264c-0.148-0.116-0.266-0.264-0.351-0.441    s-0.128-0.386-0.128-0.625c0.009-0.311,0.097-0.576,0.264-0.796c0.166-0.221,0.398-0.358,0.695-0.412v-0.014    c-0.247-0.076-0.438-0.203-0.57-0.381s-0.199-0.397-0.199-0.658c0-0.203,0.042-0.378,0.125-0.526    c0.083-0.148,0.192-0.271,0.328-0.368c0.135-0.097,0.288-0.169,0.459-0.216c0.171-0.048,0.344-0.071,0.52-0.071    c0.176,0,0.349,0.023,0.52,0.071c0.171,0.047,0.325,0.119,0.462,0.216c0.137,0.097,0.247,0.22,0.331,0.368    c0.083,0.148,0.125,0.323,0.125,0.526C21.355,90.944,21.288,91.164,21.153,91.346z M20.394,93.952    c0.146-0.043,0.273-0.108,0.381-0.196s0.193-0.199,0.256-0.334s0.095-0.292,0.095-0.473c0-0.171-0.033-0.32-0.098-0.448    c-0.065-0.129-0.153-0.236-0.263-0.324s-0.238-0.153-0.385-0.196c-0.146-0.042-0.298-0.062-0.456-0.057    c-0.162-0.005-0.316,0.013-0.462,0.054c-0.146,0.04-0.273,0.104-0.381,0.192s-0.195,0.197-0.26,0.327    c-0.065,0.131-0.098,0.281-0.098,0.452c0,0.176,0.032,0.331,0.095,0.466s0.148,0.246,0.256,0.334s0.235,0.154,0.381,0.199    c0.146,0.045,0.303,0.067,0.469,0.067S20.247,93.995,20.394,93.952z M20.302,91.521c0.122-0.033,0.229-0.086,0.321-0.158    s0.167-0.164,0.223-0.276c0.056-0.113,0.084-0.246,0.084-0.398c0-0.136-0.026-0.255-0.078-0.358s-0.123-0.188-0.213-0.256    c-0.09-0.067-0.195-0.119-0.317-0.155s-0.254-0.055-0.398-0.055c-0.13,0-0.256,0.019-0.378,0.055s-0.229,0.088-0.324,0.155    c-0.094,0.067-0.17,0.152-0.226,0.256s-0.084,0.223-0.084,0.358c0,0.157,0.029,0.292,0.088,0.404    c0.059,0.113,0.135,0.205,0.229,0.277c0.095,0.072,0.203,0.124,0.324,0.155s0.245,0.045,0.371,0.04    C20.055,91.57,20.181,91.555,20.302,91.521z"/>
		<path d="M24.518,89.733c0.214,0.15,0.38,0.343,0.5,0.577c0.119,0.233,0.2,0.495,0.243,0.782c0.042,0.288,0.064,0.569,0.064,0.844    c0,0.279-0.021,0.563-0.064,0.851c-0.043,0.288-0.124,0.55-0.243,0.783c-0.119,0.234-0.286,0.426-0.5,0.574    s-0.494,0.223-0.84,0.223c-0.342,0-0.621-0.074-0.837-0.223s-0.384-0.34-0.503-0.574c-0.119-0.233-0.2-0.495-0.243-0.783    c-0.042-0.287-0.064-0.569-0.064-0.844c0-0.278,0.021-0.562,0.064-0.851c0.043-0.287,0.124-0.549,0.243-0.782    c0.119-0.234,0.287-0.427,0.503-0.577c0.216-0.151,0.495-0.227,0.837-0.227C24.024,89.506,24.304,89.582,24.518,89.733z     M23.029,90.074c-0.162,0.14-0.285,0.312-0.368,0.52c-0.083,0.207-0.139,0.432-0.166,0.675s-0.041,0.466-0.041,0.668    c0,0.207,0.014,0.432,0.041,0.672c0.027,0.241,0.082,0.466,0.166,0.675c0.083,0.21,0.206,0.384,0.368,0.523    s0.378,0.209,0.648,0.209s0.486-0.069,0.648-0.209s0.285-0.313,0.368-0.523c0.083-0.209,0.138-0.434,0.165-0.675    c0.027-0.24,0.041-0.465,0.041-0.672c0-0.202-0.013-0.425-0.041-0.668c-0.027-0.243-0.082-0.468-0.165-0.675    c-0.083-0.207-0.206-0.38-0.368-0.52s-0.378-0.21-0.648-0.21S23.191,89.934,23.029,90.074z"/>
	</g>
	<g>
		<path d="M0,95.054h5.355v1.178H0V95.054z"/>
		<path d="M1.478,93.119h0.54v-0.022c-0.225-0.135-0.389-0.31-0.491-0.524s-0.154-0.436-0.154-0.66c0-0.285,0.039-0.519,0.116-0.701    s0.185-0.326,0.322-0.432c0.138-0.104,0.305-0.179,0.503-0.221c0.197-0.043,0.416-0.064,0.656-0.064h2.385v1.065h-2.19    c-0.32,0-0.559,0.05-0.716,0.15c-0.158,0.1-0.236,0.277-0.236,0.532c0,0.29,0.086,0.5,0.259,0.63s0.457,0.195,0.851,0.195h2.033    v1.064H1.478V93.119z"/>
		<path d="M4.86,86.932c0.21,0.125,0.361,0.288,0.454,0.491c0.092,0.202,0.139,0.431,0.139,0.686c0,0.29-0.057,0.546-0.169,0.766    s-0.265,0.401-0.458,0.544s-0.414,0.25-0.664,0.322s-0.51,0.108-0.78,0.108c-0.26,0-0.511-0.036-0.753-0.108    c-0.243-0.072-0.457-0.18-0.642-0.322c-0.185-0.143-0.333-0.321-0.446-0.536c-0.112-0.216-0.168-0.466-0.168-0.75    c0-0.23,0.049-0.449,0.146-0.656c0.098-0.208,0.242-0.372,0.432-0.492v-0.015H0v-1.064h5.355v1.012H4.86V86.932z M2.944,86.977    c-0.147,0.03-0.278,0.081-0.39,0.153c-0.112,0.073-0.204,0.167-0.274,0.281c-0.07,0.115-0.105,0.261-0.105,0.436    S2.21,88.169,2.28,88.29c0.07,0.12,0.163,0.216,0.278,0.288c0.115,0.073,0.246,0.126,0.394,0.158s0.301,0.049,0.461,0.049    c0.15,0,0.3-0.018,0.45-0.053c0.15-0.035,0.284-0.091,0.401-0.169c0.118-0.077,0.212-0.175,0.285-0.292    c0.072-0.118,0.109-0.259,0.109-0.424c0-0.175-0.035-0.321-0.105-0.439c-0.07-0.117-0.164-0.211-0.281-0.281    c-0.117-0.069-0.251-0.119-0.401-0.149s-0.305-0.045-0.465-0.045C3.245,86.932,3.091,86.947,2.944,86.977z"/>
		<path d="M4.425,83.962c0.155-0.16,0.233-0.39,0.233-0.69c0-0.215-0.054-0.399-0.162-0.555c-0.107-0.155-0.221-0.25-0.341-0.285    v-0.938c0.465,0.15,0.798,0.38,0.998,0.69c0.2,0.31,0.3,0.685,0.3,1.125c0,0.305-0.049,0.58-0.146,0.825    c-0.098,0.244-0.236,0.452-0.416,0.622c-0.18,0.17-0.395,0.302-0.645,0.394C3.995,85.244,3.72,85.29,3.42,85.29    c-0.29,0-0.56-0.047-0.81-0.143c-0.25-0.095-0.466-0.229-0.648-0.404c-0.183-0.176-0.327-0.384-0.432-0.627    c-0.105-0.242-0.157-0.511-0.157-0.806c0-0.33,0.063-0.618,0.191-0.862c0.127-0.245,0.299-0.446,0.514-0.604    c0.215-0.157,0.46-0.271,0.735-0.341s0.562-0.095,0.862-0.075v2.798C4.02,84.209,4.27,84.123,4.425,83.962z M2.385,82.758    c-0.14,0.128-0.21,0.321-0.21,0.581c0,0.171,0.029,0.312,0.086,0.424c0.058,0.113,0.129,0.203,0.214,0.271s0.175,0.115,0.27,0.143    C2.84,84.204,2.925,84.22,3,84.225v-1.732C2.73,82.542,2.525,82.631,2.385,82.758z"/>
		<path d="M1.478,81.083v-1.215l1.012-0.683L1.478,78.51v-1.178l1.815,1.275l2.062-1.433v1.215L4.132,79.2l1.223,0.811v1.192    l-2.04-1.395L1.478,81.083z"/>
		<path d="M4.425,75.63c0.155-0.16,0.233-0.39,0.233-0.69c0-0.215-0.054-0.399-0.162-0.555c-0.107-0.155-0.221-0.25-0.341-0.285    v-0.938c0.465,0.15,0.798,0.38,0.998,0.69c0.2,0.31,0.3,0.685,0.3,1.125c0,0.305-0.049,0.58-0.146,0.825    c-0.098,0.244-0.236,0.452-0.416,0.622c-0.18,0.17-0.395,0.302-0.645,0.394c-0.25,0.093-0.525,0.139-0.825,0.139    c-0.29,0-0.56-0.047-0.81-0.143c-0.25-0.095-0.466-0.229-0.648-0.404c-0.183-0.176-0.327-0.384-0.432-0.627    c-0.105-0.242-0.157-0.511-0.157-0.806c0-0.33,0.063-0.618,0.191-0.862c0.127-0.245,0.299-0.446,0.514-0.604    c0.215-0.157,0.46-0.271,0.735-0.341s0.562-0.095,0.862-0.075v2.798C4.02,75.877,4.27,75.791,4.425,75.63z M2.385,74.426    c-0.14,0.128-0.21,0.321-0.21,0.581c0,0.171,0.029,0.312,0.086,0.424c0.058,0.113,0.129,0.203,0.214,0.271s0.175,0.115,0.27,0.143    C2.84,75.872,2.925,75.888,3,75.893v-1.732C2.73,74.21,2.525,74.299,2.385,74.426z"/>
		<path d="M4.86,69.713c0.21,0.125,0.361,0.288,0.454,0.491c0.092,0.202,0.139,0.431,0.139,0.686c0,0.29-0.057,0.546-0.169,0.766    S5.019,72.057,4.826,72.2s-0.414,0.25-0.664,0.322s-0.51,0.108-0.78,0.108c-0.26,0-0.511-0.036-0.753-0.108    c-0.243-0.072-0.457-0.18-0.642-0.322c-0.185-0.143-0.333-0.321-0.446-0.536c-0.112-0.216-0.168-0.466-0.168-0.75    c0-0.23,0.049-0.449,0.146-0.656c0.098-0.208,0.242-0.372,0.432-0.492V69.75H0v-1.064h5.355v1.012H4.86V69.713z M2.944,69.758    c-0.147,0.03-0.278,0.081-0.39,0.153c-0.112,0.073-0.204,0.167-0.274,0.281c-0.07,0.115-0.105,0.261-0.105,0.436    s0.035,0.322,0.105,0.442c0.07,0.12,0.163,0.216,0.278,0.288c0.115,0.073,0.246,0.126,0.394,0.158s0.301,0.049,0.461,0.049    c0.15,0,0.3-0.018,0.45-0.053c0.15-0.035,0.284-0.091,0.401-0.169c0.118-0.077,0.212-0.175,0.285-0.292    c0.072-0.118,0.109-0.259,0.109-0.424c0-0.175-0.035-0.321-0.105-0.439c-0.07-0.117-0.164-0.211-0.281-0.281    c-0.117-0.069-0.251-0.119-0.401-0.149s-0.305-0.045-0.465-0.045C3.245,69.713,3.091,69.728,2.944,69.758z"/>
		<path d="M1.478,64.786h0.495v-0.015c-0.21-0.13-0.363-0.295-0.458-0.495c-0.095-0.199-0.143-0.42-0.143-0.66    c0-0.305,0.058-0.567,0.172-0.787c0.115-0.22,0.268-0.402,0.458-0.548c0.19-0.145,0.411-0.252,0.664-0.322    c0.253-0.07,0.517-0.104,0.792-0.104c0.26,0,0.51,0.034,0.75,0.104c0.24,0.07,0.453,0.177,0.638,0.319    c0.185,0.142,0.333,0.319,0.442,0.532c0.11,0.212,0.165,0.461,0.165,0.746c0,0.24-0.049,0.461-0.146,0.664    c-0.098,0.202-0.241,0.368-0.431,0.498v0.016h1.837v1.064H1.478V64.786z M4.552,63.403c-0.07-0.118-0.161-0.213-0.273-0.285    c-0.113-0.072-0.244-0.124-0.394-0.154c-0.15-0.029-0.302-0.045-0.458-0.045c-0.155,0-0.307,0.017-0.457,0.049    C2.82,63,2.686,63.053,2.569,63.128c-0.118,0.075-0.212,0.172-0.285,0.289c-0.072,0.117-0.109,0.261-0.109,0.431    c0,0.176,0.037,0.322,0.109,0.439c0.073,0.117,0.167,0.212,0.281,0.285c0.115,0.072,0.248,0.123,0.397,0.153    s0.305,0.045,0.465,0.045c0.155,0,0.308-0.016,0.458-0.049c0.15-0.032,0.281-0.085,0.394-0.157    c0.112-0.072,0.204-0.169,0.273-0.289c0.07-0.12,0.105-0.265,0.105-0.435C4.658,63.667,4.623,63.52,4.552,63.403z"/>
		<path d="M1.478,60.204h0.72v-0.015c-0.12-0.05-0.231-0.117-0.333-0.202s-0.19-0.183-0.263-0.293    c-0.072-0.109-0.128-0.228-0.168-0.353s-0.06-0.255-0.06-0.39c0-0.07,0.013-0.147,0.038-0.232H2.4    c-0.01,0.05-0.019,0.11-0.026,0.18c-0.007,0.07-0.011,0.138-0.011,0.203c0,0.194,0.033,0.359,0.098,0.494    c0.065,0.136,0.154,0.244,0.266,0.326c0.113,0.083,0.244,0.142,0.394,0.177s0.312,0.053,0.487,0.053h1.748v1.064H1.478V60.204z"/>
		<path d="M0.877,58.27H0v-1.065h0.877V58.27z M1.478,57.205h3.877v1.065H1.478V57.205z"/>
		<path d="M2.175,54.512c0,0.17,0.039,0.312,0.116,0.428c0.078,0.115,0.178,0.209,0.3,0.281s0.257,0.124,0.405,0.154    c0.147,0.029,0.294,0.045,0.439,0.045c0.14,0,0.282-0.016,0.427-0.045c0.145-0.03,0.276-0.079,0.394-0.146    c0.117-0.067,0.214-0.159,0.289-0.274c0.075-0.114,0.113-0.255,0.113-0.42c0-0.255-0.071-0.451-0.214-0.589    c-0.143-0.137-0.334-0.224-0.574-0.258V52.66c0.515,0.07,0.907,0.271,1.177,0.601s0.405,0.752,0.405,1.268    c0,0.29-0.049,0.556-0.146,0.799c-0.098,0.242-0.233,0.448-0.409,0.618c-0.175,0.17-0.384,0.303-0.626,0.397    c-0.242,0.096-0.508,0.143-0.798,0.143c-0.3,0-0.579-0.044-0.836-0.131c-0.257-0.088-0.48-0.217-0.667-0.387    S1.635,55.59,1.53,55.345s-0.157-0.525-0.157-0.84c0-0.23,0.03-0.451,0.09-0.664s0.151-0.402,0.274-0.57    c0.123-0.167,0.275-0.304,0.458-0.408c0.183-0.105,0.398-0.165,0.648-0.181v1.043C2.397,53.795,2.175,54.057,2.175,54.512z"/>
		<path d="M4.425,50.92c0.155-0.16,0.233-0.39,0.233-0.69c0-0.215-0.054-0.399-0.162-0.555c-0.107-0.155-0.221-0.25-0.341-0.285    v-0.938c0.465,0.15,0.798,0.38,0.998,0.69c0.2,0.31,0.3,0.685,0.3,1.125c0,0.305-0.049,0.58-0.146,0.825    c-0.098,0.244-0.236,0.452-0.416,0.622c-0.18,0.17-0.395,0.302-0.645,0.394c-0.25,0.093-0.525,0.139-0.825,0.139    c-0.29,0-0.56-0.047-0.81-0.143c-0.25-0.095-0.466-0.229-0.648-0.404c-0.183-0.176-0.327-0.384-0.432-0.627    c-0.105-0.242-0.157-0.511-0.157-0.806c0-0.33,0.063-0.618,0.191-0.862c0.127-0.245,0.299-0.446,0.514-0.604    c0.215-0.157,0.46-0.271,0.735-0.341s0.562-0.095,0.862-0.075v2.798C4.02,51.167,4.27,51.081,4.425,50.92z M2.385,49.716    c-0.14,0.128-0.21,0.321-0.21,0.581c0,0.171,0.029,0.312,0.086,0.424c0.058,0.113,0.129,0.203,0.214,0.271s0.175,0.115,0.27,0.143    C2.84,51.162,2.925,51.178,3,51.183v-1.732C2.73,49.5,2.525,49.589,2.385,49.716z"/>
		<path d="M1.478,44.658h0.495v-0.015c-0.21-0.13-0.363-0.295-0.458-0.495c-0.095-0.199-0.143-0.42-0.143-0.66    c0-0.305,0.058-0.567,0.172-0.787c0.115-0.22,0.268-0.402,0.458-0.548c0.19-0.145,0.411-0.252,0.664-0.322    c0.253-0.07,0.517-0.104,0.792-0.104c0.26,0,0.51,0.034,0.75,0.104c0.24,0.07,0.453,0.177,0.638,0.319    c0.185,0.142,0.333,0.319,0.442,0.532c0.11,0.212,0.165,0.461,0.165,0.746c0,0.24-0.049,0.461-0.146,0.664    c-0.098,0.202-0.241,0.368-0.431,0.498v0.016h1.837v1.064H1.478V44.658z M4.552,43.275c-0.07-0.118-0.161-0.213-0.273-0.285    c-0.113-0.072-0.244-0.124-0.394-0.154c-0.15-0.029-0.302-0.045-0.458-0.045c-0.155,0-0.307,0.017-0.457,0.049    C2.82,42.872,2.686,42.925,2.569,43c-0.118,0.075-0.212,0.172-0.285,0.289c-0.072,0.117-0.109,0.261-0.109,0.431    c0,0.176,0.037,0.322,0.109,0.439c0.073,0.117,0.167,0.212,0.281,0.285c0.115,0.072,0.248,0.123,0.397,0.153    s0.305,0.045,0.465,0.045c0.155,0,0.308-0.016,0.458-0.049c0.15-0.032,0.281-0.085,0.394-0.157    c0.112-0.072,0.204-0.169,0.273-0.289c0.07-0.12,0.105-0.265,0.105-0.435C4.658,43.539,4.623,43.392,4.552,43.275z"/>
		<path d="M4.425,39.949c0.155-0.16,0.233-0.39,0.233-0.69c0-0.215-0.054-0.399-0.162-0.555c-0.107-0.155-0.221-0.25-0.341-0.285    v-0.938c0.465,0.15,0.798,0.38,0.998,0.69c0.2,0.31,0.3,0.685,0.3,1.125c0,0.305-0.049,0.58-0.146,0.825    c-0.098,0.244-0.236,0.452-0.416,0.622c-0.18,0.17-0.395,0.302-0.645,0.394c-0.25,0.093-0.525,0.139-0.825,0.139    c-0.29,0-0.56-0.047-0.81-0.143c-0.25-0.095-0.466-0.229-0.648-0.404c-0.183-0.176-0.327-0.384-0.432-0.627    c-0.105-0.242-0.157-0.511-0.157-0.806c0-0.33,0.063-0.618,0.191-0.862c0.127-0.245,0.299-0.446,0.514-0.604    c0.215-0.157,0.46-0.271,0.735-0.341s0.562-0.095,0.862-0.075v2.798C4.02,40.196,4.27,40.109,4.425,39.949z M2.385,38.745    c-0.14,0.128-0.21,0.321-0.21,0.581c0,0.171,0.029,0.312,0.086,0.424c0.058,0.113,0.129,0.203,0.214,0.271s0.175,0.115,0.27,0.143    C2.84,40.19,2.925,40.207,3,40.211v-1.732C2.73,38.529,2.525,38.618,2.385,38.745z"/>
		<path d="M1.478,35.771h0.72v-0.015c-0.12-0.05-0.231-0.117-0.333-0.202s-0.19-0.183-0.263-0.293    c-0.072-0.109-0.128-0.228-0.168-0.353s-0.06-0.255-0.06-0.39c0-0.07,0.013-0.147,0.038-0.232H2.4    c-0.01,0.05-0.019,0.11-0.026,0.18c-0.007,0.07-0.011,0.138-0.011,0.203c0,0.194,0.033,0.359,0.098,0.494    c0.065,0.136,0.154,0.244,0.266,0.326c0.113,0.083,0.244,0.142,0.394,0.177s0.312,0.053,0.487,0.053h1.748v1.064H1.478V35.771z"/>
		<path d="M4.391,30.885c0.083-0.047,0.15-0.109,0.203-0.184c0.052-0.075,0.091-0.162,0.116-0.259    c0.025-0.098,0.038-0.199,0.038-0.304c0-0.075-0.009-0.154-0.026-0.236s-0.045-0.158-0.083-0.225s-0.087-0.124-0.15-0.169    c-0.062-0.045-0.141-0.067-0.236-0.067c-0.16,0-0.28,0.106-0.36,0.319s-0.16,0.509-0.24,0.889    c-0.035,0.155-0.076,0.307-0.124,0.454c-0.047,0.148-0.11,0.279-0.188,0.394s-0.175,0.208-0.292,0.277    c-0.118,0.07-0.261,0.105-0.431,0.105c-0.25,0-0.455-0.049-0.615-0.146c-0.16-0.098-0.286-0.226-0.379-0.386    c-0.092-0.16-0.157-0.34-0.195-0.54c-0.038-0.2-0.056-0.405-0.056-0.615s0.02-0.414,0.06-0.611    c0.04-0.197,0.107-0.374,0.202-0.528c0.095-0.155,0.222-0.284,0.379-0.387c0.158-0.102,0.356-0.164,0.596-0.184v1.013    c-0.205,0.015-0.344,0.092-0.416,0.232c-0.073,0.14-0.109,0.305-0.109,0.495c0,0.06,0.004,0.125,0.011,0.195    c0.007,0.07,0.024,0.134,0.049,0.191s0.061,0.106,0.109,0.146c0.047,0.04,0.111,0.06,0.191,0.06c0.095,0,0.173-0.035,0.232-0.105    c0.06-0.07,0.109-0.161,0.146-0.274c0.038-0.112,0.071-0.241,0.101-0.386c0.03-0.145,0.063-0.292,0.098-0.442    C3.058,29.452,3.1,29.3,3.15,29.153c0.05-0.147,0.116-0.279,0.199-0.394c0.083-0.115,0.185-0.207,0.308-0.277    c0.123-0.07,0.274-0.105,0.454-0.105c0.255,0,0.469,0.051,0.642,0.154c0.172,0.103,0.311,0.236,0.416,0.401    s0.179,0.354,0.221,0.566c0.042,0.213,0.064,0.429,0.064,0.649c0,0.225-0.022,0.445-0.068,0.66    c-0.045,0.215-0.12,0.406-0.225,0.574s-0.244,0.305-0.417,0.413s-0.389,0.166-0.648,0.176v-1.013    C4.21,30.957,4.309,30.933,4.391,30.885z"/>
		<path d="M0,26.689h2.018v-0.022c-0.225-0.135-0.389-0.307-0.491-0.517c-0.103-0.21-0.154-0.415-0.154-0.615    c0-0.285,0.039-0.519,0.116-0.701s0.185-0.326,0.322-0.431c0.138-0.105,0.305-0.179,0.503-0.221    c0.197-0.042,0.416-0.064,0.656-0.064h2.385v1.065h-2.19c-0.32,0-0.559,0.05-0.716,0.15c-0.158,0.1-0.236,0.278-0.236,0.533    c0,0.29,0.086,0.5,0.259,0.63s0.457,0.195,0.851,0.195h2.033v1.065H0V26.689z"/>
		<path d="M2.67,23.352c-0.25-0.015-0.458-0.078-0.623-0.188s-0.297-0.25-0.397-0.42s-0.171-0.361-0.214-0.574    c-0.042-0.213-0.063-0.426-0.063-0.642c0-0.195,0.014-0.393,0.041-0.592c0.028-0.2,0.082-0.383,0.162-0.547    c0.08-0.165,0.191-0.3,0.333-0.405s0.332-0.157,0.566-0.157h2.018c0.175,0,0.342-0.01,0.502-0.03s0.28-0.055,0.36-0.105v1.08    c-0.06,0.02-0.121,0.036-0.184,0.049c-0.062,0.012-0.126,0.021-0.191,0.026c0.175,0.17,0.297,0.37,0.368,0.6    c0.07,0.23,0.105,0.465,0.105,0.705c0,0.185-0.022,0.357-0.068,0.518c-0.045,0.16-0.115,0.3-0.21,0.42    c-0.095,0.12-0.215,0.214-0.36,0.281s-0.317,0.101-0.518,0.101c-0.22,0-0.401-0.039-0.543-0.116    c-0.143-0.077-0.256-0.177-0.341-0.3s-0.149-0.263-0.191-0.42c-0.042-0.158-0.076-0.316-0.101-0.477    C3.095,22,3.075,21.842,3.06,21.687s-0.038-0.292-0.067-0.413c-0.03-0.12-0.074-0.215-0.131-0.285    c-0.058-0.07-0.141-0.102-0.251-0.097c-0.115,0-0.206,0.019-0.273,0.056c-0.068,0.038-0.12,0.087-0.158,0.15    s-0.062,0.135-0.075,0.217c-0.012,0.083-0.019,0.171-0.019,0.267c0,0.21,0.045,0.375,0.135,0.495c0.09,0.12,0.24,0.19,0.45,0.21    V23.352z M3.458,20.892c0.04,0.045,0.071,0.101,0.094,0.168s0.041,0.14,0.056,0.218s0.028,0.159,0.038,0.244    c0.01,0.085,0.022,0.17,0.038,0.255c0.015,0.08,0.035,0.159,0.06,0.236c0.025,0.078,0.059,0.145,0.101,0.203    s0.096,0.104,0.161,0.139s0.147,0.052,0.248,0.052c0.095,0,0.175-0.017,0.24-0.052s0.116-0.083,0.153-0.143    c0.038-0.06,0.064-0.13,0.079-0.21c0.015-0.08,0.022-0.163,0.022-0.248c0-0.21-0.035-0.373-0.105-0.487    c-0.07-0.115-0.154-0.2-0.251-0.255c-0.097-0.055-0.196-0.088-0.296-0.101c-0.1-0.012-0.18-0.019-0.24-0.019H3.458z"/>
		<path d="M1.478,17.99h0.72v-0.015c-0.12-0.05-0.231-0.117-0.333-0.202s-0.19-0.183-0.263-0.293    c-0.072-0.11-0.128-0.227-0.168-0.352s-0.06-0.255-0.06-0.39c0-0.07,0.013-0.147,0.038-0.232H2.4    c-0.01,0.05-0.019,0.11-0.026,0.18c-0.007,0.07-0.011,0.138-0.011,0.203c0,0.195,0.033,0.36,0.098,0.495    c0.065,0.135,0.154,0.244,0.266,0.326c0.113,0.083,0.244,0.141,0.394,0.176s0.312,0.052,0.487,0.052h1.748v1.065H1.478V17.99z"/>
		<path d="M4.425,15.08c0.155-0.16,0.233-0.39,0.233-0.69c0-0.215-0.054-0.4-0.162-0.555c-0.107-0.155-0.221-0.25-0.341-0.285    v-0.938c0.465,0.15,0.798,0.38,0.998,0.69c0.2,0.31,0.3,0.685,0.3,1.125c0,0.305-0.049,0.58-0.146,0.825    c-0.098,0.245-0.236,0.453-0.416,0.623c-0.18,0.17-0.395,0.301-0.645,0.394c-0.25,0.093-0.525,0.139-0.825,0.139    c-0.29,0-0.56-0.048-0.81-0.143c-0.25-0.095-0.466-0.23-0.648-0.405c-0.183-0.175-0.327-0.383-0.432-0.626    s-0.157-0.511-0.157-0.806c0-0.33,0.063-0.618,0.191-0.863c0.127-0.245,0.299-0.446,0.514-0.604    c0.215-0.158,0.46-0.271,0.735-0.341c0.275-0.07,0.562-0.095,0.862-0.075v2.797C4.02,15.327,4.27,15.24,4.425,15.08z     M2.385,13.876c-0.14,0.127-0.21,0.321-0.21,0.581c0,0.17,0.029,0.311,0.086,0.424c0.058,0.112,0.129,0.203,0.214,0.27    s0.175,0.115,0.27,0.143C2.84,15.321,2.925,15.337,3,15.342v-1.732C2.73,13.66,2.525,13.748,2.385,13.876z"/>
	</g>
	<g>
		<path d="M20.717,104.165c-0.173-0.162-0.397-0.243-0.671-0.243s-0.498,0.07-0.668,0.21s-0.304,0.314-0.398,0.526    c-0.095,0.212-0.158,0.439-0.189,0.685c-0.032,0.246-0.047,0.477-0.047,0.692h0.014c0.112-0.234,0.282-0.423,0.509-0.567    c0.227-0.144,0.476-0.216,0.746-0.216c0.238,0,0.453,0.04,0.645,0.118c0.191,0.079,0.354,0.188,0.489,0.327    c0.135,0.14,0.24,0.307,0.314,0.5s0.111,0.405,0.111,0.635s-0.04,0.441-0.118,0.638c-0.079,0.195-0.189,0.364-0.331,0.506    s-0.311,0.252-0.506,0.331c-0.196,0.078-0.411,0.118-0.645,0.118c-0.288,0-0.536-0.044-0.743-0.132s-0.378-0.23-0.513-0.429    c-0.135-0.198-0.235-0.455-0.301-0.772c-0.065-0.317-0.098-0.708-0.098-1.172c0-0.094,0.005-0.218,0.017-0.371    c0.011-0.152,0.037-0.315,0.077-0.489c0.041-0.173,0.098-0.349,0.172-0.526s0.173-0.339,0.297-0.482    c0.124-0.145,0.278-0.261,0.462-0.352c0.185-0.09,0.405-0.135,0.662-0.135c0.423,0,0.758,0.102,1.006,0.304    c0.247,0.203,0.396,0.513,0.445,0.932h-0.425C20.995,104.539,20.891,104.327,20.717,104.165z M19.509,105.708    c-0.146,0.065-0.27,0.154-0.371,0.267c-0.102,0.112-0.178,0.244-0.229,0.395c-0.052,0.151-0.078,0.313-0.078,0.489    c0,0.167,0.022,0.324,0.067,0.473s0.116,0.278,0.212,0.388c0.097,0.11,0.22,0.197,0.368,0.261    c0.148,0.062,0.326,0.094,0.533,0.094c0.171,0,0.325-0.032,0.462-0.098c0.137-0.065,0.256-0.152,0.357-0.263    c0.102-0.11,0.179-0.24,0.233-0.389c0.054-0.148,0.081-0.304,0.081-0.466c0-0.171-0.026-0.333-0.078-0.485    c-0.052-0.153-0.126-0.286-0.223-0.398s-0.216-0.201-0.358-0.267c-0.142-0.065-0.303-0.099-0.482-0.099    C19.821,105.609,19.655,105.642,19.509,105.708z"/>
		<path d="M24.518,103.791c0.214,0.15,0.38,0.343,0.5,0.577c0.119,0.233,0.2,0.495,0.243,0.782c0.042,0.288,0.064,0.569,0.064,0.844    c0,0.279-0.021,0.563-0.064,0.851c-0.043,0.288-0.124,0.55-0.243,0.783c-0.119,0.234-0.286,0.426-0.5,0.574    s-0.494,0.223-0.84,0.223c-0.342,0-0.621-0.074-0.837-0.223s-0.384-0.34-0.503-0.574c-0.119-0.233-0.2-0.495-0.243-0.783    c-0.042-0.287-0.064-0.569-0.064-0.844c0-0.278,0.021-0.562,0.064-0.851c0.043-0.287,0.124-0.549,0.243-0.782    c0.119-0.234,0.287-0.427,0.503-0.577c0.216-0.151,0.495-0.227,0.837-0.227C24.024,103.564,24.304,103.639,24.518,103.791z     M23.029,104.131c-0.162,0.14-0.285,0.312-0.368,0.52c-0.083,0.207-0.139,0.432-0.166,0.675s-0.041,0.466-0.041,0.668    c0,0.207,0.014,0.432,0.041,0.672c0.027,0.241,0.082,0.466,0.166,0.675c0.083,0.21,0.206,0.384,0.368,0.523    s0.378,0.209,0.648,0.209s0.486-0.069,0.648-0.209s0.285-0.313,0.368-0.523c0.083-0.209,0.138-0.434,0.165-0.675    c0.027-0.24,0.041-0.465,0.041-0.672c0-0.202-0.013-0.425-0.041-0.668c-0.027-0.243-0.082-0.468-0.165-0.675    c-0.083-0.207-0.206-0.38-0.368-0.52s-0.378-0.21-0.648-0.21S23.191,103.992,23.029,104.131z"/>
	</g>
	<line fill="none" stroke="#000000" stroke-width="0.5" stroke-miterlimit="10" x1="32.882" y1="2.576" x2="29.426" y2="2.576"/>
	<line fill="none" stroke="#000000" stroke-width="0.5" stroke-miterlimit="10" x1="32.882" y1="17.421" x2="29.426" y2="17.421"/>
	<line fill="none" stroke="#000000" stroke-width="0.5" stroke-miterlimit="10" x1="32.882" y1="32.266" x2="29.426" y2="32.266"/>
	<line fill="none" stroke="#000000" stroke-width="0.5" stroke-miterlimit="10" x1="32.882" y1="47.111" x2="29.426" y2="47.111"/>
	<line fill="none" stroke="#000000" stroke-width="0.5" stroke-miterlimit="10" x1="32.882" y1="61.956" x2="29.426" y2="61.956"/>
	<line fill="none" stroke="#000000" stroke-width="0.5" stroke-miterlimit="10" x1="32.882" y1="76.8" x2="29.426" y2="76.8"/>
	<line fill="none" stroke="#000000" stroke-width="0.5" stroke-miterlimit="10" x1="32.882" y1="91.645" x2="29.426" y2="91.645"/>
	
		<line fill="none" stroke="#000000" stroke-width="0.5" stroke-miterlimit="10" x1="32.882" y1="106.491" x2="29.426" y2="106.491"/>
	
		<line fill="none" stroke="#000000" stroke-width="0.5" stroke-miterlimit="10" x1="32.882" y1="106.491" x2="32.882" y2="109.946"/>
	
		<line fill="none" stroke="#000000" stroke-width="0.5" stroke-miterlimit="10" x1="70.923" y1="106.491" x2="70.923" y2="109.946"/>
	
		<line fill="none" stroke="#000000" stroke-width="0.5" stroke-miterlimit="10" x1="51.903" y1="106.491" x2="51.903" y2="109.946"/>
	
		<line fill="none" stroke="#000000" stroke-width="0.5" stroke-miterlimit="10" x1="108.964" y1="106.491" x2="108.964" y2="109.946"/>
	
		<line fill="none" stroke="#000000" stroke-width="0.5" stroke-miterlimit="10" x1="147.004" y1="106.491" x2="147.004" y2="109.946"/>
	
		<line fill="none" stroke="#000000" stroke-width="0.5" stroke-miterlimit="10" x1="185.045" y1="106.491" x2="185.045" y2="109.946"/>
	
		<line fill="none" stroke="#000000" stroke-width="0.5" stroke-miterlimit="10" x1="223.086" y1="106.491" x2="223.086" y2="109.946"/>
	
		<line fill="none" stroke="#000000" stroke-width="0.5" stroke-miterlimit="10" x1="261.127" y1="106.491" x2="261.127" y2="109.946"/>
	
		<line fill="none" stroke="#000000" stroke-width="0.5" stroke-miterlimit="10" x1="89.943" y1="106.491" x2="89.943" y2="109.946"/>
	
		<line fill="none" stroke="#000000" stroke-width="0.5" stroke-miterlimit="10" x1="127.984" y1="106.491" x2="127.984" y2="109.946"/>
	
		<line fill="none" stroke="#000000" stroke-width="0.5" stroke-miterlimit="10" x1="166.025" y1="106.491" x2="166.025" y2="109.946"/>
	
		<line fill="none" stroke="#000000" stroke-width="0.5" stroke-miterlimit="10" x1="204.066" y1="106.491" x2="204.066" y2="109.946"/>
	
		<line fill="none" stroke="#000000" stroke-width="0.5" stroke-miterlimit="10" x1="242.107" y1="106.491" x2="242.107" y2="109.946"/>
	<g>
		<path d="M196.118,53.822h1.276l1.429,4.053h0.014l1.393-4.053h1.262v5.177h-0.863v-3.995h-0.015l-1.436,3.995h-0.746l-1.436-3.995    h-0.015v3.995h-0.863V53.822z"/>
		<path d="M203.107,57.338c0,0.145,0.021,0.285,0.062,0.42c0.041,0.136,0.103,0.254,0.186,0.355    c0.082,0.102,0.186,0.183,0.312,0.243c0.125,0.061,0.275,0.091,0.449,0.091c0.242,0,0.437-0.052,0.584-0.156    c0.147-0.104,0.257-0.26,0.33-0.468h0.782c-0.043,0.203-0.118,0.385-0.225,0.544s-0.234,0.294-0.384,0.402    c-0.15,0.109-0.318,0.191-0.504,0.247c-0.187,0.055-0.381,0.083-0.584,0.083c-0.295,0-0.556-0.049-0.783-0.146    c-0.227-0.096-0.419-0.231-0.576-0.405s-0.275-0.382-0.355-0.624c-0.079-0.241-0.119-0.507-0.119-0.797    c0-0.267,0.042-0.519,0.127-0.758c0.084-0.239,0.205-0.449,0.362-0.631s0.347-0.325,0.569-0.432    c0.222-0.106,0.474-0.159,0.754-0.159c0.295,0,0.56,0.062,0.794,0.185s0.429,0.286,0.583,0.489c0.155,0.203,0.268,0.437,0.338,0.7    c0.069,0.264,0.088,0.535,0.054,0.815H203.107z M205.036,56.794c-0.01-0.131-0.037-0.256-0.083-0.377    c-0.047-0.121-0.109-0.226-0.188-0.315c-0.08-0.089-0.177-0.162-0.29-0.218c-0.114-0.055-0.241-0.083-0.381-0.083    c-0.146,0-0.277,0.025-0.396,0.076s-0.22,0.121-0.305,0.21c-0.084,0.09-0.151,0.195-0.202,0.315    c-0.051,0.121-0.079,0.252-0.084,0.392H205.036z"/>
		<path d="M206.493,55.25h0.776v0.725h0.015c0.023-0.102,0.071-0.2,0.141-0.297c0.07-0.097,0.155-0.186,0.254-0.265    c0.1-0.08,0.209-0.144,0.33-0.192c0.121-0.048,0.244-0.072,0.37-0.072c0.097,0,0.163,0.002,0.199,0.007s0.073,0.01,0.112,0.015    v0.798c-0.058-0.01-0.117-0.019-0.178-0.025c-0.061-0.008-0.119-0.011-0.178-0.011c-0.14,0-0.271,0.027-0.395,0.083    c-0.124,0.056-0.231,0.138-0.323,0.246c-0.092,0.109-0.164,0.243-0.218,0.402c-0.053,0.16-0.079,0.344-0.079,0.552v1.783h-0.827    V55.25z"/>
		<path d="M211.444,56.504c-0.033-0.231-0.127-0.407-0.278-0.525c-0.152-0.118-0.345-0.178-0.577-0.178    c-0.106,0-0.22,0.019-0.341,0.055c-0.12,0.036-0.231,0.104-0.333,0.203c-0.102,0.099-0.187,0.236-0.254,0.413    c-0.067,0.176-0.102,0.407-0.102,0.692c0,0.154,0.019,0.31,0.055,0.464s0.094,0.292,0.174,0.413s0.183,0.219,0.309,0.294    c0.125,0.074,0.277,0.112,0.456,0.112c0.242,0,0.441-0.075,0.599-0.225c0.157-0.15,0.255-0.36,0.293-0.631h0.827    c-0.077,0.488-0.263,0.861-0.555,1.12c-0.293,0.259-0.681,0.388-1.164,0.388c-0.295,0-0.555-0.05-0.779-0.148    c-0.225-0.1-0.414-0.234-0.569-0.406c-0.154-0.172-0.271-0.376-0.352-0.612c-0.079-0.237-0.119-0.493-0.119-0.769    c0-0.28,0.038-0.544,0.116-0.79c0.077-0.247,0.193-0.461,0.348-0.643c0.154-0.181,0.347-0.323,0.576-0.428    c0.229-0.104,0.499-0.155,0.809-0.155c0.218,0,0.424,0.027,0.62,0.083c0.195,0.056,0.369,0.14,0.521,0.25    c0.152,0.111,0.277,0.252,0.374,0.421s0.154,0.37,0.174,0.602H211.444z"/>
		<path d="M212.967,53.822h0.826v2.943l1.493-1.515h1.016l-1.436,1.377l1.573,2.371h-1.008l-1.146-1.819l-0.493,0.479v1.341h-0.826    V53.822z"/>
	</g>
	<g>
		<path d="M96.655,35.494h2.284c0.367,0,0.667,0.054,0.899,0.16s0.411,0.239,0.536,0.398c0.126,0.159,0.211,0.333,0.258,0.521    c0.046,0.188,0.069,0.363,0.069,0.522s-0.023,0.332-0.069,0.519c-0.046,0.186-0.132,0.358-0.258,0.519    c-0.125,0.159-0.304,0.291-0.536,0.395c-0.232,0.104-0.532,0.156-0.899,0.156h-1.378v1.986h-0.906V35.494z M97.561,37.945h1.327    c0.102,0,0.205-0.015,0.312-0.044s0.204-0.076,0.293-0.142s0.162-0.152,0.218-0.261s0.083-0.245,0.083-0.409    c0-0.17-0.024-0.31-0.073-0.421s-0.114-0.199-0.196-0.265s-0.176-0.11-0.283-0.134c-0.106-0.024-0.22-0.036-0.341-0.036h-1.341    V37.945z"/>
		<path d="M101.005,36.922h0.616v-0.312c0-0.237,0.029-0.43,0.087-0.577s0.135-0.261,0.232-0.341    c0.097-0.079,0.207-0.133,0.33-0.159c0.123-0.026,0.252-0.04,0.388-0.04c0.266,0,0.459,0.018,0.58,0.051v0.646    c-0.053-0.015-0.11-0.025-0.17-0.032c-0.061-0.008-0.132-0.012-0.214-0.012c-0.111,0-0.207,0.027-0.287,0.08    c-0.08,0.054-0.12,0.157-0.12,0.312v0.385h0.704v0.616h-0.704v3.132h-0.826v-3.132h-0.616V36.922z"/>
		<path d="M103.68,35.494h0.827v0.783h-0.827V35.494z M103.68,36.922h0.827v3.748h-0.827V36.922z"/>
		<path d="M105.275,36.922h3.045v0.58l-2.146,2.516h2.254v0.652h-3.298v-0.58l2.073-2.516h-1.928V36.922z"/>
		<path d="M109.676,39.01c0,0.145,0.021,0.285,0.062,0.42c0.041,0.136,0.103,0.254,0.185,0.355s0.186,0.183,0.312,0.243    c0.125,0.061,0.275,0.091,0.449,0.091c0.242,0,0.436-0.052,0.583-0.156c0.147-0.104,0.258-0.26,0.33-0.468h0.783    c-0.043,0.203-0.119,0.385-0.225,0.544c-0.106,0.159-0.234,0.294-0.384,0.402c-0.15,0.109-0.318,0.191-0.504,0.247    c-0.186,0.055-0.38,0.083-0.583,0.083c-0.295,0-0.556-0.049-0.783-0.146c-0.228-0.096-0.419-0.231-0.577-0.405    s-0.275-0.382-0.355-0.624c-0.08-0.241-0.12-0.507-0.12-0.797c0-0.267,0.042-0.519,0.127-0.758    c0.084-0.239,0.205-0.449,0.362-0.631c0.157-0.182,0.347-0.325,0.569-0.432c0.223-0.106,0.474-0.159,0.754-0.159    c0.294,0,0.559,0.062,0.794,0.185c0.234,0.123,0.429,0.286,0.583,0.489c0.154,0.203,0.267,0.437,0.337,0.7    c0.07,0.264,0.088,0.535,0.055,0.815H109.676z M111.604,38.466c-0.01-0.131-0.038-0.256-0.083-0.377s-0.109-0.226-0.188-0.315    c-0.08-0.089-0.176-0.162-0.29-0.218c-0.113-0.055-0.24-0.083-0.38-0.083c-0.145,0-0.277,0.025-0.396,0.076    c-0.118,0.051-0.22,0.121-0.304,0.21c-0.084,0.09-0.152,0.195-0.203,0.315c-0.051,0.121-0.079,0.252-0.083,0.392H111.604z"/>
		<path d="M113.062,36.922h0.776v0.725h0.014c0.024-0.102,0.071-0.2,0.142-0.297c0.07-0.097,0.155-0.186,0.254-0.265    c0.099-0.08,0.209-0.144,0.33-0.192c0.121-0.048,0.244-0.072,0.37-0.072c0.097,0,0.163,0.002,0.2,0.007    c0.036,0.005,0.073,0.01,0.112,0.015v0.798c-0.058-0.01-0.117-0.019-0.178-0.025c-0.061-0.008-0.12-0.011-0.178-0.011    c-0.14,0-0.272,0.027-0.395,0.083s-0.231,0.138-0.323,0.246c-0.092,0.109-0.164,0.243-0.217,0.402    c-0.053,0.16-0.08,0.344-0.08,0.552v1.783h-0.827V36.922z"/>
	</g>
	<g>
		<g>
			<line fill="none" stroke="#000000" stroke-width="0.5" stroke-linejoin="round" x1="117.638" y1="38.5" x2="131.184" y2="38.5"/>
			<g>
				<polygon points="130.636,40.37 133.875,38.5 130.636,36.629     "/>
			</g>
		</g>
	</g>
	<g>
		<g>
			
				<line fill="none" stroke="#000000" stroke-width="0.5" stroke-linejoin="round" x1="193.582" y1="56.598" x2="180.036" y2="56.598"/>
			<g>
				<polygon points="180.583,54.728 177.344,56.598 180.583,58.467     "/>
			</g>
		</g>
	</g>
	<g>
		<polyline fill="none" stroke="#7A9AA8" stroke-width="2.5" stroke-linejoin="round" stroke-miterlimit="10" points="32.882,76.82     36.04,75.166 38.876,71.203 42.186,70.07 45.496,70.636 48.333,71.769 51.642,72.334 54.479,71.769 57.789,71.203 61.098,72.334     63.935,68.938 67.245,72.334 70.082,73.467 73.391,70.07 76.701,63.843 79.538,61.012 82.847,58.748 85.684,59.314 88.994,61.012     91.831,59.314 95.14,57.049 98.45,54.219 101.287,55.351 104.597,62.145 107.433,58.748 110.743,60.446 114.053,64.975     116.89,62.145 120.199,63.843 123.036,64.975 126.346,62.145 129.183,59.314 132.492,58.748 135.802,54.219 138.639,55.917     141.948,53.653 144.785,50.256 148.095,51.388 151.405,54.785 154.242,50.256 157.551,50.256 160.388,51.388 163.698,53.086     167.007,50.822 169.844,49.69 173.154,54.219 175.991,57.049 179.3,50.822 182.137,46.859 185.447,50.822 188.756,47.992     191.593,41.764 194.903,42.896 197.74,34.971 201.049,33.838 204.359,33.838 207.196,33.838 210.505,34.405 213.342,27.045     216.652,34.971 219.489,30.442 222.798,30.442 226.108,29.31 228.945,30.442 232.254,32.707 235.091,29.31 238.401,26.479     241.71,27.045 244.547,28.743 247.857,37.235 250.694,28.743 254.003,27.611 257.313,24.632 260.15,32.707 263.321,32.707   "/>
	</g>
	<g>
		<polyline fill="none" stroke="#F47920" stroke-width="2.5" stroke-linejoin="round" stroke-miterlimit="10" points="32.882,76.82     36.04,72.901 38.876,69.504 42.186,69.504 45.496,72.334 48.333,72.901 51.642,71.203 54.479,70.07 57.789,67.24 61.098,69.504     63.935,66.673 67.245,68.372 70.082,70.636 73.391,67.24 76.701,66.107 79.538,65.542 82.847,62.145 85.684,62.145 88.994,62.71     91.831,62.145 95.14,58.182 98.45,56.484 101.287,59.88 104.597,63.277 107.433,58.182 110.743,57.049 114.053,54.785     116.89,52.52 120.199,48.558 123.036,49.69 126.346,49.69 129.183,47.425 132.492,44.029 135.802,38.368 138.639,44.029     141.948,41.764 144.785,47.992 148.095,42.896 151.405,47.992 154.242,44.595 157.551,43.462 160.388,44.595 163.698,47.425     167.007,44.595 169.844,44.029 173.154,42.896 175.991,35.537 179.3,31.746 182.137,33.272 185.447,38.933 188.756,38.368     191.593,35.537 194.903,37.801 197.74,32.707 201.049,32.707 204.359,34.405 207.196,32.707 210.505,40.066 213.342,35.537     216.652,43.462 219.489,41.198 222.798,41.198 226.108,39.5 228.945,38.368 232.254,44.029 235.091,45.161 238.401,42.896     241.71,40.066 244.547,42.896 247.857,46.859 250.694,38.933 254.003,38.933 257.313,33.838 260.15,36.669 263.321,35.537   "/>
	</g>
	<rect x="31.704" y="74.055" fill="#FFFFFF" width="1.179" height="3.036"/>
	<polyline fill="none" stroke="#000000" stroke-width="0.5" stroke-linecap="square" stroke-miterlimit="10" points="32.882,2.576    32.882,106.491 266.449,106.491  "/>
	<g>
		<path d="M14.35,132.955c0.532-0.506,1.067-0.751,1.608-0.734c0.541,0.016,1.096,0.307,1.662,0.873    c0.565,0.565,0.857,1.119,0.873,1.66s-0.229,1.077-0.736,1.609l-1.178,1.178l-3.408-3.407L14.35,132.955z M17.318,136.248    c0.245-0.244,0.43-0.482,0.554-0.711c0.124-0.229,0.186-0.459,0.186-0.688c0.001-0.229-0.062-0.461-0.189-0.697    c-0.128-0.235-0.318-0.48-0.573-0.734s-0.499-0.445-0.735-0.573c-0.235-0.127-0.468-0.19-0.697-0.19    c-0.229,0-0.457,0.062-0.687,0.186c-0.229,0.124-0.467,0.31-0.712,0.555l-0.691,0.691l2.854,2.854L17.318,136.248z"/>
		<path d="M19.199,133.293c0.146,0.086,0.299,0.142,0.458,0.167c0.158,0.025,0.32,0.018,0.482-0.023s0.314-0.134,0.458-0.277    c0.22-0.219,0.335-0.449,0.343-0.688c0.01-0.238-0.057-0.477-0.199-0.715l0.301-0.301c0.216,0.343,0.314,0.676,0.297,1    c-0.018,0.322-0.182,0.64-0.493,0.951c-0.194,0.194-0.396,0.328-0.606,0.4c-0.21,0.074-0.42,0.096-0.628,0.065    s-0.413-0.103-0.612-0.218c-0.201-0.114-0.389-0.259-0.564-0.434c-0.162-0.162-0.299-0.344-0.412-0.542s-0.187-0.404-0.221-0.616    c-0.032-0.211-0.016-0.425,0.051-0.643c0.067-0.216,0.197-0.421,0.392-0.615c0.196-0.197,0.405-0.326,0.626-0.387    c0.219-0.061,0.437-0.069,0.654-0.027c0.215,0.041,0.426,0.125,0.631,0.254c0.206,0.13,0.391,0.283,0.557,0.461l-1.895,1.895    C18.925,133.111,19.053,133.208,19.199,133.293z M19.769,130.886c-0.141-0.068-0.285-0.111-0.434-0.125s-0.295,0.002-0.439,0.048    s-0.277,0.13-0.398,0.251c-0.123,0.123-0.209,0.258-0.256,0.402c-0.045,0.145-0.061,0.291-0.047,0.439s0.055,0.295,0.121,0.441    c0.067,0.146,0.15,0.281,0.249,0.406l1.595-1.594C20.04,131.044,19.911,130.955,19.769,130.886z"/>
		<path d="M21.652,128.219c-0.217,0.007-0.425,0.11-0.625,0.311c-0.144,0.144-0.239,0.3-0.286,0.468    c-0.049,0.168-0.059,0.338-0.031,0.508c0.027,0.171,0.085,0.337,0.174,0.5c0.09,0.162,0.199,0.308,0.33,0.438    c0.13,0.131,0.276,0.241,0.438,0.33s0.329,0.146,0.499,0.174s0.34,0.018,0.508-0.031c0.169-0.047,0.324-0.143,0.469-0.285    c0.092-0.092,0.162-0.197,0.209-0.314c0.048-0.119,0.072-0.24,0.074-0.366s-0.02-0.252-0.064-0.38    c-0.045-0.127-0.113-0.246-0.205-0.357l0.301-0.301c0.258,0.341,0.381,0.684,0.37,1.028c-0.012,0.346-0.157,0.658-0.437,0.938    c-0.188,0.188-0.389,0.319-0.602,0.396c-0.213,0.076-0.428,0.105-0.645,0.085c-0.217-0.019-0.429-0.082-0.637-0.188    c-0.209-0.106-0.402-0.248-0.58-0.428c-0.179-0.178-0.321-0.371-0.428-0.579c-0.105-0.208-0.17-0.421-0.188-0.638    c-0.02-0.216,0.009-0.432,0.083-0.646c0.076-0.215,0.206-0.416,0.395-0.604c0.264-0.265,0.557-0.418,0.881-0.461    c0.322-0.043,0.643,0.061,0.961,0.309l-0.301,0.301C22.09,128.282,21.868,128.212,21.652,128.219z"/>
		<path d="M24.416,128.692l0.401-0.401l0.506,0.506l-0.401,0.401L24.416,128.692z"/>
		<path d="M27.284,126.835c-0.162-0.168-0.279-0.344-0.354-0.525c-0.072-0.181-0.115-0.367-0.128-0.559    c-0.013-0.189-0.006-0.384,0.021-0.58c0.027-0.195,0.062-0.391,0.102-0.586c0.039-0.196,0.076-0.393,0.111-0.59    s0.053-0.389,0.053-0.572c0-0.186-0.025-0.35-0.076-0.492s-0.143-0.281-0.277-0.416c-0.107-0.107-0.224-0.184-0.349-0.229    c-0.124-0.045-0.249-0.062-0.377-0.053c-0.127,0.01-0.251,0.045-0.372,0.105s-0.232,0.141-0.334,0.243    c-0.137,0.138-0.229,0.28-0.274,0.427c-0.046,0.148-0.057,0.296-0.031,0.442c0.026,0.146,0.081,0.288,0.165,0.427    s0.189,0.268,0.318,0.389l-0.301,0.301c-0.176-0.168-0.314-0.346-0.416-0.534s-0.161-0.379-0.178-0.573    c-0.016-0.193,0.016-0.388,0.092-0.582c0.076-0.193,0.205-0.382,0.387-0.562c0.146-0.146,0.303-0.264,0.467-0.35    c0.166-0.085,0.334-0.137,0.507-0.152c0.171-0.016,0.343,0.009,0.513,0.074c0.17,0.064,0.333,0.176,0.489,0.332    c0.14,0.14,0.244,0.29,0.313,0.451c0.067,0.16,0.11,0.327,0.128,0.501c0.018,0.173,0.017,0.351-0.003,0.532    c-0.018,0.182-0.049,0.362-0.09,0.544c-0.025,0.134-0.06,0.287-0.104,0.46c-0.042,0.174-0.074,0.351-0.095,0.53    s-0.022,0.354-0.005,0.524s0.072,0.321,0.164,0.451l1.857-1.856l0.277,0.276L27.284,126.835z"/>
		<path d="M28.478,119.222c0.258-0.045,0.512-0.026,0.762,0.055c0.25,0.082,0.491,0.209,0.725,0.383    c0.234,0.173,0.449,0.357,0.643,0.551c0.197,0.197,0.383,0.413,0.557,0.646c0.173,0.234,0.301,0.477,0.381,0.726    c0.082,0.25,0.1,0.503,0.053,0.759s-0.191,0.507-0.437,0.752c-0.241,0.242-0.492,0.387-0.749,0.434    c-0.258,0.049-0.512,0.032-0.762-0.05c-0.25-0.081-0.491-0.208-0.726-0.381c-0.233-0.174-0.448-0.358-0.642-0.552    c-0.197-0.197-0.383-0.413-0.557-0.646c-0.173-0.234-0.301-0.477-0.381-0.727c-0.082-0.249-0.1-0.504-0.053-0.764    c0.045-0.258,0.189-0.51,0.432-0.751C27.969,119.412,28.22,119.267,28.478,119.222z M27.667,120.515    c-0.017,0.214,0.02,0.424,0.107,0.629c0.087,0.205,0.207,0.403,0.359,0.594c0.153,0.19,0.301,0.357,0.444,0.501    c0.146,0.146,0.314,0.295,0.503,0.446c0.189,0.152,0.388,0.271,0.595,0.36c0.206,0.089,0.417,0.126,0.63,0.11    s0.416-0.119,0.606-0.311s0.294-0.393,0.31-0.605c0.017-0.214-0.021-0.424-0.109-0.631s-0.209-0.404-0.361-0.594    c-0.15-0.189-0.299-0.357-0.445-0.504c-0.143-0.143-0.311-0.291-0.502-0.443c-0.189-0.153-0.388-0.273-0.594-0.361    c-0.205-0.087-0.414-0.123-0.627-0.107c-0.214,0.017-0.416,0.119-0.606,0.311S27.683,120.302,27.667,120.515z"/>
		<path d="M30.521,118.163c0.096-0.117,0.162-0.235,0.198-0.355c0.036-0.119,0.038-0.247,0.007-0.384s-0.112-0.293-0.243-0.468    l0.243-0.243l3.342,3.34l-0.301,0.301l-2.482-2.48l-0.883,0.883l-0.215-0.216C30.313,118.406,30.425,118.281,30.521,118.163z"/>
		<path d="M33.175,115.509c0.096-0.117,0.161-0.236,0.197-0.355c0.037-0.119,0.039-0.248,0.008-0.385    c-0.032-0.137-0.113-0.293-0.244-0.467l0.244-0.244l3.34,3.342l-0.301,0.301l-2.48-2.482l-0.883,0.883l-0.216-0.215    C32.968,115.752,33.079,115.627,33.175,115.509z"/>
	</g>
	<g>
		<path d="M51.55,132.873l2.458,2.459c0.175,0.175,0.309,0.344,0.4,0.506c0.093,0.162,0.142,0.323,0.146,0.484    c0.005,0.16-0.035,0.324-0.119,0.492c-0.084,0.166-0.219,0.342-0.403,0.527c-0.194,0.193-0.386,0.32-0.575,0.379    s-0.371,0.07-0.549,0.033c-0.176-0.036-0.348-0.112-0.514-0.227c-0.164-0.114-0.322-0.246-0.472-0.396l0.325-0.324    c0.075,0.07,0.168,0.152,0.276,0.248s0.228,0.17,0.358,0.225c0.13,0.055,0.271,0.07,0.424,0.047    c0.152-0.021,0.314-0.117,0.482-0.285c0.127-0.128,0.216-0.25,0.265-0.365c0.05-0.116,0.062-0.234,0.038-0.354    c-0.023-0.119-0.082-0.244-0.174-0.375c-0.092-0.13-0.217-0.273-0.373-0.43l-2.318-2.319L51.55,132.873z"/>
		<path d="M57.306,133.933l-0.443-0.444l-0.01,0.01c0.086,0.245,0.097,0.487,0.033,0.726s-0.188,0.45-0.372,0.635    c-0.156,0.156-0.311,0.268-0.464,0.334c-0.152,0.066-0.303,0.095-0.45,0.084c-0.147-0.012-0.296-0.059-0.442-0.142    c-0.146-0.083-0.292-0.196-0.438-0.343l-1.599-1.6l0.301-0.301l1.604,1.604c0.229,0.217,0.449,0.334,0.661,0.352    s0.437-0.094,0.675-0.332c0.131-0.131,0.215-0.27,0.251-0.418c0.036-0.147,0.038-0.298,0.007-0.451    c-0.031-0.152-0.093-0.303-0.184-0.451c-0.091-0.146-0.197-0.283-0.322-0.408l-1.293-1.293l0.301-0.301l2.463,2.463    L57.306,133.933z"/>
		<path d="M55.983,130.33l0.425,0.424l0.009-0.009c-0.092-0.207-0.109-0.429-0.055-0.666c0.057-0.237,0.172-0.443,0.346-0.618    c0.172-0.172,0.339-0.293,0.5-0.365c0.16-0.071,0.316-0.102,0.468-0.09c0.151,0.011,0.3,0.061,0.446,0.15    c0.146,0.089,0.293,0.207,0.439,0.353l1.584,1.585l-0.301,0.301l-1.537-1.537c-0.104-0.105-0.213-0.193-0.322-0.266    c-0.109-0.07-0.221-0.116-0.336-0.135c-0.115-0.02-0.231-0.008-0.352,0.035c-0.119,0.043-0.238,0.125-0.359,0.246    s-0.207,0.25-0.258,0.387s-0.072,0.275-0.062,0.414c0.01,0.141,0.048,0.281,0.115,0.421c0.066,0.14,0.158,0.272,0.276,0.396    l1.437,1.438l-0.301,0.301l-2.463-2.463L55.983,130.33z"/>
		<path d="M60.122,129.49c0.146,0.086,0.299,0.142,0.457,0.167c0.16,0.025,0.32,0.017,0.482-0.024s0.315-0.133,0.459-0.276    c0.219-0.22,0.334-0.448,0.344-0.688c0.009-0.239-0.058-0.478-0.201-0.716l0.301-0.301c0.217,0.344,0.315,0.678,0.299,1    c-0.019,0.322-0.183,0.641-0.494,0.952c-0.194,0.194-0.396,0.327-0.606,0.401c-0.21,0.073-0.42,0.094-0.628,0.064    c-0.209-0.03-0.413-0.104-0.613-0.218c-0.201-0.114-0.389-0.259-0.563-0.435c-0.162-0.162-0.3-0.342-0.412-0.541    c-0.113-0.199-0.187-0.404-0.22-0.616c-0.033-0.211-0.018-0.425,0.05-0.642s0.197-0.422,0.392-0.616    c0.197-0.197,0.406-0.326,0.625-0.386c0.22-0.061,0.438-0.07,0.654-0.029c0.216,0.041,0.427,0.127,0.632,0.256    c0.206,0.129,0.392,0.282,0.556,0.46l-1.895,1.896C59.848,129.306,59.976,129.404,60.122,129.49z M60.692,127.082    c-0.143-0.068-0.287-0.109-0.436-0.124c-0.146-0.015-0.293,0.001-0.438,0.048c-0.144,0.046-0.277,0.129-0.398,0.25    c-0.124,0.125-0.209,0.26-0.256,0.404c-0.046,0.145-0.062,0.291-0.048,0.438c0.015,0.147,0.055,0.295,0.123,0.441    c0.066,0.146,0.148,0.281,0.248,0.406l1.594-1.595C60.964,127.24,60.833,127.15,60.692,127.082z"/>
		<path d="M64.403,126.835c-0.162-0.168-0.28-0.344-0.354-0.525c-0.072-0.181-0.116-0.367-0.129-0.559    c-0.013-0.189-0.006-0.384,0.021-0.579c0.027-0.196,0.061-0.392,0.101-0.587c0.04-0.196,0.077-0.393,0.112-0.59    s0.052-0.389,0.053-0.572c-0.001-0.186-0.026-0.35-0.076-0.492c-0.052-0.143-0.145-0.281-0.277-0.415    c-0.108-0.108-0.225-0.185-0.35-0.229c-0.123-0.044-0.25-0.062-0.377-0.053c-0.127,0.01-0.25,0.045-0.371,0.105    s-0.232,0.142-0.334,0.243c-0.138,0.138-0.229,0.28-0.275,0.427c-0.046,0.148-0.057,0.296-0.031,0.442s0.08,0.289,0.165,0.427    c0.085,0.139,0.19,0.269,0.317,0.39l-0.301,0.301c-0.176-0.169-0.312-0.347-0.415-0.534c-0.103-0.188-0.161-0.379-0.177-0.574    c-0.016-0.193,0.015-0.387,0.091-0.582c0.077-0.193,0.205-0.381,0.387-0.562c0.146-0.146,0.302-0.263,0.468-0.349    s0.334-0.138,0.506-0.153s0.343,0.01,0.514,0.074c0.17,0.065,0.332,0.176,0.488,0.332c0.141,0.14,0.244,0.29,0.312,0.451    c0.068,0.16,0.111,0.328,0.129,0.501s0.018,0.351-0.002,0.532s-0.049,0.362-0.09,0.544c-0.025,0.134-0.061,0.287-0.104,0.46    c-0.043,0.174-0.074,0.351-0.096,0.53c-0.02,0.18-0.021,0.355-0.004,0.525s0.072,0.32,0.164,0.45l1.857-1.856l0.276,0.276    L64.403,126.835z"/>
		<path d="M65.596,119.222c0.259-0.044,0.512-0.025,0.762,0.055c0.249,0.082,0.491,0.209,0.726,0.383    c0.233,0.174,0.447,0.357,0.642,0.551c0.197,0.197,0.383,0.414,0.557,0.646c0.173,0.234,0.3,0.477,0.382,0.726    c0.081,0.251,0.098,0.503,0.052,0.759s-0.191,0.508-0.437,0.752c-0.242,0.242-0.492,0.387-0.75,0.435    c-0.257,0.048-0.51,0.031-0.761-0.05c-0.249-0.081-0.491-0.209-0.726-0.382c-0.233-0.173-0.447-0.357-0.642-0.552    c-0.197-0.197-0.383-0.412-0.556-0.646c-0.174-0.234-0.301-0.476-0.383-0.726c-0.08-0.25-0.098-0.505-0.053-0.764    c0.047-0.259,0.191-0.51,0.433-0.751C65.087,119.412,65.339,119.267,65.596,119.222z M64.784,120.516    c-0.016,0.214,0.021,0.423,0.108,0.628c0.087,0.205,0.208,0.403,0.36,0.594c0.152,0.191,0.301,0.358,0.443,0.502    c0.146,0.146,0.314,0.295,0.504,0.445c0.189,0.152,0.387,0.271,0.594,0.36s0.417,0.126,0.631,0.11    c0.213-0.016,0.414-0.119,0.605-0.311c0.191-0.19,0.295-0.393,0.311-0.605s-0.021-0.424-0.109-0.631    c-0.09-0.207-0.209-0.404-0.361-0.594c-0.15-0.189-0.299-0.357-0.445-0.504c-0.144-0.143-0.311-0.291-0.502-0.443    c-0.19-0.152-0.389-0.273-0.594-0.361c-0.205-0.087-0.415-0.123-0.628-0.107c-0.214,0.017-0.415,0.12-0.606,0.311    C64.903,120.101,64.801,120.302,64.784,120.516z"/>
		<path d="M67.639,118.164c0.096-0.117,0.162-0.236,0.198-0.355c0.037-0.12,0.039-0.248,0.008-0.385    c-0.033-0.137-0.113-0.293-0.244-0.467l0.244-0.244l3.34,3.341l-0.301,0.301l-2.48-2.481l-0.883,0.883l-0.216-0.215    C67.433,118.407,67.544,118.281,67.639,118.164z"/>
		<path d="M72.364,118.875c-0.162-0.168-0.279-0.344-0.354-0.525c-0.072-0.181-0.116-0.367-0.129-0.559    c-0.013-0.189-0.006-0.384,0.021-0.58c0.027-0.195,0.061-0.391,0.101-0.586c0.04-0.196,0.077-0.393,0.112-0.59    s0.053-0.389,0.053-0.572c0-0.186-0.026-0.35-0.076-0.492c-0.052-0.143-0.144-0.281-0.277-0.416    c-0.107-0.107-0.225-0.184-0.35-0.229c-0.123-0.045-0.249-0.062-0.377-0.053c-0.127,0.01-0.25,0.045-0.371,0.105    s-0.232,0.141-0.334,0.243c-0.138,0.138-0.229,0.28-0.275,0.427c-0.046,0.148-0.057,0.296-0.031,0.442    c0.026,0.146,0.081,0.288,0.166,0.427c0.084,0.139,0.189,0.268,0.317,0.389l-0.301,0.301c-0.176-0.168-0.313-0.346-0.415-0.534    c-0.103-0.188-0.162-0.379-0.178-0.573c-0.016-0.193,0.016-0.388,0.092-0.582c0.076-0.193,0.205-0.382,0.386-0.562    c0.146-0.146,0.303-0.264,0.468-0.35c0.166-0.085,0.334-0.137,0.506-0.152s0.344,0.009,0.514,0.074    c0.17,0.064,0.332,0.176,0.488,0.332c0.141,0.14,0.244,0.29,0.313,0.451c0.067,0.16,0.11,0.327,0.128,0.501    c0.018,0.173,0.018,0.351-0.002,0.532c-0.019,0.182-0.049,0.362-0.09,0.544c-0.025,0.134-0.061,0.287-0.104,0.46    c-0.043,0.174-0.074,0.351-0.096,0.53c-0.02,0.18-0.021,0.354-0.004,0.524c0.018,0.171,0.072,0.321,0.164,0.451l1.857-1.856    l0.276,0.276L72.364,118.875z"/>
	</g>
	<g>
		<path d="M89.151,132.955c0.531-0.506,1.067-0.75,1.609-0.734c0.541,0.016,1.094,0.307,1.66,0.873s0.857,1.12,0.873,1.661    s-0.229,1.077-0.734,1.608l-1.18,1.179l-3.407-3.407L89.151,132.955z M92.12,136.248c0.244-0.244,0.43-0.481,0.554-0.711    c0.124-0.229,0.187-0.458,0.187-0.687c0-0.229-0.064-0.462-0.191-0.696c-0.127-0.236-0.318-0.481-0.572-0.736    c-0.254-0.254-0.5-0.445-0.736-0.572c-0.234-0.127-0.467-0.191-0.696-0.191c-0.229,0-0.458,0.062-0.687,0.187    c-0.23,0.124-0.467,0.31-0.711,0.554l-0.693,0.692l2.854,2.854L92.12,136.248z"/>
		<path d="M94,133.294c0.146,0.086,0.299,0.141,0.458,0.166c0.159,0.026,0.319,0.018,0.481-0.023s0.315-0.133,0.459-0.277    c0.219-0.219,0.334-0.447,0.344-0.687c0.009-0.239-0.058-0.478-0.201-0.716l0.301-0.301c0.217,0.344,0.316,0.677,0.299,1    c-0.018,0.322-0.183,0.641-0.494,0.951c-0.194,0.195-0.396,0.328-0.605,0.401c-0.211,0.073-0.42,0.095-0.629,0.065    c-0.208-0.031-0.412-0.104-0.613-0.218c-0.2-0.114-0.388-0.259-0.562-0.435c-0.162-0.162-0.301-0.343-0.413-0.541    c-0.112-0.199-0.187-0.404-0.22-0.616s-0.017-0.425,0.051-0.643c0.066-0.216,0.196-0.421,0.391-0.616    c0.197-0.196,0.406-0.325,0.625-0.385c0.221-0.062,0.438-0.07,0.654-0.029s0.427,0.127,0.633,0.255    c0.205,0.13,0.391,0.283,0.555,0.461l-1.895,1.895C93.727,133.111,93.854,133.208,94,133.294z M94.571,130.886    c-0.143-0.068-0.287-0.11-0.435-0.125c-0.147-0.014-0.294,0.002-0.439,0.049c-0.144,0.046-0.277,0.129-0.397,0.25    c-0.125,0.124-0.209,0.259-0.256,0.403s-0.062,0.291-0.049,0.439c0.016,0.147,0.055,0.295,0.123,0.441    c0.066,0.146,0.148,0.281,0.248,0.405l1.594-1.594C94.842,131.044,94.711,130.955,94.571,130.886z"/>
		<path d="M96.454,128.22c-0.217,0.006-0.425,0.109-0.625,0.311c-0.144,0.143-0.238,0.299-0.287,0.468    c-0.047,0.168-0.059,0.338-0.031,0.508c0.028,0.171,0.086,0.337,0.176,0.499c0.088,0.162,0.197,0.309,0.328,0.439    c0.131,0.13,0.277,0.24,0.439,0.328c0.162,0.09,0.328,0.147,0.498,0.175c0.171,0.028,0.34,0.017,0.509-0.03    c0.169-0.049,0.325-0.144,0.468-0.287c0.092-0.092,0.162-0.197,0.211-0.314c0.047-0.119,0.072-0.24,0.073-0.365    c0.001-0.126-0.02-0.252-0.065-0.38c-0.044-0.128-0.111-0.246-0.204-0.358l0.301-0.301c0.258,0.342,0.381,0.684,0.37,1.029    c-0.012,0.346-0.157,0.658-0.438,0.938c-0.188,0.188-0.388,0.32-0.602,0.396c-0.213,0.076-0.428,0.105-0.645,0.086    c-0.216-0.02-0.428-0.082-0.637-0.188c-0.208-0.106-0.401-0.249-0.58-0.427c-0.178-0.179-0.32-0.373-0.427-0.58    c-0.106-0.209-0.17-0.422-0.188-0.638c-0.02-0.216,0.008-0.432,0.084-0.646c0.074-0.215,0.205-0.417,0.393-0.604    c0.264-0.264,0.559-0.417,0.881-0.46s0.645,0.06,0.962,0.308l-0.301,0.301C96.891,128.283,96.669,128.214,96.454,128.22z"/>
		<path d="M99.217,128.693l0.4-0.401l0.506,0.506l-0.4,0.401L99.217,128.693z"/>
		<path d="M102.086,126.835c-0.162-0.168-0.28-0.344-0.354-0.524s-0.117-0.367-0.129-0.559c-0.014-0.19-0.006-0.384,0.021-0.58    c0.027-0.195,0.061-0.392,0.1-0.587c0.04-0.195,0.077-0.393,0.112-0.59s0.053-0.389,0.053-0.572c0-0.186-0.026-0.349-0.076-0.492    c-0.052-0.143-0.144-0.281-0.277-0.414c-0.108-0.108-0.224-0.185-0.349-0.23c-0.123-0.044-0.25-0.062-0.377-0.053    c-0.127,0.01-0.251,0.045-0.372,0.105s-0.231,0.142-0.334,0.244c-0.138,0.137-0.228,0.279-0.274,0.426    c-0.047,0.149-0.057,0.297-0.031,0.443s0.08,0.288,0.164,0.427c0.085,0.138,0.191,0.268,0.318,0.389l-0.301,0.301    c-0.176-0.169-0.312-0.347-0.416-0.534c-0.102-0.188-0.16-0.379-0.176-0.573s0.015-0.388,0.091-0.583    c0.076-0.193,0.205-0.381,0.386-0.562c0.146-0.146,0.303-0.262,0.469-0.349c0.165-0.085,0.334-0.137,0.506-0.152    c0.172-0.017,0.343,0.009,0.513,0.073c0.171,0.065,0.333,0.176,0.489,0.332c0.14,0.141,0.244,0.291,0.312,0.451    s0.111,0.328,0.129,0.502c0.018,0.172,0.018,0.35-0.002,0.531s-0.05,0.363-0.091,0.545c-0.025,0.133-0.06,0.287-0.103,0.46    s-0.075,0.351-0.096,0.53s-0.021,0.354-0.004,0.524c0.017,0.171,0.071,0.321,0.164,0.451l1.856-1.856l0.276,0.276L102.086,126.835    z"/>
		<path d="M103.279,119.222c0.258-0.043,0.512-0.025,0.761,0.056c0.25,0.081,0.492,0.208,0.727,0.382    c0.233,0.174,0.447,0.357,0.642,0.551c0.197,0.197,0.383,0.414,0.556,0.647c0.174,0.233,0.301,0.476,0.382,0.726    c0.082,0.25,0.099,0.502,0.053,0.758c-0.046,0.257-0.191,0.508-0.437,0.752c-0.242,0.242-0.492,0.387-0.75,0.435    s-0.511,0.032-0.762-0.05c-0.248-0.081-0.49-0.209-0.725-0.381c-0.233-0.174-0.447-0.358-0.642-0.553    c-0.197-0.197-0.383-0.412-0.557-0.646c-0.173-0.234-0.3-0.476-0.382-0.725c-0.081-0.25-0.098-0.505-0.053-0.765    c0.047-0.259,0.191-0.51,0.433-0.751C102.77,119.412,103.021,119.267,103.279,119.222z M102.467,120.517    c-0.016,0.213,0.02,0.422,0.107,0.627s0.208,0.404,0.36,0.594c0.153,0.191,0.302,0.358,0.444,0.502    c0.146,0.146,0.314,0.295,0.503,0.445c0.19,0.152,0.388,0.271,0.595,0.361c0.207,0.089,0.417,0.125,0.63,0.109    c0.214-0.016,0.415-0.119,0.606-0.311c0.191-0.19,0.294-0.393,0.311-0.605c0.016-0.213-0.021-0.424-0.11-0.631    c-0.089-0.206-0.209-0.404-0.36-0.594c-0.15-0.189-0.3-0.357-0.446-0.504c-0.144-0.143-0.31-0.291-0.501-0.443    s-0.389-0.272-0.594-0.36c-0.206-0.087-0.415-0.124-0.629-0.107c-0.213,0.017-0.414,0.119-0.605,0.31    C102.586,120.101,102.483,120.303,102.467,120.517z"/>
		<path d="M105.322,118.164c0.096-0.117,0.161-0.236,0.198-0.355c0.036-0.119,0.039-0.248,0.007-0.385s-0.112-0.293-0.243-0.467    l0.243-0.244l3.341,3.342l-0.301,0.301l-2.481-2.482l-0.883,0.883l-0.216-0.215C105.116,118.407,105.227,118.282,105.322,118.164z    "/>
		<path d="M110.047,118.875c-0.162-0.168-0.28-0.344-0.354-0.525c-0.072-0.181-0.116-0.367-0.129-0.559    c-0.013-0.189-0.006-0.384,0.021-0.579c0.027-0.196,0.061-0.392,0.101-0.587c0.04-0.196,0.077-0.393,0.112-0.59    s0.052-0.389,0.053-0.572c-0.001-0.186-0.026-0.35-0.076-0.492c-0.052-0.143-0.145-0.281-0.277-0.415    c-0.108-0.108-0.225-0.185-0.35-0.229c-0.123-0.044-0.25-0.062-0.377-0.053c-0.127,0.01-0.25,0.045-0.371,0.105    s-0.232,0.142-0.334,0.243c-0.138,0.138-0.229,0.28-0.275,0.427c-0.046,0.148-0.057,0.297-0.031,0.442    c0.025,0.146,0.08,0.289,0.165,0.427c0.085,0.139,0.19,0.269,0.317,0.39l-0.301,0.301c-0.176-0.169-0.312-0.347-0.415-0.534    c-0.103-0.188-0.161-0.379-0.177-0.574c-0.016-0.193,0.015-0.387,0.091-0.582c0.077-0.193,0.205-0.381,0.387-0.562    c0.146-0.146,0.302-0.263,0.468-0.349s0.334-0.138,0.506-0.153s0.343,0.01,0.514,0.074c0.17,0.065,0.332,0.176,0.488,0.332    c0.141,0.14,0.244,0.291,0.312,0.451s0.111,0.328,0.129,0.501s0.018,0.351-0.002,0.532s-0.049,0.362-0.091,0.545    c-0.024,0.133-0.06,0.287-0.103,0.46s-0.074,0.35-0.096,0.529c-0.021,0.181-0.021,0.355-0.004,0.525s0.072,0.32,0.164,0.45    l1.857-1.856l0.276,0.276L110.047,118.875z"/>
	</g>
	<g>
		<path d="M127.613,132.874l2.458,2.458c0.176,0.176,0.309,0.344,0.4,0.506c0.093,0.162,0.141,0.324,0.146,0.484    c0.004,0.16-0.035,0.324-0.119,0.492c-0.086,0.166-0.219,0.342-0.404,0.527c-0.193,0.193-0.386,0.32-0.574,0.379    c-0.189,0.059-0.373,0.07-0.549,0.033c-0.177-0.036-0.348-0.111-0.514-0.227c-0.165-0.114-0.323-0.246-0.473-0.396l0.324-0.325    c0.076,0.07,0.169,0.153,0.277,0.248c0.108,0.096,0.228,0.171,0.357,0.225c0.131,0.055,0.272,0.07,0.425,0.048    c0.153-0.022,0.313-0.118,0.482-0.286c0.128-0.127,0.216-0.249,0.265-0.365c0.05-0.116,0.062-0.234,0.039-0.354    c-0.024-0.119-0.082-0.244-0.175-0.375c-0.092-0.13-0.216-0.273-0.372-0.43l-2.319-2.319L127.613,132.874z"/>
		<path d="M133.369,133.933l-0.444-0.443l-0.009,0.009c0.086,0.245,0.097,0.487,0.033,0.726c-0.063,0.239-0.188,0.45-0.372,0.635    c-0.156,0.156-0.311,0.268-0.463,0.334s-0.303,0.096-0.451,0.084s-0.295-0.059-0.441-0.141c-0.146-0.083-0.293-0.197-0.439-0.344    l-1.599-1.6l0.301-0.301l1.604,1.604c0.229,0.217,0.449,0.334,0.66,0.352c0.212,0.018,0.438-0.094,0.676-0.332    c0.131-0.131,0.214-0.27,0.25-0.418c0.037-0.147,0.039-0.298,0.008-0.451c-0.033-0.152-0.094-0.303-0.184-0.451    c-0.092-0.146-0.198-0.283-0.322-0.408l-1.294-1.293l0.3-0.301l2.463,2.463L133.369,133.933z"/>
		<path d="M132.048,130.33l0.424,0.424l0.01-0.009c-0.092-0.206-0.11-0.429-0.055-0.666c0.056-0.236,0.17-0.442,0.346-0.618    c0.172-0.172,0.338-0.293,0.499-0.364c0.161-0.072,0.316-0.103,0.468-0.091c0.151,0.011,0.3,0.061,0.446,0.15    c0.146,0.089,0.293,0.207,0.438,0.354l1.585,1.584l-0.301,0.301l-1.536-1.537c-0.105-0.104-0.213-0.193-0.322-0.266    c-0.109-0.07-0.223-0.115-0.336-0.135c-0.115-0.02-0.232-0.008-0.352,0.035s-0.24,0.125-0.36,0.246    c-0.121,0.121-0.207,0.25-0.258,0.387s-0.071,0.275-0.062,0.414c0.01,0.141,0.047,0.281,0.113,0.422    c0.067,0.14,0.16,0.271,0.277,0.395l1.438,1.438l-0.301,0.301l-2.463-2.463L132.048,130.33z"/>
		<path d="M136.186,129.49c0.146,0.086,0.299,0.142,0.458,0.167c0.158,0.026,0.32,0.017,0.482-0.024s0.314-0.133,0.458-0.276    c0.22-0.22,0.334-0.448,0.343-0.687c0.01-0.239-0.057-0.478-0.199-0.717l0.301-0.301c0.216,0.344,0.314,0.678,0.297,1    s-0.182,0.641-0.493,0.952c-0.194,0.194-0.396,0.327-0.606,0.401c-0.21,0.073-0.42,0.094-0.628,0.064    c-0.208-0.03-0.413-0.104-0.612-0.217c-0.201-0.115-0.389-0.26-0.564-0.436c-0.162-0.162-0.299-0.342-0.412-0.541    s-0.187-0.404-0.221-0.615c-0.032-0.212-0.016-0.426,0.051-0.643c0.067-0.217,0.197-0.422,0.392-0.616    c0.196-0.196,0.405-0.325,0.626-0.386c0.219-0.061,0.437-0.07,0.654-0.029c0.215,0.041,0.426,0.127,0.631,0.256    c0.206,0.129,0.391,0.283,0.557,0.46l-1.895,1.896C135.911,129.306,136.039,129.404,136.186,129.49z M136.755,127.082    c-0.141-0.068-0.285-0.109-0.434-0.124s-0.295,0.001-0.439,0.048s-0.277,0.13-0.398,0.25c-0.123,0.125-0.209,0.26-0.256,0.404    c-0.045,0.145-0.061,0.291-0.047,0.439c0.014,0.146,0.055,0.295,0.121,0.441c0.067,0.146,0.15,0.281,0.249,0.405l1.595-1.595    C137.026,127.24,136.897,127.15,136.755,127.082z"/>
		<path d="M140.467,126.835c-0.162-0.168-0.28-0.344-0.354-0.524s-0.116-0.367-0.128-0.56c-0.014-0.189-0.006-0.383,0.021-0.579    c0.027-0.195,0.062-0.392,0.101-0.587s0.076-0.393,0.112-0.59c0.034-0.197,0.052-0.389,0.052-0.572    c0-0.186-0.025-0.349-0.076-0.492c-0.051-0.143-0.143-0.281-0.276-0.415c-0.108-0.108-0.224-0.185-0.349-0.229    c-0.124-0.044-0.25-0.062-0.377-0.053c-0.127,0.01-0.252,0.045-0.373,0.105s-0.231,0.142-0.334,0.244    c-0.137,0.137-0.228,0.279-0.273,0.426c-0.047,0.149-0.057,0.297-0.031,0.443c0.025,0.146,0.08,0.288,0.164,0.426    c0.084,0.139,0.19,0.269,0.318,0.39l-0.301,0.301c-0.176-0.169-0.313-0.347-0.416-0.534c-0.102-0.188-0.16-0.379-0.177-0.573    c-0.016-0.194,0.015-0.388,0.091-0.583c0.076-0.193,0.205-0.381,0.387-0.562c0.146-0.146,0.303-0.263,0.468-0.349    c0.165-0.085,0.334-0.137,0.507-0.153c0.171-0.016,0.342,0.01,0.512,0.074c0.171,0.065,0.334,0.176,0.49,0.332    c0.139,0.141,0.244,0.291,0.312,0.451s0.111,0.328,0.129,0.502c0.018,0.172,0.017,0.35-0.003,0.531    c-0.019,0.182-0.05,0.363-0.091,0.545c-0.025,0.133-0.059,0.287-0.103,0.46c-0.042,0.173-0.075,0.351-0.095,0.53    c-0.021,0.18-0.022,0.354-0.005,0.524c0.017,0.171,0.071,0.321,0.164,0.451l1.856-1.856l0.277,0.276L140.467,126.835z"/>
		<path d="M141.659,119.222c0.259-0.044,0.512-0.025,0.762,0.056s0.492,0.208,0.726,0.382s0.448,0.357,0.642,0.551    c0.197,0.197,0.383,0.414,0.557,0.647s0.301,0.476,0.381,0.726c0.082,0.25,0.1,0.502,0.053,0.758    c-0.046,0.257-0.191,0.508-0.436,0.752c-0.242,0.242-0.492,0.387-0.75,0.435s-0.512,0.032-0.762-0.05    c-0.249-0.081-0.49-0.209-0.725-0.381c-0.234-0.174-0.448-0.358-0.643-0.553c-0.197-0.197-0.383-0.412-0.557-0.646    c-0.172-0.234-0.3-0.476-0.381-0.726c-0.082-0.249-0.099-0.504-0.053-0.764c0.046-0.259,0.19-0.51,0.432-0.751    C141.151,119.412,141.401,119.267,141.659,119.222z M140.849,120.516c-0.016,0.214,0.02,0.423,0.107,0.628    s0.207,0.404,0.359,0.594c0.153,0.191,0.302,0.358,0.445,0.502c0.146,0.146,0.313,0.295,0.502,0.445    c0.19,0.152,0.389,0.271,0.596,0.361c0.206,0.089,0.416,0.125,0.63,0.109c0.213-0.016,0.415-0.119,0.606-0.311    c0.19-0.19,0.293-0.393,0.31-0.605s-0.021-0.424-0.11-0.631c-0.088-0.207-0.209-0.404-0.36-0.594    c-0.15-0.189-0.3-0.357-0.446-0.504c-0.143-0.143-0.31-0.291-0.501-0.443c-0.19-0.152-0.388-0.273-0.594-0.36    s-0.415-0.124-0.628-0.107s-0.415,0.119-0.605,0.31C140.968,120.101,140.864,120.303,140.849,120.516z"/>
		<path d="M143.702,118.164c0.096-0.117,0.162-0.236,0.199-0.355c0.035-0.119,0.038-0.248,0.006-0.385    c-0.031-0.137-0.111-0.293-0.242-0.467l0.242-0.244l3.342,3.342l-0.301,0.3l-2.482-2.481l-0.883,0.883l-0.216-0.215    C143.496,118.407,143.607,118.282,143.702,118.164z"/>
		<path d="M148.058,117.841c0.145,0.072,0.291,0.109,0.439,0.115c0.148,0.004,0.297-0.025,0.445-0.089    c0.15-0.063,0.291-0.162,0.426-0.296c0.111-0.111,0.201-0.233,0.271-0.367s0.113-0.272,0.129-0.416    c0.016-0.143,0.002-0.284-0.043-0.424c-0.045-0.141-0.125-0.27-0.242-0.387c-0.121-0.121-0.246-0.205-0.375-0.252    c-0.129-0.045-0.26-0.062-0.393-0.047c-0.131,0.014-0.26,0.055-0.387,0.124c-0.125,0.068-0.244,0.158-0.355,0.271l-0.252,0.252    l-0.254-0.253l0.254-0.253c0.076-0.076,0.143-0.167,0.201-0.271c0.057-0.105,0.094-0.215,0.109-0.33    c0.016-0.113,0.006-0.23-0.029-0.348c-0.035-0.118-0.105-0.229-0.209-0.334c-0.113-0.112-0.227-0.188-0.342-0.227    c-0.117-0.041-0.234-0.054-0.354-0.039c-0.119,0.014-0.234,0.054-0.346,0.117c-0.113,0.063-0.219,0.146-0.32,0.248    c-0.125,0.124-0.213,0.255-0.268,0.392c-0.054,0.137-0.076,0.275-0.066,0.415c0.01,0.141,0.051,0.277,0.121,0.412    c0.073,0.137,0.172,0.264,0.299,0.385l-0.301,0.301c-0.158-0.158-0.28-0.33-0.365-0.514c-0.084-0.182-0.129-0.367-0.135-0.555    c-0.007-0.188,0.027-0.375,0.102-0.562s0.193-0.36,0.355-0.522c0.131-0.131,0.276-0.24,0.432-0.332    c0.158-0.091,0.32-0.15,0.484-0.179c0.166-0.028,0.332-0.019,0.496,0.028c0.166,0.049,0.324,0.146,0.473,0.297    c0.182,0.181,0.291,0.387,0.328,0.617c0.035,0.231-0.014,0.459-0.15,0.686l0.01,0.01c0.254-0.186,0.516-0.264,0.781-0.234    c0.268,0.028,0.512,0.152,0.73,0.372c0.166,0.165,0.281,0.343,0.344,0.53c0.064,0.188,0.086,0.377,0.066,0.567    c-0.018,0.19-0.076,0.378-0.174,0.562c-0.098,0.183-0.223,0.351-0.375,0.503c-0.172,0.172-0.355,0.305-0.551,0.397    c-0.195,0.096-0.393,0.146-0.592,0.154s-0.395-0.032-0.588-0.12c-0.191-0.087-0.373-0.228-0.541-0.423l0.301-0.3    C147.777,117.664,147.914,117.77,148.058,117.841z"/>
	</g>
	<g>
		<path d="M165.585,132.953c0.531-0.506,1.066-0.752,1.608-0.735c0.54,0.017,1.095,0.308,1.661,0.874    c0.565,0.565,0.857,1.119,0.873,1.66s-0.229,1.077-0.735,1.608l-1.179,1.179l-3.408-3.407L165.585,132.953z M168.554,136.246    c0.244-0.245,0.429-0.482,0.553-0.711c0.124-0.229,0.187-0.459,0.187-0.688s-0.063-0.461-0.19-0.697    c-0.128-0.235-0.318-0.48-0.573-0.734s-0.499-0.445-0.735-0.573c-0.235-0.127-0.468-0.19-0.697-0.19    c-0.229,0-0.457,0.062-0.687,0.186c-0.229,0.124-0.466,0.309-0.711,0.554l-0.692,0.692l2.854,2.854L168.554,136.246z"/>
		<path d="M170.434,133.292c0.146,0.086,0.299,0.142,0.458,0.167s0.32,0.018,0.482-0.024c0.162-0.041,0.314-0.134,0.458-0.276    c0.22-0.22,0.335-0.449,0.344-0.688s-0.058-0.477-0.2-0.715l0.301-0.301c0.216,0.343,0.314,0.676,0.298,0.999    c-0.019,0.323-0.183,0.64-0.494,0.952c-0.194,0.193-0.396,0.328-0.606,0.4c-0.21,0.074-0.42,0.096-0.627,0.064    c-0.209-0.029-0.414-0.102-0.613-0.217c-0.201-0.114-0.389-0.259-0.564-0.434c-0.162-0.162-0.299-0.344-0.412-0.543    c-0.113-0.197-0.187-0.403-0.22-0.615c-0.033-0.211-0.017-0.425,0.05-0.643c0.067-0.216,0.197-0.422,0.392-0.615    c0.197-0.197,0.406-0.326,0.626-0.387c0.219-0.061,0.438-0.07,0.654-0.027c0.215,0.041,0.426,0.125,0.631,0.254    c0.206,0.13,0.392,0.283,0.557,0.461L170.052,133C170.16,133.109,170.288,133.206,170.434,133.292z M171.004,130.883    c-0.142-0.068-0.286-0.11-0.435-0.124c-0.147-0.015-0.294,0.001-0.439,0.047c-0.144,0.047-0.277,0.131-0.398,0.252    c-0.123,0.123-0.209,0.258-0.256,0.402c-0.045,0.145-0.061,0.291-0.047,0.439s0.055,0.295,0.122,0.441    c0.066,0.146,0.149,0.281,0.248,0.406l1.595-1.594C171.276,131.042,171.146,130.952,171.004,130.883z"/>
		<path d="M172.887,128.217c-0.216,0.007-0.425,0.11-0.625,0.311c-0.144,0.144-0.239,0.3-0.286,0.468    c-0.048,0.168-0.059,0.338-0.031,0.508c0.027,0.171,0.085,0.337,0.174,0.5c0.09,0.162,0.199,0.308,0.33,0.438    c0.13,0.131,0.276,0.241,0.438,0.33s0.329,0.146,0.499,0.174s0.34,0.017,0.508-0.031c0.169-0.047,0.325-0.143,0.469-0.285    c0.092-0.093,0.162-0.197,0.209-0.314c0.048-0.119,0.072-0.24,0.074-0.366s-0.02-0.252-0.064-0.38    c-0.045-0.127-0.112-0.246-0.205-0.357l0.301-0.301c0.258,0.34,0.381,0.684,0.37,1.028c-0.012,0.346-0.157,0.657-0.437,0.938    c-0.188,0.188-0.389,0.319-0.602,0.396c-0.213,0.076-0.428,0.105-0.645,0.085c-0.217-0.019-0.429-0.082-0.637-0.188    c-0.209-0.106-0.402-0.248-0.58-0.428c-0.179-0.178-0.321-0.371-0.428-0.579c-0.105-0.208-0.17-0.421-0.188-0.638    c-0.02-0.216,0.009-0.432,0.083-0.646c0.076-0.215,0.206-0.416,0.395-0.604c0.264-0.265,0.558-0.418,0.881-0.461    c0.322-0.043,0.643,0.061,0.961,0.309l-0.301,0.301C173.325,128.28,173.103,128.21,172.887,128.217z"/>
		<path d="M175.651,128.69l0.401-0.401l0.506,0.506l-0.401,0.401L175.651,128.69z"/>
		<path d="M178.519,126.833c-0.161-0.169-0.279-0.344-0.353-0.525s-0.116-0.367-0.129-0.559c-0.013-0.19-0.005-0.385,0.021-0.58    c0.028-0.195,0.062-0.391,0.102-0.587c0.039-0.196,0.076-0.392,0.111-0.589s0.053-0.389,0.053-0.572    c0-0.186-0.025-0.35-0.076-0.492c-0.051-0.144-0.143-0.281-0.277-0.416c-0.107-0.107-0.224-0.184-0.348-0.229    c-0.125-0.045-0.25-0.062-0.378-0.053c-0.127,0.01-0.251,0.045-0.372,0.105s-0.232,0.141-0.334,0.242    c-0.137,0.138-0.228,0.28-0.274,0.428c-0.046,0.148-0.057,0.296-0.03,0.441c0.025,0.146,0.08,0.289,0.164,0.428    s0.189,0.268,0.318,0.389l-0.301,0.301c-0.176-0.168-0.314-0.346-0.416-0.534s-0.161-0.379-0.177-0.573    c-0.017-0.193,0.015-0.388,0.091-0.582c0.076-0.193,0.205-0.382,0.387-0.563c0.146-0.146,0.303-0.263,0.467-0.349    c0.166-0.086,0.335-0.137,0.507-0.152c0.171-0.016,0.343,0.009,0.513,0.074c0.17,0.064,0.334,0.176,0.49,0.332    c0.139,0.139,0.243,0.29,0.312,0.451c0.068,0.16,0.11,0.327,0.129,0.5c0.017,0.174,0.016,0.352-0.004,0.533    c-0.018,0.182-0.049,0.361-0.09,0.544c-0.025,0.134-0.06,0.287-0.104,0.46c-0.042,0.174-0.074,0.35-0.094,0.529    c-0.021,0.181-0.023,0.355-0.006,0.525s0.072,0.32,0.165,0.451l1.856-1.857l0.277,0.277L178.519,126.833z"/>
		<path d="M179.712,119.22c0.258-0.045,0.512-0.026,0.762,0.055c0.25,0.082,0.491,0.209,0.726,0.382    c0.233,0.174,0.448,0.358,0.642,0.552c0.197,0.197,0.383,0.413,0.557,0.646c0.173,0.234,0.301,0.477,0.381,0.725    c0.082,0.251,0.1,0.504,0.053,0.76s-0.191,0.507-0.437,0.752c-0.241,0.242-0.491,0.387-0.749,0.434    c-0.258,0.048-0.512,0.032-0.762-0.05c-0.25-0.081-0.491-0.208-0.725-0.382c-0.234-0.173-0.449-0.357-0.643-0.551    c-0.197-0.197-0.383-0.413-0.557-0.646c-0.173-0.234-0.301-0.477-0.381-0.727c-0.082-0.249-0.099-0.504-0.053-0.764    c0.046-0.259,0.189-0.51,0.432-0.751C179.204,119.41,179.455,119.265,179.712,119.22z M178.902,120.513    c-0.017,0.214,0.02,0.423,0.107,0.629c0.088,0.205,0.207,0.402,0.359,0.594c0.153,0.19,0.301,0.357,0.444,0.501    c0.146,0.146,0.314,0.295,0.503,0.446c0.19,0.151,0.389,0.271,0.595,0.36c0.207,0.089,0.417,0.126,0.63,0.11    c0.214-0.017,0.416-0.119,0.606-0.311s0.294-0.393,0.311-0.606c0.016-0.213-0.021-0.423-0.11-0.63    c-0.089-0.207-0.209-0.404-0.36-0.595c-0.151-0.188-0.3-0.356-0.446-0.503c-0.143-0.143-0.311-0.291-0.501-0.444    c-0.19-0.152-0.389-0.272-0.594-0.36c-0.206-0.088-0.415-0.123-0.628-0.107s-0.416,0.119-0.606,0.311    S178.917,120.3,178.902,120.513z"/>
		<path d="M181.755,118.161c0.096-0.117,0.162-0.236,0.198-0.355s0.038-0.247,0.007-0.384s-0.112-0.293-0.243-0.468l0.243-0.243    l3.342,3.34l-0.301,0.301l-2.482-2.48l-0.883,0.883l-0.215-0.216C181.548,118.404,181.661,118.279,181.755,118.161z"/>
		<path d="M186.111,117.838c0.145,0.072,0.291,0.11,0.439,0.115s0.297-0.024,0.446-0.089c0.149-0.063,0.291-0.162,0.425-0.295    c0.111-0.112,0.202-0.234,0.271-0.369c0.07-0.133,0.113-0.271,0.129-0.414c0.016-0.145,0.002-0.285-0.043-0.425    c-0.044-0.141-0.125-0.269-0.243-0.387c-0.121-0.121-0.245-0.204-0.375-0.251c-0.129-0.046-0.259-0.062-0.392-0.047    c-0.132,0.014-0.261,0.055-0.386,0.123c-0.126,0.068-0.245,0.158-0.356,0.27l-0.252,0.254l-0.254-0.254l0.254-0.252    c0.076-0.077,0.143-0.168,0.2-0.272s0.094-0.215,0.11-0.329c0.016-0.115,0.006-0.23-0.029-0.349s-0.105-0.229-0.21-0.334    c-0.112-0.112-0.226-0.187-0.341-0.228c-0.117-0.039-0.234-0.053-0.354-0.037c-0.119,0.014-0.234,0.053-0.346,0.117    c-0.112,0.062-0.219,0.146-0.32,0.248c-0.124,0.123-0.213,0.254-0.268,0.391c-0.054,0.137-0.076,0.275-0.066,0.416    c0.01,0.139,0.051,0.277,0.121,0.412c0.072,0.135,0.172,0.264,0.299,0.385l-0.301,0.301c-0.159-0.159-0.281-0.33-0.365-0.514    s-0.13-0.368-0.136-0.556c-0.007-0.188,0.028-0.374,0.103-0.562c0.074-0.186,0.193-0.359,0.355-0.521    c0.131-0.131,0.275-0.242,0.432-0.333c0.158-0.091,0.319-0.149,0.484-0.179c0.166-0.028,0.332-0.02,0.496,0.029    c0.166,0.047,0.324,0.146,0.473,0.295c0.182,0.182,0.291,0.388,0.328,0.619c0.036,0.23-0.014,0.459-0.15,0.684l0.01,0.01    c0.254-0.184,0.515-0.262,0.781-0.232c0.268,0.027,0.512,0.152,0.73,0.371c0.166,0.166,0.281,0.342,0.344,0.53    c0.064,0.188,0.086,0.376,0.066,0.567c-0.019,0.191-0.076,0.379-0.174,0.561c-0.097,0.184-0.222,0.352-0.375,0.504    c-0.172,0.172-0.355,0.305-0.551,0.398c-0.195,0.095-0.393,0.146-0.592,0.153c-0.198,0.008-0.395-0.032-0.588-0.12    c-0.191-0.087-0.372-0.228-0.541-0.422l0.301-0.301C185.83,117.662,185.966,117.767,186.111,117.838z"/>
	</g>
	<g>
		<path d="M241.796,132.953c0.531-0.506,1.068-0.751,1.609-0.734c0.541,0.016,1.094,0.307,1.66,0.873    c0.566,0.565,0.857,1.119,0.873,1.66s-0.229,1.077-0.734,1.608l-1.18,1.179l-3.406-3.407L241.796,132.953z M244.765,136.246    c0.246-0.245,0.43-0.482,0.555-0.711c0.123-0.229,0.186-0.459,0.186-0.688s-0.064-0.461-0.191-0.697    c-0.127-0.235-0.318-0.48-0.572-0.734s-0.5-0.445-0.734-0.573c-0.236-0.127-0.469-0.19-0.697-0.19s-0.459,0.062-0.688,0.186    c-0.229,0.124-0.467,0.309-0.711,0.555l-0.693,0.691l2.855,2.854L244.765,136.246z"/>
		<path d="M246.646,133.292c0.146,0.086,0.299,0.142,0.459,0.167c0.158,0.025,0.318,0.018,0.48-0.023s0.316-0.134,0.459-0.277    c0.219-0.219,0.334-0.449,0.344-0.688s-0.057-0.477-0.201-0.715l0.301-0.301c0.217,0.343,0.316,0.676,0.299,1    c-0.018,0.322-0.182,0.64-0.494,0.951c-0.193,0.194-0.396,0.328-0.605,0.4c-0.211,0.074-0.42,0.096-0.629,0.064    c-0.207-0.029-0.412-0.102-0.613-0.217c-0.199-0.114-0.387-0.259-0.562-0.434c-0.162-0.162-0.301-0.344-0.412-0.542    c-0.113-0.198-0.188-0.404-0.221-0.616c-0.033-0.211-0.016-0.425,0.051-0.643c0.066-0.216,0.197-0.421,0.391-0.615    c0.197-0.197,0.406-0.326,0.625-0.387c0.221-0.061,0.438-0.069,0.654-0.027c0.217,0.041,0.428,0.125,0.633,0.254    c0.205,0.13,0.391,0.283,0.557,0.461L246.263,133C246.373,133.109,246.5,133.206,246.646,133.292z M247.216,130.884    c-0.143-0.068-0.287-0.111-0.434-0.125c-0.148-0.014-0.295,0.002-0.439,0.048s-0.277,0.13-0.398,0.251    c-0.125,0.123-0.209,0.258-0.256,0.402s-0.062,0.291-0.047,0.439c0.014,0.148,0.055,0.295,0.121,0.441s0.148,0.281,0.248,0.406    l1.594-1.594C247.488,131.042,247.357,130.953,247.216,130.884z"/>
		<path d="M249.099,128.217c-0.217,0.007-0.424,0.11-0.625,0.311c-0.143,0.144-0.238,0.3-0.285,0.468    c-0.049,0.168-0.059,0.338-0.033,0.508c0.029,0.171,0.086,0.337,0.176,0.5c0.088,0.162,0.199,0.308,0.328,0.438    c0.131,0.131,0.277,0.241,0.439,0.33s0.328,0.146,0.498,0.174c0.172,0.027,0.34,0.018,0.51-0.031    c0.168-0.047,0.324-0.143,0.467-0.285c0.094-0.093,0.162-0.197,0.211-0.314c0.047-0.119,0.072-0.24,0.074-0.366    s-0.02-0.252-0.066-0.38c-0.043-0.127-0.111-0.246-0.203-0.357l0.301-0.301c0.258,0.341,0.381,0.684,0.369,1.028    c-0.012,0.346-0.156,0.658-0.438,0.938c-0.188,0.188-0.387,0.319-0.602,0.396c-0.213,0.076-0.428,0.105-0.643,0.085    c-0.217-0.019-0.43-0.082-0.639-0.188c-0.207-0.106-0.4-0.248-0.58-0.428c-0.178-0.178-0.32-0.371-0.426-0.579    c-0.107-0.208-0.17-0.421-0.189-0.638c-0.02-0.216,0.01-0.432,0.084-0.646s0.205-0.416,0.393-0.604    c0.266-0.265,0.559-0.418,0.881-0.461c0.324-0.043,0.645,0.061,0.963,0.309l-0.301,0.301    C249.537,128.28,249.316,128.21,249.099,128.217z"/>
		<path d="M251.863,128.69l0.4-0.401l0.506,0.506l-0.4,0.401L251.863,128.69z"/>
		<path d="M254.732,126.833c-0.162-0.168-0.279-0.344-0.354-0.525c-0.072-0.181-0.115-0.367-0.129-0.559    c-0.014-0.189-0.006-0.384,0.021-0.58c0.027-0.195,0.061-0.391,0.1-0.586c0.041-0.196,0.078-0.393,0.113-0.59    s0.053-0.389,0.053-0.572c0-0.186-0.027-0.35-0.076-0.492c-0.053-0.143-0.145-0.281-0.277-0.416    c-0.107-0.107-0.225-0.184-0.35-0.229c-0.123-0.045-0.25-0.062-0.377-0.053s-0.25,0.045-0.371,0.105s-0.232,0.141-0.334,0.243    c-0.137,0.137-0.229,0.279-0.275,0.427c-0.047,0.148-0.057,0.296-0.031,0.442c0.025,0.146,0.08,0.288,0.166,0.427    c0.084,0.139,0.189,0.268,0.316,0.389l-0.301,0.301c-0.176-0.168-0.312-0.346-0.414-0.534c-0.104-0.188-0.162-0.379-0.178-0.573    c-0.016-0.193,0.016-0.388,0.092-0.582c0.076-0.193,0.205-0.382,0.385-0.562c0.146-0.146,0.303-0.264,0.469-0.35    c0.166-0.085,0.334-0.137,0.506-0.152s0.344,0.009,0.514,0.074c0.17,0.064,0.332,0.176,0.488,0.332    c0.141,0.139,0.244,0.29,0.312,0.451c0.068,0.16,0.111,0.327,0.129,0.501c0.018,0.173,0.018,0.351-0.002,0.532    s-0.049,0.361-0.09,0.544c-0.025,0.134-0.061,0.287-0.104,0.46c-0.043,0.174-0.074,0.351-0.096,0.53    c-0.02,0.18-0.021,0.354-0.004,0.524s0.072,0.321,0.164,0.451l1.857-1.856l0.275,0.276L254.732,126.833z"/>
		<path d="M255.925,119.22c0.258-0.045,0.512-0.026,0.76,0.055c0.25,0.082,0.492,0.209,0.727,0.383    c0.234,0.173,0.447,0.357,0.643,0.551c0.197,0.197,0.383,0.413,0.555,0.646c0.174,0.234,0.301,0.477,0.383,0.726    c0.082,0.25,0.098,0.503,0.053,0.759c-0.047,0.256-0.191,0.507-0.438,0.752c-0.242,0.242-0.492,0.387-0.75,0.434    c-0.258,0.049-0.51,0.032-0.76-0.05c-0.25-0.081-0.492-0.208-0.727-0.382c-0.232-0.173-0.447-0.357-0.641-0.551    c-0.197-0.197-0.383-0.413-0.557-0.646c-0.174-0.234-0.301-0.477-0.383-0.727c-0.08-0.249-0.098-0.504-0.053-0.764    c0.047-0.259,0.191-0.51,0.434-0.751C255.416,119.41,255.667,119.265,255.925,119.22z M255.113,120.513    c-0.016,0.214,0.02,0.424,0.107,0.629s0.209,0.403,0.361,0.594s0.301,0.357,0.443,0.501c0.146,0.146,0.314,0.295,0.504,0.446    c0.189,0.152,0.387,0.271,0.594,0.36s0.418,0.126,0.631,0.11s0.414-0.119,0.605-0.311s0.295-0.393,0.311-0.605    c0.016-0.214-0.021-0.424-0.109-0.631c-0.09-0.207-0.209-0.404-0.361-0.594c-0.15-0.189-0.299-0.357-0.445-0.504    c-0.145-0.143-0.311-0.291-0.502-0.443c-0.189-0.153-0.389-0.273-0.594-0.361s-0.414-0.123-0.629-0.107    c-0.213,0.016-0.414,0.119-0.605,0.311S255.128,120.3,255.113,120.513z"/>
		<path d="M257.968,118.161c0.096-0.117,0.16-0.235,0.197-0.355c0.037-0.119,0.039-0.247,0.008-0.384    c-0.033-0.137-0.113-0.293-0.244-0.468l0.244-0.243l3.34,3.34l-0.301,0.301l-2.48-2.48l-0.883,0.883l-0.215-0.216    C257.761,118.404,257.873,118.279,257.968,118.161z"/>
		<path d="M260.871,114.013l0.271-0.271l2.258,2.257l0.5-0.501l0.254,0.254l-0.502,0.5l0.83,0.83l-0.275,0.277l-0.83-0.83    l-1.543,1.541l-0.291-0.291L260.871,114.013z M261.304,114.457l-0.01,0.01l0.559,3.078l1.27-1.27L261.304,114.457z"/>
	</g>
	<g>
		<path d="M204.197,132.872l2.458,2.458c0.175,0.176,0.309,0.344,0.401,0.506c0.092,0.162,0.141,0.324,0.145,0.484    c0.006,0.16-0.035,0.324-0.119,0.492c-0.084,0.166-0.219,0.342-0.402,0.527c-0.195,0.193-0.387,0.32-0.576,0.379    s-0.371,0.07-0.549,0.033c-0.176-0.036-0.348-0.111-0.513-0.227c-0.165-0.113-0.323-0.246-0.473-0.396l0.325-0.325    c0.075,0.07,0.168,0.153,0.277,0.248c0.107,0.096,0.227,0.171,0.357,0.225c0.131,0.055,0.271,0.07,0.424,0.048    c0.153-0.022,0.314-0.118,0.482-0.286c0.127-0.127,0.216-0.249,0.266-0.365c0.049-0.116,0.062-0.233,0.037-0.354    c-0.023-0.119-0.082-0.244-0.174-0.375c-0.092-0.13-0.217-0.273-0.373-0.43l-2.318-2.318L204.197,132.872z"/>
		<path d="M209.953,133.931l-0.443-0.443l-0.01,0.01c0.086,0.244,0.098,0.486,0.033,0.725c-0.063,0.239-0.188,0.45-0.372,0.635    c-0.156,0.156-0.311,0.268-0.464,0.334c-0.152,0.066-0.303,0.096-0.45,0.084s-0.296-0.059-0.442-0.141    c-0.146-0.083-0.291-0.197-0.438-0.344l-1.6-1.6l0.301-0.301l1.604,1.604c0.229,0.217,0.449,0.334,0.661,0.352    s0.437-0.093,0.675-0.332c0.131-0.13,0.215-0.27,0.252-0.418c0.035-0.146,0.038-0.298,0.006-0.45    c-0.031-0.153-0.093-0.304-0.184-0.452c-0.09-0.146-0.197-0.283-0.322-0.407l-1.293-1.294l0.301-0.301l2.463,2.463    L209.953,133.931z"/>
		<path d="M208.63,130.328l0.425,0.425l0.01-0.01c-0.093-0.206-0.11-0.429-0.056-0.665c0.057-0.237,0.172-0.443,0.347-0.619    c0.172-0.172,0.339-0.293,0.499-0.364s0.316-0.103,0.468-0.091c0.151,0.011,0.3,0.061,0.446,0.15s0.293,0.207,0.439,0.354    l1.584,1.584l-0.301,0.301l-1.537-1.537c-0.104-0.104-0.213-0.193-0.322-0.266c-0.109-0.07-0.221-0.115-0.336-0.135    s-0.23-0.008-0.351,0.035s-0.239,0.125-0.36,0.246s-0.207,0.25-0.258,0.387s-0.072,0.275-0.062,0.415s0.048,0.28,0.115,0.421    c0.066,0.14,0.159,0.271,0.276,0.396l1.437,1.437l-0.301,0.301l-2.463-2.463L208.63,130.328z"/>
		<path d="M212.769,129.488c0.146,0.086,0.299,0.142,0.458,0.167c0.159,0.026,0.319,0.018,0.481-0.024    c0.162-0.041,0.315-0.133,0.459-0.275c0.219-0.221,0.334-0.449,0.344-0.688c0.009-0.239-0.058-0.478-0.201-0.717l0.301-0.301    c0.217,0.344,0.316,0.678,0.299,1s-0.183,0.641-0.494,0.953c-0.194,0.193-0.396,0.327-0.606,0.4s-0.419,0.094-0.628,0.064    c-0.208-0.03-0.412-0.104-0.613-0.217c-0.2-0.115-0.388-0.26-0.562-0.436c-0.162-0.162-0.301-0.342-0.413-0.541    s-0.187-0.404-0.22-0.615c-0.033-0.212-0.017-0.426,0.05-0.643c0.067-0.217,0.197-0.422,0.392-0.615    c0.197-0.197,0.406-0.326,0.625-0.387c0.22-0.061,0.438-0.07,0.654-0.029s0.427,0.127,0.633,0.256    c0.205,0.129,0.391,0.283,0.555,0.461l-1.895,1.895C212.496,129.304,212.623,129.402,212.769,129.488z M213.339,127.08    c-0.143-0.068-0.287-0.109-0.435-0.124s-0.294,0.001-0.439,0.048c-0.144,0.047-0.277,0.13-0.398,0.251    c-0.124,0.124-0.208,0.259-0.255,0.403s-0.062,0.291-0.049,0.439c0.016,0.146,0.055,0.295,0.123,0.441    c0.066,0.146,0.148,0.281,0.248,0.405l1.594-1.594C213.611,127.238,213.48,127.148,213.339,127.08z"/>
		<path d="M217.05,126.833c-0.162-0.168-0.279-0.344-0.354-0.524c-0.072-0.181-0.116-0.367-0.129-0.559    c-0.013-0.19-0.006-0.384,0.021-0.58c0.027-0.195,0.061-0.392,0.101-0.587s0.077-0.393,0.112-0.59s0.052-0.388,0.053-0.572    c0-0.186-0.026-0.349-0.076-0.492c-0.052-0.143-0.145-0.281-0.277-0.414c-0.108-0.108-0.225-0.185-0.35-0.23    c-0.123-0.044-0.249-0.062-0.377-0.053c-0.127,0.01-0.25,0.045-0.371,0.105s-0.232,0.142-0.334,0.244    c-0.138,0.137-0.229,0.279-0.275,0.426c-0.046,0.149-0.057,0.297-0.031,0.443s0.081,0.288,0.165,0.427    c0.085,0.138,0.19,0.268,0.318,0.389l-0.301,0.301c-0.176-0.169-0.313-0.347-0.416-0.534c-0.102-0.188-0.161-0.379-0.177-0.573    s0.015-0.388,0.092-0.583c0.076-0.193,0.205-0.381,0.386-0.562c0.146-0.146,0.302-0.262,0.468-0.349    c0.166-0.085,0.334-0.137,0.506-0.152c0.172-0.017,0.344,0.009,0.514,0.073c0.17,0.065,0.332,0.176,0.488,0.332    c0.141,0.141,0.244,0.291,0.313,0.451c0.067,0.16,0.11,0.328,0.128,0.502c0.018,0.172,0.018,0.35-0.002,0.531    c-0.019,0.182-0.049,0.363-0.09,0.545c-0.025,0.133-0.061,0.287-0.104,0.46s-0.074,0.351-0.096,0.53    c-0.02,0.18-0.021,0.354-0.004,0.524c0.018,0.171,0.072,0.321,0.164,0.451l1.857-1.856l0.276,0.276L217.05,126.833z"/>
		<path d="M218.244,119.22c0.258-0.043,0.511-0.025,0.761,0.056s0.491,0.208,0.726,0.382s0.448,0.357,0.643,0.551    c0.197,0.197,0.383,0.414,0.556,0.647s0.301,0.476,0.382,0.726s0.098,0.502,0.053,0.758c-0.047,0.257-0.191,0.508-0.438,0.752    c-0.241,0.242-0.492,0.387-0.749,0.435c-0.258,0.048-0.511,0.032-0.762-0.05c-0.249-0.081-0.491-0.208-0.726-0.381    c-0.232-0.174-0.447-0.358-0.641-0.553c-0.197-0.197-0.383-0.412-0.557-0.646c-0.174-0.233-0.301-0.476-0.383-0.725    c-0.08-0.25-0.098-0.505-0.052-0.765c0.046-0.259,0.19-0.51,0.433-0.751C217.734,119.41,217.986,119.265,218.244,119.22z     M217.431,120.515c-0.016,0.213,0.021,0.422,0.108,0.627c0.087,0.205,0.208,0.404,0.36,0.594c0.152,0.191,0.301,0.358,0.443,0.502    c0.146,0.146,0.314,0.295,0.504,0.445c0.189,0.152,0.387,0.271,0.594,0.361c0.207,0.089,0.418,0.125,0.631,0.109    s0.415-0.119,0.605-0.311c0.191-0.19,0.295-0.393,0.311-0.605s-0.021-0.424-0.109-0.631c-0.09-0.206-0.209-0.404-0.361-0.594    c-0.15-0.189-0.299-0.357-0.445-0.504c-0.144-0.143-0.311-0.291-0.502-0.443c-0.19-0.152-0.389-0.272-0.594-0.36    c-0.205-0.087-0.414-0.124-0.628-0.107s-0.415,0.119-0.606,0.31C217.551,120.099,217.448,120.301,217.431,120.515z"/>
		<path d="M220.287,118.162c0.095-0.117,0.161-0.236,0.197-0.355c0.037-0.119,0.039-0.248,0.008-0.385    c-0.033-0.137-0.113-0.293-0.244-0.467l0.244-0.244l3.34,3.342l-0.301,0.301l-2.48-2.482l-0.883,0.883l-0.216-0.215    C220.08,118.405,220.191,118.28,220.287,118.162z"/>
		<path d="M223.189,114.013l0.271-0.271l2.258,2.258l0.5-0.502l0.254,0.254l-0.501,0.501l0.83,0.83l-0.276,0.276l-0.83-0.83    l-1.543,1.543l-0.291-0.292L223.189,114.013z M223.623,114.458l-0.01,0.01l0.559,3.078l1.27-1.27L223.623,114.458z"/>
	</g>
</g>
<g id="Layer_2">
</g>
</svg>