<svg xmlns="http://www.w3.org/2000/svg" xmlns:xlink="http://www.w3.org/1999/xlink" version="1.1" id="Layer_1" x="0px" y="0px" width="202.821px" height="156px" viewBox="0 0 202.821 156" enable-background="new 0 0 202.821 156" xml:space="preserve">
<rect fill="#CBDDD6" width="62.508" height="156"/>
<rect x="140.313" y="0" fill="#CBDDD6" width="62.508" height="156"/>
<g>
	<path d="M16.297,67.835c-0.039-0.15-0.092-0.288-0.159-0.413c-0.068-0.126-0.155-0.234-0.261-0.326s-0.231-0.164-0.374-0.214   c-0.143-0.051-0.308-0.076-0.497-0.076c-0.275,0-0.514,0.056-0.714,0.167c-0.201,0.111-0.364,0.26-0.49,0.446   c-0.125,0.186-0.219,0.398-0.279,0.634c-0.061,0.237-0.091,0.479-0.091,0.725s0.03,0.489,0.091,0.725   c0.06,0.237,0.153,0.448,0.279,0.635c0.126,0.186,0.289,0.334,0.49,0.445c0.2,0.111,0.438,0.167,0.714,0.167   c0.203,0,0.382-0.035,0.537-0.105c0.155-0.069,0.288-0.166,0.399-0.29c0.111-0.123,0.198-0.267,0.261-0.431   c0.063-0.165,0.104-0.341,0.124-0.529h0.884c-0.02,0.309-0.086,0.592-0.199,0.848c-0.114,0.257-0.267,0.478-0.46,0.664   c-0.193,0.186-0.42,0.329-0.682,0.431c-0.261,0.102-0.548,0.152-0.863,0.152c-0.387,0-0.733-0.071-1.04-0.214   c-0.307-0.143-0.567-0.337-0.78-0.583c-0.212-0.247-0.375-0.534-0.489-0.863c-0.114-0.328-0.17-0.679-0.17-1.051   c0-0.367,0.057-0.715,0.17-1.044s0.277-0.616,0.489-0.863c0.213-0.247,0.473-0.442,0.78-0.587c0.307-0.145,0.653-0.218,1.04-0.218   c0.29,0,0.563,0.04,0.819,0.12s0.482,0.196,0.678,0.348s0.354,0.337,0.475,0.555c0.121,0.217,0.196,0.466,0.225,0.747H16.297z"/>
	<path d="M19.64,71.467c-0.3,0-0.567-0.05-0.801-0.148c-0.234-0.1-0.433-0.236-0.594-0.41c-0.162-0.174-0.286-0.382-0.37-0.623   c-0.084-0.242-0.126-0.508-0.126-0.798c0-0.285,0.042-0.548,0.126-0.79s0.208-0.45,0.37-0.624c0.162-0.174,0.36-0.311,0.594-0.41   s0.501-0.148,0.801-0.148c0.299,0,0.566,0.049,0.801,0.148c0.234,0.099,0.432,0.236,0.594,0.41s0.285,0.382,0.37,0.624   s0.127,0.505,0.127,0.79c0,0.29-0.042,0.556-0.127,0.798c-0.084,0.241-0.208,0.449-0.37,0.623s-0.36,0.311-0.594,0.41   C20.206,71.417,19.939,71.467,19.64,71.467z M19.64,70.815c0.184,0,0.343-0.039,0.479-0.116s0.247-0.179,0.333-0.305   c0.087-0.125,0.151-0.267,0.192-0.424s0.062-0.317,0.062-0.482c0-0.159-0.021-0.319-0.062-0.479   c-0.041-0.159-0.105-0.301-0.192-0.424c-0.087-0.124-0.198-0.224-0.333-0.301c-0.135-0.078-0.295-0.116-0.479-0.116   s-0.343,0.039-0.479,0.116c-0.135,0.077-0.247,0.177-0.333,0.301c-0.087,0.123-0.151,0.265-0.192,0.424   c-0.041,0.16-0.062,0.319-0.062,0.479c0,0.165,0.021,0.325,0.062,0.482s0.105,0.299,0.192,0.424   c0.087,0.126,0.198,0.228,0.333,0.305S19.456,70.815,19.64,70.815z"/>
	<path d="M22.221,67.618h0.783v0.522h0.022c0.063-0.092,0.13-0.177,0.203-0.254c0.072-0.077,0.153-0.143,0.243-0.196   s0.192-0.095,0.308-0.127c0.116-0.031,0.249-0.047,0.399-0.047c0.227,0,0.438,0.051,0.634,0.152   c0.196,0.101,0.334,0.258,0.417,0.471c0.14-0.193,0.302-0.346,0.486-0.457c0.184-0.111,0.413-0.167,0.688-0.167   c0.396,0,0.705,0.097,0.924,0.29c0.22,0.193,0.33,0.517,0.33,0.971v2.588h-0.827v-2.189c0-0.15-0.005-0.287-0.014-0.41   c-0.01-0.123-0.038-0.229-0.083-0.319s-0.115-0.158-0.207-0.207c-0.092-0.048-0.218-0.073-0.377-0.073   c-0.28,0-0.483,0.087-0.609,0.261c-0.125,0.174-0.188,0.42-0.188,0.739v2.197h-0.826v-2.407c0-0.261-0.047-0.458-0.142-0.591   c-0.094-0.133-0.267-0.199-0.519-0.199c-0.106,0-0.209,0.022-0.308,0.065s-0.186,0.106-0.261,0.188   c-0.075,0.082-0.135,0.184-0.181,0.304c-0.046,0.121-0.069,0.259-0.069,0.414v2.226h-0.827V67.618z"/>
	<path d="M28.55,67.618h0.783v0.507h0.015c0.116-0.217,0.278-0.374,0.486-0.468c0.208-0.094,0.432-0.141,0.674-0.141   c0.295,0,0.552,0.052,0.772,0.156c0.22,0.104,0.402,0.247,0.547,0.428s0.253,0.393,0.326,0.634   c0.072,0.242,0.109,0.501,0.109,0.775c0,0.252-0.033,0.496-0.098,0.732c-0.065,0.237-0.164,0.446-0.297,0.627   c-0.133,0.182-0.301,0.327-0.504,0.436c-0.203,0.108-0.442,0.163-0.718,0.163c-0.121,0-0.242-0.011-0.362-0.032   c-0.121-0.022-0.237-0.058-0.348-0.105c-0.111-0.049-0.214-0.11-0.308-0.185c-0.094-0.075-0.173-0.163-0.235-0.265h-0.015v1.87   H28.55V67.618z M31.436,69.496c0-0.169-0.022-0.334-0.065-0.493c-0.043-0.16-0.108-0.301-0.196-0.424   c-0.087-0.123-0.195-0.222-0.326-0.297c-0.13-0.075-0.28-0.112-0.449-0.112c-0.348,0-0.61,0.121-0.787,0.362   c-0.177,0.242-0.265,0.563-0.265,0.965c0,0.188,0.023,0.363,0.069,0.525s0.115,0.301,0.207,0.417s0.202,0.208,0.33,0.275   c0.128,0.067,0.276,0.102,0.446,0.102c0.188,0,0.348-0.039,0.479-0.116c0.13-0.077,0.238-0.178,0.322-0.301   s0.145-0.264,0.182-0.421C31.417,69.821,31.436,69.66,31.436,69.496z"/>
	<path d="M36.097,70.532c0,0.102,0.013,0.174,0.04,0.218c0.026,0.044,0.079,0.065,0.156,0.065c0.024,0,0.053,0,0.087,0   s0.073-0.005,0.116-0.015v0.572c-0.029,0.01-0.066,0.021-0.112,0.033c-0.046,0.012-0.093,0.022-0.142,0.032   s-0.097,0.018-0.145,0.022c-0.048,0.004-0.089,0.007-0.123,0.007c-0.169,0-0.31-0.034-0.421-0.102   c-0.111-0.067-0.184-0.186-0.217-0.355c-0.165,0.16-0.366,0.275-0.605,0.349c-0.239,0.072-0.47,0.108-0.692,0.108   c-0.169,0-0.331-0.023-0.486-0.069c-0.154-0.046-0.291-0.113-0.409-0.202c-0.119-0.09-0.213-0.203-0.283-0.341   c-0.07-0.138-0.105-0.299-0.105-0.482c0-0.232,0.042-0.421,0.127-0.565c0.084-0.146,0.196-0.259,0.333-0.341   s0.292-0.142,0.464-0.178c0.172-0.036,0.345-0.063,0.519-0.083c0.15-0.029,0.292-0.05,0.428-0.062s0.255-0.033,0.359-0.062   c0.104-0.029,0.186-0.074,0.247-0.134c0.06-0.06,0.09-0.151,0.09-0.272c0-0.106-0.025-0.193-0.076-0.261s-0.113-0.12-0.188-0.156   c-0.075-0.037-0.158-0.061-0.25-0.073c-0.092-0.012-0.179-0.018-0.261-0.018c-0.232,0-0.423,0.048-0.573,0.145   c-0.15,0.097-0.235,0.247-0.254,0.45h-0.827c0.015-0.242,0.073-0.442,0.174-0.602c0.101-0.159,0.23-0.288,0.388-0.384   s0.334-0.164,0.533-0.203c0.198-0.039,0.401-0.058,0.609-0.058c0.184,0,0.365,0.019,0.543,0.058   c0.179,0.039,0.339,0.102,0.482,0.189c0.142,0.087,0.257,0.199,0.344,0.337s0.13,0.306,0.13,0.504V70.532z M35.271,69.488   c-0.125,0.082-0.28,0.132-0.464,0.148c-0.184,0.018-0.367,0.043-0.551,0.076c-0.087,0.015-0.172,0.035-0.254,0.062   c-0.082,0.027-0.155,0.063-0.217,0.109c-0.063,0.046-0.113,0.106-0.149,0.181c-0.036,0.075-0.054,0.166-0.054,0.272   c0,0.092,0.026,0.169,0.08,0.231c0.053,0.063,0.117,0.112,0.192,0.149c0.075,0.036,0.157,0.062,0.246,0.076   c0.089,0.014,0.17,0.021,0.243,0.021c0.092,0,0.191-0.013,0.297-0.036c0.106-0.024,0.207-0.065,0.301-0.124   c0.094-0.058,0.173-0.131,0.235-0.221c0.063-0.09,0.094-0.199,0.094-0.33V69.488z"/>
	<path d="M36.989,67.618h0.783v0.551l0.015,0.015c0.125-0.208,0.29-0.371,0.493-0.49c0.203-0.118,0.428-0.177,0.674-0.177   c0.411,0,0.734,0.106,0.971,0.319c0.237,0.213,0.355,0.532,0.355,0.957v2.574h-0.827v-2.356c-0.01-0.294-0.072-0.508-0.188-0.642   c-0.116-0.133-0.297-0.199-0.543-0.199c-0.141,0-0.266,0.025-0.377,0.076c-0.111,0.051-0.205,0.121-0.283,0.21   c-0.077,0.089-0.138,0.194-0.181,0.315c-0.043,0.121-0.065,0.249-0.065,0.384v2.211h-0.827V67.618z"/>
	<path d="M41.172,66.189h0.827v0.783h-0.827V66.189z M41.172,67.618h0.827v3.748h-0.827V67.618z"/>
	<path d="M43.542,69.706c0,0.145,0.021,0.285,0.062,0.42c0.041,0.136,0.103,0.254,0.185,0.355s0.186,0.183,0.312,0.243   c0.125,0.061,0.275,0.091,0.449,0.091c0.242,0,0.436-0.052,0.583-0.156c0.147-0.104,0.258-0.26,0.33-0.468h0.783   c-0.043,0.203-0.119,0.385-0.225,0.544c-0.106,0.159-0.234,0.294-0.384,0.402c-0.15,0.109-0.318,0.191-0.504,0.247   c-0.186,0.055-0.38,0.083-0.583,0.083c-0.295,0-0.556-0.049-0.783-0.146c-0.228-0.096-0.419-0.231-0.577-0.405   s-0.275-0.382-0.355-0.624c-0.08-0.241-0.12-0.507-0.12-0.797c0-0.267,0.042-0.519,0.127-0.758c0.084-0.239,0.205-0.45,0.362-0.631   c0.157-0.181,0.347-0.325,0.569-0.432c0.223-0.106,0.474-0.159,0.754-0.159c0.294,0,0.559,0.062,0.794,0.185   c0.234,0.124,0.429,0.287,0.583,0.49c0.154,0.203,0.267,0.436,0.337,0.699c0.07,0.264,0.088,0.536,0.055,0.816H43.542z    M45.471,69.162c-0.01-0.13-0.038-0.256-0.083-0.377c-0.046-0.121-0.109-0.226-0.188-0.315c-0.08-0.089-0.176-0.162-0.29-0.217   c-0.113-0.056-0.24-0.083-0.38-0.083c-0.145,0-0.277,0.025-0.396,0.076c-0.118,0.051-0.22,0.121-0.304,0.21   c-0.084,0.089-0.152,0.194-0.203,0.315c-0.051,0.121-0.079,0.251-0.083,0.392H45.471z"/>
	<path d="M47.552,70.163c0.024,0.241,0.116,0.41,0.275,0.507s0.351,0.146,0.573,0.146c0.077,0,0.166-0.006,0.265-0.019   c0.099-0.012,0.192-0.035,0.279-0.068c0.087-0.034,0.158-0.084,0.214-0.149c0.055-0.064,0.081-0.15,0.076-0.257   c-0.005-0.106-0.044-0.193-0.116-0.261c-0.073-0.068-0.166-0.122-0.279-0.163c-0.113-0.041-0.243-0.076-0.388-0.105   s-0.292-0.061-0.442-0.095c-0.155-0.033-0.303-0.074-0.446-0.123c-0.143-0.048-0.271-0.113-0.384-0.195s-0.204-0.188-0.272-0.315   c-0.067-0.128-0.102-0.287-0.102-0.475c0-0.203,0.05-0.373,0.149-0.511c0.099-0.138,0.225-0.249,0.377-0.333   c0.152-0.084,0.321-0.144,0.507-0.177s0.364-0.051,0.533-0.051c0.193,0,0.378,0.021,0.555,0.062   c0.176,0.041,0.335,0.107,0.478,0.199s0.261,0.211,0.355,0.359s0.153,0.325,0.178,0.533h-0.863   c-0.039-0.198-0.129-0.331-0.272-0.399s-0.306-0.102-0.489-0.102c-0.058,0-0.127,0.005-0.207,0.015   c-0.08,0.01-0.155,0.028-0.225,0.054c-0.07,0.027-0.129,0.065-0.177,0.116c-0.048,0.051-0.073,0.117-0.073,0.199   c0,0.102,0.035,0.184,0.105,0.247c0.07,0.063,0.162,0.115,0.276,0.156c0.113,0.041,0.243,0.076,0.388,0.105   c0.145,0.029,0.295,0.061,0.45,0.094c0.149,0.034,0.297,0.075,0.442,0.124s0.274,0.113,0.388,0.195   c0.113,0.083,0.205,0.187,0.275,0.312c0.07,0.125,0.105,0.28,0.105,0.464c0,0.222-0.051,0.41-0.152,0.565   c-0.101,0.154-0.233,0.28-0.395,0.377s-0.342,0.167-0.54,0.21c-0.198,0.044-0.394,0.065-0.587,0.065   c-0.237,0-0.456-0.026-0.656-0.08c-0.201-0.053-0.375-0.134-0.522-0.242c-0.148-0.109-0.264-0.244-0.348-0.406   s-0.129-0.354-0.134-0.576H47.552z"/>
	<path d="M24.367,76.318h0.877l0.732,2.798h0.015l0.703-2.798h0.834l0.674,2.798h0.014l0.761-2.798h0.841l-1.175,3.748h-0.848   L27.1,77.282h-0.015l-0.689,2.784h-0.87L24.367,76.318z"/>
	<path d="M30.37,74.889h0.827v0.783H30.37V74.889z M30.37,76.318h0.827v3.748H30.37V76.318z"/>
	<path d="M31.718,76.318h0.624v-1.124h0.826v1.124h0.747v0.616h-0.747v2.001c0,0.087,0.004,0.162,0.011,0.225   s0.024,0.116,0.051,0.159c0.026,0.044,0.066,0.076,0.12,0.099c0.053,0.021,0.125,0.032,0.217,0.032   c0.058,0,0.116-0.001,0.174-0.004c0.058-0.002,0.116-0.011,0.174-0.025v0.639c-0.092,0.009-0.181,0.019-0.269,0.028   c-0.087,0.01-0.176,0.015-0.268,0.015c-0.217,0-0.393-0.021-0.526-0.062c-0.133-0.041-0.237-0.102-0.312-0.182   c-0.075-0.079-0.125-0.18-0.152-0.301c-0.026-0.12-0.042-0.258-0.047-0.413v-2.211h-0.624V76.318z"/>
	<path d="M34.509,74.889h0.827v1.922h0.014c0.102-0.17,0.252-0.311,0.453-0.425c0.201-0.113,0.424-0.17,0.671-0.17   c0.411,0,0.734,0.106,0.971,0.319c0.237,0.212,0.355,0.531,0.355,0.956v2.574h-0.827v-2.356c-0.01-0.295-0.072-0.509-0.188-0.642   c-0.116-0.133-0.297-0.199-0.543-0.199c-0.141,0-0.266,0.025-0.377,0.076c-0.111,0.051-0.205,0.121-0.283,0.21   c-0.077,0.09-0.138,0.195-0.181,0.315c-0.043,0.121-0.065,0.249-0.065,0.385v2.211h-0.827V74.889z"/>
	<path d="M18.142,85.018h0.783v0.507h0.015c0.116-0.217,0.278-0.373,0.486-0.467c0.208-0.095,0.432-0.142,0.674-0.142   c0.295,0,0.552,0.052,0.772,0.155c0.22,0.104,0.402,0.247,0.547,0.428c0.145,0.182,0.253,0.394,0.326,0.635   c0.072,0.242,0.109,0.5,0.109,0.775c0,0.252-0.033,0.496-0.098,0.732c-0.065,0.237-0.164,0.446-0.297,0.627   c-0.133,0.182-0.301,0.327-0.504,0.436c-0.203,0.108-0.442,0.163-0.718,0.163c-0.121,0-0.242-0.011-0.362-0.032   c-0.121-0.022-0.237-0.058-0.348-0.105c-0.111-0.049-0.214-0.11-0.308-0.185c-0.094-0.075-0.173-0.163-0.235-0.265h-0.015v1.87   h-0.827V85.018z M21.028,86.896c0-0.17-0.022-0.334-0.065-0.493c-0.043-0.16-0.108-0.301-0.196-0.425   c-0.087-0.123-0.195-0.222-0.326-0.297c-0.13-0.075-0.28-0.112-0.449-0.112c-0.348,0-0.61,0.121-0.787,0.362   c-0.177,0.242-0.265,0.563-0.265,0.965c0,0.188,0.023,0.363,0.069,0.525s0.115,0.301,0.207,0.417s0.202,0.208,0.33,0.275   c0.128,0.067,0.276,0.102,0.446,0.102c0.188,0,0.348-0.039,0.479-0.116c0.13-0.077,0.238-0.178,0.322-0.301   s0.145-0.264,0.182-0.421C21.01,87.221,21.028,87.06,21.028,86.896z"/>
	<path d="M22.55,85.018h0.776v0.725h0.014c0.024-0.102,0.071-0.2,0.142-0.297c0.07-0.097,0.155-0.186,0.254-0.265   c0.099-0.08,0.209-0.144,0.33-0.192c0.121-0.048,0.244-0.072,0.37-0.072c0.097,0,0.163,0.002,0.2,0.007   c0.036,0.005,0.073,0.01,0.112,0.015v0.798c-0.058-0.01-0.117-0.019-0.178-0.025c-0.061-0.008-0.12-0.011-0.178-0.011   c-0.14,0-0.272,0.027-0.395,0.083s-0.231,0.138-0.323,0.246c-0.092,0.109-0.164,0.243-0.217,0.402   c-0.053,0.16-0.08,0.344-0.08,0.552v1.783H22.55V85.018z"/>
	<path d="M26.69,88.868c-0.3,0-0.567-0.05-0.801-0.148c-0.234-0.1-0.433-0.236-0.594-0.41c-0.162-0.174-0.286-0.382-0.37-0.623   c-0.084-0.242-0.126-0.508-0.126-0.798c0-0.285,0.042-0.548,0.126-0.79c0.084-0.241,0.208-0.449,0.37-0.623   c0.162-0.175,0.36-0.311,0.594-0.41c0.234-0.099,0.501-0.148,0.801-0.148c0.299,0,0.566,0.05,0.801,0.148   c0.234,0.1,0.432,0.235,0.594,0.41c0.162,0.174,0.285,0.382,0.37,0.623c0.084,0.242,0.127,0.505,0.127,0.79   c0,0.29-0.042,0.556-0.127,0.798c-0.084,0.241-0.208,0.449-0.37,0.623s-0.36,0.311-0.594,0.41   C27.256,88.818,26.989,88.868,26.69,88.868z M26.69,88.215c0.184,0,0.343-0.039,0.479-0.116s0.247-0.179,0.333-0.305   c0.087-0.125,0.151-0.267,0.192-0.424s0.062-0.317,0.062-0.482c0-0.159-0.021-0.318-0.062-0.479   c-0.041-0.159-0.105-0.301-0.192-0.424s-0.198-0.224-0.333-0.301s-0.295-0.116-0.479-0.116s-0.343,0.039-0.479,0.116   s-0.247,0.178-0.333,0.301s-0.151,0.265-0.192,0.424c-0.041,0.16-0.062,0.319-0.062,0.479c0,0.165,0.021,0.325,0.062,0.482   s0.105,0.299,0.192,0.424c0.087,0.126,0.198,0.228,0.333,0.305S26.506,88.215,26.69,88.215z"/>
	<path d="M29.292,85.018h0.827v4.067c0,0.372-0.082,0.659-0.247,0.862c-0.164,0.203-0.44,0.305-0.826,0.305   c-0.083,0-0.151-0.003-0.207-0.008c-0.055-0.004-0.11-0.012-0.163-0.021v-0.652c0.053,0.01,0.104,0.017,0.152,0.021   s0.092,0.008,0.13,0.008c0.15,0,0.243-0.046,0.279-0.138s0.054-0.229,0.054-0.413V85.018z M29.292,83.589h0.827v0.783h-0.827   V83.589z"/>
	<path d="M31.663,87.106c0,0.145,0.021,0.285,0.062,0.42c0.041,0.136,0.103,0.254,0.185,0.355s0.186,0.183,0.312,0.243   c0.125,0.061,0.275,0.091,0.449,0.091c0.242,0,0.436-0.052,0.583-0.156c0.147-0.104,0.258-0.26,0.33-0.468h0.783   c-0.043,0.203-0.119,0.385-0.225,0.544c-0.106,0.159-0.234,0.294-0.384,0.402c-0.15,0.109-0.318,0.191-0.504,0.247   c-0.186,0.055-0.38,0.083-0.583,0.083c-0.295,0-0.556-0.049-0.783-0.146c-0.228-0.096-0.419-0.231-0.577-0.405   s-0.275-0.382-0.355-0.624c-0.08-0.241-0.12-0.507-0.12-0.797c0-0.267,0.042-0.519,0.127-0.758   c0.084-0.239,0.205-0.449,0.362-0.631c0.157-0.182,0.347-0.325,0.569-0.432c0.223-0.106,0.474-0.159,0.754-0.159   c0.294,0,0.559,0.062,0.794,0.185c0.234,0.123,0.429,0.286,0.583,0.489c0.154,0.203,0.267,0.437,0.337,0.7   c0.07,0.264,0.088,0.535,0.055,0.815H31.663z M33.592,86.562c-0.01-0.131-0.038-0.256-0.083-0.377s-0.109-0.226-0.188-0.315   c-0.08-0.089-0.176-0.162-0.29-0.218c-0.113-0.055-0.24-0.083-0.38-0.083c-0.145,0-0.277,0.025-0.396,0.076   c-0.118,0.051-0.22,0.121-0.304,0.21c-0.084,0.09-0.152,0.195-0.203,0.315c-0.051,0.121-0.079,0.252-0.083,0.392H33.592z"/>
	<path d="M37.579,86.272c-0.034-0.231-0.127-0.407-0.279-0.525s-0.344-0.178-0.576-0.178c-0.106,0-0.22,0.019-0.341,0.055   c-0.121,0.036-0.232,0.104-0.333,0.203c-0.102,0.099-0.186,0.236-0.254,0.413c-0.068,0.176-0.102,0.407-0.102,0.692   c0,0.154,0.018,0.31,0.055,0.464c0.036,0.154,0.094,0.292,0.174,0.413s0.183,0.219,0.308,0.294   c0.125,0.074,0.278,0.112,0.457,0.112c0.241,0,0.441-0.075,0.598-0.225c0.157-0.15,0.255-0.36,0.294-0.631h0.827   c-0.078,0.488-0.263,0.861-0.555,1.12c-0.292,0.259-0.681,0.388-1.164,0.388c-0.295,0-0.555-0.05-0.78-0.148   c-0.225-0.1-0.415-0.234-0.569-0.406c-0.155-0.172-0.272-0.376-0.352-0.612c-0.08-0.237-0.12-0.493-0.12-0.769   c0-0.28,0.039-0.544,0.116-0.79c0.077-0.247,0.193-0.461,0.348-0.643c0.155-0.181,0.347-0.323,0.576-0.428   c0.229-0.104,0.499-0.155,0.809-0.155c0.217,0,0.424,0.027,0.62,0.083c0.196,0.056,0.37,0.14,0.522,0.25   c0.152,0.111,0.277,0.252,0.374,0.421s0.155,0.37,0.174,0.602H37.579z"/>
	<path d="M38.703,85.018h0.624v-1.124h0.826v1.124h0.747v0.616h-0.747v2.001c0,0.087,0.004,0.162,0.011,0.225   s0.024,0.116,0.051,0.159c0.026,0.044,0.066,0.076,0.12,0.099c0.053,0.021,0.125,0.032,0.217,0.032   c0.058,0,0.116-0.001,0.174-0.004c0.058-0.002,0.116-0.011,0.174-0.025v0.639c-0.092,0.009-0.181,0.019-0.269,0.028   c-0.087,0.01-0.176,0.015-0.268,0.015c-0.217,0-0.393-0.021-0.526-0.062c-0.133-0.041-0.237-0.102-0.312-0.182   c-0.075-0.079-0.125-0.18-0.152-0.301c-0.026-0.12-0.042-0.258-0.047-0.413v-2.211h-0.624V85.018z"/>
	<path d="M42.117,87.563c0.024,0.241,0.116,0.41,0.275,0.507s0.351,0.146,0.573,0.146c0.077,0,0.166-0.006,0.265-0.019   c0.099-0.012,0.192-0.035,0.279-0.068c0.087-0.034,0.158-0.084,0.214-0.149c0.055-0.064,0.081-0.15,0.076-0.257   c-0.005-0.106-0.044-0.193-0.116-0.261c-0.073-0.068-0.166-0.122-0.279-0.163c-0.113-0.041-0.243-0.076-0.388-0.105   s-0.292-0.061-0.442-0.095c-0.155-0.033-0.303-0.074-0.446-0.123c-0.143-0.048-0.271-0.113-0.384-0.195s-0.204-0.188-0.272-0.315   c-0.067-0.128-0.102-0.286-0.102-0.475c0-0.203,0.05-0.374,0.149-0.512s0.225-0.249,0.377-0.333   c0.152-0.085,0.321-0.144,0.507-0.178s0.364-0.051,0.533-0.051c0.193,0,0.378,0.021,0.555,0.062   c0.176,0.041,0.335,0.107,0.478,0.199s0.261,0.212,0.355,0.359s0.153,0.325,0.178,0.532H43.64   c-0.039-0.198-0.129-0.331-0.272-0.398s-0.306-0.102-0.489-0.102c-0.058,0-0.127,0.005-0.207,0.015   c-0.08,0.01-0.155,0.027-0.225,0.055c-0.07,0.026-0.129,0.064-0.177,0.115c-0.048,0.051-0.073,0.117-0.073,0.199   c0,0.102,0.035,0.185,0.105,0.247c0.07,0.062,0.162,0.115,0.276,0.156c0.113,0.041,0.243,0.075,0.388,0.104s0.295,0.061,0.45,0.095   c0.149,0.033,0.297,0.074,0.442,0.123c0.145,0.048,0.274,0.113,0.388,0.195c0.113,0.083,0.205,0.187,0.275,0.312   c0.07,0.125,0.105,0.28,0.105,0.464c0,0.222-0.051,0.41-0.152,0.565c-0.101,0.154-0.233,0.28-0.395,0.377s-0.342,0.167-0.54,0.21   c-0.198,0.044-0.394,0.065-0.587,0.065c-0.237,0-0.456-0.026-0.656-0.08c-0.201-0.053-0.375-0.134-0.522-0.242   c-0.148-0.109-0.264-0.244-0.348-0.406s-0.129-0.354-0.134-0.576H42.117z"/>
</g>
<g>
	<path d="M150.794,70.54h0.906v2.059h2.356V70.54h0.906v5.176h-0.906v-2.334h-2.356v2.334h-0.906V70.54z"/>
	<path d="M157.653,75.818c-0.3,0-0.566-0.05-0.801-0.148c-0.235-0.1-0.433-0.236-0.595-0.41s-0.285-0.382-0.37-0.623   c-0.084-0.242-0.127-0.508-0.127-0.798c0-0.285,0.043-0.548,0.127-0.79c0.085-0.242,0.208-0.45,0.37-0.624s0.359-0.311,0.595-0.41   c0.234-0.099,0.501-0.148,0.801-0.148s0.566,0.049,0.801,0.148s0.433,0.236,0.595,0.41s0.285,0.382,0.37,0.624   c0.084,0.242,0.127,0.505,0.127,0.79c0,0.29-0.043,0.556-0.127,0.798c-0.085,0.241-0.208,0.449-0.37,0.623s-0.36,0.311-0.595,0.41   C158.219,75.768,157.953,75.818,157.653,75.818z M157.653,75.166c0.184,0,0.343-0.039,0.479-0.116   c0.135-0.077,0.246-0.179,0.333-0.305c0.088-0.125,0.151-0.267,0.192-0.424s0.062-0.317,0.062-0.482   c0-0.159-0.021-0.319-0.062-0.479c-0.041-0.159-0.104-0.301-0.192-0.424c-0.087-0.124-0.198-0.224-0.333-0.301   c-0.136-0.078-0.295-0.116-0.479-0.116s-0.344,0.039-0.479,0.116c-0.136,0.077-0.246,0.177-0.334,0.301   c-0.087,0.123-0.15,0.265-0.191,0.424c-0.041,0.16-0.062,0.319-0.062,0.479c0,0.165,0.021,0.325,0.062,0.482   s0.104,0.299,0.191,0.424c0.088,0.126,0.198,0.228,0.334,0.305C157.309,75.126,157.469,75.166,157.653,75.166z"/>
	<path d="M163.525,75.716h-0.812v-0.522h-0.014c-0.102,0.188-0.253,0.34-0.453,0.453c-0.201,0.114-0.405,0.171-0.613,0.171   c-0.493,0-0.85-0.122-1.069-0.366s-0.33-0.612-0.33-1.105v-2.378h0.827v2.298c0,0.329,0.062,0.561,0.188,0.696   c0.125,0.136,0.302,0.203,0.529,0.203c0.174,0,0.318-0.026,0.435-0.08c0.116-0.053,0.21-0.124,0.283-0.214   c0.072-0.089,0.124-0.197,0.155-0.322c0.031-0.126,0.048-0.262,0.048-0.406v-2.175h0.826V75.716z"/>
	<path d="M165.018,74.513c0.024,0.241,0.116,0.41,0.275,0.507s0.351,0.146,0.573,0.146c0.077,0,0.165-0.006,0.264-0.019   c0.1-0.012,0.192-0.035,0.279-0.068c0.087-0.034,0.158-0.084,0.214-0.149c0.056-0.064,0.081-0.15,0.076-0.257   s-0.043-0.193-0.116-0.261c-0.072-0.068-0.165-0.122-0.278-0.163c-0.114-0.041-0.243-0.076-0.389-0.105   c-0.145-0.029-0.292-0.061-0.441-0.095c-0.155-0.033-0.304-0.074-0.446-0.123c-0.143-0.048-0.271-0.113-0.384-0.195   c-0.114-0.082-0.205-0.188-0.272-0.315s-0.102-0.287-0.102-0.475c0-0.203,0.05-0.373,0.148-0.511   c0.1-0.138,0.226-0.249,0.377-0.333c0.152-0.084,0.322-0.144,0.508-0.177c0.187-0.034,0.364-0.051,0.533-0.051   c0.193,0,0.378,0.021,0.555,0.062c0.176,0.041,0.336,0.107,0.479,0.199s0.261,0.211,0.355,0.359   c0.094,0.147,0.153,0.325,0.177,0.533h-0.862c-0.039-0.198-0.13-0.331-0.271-0.399c-0.144-0.068-0.307-0.102-0.49-0.102   c-0.058,0-0.126,0.005-0.206,0.015s-0.155,0.028-0.225,0.054c-0.07,0.027-0.13,0.065-0.178,0.116   c-0.049,0.051-0.072,0.117-0.072,0.199c0,0.102,0.034,0.184,0.104,0.247s0.162,0.115,0.275,0.156   c0.114,0.041,0.243,0.076,0.389,0.105c0.145,0.029,0.294,0.061,0.449,0.094c0.149,0.034,0.297,0.075,0.442,0.124   c0.145,0.049,0.273,0.113,0.388,0.195c0.113,0.083,0.205,0.187,0.275,0.312c0.07,0.125,0.105,0.28,0.105,0.464   c0,0.222-0.051,0.41-0.152,0.565c-0.102,0.154-0.233,0.28-0.396,0.377s-0.342,0.167-0.54,0.21   c-0.198,0.044-0.394,0.065-0.587,0.065c-0.237,0-0.456-0.026-0.656-0.08c-0.201-0.053-0.375-0.134-0.522-0.242   c-0.147-0.109-0.264-0.244-0.348-0.406c-0.085-0.162-0.13-0.354-0.134-0.576H165.018z"/>
	<path d="M168.802,74.056c0,0.145,0.021,0.285,0.062,0.42c0.041,0.136,0.103,0.254,0.186,0.355c0.082,0.102,0.186,0.183,0.312,0.243   c0.125,0.061,0.275,0.091,0.449,0.091c0.242,0,0.437-0.052,0.584-0.156c0.147-0.104,0.257-0.26,0.33-0.468h0.782   c-0.043,0.203-0.118,0.385-0.225,0.544s-0.234,0.294-0.384,0.402c-0.15,0.109-0.318,0.191-0.504,0.247   c-0.187,0.055-0.381,0.083-0.584,0.083c-0.295,0-0.556-0.049-0.783-0.146c-0.227-0.096-0.419-0.231-0.576-0.405   s-0.275-0.382-0.355-0.624c-0.079-0.241-0.119-0.507-0.119-0.797c0-0.267,0.042-0.519,0.127-0.758   c0.084-0.239,0.205-0.45,0.362-0.631s0.347-0.325,0.569-0.432c0.222-0.106,0.474-0.159,0.754-0.159c0.295,0,0.56,0.062,0.794,0.185   c0.234,0.124,0.429,0.287,0.583,0.49c0.155,0.203,0.268,0.436,0.338,0.699c0.069,0.264,0.088,0.536,0.054,0.816H168.802z    M170.731,73.512c-0.01-0.13-0.037-0.256-0.083-0.377c-0.047-0.121-0.109-0.226-0.188-0.315c-0.08-0.089-0.177-0.162-0.29-0.217   c-0.114-0.056-0.241-0.083-0.381-0.083c-0.146,0-0.277,0.025-0.396,0.076s-0.22,0.121-0.305,0.21   c-0.084,0.089-0.151,0.194-0.202,0.315c-0.051,0.121-0.079,0.251-0.084,0.392H170.731z"/>
	<path d="M172.188,70.54h0.827v1.921h0.015c0.102-0.169,0.252-0.311,0.453-0.424c0.2-0.114,0.424-0.17,0.67-0.17   c0.411,0,0.735,0.106,0.972,0.319c0.237,0.213,0.355,0.532,0.355,0.957v2.574h-0.826V73.36c-0.01-0.294-0.073-0.508-0.188-0.642   c-0.116-0.133-0.298-0.199-0.544-0.199c-0.141,0-0.266,0.025-0.377,0.076s-0.206,0.121-0.283,0.21   c-0.077,0.089-0.138,0.194-0.181,0.315c-0.044,0.121-0.065,0.249-0.065,0.384v2.211h-0.827V70.54z"/>
	<path d="M178.068,75.818c-0.3,0-0.566-0.05-0.801-0.148c-0.235-0.1-0.433-0.236-0.595-0.41s-0.285-0.382-0.37-0.623   c-0.084-0.242-0.127-0.508-0.127-0.798c0-0.285,0.043-0.548,0.127-0.79c0.085-0.242,0.208-0.45,0.37-0.624s0.359-0.311,0.595-0.41   c0.234-0.099,0.501-0.148,0.801-0.148s0.566,0.049,0.801,0.148s0.433,0.236,0.595,0.41s0.285,0.382,0.37,0.624   c0.084,0.242,0.127,0.505,0.127,0.79c0,0.29-0.043,0.556-0.127,0.798c-0.085,0.241-0.208,0.449-0.37,0.623s-0.36,0.311-0.595,0.41   C178.634,75.768,178.368,75.818,178.068,75.818z M178.068,75.166c0.184,0,0.343-0.039,0.479-0.116   c0.135-0.077,0.246-0.179,0.333-0.305c0.088-0.125,0.151-0.267,0.192-0.424s0.062-0.317,0.062-0.482   c0-0.159-0.021-0.319-0.062-0.479c-0.041-0.159-0.104-0.301-0.192-0.424c-0.087-0.124-0.198-0.224-0.333-0.301   c-0.136-0.078-0.295-0.116-0.479-0.116s-0.344,0.039-0.479,0.116c-0.136,0.077-0.246,0.177-0.334,0.301   c-0.087,0.123-0.15,0.265-0.191,0.424c-0.041,0.16-0.062,0.319-0.062,0.479c0,0.165,0.021,0.325,0.062,0.482   s0.104,0.299,0.191,0.424c0.088,0.126,0.198,0.228,0.334,0.305C177.724,75.126,177.884,75.166,178.068,75.166z"/>
	<path d="M180.67,70.54h0.826v5.176h-0.826V70.54z"/>
	<path d="M185.926,75.716h-0.783v-0.508h-0.015c-0.111,0.218-0.272,0.374-0.485,0.468c-0.213,0.095-0.438,0.142-0.675,0.142   c-0.295,0-0.552-0.052-0.771-0.156c-0.22-0.104-0.402-0.245-0.548-0.424c-0.145-0.179-0.254-0.391-0.326-0.635   c-0.072-0.243-0.108-0.506-0.108-0.786c0-0.338,0.046-0.631,0.138-0.877s0.214-0.449,0.366-0.609s0.326-0.277,0.521-0.352   c0.196-0.075,0.396-0.112,0.599-0.112c0.116,0,0.234,0.011,0.355,0.033c0.12,0.021,0.236,0.057,0.348,0.105s0.214,0.11,0.308,0.185   c0.095,0.075,0.173,0.164,0.236,0.265h0.015V70.54h0.826V75.716z M183.041,73.882c0,0.159,0.021,0.316,0.062,0.471   c0.041,0.155,0.104,0.293,0.188,0.413c0.085,0.121,0.192,0.218,0.323,0.29c0.13,0.073,0.285,0.109,0.464,0.109   c0.184,0,0.342-0.039,0.475-0.116s0.242-0.179,0.326-0.305c0.085-0.125,0.147-0.267,0.188-0.424s0.062-0.317,0.062-0.482   c0-0.416-0.093-0.739-0.279-0.971c-0.186-0.232-0.438-0.348-0.757-0.348c-0.193,0-0.356,0.04-0.489,0.12   c-0.134,0.08-0.242,0.184-0.327,0.312c-0.084,0.128-0.145,0.273-0.181,0.435C183.059,73.547,183.041,73.712,183.041,73.882z"/>
	<path d="M187.449,74.513c0.024,0.241,0.116,0.41,0.275,0.507s0.351,0.146,0.573,0.146c0.077,0,0.165-0.006,0.264-0.019   c0.1-0.012,0.192-0.035,0.279-0.068c0.087-0.034,0.158-0.084,0.214-0.149c0.056-0.064,0.081-0.15,0.076-0.257   s-0.043-0.193-0.116-0.261c-0.072-0.068-0.165-0.122-0.278-0.163c-0.114-0.041-0.243-0.076-0.389-0.105   c-0.145-0.029-0.292-0.061-0.441-0.095c-0.155-0.033-0.304-0.074-0.446-0.123c-0.143-0.048-0.271-0.113-0.384-0.195   c-0.114-0.082-0.205-0.188-0.272-0.315s-0.102-0.287-0.102-0.475c0-0.203,0.05-0.373,0.148-0.511   c0.1-0.138,0.226-0.249,0.377-0.333c0.152-0.084,0.322-0.144,0.508-0.177c0.187-0.034,0.364-0.051,0.533-0.051   c0.193,0,0.378,0.021,0.555,0.062c0.176,0.041,0.336,0.107,0.479,0.199s0.261,0.211,0.355,0.359   c0.094,0.147,0.153,0.325,0.177,0.533h-0.862c-0.039-0.198-0.13-0.331-0.271-0.399c-0.144-0.068-0.307-0.102-0.49-0.102   c-0.058,0-0.126,0.005-0.206,0.015s-0.155,0.028-0.225,0.054c-0.07,0.027-0.13,0.065-0.178,0.116   c-0.049,0.051-0.072,0.117-0.072,0.199c0,0.102,0.034,0.184,0.104,0.247s0.162,0.115,0.275,0.156   c0.114,0.041,0.243,0.076,0.389,0.105c0.145,0.029,0.294,0.061,0.449,0.094c0.149,0.034,0.297,0.075,0.442,0.124   c0.145,0.049,0.273,0.113,0.388,0.195c0.113,0.083,0.205,0.187,0.275,0.312c0.07,0.125,0.105,0.28,0.105,0.464   c0,0.222-0.051,0.41-0.152,0.565c-0.102,0.154-0.233,0.28-0.396,0.377s-0.342,0.167-0.54,0.21   c-0.198,0.044-0.394,0.065-0.587,0.065c-0.237,0-0.456-0.026-0.656-0.08c-0.201-0.053-0.375-0.134-0.522-0.242   c-0.147-0.109-0.264-0.244-0.348-0.406c-0.085-0.162-0.13-0.354-0.134-0.576H187.449z"/>
	<path d="M192.074,70.417h0.791l-2.081,5.423h-0.79L192.074,70.417z"/>
	<path d="M161.593,83.213c0.024,0.241,0.116,0.41,0.275,0.507s0.351,0.146,0.573,0.146c0.077,0,0.165-0.006,0.264-0.019   c0.1-0.012,0.192-0.035,0.279-0.068c0.087-0.034,0.158-0.084,0.214-0.149c0.056-0.064,0.081-0.15,0.076-0.257   s-0.043-0.193-0.116-0.261c-0.072-0.068-0.165-0.122-0.278-0.163c-0.114-0.041-0.243-0.076-0.389-0.105   c-0.145-0.029-0.292-0.061-0.441-0.095c-0.155-0.033-0.304-0.074-0.446-0.123c-0.143-0.048-0.271-0.113-0.384-0.195   c-0.114-0.082-0.205-0.188-0.272-0.315s-0.102-0.286-0.102-0.475c0-0.203,0.05-0.374,0.148-0.512   c0.1-0.138,0.226-0.249,0.377-0.333c0.152-0.085,0.322-0.144,0.508-0.178c0.187-0.034,0.364-0.051,0.533-0.051   c0.193,0,0.378,0.021,0.555,0.062c0.176,0.041,0.336,0.107,0.479,0.199s0.261,0.212,0.355,0.359   c0.094,0.147,0.153,0.325,0.177,0.532h-0.862c-0.039-0.198-0.13-0.331-0.271-0.398c-0.144-0.067-0.307-0.102-0.49-0.102   c-0.058,0-0.126,0.005-0.206,0.015s-0.155,0.027-0.225,0.055c-0.07,0.026-0.13,0.064-0.178,0.115   c-0.049,0.051-0.072,0.117-0.072,0.199c0,0.102,0.034,0.185,0.104,0.247s0.162,0.115,0.275,0.156   c0.114,0.041,0.243,0.075,0.389,0.104c0.145,0.029,0.294,0.061,0.449,0.095c0.149,0.033,0.297,0.074,0.442,0.123   c0.145,0.048,0.273,0.113,0.388,0.195c0.113,0.083,0.205,0.187,0.275,0.312c0.07,0.125,0.105,0.28,0.105,0.464   c0,0.222-0.051,0.41-0.152,0.565c-0.102,0.154-0.233,0.28-0.396,0.377s-0.342,0.167-0.54,0.21   c-0.198,0.044-0.394,0.065-0.587,0.065c-0.237,0-0.456-0.026-0.656-0.08c-0.201-0.053-0.375-0.134-0.522-0.242   c-0.147-0.109-0.264-0.244-0.348-0.406c-0.085-0.162-0.13-0.354-0.134-0.576H161.593z"/>
	<path d="M167.872,83.583c0,0.102,0.014,0.174,0.04,0.218s0.078,0.065,0.155,0.065c0.024,0,0.054,0,0.088,0   c0.033,0,0.072-0.005,0.115-0.015v0.572c-0.028,0.01-0.066,0.021-0.112,0.033c-0.046,0.012-0.093,0.022-0.141,0.032   c-0.049,0.01-0.098,0.018-0.146,0.022c-0.049,0.004-0.09,0.007-0.123,0.007c-0.169,0-0.31-0.034-0.421-0.102   s-0.184-0.186-0.217-0.355c-0.165,0.16-0.366,0.275-0.605,0.349c-0.239,0.072-0.471,0.108-0.692,0.108   c-0.17,0-0.331-0.023-0.486-0.069c-0.154-0.046-0.291-0.113-0.409-0.202c-0.119-0.09-0.213-0.203-0.283-0.341   s-0.104-0.299-0.104-0.482c0-0.232,0.042-0.421,0.126-0.565c0.085-0.146,0.196-0.259,0.334-0.341s0.292-0.142,0.464-0.178   s0.345-0.064,0.519-0.083c0.149-0.029,0.292-0.05,0.428-0.062c0.135-0.013,0.255-0.033,0.358-0.062   c0.104-0.028,0.187-0.073,0.247-0.134s0.091-0.151,0.091-0.271c0-0.106-0.025-0.193-0.076-0.262   c-0.051-0.067-0.114-0.119-0.188-0.155c-0.075-0.036-0.158-0.061-0.25-0.072c-0.093-0.013-0.18-0.019-0.262-0.019   c-0.231,0-0.423,0.049-0.572,0.145c-0.15,0.098-0.234,0.247-0.254,0.45h-0.826c0.014-0.242,0.072-0.442,0.174-0.602   c0.102-0.16,0.23-0.288,0.388-0.385s0.335-0.164,0.533-0.203c0.198-0.038,0.4-0.058,0.608-0.058c0.184,0,0.365,0.02,0.544,0.058   c0.179,0.039,0.34,0.102,0.482,0.188s0.257,0.199,0.344,0.337c0.087,0.139,0.131,0.307,0.131,0.504V83.583z M167.045,82.539   c-0.126,0.082-0.28,0.132-0.464,0.148c-0.185,0.018-0.368,0.043-0.552,0.076c-0.087,0.015-0.171,0.035-0.254,0.062   c-0.082,0.027-0.154,0.063-0.217,0.109c-0.063,0.046-0.112,0.106-0.148,0.181c-0.037,0.075-0.055,0.166-0.055,0.272   c0,0.092,0.026,0.169,0.08,0.231c0.053,0.063,0.117,0.112,0.191,0.149c0.075,0.036,0.157,0.062,0.247,0.076   c0.089,0.014,0.17,0.021,0.242,0.021c0.092,0,0.191-0.013,0.298-0.036c0.106-0.024,0.206-0.065,0.301-0.124   c0.094-0.058,0.173-0.131,0.235-0.221s0.095-0.199,0.095-0.33V82.539z"/>
	<path d="M168.394,80.668h0.898l0.95,2.878h0.015l0.913-2.878h0.855l-1.341,3.748h-0.928L168.394,80.668z"/>
	<path d="M173.171,82.756c0,0.145,0.021,0.285,0.062,0.42c0.041,0.136,0.103,0.254,0.186,0.355c0.082,0.102,0.186,0.183,0.312,0.243   c0.125,0.061,0.275,0.091,0.449,0.091c0.242,0,0.437-0.052,0.584-0.156c0.147-0.104,0.257-0.26,0.33-0.468h0.782   c-0.043,0.203-0.118,0.385-0.225,0.544s-0.234,0.294-0.384,0.402c-0.15,0.109-0.318,0.191-0.504,0.247   c-0.187,0.055-0.381,0.083-0.584,0.083c-0.295,0-0.556-0.049-0.783-0.146c-0.227-0.096-0.419-0.231-0.576-0.405   s-0.275-0.382-0.355-0.624c-0.079-0.241-0.119-0.507-0.119-0.797c0-0.267,0.042-0.519,0.127-0.758   c0.084-0.239,0.205-0.449,0.362-0.631s0.347-0.325,0.569-0.432c0.222-0.106,0.474-0.159,0.754-0.159   c0.295,0,0.56,0.062,0.794,0.185s0.429,0.286,0.583,0.489c0.155,0.203,0.268,0.437,0.338,0.7c0.069,0.264,0.088,0.535,0.054,0.815   H173.171z M175.1,82.212c-0.01-0.131-0.037-0.256-0.083-0.377c-0.047-0.121-0.109-0.226-0.188-0.315   c-0.08-0.089-0.177-0.162-0.29-0.218c-0.114-0.055-0.241-0.083-0.381-0.083c-0.146,0-0.277,0.025-0.396,0.076   s-0.22,0.121-0.305,0.21c-0.084,0.09-0.151,0.195-0.202,0.315c-0.051,0.121-0.079,0.252-0.084,0.392H175.1z"/>
	<path d="M176.557,80.668h0.776v0.725h0.015c0.023-0.102,0.071-0.2,0.141-0.297c0.07-0.097,0.155-0.186,0.254-0.265   c0.1-0.08,0.209-0.144,0.33-0.192c0.121-0.048,0.244-0.072,0.37-0.072c0.097,0,0.163,0.002,0.199,0.007s0.073,0.01,0.112,0.015   v0.798c-0.058-0.01-0.117-0.019-0.178-0.025c-0.061-0.008-0.119-0.011-0.178-0.011c-0.14,0-0.271,0.027-0.395,0.083   c-0.124,0.056-0.231,0.138-0.323,0.246c-0.092,0.109-0.164,0.243-0.218,0.402c-0.053,0.16-0.079,0.344-0.079,0.552v1.783h-0.827   V80.668z"/>
	<path d="M179.733,83.213c0.024,0.241,0.116,0.41,0.275,0.507s0.351,0.146,0.573,0.146c0.077,0,0.165-0.006,0.264-0.019   c0.1-0.012,0.192-0.035,0.279-0.068c0.087-0.034,0.158-0.084,0.214-0.149c0.056-0.064,0.081-0.15,0.076-0.257   s-0.043-0.193-0.116-0.261c-0.072-0.068-0.165-0.122-0.278-0.163c-0.114-0.041-0.243-0.076-0.389-0.105   c-0.145-0.029-0.292-0.061-0.441-0.095c-0.155-0.033-0.304-0.074-0.446-0.123c-0.143-0.048-0.271-0.113-0.384-0.195   c-0.114-0.082-0.205-0.188-0.272-0.315s-0.102-0.286-0.102-0.475c0-0.203,0.05-0.374,0.148-0.512   c0.1-0.138,0.226-0.249,0.377-0.333c0.152-0.085,0.322-0.144,0.508-0.178c0.187-0.034,0.364-0.051,0.533-0.051   c0.193,0,0.378,0.021,0.555,0.062c0.176,0.041,0.336,0.107,0.479,0.199s0.261,0.212,0.355,0.359   c0.094,0.147,0.153,0.325,0.177,0.532h-0.862c-0.039-0.198-0.13-0.331-0.271-0.398c-0.144-0.067-0.307-0.102-0.49-0.102   c-0.058,0-0.126,0.005-0.206,0.015s-0.155,0.027-0.225,0.055c-0.07,0.026-0.13,0.064-0.178,0.115   c-0.049,0.051-0.072,0.117-0.072,0.199c0,0.102,0.034,0.185,0.104,0.247s0.162,0.115,0.275,0.156   c0.114,0.041,0.243,0.075,0.389,0.104c0.145,0.029,0.294,0.061,0.449,0.095c0.149,0.033,0.297,0.074,0.442,0.123   c0.145,0.048,0.273,0.113,0.388,0.195c0.113,0.083,0.205,0.187,0.275,0.312c0.07,0.125,0.105,0.28,0.105,0.464   c0,0.222-0.051,0.41-0.152,0.565c-0.102,0.154-0.233,0.28-0.396,0.377s-0.342,0.167-0.54,0.21   c-0.198,0.044-0.394,0.065-0.587,0.065c-0.237,0-0.456-0.026-0.656-0.08c-0.201-0.053-0.375-0.134-0.522-0.242   c-0.147-0.109-0.264-0.244-0.348-0.406c-0.085-0.162-0.13-0.354-0.134-0.576H179.733z"/>
</g>
<g>
	<g>
		<g>
			
				<line fill="none" stroke="#000000" stroke-width="0.5" stroke-miterlimit="10" x1="137.527" y1="98.724" x2="68.882" y2="98.724"/>
			<g>
				<polygon points="69.611,96.231 65.294,98.724 69.611,101.217     "/>
			</g>
		</g>
	</g>
	<g>
		<path d="M93.812,90.021c-0.039-0.15-0.092-0.288-0.159-0.414c-0.068-0.125-0.155-0.234-0.261-0.326s-0.231-0.163-0.374-0.214    s-0.308-0.076-0.497-0.076c-0.275,0-0.514,0.056-0.714,0.167c-0.201,0.111-0.364,0.26-0.49,0.446    c-0.125,0.186-0.219,0.397-0.279,0.634c-0.061,0.237-0.091,0.479-0.091,0.726c0,0.246,0.03,0.488,0.091,0.725    c0.06,0.237,0.153,0.448,0.279,0.635c0.126,0.186,0.289,0.334,0.49,0.445c0.2,0.111,0.438,0.167,0.714,0.167    c0.203,0,0.382-0.035,0.537-0.105c0.155-0.069,0.288-0.166,0.399-0.29c0.111-0.123,0.198-0.267,0.261-0.431    c0.063-0.165,0.104-0.341,0.124-0.529h0.884c-0.02,0.309-0.086,0.592-0.199,0.848c-0.114,0.257-0.267,0.478-0.46,0.664    c-0.193,0.186-0.42,0.329-0.682,0.431c-0.261,0.102-0.548,0.152-0.863,0.152c-0.387,0-0.733-0.071-1.04-0.214    c-0.307-0.143-0.567-0.337-0.78-0.583c-0.212-0.247-0.375-0.534-0.489-0.863c-0.114-0.328-0.17-0.679-0.17-1.051    c0-0.367,0.057-0.716,0.17-1.044c0.114-0.329,0.277-0.616,0.489-0.863c0.213-0.246,0.473-0.442,0.78-0.587    c0.307-0.146,0.653-0.218,1.04-0.218c0.29,0,0.563,0.04,0.819,0.12c0.256,0.079,0.482,0.195,0.678,0.348s0.354,0.337,0.475,0.555    c0.121,0.218,0.196,0.467,0.225,0.747H93.812z"/>
		<path d="M98.575,92.717c0,0.102,0.014,0.174,0.04,0.218S98.693,93,98.77,93c0.024,0,0.054,0,0.088,0    c0.033,0,0.072-0.005,0.115-0.015v0.572c-0.028,0.01-0.066,0.021-0.112,0.033c-0.046,0.012-0.093,0.022-0.141,0.032    c-0.049,0.01-0.098,0.018-0.146,0.022c-0.049,0.004-0.09,0.007-0.123,0.007c-0.169,0-0.31-0.034-0.421-0.102    s-0.184-0.186-0.217-0.355c-0.165,0.16-0.366,0.275-0.605,0.349c-0.239,0.072-0.47,0.108-0.692,0.108    c-0.169,0-0.331-0.023-0.486-0.069c-0.154-0.046-0.291-0.113-0.409-0.202c-0.119-0.09-0.213-0.203-0.283-0.341    c-0.07-0.138-0.105-0.299-0.105-0.482c0-0.232,0.042-0.421,0.127-0.565c0.084-0.146,0.196-0.259,0.333-0.341    s0.292-0.142,0.464-0.178c0.172-0.036,0.345-0.064,0.519-0.083c0.15-0.029,0.292-0.05,0.428-0.062    c0.135-0.013,0.255-0.033,0.359-0.062c0.104-0.028,0.186-0.073,0.247-0.134c0.06-0.061,0.089-0.151,0.089-0.271    c0-0.106-0.025-0.193-0.075-0.262c-0.051-0.067-0.113-0.119-0.188-0.155c-0.075-0.036-0.158-0.061-0.25-0.072    c-0.092-0.013-0.179-0.019-0.261-0.019c-0.232,0-0.423,0.049-0.573,0.145c-0.15,0.098-0.235,0.247-0.254,0.45h-0.827    c0.015-0.242,0.073-0.442,0.174-0.602c0.101-0.16,0.23-0.288,0.388-0.385s0.334-0.164,0.533-0.203    c0.198-0.038,0.401-0.058,0.609-0.058c0.184,0,0.365,0.02,0.543,0.058c0.178,0.039,0.338,0.102,0.482,0.188    c0.143,0.087,0.257,0.199,0.344,0.337c0.087,0.139,0.131,0.307,0.131,0.504V92.717z M97.748,91.673    c-0.125,0.082-0.28,0.132-0.463,0.148c-0.184,0.018-0.367,0.043-0.551,0.076c-0.087,0.015-0.172,0.035-0.254,0.062    c-0.082,0.027-0.155,0.063-0.217,0.109c-0.063,0.046-0.113,0.106-0.149,0.181c-0.036,0.075-0.054,0.166-0.054,0.272    c0,0.092,0.026,0.169,0.08,0.231c0.053,0.063,0.117,0.112,0.192,0.149c0.075,0.036,0.157,0.062,0.246,0.076    C96.667,92.993,96.748,93,96.821,93c0.092,0,0.191-0.013,0.297-0.036c0.106-0.024,0.207-0.065,0.301-0.124    c0.094-0.058,0.173-0.131,0.235-0.221c0.063-0.09,0.094-0.199,0.094-0.33V91.673z"/>
		<path d="M99.489,89.803h0.783v0.507h0.014c0.116-0.217,0.278-0.373,0.486-0.467c0.208-0.095,0.433-0.142,0.674-0.142    c0.295,0,0.553,0.052,0.772,0.155c0.22,0.104,0.402,0.247,0.547,0.428c0.146,0.182,0.254,0.394,0.326,0.635    c0.073,0.242,0.109,0.5,0.109,0.775c0,0.252-0.033,0.496-0.098,0.732c-0.065,0.237-0.165,0.446-0.298,0.627    c-0.133,0.182-0.301,0.327-0.504,0.436s-0.442,0.163-0.718,0.163c-0.121,0-0.241-0.011-0.362-0.032    c-0.121-0.022-0.237-0.058-0.348-0.105c-0.111-0.049-0.214-0.11-0.309-0.185c-0.094-0.075-0.173-0.163-0.235-0.265h-0.015v1.87    h-0.826V89.803z M102.374,91.681c0-0.17-0.021-0.334-0.064-0.493c-0.044-0.16-0.109-0.301-0.196-0.425    c-0.087-0.123-0.195-0.222-0.326-0.297s-0.28-0.112-0.449-0.112c-0.349,0-0.61,0.121-0.787,0.362    c-0.176,0.242-0.265,0.563-0.265,0.965c0,0.188,0.023,0.363,0.069,0.525s0.114,0.301,0.206,0.417s0.202,0.208,0.33,0.275    S101.168,93,101.337,93c0.188,0,0.348-0.039,0.479-0.116c0.13-0.077,0.238-0.178,0.322-0.301c0.085-0.123,0.146-0.264,0.182-0.421    C102.356,92.006,102.374,91.845,102.374,91.681z"/>
		<path d="M103.918,88.375h0.826v0.783h-0.826V88.375z M103.918,89.803h0.826v3.748h-0.826V89.803z"/>
		<path d="M105.266,89.803h0.624v-1.124h0.826v1.124h0.747v0.616h-0.747v2.001c0,0.087,0.004,0.162,0.011,0.225    c0.008,0.062,0.024,0.116,0.051,0.159c0.026,0.044,0.066,0.076,0.12,0.099c0.053,0.021,0.125,0.032,0.218,0.032    c0.058,0,0.115-0.001,0.174-0.004c0.058-0.002,0.115-0.011,0.174-0.025v0.639c-0.092,0.009-0.182,0.019-0.269,0.028    s-0.177,0.015-0.269,0.015c-0.217,0-0.393-0.021-0.525-0.062s-0.236-0.102-0.312-0.182c-0.075-0.079-0.126-0.18-0.152-0.301    c-0.026-0.12-0.042-0.258-0.047-0.413v-2.211h-0.624V89.803z"/>
		<path d="M111.197,92.717c0,0.102,0.014,0.174,0.04,0.218S111.315,93,111.392,93c0.024,0,0.054,0,0.088,0    c0.033,0,0.072-0.005,0.115-0.015v0.572c-0.028,0.01-0.066,0.021-0.112,0.033c-0.046,0.012-0.093,0.022-0.141,0.032    c-0.049,0.01-0.098,0.018-0.146,0.022c-0.049,0.004-0.09,0.007-0.123,0.007c-0.169,0-0.31-0.034-0.421-0.102    s-0.184-0.186-0.217-0.355c-0.165,0.16-0.366,0.275-0.605,0.349c-0.239,0.072-0.471,0.108-0.692,0.108    c-0.17,0-0.331-0.023-0.486-0.069c-0.154-0.046-0.291-0.113-0.409-0.202c-0.119-0.09-0.213-0.203-0.283-0.341    s-0.104-0.299-0.104-0.482c0-0.232,0.042-0.421,0.126-0.565c0.085-0.146,0.196-0.259,0.334-0.341s0.292-0.142,0.464-0.178    s0.345-0.064,0.519-0.083c0.149-0.029,0.292-0.05,0.428-0.062c0.135-0.013,0.255-0.033,0.358-0.062    c0.104-0.028,0.187-0.073,0.247-0.134s0.091-0.151,0.091-0.271c0-0.106-0.025-0.193-0.076-0.262    c-0.051-0.067-0.114-0.119-0.188-0.155c-0.075-0.036-0.158-0.061-0.25-0.072c-0.093-0.013-0.18-0.019-0.262-0.019    c-0.231,0-0.423,0.049-0.572,0.145c-0.15,0.098-0.234,0.247-0.254,0.45h-0.826c0.014-0.242,0.072-0.442,0.174-0.602    c0.102-0.16,0.23-0.288,0.388-0.385s0.335-0.164,0.533-0.203c0.198-0.038,0.4-0.058,0.608-0.058c0.184,0,0.365,0.02,0.544,0.058    c0.179,0.039,0.34,0.102,0.482,0.188s0.257,0.199,0.344,0.337c0.087,0.139,0.131,0.307,0.131,0.504V92.717z M110.371,91.673    c-0.126,0.082-0.28,0.132-0.464,0.148c-0.185,0.018-0.368,0.043-0.552,0.076c-0.087,0.015-0.171,0.035-0.254,0.062    c-0.082,0.027-0.154,0.063-0.217,0.109c-0.063,0.046-0.112,0.106-0.148,0.181c-0.037,0.075-0.055,0.166-0.055,0.272    c0,0.092,0.026,0.169,0.08,0.231c0.053,0.063,0.117,0.112,0.191,0.149c0.075,0.036,0.157,0.062,0.247,0.076    c0.089,0.014,0.17,0.021,0.242,0.021c0.092,0,0.191-0.013,0.298-0.036c0.106-0.024,0.206-0.065,0.301-0.124    c0.094-0.058,0.173-0.131,0.235-0.221s0.095-0.199,0.095-0.33V91.673z"/>
		<path d="M112.111,88.375h0.826v5.177h-0.826V88.375z"/>
	</g>
</g>
<g>
	<g>
		<g>
			
				<line fill="none" stroke="#000000" stroke-width="0.5" stroke-miterlimit="10" x1="65.294" y1="61.764" x2="133.939" y2="61.764"/>
			<g>
				<polygon points="133.209,64.257 137.527,61.764 133.209,59.271     "/>
			</g>
		</g>
	</g>
	<g>
		<path d="M88.977,51.871h2.473c0.57,0,0.998,0.123,1.283,0.37s0.428,0.59,0.428,1.029c0,0.247-0.036,0.451-0.109,0.613    c-0.072,0.162-0.157,0.292-0.254,0.392s-0.192,0.17-0.286,0.214s-0.163,0.072-0.207,0.087v0.015    c0.077,0.009,0.161,0.034,0.25,0.072s0.173,0.101,0.25,0.185s0.142,0.194,0.192,0.33s0.076,0.305,0.076,0.508    c0,0.304,0.022,0.581,0.069,0.83c0.046,0.249,0.117,0.426,0.214,0.533h-0.972c-0.068-0.111-0.107-0.234-0.12-0.37    s-0.018-0.266-0.018-0.392c0-0.237-0.015-0.441-0.043-0.613c-0.029-0.171-0.083-0.314-0.16-0.428    c-0.077-0.113-0.183-0.197-0.315-0.25s-0.303-0.08-0.511-0.08h-1.334v2.131h-0.906V51.871z M89.883,54.227h1.486    c0.29,0,0.51-0.069,0.66-0.207c0.15-0.138,0.225-0.344,0.225-0.62c0-0.164-0.024-0.298-0.073-0.402    c-0.048-0.104-0.115-0.185-0.199-0.243s-0.181-0.097-0.29-0.116c-0.109-0.019-0.221-0.029-0.337-0.029h-1.472V54.227z"/>
		<path d="M94.61,55.387c0,0.145,0.021,0.285,0.062,0.42c0.041,0.135,0.103,0.254,0.185,0.355c0.082,0.101,0.186,0.182,0.312,0.243    c0.125,0.061,0.275,0.091,0.449,0.091c0.242,0,0.436-0.052,0.583-0.156c0.147-0.104,0.258-0.26,0.33-0.467h0.783    c-0.043,0.203-0.119,0.384-0.225,0.543c-0.106,0.16-0.234,0.294-0.384,0.402c-0.15,0.109-0.318,0.191-0.504,0.247    s-0.38,0.083-0.583,0.083c-0.295,0-0.556-0.048-0.783-0.145c-0.228-0.097-0.419-0.232-0.577-0.406    c-0.157-0.174-0.275-0.381-0.355-0.624c-0.08-0.241-0.12-0.507-0.12-0.797c0-0.266,0.042-0.518,0.127-0.757    c0.084-0.239,0.205-0.45,0.362-0.631c0.157-0.181,0.347-0.325,0.569-0.432c0.223-0.106,0.474-0.159,0.754-0.159    c0.294,0,0.559,0.062,0.794,0.185c0.234,0.124,0.429,0.287,0.583,0.49c0.154,0.203,0.267,0.436,0.337,0.699    c0.07,0.264,0.088,0.536,0.055,0.816H94.61z M96.539,54.843c-0.01-0.13-0.038-0.256-0.083-0.377    c-0.046-0.121-0.109-0.226-0.188-0.315c-0.08-0.089-0.176-0.162-0.29-0.217c-0.113-0.056-0.24-0.083-0.38-0.083    c-0.145,0-0.277,0.025-0.396,0.076c-0.118,0.051-0.22,0.121-0.304,0.21c-0.084,0.089-0.152,0.194-0.203,0.315    c-0.051,0.121-0.079,0.251-0.083,0.392H96.539z"/>
		<path d="M97.619,53.299h0.623v-1.124h0.826v1.124h0.747v0.616h-0.747v2.001c0,0.087,0.004,0.162,0.012,0.225    c0.007,0.063,0.023,0.116,0.051,0.16c0.026,0.043,0.066,0.076,0.119,0.098c0.053,0.022,0.126,0.033,0.218,0.033    c0.058,0,0.116-0.001,0.174-0.004c0.058-0.002,0.116-0.011,0.174-0.025v0.638c-0.092,0.01-0.181,0.02-0.269,0.029    c-0.087,0.009-0.176,0.014-0.268,0.014c-0.218,0-0.393-0.021-0.526-0.062c-0.133-0.041-0.236-0.102-0.312-0.181    s-0.125-0.18-0.152-0.301c-0.026-0.121-0.042-0.259-0.047-0.414v-2.211h-0.623V53.299z"/>
		<path d="M103.701,57.047h-0.812v-0.522h-0.014c-0.102,0.188-0.252,0.339-0.453,0.453c-0.201,0.113-0.404,0.17-0.613,0.17    c-0.492,0-0.849-0.122-1.068-0.366c-0.221-0.244-0.33-0.613-0.33-1.105v-2.378h0.826v2.298c0,0.329,0.062,0.561,0.189,0.696    c0.125,0.135,0.301,0.203,0.529,0.203c0.174,0,0.318-0.027,0.434-0.08c0.117-0.053,0.211-0.125,0.283-0.214    s0.125-0.197,0.156-0.323c0.031-0.125,0.047-0.261,0.047-0.406v-2.175h0.826V57.047z"/>
		<path d="M104.571,53.299h0.776v0.725h0.015c0.023-0.101,0.071-0.2,0.141-0.297c0.07-0.097,0.155-0.185,0.254-0.265    c0.1-0.08,0.209-0.144,0.33-0.192s0.244-0.072,0.37-0.072c0.097,0,0.163,0.002,0.199,0.007s0.073,0.01,0.112,0.014v0.798    c-0.058-0.01-0.117-0.019-0.178-0.025c-0.061-0.007-0.119-0.011-0.178-0.011c-0.14,0-0.271,0.028-0.395,0.083    c-0.124,0.056-0.231,0.138-0.323,0.247s-0.164,0.243-0.218,0.402c-0.053,0.16-0.079,0.343-0.079,0.551v1.784h-0.827V53.299z"/>
		<path d="M107.253,53.299h0.783v0.551l0.015,0.015c0.126-0.208,0.29-0.371,0.493-0.49c0.203-0.118,0.428-0.177,0.674-0.177    c0.411,0,0.735,0.106,0.972,0.319c0.237,0.213,0.355,0.532,0.355,0.957v2.574h-0.826v-2.356c-0.01-0.294-0.073-0.508-0.188-0.642    c-0.116-0.133-0.298-0.199-0.544-0.199c-0.141,0-0.266,0.025-0.377,0.076s-0.206,0.121-0.283,0.21    c-0.077,0.089-0.138,0.194-0.181,0.315c-0.044,0.121-0.065,0.249-0.065,0.384v2.211h-0.827V53.299z"/>
		<path d="M112.039,55.844c0.024,0.242,0.116,0.411,0.275,0.508s0.351,0.145,0.573,0.145c0.077,0,0.165-0.006,0.264-0.019    c0.1-0.012,0.192-0.035,0.279-0.069c0.087-0.034,0.158-0.083,0.214-0.148s0.081-0.151,0.076-0.257s-0.043-0.193-0.116-0.261    c-0.072-0.067-0.165-0.122-0.278-0.163c-0.114-0.041-0.243-0.076-0.389-0.105c-0.145-0.029-0.292-0.061-0.441-0.094    c-0.155-0.034-0.304-0.075-0.446-0.123s-0.271-0.114-0.384-0.196c-0.114-0.083-0.205-0.188-0.272-0.315s-0.102-0.287-0.102-0.475    c0-0.203,0.05-0.373,0.148-0.511c0.1-0.138,0.226-0.249,0.377-0.333c0.152-0.084,0.322-0.144,0.508-0.177    c0.187-0.034,0.364-0.051,0.533-0.051c0.193,0,0.378,0.021,0.555,0.062c0.176,0.041,0.336,0.107,0.479,0.199    s0.261,0.211,0.355,0.359c0.094,0.147,0.153,0.325,0.177,0.533h-0.862c-0.039-0.198-0.13-0.331-0.271-0.399    c-0.144-0.068-0.307-0.102-0.49-0.102c-0.058,0-0.126,0.005-0.206,0.015s-0.155,0.028-0.225,0.054    c-0.07,0.027-0.13,0.065-0.178,0.116c-0.049,0.051-0.072,0.117-0.072,0.199c0,0.102,0.034,0.184,0.104,0.247    s0.162,0.115,0.275,0.156c0.114,0.041,0.243,0.076,0.389,0.105c0.145,0.029,0.294,0.061,0.449,0.094    c0.149,0.034,0.297,0.075,0.442,0.124c0.145,0.048,0.273,0.113,0.388,0.196c0.113,0.082,0.205,0.186,0.275,0.312    c0.07,0.126,0.105,0.28,0.105,0.464c0,0.223-0.051,0.411-0.152,0.566c-0.102,0.154-0.233,0.28-0.396,0.377s-0.342,0.167-0.54,0.21    s-0.394,0.065-0.587,0.065c-0.237,0-0.456-0.027-0.656-0.08c-0.201-0.053-0.375-0.134-0.522-0.243s-0.264-0.244-0.348-0.406    c-0.085-0.162-0.13-0.354-0.134-0.577H112.039z"/>
	</g>
</g>
</svg>