<svg xmlns="http://www.w3.org/2000/svg" xmlns:xlink="http://www.w3.org/1999/xlink" version="1.1" x="0px" y="0px" width="270.07px" height="126.849px" viewBox="0 0 270.07 126.849" enable-background="new 0 0 270.07 126.849" xml:space="preserve">
<g id="Layer_1">
	<line fill="none" stroke="#CCCCCC" stroke-width="0.5" stroke-miterlimit="10" x1="34.035" y1="3.191" x2="266.546" y2="3.191"/>
	<line fill="none" stroke="#CCCCCC" stroke-width="0.5" stroke-miterlimit="10" x1="34.035" y1="23.928" x2="266.546" y2="23.928"/>
	<line fill="none" stroke="#CCCCCC" stroke-width="0.5" stroke-miterlimit="10" x1="34.035" y1="44.666" x2="266.546" y2="44.666"/>
	<line fill="none" stroke="#CCCCCC" stroke-width="0.5" stroke-miterlimit="10" x1="34.035" y1="65.403" x2="266.546" y2="65.403"/>
	<line fill="none" stroke="#CCCCCC" stroke-width="0.5" stroke-miterlimit="10" x1="34.035" y1="86.141" x2="266.546" y2="86.141"/>
	<g>
		<path d="M8.033,4.816c0.191,0.209,0.465,0.334,0.82,0.375V3.193C8.665,3.152,8.483,3.104,8.31,3.048    C8.137,2.991,7.986,2.913,7.858,2.812C7.729,2.71,7.627,2.582,7.551,2.427c-0.077-0.155-0.115-0.35-0.115-0.584    c0-0.203,0.037-0.385,0.111-0.547s0.175-0.3,0.304-0.415S8.13,0.678,8.303,0.618s0.356-0.091,0.55-0.091V0h0.263v0.526    c0.198,0,0.383,0.035,0.557,0.105S10,0.8,10.132,0.928c0.133,0.128,0.236,0.282,0.311,0.462c0.074,0.18,0.109,0.38,0.105,0.601    h-0.425c-0.005-0.337-0.099-0.606-0.284-0.807s-0.425-0.3-0.722-0.3v1.944C9.31,2.869,9.5,2.918,9.687,2.977    c0.187,0.059,0.353,0.14,0.5,0.243c0.146,0.104,0.264,0.233,0.354,0.388c0.09,0.155,0.135,0.352,0.135,0.591    c0,0.22-0.044,0.415-0.131,0.583c-0.088,0.169-0.205,0.31-0.351,0.422c-0.146,0.113-0.313,0.197-0.5,0.253    C9.507,5.514,9.314,5.542,9.117,5.542v0.574H8.854V5.535c-0.527-0.05-0.91-0.205-1.151-0.466c-0.241-0.261-0.37-0.648-0.388-1.161    H7.74C7.744,4.304,7.842,4.607,8.033,4.816z M8.472,0.941C8.353,0.98,8.247,1.04,8.155,1.121S7.99,1.306,7.939,1.435    C7.887,1.562,7.861,1.714,7.861,1.89c0,0.157,0.028,0.286,0.084,0.385c0.057,0.099,0.131,0.18,0.223,0.243    C8.26,2.581,8.366,2.63,8.485,2.667c0.119,0.036,0.242,0.07,0.368,0.101V0.884C8.718,0.884,8.591,0.903,8.472,0.941z M9.535,5.137    C9.67,5.101,9.791,5.042,9.896,4.961c0.105-0.081,0.191-0.184,0.256-0.307c0.065-0.124,0.098-0.273,0.098-0.449    c0-0.162-0.035-0.297-0.104-0.405S9.987,3.604,9.879,3.534S9.65,3.407,9.515,3.361C9.38,3.316,9.247,3.278,9.117,3.247v1.944    C9.261,5.191,9.4,5.173,9.535,5.137z"/>
		<path d="M12.029,1.603c0.15-0.016,0.281-0.053,0.392-0.111c0.11-0.059,0.202-0.147,0.276-0.267s0.127-0.287,0.159-0.503H13.2    v4.725h-0.425v-3.51h-1.249V1.633C11.711,1.629,11.878,1.619,12.029,1.603z"/>
		<path d="M15.846,5.447c0,0.099-0.012,0.197-0.037,0.293s-0.062,0.187-0.111,0.27c-0.05,0.083-0.111,0.156-0.186,0.22    c-0.074,0.063-0.161,0.108-0.26,0.135v-0.29c0.054-0.018,0.101-0.052,0.142-0.102c0.041-0.049,0.074-0.104,0.101-0.165    c0.027-0.061,0.046-0.124,0.058-0.189c0.011-0.065,0.015-0.123,0.01-0.172h-0.284V4.732h0.567V5.447z"/>
		<path d="M19.218,0.908c0.214,0.151,0.38,0.343,0.5,0.577c0.119,0.234,0.2,0.495,0.243,0.783c0.042,0.288,0.064,0.569,0.064,0.844    c0,0.279-0.021,0.562-0.064,0.851c-0.043,0.288-0.124,0.549-0.243,0.783c-0.119,0.234-0.286,0.425-0.5,0.574    s-0.494,0.223-0.84,0.223c-0.342,0-0.621-0.075-0.837-0.223s-0.384-0.339-0.503-0.574c-0.119-0.234-0.2-0.495-0.243-0.783    c-0.042-0.288-0.064-0.569-0.064-0.844c0-0.279,0.021-0.562,0.064-0.851c0.043-0.288,0.124-0.549,0.243-0.783    c0.119-0.234,0.287-0.426,0.503-0.577c0.216-0.15,0.495-0.226,0.837-0.226C18.724,0.682,19.004,0.757,19.218,0.908z M17.729,1.249    c-0.162,0.14-0.285,0.313-0.368,0.52c-0.083,0.207-0.139,0.432-0.166,0.675c-0.027,0.243-0.041,0.466-0.041,0.668    c0,0.207,0.014,0.431,0.041,0.671c0.027,0.241,0.082,0.466,0.166,0.675c0.083,0.209,0.206,0.384,0.368,0.523    c0.162,0.14,0.378,0.209,0.648,0.209s0.486-0.07,0.648-0.209c0.162-0.139,0.285-0.314,0.368-0.523    c0.083-0.209,0.138-0.434,0.165-0.675c0.027-0.241,0.041-0.464,0.041-0.671c0-0.203-0.013-0.425-0.041-0.668    c-0.027-0.243-0.082-0.468-0.165-0.675c-0.083-0.207-0.206-0.38-0.368-0.52c-0.162-0.139-0.378-0.209-0.648-0.209    S17.892,1.109,17.729,1.249z"/>
		<path d="M22.971,0.908c0.214,0.151,0.38,0.343,0.5,0.577c0.119,0.234,0.2,0.495,0.243,0.783c0.042,0.288,0.064,0.569,0.064,0.844    c0,0.279-0.021,0.562-0.064,0.851C23.67,4.25,23.589,4.511,23.47,4.745c-0.119,0.234-0.286,0.425-0.5,0.574    s-0.494,0.223-0.84,0.223c-0.342,0-0.621-0.075-0.837-0.223s-0.384-0.339-0.503-0.574c-0.119-0.234-0.2-0.495-0.243-0.783    c-0.042-0.288-0.064-0.569-0.064-0.844c0-0.279,0.021-0.562,0.064-0.851c0.043-0.288,0.124-0.549,0.243-0.783    c0.119-0.234,0.287-0.426,0.503-0.577c0.216-0.15,0.495-0.226,0.837-0.226C22.477,0.682,22.757,0.757,22.971,0.908z M21.482,1.249    c-0.162,0.14-0.285,0.313-0.368,0.52c-0.083,0.207-0.139,0.432-0.166,0.675c-0.027,0.243-0.041,0.466-0.041,0.668    c0,0.207,0.014,0.431,0.041,0.671c0.027,0.241,0.082,0.466,0.166,0.675c0.083,0.209,0.206,0.384,0.368,0.523    c0.162,0.14,0.378,0.209,0.648,0.209s0.486-0.07,0.648-0.209c0.162-0.139,0.285-0.314,0.368-0.523    c0.083-0.209,0.138-0.434,0.165-0.675c0.027-0.241,0.041-0.464,0.041-0.671c0-0.203-0.013-0.425-0.041-0.668    c-0.027-0.243-0.082-0.468-0.165-0.675c-0.083-0.207-0.206-0.38-0.368-0.52C22.616,1.109,22.4,1.04,22.13,1.04    S21.645,1.109,21.482,1.249z"/>
		<path d="M26.724,0.908c0.214,0.151,0.38,0.343,0.5,0.577c0.119,0.234,0.2,0.495,0.243,0.783c0.042,0.288,0.064,0.569,0.064,0.844    c0,0.279-0.021,0.562-0.064,0.851c-0.043,0.288-0.124,0.549-0.243,0.783c-0.119,0.234-0.286,0.425-0.5,0.574    s-0.494,0.223-0.84,0.223c-0.342,0-0.621-0.075-0.837-0.223s-0.384-0.339-0.503-0.574c-0.119-0.234-0.2-0.495-0.243-0.783    c-0.042-0.288-0.064-0.569-0.064-0.844c0-0.279,0.021-0.562,0.064-0.851c0.043-0.288,0.124-0.549,0.243-0.783    c0.119-0.234,0.287-0.426,0.503-0.577c0.216-0.15,0.495-0.226,0.837-0.226C26.23,0.682,26.51,0.757,26.724,0.908z M25.235,1.249    c-0.162,0.14-0.285,0.313-0.368,0.52c-0.083,0.207-0.139,0.432-0.166,0.675c-0.027,0.243-0.041,0.466-0.041,0.668    c0,0.207,0.014,0.431,0.041,0.671c0.027,0.241,0.082,0.466,0.166,0.675c0.083,0.209,0.206,0.384,0.368,0.523    c0.162,0.14,0.378,0.209,0.648,0.209s0.486-0.07,0.648-0.209c0.162-0.139,0.285-0.314,0.368-0.523    c0.083-0.209,0.138-0.434,0.165-0.675c0.027-0.241,0.041-0.464,0.041-0.671c0-0.203-0.013-0.425-0.041-0.668    c-0.027-0.243-0.082-0.468-0.165-0.675c-0.083-0.207-0.206-0.38-0.368-0.52c-0.162-0.139-0.378-0.209-0.648-0.209    S25.397,1.109,25.235,1.249z"/>
	</g>
	<g>
		<path d="M19.606,23.285c-0.135,0.183-0.324,0.31-0.567,0.381v0.014c0.311,0.063,0.549,0.199,0.715,0.408    c0.167,0.209,0.25,0.476,0.25,0.8c0,0.239-0.043,0.447-0.128,0.625s-0.203,0.325-0.351,0.442c-0.148,0.117-0.32,0.205-0.516,0.263    c-0.196,0.058-0.406,0.088-0.631,0.088c-0.221,0-0.43-0.03-0.628-0.088c-0.198-0.059-0.371-0.146-0.52-0.263    c-0.148-0.117-0.266-0.265-0.351-0.442s-0.128-0.386-0.128-0.625c0.009-0.31,0.097-0.576,0.264-0.796    c0.166-0.22,0.398-0.357,0.695-0.412v-0.014c-0.247-0.076-0.438-0.204-0.57-0.381s-0.199-0.397-0.199-0.658    c0-0.202,0.042-0.378,0.125-0.526c0.083-0.148,0.192-0.271,0.328-0.368c0.135-0.097,0.288-0.169,0.459-0.216    c0.171-0.047,0.344-0.071,0.52-0.071c0.176,0,0.349,0.024,0.52,0.071c0.171,0.047,0.325,0.12,0.462,0.216    c0.137,0.097,0.247,0.219,0.331,0.368c0.083,0.148,0.125,0.324,0.125,0.526C19.809,22.884,19.742,23.103,19.606,23.285z     M18.847,25.891c0.146-0.042,0.273-0.108,0.381-0.196c0.108-0.087,0.193-0.199,0.256-0.334c0.063-0.135,0.095-0.292,0.095-0.473    c0-0.171-0.033-0.32-0.098-0.449c-0.065-0.128-0.153-0.236-0.263-0.324c-0.11-0.088-0.238-0.153-0.385-0.196    c-0.146-0.043-0.298-0.062-0.456-0.058c-0.162-0.004-0.316,0.014-0.462,0.054c-0.146,0.041-0.273,0.104-0.381,0.192    s-0.195,0.197-0.26,0.327c-0.065,0.131-0.098,0.281-0.098,0.452c0,0.176,0.032,0.331,0.095,0.466    c0.063,0.135,0.148,0.247,0.256,0.334c0.108,0.087,0.235,0.154,0.381,0.199c0.146,0.045,0.303,0.068,0.469,0.068    S18.701,25.934,18.847,25.891z M18.756,23.461c0.122-0.034,0.229-0.087,0.321-0.159s0.167-0.164,0.223-0.277    c0.056-0.112,0.084-0.245,0.084-0.398c0-0.135-0.026-0.254-0.078-0.357s-0.123-0.189-0.213-0.257    c-0.09-0.067-0.195-0.119-0.317-0.155c-0.122-0.036-0.254-0.054-0.398-0.054c-0.13,0-0.256,0.018-0.378,0.054    c-0.122,0.036-0.229,0.087-0.324,0.155c-0.094,0.068-0.17,0.153-0.226,0.257s-0.084,0.223-0.084,0.357    c0,0.158,0.029,0.293,0.088,0.405s0.135,0.205,0.229,0.277c0.095,0.072,0.203,0.124,0.324,0.155    c0.122,0.031,0.245,0.045,0.371,0.041C18.508,23.509,18.634,23.495,18.756,23.461z"/>
		<path d="M22.971,21.672c0.214,0.151,0.38,0.343,0.5,0.577c0.119,0.234,0.2,0.495,0.243,0.783c0.042,0.288,0.064,0.569,0.064,0.844    c0,0.279-0.021,0.562-0.064,0.851c-0.043,0.288-0.124,0.549-0.243,0.783c-0.119,0.234-0.286,0.425-0.5,0.574    s-0.494,0.223-0.84,0.223c-0.342,0-0.621-0.075-0.837-0.223s-0.384-0.339-0.503-0.574c-0.119-0.234-0.2-0.495-0.243-0.783    c-0.042-0.288-0.064-0.569-0.064-0.844c0-0.279,0.021-0.562,0.064-0.851c0.043-0.288,0.124-0.549,0.243-0.783    c0.119-0.234,0.287-0.426,0.503-0.577c0.216-0.15,0.495-0.226,0.837-0.226C22.478,21.446,22.757,21.521,22.971,21.672z     M21.483,22.013c-0.162,0.14-0.285,0.313-0.368,0.52c-0.083,0.207-0.139,0.432-0.166,0.675c-0.027,0.243-0.041,0.466-0.041,0.668    c0,0.207,0.014,0.431,0.041,0.671c0.027,0.241,0.082,0.466,0.166,0.675c0.083,0.209,0.206,0.384,0.368,0.523    c0.162,0.14,0.378,0.209,0.648,0.209s0.486-0.07,0.648-0.209c0.162-0.139,0.285-0.314,0.368-0.523    c0.083-0.209,0.138-0.434,0.165-0.675c0.027-0.241,0.041-0.464,0.041-0.671c0-0.203-0.013-0.425-0.041-0.668    c-0.027-0.243-0.082-0.468-0.165-0.675c-0.083-0.207-0.206-0.38-0.368-0.52c-0.162-0.139-0.378-0.209-0.648-0.209    S21.645,21.874,21.483,22.013z"/>
		<path d="M26.724,21.672c0.214,0.151,0.38,0.343,0.5,0.577c0.119,0.234,0.2,0.495,0.243,0.783c0.042,0.288,0.064,0.569,0.064,0.844    c0,0.279-0.021,0.562-0.064,0.851c-0.043,0.288-0.124,0.549-0.243,0.783c-0.119,0.234-0.286,0.425-0.5,0.574    s-0.494,0.223-0.84,0.223c-0.342,0-0.621-0.075-0.837-0.223s-0.384-0.339-0.503-0.574c-0.119-0.234-0.2-0.495-0.243-0.783    c-0.042-0.288-0.064-0.569-0.064-0.844c0-0.279,0.021-0.562,0.064-0.851c0.043-0.288,0.124-0.549,0.243-0.783    c0.119-0.234,0.287-0.426,0.503-0.577c0.216-0.15,0.495-0.226,0.837-0.226C26.23,21.446,26.51,21.521,26.724,21.672z     M25.236,22.013c-0.162,0.14-0.285,0.313-0.368,0.52c-0.083,0.207-0.139,0.432-0.166,0.675c-0.027,0.243-0.041,0.466-0.041,0.668    c0,0.207,0.014,0.431,0.041,0.671c0.027,0.241,0.082,0.466,0.166,0.675c0.083,0.209,0.206,0.384,0.368,0.523    c0.162,0.14,0.378,0.209,0.648,0.209s0.486-0.07,0.648-0.209c0.162-0.139,0.285-0.314,0.368-0.523    c0.083-0.209,0.138-0.434,0.165-0.675c0.027-0.241,0.041-0.464,0.041-0.671c0-0.203-0.013-0.425-0.041-0.668    c-0.027-0.243-0.082-0.468-0.165-0.675c-0.083-0.207-0.206-0.38-0.368-0.52c-0.162-0.139-0.378-0.209-0.648-0.209    S25.398,21.874,25.236,22.013z"/>
	</g>
	<g>
		<path d="M19.171,42.812c-0.173-0.162-0.397-0.243-0.671-0.243s-0.498,0.07-0.668,0.209c-0.171,0.14-0.304,0.315-0.398,0.527    c-0.095,0.211-0.158,0.44-0.189,0.685c-0.032,0.245-0.047,0.476-0.047,0.692h0.014c0.112-0.234,0.282-0.423,0.509-0.567    s0.476-0.216,0.746-0.216c0.238,0,0.453,0.04,0.645,0.118c0.191,0.079,0.354,0.188,0.489,0.328c0.135,0.139,0.24,0.306,0.314,0.5    c0.074,0.193,0.111,0.405,0.111,0.634s-0.04,0.442-0.118,0.638c-0.079,0.196-0.189,0.365-0.331,0.506    c-0.142,0.142-0.311,0.252-0.506,0.331c-0.196,0.079-0.411,0.118-0.645,0.118c-0.288,0-0.536-0.044-0.743-0.132    s-0.378-0.23-0.513-0.429c-0.135-0.198-0.235-0.456-0.301-0.773c-0.065-0.317-0.098-0.708-0.098-1.171    c0-0.095,0.005-0.218,0.017-0.371c0.011-0.153,0.037-0.316,0.077-0.49c0.041-0.173,0.098-0.349,0.172-0.526    s0.173-0.338,0.297-0.482c0.124-0.144,0.278-0.261,0.462-0.351c0.185-0.09,0.405-0.135,0.662-0.135    c0.423,0,0.758,0.102,1.006,0.304c0.247,0.203,0.396,0.513,0.445,0.932h-0.425C19.449,43.185,19.344,42.973,19.171,42.812z     M17.963,44.354c-0.146,0.065-0.27,0.154-0.371,0.267c-0.102,0.113-0.178,0.244-0.229,0.395c-0.052,0.151-0.078,0.314-0.078,0.489    c0,0.167,0.022,0.324,0.067,0.473s0.116,0.278,0.212,0.388s0.22,0.197,0.368,0.26s0.326,0.095,0.533,0.095    c0.171,0,0.325-0.033,0.462-0.098c0.137-0.065,0.256-0.153,0.357-0.263c0.102-0.11,0.179-0.24,0.233-0.388    c0.054-0.148,0.081-0.304,0.081-0.466c0-0.171-0.026-0.333-0.078-0.486s-0.126-0.286-0.223-0.398    c-0.097-0.112-0.216-0.201-0.358-0.267c-0.142-0.065-0.303-0.098-0.482-0.098C18.274,44.256,18.109,44.289,17.963,44.354z"/>
		<path d="M22.971,42.437c0.214,0.151,0.38,0.343,0.5,0.577c0.119,0.234,0.2,0.495,0.243,0.783c0.042,0.288,0.064,0.569,0.064,0.844    c0,0.279-0.021,0.562-0.064,0.851c-0.043,0.288-0.124,0.549-0.243,0.783c-0.119,0.234-0.286,0.425-0.5,0.574    s-0.494,0.223-0.84,0.223c-0.342,0-0.621-0.075-0.837-0.223s-0.384-0.339-0.503-0.574c-0.119-0.234-0.2-0.495-0.243-0.783    c-0.042-0.288-0.064-0.569-0.064-0.844c0-0.279,0.021-0.562,0.064-0.851c0.043-0.288,0.124-0.549,0.243-0.783    c0.119-0.234,0.287-0.426,0.503-0.577c0.216-0.15,0.495-0.226,0.837-0.226C22.478,42.21,22.757,42.286,22.971,42.437z     M21.483,42.777c-0.162,0.14-0.285,0.313-0.368,0.52c-0.083,0.207-0.139,0.432-0.166,0.675c-0.027,0.243-0.041,0.466-0.041,0.668    c0,0.207,0.014,0.431,0.041,0.671c0.027,0.241,0.082,0.466,0.166,0.675c0.083,0.209,0.206,0.384,0.368,0.523    c0.162,0.14,0.378,0.209,0.648,0.209s0.486-0.07,0.648-0.209c0.162-0.139,0.285-0.314,0.368-0.523    c0.083-0.209,0.138-0.434,0.165-0.675c0.027-0.241,0.041-0.464,0.041-0.671c0-0.203-0.013-0.425-0.041-0.668    c-0.027-0.243-0.082-0.468-0.165-0.675c-0.083-0.207-0.206-0.38-0.368-0.52c-0.162-0.139-0.378-0.209-0.648-0.209    S21.645,42.638,21.483,42.777z"/>
		<path d="M26.724,42.437c0.214,0.151,0.38,0.343,0.5,0.577c0.119,0.234,0.2,0.495,0.243,0.783c0.042,0.288,0.064,0.569,0.064,0.844    c0,0.279-0.021,0.562-0.064,0.851c-0.043,0.288-0.124,0.549-0.243,0.783c-0.119,0.234-0.286,0.425-0.5,0.574    s-0.494,0.223-0.84,0.223c-0.342,0-0.621-0.075-0.837-0.223s-0.384-0.339-0.503-0.574c-0.119-0.234-0.2-0.495-0.243-0.783    c-0.042-0.288-0.064-0.569-0.064-0.844c0-0.279,0.021-0.562,0.064-0.851c0.043-0.288,0.124-0.549,0.243-0.783    c0.119-0.234,0.287-0.426,0.503-0.577c0.216-0.15,0.495-0.226,0.837-0.226C26.23,42.21,26.51,42.286,26.724,42.437z     M25.236,42.777c-0.162,0.14-0.285,0.313-0.368,0.52c-0.083,0.207-0.139,0.432-0.166,0.675c-0.027,0.243-0.041,0.466-0.041,0.668    c0,0.207,0.014,0.431,0.041,0.671c0.027,0.241,0.082,0.466,0.166,0.675c0.083,0.209,0.206,0.384,0.368,0.523    c0.162,0.14,0.378,0.209,0.648,0.209s0.486-0.07,0.648-0.209c0.162-0.139,0.285-0.314,0.368-0.523    c0.083-0.209,0.138-0.434,0.165-0.675c0.027-0.241,0.041-0.464,0.041-0.671c0-0.203-0.013-0.425-0.041-0.668    c-0.027-0.243-0.082-0.468-0.165-0.675c-0.083-0.207-0.206-0.38-0.368-0.52c-0.162-0.139-0.378-0.209-0.648-0.209    S25.398,42.638,25.236,42.777z"/>
	</g>
	<g>
		<path d="M5.355,63.103L0,64.835v-1.208l3.765-1.193V62.42L0,61.213v-1.215l5.355,1.778V63.103z"/>
		<path d="M2.67,60.11c-0.25-0.015-0.458-0.078-0.623-0.188s-0.297-0.25-0.397-0.42s-0.171-0.361-0.214-0.574    c-0.042-0.213-0.063-0.426-0.063-0.642c0-0.195,0.014-0.393,0.041-0.592c0.028-0.2,0.082-0.383,0.162-0.547    c0.08-0.165,0.191-0.3,0.333-0.405s0.332-0.157,0.566-0.157h2.018c0.175,0,0.342-0.01,0.502-0.03s0.28-0.055,0.36-0.105v1.08    c-0.06,0.02-0.121,0.036-0.184,0.049C5.109,57.591,5.045,57.6,4.98,57.605c0.175,0.17,0.297,0.37,0.368,0.6    c0.07,0.23,0.105,0.465,0.105,0.705c0,0.185-0.022,0.357-0.068,0.518c-0.045,0.16-0.115,0.3-0.21,0.42    c-0.095,0.12-0.215,0.214-0.36,0.281S4.498,60.23,4.297,60.23c-0.22,0-0.401-0.039-0.543-0.116    c-0.143-0.077-0.256-0.177-0.341-0.3s-0.149-0.263-0.191-0.42c-0.042-0.158-0.076-0.316-0.101-0.477    c-0.025-0.16-0.045-0.317-0.06-0.472s-0.038-0.292-0.067-0.413c-0.03-0.12-0.074-0.215-0.131-0.285    c-0.058-0.07-0.141-0.102-0.251-0.097c-0.115,0-0.206,0.019-0.273,0.056c-0.068,0.038-0.12,0.087-0.158,0.15    s-0.062,0.135-0.075,0.217c-0.012,0.083-0.019,0.171-0.019,0.267c0,0.21,0.045,0.375,0.135,0.495c0.09,0.12,0.24,0.19,0.45,0.21    V60.11z M3.458,57.65c0.04,0.045,0.071,0.101,0.094,0.168s0.041,0.14,0.056,0.218s0.028,0.159,0.038,0.244    c0.01,0.085,0.022,0.17,0.038,0.255c0.015,0.08,0.035,0.159,0.06,0.236c0.025,0.078,0.059,0.145,0.101,0.203    s0.096,0.104,0.161,0.139s0.147,0.052,0.248,0.052c0.095,0,0.175-0.017,0.24-0.052s0.116-0.083,0.153-0.143    c0.038-0.06,0.064-0.13,0.079-0.21c0.015-0.08,0.022-0.163,0.022-0.248c0-0.21-0.035-0.373-0.105-0.487    c-0.07-0.115-0.154-0.2-0.251-0.255c-0.097-0.055-0.196-0.088-0.296-0.101c-0.1-0.012-0.18-0.019-0.24-0.019H3.458z"/>
		<path d="M0,54.666h5.355v1.065H0V54.666z"/>
		<path d="M5.355,51.201h-0.54v0.022c0.225,0.135,0.388,0.31,0.487,0.525c0.1,0.215,0.15,0.435,0.15,0.66    c0,0.285-0.038,0.519-0.113,0.701c-0.075,0.183-0.181,0.326-0.319,0.431c-0.137,0.105-0.305,0.179-0.502,0.221    c-0.197,0.042-0.416,0.064-0.656,0.064H1.478V52.76h2.19c0.32,0,0.559-0.05,0.716-0.15c0.157-0.1,0.236-0.277,0.236-0.532    c0-0.29-0.086-0.5-0.259-0.63c-0.172-0.13-0.457-0.195-0.852-0.195H1.478v-1.065h3.877V51.201z"/>
		<path d="M4.425,48.238c0.155-0.16,0.233-0.39,0.233-0.69c0-0.215-0.054-0.4-0.162-0.555c-0.107-0.155-0.221-0.25-0.341-0.285    v-0.938c0.465,0.15,0.798,0.38,0.998,0.69c0.2,0.31,0.3,0.685,0.3,1.125c0,0.305-0.049,0.58-0.146,0.825    c-0.098,0.245-0.236,0.453-0.416,0.623c-0.18,0.17-0.395,0.301-0.645,0.394c-0.25,0.093-0.525,0.139-0.825,0.139    c-0.29,0-0.56-0.048-0.81-0.143c-0.25-0.095-0.466-0.23-0.648-0.405c-0.183-0.175-0.327-0.383-0.432-0.626    s-0.157-0.511-0.157-0.806c0-0.33,0.063-0.618,0.191-0.863c0.127-0.245,0.299-0.446,0.514-0.604    c0.215-0.158,0.46-0.271,0.735-0.341c0.275-0.07,0.562-0.095,0.862-0.075V48.5C4.02,48.486,4.27,48.398,4.425,48.238z     M2.385,47.035c-0.14,0.127-0.21,0.321-0.21,0.581c0,0.17,0.029,0.311,0.086,0.424c0.058,0.112,0.129,0.203,0.214,0.27    s0.175,0.115,0.27,0.143C2.84,48.479,2.925,48.496,3,48.5v-1.732C2.73,46.818,2.525,46.907,2.385,47.035z"/>
	</g>
	<g>
		<path d="M18.891,63.016h0.385v3.193h0.708v0.358h-0.708v1.174h-0.392v-1.174h-2.18v-0.412L18.891,63.016z M18.884,63.637h-0.014    l-1.782,2.572h1.795V63.637z"/>
		<path d="M22.971,63.201c0.214,0.151,0.38,0.343,0.5,0.577c0.119,0.234,0.2,0.495,0.243,0.783c0.042,0.288,0.064,0.569,0.064,0.844    c0,0.279-0.021,0.562-0.064,0.851c-0.043,0.288-0.124,0.549-0.243,0.783c-0.119,0.234-0.286,0.425-0.5,0.574    s-0.494,0.223-0.84,0.223c-0.342,0-0.621-0.075-0.837-0.223s-0.384-0.339-0.503-0.574c-0.119-0.234-0.2-0.495-0.243-0.783    c-0.042-0.288-0.064-0.569-0.064-0.844c0-0.279,0.021-0.562,0.064-0.851c0.043-0.288,0.124-0.549,0.243-0.783    c0.119-0.234,0.287-0.426,0.503-0.577c0.216-0.15,0.495-0.226,0.837-0.226C22.478,62.975,22.757,63.051,22.971,63.201z     M21.483,63.542c-0.162,0.14-0.285,0.313-0.368,0.52c-0.083,0.207-0.139,0.432-0.166,0.675c-0.027,0.243-0.041,0.466-0.041,0.668    c0,0.207,0.014,0.431,0.041,0.671c0.027,0.241,0.082,0.466,0.166,0.675c0.083,0.209,0.206,0.384,0.368,0.523    c0.162,0.14,0.378,0.209,0.648,0.209s0.486-0.07,0.648-0.209c0.162-0.139,0.285-0.314,0.368-0.523    c0.083-0.209,0.138-0.434,0.165-0.675c0.027-0.241,0.041-0.464,0.041-0.671c0-0.203-0.013-0.425-0.041-0.668    c-0.027-0.243-0.082-0.468-0.165-0.675c-0.083-0.207-0.206-0.38-0.368-0.52c-0.162-0.139-0.378-0.209-0.648-0.209    S21.645,63.403,21.483,63.542z"/>
		<path d="M26.724,63.201c0.214,0.151,0.38,0.343,0.5,0.577c0.119,0.234,0.2,0.495,0.243,0.783c0.042,0.288,0.064,0.569,0.064,0.844    c0,0.279-0.021,0.562-0.064,0.851c-0.043,0.288-0.124,0.549-0.243,0.783c-0.119,0.234-0.286,0.425-0.5,0.574    s-0.494,0.223-0.84,0.223c-0.342,0-0.621-0.075-0.837-0.223s-0.384-0.339-0.503-0.574c-0.119-0.234-0.2-0.495-0.243-0.783    c-0.042-0.288-0.064-0.569-0.064-0.844c0-0.279,0.021-0.562,0.064-0.851c0.043-0.288,0.124-0.549,0.243-0.783    c0.119-0.234,0.287-0.426,0.503-0.577c0.216-0.15,0.495-0.226,0.837-0.226C26.23,62.975,26.51,63.051,26.724,63.201z     M25.236,63.542c-0.162,0.14-0.285,0.313-0.368,0.52c-0.083,0.207-0.139,0.432-0.166,0.675c-0.027,0.243-0.041,0.466-0.041,0.668    c0,0.207,0.014,0.431,0.041,0.671c0.027,0.241,0.082,0.466,0.166,0.675c0.083,0.209,0.206,0.384,0.368,0.523    c0.162,0.14,0.378,0.209,0.648,0.209s0.486-0.07,0.648-0.209c0.162-0.139,0.285-0.314,0.368-0.523    c0.083-0.209,0.138-0.434,0.165-0.675c0.027-0.241,0.041-0.464,0.041-0.671c0-0.203-0.013-0.425-0.041-0.668    c-0.027-0.243-0.082-0.468-0.165-0.675c-0.083-0.207-0.206-0.38-0.368-0.52c-0.162-0.139-0.378-0.209-0.648-0.209    S25.398,63.403,25.236,63.542z"/>
	</g>
	<g>
		<path d="M16.745,88.505c0.004-0.234,0.045-0.441,0.121-0.621c0.077-0.18,0.178-0.342,0.304-0.486    c0.125-0.144,0.268-0.276,0.425-0.395c0.158-0.119,0.32-0.234,0.486-0.344s0.332-0.223,0.496-0.337    c0.164-0.115,0.312-0.237,0.442-0.368c0.131-0.131,0.229-0.265,0.294-0.402c0.065-0.137,0.098-0.3,0.098-0.489    c0-0.153-0.028-0.289-0.084-0.409c-0.056-0.119-0.133-0.22-0.229-0.304c-0.097-0.083-0.209-0.146-0.337-0.189    c-0.128-0.042-0.264-0.064-0.408-0.064c-0.194,0-0.359,0.036-0.496,0.108c-0.138,0.072-0.249,0.169-0.334,0.291    c-0.085,0.121-0.147,0.261-0.186,0.418c-0.038,0.157-0.055,0.324-0.05,0.5h-0.425c-0.005-0.243,0.023-0.467,0.084-0.672    c0.061-0.205,0.154-0.381,0.28-0.53s0.285-0.264,0.476-0.348c0.191-0.083,0.415-0.125,0.671-0.125    c0.207,0,0.399,0.028,0.577,0.084s0.333,0.14,0.466,0.25c0.133,0.11,0.236,0.249,0.311,0.415s0.111,0.36,0.111,0.581    c0,0.198-0.033,0.378-0.098,0.54c-0.065,0.162-0.153,0.31-0.264,0.445c-0.11,0.135-0.236,0.26-0.378,0.375    c-0.142,0.115-0.291,0.222-0.449,0.321c-0.112,0.077-0.245,0.161-0.398,0.253c-0.153,0.092-0.3,0.195-0.442,0.307    c-0.142,0.113-0.267,0.235-0.375,0.368s-0.176,0.278-0.203,0.435h2.626v0.392H16.745z"/>
		<path d="M22.971,83.965c0.214,0.151,0.38,0.343,0.5,0.577c0.119,0.234,0.2,0.495,0.243,0.783c0.042,0.288,0.064,0.569,0.064,0.844    c0,0.279-0.021,0.562-0.064,0.851c-0.043,0.288-0.124,0.549-0.243,0.783c-0.119,0.234-0.286,0.425-0.5,0.574    s-0.494,0.223-0.84,0.223c-0.342,0-0.621-0.075-0.837-0.223s-0.384-0.339-0.503-0.574c-0.119-0.234-0.2-0.495-0.243-0.783    c-0.042-0.288-0.064-0.569-0.064-0.844c0-0.279,0.021-0.562,0.064-0.851c0.043-0.288,0.124-0.549,0.243-0.783    c0.119-0.234,0.287-0.426,0.503-0.577c0.216-0.15,0.495-0.226,0.837-0.226C22.478,83.739,22.757,83.815,22.971,83.965z     M21.483,84.306c-0.162,0.14-0.285,0.313-0.368,0.52c-0.083,0.207-0.139,0.432-0.166,0.675c-0.027,0.243-0.041,0.466-0.041,0.668    c0,0.207,0.014,0.431,0.041,0.671c0.027,0.241,0.082,0.466,0.166,0.675c0.083,0.209,0.206,0.384,0.368,0.523    c0.162,0.14,0.378,0.209,0.648,0.209s0.486-0.07,0.648-0.209c0.162-0.139,0.285-0.314,0.368-0.523    c0.083-0.209,0.138-0.434,0.165-0.675c0.027-0.241,0.041-0.464,0.041-0.671c0-0.203-0.013-0.425-0.041-0.668    c-0.027-0.243-0.082-0.468-0.165-0.675c-0.083-0.207-0.206-0.38-0.368-0.52c-0.162-0.139-0.378-0.209-0.648-0.209    S21.645,84.167,21.483,84.306z"/>
		<path d="M26.724,83.965c0.214,0.151,0.38,0.343,0.5,0.577c0.119,0.234,0.2,0.495,0.243,0.783c0.042,0.288,0.064,0.569,0.064,0.844    c0,0.279-0.021,0.562-0.064,0.851c-0.043,0.288-0.124,0.549-0.243,0.783c-0.119,0.234-0.286,0.425-0.5,0.574    S26.23,88.6,25.884,88.6c-0.342,0-0.621-0.075-0.837-0.223s-0.384-0.339-0.503-0.574c-0.119-0.234-0.2-0.495-0.243-0.783    c-0.042-0.288-0.064-0.569-0.064-0.844c0-0.279,0.021-0.562,0.064-0.851c0.043-0.288,0.124-0.549,0.243-0.783    c0.119-0.234,0.287-0.426,0.503-0.577c0.216-0.15,0.495-0.226,0.837-0.226C26.23,83.739,26.51,83.815,26.724,83.965z     M25.236,84.306c-0.162,0.14-0.285,0.313-0.368,0.52c-0.083,0.207-0.139,0.432-0.166,0.675c-0.027,0.243-0.041,0.466-0.041,0.668    c0,0.207,0.014,0.431,0.041,0.671c0.027,0.241,0.082,0.466,0.166,0.675c0.083,0.209,0.206,0.384,0.368,0.523    c0.162,0.14,0.378,0.209,0.648,0.209s0.486-0.07,0.648-0.209c0.162-0.139,0.285-0.314,0.368-0.523    c0.083-0.209,0.138-0.434,0.165-0.675c0.027-0.241,0.041-0.464,0.041-0.671c0-0.203-0.013-0.425-0.041-0.668    c-0.027-0.243-0.082-0.468-0.165-0.675c-0.083-0.207-0.206-0.38-0.368-0.52c-0.162-0.139-0.378-0.209-0.648-0.209    S25.398,84.167,25.236,84.306z"/>
	</g>
	<g>
		<path d="M56.386,114.133c0.15-0.016,0.281-0.053,0.392-0.111c0.11-0.059,0.202-0.147,0.276-0.267s0.127-0.287,0.159-0.503h0.344    v4.725h-0.425v-3.51h-1.249v-0.304C56.067,114.159,56.235,114.149,56.386,114.133z"/>
	</g>
	<g>
		<path d="M78.742,117.977c0.004-0.234,0.045-0.441,0.121-0.621c0.077-0.18,0.178-0.342,0.304-0.486    c0.125-0.144,0.268-0.276,0.425-0.395c0.158-0.119,0.32-0.234,0.486-0.344s0.332-0.223,0.496-0.337    c0.164-0.115,0.312-0.237,0.442-0.368c0.131-0.131,0.229-0.265,0.294-0.402c0.065-0.137,0.098-0.3,0.098-0.489    c0-0.153-0.028-0.289-0.084-0.409c-0.056-0.119-0.133-0.22-0.229-0.304c-0.097-0.083-0.209-0.146-0.337-0.189    c-0.128-0.042-0.264-0.064-0.408-0.064c-0.194,0-0.359,0.036-0.496,0.108c-0.138,0.072-0.249,0.169-0.334,0.291    c-0.085,0.121-0.147,0.261-0.186,0.418c-0.038,0.157-0.055,0.324-0.05,0.5h-0.425c-0.005-0.243,0.023-0.467,0.084-0.672    c0.061-0.205,0.154-0.381,0.28-0.53s0.285-0.264,0.476-0.348c0.191-0.083,0.415-0.125,0.671-0.125    c0.207,0,0.399,0.028,0.577,0.084s0.333,0.14,0.466,0.25c0.133,0.11,0.236,0.249,0.311,0.415s0.111,0.36,0.111,0.581    c0,0.198-0.033,0.378-0.098,0.54c-0.065,0.162-0.153,0.31-0.264,0.445c-0.11,0.135-0.236,0.26-0.378,0.375    c-0.142,0.115-0.291,0.222-0.449,0.321c-0.112,0.077-0.245,0.161-0.398,0.253c-0.153,0.092-0.3,0.195-0.442,0.307    c-0.142,0.113-0.267,0.235-0.375,0.368s-0.176,0.278-0.203,0.435h2.626v0.392H78.742z"/>
	</g>
	<g>
		<path d="M102.483,116.985c0.052,0.153,0.128,0.283,0.229,0.392c0.102,0.108,0.228,0.192,0.378,0.253    c0.15,0.061,0.32,0.091,0.509,0.091c0.158,0,0.308-0.022,0.453-0.068c0.144-0.045,0.272-0.112,0.384-0.202    c0.113-0.09,0.203-0.2,0.27-0.331c0.068-0.13,0.102-0.279,0.102-0.445c0-0.171-0.029-0.318-0.088-0.442    c-0.059-0.124-0.14-0.227-0.243-0.31c-0.104-0.083-0.224-0.146-0.361-0.186s-0.285-0.061-0.442-0.061h-0.357v-0.358h0.357    c0.108,0,0.22-0.017,0.334-0.05s0.218-0.085,0.311-0.155c0.092-0.07,0.167-0.159,0.226-0.267c0.058-0.108,0.087-0.236,0.087-0.385    c0-0.158-0.027-0.292-0.081-0.402c-0.054-0.11-0.128-0.203-0.223-0.277c-0.094-0.074-0.204-0.128-0.327-0.162    c-0.124-0.034-0.258-0.051-0.402-0.051c-0.175,0-0.331,0.029-0.466,0.088c-0.135,0.059-0.249,0.141-0.341,0.246    c-0.092,0.106-0.161,0.232-0.206,0.378c-0.045,0.146-0.065,0.307-0.061,0.483h-0.425c0-0.225,0.035-0.432,0.105-0.621    c0.069-0.189,0.168-0.352,0.297-0.489s0.285-0.245,0.469-0.324c0.184-0.079,0.391-0.118,0.621-0.118    c0.185,0,0.365,0.024,0.54,0.071c0.176,0.047,0.332,0.12,0.469,0.216s0.248,0.22,0.331,0.371c0.083,0.151,0.125,0.332,0.125,0.543    c0,0.256-0.068,0.479-0.206,0.668c-0.138,0.189-0.334,0.315-0.591,0.378v0.013c0.311,0.05,0.55,0.179,0.719,0.388    c0.169,0.209,0.253,0.469,0.253,0.78c0,0.234-0.044,0.44-0.132,0.618s-0.206,0.327-0.354,0.449    c-0.148,0.122-0.322,0.212-0.52,0.273c-0.198,0.061-0.405,0.091-0.621,0.091c-0.243,0-0.467-0.036-0.671-0.108    c-0.205-0.072-0.38-0.175-0.527-0.311c-0.146-0.135-0.256-0.301-0.331-0.5c-0.074-0.198-0.103-0.425-0.084-0.682h0.425    C102.41,116.661,102.431,116.832,102.483,116.985z"/>
	</g>
	<g>
		<path d="M127.432,113.252h0.385v3.193h0.708v0.358h-0.708v1.174h-0.392v-1.174h-2.18v-0.412L127.432,113.252z M127.425,113.873    h-0.014l-1.782,2.572h1.795V113.873z"/>
	</g>
	<g>
		<path d="M149.081,117.073c0.061,0.135,0.143,0.25,0.246,0.348c0.104,0.097,0.225,0.171,0.364,0.223s0.29,0.078,0.452,0.078    c0.185,0,0.349-0.035,0.493-0.105c0.144-0.069,0.268-0.164,0.371-0.283s0.183-0.257,0.236-0.412    c0.054-0.155,0.081-0.318,0.081-0.49c0-0.175-0.03-0.337-0.092-0.486c-0.061-0.148-0.144-0.278-0.249-0.388    c-0.106-0.11-0.233-0.197-0.382-0.26s-0.311-0.095-0.485-0.095c-0.217,0-0.417,0.048-0.602,0.146    c-0.185,0.097-0.335,0.235-0.452,0.415h-0.364l0.459-2.45h2.362v0.391h-2.065l-0.304,1.566l0.014,0.013    c0.117-0.139,0.266-0.248,0.445-0.324c0.18-0.077,0.364-0.115,0.554-0.115c0.243,0,0.462,0.041,0.658,0.121    c0.195,0.081,0.362,0.194,0.499,0.338c0.138,0.144,0.243,0.316,0.317,0.516s0.111,0.42,0.111,0.658    c0,0.229-0.043,0.442-0.128,0.638c-0.086,0.196-0.202,0.365-0.352,0.506c-0.148,0.142-0.322,0.252-0.522,0.331    c-0.2,0.079-0.413,0.118-0.638,0.118c-0.221,0-0.425-0.033-0.611-0.098c-0.187-0.065-0.349-0.16-0.486-0.284    c-0.137-0.124-0.246-0.275-0.327-0.456c-0.081-0.18-0.124-0.382-0.128-0.607h0.425    C148.987,116.789,149.019,116.938,149.081,117.073z"/>
	</g>
	<g>
		<path d="M140.299,121.396h1.333l1.266,2.115l1.257-2.115h1.326l-2.008,3.3v2.055h-1.189v-2.085L140.299,121.396z"/>
		<path d="M146.132,125.821c0.161,0.155,0.394,0.233,0.697,0.233c0.217,0,0.403-0.054,0.561-0.162    c0.156-0.107,0.252-0.221,0.287-0.341h0.947c-0.151,0.465-0.384,0.798-0.697,0.998c-0.312,0.2-0.691,0.3-1.136,0.3    c-0.309,0-0.586-0.049-0.833-0.146c-0.248-0.098-0.458-0.236-0.629-0.416c-0.172-0.18-0.305-0.395-0.398-0.645    c-0.093-0.25-0.14-0.525-0.14-0.825c0-0.29,0.048-0.56,0.144-0.81c0.097-0.25,0.232-0.466,0.409-0.648s0.388-0.327,0.633-0.432    s0.517-0.157,0.814-0.157c0.333,0,0.624,0.063,0.871,0.191c0.247,0.127,0.451,0.299,0.609,0.514    c0.159,0.215,0.274,0.46,0.345,0.735c0.071,0.275,0.097,0.562,0.076,0.862h-2.826C145.882,125.416,145.97,125.666,146.132,125.821    z M147.348,123.781c-0.129-0.14-0.324-0.21-0.587-0.21c-0.172,0-0.314,0.029-0.428,0.086c-0.114,0.058-0.205,0.129-0.273,0.214    s-0.116,0.175-0.144,0.27c-0.028,0.095-0.044,0.18-0.05,0.255h1.75C147.567,124.126,147.477,123.921,147.348,123.781z"/>
		<path d="M149.284,124.066c0.016-0.25,0.078-0.458,0.189-0.623s0.253-0.297,0.425-0.397c0.171-0.1,0.364-0.171,0.579-0.214    c0.215-0.042,0.431-0.063,0.647-0.063c0.197,0,0.396,0.014,0.599,0.041c0.202,0.028,0.387,0.082,0.553,0.162    c0.167,0.08,0.304,0.191,0.409,0.333c0.106,0.143,0.159,0.332,0.159,0.566v2.018c0,0.175,0.011,0.342,0.03,0.502    c0.021,0.16,0.056,0.28,0.106,0.36h-1.091c-0.021-0.06-0.037-0.121-0.05-0.184s-0.021-0.126-0.026-0.191    c-0.172,0.175-0.373,0.297-0.605,0.368c-0.232,0.07-0.47,0.105-0.712,0.105c-0.188,0-0.361-0.022-0.523-0.068    c-0.161-0.045-0.303-0.115-0.424-0.21c-0.121-0.095-0.216-0.215-0.284-0.36s-0.103-0.317-0.103-0.518    c0-0.22,0.039-0.401,0.117-0.543c0.079-0.143,0.18-0.256,0.304-0.341c0.123-0.085,0.265-0.149,0.424-0.191    s0.319-0.076,0.481-0.101c0.161-0.025,0.32-0.045,0.477-0.06c0.157-0.015,0.296-0.038,0.417-0.067    c0.121-0.03,0.217-0.074,0.288-0.131c0.07-0.058,0.104-0.141,0.099-0.251c0-0.115-0.02-0.206-0.057-0.273    c-0.038-0.068-0.089-0.12-0.152-0.158c-0.062-0.038-0.136-0.062-0.22-0.075c-0.083-0.012-0.173-0.019-0.269-0.019    c-0.212,0-0.379,0.045-0.5,0.135c-0.121,0.09-0.192,0.24-0.212,0.45H149.284z M151.769,124.854    c-0.046,0.04-0.103,0.071-0.171,0.094s-0.142,0.041-0.22,0.056s-0.16,0.028-0.246,0.038c-0.086,0.01-0.172,0.022-0.258,0.038    c-0.08,0.015-0.16,0.035-0.238,0.06c-0.078,0.025-0.146,0.059-0.204,0.101c-0.059,0.042-0.105,0.096-0.141,0.161    s-0.053,0.147-0.053,0.248c0,0.095,0.018,0.175,0.053,0.24s0.083,0.116,0.144,0.153c0.062,0.038,0.132,0.064,0.213,0.079    c0.08,0.015,0.164,0.022,0.25,0.022c0.212,0,0.376-0.035,0.492-0.105s0.202-0.154,0.258-0.251    c0.055-0.097,0.089-0.196,0.102-0.296c0.013-0.1,0.02-0.18,0.02-0.24V124.854z"/>
		<path d="M154.701,122.874v0.72h0.016c0.05-0.12,0.118-0.231,0.204-0.333s0.185-0.19,0.296-0.263    c0.11-0.072,0.229-0.128,0.355-0.168s0.258-0.06,0.395-0.06c0.07,0,0.148,0.013,0.234,0.038v0.99    c-0.051-0.01-0.111-0.019-0.182-0.026c-0.071-0.007-0.139-0.011-0.205-0.011c-0.196,0-0.363,0.033-0.5,0.098    c-0.136,0.065-0.246,0.154-0.329,0.266c-0.083,0.113-0.143,0.244-0.178,0.394c-0.036,0.15-0.054,0.312-0.054,0.487v1.748h-1.075    v-3.877H154.701z"/>
		<path d="M157.531,125.787c0.048,0.083,0.109,0.15,0.186,0.203c0.076,0.052,0.163,0.091,0.262,0.116    c0.098,0.025,0.2,0.038,0.307,0.038c0.075,0,0.155-0.009,0.238-0.026s0.159-0.045,0.228-0.083s0.125-0.087,0.17-0.15    c0.046-0.062,0.068-0.141,0.068-0.236c0-0.16-0.107-0.28-0.322-0.36c-0.214-0.08-0.514-0.16-0.897-0.24    c-0.156-0.035-0.31-0.076-0.458-0.124c-0.149-0.047-0.281-0.11-0.397-0.188s-0.21-0.175-0.28-0.292    c-0.071-0.118-0.106-0.261-0.106-0.431c0-0.25,0.049-0.455,0.147-0.615s0.229-0.286,0.391-0.379    c0.161-0.092,0.343-0.157,0.545-0.195s0.409-0.056,0.621-0.056c0.213,0,0.418,0.02,0.618,0.06c0.199,0.04,0.377,0.107,0.534,0.202    c0.156,0.095,0.286,0.222,0.39,0.379c0.104,0.158,0.165,0.356,0.186,0.596h-1.022c-0.016-0.205-0.094-0.344-0.235-0.416    c-0.141-0.073-0.308-0.109-0.5-0.109c-0.061,0-0.126,0.004-0.196,0.011c-0.071,0.007-0.136,0.024-0.193,0.049    c-0.059,0.025-0.107,0.061-0.147,0.109c-0.041,0.047-0.061,0.111-0.061,0.191c0,0.095,0.035,0.173,0.105,0.232    c0.071,0.06,0.163,0.109,0.276,0.146c0.114,0.038,0.244,0.071,0.391,0.101c0.146,0.03,0.295,0.063,0.446,0.098    c0.157,0.035,0.31,0.078,0.459,0.127c0.148,0.05,0.281,0.116,0.397,0.199s0.21,0.185,0.28,0.308s0.106,0.274,0.106,0.454    c0,0.255-0.052,0.469-0.155,0.642c-0.104,0.172-0.239,0.311-0.405,0.416c-0.167,0.105-0.357,0.179-0.572,0.221    s-0.434,0.064-0.655,0.064c-0.228,0-0.449-0.022-0.667-0.068c-0.217-0.045-0.41-0.12-0.579-0.225s-0.309-0.244-0.417-0.417    s-0.168-0.389-0.178-0.648h1.022C157.458,125.606,157.483,125.705,157.531,125.787z"/>
	</g>
	<g>
		<path d="M174.254,113.812c-0.174-0.162-0.397-0.243-0.672-0.243s-0.497,0.07-0.668,0.209c-0.172,0.14-0.304,0.315-0.398,0.527    s-0.157,0.44-0.189,0.685c-0.031,0.245-0.047,0.476-0.047,0.692h0.014c0.112-0.234,0.282-0.423,0.51-0.567    c0.227-0.144,0.476-0.216,0.745-0.216c0.239,0,0.454,0.04,0.645,0.118c0.191,0.079,0.354,0.188,0.49,0.328    c0.135,0.139,0.239,0.306,0.313,0.5c0.074,0.193,0.111,0.405,0.111,0.634s-0.039,0.442-0.118,0.638    c-0.079,0.196-0.188,0.365-0.331,0.506c-0.142,0.142-0.311,0.252-0.506,0.331c-0.195,0.079-0.411,0.118-0.645,0.118    c-0.288,0-0.536-0.044-0.742-0.132c-0.207-0.088-0.378-0.23-0.514-0.429c-0.135-0.198-0.235-0.456-0.3-0.773    c-0.065-0.317-0.099-0.708-0.099-1.171c0-0.095,0.006-0.218,0.018-0.371c0.011-0.153,0.037-0.316,0.077-0.49    c0.041-0.173,0.098-0.349,0.173-0.526c0.074-0.178,0.173-0.338,0.297-0.482c0.123-0.144,0.277-0.261,0.462-0.351    c0.185-0.09,0.405-0.135,0.661-0.135c0.424,0,0.759,0.102,1.006,0.304c0.248,0.203,0.396,0.513,0.446,0.932h-0.426    C174.532,114.186,174.427,113.974,174.254,113.812z M173.045,115.354c-0.146,0.065-0.27,0.154-0.371,0.267    c-0.101,0.113-0.178,0.244-0.229,0.395s-0.077,0.314-0.077,0.489c0,0.167,0.022,0.324,0.067,0.473s0.115,0.278,0.213,0.388    c0.097,0.11,0.219,0.197,0.367,0.26s0.326,0.095,0.533,0.095c0.171,0,0.325-0.033,0.463-0.098    c0.137-0.065,0.257-0.153,0.357-0.263c0.102-0.11,0.179-0.24,0.233-0.388c0.054-0.148,0.081-0.304,0.081-0.466    c0-0.171-0.026-0.333-0.078-0.486s-0.126-0.286-0.223-0.398c-0.097-0.112-0.216-0.201-0.357-0.267    c-0.142-0.065-0.303-0.098-0.483-0.098C173.357,115.257,173.192,115.29,173.045,115.354z"/>
	</g>
	<g>
		<path d="M198.238,113.313v0.391c-0.148,0.153-0.326,0.359-0.533,0.618s-0.408,0.567-0.604,0.925    c-0.195,0.358-0.366,0.765-0.513,1.222c-0.146,0.457-0.233,0.96-0.26,1.509h-0.459c0.026-0.4,0.082-0.778,0.165-1.134    s0.203-0.703,0.357-1.043c0.155-0.34,0.35-0.681,0.581-1.023c0.231-0.342,0.512-0.7,0.84-1.073h-2.611v-0.391H198.238z"/>
	</g>
	<g>
		<path d="M221.233,115.051c-0.136,0.183-0.324,0.31-0.567,0.381v0.014c0.311,0.063,0.549,0.199,0.716,0.408    c0.166,0.209,0.249,0.476,0.249,0.8c0,0.239-0.043,0.447-0.128,0.625c-0.086,0.178-0.202,0.325-0.351,0.442    c-0.148,0.117-0.321,0.205-0.517,0.263c-0.196,0.058-0.406,0.088-0.631,0.088c-0.221,0-0.431-0.03-0.628-0.088    c-0.198-0.059-0.371-0.146-0.521-0.263c-0.148-0.117-0.265-0.265-0.351-0.442s-0.128-0.386-0.128-0.625    c0.009-0.31,0.097-0.576,0.263-0.796c0.167-0.22,0.398-0.357,0.695-0.412v-0.014c-0.247-0.076-0.438-0.204-0.57-0.381    s-0.199-0.397-0.199-0.658c0-0.202,0.042-0.378,0.125-0.526s0.192-0.271,0.327-0.368c0.136-0.097,0.288-0.169,0.459-0.216    c0.171-0.047,0.345-0.071,0.521-0.071c0.175,0,0.349,0.024,0.52,0.071c0.171,0.047,0.325,0.12,0.462,0.216    c0.138,0.097,0.248,0.219,0.331,0.368s0.125,0.324,0.125,0.526C221.435,114.649,221.368,114.869,221.233,115.051z     M220.473,117.656c0.146-0.042,0.273-0.108,0.381-0.196c0.108-0.087,0.194-0.199,0.257-0.334c0.063-0.135,0.095-0.292,0.095-0.473    c0-0.171-0.033-0.32-0.098-0.449c-0.065-0.128-0.153-0.236-0.264-0.324c-0.11-0.088-0.238-0.153-0.385-0.196    c-0.146-0.043-0.298-0.062-0.455-0.058c-0.162-0.004-0.316,0.014-0.463,0.054s-0.273,0.104-0.381,0.192    c-0.108,0.088-0.195,0.197-0.261,0.327c-0.064,0.131-0.098,0.281-0.098,0.452c0,0.176,0.031,0.331,0.095,0.466    c0.062,0.135,0.148,0.247,0.257,0.334c0.107,0.087,0.234,0.154,0.381,0.199c0.146,0.045,0.303,0.068,0.47,0.068    C220.17,117.721,220.327,117.699,220.473,117.656z M220.382,115.227c0.121-0.034,0.228-0.087,0.32-0.159    c0.092-0.072,0.166-0.164,0.223-0.277c0.057-0.112,0.084-0.245,0.084-0.398c0-0.135-0.025-0.254-0.077-0.357    s-0.123-0.189-0.213-0.257c-0.09-0.067-0.195-0.119-0.317-0.155c-0.121-0.036-0.254-0.054-0.397-0.054    c-0.131,0-0.257,0.018-0.379,0.054c-0.121,0.036-0.229,0.087-0.323,0.155c-0.095,0.068-0.17,0.153-0.227,0.257    s-0.084,0.223-0.084,0.357c0,0.158,0.029,0.293,0.088,0.405c0.058,0.112,0.135,0.205,0.229,0.277    c0.094,0.072,0.202,0.124,0.323,0.155c0.122,0.031,0.245,0.045,0.372,0.041C220.134,115.275,220.26,115.26,220.382,115.227z"/>
	</g>
	<g>
		<path d="M242.481,117.478c0.174,0.162,0.397,0.243,0.672,0.243c0.279,0,0.503-0.07,0.672-0.209c0.169-0.139,0.3-0.315,0.395-0.526    s0.157-0.44,0.189-0.685c0.031-0.245,0.047-0.476,0.047-0.692h-0.014c-0.112,0.234-0.282,0.423-0.51,0.567    c-0.227,0.144-0.476,0.216-0.745,0.216c-0.234,0-0.448-0.039-0.642-0.118c-0.193-0.079-0.357-0.188-0.493-0.327    c-0.135-0.14-0.239-0.306-0.313-0.5s-0.111-0.405-0.111-0.634s0.039-0.442,0.118-0.638s0.189-0.364,0.331-0.506    c0.142-0.142,0.311-0.253,0.506-0.334c0.196-0.081,0.411-0.122,0.645-0.122c0.288,0,0.535,0.044,0.742,0.132    s0.379,0.232,0.514,0.432s0.235,0.46,0.3,0.779c0.065,0.32,0.099,0.709,0.099,1.168c0,0.094-0.006,0.218-0.018,0.371    c-0.011,0.153-0.037,0.316-0.077,0.489c-0.041,0.173-0.098,0.349-0.172,0.527s-0.174,0.337-0.298,0.479    c-0.123,0.142-0.277,0.258-0.462,0.348s-0.405,0.135-0.661,0.135c-0.424,0-0.759-0.1-1.006-0.301    c-0.248-0.2-0.396-0.509-0.445-0.928h0.425C242.204,117.104,242.308,117.315,242.481,117.478z M243.69,115.935    c0.146-0.065,0.27-0.154,0.371-0.267c0.101-0.112,0.178-0.244,0.229-0.395c0.052-0.15,0.077-0.313,0.077-0.489    c0-0.171-0.022-0.33-0.067-0.476c-0.045-0.146-0.116-0.274-0.213-0.385s-0.219-0.197-0.367-0.26    c-0.148-0.062-0.326-0.094-0.533-0.094c-0.167,0-0.32,0.033-0.459,0.098c-0.14,0.065-0.26,0.153-0.361,0.264    c-0.102,0.11-0.179,0.239-0.233,0.388c-0.054,0.149-0.081,0.304-0.081,0.466c0,0.171,0.026,0.333,0.078,0.486    c0.052,0.153,0.126,0.286,0.223,0.398c0.097,0.113,0.216,0.202,0.357,0.267c0.143,0.065,0.303,0.098,0.483,0.098    C243.377,116.033,243.543,116,243.69,115.935z"/>
	</g>
	<g>
		<path d="M263.951,114.133c0.151-0.016,0.281-0.053,0.392-0.111s0.203-0.147,0.277-0.267s0.127-0.287,0.158-0.503h0.345v4.725    h-0.426v-3.51h-1.249v-0.304C263.632,114.159,263.8,114.149,263.951,114.133z"/>
		<path d="M269.263,113.438c0.214,0.151,0.38,0.343,0.5,0.577c0.119,0.234,0.2,0.495,0.242,0.783    c0.043,0.288,0.064,0.569,0.064,0.844c0,0.279-0.021,0.562-0.064,0.851c-0.042,0.288-0.123,0.549-0.242,0.783    c-0.12,0.234-0.286,0.425-0.5,0.574s-0.494,0.223-0.84,0.223c-0.343,0-0.621-0.075-0.838-0.223    c-0.216-0.148-0.383-0.339-0.502-0.574c-0.12-0.234-0.201-0.495-0.243-0.783c-0.043-0.288-0.064-0.569-0.064-0.844    c0-0.279,0.021-0.562,0.064-0.851c0.042-0.288,0.123-0.549,0.243-0.783c0.119-0.234,0.286-0.426,0.502-0.577    c0.217-0.15,0.495-0.226,0.838-0.226C268.769,113.211,269.049,113.287,269.263,113.438z M267.775,113.778    c-0.162,0.14-0.285,0.313-0.368,0.52s-0.138,0.432-0.165,0.675c-0.027,0.243-0.041,0.466-0.041,0.668    c0,0.207,0.014,0.431,0.041,0.671c0.027,0.241,0.082,0.466,0.165,0.675c0.083,0.209,0.206,0.384,0.368,0.523    c0.162,0.14,0.378,0.209,0.648,0.209c0.27,0,0.485-0.07,0.647-0.209c0.162-0.139,0.284-0.314,0.368-0.523    c0.083-0.209,0.138-0.434,0.165-0.675c0.027-0.241,0.041-0.464,0.041-0.671c0-0.203-0.014-0.425-0.041-0.668    c-0.027-0.243-0.082-0.468-0.165-0.675c-0.084-0.207-0.206-0.38-0.368-0.52c-0.162-0.139-0.378-0.209-0.647-0.209    C268.153,113.569,267.937,113.639,267.775,113.778z"/>
	</g>
	<polyline fill="none" stroke="#000000" stroke-width="0.5" stroke-linecap="square" stroke-miterlimit="10" points="34.035,3.191    34.035,107.122 266.546,107.122  "/>
	<g>
		<line fill="none" stroke="#000000" stroke-width="0.5" stroke-miterlimit="10" x1="34.035" y1="3.132" x2="30.876" y2="3.132"/>
		<line fill="none" stroke="#000000" stroke-width="0.5" stroke-miterlimit="10" x1="34.035" y1="23.87" x2="30.876" y2="23.87"/>
	</g>
	<line fill="none" stroke="#000000" stroke-width="0.5" stroke-miterlimit="10" x1="33.86" y1="13.501" x2="30.701" y2="13.501"/>
	<line fill="none" stroke="#000000" stroke-width="0.5" stroke-miterlimit="10" x1="34.035" y1="44.632" x2="30.876" y2="44.632"/>
	<line fill="none" stroke="#000000" stroke-width="0.5" stroke-miterlimit="10" x1="34.035" y1="34.255" x2="30.876" y2="34.255"/>
	<line fill="none" stroke="#000000" stroke-width="0.5" stroke-miterlimit="10" x1="34.035" y1="65.386" x2="30.876" y2="65.386"/>
	<line fill="none" stroke="#000000" stroke-width="0.5" stroke-miterlimit="10" x1="34.035" y1="55.009" x2="30.876" y2="55.009"/>
	<line fill="none" stroke="#000000" stroke-width="0.5" stroke-miterlimit="10" x1="34.035" y1="86.141" x2="30.876" y2="86.141"/>
	<line fill="none" stroke="#000000" stroke-width="0.5" stroke-miterlimit="10" x1="34.035" y1="75.764" x2="30.876" y2="75.764"/>
	<line fill="none" stroke="#000000" stroke-width="0.5" stroke-miterlimit="10" x1="34.035" y1="96.631" x2="30.876" y2="96.631"/>
	
		<line fill="none" stroke="#000000" stroke-width="0.5" stroke-miterlimit="10" x1="57.104" y1="107.122" x2="57.104" y2="110.122"/>
	
		<line fill="none" stroke="#000000" stroke-width="0.5" stroke-miterlimit="10" x1="80.375" y1="107.122" x2="80.375" y2="110.122"/>
	
		<line fill="none" stroke="#000000" stroke-width="0.5" stroke-miterlimit="10" x1="103.646" y1="107.122" x2="103.646" y2="110.122"/>
	
		<line fill="none" stroke="#000000" stroke-width="0.5" stroke-miterlimit="10" x1="126.918" y1="107.122" x2="126.918" y2="110.122"/>
	
		<line fill="none" stroke="#000000" stroke-width="0.5" stroke-miterlimit="10" x1="150.189" y1="107.122" x2="150.189" y2="110.122"/>
	
		<line fill="none" stroke="#000000" stroke-width="0.5" stroke-miterlimit="10" x1="173.46" y1="107.122" x2="173.46" y2="110.122"/>
	
		<line fill="none" stroke="#000000" stroke-width="0.5" stroke-miterlimit="10" x1="196.732" y1="107.122" x2="196.732" y2="110.122"/>
	
		<line fill="none" stroke="#000000" stroke-width="0.5" stroke-miterlimit="10" x1="220.003" y1="107.122" x2="220.003" y2="110.122"/>
	
		<line fill="none" stroke="#000000" stroke-width="0.5" stroke-miterlimit="10" x1="243.275" y1="107.122" x2="243.275" y2="110.122"/>
	
		<line fill="none" stroke="#000000" stroke-width="0.5" stroke-miterlimit="10" x1="266.546" y1="107.122" x2="266.546" y2="110.122"/>
	<line fill="none" stroke="#7A9AA8" stroke-width="2.5" stroke-miterlimit="10" x1="264.507" y1="22.134" x2="34.035" y2="3.557"/>
	<path fill="none" stroke="#F47920" stroke-width="2.5" stroke-linecap="round" stroke-linejoin="round" stroke-miterlimit="10" d="   M34.405,3.642c8.512,3.285,82.643,31.808,119.789,40.035c22.063,5.609,100.22,22.568,112.437,23.441"/>
</g>
<g id="_x3C_Layer_x3E_">
	<g>
		<g>
			<path d="M142.655,48.784c0.174,0,0.344-0.014,0.508-0.043s0.312-0.077,0.445-0.146c0.134-0.067,0.247-0.154,0.341-0.261     c0.095-0.106,0.156-0.236,0.186-0.392h0.674v5.075h-0.906v-3.581h-1.247V48.784z"/>
			<path d="M148.317,47.841c0.362,0,0.658,0.084,0.889,0.25c0.229,0.167,0.408,0.38,0.536,0.639s0.215,0.542,0.261,0.852     s0.069,0.609,0.069,0.899s-0.023,0.589-0.069,0.898s-0.133,0.594-0.261,0.852c-0.128,0.259-0.307,0.472-0.536,0.639     c-0.23,0.167-0.526,0.25-0.889,0.25s-0.658-0.083-0.888-0.25s-0.409-0.38-0.537-0.639c-0.128-0.258-0.215-0.542-0.261-0.852     s-0.068-0.608-0.068-0.898s0.022-0.59,0.068-0.899s0.133-0.593,0.261-0.852s0.308-0.472,0.537-0.639     C147.659,47.925,147.955,47.841,148.317,47.841z M148.317,52.431c0.179,0,0.329-0.052,0.449-0.156     c0.121-0.104,0.217-0.244,0.287-0.421c0.069-0.176,0.119-0.383,0.148-0.619c0.029-0.237,0.043-0.488,0.043-0.754     c0-0.267-0.014-0.517-0.043-0.751s-0.079-0.44-0.148-0.62c-0.07-0.179-0.166-0.319-0.287-0.424     c-0.12-0.104-0.271-0.155-0.449-0.155c-0.184,0-0.335,0.052-0.453,0.155c-0.118,0.104-0.213,0.245-0.282,0.424     c-0.07,0.18-0.12,0.386-0.149,0.62c-0.028,0.234-0.043,0.484-0.043,0.751c0,0.266,0.015,0.517,0.043,0.754     c0.029,0.236,0.079,0.443,0.149,0.619c0.069,0.177,0.164,0.317,0.282,0.421C147.982,52.379,148.133,52.431,148.317,52.431z"/>
			<path d="M152.137,50.727c-0.217,0-0.403-0.039-0.558-0.116c-0.155-0.077-0.28-0.181-0.377-0.312s-0.167-0.283-0.211-0.457     c-0.043-0.174-0.064-0.359-0.064-0.558c0-0.193,0.022-0.379,0.068-0.555c0.046-0.177,0.118-0.33,0.218-0.461     c0.099-0.13,0.225-0.234,0.377-0.312s0.334-0.116,0.547-0.116s0.396,0.039,0.548,0.116s0.277,0.182,0.377,0.312     c0.099,0.131,0.172,0.284,0.218,0.461c0.046,0.176,0.068,0.361,0.068,0.555c0,0.198-0.021,0.384-0.065,0.558     c-0.043,0.174-0.113,0.326-0.21,0.457s-0.223,0.234-0.377,0.312S152.355,50.727,152.137,50.727z M151.58,49.285     c0,0.135,0.01,0.262,0.028,0.38c0.02,0.119,0.051,0.222,0.095,0.309c0.043,0.087,0.101,0.156,0.17,0.207     c0.07,0.05,0.156,0.075,0.258,0.075s0.188-0.025,0.261-0.075c0.072-0.051,0.131-0.12,0.174-0.207     c0.044-0.087,0.076-0.189,0.099-0.309c0.021-0.118,0.032-0.245,0.032-0.38c0-0.121-0.009-0.239-0.025-0.355     s-0.047-0.22-0.091-0.312c-0.043-0.092-0.102-0.166-0.174-0.222s-0.164-0.083-0.275-0.083s-0.203,0.027-0.275,0.083     s-0.13,0.13-0.171,0.222s-0.068,0.195-0.083,0.312S151.58,49.164,151.58,49.285z M155.038,47.769h0.551l-2.806,5.423h-0.565     L155.038,47.769z M155.777,53.12c-0.218,0-0.403-0.039-0.558-0.116c-0.155-0.077-0.281-0.181-0.378-0.312     s-0.166-0.283-0.21-0.457c-0.043-0.174-0.065-0.359-0.065-0.558c0-0.193,0.023-0.379,0.069-0.555     c0.046-0.177,0.118-0.33,0.218-0.461c0.099-0.13,0.225-0.234,0.377-0.312s0.334-0.116,0.547-0.116s0.396,0.039,0.548,0.116     s0.277,0.182,0.377,0.312c0.099,0.131,0.171,0.284,0.217,0.461c0.046,0.176,0.069,0.361,0.069,0.555     c0,0.198-0.021,0.384-0.065,0.558c-0.043,0.174-0.113,0.326-0.21,0.457s-0.223,0.234-0.377,0.312     C156.18,53.081,155.995,53.12,155.777,53.12z M155.219,51.677c0,0.135,0.009,0.262,0.028,0.38     c0.02,0.119,0.051,0.222,0.095,0.309c0.043,0.087,0.1,0.155,0.17,0.206s0.156,0.076,0.258,0.076s0.188-0.025,0.261-0.076     s0.131-0.119,0.174-0.206c0.044-0.087,0.076-0.189,0.098-0.309c0.022-0.118,0.033-0.245,0.033-0.38     c0-0.121-0.009-0.239-0.025-0.355c-0.018-0.116-0.047-0.22-0.091-0.312s-0.102-0.166-0.174-0.222s-0.164-0.083-0.275-0.083     s-0.203,0.027-0.275,0.083c-0.073,0.056-0.13,0.13-0.171,0.222s-0.068,0.195-0.083,0.312S155.219,51.556,155.219,51.677z"/>
			<path d="M146.237,61.768h-0.783V61.26h-0.015c-0.111,0.218-0.273,0.374-0.485,0.468c-0.213,0.095-0.438,0.142-0.675,0.142     c-0.295,0-0.552-0.052-0.771-0.156c-0.221-0.104-0.402-0.245-0.548-0.424c-0.145-0.179-0.254-0.391-0.326-0.635     c-0.072-0.243-0.108-0.506-0.108-0.786c0-0.338,0.046-0.631,0.138-0.877c0.092-0.247,0.214-0.45,0.366-0.609     c0.151-0.159,0.326-0.276,0.521-0.352c0.196-0.075,0.396-0.112,0.599-0.112c0.115,0,0.234,0.011,0.354,0.032     c0.121,0.022,0.237,0.057,0.349,0.105c0.11,0.048,0.214,0.11,0.308,0.185c0.095,0.075,0.173,0.163,0.235,0.265h0.015v-1.914     h0.827V61.768z M143.351,59.934c0,0.159,0.021,0.316,0.062,0.471c0.041,0.155,0.104,0.293,0.188,0.413     c0.085,0.121,0.192,0.218,0.322,0.29c0.131,0.073,0.285,0.109,0.465,0.109c0.184,0,0.342-0.039,0.475-0.116     s0.241-0.179,0.326-0.305c0.084-0.125,0.147-0.267,0.188-0.424s0.062-0.317,0.062-0.482c0-0.415-0.093-0.739-0.279-0.972     c-0.186-0.231-0.438-0.348-0.758-0.348c-0.193,0-0.356,0.04-0.489,0.12c-0.133,0.079-0.241,0.184-0.326,0.312     c-0.084,0.128-0.145,0.272-0.181,0.435C143.369,59.599,143.351,59.765,143.351,59.934z"/>
			<path d="M147.157,56.591h0.827v0.783h-0.827V56.591z M147.157,58.02h0.827v3.748h-0.827V58.02z"/>
			<path d="M149.506,60.565c0.023,0.241,0.115,0.41,0.275,0.507c0.159,0.097,0.351,0.146,0.572,0.146     c0.077,0,0.166-0.006,0.265-0.019c0.1-0.012,0.192-0.035,0.279-0.068c0.087-0.034,0.158-0.084,0.214-0.149     c0.056-0.064,0.081-0.15,0.076-0.257s-0.044-0.193-0.116-0.261c-0.072-0.068-0.165-0.122-0.279-0.163     c-0.113-0.041-0.242-0.076-0.388-0.105c-0.145-0.029-0.292-0.061-0.442-0.095c-0.154-0.033-0.303-0.074-0.445-0.123     c-0.143-0.048-0.271-0.113-0.385-0.195c-0.113-0.082-0.204-0.188-0.271-0.315s-0.102-0.286-0.102-0.475     c0-0.203,0.05-0.374,0.148-0.512c0.1-0.138,0.225-0.249,0.377-0.333c0.152-0.085,0.321-0.144,0.508-0.178     c0.186-0.034,0.363-0.051,0.533-0.051c0.192,0,0.378,0.021,0.555,0.062c0.176,0.041,0.335,0.107,0.478,0.199     s0.262,0.212,0.355,0.359c0.095,0.147,0.153,0.325,0.178,0.532h-0.862c-0.039-0.198-0.13-0.331-0.272-0.398     s-0.306-0.102-0.489-0.102c-0.058,0-0.127,0.005-0.206,0.015c-0.08,0.01-0.155,0.027-0.226,0.055     c-0.069,0.026-0.129,0.064-0.177,0.115c-0.049,0.051-0.073,0.117-0.073,0.199c0,0.102,0.035,0.185,0.105,0.247     s0.162,0.115,0.275,0.156s0.243,0.075,0.388,0.104c0.146,0.029,0.295,0.061,0.45,0.095c0.149,0.033,0.297,0.074,0.441,0.123     c0.146,0.048,0.274,0.113,0.389,0.195c0.113,0.083,0.205,0.187,0.275,0.312c0.069,0.125,0.104,0.28,0.104,0.464     c0,0.222-0.051,0.41-0.152,0.565c-0.101,0.154-0.232,0.28-0.395,0.377s-0.342,0.167-0.54,0.21     c-0.198,0.044-0.395,0.065-0.588,0.065c-0.236,0-0.455-0.026-0.655-0.08c-0.201-0.053-0.375-0.134-0.522-0.242     c-0.147-0.109-0.264-0.244-0.348-0.406c-0.085-0.162-0.13-0.354-0.135-0.576H149.506z"/>
			<path d="M155.175,59.274c-0.034-0.231-0.127-0.407-0.279-0.525s-0.344-0.178-0.576-0.178c-0.106,0-0.22,0.019-0.341,0.055     s-0.231,0.104-0.333,0.203c-0.102,0.099-0.187,0.236-0.254,0.413c-0.068,0.176-0.102,0.407-0.102,0.692     c0,0.154,0.018,0.31,0.055,0.464c0.036,0.154,0.094,0.292,0.174,0.413c0.079,0.121,0.183,0.219,0.308,0.294     c0.126,0.074,0.278,0.112,0.457,0.112c0.241,0,0.441-0.075,0.598-0.225c0.157-0.15,0.255-0.36,0.294-0.631h0.827     c-0.078,0.488-0.263,0.861-0.555,1.12c-0.293,0.259-0.681,0.388-1.164,0.388c-0.295,0-0.555-0.05-0.779-0.148     c-0.225-0.1-0.415-0.234-0.569-0.406s-0.271-0.376-0.352-0.612c-0.08-0.237-0.119-0.493-0.119-0.769     c0-0.28,0.038-0.544,0.115-0.79c0.077-0.247,0.193-0.461,0.349-0.643c0.154-0.181,0.347-0.323,0.576-0.428     c0.229-0.104,0.499-0.155,0.809-0.155c0.217,0,0.424,0.027,0.619,0.083c0.196,0.056,0.37,0.14,0.522,0.25     c0.152,0.111,0.276,0.252,0.373,0.421s0.155,0.37,0.175,0.602H155.175z"/>
			<path d="M158.394,61.87c-0.3,0-0.566-0.05-0.801-0.148c-0.234-0.1-0.433-0.236-0.595-0.41s-0.285-0.382-0.37-0.623     c-0.084-0.242-0.126-0.508-0.126-0.798c0-0.285,0.042-0.548,0.126-0.79c0.085-0.241,0.208-0.449,0.37-0.623     c0.162-0.175,0.36-0.311,0.595-0.41c0.234-0.099,0.501-0.148,0.801-0.148s0.566,0.05,0.802,0.148     c0.234,0.1,0.432,0.235,0.594,0.41c0.162,0.174,0.285,0.382,0.37,0.623c0.084,0.242,0.127,0.505,0.127,0.79     c0,0.29-0.043,0.556-0.127,0.798c-0.085,0.241-0.208,0.449-0.37,0.623s-0.359,0.311-0.594,0.41     C158.96,61.82,158.694,61.87,158.394,61.87z M158.394,61.217c0.184,0,0.344-0.039,0.479-0.116     c0.136-0.077,0.247-0.179,0.334-0.305c0.087-0.125,0.15-0.267,0.191-0.424s0.062-0.317,0.062-0.482     c0-0.159-0.021-0.318-0.062-0.479c-0.041-0.159-0.104-0.301-0.191-0.424s-0.198-0.224-0.334-0.301     c-0.135-0.077-0.295-0.116-0.479-0.116s-0.343,0.039-0.479,0.116c-0.135,0.077-0.246,0.178-0.333,0.301s-0.151,0.265-0.192,0.424     c-0.041,0.16-0.062,0.319-0.062,0.479c0,0.165,0.021,0.325,0.062,0.482s0.105,0.299,0.192,0.424     c0.087,0.126,0.198,0.228,0.333,0.305C158.051,61.178,158.21,61.217,158.394,61.217z"/>
			<path d="M164.267,61.768h-0.812v-0.522h-0.015c-0.102,0.188-0.252,0.34-0.453,0.453c-0.2,0.114-0.404,0.171-0.612,0.171     c-0.493,0-0.85-0.122-1.069-0.366s-0.33-0.612-0.33-1.105V58.02h0.827v2.298c0,0.329,0.062,0.561,0.188,0.696     c0.125,0.136,0.302,0.203,0.529,0.203c0.174,0,0.318-0.026,0.435-0.08c0.116-0.053,0.21-0.124,0.282-0.214     c0.073-0.089,0.125-0.197,0.156-0.322c0.031-0.126,0.047-0.262,0.047-0.406V58.02h0.827V61.768z"/>
			<path d="M165.137,58.02h0.782v0.551l0.015,0.015c0.126-0.208,0.29-0.371,0.493-0.489s0.428-0.178,0.675-0.178     c0.41,0,0.734,0.106,0.971,0.319c0.237,0.212,0.355,0.531,0.355,0.956v2.574h-0.826v-2.356c-0.01-0.295-0.072-0.509-0.188-0.642     s-0.298-0.199-0.544-0.199c-0.141,0-0.266,0.025-0.377,0.076s-0.205,0.121-0.283,0.21c-0.077,0.09-0.138,0.195-0.181,0.315     c-0.044,0.121-0.065,0.249-0.065,0.385v2.211h-0.826V58.02z"/>
			<path d="M168.921,58.02h0.624v-1.124h0.826v1.124h0.747v0.616h-0.747v2.001c0,0.087,0.004,0.162,0.011,0.225     c0.008,0.062,0.024,0.116,0.051,0.159c0.026,0.044,0.066,0.076,0.12,0.099c0.053,0.021,0.125,0.032,0.217,0.032     c0.059,0,0.116-0.001,0.174-0.004c0.059-0.002,0.116-0.011,0.175-0.025v0.639c-0.092,0.009-0.182,0.019-0.269,0.028     s-0.177,0.015-0.269,0.015c-0.217,0-0.393-0.021-0.525-0.062s-0.237-0.102-0.312-0.182c-0.075-0.079-0.126-0.18-0.152-0.301     c-0.026-0.12-0.043-0.258-0.047-0.413v-2.211h-0.624V58.02z"/>
			<path d="M173.728,58.02h0.776v0.725h0.014c0.024-0.102,0.071-0.2,0.142-0.297s0.155-0.186,0.254-0.265     c0.099-0.08,0.209-0.144,0.33-0.192c0.12-0.048,0.244-0.072,0.369-0.072c0.097,0,0.163,0.002,0.2,0.007     c0.036,0.005,0.073,0.01,0.112,0.015v0.798c-0.059-0.01-0.117-0.019-0.178-0.025c-0.061-0.008-0.12-0.011-0.178-0.011     c-0.141,0-0.272,0.027-0.396,0.083s-0.23,0.138-0.322,0.246c-0.092,0.109-0.164,0.243-0.218,0.402     c-0.053,0.16-0.079,0.344-0.079,0.552v1.783h-0.827V58.02z"/>
			<path d="M179.419,60.934c0,0.102,0.013,0.174,0.04,0.218c0.026,0.044,0.078,0.065,0.155,0.065c0.024,0,0.054,0,0.087,0     c0.034,0,0.073-0.005,0.116-0.015v0.572c-0.029,0.01-0.066,0.021-0.112,0.033c-0.046,0.012-0.093,0.022-0.142,0.032     c-0.048,0.01-0.097,0.018-0.145,0.022c-0.049,0.004-0.09,0.007-0.123,0.007c-0.17,0-0.31-0.034-0.421-0.102     s-0.184-0.186-0.218-0.355c-0.164,0.16-0.366,0.275-0.605,0.349c-0.239,0.072-0.47,0.108-0.692,0.108     c-0.169,0-0.331-0.023-0.485-0.069s-0.291-0.113-0.409-0.202c-0.119-0.09-0.213-0.203-0.283-0.341s-0.105-0.299-0.105-0.482     c0-0.232,0.043-0.421,0.127-0.565c0.085-0.146,0.196-0.259,0.334-0.341s0.292-0.142,0.464-0.178s0.345-0.064,0.519-0.083     c0.149-0.029,0.292-0.05,0.428-0.062c0.135-0.013,0.255-0.033,0.358-0.062c0.104-0.028,0.187-0.073,0.247-0.134     c0.06-0.061,0.09-0.151,0.09-0.271c0-0.106-0.025-0.193-0.076-0.262c-0.051-0.067-0.113-0.119-0.188-0.155     c-0.074-0.036-0.158-0.061-0.25-0.072c-0.092-0.013-0.179-0.019-0.261-0.019c-0.232,0-0.423,0.049-0.572,0.145     c-0.15,0.098-0.235,0.247-0.254,0.45h-0.827c0.015-0.242,0.073-0.442,0.175-0.602c0.101-0.16,0.23-0.288,0.388-0.385     s0.334-0.164,0.532-0.203c0.198-0.038,0.401-0.058,0.609-0.058c0.184,0,0.365,0.02,0.544,0.058     c0.179,0.039,0.339,0.102,0.482,0.188c0.142,0.087,0.257,0.199,0.344,0.337c0.087,0.139,0.131,0.307,0.131,0.504V60.934z      M178.592,59.89c-0.125,0.082-0.28,0.132-0.464,0.148c-0.184,0.018-0.367,0.043-0.551,0.076     c-0.087,0.015-0.172,0.035-0.254,0.062c-0.082,0.027-0.154,0.063-0.217,0.109c-0.063,0.046-0.113,0.106-0.149,0.181     c-0.036,0.075-0.054,0.166-0.054,0.272c0,0.092,0.026,0.169,0.079,0.231c0.054,0.063,0.117,0.112,0.192,0.149     c0.075,0.036,0.157,0.062,0.246,0.076c0.09,0.014,0.171,0.021,0.243,0.021c0.092,0,0.191-0.013,0.298-0.036     c0.105-0.024,0.206-0.065,0.301-0.124c0.094-0.058,0.173-0.131,0.235-0.221s0.094-0.199,0.094-0.33V59.89z"/>
			<path d="M179.934,58.02h0.623v-1.124h0.826v1.124h0.747v0.616h-0.747v2.001c0,0.087,0.004,0.162,0.012,0.225     c0.007,0.062,0.023,0.116,0.051,0.159c0.026,0.044,0.066,0.076,0.119,0.099c0.053,0.021,0.126,0.032,0.218,0.032     c0.058,0,0.116-0.001,0.174-0.004c0.058-0.002,0.116-0.011,0.174-0.025v0.639c-0.092,0.009-0.181,0.019-0.269,0.028     c-0.087,0.01-0.176,0.015-0.268,0.015c-0.218,0-0.393-0.021-0.526-0.062c-0.133-0.041-0.236-0.102-0.312-0.182     c-0.075-0.079-0.125-0.18-0.152-0.301c-0.026-0.12-0.042-0.258-0.047-0.413v-2.211h-0.623V58.02z"/>
			<path d="M183.37,60.108c0,0.145,0.021,0.285,0.062,0.42c0.041,0.136,0.103,0.254,0.185,0.355s0.186,0.183,0.312,0.243     s0.275,0.091,0.449,0.091c0.242,0,0.437-0.052,0.584-0.156c0.147-0.104,0.258-0.26,0.33-0.468h0.783     c-0.044,0.203-0.119,0.385-0.226,0.544c-0.105,0.159-0.234,0.294-0.384,0.402c-0.15,0.109-0.318,0.191-0.504,0.247     c-0.187,0.055-0.381,0.083-0.584,0.083c-0.295,0-0.556-0.049-0.782-0.146c-0.228-0.096-0.42-0.231-0.577-0.405     s-0.275-0.382-0.354-0.624c-0.08-0.241-0.12-0.507-0.12-0.797c0-0.267,0.042-0.519,0.127-0.758s0.205-0.449,0.362-0.631     s0.347-0.325,0.569-0.432s0.474-0.159,0.754-0.159c0.295,0,0.56,0.062,0.794,0.185s0.429,0.286,0.584,0.489     c0.154,0.203,0.267,0.437,0.337,0.7s0.088,0.535,0.055,0.815H183.37z M185.298,59.564c-0.01-0.131-0.037-0.256-0.083-0.377     s-0.109-0.226-0.188-0.315c-0.08-0.089-0.177-0.162-0.29-0.218c-0.113-0.055-0.24-0.083-0.381-0.083     c-0.145,0-0.276,0.025-0.396,0.076c-0.118,0.051-0.22,0.121-0.304,0.21c-0.085,0.09-0.152,0.195-0.203,0.315     c-0.051,0.121-0.079,0.252-0.084,0.392H185.298z"/>
		</g>
	</g>
	<g>
		<g>
			<path d="M174.137,24.784h-3.465c0.005-0.421,0.106-0.788,0.305-1.102c0.197-0.314,0.469-0.588,0.812-0.819     c0.164-0.121,0.336-0.238,0.515-0.352c0.179-0.114,0.344-0.236,0.493-0.366c0.149-0.131,0.273-0.272,0.37-0.425     s0.147-0.327,0.152-0.525c0-0.092-0.012-0.189-0.033-0.294c-0.021-0.104-0.064-0.2-0.127-0.29     c-0.062-0.089-0.149-0.164-0.261-0.225c-0.111-0.06-0.256-0.09-0.435-0.09c-0.165,0-0.302,0.032-0.41,0.098     s-0.195,0.154-0.261,0.268c-0.065,0.114-0.114,0.248-0.146,0.402c-0.031,0.155-0.049,0.322-0.054,0.501h-0.827     c0-0.28,0.038-0.54,0.112-0.779c0.075-0.239,0.188-0.446,0.338-0.62c0.149-0.174,0.332-0.311,0.547-0.41     c0.215-0.099,0.465-0.148,0.75-0.148c0.31,0,0.568,0.051,0.776,0.152s0.376,0.229,0.504,0.385     c0.128,0.154,0.219,0.322,0.271,0.504c0.054,0.181,0.08,0.354,0.08,0.518c0,0.203-0.031,0.387-0.095,0.552     c-0.062,0.164-0.147,0.315-0.253,0.453c-0.106,0.138-0.228,0.265-0.363,0.38c-0.135,0.116-0.275,0.226-0.42,0.326     c-0.146,0.102-0.29,0.198-0.436,0.29c-0.145,0.093-0.279,0.185-0.402,0.276s-0.23,0.187-0.322,0.286     c-0.092,0.099-0.155,0.204-0.188,0.315h2.472V24.784z"/>
			<path d="M176.225,22.493c-0.217,0-0.403-0.039-0.558-0.116c-0.155-0.077-0.28-0.181-0.377-0.312s-0.167-0.283-0.211-0.457     c-0.043-0.174-0.064-0.359-0.064-0.558c0-0.193,0.022-0.379,0.068-0.555c0.046-0.177,0.118-0.33,0.218-0.461     c0.099-0.13,0.225-0.234,0.377-0.312s0.334-0.116,0.547-0.116s0.396,0.039,0.548,0.116s0.277,0.182,0.377,0.312     c0.099,0.131,0.172,0.284,0.218,0.461c0.046,0.176,0.068,0.361,0.068,0.555c0,0.198-0.021,0.384-0.065,0.558     c-0.043,0.174-0.113,0.326-0.21,0.457s-0.223,0.234-0.377,0.312S176.443,22.493,176.225,22.493z M175.667,21.051     c0,0.135,0.01,0.262,0.028,0.38c0.02,0.119,0.051,0.222,0.095,0.309c0.043,0.087,0.101,0.156,0.17,0.207     c0.07,0.05,0.156,0.075,0.258,0.075s0.188-0.025,0.261-0.075c0.072-0.051,0.131-0.12,0.174-0.207     c0.044-0.087,0.076-0.189,0.099-0.309c0.021-0.118,0.032-0.245,0.032-0.38c0-0.121-0.009-0.239-0.025-0.355     s-0.047-0.22-0.091-0.312c-0.043-0.092-0.102-0.166-0.174-0.222s-0.164-0.083-0.275-0.083s-0.203,0.027-0.275,0.083     s-0.13,0.13-0.171,0.222s-0.068,0.195-0.083,0.312S175.667,20.93,175.667,21.051z M179.125,19.535h0.551l-2.806,5.423h-0.565     L179.125,19.535z M179.865,24.886c-0.218,0-0.403-0.039-0.558-0.116c-0.155-0.077-0.281-0.181-0.378-0.312     s-0.166-0.283-0.21-0.457c-0.043-0.174-0.065-0.359-0.065-0.558c0-0.193,0.023-0.379,0.069-0.555     c0.046-0.177,0.118-0.33,0.218-0.461c0.099-0.13,0.225-0.234,0.377-0.312S179.652,22,179.865,22s0.396,0.039,0.548,0.116     s0.277,0.182,0.377,0.312c0.099,0.131,0.171,0.284,0.217,0.461c0.046,0.176,0.069,0.361,0.069,0.555     c0,0.198-0.021,0.384-0.065,0.558c-0.043,0.174-0.113,0.326-0.21,0.457s-0.223,0.234-0.377,0.312     C180.268,24.847,180.083,24.886,179.865,24.886z M179.307,23.443c0,0.135,0.009,0.262,0.028,0.38     c0.02,0.119,0.051,0.222,0.095,0.309c0.043,0.087,0.1,0.155,0.17,0.206s0.156,0.076,0.258,0.076s0.188-0.025,0.261-0.076     s0.131-0.119,0.174-0.206c0.044-0.087,0.076-0.189,0.098-0.309c0.022-0.118,0.033-0.245,0.033-0.38     c0-0.121-0.009-0.239-0.025-0.355c-0.018-0.116-0.047-0.22-0.091-0.312s-0.102-0.166-0.174-0.222s-0.164-0.083-0.275-0.083     s-0.203,0.027-0.275,0.083c-0.073,0.056-0.13,0.13-0.171,0.222s-0.068,0.195-0.083,0.312S179.307,23.322,179.307,23.443z"/>
			<path d="M174.355,33.534h-0.783v-0.508h-0.014c-0.111,0.218-0.273,0.374-0.486,0.468c-0.213,0.095-0.438,0.142-0.674,0.142     c-0.295,0-0.553-0.052-0.772-0.156c-0.22-0.104-0.402-0.245-0.547-0.424c-0.146-0.179-0.254-0.391-0.327-0.635     c-0.072-0.243-0.108-0.506-0.108-0.786c0-0.338,0.046-0.631,0.138-0.877c0.092-0.247,0.214-0.45,0.366-0.609     s0.326-0.276,0.522-0.352c0.195-0.075,0.395-0.112,0.598-0.112c0.116,0,0.234,0.011,0.355,0.032     c0.12,0.022,0.236,0.057,0.348,0.105c0.111,0.048,0.214,0.11,0.309,0.185c0.094,0.075,0.173,0.163,0.235,0.265h0.015v-1.914     h0.826V33.534z M171.469,31.7c0,0.159,0.021,0.316,0.062,0.471c0.041,0.155,0.104,0.293,0.188,0.413     c0.084,0.121,0.191,0.218,0.322,0.29c0.131,0.073,0.285,0.109,0.464,0.109c0.184,0,0.342-0.039,0.475-0.116     s0.242-0.179,0.326-0.305c0.085-0.125,0.147-0.267,0.188-0.424s0.062-0.317,0.062-0.482c0-0.415-0.094-0.739-0.279-0.972     c-0.187-0.231-0.438-0.348-0.758-0.348c-0.193,0-0.356,0.04-0.489,0.12c-0.133,0.079-0.242,0.184-0.326,0.312     c-0.085,0.128-0.146,0.272-0.182,0.435S171.469,31.531,171.469,31.7z"/>
			<path d="M175.276,28.357h0.826v0.783h-0.826V28.357z M175.276,29.786h0.826v3.748h-0.826V29.786z"/>
			<path d="M177.625,32.331c0.024,0.241,0.116,0.41,0.275,0.507c0.16,0.097,0.351,0.146,0.573,0.146     c0.077,0,0.165-0.006,0.265-0.019c0.099-0.012,0.191-0.035,0.279-0.068c0.087-0.034,0.158-0.084,0.214-0.149     c0.055-0.064,0.08-0.15,0.076-0.257c-0.005-0.106-0.044-0.193-0.116-0.261c-0.073-0.068-0.166-0.122-0.279-0.163     s-0.243-0.076-0.388-0.105c-0.146-0.029-0.293-0.061-0.442-0.095c-0.155-0.033-0.304-0.074-0.446-0.123     c-0.143-0.048-0.271-0.113-0.384-0.195c-0.114-0.082-0.204-0.188-0.272-0.315c-0.067-0.128-0.102-0.286-0.102-0.475     c0-0.203,0.05-0.374,0.149-0.512c0.099-0.138,0.225-0.249,0.377-0.333c0.152-0.085,0.321-0.144,0.507-0.178     c0.187-0.034,0.364-0.051,0.533-0.051c0.193,0,0.378,0.021,0.555,0.062s0.336,0.107,0.479,0.199s0.261,0.212,0.355,0.359     c0.094,0.147,0.153,0.325,0.178,0.532h-0.863c-0.038-0.198-0.129-0.331-0.271-0.398s-0.306-0.102-0.489-0.102     c-0.059,0-0.127,0.005-0.207,0.015s-0.154,0.027-0.225,0.055c-0.07,0.026-0.13,0.064-0.178,0.115s-0.072,0.117-0.072,0.199     c0,0.102,0.035,0.185,0.104,0.247c0.07,0.062,0.162,0.115,0.276,0.156c0.113,0.041,0.242,0.075,0.388,0.104     c0.145,0.029,0.295,0.061,0.449,0.095c0.149,0.033,0.297,0.074,0.442,0.123c0.145,0.048,0.274,0.113,0.388,0.195     c0.113,0.083,0.205,0.187,0.275,0.312c0.07,0.125,0.105,0.28,0.105,0.464c0,0.222-0.051,0.41-0.152,0.565     c-0.102,0.154-0.233,0.28-0.396,0.377s-0.342,0.167-0.54,0.21c-0.198,0.044-0.394,0.065-0.587,0.065     c-0.237,0-0.456-0.026-0.656-0.08c-0.2-0.053-0.375-0.134-0.521-0.242c-0.148-0.109-0.264-0.244-0.349-0.406     c-0.084-0.162-0.129-0.354-0.134-0.576H177.625z"/>
			<path d="M183.294,31.04c-0.034-0.231-0.127-0.407-0.279-0.525s-0.345-0.178-0.576-0.178c-0.106,0-0.221,0.019-0.341,0.055     c-0.121,0.036-0.232,0.104-0.334,0.203c-0.102,0.099-0.186,0.236-0.254,0.413c-0.067,0.176-0.102,0.407-0.102,0.692     c0,0.154,0.019,0.31,0.055,0.464s0.095,0.292,0.174,0.413c0.08,0.121,0.183,0.219,0.309,0.294     c0.125,0.074,0.277,0.112,0.457,0.112c0.241,0,0.44-0.075,0.598-0.225c0.157-0.15,0.255-0.36,0.294-0.631h0.826     c-0.077,0.488-0.263,0.861-0.555,1.12s-0.681,0.388-1.163,0.388c-0.295,0-0.555-0.05-0.78-0.148     c-0.225-0.1-0.414-0.234-0.568-0.406c-0.155-0.172-0.272-0.376-0.352-0.612c-0.08-0.237-0.12-0.493-0.12-0.769     c0-0.28,0.039-0.544,0.116-0.79c0.077-0.247,0.193-0.461,0.348-0.643c0.155-0.181,0.347-0.323,0.576-0.428     c0.229-0.104,0.499-0.155,0.809-0.155c0.218,0,0.425,0.027,0.62,0.083s0.37,0.14,0.521,0.25c0.152,0.111,0.277,0.252,0.374,0.421     s0.154,0.37,0.174,0.602H183.294z"/>
			<path d="M186.513,33.636c-0.3,0-0.567-0.05-0.802-0.148c-0.234-0.1-0.433-0.236-0.594-0.41c-0.162-0.174-0.286-0.382-0.37-0.623     c-0.085-0.242-0.127-0.508-0.127-0.798c0-0.285,0.042-0.548,0.127-0.79c0.084-0.241,0.208-0.449,0.37-0.623     c0.161-0.175,0.359-0.311,0.594-0.41c0.234-0.099,0.502-0.148,0.802-0.148c0.299,0,0.566,0.05,0.801,0.148     c0.234,0.1,0.433,0.235,0.595,0.41c0.162,0.174,0.285,0.382,0.369,0.623c0.085,0.242,0.127,0.505,0.127,0.79     c0,0.29-0.042,0.556-0.127,0.798c-0.084,0.241-0.207,0.449-0.369,0.623s-0.36,0.311-0.595,0.41     C187.08,33.586,186.812,33.636,186.513,33.636z M186.513,32.983c0.184,0,0.343-0.039,0.479-0.116     c0.135-0.077,0.246-0.179,0.333-0.305c0.087-0.125,0.151-0.267,0.192-0.424s0.062-0.317,0.062-0.482     c0-0.159-0.021-0.318-0.062-0.479c-0.041-0.159-0.105-0.301-0.192-0.424s-0.198-0.224-0.333-0.301     c-0.136-0.077-0.295-0.116-0.479-0.116s-0.344,0.039-0.479,0.116c-0.136,0.077-0.247,0.178-0.334,0.301s-0.151,0.265-0.192,0.424     c-0.041,0.16-0.062,0.319-0.062,0.479c0,0.165,0.021,0.325,0.062,0.482s0.105,0.299,0.192,0.424     c0.087,0.126,0.198,0.228,0.334,0.305C186.169,32.944,186.33,32.983,186.513,32.983z"/>
			<path d="M192.385,33.534h-0.812v-0.522h-0.015c-0.102,0.188-0.253,0.34-0.453,0.453c-0.201,0.114-0.405,0.171-0.612,0.171     c-0.493,0-0.85-0.122-1.07-0.366c-0.22-0.244-0.329-0.612-0.329-1.105v-2.378h0.826v2.298c0,0.329,0.062,0.561,0.188,0.696     s0.302,0.203,0.529,0.203c0.174,0,0.319-0.026,0.435-0.08c0.116-0.053,0.211-0.124,0.283-0.214     c0.072-0.089,0.124-0.197,0.156-0.322c0.031-0.126,0.047-0.262,0.047-0.406v-2.175h0.826V33.534z"/>
			<path d="M193.255,29.786h0.783v0.551l0.015,0.015c0.125-0.208,0.29-0.371,0.493-0.489s0.428-0.178,0.674-0.178     c0.411,0,0.734,0.106,0.972,0.319c0.236,0.212,0.355,0.531,0.355,0.956v2.574h-0.827v-2.356c-0.01-0.295-0.072-0.509-0.188-0.642     c-0.115-0.133-0.297-0.199-0.543-0.199c-0.141,0-0.267,0.025-0.378,0.076c-0.11,0.051-0.205,0.121-0.282,0.21     c-0.077,0.09-0.138,0.195-0.182,0.315c-0.043,0.121-0.064,0.249-0.064,0.385v2.211h-0.827V29.786z"/>
			<path d="M197.041,29.786h0.623v-1.124h0.826v1.124h0.747v0.616h-0.747v2.001c0,0.087,0.004,0.162,0.012,0.225     c0.007,0.062,0.023,0.116,0.051,0.159c0.026,0.044,0.066,0.076,0.119,0.099c0.053,0.021,0.126,0.032,0.218,0.032     c0.058,0,0.116-0.001,0.174-0.004c0.058-0.002,0.116-0.011,0.174-0.025v0.639c-0.092,0.009-0.181,0.019-0.269,0.028     c-0.087,0.01-0.176,0.015-0.268,0.015c-0.218,0-0.393-0.021-0.526-0.062c-0.133-0.041-0.236-0.102-0.312-0.182     c-0.075-0.079-0.125-0.18-0.152-0.301c-0.026-0.12-0.042-0.258-0.047-0.413v-2.211h-0.623V29.786z"/>
			<path d="M201.847,29.786h0.775v0.725h0.015c0.024-0.102,0.071-0.2,0.142-0.297c0.069-0.097,0.154-0.186,0.254-0.265     c0.099-0.08,0.209-0.144,0.329-0.192c0.121-0.048,0.244-0.072,0.37-0.072c0.097,0,0.163,0.002,0.199,0.007     s0.073,0.01,0.112,0.015v0.798c-0.058-0.01-0.117-0.019-0.178-0.025c-0.061-0.008-0.119-0.011-0.178-0.011     c-0.14,0-0.271,0.027-0.395,0.083s-0.231,0.138-0.323,0.246c-0.092,0.109-0.164,0.243-0.217,0.402     c-0.054,0.16-0.08,0.344-0.08,0.552v1.783h-0.826V29.786z"/>
			<path d="M207.538,32.7c0,0.102,0.014,0.174,0.04,0.218s0.079,0.065,0.156,0.065c0.023,0,0.053,0,0.087,0     c0.033,0,0.072-0.005,0.116-0.015v0.572c-0.029,0.01-0.066,0.021-0.112,0.033c-0.047,0.012-0.094,0.022-0.142,0.032     c-0.049,0.01-0.097,0.018-0.146,0.022c-0.048,0.004-0.089,0.007-0.123,0.007c-0.169,0-0.31-0.034-0.421-0.102     c-0.11-0.067-0.184-0.186-0.217-0.355c-0.165,0.16-0.366,0.275-0.605,0.349c-0.239,0.072-0.471,0.108-0.692,0.108     c-0.169,0-0.331-0.023-0.486-0.069c-0.154-0.046-0.291-0.113-0.409-0.202c-0.118-0.09-0.213-0.203-0.283-0.341     c-0.069-0.138-0.104-0.299-0.104-0.482c0-0.232,0.042-0.421,0.127-0.565c0.084-0.146,0.195-0.259,0.333-0.341     s0.293-0.142,0.464-0.178c0.172-0.036,0.345-0.064,0.519-0.083c0.15-0.029,0.293-0.05,0.428-0.062     c0.136-0.013,0.255-0.033,0.359-0.062c0.104-0.028,0.186-0.073,0.246-0.134s0.091-0.151,0.091-0.271     c0-0.106-0.025-0.193-0.076-0.262c-0.051-0.067-0.113-0.119-0.188-0.155s-0.158-0.061-0.25-0.072     c-0.092-0.013-0.179-0.019-0.261-0.019c-0.232,0-0.424,0.049-0.573,0.145c-0.149,0.098-0.234,0.247-0.254,0.45h-0.826     c0.015-0.242,0.072-0.442,0.174-0.602c0.102-0.16,0.23-0.288,0.388-0.385s0.335-0.164,0.533-0.203     c0.198-0.038,0.401-0.058,0.609-0.058c0.184,0,0.364,0.02,0.543,0.058c0.179,0.039,0.34,0.102,0.482,0.188     s0.258,0.199,0.345,0.337c0.087,0.139,0.13,0.307,0.13,0.504V32.7z M206.711,31.656c-0.126,0.082-0.28,0.132-0.464,0.148     c-0.184,0.018-0.367,0.043-0.551,0.076c-0.088,0.015-0.172,0.035-0.254,0.062c-0.082,0.027-0.155,0.063-0.218,0.109     s-0.112,0.106-0.148,0.181c-0.036,0.075-0.055,0.166-0.055,0.272c0,0.092,0.026,0.169,0.08,0.231     c0.053,0.063,0.117,0.112,0.192,0.149c0.074,0.036,0.156,0.062,0.246,0.076c0.089,0.014,0.17,0.021,0.243,0.021     c0.092,0,0.19-0.013,0.297-0.036c0.106-0.024,0.207-0.065,0.301-0.124c0.095-0.058,0.173-0.131,0.235-0.221     c0.063-0.09,0.095-0.199,0.095-0.33V31.656z"/>
			<path d="M208.052,29.786h0.624v-1.124h0.826v1.124h0.747v0.616h-0.747v2.001c0,0.087,0.004,0.162,0.011,0.225     c0.008,0.062,0.024,0.116,0.051,0.159c0.026,0.044,0.066,0.076,0.12,0.099c0.053,0.021,0.125,0.032,0.217,0.032     c0.059,0,0.116-0.001,0.174-0.004c0.059-0.002,0.116-0.011,0.175-0.025v0.639c-0.092,0.009-0.182,0.019-0.269,0.028     s-0.177,0.015-0.269,0.015c-0.217,0-0.393-0.021-0.525-0.062s-0.237-0.102-0.312-0.182c-0.075-0.079-0.126-0.18-0.152-0.301     c-0.026-0.12-0.043-0.258-0.047-0.413v-2.211h-0.624V29.786z"/>
			<path d="M211.489,31.874c0,0.145,0.021,0.285,0.062,0.42c0.041,0.136,0.103,0.254,0.185,0.355s0.187,0.183,0.312,0.243     c0.125,0.061,0.275,0.091,0.449,0.091c0.241,0,0.436-0.052,0.583-0.156c0.147-0.104,0.258-0.26,0.33-0.468h0.783     c-0.043,0.203-0.118,0.385-0.225,0.544s-0.234,0.294-0.385,0.402c-0.149,0.109-0.317,0.191-0.504,0.247     c-0.186,0.055-0.38,0.083-0.583,0.083c-0.295,0-0.556-0.049-0.783-0.146c-0.228-0.096-0.419-0.231-0.576-0.405     s-0.275-0.382-0.355-0.624c-0.08-0.241-0.119-0.507-0.119-0.797c0-0.267,0.042-0.519,0.127-0.758     c0.084-0.239,0.205-0.449,0.362-0.631c0.156-0.182,0.347-0.325,0.568-0.432c0.223-0.106,0.474-0.159,0.755-0.159     c0.294,0,0.559,0.062,0.794,0.185c0.234,0.123,0.429,0.286,0.583,0.489s0.268,0.437,0.337,0.7     c0.07,0.264,0.089,0.535,0.055,0.815H211.489z M213.417,31.33c-0.01-0.131-0.038-0.256-0.084-0.377s-0.108-0.226-0.188-0.315     c-0.079-0.089-0.176-0.162-0.29-0.218c-0.113-0.055-0.24-0.083-0.38-0.083c-0.146,0-0.277,0.025-0.396,0.076     s-0.22,0.121-0.305,0.21c-0.084,0.09-0.152,0.195-0.203,0.315c-0.051,0.121-0.078,0.252-0.083,0.392H213.417z"/>
		</g>
	</g>
	<g>
		<g>
			
				<line fill="none" stroke="#000000" stroke-width="0.5" stroke-linejoin="round" x1="141.153" y1="53.086" x2="138.599" y2="43.467"/>
			<g>
				<polygon points="140.547,43.516 137.909,40.866 136.933,44.476     "/>
			</g>
		</g>
	</g>
	<g>
		<g>
			
				<line fill="none" stroke="#000000" stroke-width="0.5" stroke-linejoin="round" x1="167.598" y1="27.497" x2="165.044" y2="17.877"/>
			<g>
				<polygon points="166.992,17.926 164.354,15.276 163.377,18.886     "/>
			</g>
		</g>
	</g>
</g>
</svg>