<svg xmlns="http://www.w3.org/2000/svg" xmlns:xlink="http://www.w3.org/1999/xlink" version="1.1" x="0px" y="0px" width="191.488px" height="191.136px" viewBox="0 0 191.488 191.136" enable-background="new 0 0 191.488 191.136" xml:space="preserve">
<g id="Layer_1">
	<g>
		<path d="M2.495,8.17c0.252,0,0.483,0.022,0.69,0.067C3.393,8.283,3.571,8.357,3.72,8.459c0.148,0.103,0.264,0.239,0.345,0.409    c0.082,0.17,0.123,0.38,0.123,0.63c0,0.27-0.061,0.495-0.182,0.675c-0.122,0.18-0.301,0.328-0.539,0.442    c0.327,0.095,0.571,0.262,0.731,0.499s0.241,0.524,0.241,0.858c0,0.27-0.052,0.504-0.156,0.702    c-0.104,0.197-0.244,0.359-0.419,0.483c-0.176,0.125-0.376,0.218-0.602,0.278s-0.457,0.09-0.694,0.09H0V8.17H2.495z M2.346,10.338    c0.208,0,0.379-0.05,0.512-0.15c0.134-0.1,0.201-0.263,0.201-0.488c0-0.125-0.022-0.227-0.067-0.307S2.888,9.25,2.814,9.206    C2.74,9.16,2.654,9.129,2.558,9.112C2.461,9.094,2.361,9.085,2.257,9.085H1.166v1.252H2.346z M2.413,12.61    c0.114,0,0.223-0.011,0.327-0.034s0.195-0.06,0.275-0.112c0.079-0.053,0.142-0.124,0.189-0.214    c0.047-0.09,0.071-0.205,0.071-0.345c0-0.275-0.077-0.471-0.23-0.589c-0.154-0.117-0.356-0.176-0.609-0.176h-1.27v1.47H2.413z"/>
		<path d="M6.244,12.595c0.159,0.155,0.386,0.233,0.683,0.233c0.213,0,0.396-0.054,0.55-0.162c0.153-0.107,0.247-0.221,0.282-0.341    h0.928c-0.148,0.465-0.376,0.798-0.683,0.998c-0.307,0.2-0.678,0.3-1.114,0.3c-0.302,0-0.574-0.049-0.816-0.146    c-0.243-0.098-0.448-0.236-0.616-0.416c-0.168-0.18-0.298-0.395-0.39-0.645c-0.091-0.25-0.137-0.525-0.137-0.825    c0-0.29,0.047-0.56,0.141-0.81c0.094-0.25,0.228-0.466,0.401-0.648s0.38-0.327,0.62-0.432c0.24-0.105,0.506-0.157,0.798-0.157    c0.327,0,0.611,0.063,0.854,0.191c0.243,0.127,0.442,0.299,0.598,0.514s0.269,0.46,0.338,0.735s0.094,0.562,0.074,0.862h-2.77    C6,12.19,6.086,12.44,6.244,12.595z M7.436,10.555c-0.126-0.14-0.318-0.21-0.576-0.21c-0.168,0-0.308,0.029-0.419,0.086    s-0.2,0.129-0.267,0.214s-0.114,0.175-0.141,0.27c-0.027,0.095-0.043,0.18-0.048,0.255H7.7C7.65,10.9,7.562,10.695,7.436,10.555z"/>
		<path d="M11.486,9.648v0.712h-0.772v1.92c0,0.18,0.03,0.3,0.089,0.36c0.059,0.06,0.178,0.09,0.356,0.09    c0.059,0,0.116-0.002,0.17-0.008c0.055-0.005,0.106-0.012,0.156-0.022v0.825c-0.089,0.015-0.188,0.025-0.297,0.03    c-0.109,0.005-0.215,0.008-0.319,0.008c-0.163,0-0.318-0.011-0.464-0.034s-0.275-0.066-0.386-0.131S9.82,13.24,9.756,13.121    C9.692,13,9.66,12.843,9.66,12.648V10.36H9.021V9.648H9.66V8.485h1.054v1.163H11.486z"/>
		<path d="M11.946,10.84c0.015-0.25,0.077-0.458,0.186-0.623s0.248-0.297,0.416-0.397c0.168-0.1,0.357-0.171,0.568-0.214    c0.21-0.042,0.422-0.063,0.635-0.063c0.193,0,0.389,0.014,0.586,0.041c0.198,0.028,0.379,0.082,0.542,0.162    c0.164,0.08,0.297,0.191,0.401,0.333s0.156,0.332,0.156,0.566v2.018c0,0.175,0.01,0.342,0.029,0.502    c0.02,0.16,0.055,0.28,0.104,0.36H14.5c-0.02-0.06-0.036-0.121-0.048-0.184c-0.013-0.062-0.021-0.126-0.026-0.191    c-0.168,0.175-0.367,0.297-0.594,0.368c-0.228,0.07-0.46,0.105-0.698,0.105c-0.183,0-0.354-0.022-0.512-0.068    c-0.159-0.045-0.297-0.115-0.416-0.21c-0.119-0.095-0.211-0.215-0.278-0.36s-0.1-0.317-0.1-0.518c0-0.22,0.038-0.401,0.115-0.543    c0.077-0.143,0.176-0.256,0.297-0.341c0.121-0.085,0.26-0.149,0.416-0.191s0.313-0.076,0.472-0.101    c0.158-0.025,0.314-0.045,0.468-0.06c0.153-0.015,0.29-0.038,0.408-0.067c0.119-0.03,0.213-0.074,0.282-0.131    s0.101-0.141,0.096-0.251c0-0.115-0.019-0.206-0.056-0.273c-0.037-0.068-0.086-0.12-0.148-0.158s-0.133-0.062-0.215-0.075    c-0.082-0.012-0.169-0.019-0.264-0.019c-0.208,0-0.371,0.045-0.49,0.135C13.09,10.48,13.02,10.63,13,10.84H11.946z M14.381,11.628    c-0.044,0.04-0.1,0.071-0.167,0.094s-0.139,0.041-0.215,0.056s-0.157,0.028-0.241,0.038c-0.084,0.01-0.168,0.022-0.252,0.038    c-0.079,0.015-0.157,0.035-0.234,0.06c-0.077,0.025-0.144,0.059-0.2,0.101c-0.057,0.042-0.103,0.096-0.138,0.161    s-0.052,0.147-0.052,0.248c0,0.095,0.017,0.175,0.052,0.24s0.082,0.116,0.141,0.153c0.06,0.038,0.129,0.064,0.208,0.079    c0.079,0.015,0.161,0.022,0.245,0.022c0.208,0,0.369-0.035,0.482-0.105s0.198-0.154,0.252-0.251    c0.055-0.097,0.088-0.196,0.1-0.296c0.013-0.1,0.019-0.18,0.019-0.24V11.628z"/>
	</g>
	<g>
		<path d="M155.044,72.899H156l1.974,5.176h-0.962l-0.481-1.37h-2.045l-0.481,1.37h-0.926L155.044,72.899z M154.729,76.016h1.564    l-0.769-2.226h-0.021L154.729,76.016z"/>
		<path d="M158.963,76.872c0.023,0.242,0.114,0.411,0.272,0.508s0.347,0.145,0.567,0.145c0.076,0,0.163-0.006,0.262-0.019    c0.098-0.012,0.19-0.035,0.276-0.069c0.086-0.034,0.156-0.083,0.212-0.148c0.055-0.065,0.08-0.151,0.075-0.257    s-0.043-0.193-0.115-0.261c-0.071-0.067-0.164-0.122-0.276-0.163s-0.24-0.076-0.384-0.105s-0.289-0.061-0.438-0.094    c-0.153-0.034-0.301-0.075-0.441-0.123c-0.142-0.048-0.269-0.114-0.381-0.196c-0.112-0.083-0.202-0.188-0.269-0.315    c-0.067-0.128-0.101-0.287-0.101-0.475c0-0.203,0.049-0.373,0.146-0.511c0.099-0.138,0.223-0.249,0.374-0.333    c0.15-0.084,0.317-0.144,0.502-0.177s0.36-0.051,0.527-0.051c0.191,0,0.375,0.021,0.549,0.062    c0.175,0.041,0.333,0.107,0.475,0.199c0.141,0.092,0.258,0.211,0.352,0.359c0.093,0.147,0.151,0.325,0.176,0.533h-0.854    c-0.038-0.198-0.128-0.331-0.269-0.399c-0.142-0.068-0.303-0.102-0.485-0.102c-0.057,0-0.125,0.005-0.204,0.015    s-0.153,0.028-0.223,0.054c-0.069,0.027-0.128,0.065-0.176,0.116s-0.071,0.117-0.071,0.199c0,0.102,0.034,0.184,0.104,0.247    s0.16,0.115,0.272,0.156c0.113,0.041,0.241,0.076,0.385,0.105c0.144,0.029,0.291,0.061,0.444,0.094    c0.148,0.034,0.295,0.075,0.438,0.124s0.271,0.113,0.384,0.196c0.112,0.082,0.203,0.186,0.272,0.312    c0.069,0.126,0.104,0.28,0.104,0.464c0,0.223-0.051,0.411-0.151,0.566c-0.101,0.154-0.23,0.28-0.391,0.377    s-0.339,0.167-0.535,0.21s-0.39,0.065-0.581,0.065c-0.234,0-0.451-0.027-0.649-0.08c-0.199-0.053-0.371-0.134-0.517-0.243    c-0.146-0.109-0.261-0.244-0.345-0.406c-0.084-0.162-0.128-0.354-0.133-0.577H158.963z"/>
		<path d="M162.688,76.872c0.024,0.242,0.115,0.411,0.273,0.508c0.157,0.097,0.347,0.145,0.566,0.145    c0.076,0,0.164-0.006,0.262-0.019c0.099-0.012,0.19-0.035,0.276-0.069c0.087-0.034,0.157-0.083,0.212-0.148    s0.08-0.151,0.075-0.257s-0.043-0.193-0.114-0.261c-0.072-0.067-0.164-0.122-0.276-0.163s-0.24-0.076-0.384-0.105    s-0.29-0.061-0.438-0.094c-0.153-0.034-0.3-0.075-0.441-0.123c-0.141-0.048-0.268-0.114-0.38-0.196    c-0.112-0.083-0.202-0.188-0.27-0.315s-0.101-0.287-0.101-0.475c0-0.203,0.049-0.373,0.147-0.511    c0.098-0.138,0.223-0.249,0.373-0.333c0.15-0.084,0.318-0.144,0.503-0.177c0.184-0.034,0.359-0.051,0.527-0.051    c0.191,0,0.374,0.021,0.549,0.062s0.332,0.107,0.474,0.199s0.259,0.211,0.352,0.359c0.094,0.147,0.152,0.325,0.176,0.533h-0.854    c-0.039-0.198-0.128-0.331-0.27-0.399s-0.303-0.102-0.484-0.102c-0.058,0-0.126,0.005-0.204,0.015    c-0.079,0.01-0.153,0.028-0.223,0.054c-0.069,0.027-0.128,0.065-0.176,0.116s-0.072,0.117-0.072,0.199    c0,0.102,0.035,0.184,0.104,0.247s0.16,0.115,0.272,0.156s0.24,0.076,0.384,0.105c0.144,0.029,0.292,0.061,0.445,0.094    c0.148,0.034,0.294,0.075,0.438,0.124s0.271,0.113,0.384,0.196c0.112,0.082,0.204,0.186,0.273,0.312    c0.069,0.126,0.104,0.28,0.104,0.464c0,0.223-0.05,0.411-0.15,0.566c-0.101,0.154-0.231,0.28-0.392,0.377s-0.338,0.167-0.534,0.21    s-0.391,0.065-0.582,0.065c-0.234,0-0.45-0.027-0.649-0.08c-0.198-0.053-0.37-0.134-0.517-0.243    c-0.146-0.109-0.261-0.244-0.345-0.406c-0.083-0.162-0.128-0.354-0.133-0.577H162.688z"/>
		<path d="M166.435,76.415c0,0.145,0.021,0.285,0.061,0.42c0.041,0.135,0.102,0.254,0.184,0.355    c0.081,0.101,0.184,0.182,0.309,0.243c0.124,0.061,0.272,0.091,0.444,0.091c0.239,0,0.433-0.052,0.578-0.156    c0.146-0.104,0.255-0.26,0.326-0.467h0.775c-0.043,0.203-0.117,0.384-0.223,0.543c-0.104,0.16-0.231,0.294-0.38,0.402    c-0.148,0.109-0.314,0.191-0.499,0.247s-0.377,0.083-0.578,0.083c-0.292,0-0.55-0.048-0.774-0.145    c-0.226-0.097-0.415-0.232-0.571-0.406c-0.155-0.174-0.272-0.381-0.352-0.624c-0.079-0.241-0.118-0.507-0.118-0.797    c0-0.266,0.042-0.518,0.126-0.757c0.083-0.239,0.203-0.45,0.358-0.631s0.344-0.325,0.563-0.432    c0.22-0.106,0.469-0.159,0.746-0.159c0.292,0,0.554,0.062,0.786,0.185c0.232,0.124,0.425,0.287,0.578,0.49    c0.152,0.203,0.264,0.436,0.333,0.699c0.069,0.264,0.088,0.536,0.055,0.816H166.435z M168.344,75.871    c-0.01-0.13-0.037-0.256-0.083-0.377c-0.045-0.121-0.107-0.226-0.187-0.315c-0.079-0.089-0.175-0.162-0.287-0.217    s-0.238-0.083-0.377-0.083c-0.144,0-0.273,0.025-0.391,0.076s-0.218,0.121-0.302,0.21c-0.084,0.089-0.15,0.194-0.201,0.315    c-0.05,0.121-0.077,0.251-0.082,0.392H168.344z"/>
		<path d="M169.414,74.327h0.617v-1.124h0.818v1.124h0.739v0.616h-0.739v2.001c0,0.087,0.004,0.162,0.011,0.225    s0.023,0.116,0.05,0.16s0.066,0.076,0.119,0.098c0.053,0.022,0.124,0.033,0.215,0.033c0.058,0,0.115-0.001,0.173-0.004    c0.057-0.002,0.114-0.011,0.172-0.025v0.638c-0.091,0.01-0.18,0.02-0.266,0.029c-0.086,0.009-0.175,0.014-0.266,0.014    c-0.215,0-0.389-0.021-0.521-0.062s-0.234-0.102-0.309-0.181s-0.124-0.18-0.15-0.301c-0.026-0.121-0.042-0.259-0.047-0.414v-2.211    h-0.617V74.327z"/>
		<path d="M174.194,72.899h0.818v1.914h0.014c0.058-0.092,0.127-0.174,0.208-0.246c0.082-0.073,0.172-0.134,0.27-0.185    s0.201-0.089,0.309-0.116c0.107-0.026,0.214-0.04,0.319-0.04c0.292,0,0.547,0.052,0.765,0.156s0.398,0.247,0.542,0.428    s0.251,0.393,0.322,0.634c0.072,0.242,0.108,0.5,0.108,0.776c0,0.251-0.032,0.496-0.098,0.732    c-0.064,0.237-0.162,0.446-0.294,0.627s-0.298,0.326-0.499,0.435c-0.2,0.109-0.438,0.163-0.71,0.163    c-0.125,0-0.25-0.009-0.377-0.025c-0.127-0.017-0.248-0.05-0.362-0.098c-0.115-0.048-0.219-0.111-0.312-0.188    c-0.093-0.077-0.171-0.179-0.233-0.304h-0.014v0.515h-0.775V72.899z M177.05,76.205c0-0.169-0.021-0.333-0.064-0.493    c-0.043-0.16-0.108-0.301-0.194-0.424s-0.193-0.222-0.322-0.297c-0.13-0.075-0.278-0.112-0.445-0.112    c-0.345,0-0.604,0.121-0.779,0.362c-0.174,0.242-0.262,0.563-0.262,0.964c0,0.188,0.022,0.364,0.068,0.526    c0.046,0.162,0.113,0.301,0.204,0.417c0.092,0.116,0.2,0.208,0.327,0.276c0.127,0.067,0.273,0.102,0.441,0.102    c0.187,0,0.345-0.039,0.474-0.116s0.235-0.178,0.319-0.301c0.084-0.124,0.144-0.264,0.18-0.42    C177.032,76.53,177.05,76.369,177.05,76.205z"/>
		<path d="M179.196,76.415c0,0.145,0.021,0.285,0.062,0.42c0.04,0.135,0.102,0.254,0.183,0.355c0.081,0.101,0.185,0.182,0.309,0.243    c0.125,0.061,0.273,0.091,0.445,0.091c0.239,0,0.432-0.052,0.578-0.156c0.146-0.104,0.254-0.26,0.326-0.467h0.775    c-0.043,0.203-0.117,0.384-0.223,0.543c-0.105,0.16-0.232,0.294-0.381,0.402c-0.148,0.109-0.314,0.191-0.498,0.247    c-0.185,0.056-0.377,0.083-0.578,0.083c-0.292,0-0.551-0.048-0.775-0.145s-0.415-0.232-0.57-0.406    c-0.155-0.174-0.272-0.381-0.352-0.624c-0.079-0.241-0.119-0.507-0.119-0.797c0-0.266,0.042-0.518,0.126-0.757    s0.203-0.45,0.359-0.631c0.155-0.181,0.343-0.325,0.563-0.432c0.22-0.106,0.469-0.159,0.746-0.159    c0.292,0,0.554,0.062,0.786,0.185c0.231,0.124,0.424,0.287,0.577,0.49c0.153,0.203,0.265,0.436,0.334,0.699    c0.069,0.264,0.087,0.536,0.054,0.816H179.196z M181.105,75.871c-0.01-0.13-0.037-0.256-0.082-0.377    c-0.046-0.121-0.107-0.226-0.187-0.315c-0.079-0.089-0.175-0.162-0.287-0.217s-0.238-0.083-0.377-0.083    c-0.144,0-0.274,0.025-0.392,0.076s-0.218,0.121-0.301,0.21c-0.084,0.089-0.151,0.194-0.201,0.315    c-0.051,0.121-0.078,0.251-0.083,0.392H181.105z"/>
		<path d="M182.175,74.327h0.617v-1.124h0.817v1.124h0.739v0.616h-0.739v2.001c0,0.087,0.004,0.162,0.011,0.225    c0.008,0.063,0.024,0.116,0.051,0.16s0.065,0.076,0.118,0.098c0.053,0.022,0.125,0.033,0.216,0.033    c0.057,0,0.114-0.001,0.172-0.004c0.058-0.002,0.115-0.011,0.172-0.025v0.638c-0.091,0.01-0.179,0.02-0.265,0.029    c-0.087,0.009-0.175,0.014-0.266,0.014c-0.216,0-0.39-0.021-0.521-0.062c-0.132-0.041-0.234-0.102-0.309-0.181    s-0.125-0.18-0.151-0.301c-0.026-0.121-0.042-0.259-0.046-0.414v-2.211h-0.617V74.327z"/>
		<path d="M188.046,77.241c0,0.102,0.013,0.174,0.039,0.218s0.078,0.065,0.154,0.065c0.023,0,0.053,0,0.086,0    s0.072-0.005,0.115-0.015v0.573c-0.029,0.01-0.066,0.021-0.111,0.033c-0.046,0.012-0.093,0.023-0.14,0.032    c-0.049,0.01-0.097,0.017-0.144,0.022c-0.048,0.005-0.089,0.007-0.122,0.007c-0.168,0-0.307-0.034-0.417-0.102    c-0.109-0.068-0.182-0.186-0.215-0.355c-0.163,0.16-0.362,0.276-0.6,0.348c-0.236,0.073-0.465,0.109-0.686,0.109    c-0.167,0-0.327-0.023-0.48-0.069s-0.288-0.114-0.405-0.203s-0.211-0.203-0.28-0.341s-0.104-0.298-0.104-0.482    c0-0.232,0.042-0.42,0.126-0.565s0.193-0.259,0.33-0.341s0.29-0.142,0.459-0.178c0.17-0.036,0.342-0.064,0.514-0.083    c0.148-0.029,0.289-0.049,0.424-0.062c0.134-0.012,0.252-0.033,0.354-0.062c0.104-0.029,0.185-0.074,0.244-0.134    c0.06-0.06,0.09-0.151,0.09-0.272c0-0.106-0.025-0.193-0.075-0.261s-0.112-0.12-0.187-0.156c-0.074-0.037-0.157-0.061-0.248-0.073    c-0.091-0.012-0.177-0.018-0.258-0.018c-0.229,0-0.419,0.048-0.567,0.145s-0.232,0.247-0.251,0.45h-0.818    c0.015-0.242,0.072-0.442,0.172-0.602c0.101-0.159,0.229-0.288,0.385-0.384c0.155-0.097,0.331-0.164,0.527-0.203    c0.196-0.039,0.396-0.058,0.603-0.058c0.182,0,0.361,0.019,0.538,0.058c0.178,0.039,0.337,0.102,0.478,0.189    c0.142,0.087,0.255,0.199,0.341,0.337s0.13,0.306,0.13,0.504V77.241z M187.228,76.197c-0.125,0.083-0.278,0.132-0.46,0.149    s-0.363,0.042-0.545,0.076c-0.086,0.014-0.17,0.035-0.251,0.062c-0.082,0.026-0.153,0.063-0.216,0.109s-0.111,0.106-0.147,0.181    c-0.035,0.075-0.054,0.166-0.054,0.272c0,0.092,0.026,0.169,0.079,0.232c0.053,0.062,0.116,0.112,0.19,0.148    s0.155,0.062,0.244,0.076c0.088,0.015,0.168,0.022,0.24,0.022c0.091,0,0.188-0.012,0.294-0.037    c0.105-0.024,0.205-0.065,0.298-0.123c0.094-0.058,0.171-0.132,0.233-0.221s0.094-0.199,0.094-0.33V76.197z"/>
	</g>
	<g>
		<path d="M168.172,42.132h3.688v0.783h-2.792v1.356h2.584v0.739h-2.584v1.515h2.842v0.783h-3.738V42.132z"/>
		<path d="M176.074,48.693h-0.817v-1.871h-0.016c-0.066,0.102-0.146,0.19-0.236,0.265c-0.091,0.075-0.191,0.137-0.301,0.185    c-0.111,0.048-0.226,0.083-0.346,0.105c-0.119,0.022-0.238,0.033-0.358,0.033c-0.272,0-0.509-0.054-0.71-0.163    s-0.367-0.254-0.499-0.435s-0.229-0.39-0.294-0.627s-0.098-0.481-0.098-0.732c0-0.275,0.036-0.534,0.107-0.776    c0.072-0.242,0.18-0.453,0.323-0.634s0.324-0.324,0.542-0.428s0.473-0.156,0.765-0.156c0.239,0,0.462,0.047,0.667,0.141    c0.206,0.094,0.366,0.25,0.48,0.468h0.016v-0.507h0.774V48.693z M173.217,45.438c0,0.165,0.018,0.325,0.054,0.482    c0.036,0.157,0.096,0.297,0.18,0.42c0.083,0.123,0.19,0.224,0.319,0.301s0.287,0.116,0.474,0.116c0.354,0,0.616-0.122,0.786-0.366    s0.254-0.562,0.254-0.954c0-0.411-0.086-0.734-0.262-0.971c-0.174-0.237-0.434-0.355-0.778-0.355    c-0.167,0-0.315,0.038-0.444,0.112c-0.13,0.075-0.237,0.174-0.324,0.297c-0.086,0.123-0.15,0.265-0.193,0.424    C173.239,45.104,173.217,45.269,173.217,45.438z"/>
		<path d="M180.222,47.309h-0.804v-0.522h-0.014c-0.102,0.188-0.251,0.339-0.449,0.453c-0.199,0.113-0.4,0.17-0.606,0.17    c-0.488,0-0.841-0.122-1.059-0.366s-0.327-0.613-0.327-1.105v-2.378h0.818v2.298c0,0.329,0.062,0.561,0.188,0.696    c0.123,0.135,0.299,0.203,0.523,0.203c0.172,0,0.316-0.027,0.431-0.08s0.208-0.125,0.28-0.214    c0.071-0.089,0.123-0.197,0.154-0.323c0.031-0.125,0.047-0.261,0.047-0.406v-2.175h0.817V47.309z"/>
		<path d="M181.105,42.132h0.818v0.783h-0.818V42.132z M181.105,43.561h0.818v3.748h-0.818V43.561z"/>
		<path d="M182.44,43.561h0.617v-1.124h0.818v1.124h0.738v0.616h-0.738v2.001c0,0.087,0.004,0.162,0.01,0.225    c0.008,0.063,0.024,0.116,0.051,0.16s0.066,0.076,0.119,0.098c0.053,0.022,0.124,0.033,0.215,0.033    c0.057,0,0.115-0.001,0.172-0.004c0.058-0.002,0.115-0.011,0.172-0.025v0.638c-0.09,0.01-0.179,0.02-0.265,0.029    c-0.087,0.009-0.175,0.014-0.266,0.014c-0.216,0-0.39-0.021-0.521-0.062c-0.132-0.041-0.234-0.102-0.309-0.181    s-0.125-0.18-0.15-0.301c-0.027-0.121-0.043-0.259-0.047-0.414v-2.211h-0.617V43.561z"/>
		<path d="M184.793,43.561h0.897l0.97,2.798h0.014l0.94-2.798h0.854l-1.443,3.951c-0.066,0.169-0.133,0.331-0.197,0.486    c-0.064,0.154-0.144,0.291-0.236,0.409c-0.094,0.119-0.21,0.213-0.349,0.283c-0.139,0.07-0.315,0.105-0.53,0.105    c-0.191,0-0.381-0.015-0.568-0.043v-0.696c0.067,0.01,0.133,0.021,0.194,0.033s0.127,0.018,0.194,0.018    c0.096,0,0.174-0.012,0.236-0.036c0.062-0.024,0.113-0.059,0.154-0.105s0.076-0.101,0.104-0.163    c0.029-0.063,0.056-0.136,0.08-0.218l0.093-0.29L184.793,43.561z"/>
		<path d="M168.079,50.833h0.818v1.914h0.014c0.059-0.092,0.127-0.174,0.209-0.246c0.081-0.073,0.171-0.134,0.27-0.185    c0.098-0.051,0.2-0.089,0.309-0.116c0.107-0.026,0.213-0.04,0.318-0.04c0.292,0,0.547,0.052,0.765,0.156s0.398,0.247,0.542,0.428    s0.251,0.393,0.322,0.634c0.072,0.242,0.108,0.5,0.108,0.776c0,0.251-0.032,0.496-0.097,0.732s-0.163,0.446-0.295,0.627    c-0.131,0.181-0.297,0.326-0.498,0.435s-0.438,0.163-0.711,0.163c-0.125,0-0.25-0.009-0.377-0.025    c-0.127-0.017-0.248-0.05-0.362-0.098c-0.114-0.048-0.219-0.111-0.312-0.188c-0.094-0.077-0.172-0.179-0.234-0.304h-0.014v0.515    h-0.775V50.833z M170.935,54.138c0-0.169-0.021-0.333-0.064-0.493c-0.043-0.16-0.108-0.301-0.194-0.424s-0.193-0.222-0.322-0.297    c-0.129-0.075-0.277-0.112-0.445-0.112c-0.344,0-0.604,0.121-0.779,0.362c-0.174,0.242-0.262,0.563-0.262,0.964    c0,0.188,0.023,0.364,0.068,0.526c0.046,0.162,0.113,0.301,0.205,0.417c0.091,0.116,0.199,0.208,0.326,0.276    c0.127,0.067,0.273,0.102,0.441,0.102c0.187,0,0.345-0.039,0.474-0.116c0.13-0.077,0.235-0.178,0.319-0.301    c0.084-0.124,0.144-0.264,0.18-0.42C170.917,54.463,170.935,54.303,170.935,54.138z"/>
		<path d="M173.081,54.349c0,0.145,0.021,0.285,0.062,0.42s0.102,0.254,0.183,0.355c0.082,0.101,0.185,0.182,0.309,0.243    c0.125,0.061,0.273,0.091,0.445,0.091c0.239,0,0.432-0.052,0.578-0.156c0.146-0.104,0.254-0.26,0.326-0.467h0.775    c-0.043,0.203-0.117,0.384-0.223,0.543c-0.105,0.16-0.232,0.294-0.381,0.402c-0.148,0.109-0.314,0.191-0.498,0.247    c-0.185,0.056-0.377,0.083-0.578,0.083c-0.292,0-0.551-0.048-0.775-0.145s-0.414-0.232-0.57-0.406    c-0.155-0.174-0.272-0.381-0.352-0.624c-0.079-0.241-0.119-0.507-0.119-0.797c0-0.266,0.043-0.518,0.127-0.757    c0.083-0.239,0.203-0.45,0.358-0.631s0.343-0.325,0.563-0.432c0.22-0.106,0.469-0.159,0.746-0.159    c0.292,0,0.554,0.062,0.786,0.185c0.231,0.124,0.425,0.287,0.577,0.49c0.153,0.203,0.265,0.436,0.334,0.699    c0.069,0.264,0.088,0.536,0.055,0.816H173.081z M174.991,53.805c-0.01-0.13-0.037-0.256-0.083-0.377    c-0.046-0.121-0.107-0.226-0.187-0.315c-0.079-0.089-0.175-0.162-0.287-0.217s-0.238-0.083-0.377-0.083    c-0.144,0-0.273,0.025-0.391,0.076s-0.219,0.121-0.302,0.21c-0.084,0.089-0.151,0.194-0.201,0.315    c-0.05,0.121-0.077,0.251-0.083,0.392H174.991z"/>
		<path d="M176.06,52.261h0.617v-1.124h0.817v1.124h0.74v0.616h-0.74v2.001c0,0.087,0.004,0.162,0.012,0.225    c0.007,0.063,0.023,0.116,0.05,0.16s0.065,0.076,0.118,0.098c0.053,0.022,0.125,0.033,0.216,0.033    c0.058,0,0.114-0.001,0.173-0.004c0.057-0.002,0.114-0.011,0.172-0.025v0.638c-0.092,0.01-0.18,0.02-0.266,0.029    c-0.086,0.009-0.175,0.014-0.266,0.014c-0.215,0-0.389-0.021-0.521-0.062s-0.234-0.102-0.309-0.181s-0.124-0.18-0.151-0.301    c-0.025-0.121-0.041-0.259-0.046-0.414v-2.211h-0.617V52.261z"/>
		<path d="M181.931,55.175c0,0.102,0.013,0.174,0.039,0.218s0.078,0.065,0.154,0.065c0.024,0,0.053,0,0.087,0    c0.033,0,0.071-0.005,0.114-0.015v0.573c-0.028,0.01-0.065,0.021-0.111,0.033c-0.046,0.012-0.093,0.023-0.14,0.032    c-0.049,0.01-0.096,0.017-0.144,0.022s-0.089,0.007-0.122,0.007c-0.168,0-0.307-0.034-0.416-0.102    c-0.11-0.068-0.182-0.186-0.216-0.355c-0.163,0.16-0.362,0.276-0.599,0.348c-0.237,0.073-0.466,0.109-0.686,0.109    c-0.168,0-0.328-0.023-0.481-0.069s-0.288-0.114-0.405-0.203s-0.211-0.203-0.279-0.341c-0.07-0.138-0.105-0.298-0.105-0.482    c0-0.232,0.043-0.42,0.127-0.565c0.083-0.145,0.193-0.259,0.33-0.341c0.136-0.082,0.289-0.142,0.459-0.178    s0.341-0.064,0.513-0.083c0.148-0.029,0.29-0.049,0.424-0.062s0.252-0.033,0.354-0.062c0.104-0.029,0.185-0.074,0.244-0.134    c0.061-0.06,0.09-0.151,0.09-0.272c0-0.106-0.025-0.193-0.075-0.261s-0.112-0.12-0.187-0.156    c-0.074-0.037-0.156-0.061-0.248-0.073c-0.09-0.012-0.176-0.018-0.258-0.018c-0.229,0-0.419,0.048-0.566,0.145    c-0.148,0.097-0.232,0.247-0.252,0.45h-0.818c0.015-0.242,0.072-0.442,0.172-0.602c0.102-0.159,0.229-0.288,0.385-0.384    c0.155-0.097,0.331-0.164,0.527-0.203c0.196-0.039,0.396-0.058,0.604-0.058c0.182,0,0.361,0.019,0.537,0.058    c0.178,0.039,0.337,0.102,0.479,0.189c0.141,0.087,0.254,0.199,0.34,0.337s0.13,0.306,0.13,0.504V55.175z M181.113,54.131    c-0.124,0.083-0.278,0.132-0.46,0.149s-0.363,0.042-0.545,0.076c-0.086,0.014-0.17,0.035-0.251,0.062s-0.153,0.063-0.216,0.109    s-0.111,0.106-0.146,0.181c-0.036,0.075-0.055,0.166-0.055,0.272c0,0.092,0.027,0.169,0.08,0.232    c0.052,0.062,0.115,0.112,0.189,0.148s0.156,0.062,0.244,0.076s0.168,0.022,0.24,0.022c0.091,0,0.189-0.012,0.295-0.037    c0.105-0.024,0.204-0.065,0.297-0.123c0.094-0.058,0.172-0.132,0.234-0.221c0.062-0.089,0.093-0.199,0.093-0.33V54.131z"/>
	</g>
	<g>
		<path d="M165.101,135.112h2.124c0.393,0,0.732,0.067,1.02,0.203c0.287,0.136,0.521,0.32,0.703,0.555s0.317,0.509,0.405,0.823    c0.089,0.314,0.133,0.65,0.133,1.008c0,0.358-0.044,0.694-0.133,1.008c-0.088,0.314-0.224,0.588-0.405,0.823    c-0.182,0.235-0.416,0.419-0.703,0.555s-0.627,0.203-1.02,0.203h-2.124V135.112z M165.998,139.549h0.883    c0.35,0,0.636-0.047,0.858-0.142s0.396-0.225,0.523-0.392c0.127-0.167,0.213-0.362,0.259-0.587    c0.045-0.225,0.068-0.467,0.068-0.729c0-0.261-0.023-0.504-0.068-0.729c-0.046-0.225-0.132-0.42-0.259-0.587    c-0.127-0.167-0.301-0.297-0.523-0.391s-0.509-0.142-0.858-0.142h-0.883V139.549z"/>
		<path d="M170.806,138.628c0,0.145,0.021,0.285,0.062,0.42c0.04,0.135,0.102,0.254,0.183,0.355    c0.081,0.101,0.185,0.182,0.309,0.243c0.125,0.061,0.273,0.091,0.445,0.091c0.239,0,0.432-0.052,0.578-0.156    c0.146-0.104,0.254-0.26,0.326-0.467h0.775c-0.043,0.203-0.117,0.384-0.223,0.543c-0.105,0.16-0.232,0.294-0.381,0.402    c-0.148,0.109-0.314,0.191-0.498,0.247c-0.185,0.056-0.377,0.083-0.578,0.083c-0.292,0-0.551-0.048-0.775-0.145    s-0.415-0.232-0.57-0.406c-0.155-0.174-0.272-0.381-0.352-0.624c-0.079-0.241-0.119-0.507-0.119-0.797    c0-0.266,0.042-0.518,0.126-0.757s0.203-0.45,0.359-0.631c0.155-0.181,0.343-0.325,0.563-0.432    c0.22-0.106,0.469-0.159,0.746-0.159c0.292,0,0.554,0.062,0.786,0.185c0.231,0.124,0.424,0.287,0.577,0.49    c0.153,0.203,0.265,0.436,0.334,0.699c0.069,0.264,0.087,0.536,0.054,0.816H170.806z M172.715,138.084    c-0.01-0.13-0.037-0.256-0.082-0.377c-0.046-0.121-0.107-0.226-0.187-0.315c-0.079-0.089-0.175-0.162-0.287-0.217    s-0.238-0.083-0.377-0.083c-0.144,0-0.274,0.025-0.392,0.076s-0.218,0.121-0.301,0.21c-0.084,0.089-0.151,0.194-0.201,0.315    c-0.051,0.121-0.078,0.251-0.083,0.392H172.715z"/>
		<path d="M174.18,135.112h0.818v1.914h0.014c0.058-0.092,0.127-0.174,0.208-0.246c0.082-0.073,0.172-0.134,0.27-0.185    s0.201-0.089,0.309-0.116c0.107-0.026,0.214-0.04,0.319-0.04c0.292,0,0.547,0.052,0.765,0.156s0.398,0.247,0.542,0.428    s0.251,0.393,0.322,0.634c0.072,0.242,0.108,0.5,0.108,0.776c0,0.251-0.032,0.496-0.098,0.732    c-0.064,0.237-0.162,0.446-0.294,0.627s-0.298,0.326-0.499,0.435c-0.2,0.109-0.438,0.163-0.71,0.163    c-0.125,0-0.25-0.009-0.377-0.025c-0.127-0.017-0.248-0.05-0.362-0.098c-0.115-0.048-0.219-0.111-0.312-0.188    c-0.093-0.077-0.171-0.179-0.233-0.304h-0.014v0.515h-0.775V135.112z M177.037,138.418c0-0.169-0.021-0.333-0.064-0.493    c-0.043-0.16-0.108-0.301-0.194-0.424s-0.193-0.222-0.322-0.297c-0.13-0.075-0.278-0.112-0.445-0.112    c-0.345,0-0.604,0.121-0.779,0.362c-0.174,0.242-0.262,0.563-0.262,0.964c0,0.188,0.022,0.364,0.068,0.526    c0.046,0.162,0.113,0.301,0.204,0.417c0.092,0.116,0.2,0.208,0.327,0.276c0.127,0.067,0.273,0.102,0.441,0.102    c0.187,0,0.345-0.039,0.474-0.116s0.235-0.178,0.319-0.301c0.084-0.124,0.144-0.264,0.18-0.42    C177.018,138.743,177.037,138.583,177.037,138.418z"/>
		<path d="M178.17,136.541h0.617v-1.124h0.818v1.124h0.739v0.616h-0.739v2.001c0,0.087,0.004,0.162,0.011,0.225    s0.023,0.116,0.05,0.16s0.066,0.076,0.119,0.098c0.053,0.022,0.124,0.033,0.215,0.033c0.058,0,0.115-0.001,0.173-0.004    c0.057-0.002,0.114-0.011,0.172-0.025v0.638c-0.091,0.01-0.18,0.02-0.266,0.029c-0.086,0.009-0.175,0.014-0.266,0.014    c-0.215,0-0.389-0.021-0.521-0.062s-0.234-0.102-0.309-0.181s-0.124-0.18-0.15-0.301c-0.026-0.121-0.042-0.259-0.047-0.414v-2.211    h-0.617V136.541z"/>
		<path d="M165.007,143.812h0.818v1.914h0.015c0.058-0.092,0.127-0.174,0.208-0.246c0.081-0.073,0.171-0.134,0.27-0.185    c0.098-0.051,0.2-0.089,0.309-0.116c0.107-0.026,0.214-0.04,0.319-0.04c0.291,0,0.546,0.052,0.764,0.156s0.398,0.247,0.542,0.428    s0.251,0.393,0.323,0.634c0.071,0.242,0.107,0.5,0.107,0.776c0,0.251-0.032,0.496-0.097,0.732s-0.163,0.446-0.294,0.627    c-0.132,0.181-0.298,0.326-0.499,0.435s-0.438,0.163-0.711,0.163c-0.124,0-0.25-0.009-0.377-0.025    c-0.126-0.017-0.247-0.05-0.362-0.098c-0.114-0.048-0.219-0.111-0.312-0.188c-0.094-0.077-0.172-0.179-0.233-0.304h-0.015v0.515    h-0.775V143.812z M167.864,147.118c0-0.169-0.021-0.333-0.064-0.493c-0.043-0.16-0.107-0.301-0.193-0.424    s-0.194-0.222-0.323-0.297c-0.129-0.075-0.277-0.112-0.445-0.112c-0.344,0-0.604,0.121-0.778,0.362    c-0.175,0.242-0.262,0.563-0.262,0.964c0,0.188,0.022,0.364,0.068,0.526c0.045,0.162,0.113,0.301,0.204,0.417    c0.091,0.116,0.2,0.208,0.326,0.276c0.127,0.067,0.274,0.102,0.441,0.102c0.187,0,0.345-0.039,0.474-0.116    c0.13-0.077,0.236-0.178,0.319-0.301c0.084-0.124,0.144-0.264,0.18-0.42C167.846,147.443,167.864,147.283,167.864,147.118z"/>
		<path d="M170.01,147.329c0,0.145,0.021,0.285,0.061,0.42c0.041,0.135,0.102,0.254,0.184,0.355    c0.081,0.101,0.184,0.182,0.309,0.243c0.124,0.061,0.272,0.091,0.444,0.091c0.239,0,0.433-0.052,0.578-0.156    c0.146-0.104,0.255-0.26,0.326-0.467h0.775c-0.043,0.203-0.117,0.384-0.223,0.543c-0.104,0.16-0.231,0.294-0.38,0.402    c-0.148,0.109-0.314,0.191-0.499,0.247s-0.377,0.083-0.578,0.083c-0.292,0-0.55-0.048-0.774-0.145    c-0.226-0.097-0.415-0.232-0.571-0.406c-0.155-0.174-0.272-0.381-0.352-0.624c-0.079-0.241-0.118-0.507-0.118-0.797    c0-0.266,0.042-0.518,0.126-0.757c0.083-0.239,0.203-0.45,0.358-0.631s0.344-0.325,0.563-0.432    c0.22-0.106,0.469-0.159,0.746-0.159c0.292,0,0.554,0.062,0.786,0.185c0.232,0.124,0.425,0.287,0.578,0.49    c0.152,0.203,0.264,0.436,0.333,0.699c0.069,0.264,0.088,0.536,0.055,0.816H170.01z M171.919,146.785    c-0.01-0.13-0.037-0.256-0.083-0.377c-0.045-0.121-0.107-0.226-0.187-0.315c-0.079-0.089-0.175-0.162-0.287-0.217    s-0.238-0.083-0.377-0.083c-0.144,0-0.273,0.025-0.391,0.076s-0.218,0.121-0.302,0.21c-0.084,0.089-0.15,0.194-0.201,0.315    c-0.05,0.121-0.077,0.251-0.082,0.392H171.919z"/>
		<path d="M172.989,145.241h0.617v-1.124h0.818v1.124h0.739v0.616h-0.739v2.001c0,0.087,0.004,0.162,0.011,0.225    s0.023,0.116,0.05,0.16s0.066,0.076,0.119,0.098c0.053,0.022,0.124,0.033,0.215,0.033c0.058,0,0.115-0.001,0.173-0.004    c0.057-0.002,0.114-0.011,0.172-0.025v0.638c-0.091,0.01-0.18,0.02-0.266,0.029c-0.086,0.009-0.175,0.014-0.266,0.014    c-0.215,0-0.389-0.021-0.521-0.062s-0.234-0.102-0.309-0.181s-0.124-0.18-0.15-0.301c-0.026-0.121-0.042-0.259-0.047-0.414v-2.211    h-0.617V145.241z"/>
		<path d="M178.86,148.155c0,0.102,0.013,0.174,0.039,0.218s0.078,0.065,0.154,0.065c0.024,0,0.053,0,0.087,0    c0.033,0,0.071-0.005,0.114-0.015v0.573c-0.028,0.01-0.065,0.021-0.111,0.033c-0.045,0.012-0.092,0.023-0.14,0.032    c-0.048,0.01-0.096,0.017-0.144,0.022s-0.089,0.007-0.122,0.007c-0.167,0-0.307-0.034-0.416-0.102    c-0.11-0.068-0.182-0.186-0.216-0.355c-0.162,0.16-0.362,0.276-0.599,0.348c-0.237,0.073-0.466,0.109-0.686,0.109    c-0.168,0-0.328-0.023-0.481-0.069c-0.152-0.046-0.288-0.114-0.405-0.203s-0.211-0.203-0.279-0.341    c-0.07-0.138-0.104-0.298-0.104-0.482c0-0.232,0.042-0.42,0.126-0.565c0.083-0.145,0.193-0.259,0.33-0.341    c0.136-0.082,0.289-0.142,0.459-0.178s0.341-0.064,0.513-0.083c0.148-0.029,0.29-0.049,0.424-0.062s0.252-0.033,0.355-0.062    c0.103-0.029,0.184-0.074,0.244-0.134c0.06-0.06,0.09-0.151,0.09-0.272c0-0.106-0.025-0.193-0.076-0.261    c-0.05-0.068-0.112-0.12-0.187-0.156c-0.074-0.037-0.156-0.061-0.247-0.073c-0.091-0.012-0.177-0.018-0.259-0.018    c-0.229,0-0.419,0.048-0.566,0.145c-0.148,0.097-0.232,0.247-0.252,0.45h-0.817c0.014-0.242,0.071-0.442,0.172-0.602    c0.101-0.159,0.229-0.288,0.384-0.384s0.331-0.164,0.527-0.203c0.196-0.039,0.397-0.058,0.604-0.058    c0.182,0,0.361,0.019,0.538,0.058c0.177,0.039,0.336,0.102,0.478,0.189c0.141,0.087,0.255,0.199,0.341,0.337    s0.129,0.306,0.129,0.504V148.155z M178.042,147.111c-0.124,0.083-0.277,0.132-0.459,0.149s-0.364,0.042-0.546,0.076    c-0.086,0.014-0.17,0.035-0.251,0.062s-0.153,0.063-0.215,0.109c-0.062,0.046-0.111,0.106-0.147,0.181    c-0.036,0.075-0.054,0.166-0.054,0.272c0,0.092,0.026,0.169,0.079,0.232c0.052,0.062,0.115,0.112,0.189,0.148    s0.156,0.062,0.244,0.076c0.089,0.015,0.169,0.022,0.24,0.022c0.091,0,0.189-0.012,0.295-0.037    c0.105-0.024,0.204-0.065,0.298-0.123c0.093-0.058,0.171-0.132,0.233-0.221c0.062-0.089,0.093-0.199,0.093-0.33V147.111z"/>
	</g>
	<g>
		<path d="M174.399,176.688c0.747,0,1.31,0.181,1.686,0.544c0.376,0.362,0.564,0.876,0.564,1.541c0,0.465-0.064,0.897-0.193,1.297    c-0.129,0.4-0.32,0.747-0.575,1.039s-0.574,0.521-0.958,0.686s-0.83,0.248-1.34,0.248h-2.213l1.114-5.355H174.399z     M173.634,181.053c0.297,0,0.561-0.055,0.791-0.165c0.229-0.11,0.423-0.26,0.579-0.45c0.155-0.19,0.274-0.41,0.356-0.66    c0.081-0.25,0.122-0.518,0.122-0.802c0-0.195-0.021-0.372-0.062-0.529c-0.043-0.158-0.11-0.294-0.205-0.409    c-0.094-0.115-0.214-0.204-0.359-0.267c-0.146-0.062-0.323-0.094-0.531-0.094h-0.876l-0.713,3.375H173.634z"/>
	</g>
	<g>
		<g>
			<path d="M167.542,185.781c0.747,0,1.31,0.181,1.686,0.544c0.376,0.362,0.564,0.876,0.564,1.541c0,0.465-0.064,0.897-0.193,1.297     c-0.129,0.4-0.32,0.747-0.575,1.039s-0.574,0.521-0.958,0.686s-0.83,0.248-1.34,0.248h-2.213l1.114-5.355H167.542z      M166.778,190.146c0.297,0,0.561-0.055,0.791-0.165c0.229-0.11,0.423-0.26,0.579-0.45c0.155-0.19,0.274-0.41,0.356-0.66     c0.081-0.25,0.122-0.518,0.122-0.802c0-0.195-0.021-0.372-0.062-0.529c-0.043-0.158-0.11-0.294-0.205-0.409     c-0.094-0.115-0.214-0.204-0.359-0.267c-0.146-0.062-0.323-0.094-0.531-0.094h-0.876l-0.713,3.375H166.778z"/>
			<path d="M173.936,188.841v-1.493h0.794v1.493h1.478v0.802h-1.478v1.493h-0.794v-1.493h-1.478v-0.802H173.936z"/>
			<path d="M183.752,185.781l-0.201,0.99h-2.881l-0.237,1.148h2.666l-0.193,0.915h-2.666l-0.274,1.312h2.926l-0.208,0.99h-4.084     l1.106-5.355H183.752z"/>
		</g>
	</g>
	
		<line fill="none" stroke="#000000" stroke-width="0.5" stroke-miterlimit="10" x1="164.15" y1="184.156" x2="184.115" y2="184.156"/>
	
		<line fill="none" stroke="#7A9AA8" stroke-width="2.5" stroke-linejoin="round" stroke-miterlimit="10" x1="19.805" y1="81.318" x2="191.488" y2="81.318"/>
	<path fill="none" stroke="#F47920" stroke-width="2.5" stroke-miterlimit="10" d="M19.805,173.11   c56.327,2.853,171.683-21.804,162.838-86.063"/>
	<g>
		<g>
			<polyline fill="none" stroke="#000000" stroke-width="0.5" stroke-miterlimit="10" points="19.941,2.691 19.941,174.093      187.126,174.093    "/>
			<g>
				<polygon points="18.071,3.238 19.941,0 21.811,3.238     "/>
			</g>
			<g>
				<polygon points="186.58,175.963 189.818,174.093 186.58,172.224     "/>
			</g>
		</g>
	</g>
	<path fill="none" stroke="#35A987" stroke-width="2.5" stroke-miterlimit="10" d="M19.805,81.318   c35.069,1.213,152.379-10.954,164.423-75.787"/>
</g>
<g id="Layer_2">
</g>
</svg>