<svg xmlns="http://www.w3.org/2000/svg" xmlns:xlink="http://www.w3.org/1999/xlink" version="1.1" x="0px" y="0px" width="268.947px" height="126.847px" viewBox="0 0 268.947 126.847" enable-background="new 0 0 268.947 126.847" xml:space="preserve">
<g id="Layer_2">
	<line fill="none" stroke="#CCCCCC" stroke-width="0.5" stroke-miterlimit="10" x1="261.974" y1="3.447" x2="27.83" y2="3.447"/>
	<line fill="none" stroke="#000000" stroke-width="0.5" stroke-miterlimit="10" x1="27.83" y1="116.282" x2="27.83" y2="119.013"/>
	<polyline fill="none" stroke="#000000" stroke-width="0.5" stroke-miterlimit="10" points="261.974,116.282 60.357,116.282    27.83,116.282  "/>
	<line fill="none" stroke="#CCCCCC" stroke-width="0.5" stroke-miterlimit="10" x1="27.83" y1="31.655" x2="261.974" y2="31.655"/>
	<line fill="none" stroke="#CCCCCC" stroke-width="0.5" stroke-miterlimit="10" x1="27.83" y1="59.864" x2="261.974" y2="59.864"/>
	<line fill="none" stroke="#CCCCCC" stroke-width="0.5" stroke-miterlimit="10" x1="27.83" y1="88.073" x2="261.974" y2="88.073"/>
	
		<line fill="none" stroke="#000000" stroke-width="0.5" stroke-miterlimit="10" x1="60.935" y1="116.282" x2="60.935" y2="119.009"/>
	
		<line fill="none" stroke="#000000" stroke-width="0.5" stroke-miterlimit="10" x1="94.616" y1="116.282" x2="94.616" y2="119.009"/>
	
		<line fill="none" stroke="#000000" stroke-width="0.5" stroke-miterlimit="10" x1="128.198" y1="116.282" x2="128.198" y2="119.009"/>
	
		<line fill="none" stroke="#000000" stroke-width="0.5" stroke-miterlimit="10" x1="161.889" y1="116.282" x2="161.889" y2="119.009"/>
	
		<line fill="none" stroke="#000000" stroke-width="0.5" stroke-miterlimit="10" x1="195.12" y1="116.282" x2="195.12" y2="119.009"/>
	
		<line fill="none" stroke="#000000" stroke-width="0.5" stroke-miterlimit="10" x1="228.531" y1="116.282" x2="228.531" y2="119.009"/>
	
		<line fill="none" stroke="#000000" stroke-width="0.5" stroke-miterlimit="10" x1="261.731" y1="116.282" x2="261.731" y2="119.009"/>
	<g>
		<g>
			<path d="M20.647,126.752c0.004-0.234,0.045-0.441,0.121-0.621c0.077-0.18,0.178-0.342,0.304-0.486     c0.125-0.144,0.268-0.275,0.425-0.395c0.158-0.119,0.32-0.233,0.486-0.344s0.332-0.224,0.496-0.338     c0.164-0.115,0.312-0.237,0.442-0.368c0.131-0.13,0.229-0.264,0.294-0.401c0.065-0.138,0.098-0.301,0.098-0.489     c0-0.153-0.028-0.289-0.084-0.408s-0.133-0.221-0.229-0.304c-0.097-0.084-0.209-0.146-0.337-0.189s-0.264-0.064-0.408-0.064     c-0.194,0-0.359,0.036-0.496,0.108c-0.138,0.072-0.249,0.169-0.334,0.29c-0.085,0.122-0.147,0.262-0.186,0.419     s-0.055,0.324-0.05,0.499h-0.425c-0.005-0.243,0.023-0.467,0.084-0.671c0.061-0.205,0.154-0.382,0.28-0.53     s0.285-0.265,0.476-0.348c0.191-0.083,0.415-0.125,0.671-0.125c0.207,0,0.399,0.028,0.577,0.085     c0.178,0.056,0.333,0.139,0.466,0.249s0.236,0.249,0.311,0.415c0.074,0.167,0.111,0.36,0.111,0.581     c0,0.198-0.033,0.378-0.098,0.54c-0.065,0.162-0.153,0.311-0.264,0.445c-0.11,0.135-0.236,0.26-0.378,0.375     c-0.142,0.114-0.291,0.222-0.449,0.32c-0.112,0.076-0.245,0.161-0.398,0.253c-0.153,0.093-0.3,0.194-0.442,0.308     c-0.142,0.112-0.267,0.234-0.375,0.367s-0.176,0.278-0.203,0.436h2.626v0.392H20.647z"/>
			<path d="M26.874,122.213c0.214,0.15,0.38,0.343,0.5,0.577c0.119,0.233,0.2,0.495,0.243,0.782     c0.042,0.288,0.064,0.569,0.064,0.844c0,0.279-0.021,0.563-0.064,0.851c-0.043,0.288-0.124,0.55-0.243,0.783     c-0.119,0.234-0.286,0.426-0.5,0.574s-0.494,0.223-0.84,0.223c-0.342,0-0.621-0.074-0.837-0.223s-0.384-0.34-0.503-0.574     c-0.119-0.233-0.2-0.495-0.243-0.783c-0.042-0.287-0.064-0.569-0.064-0.844c0-0.278,0.021-0.562,0.064-0.851     c0.043-0.287,0.124-0.549,0.243-0.782c0.119-0.234,0.287-0.427,0.503-0.577c0.216-0.151,0.495-0.227,0.837-0.227     C26.38,121.987,26.66,122.062,26.874,122.213z M25.386,122.554c-0.162,0.14-0.285,0.312-0.368,0.52     c-0.083,0.207-0.139,0.432-0.166,0.675s-0.041,0.466-0.041,0.668c0,0.207,0.014,0.432,0.041,0.672     c0.027,0.241,0.082,0.466,0.166,0.675c0.083,0.21,0.206,0.384,0.368,0.523s0.378,0.209,0.648,0.209s0.486-0.069,0.648-0.209     s0.285-0.313,0.368-0.523c0.083-0.209,0.138-0.434,0.165-0.675c0.027-0.24,0.041-0.465,0.041-0.672     c0-0.202-0.013-0.425-0.041-0.668c-0.027-0.243-0.082-0.468-0.165-0.675c-0.083-0.207-0.206-0.38-0.368-0.52     s-0.378-0.21-0.648-0.21S25.548,122.415,25.386,122.554z"/>
			<path d="M30.627,122.213c0.214,0.15,0.38,0.343,0.5,0.577c0.119,0.233,0.2,0.495,0.243,0.782     c0.042,0.288,0.064,0.569,0.064,0.844c0,0.279-0.021,0.563-0.064,0.851c-0.043,0.288-0.124,0.55-0.243,0.783     c-0.119,0.234-0.286,0.426-0.5,0.574s-0.494,0.223-0.84,0.223c-0.342,0-0.621-0.074-0.837-0.223s-0.384-0.34-0.503-0.574     c-0.119-0.233-0.2-0.495-0.243-0.783c-0.042-0.287-0.064-0.569-0.064-0.844c0-0.278,0.021-0.562,0.064-0.851     c0.043-0.287,0.124-0.549,0.243-0.782c0.119-0.234,0.287-0.427,0.503-0.577c0.216-0.151,0.495-0.227,0.837-0.227     C30.133,121.987,30.413,122.062,30.627,122.213z M29.139,122.554c-0.162,0.14-0.285,0.312-0.368,0.52     c-0.083,0.207-0.139,0.432-0.166,0.675s-0.041,0.466-0.041,0.668c0,0.207,0.014,0.432,0.041,0.672     c0.027,0.241,0.082,0.466,0.166,0.675c0.083,0.21,0.206,0.384,0.368,0.523s0.378,0.209,0.648,0.209s0.486-0.069,0.648-0.209     s0.285-0.313,0.368-0.523c0.083-0.209,0.138-0.434,0.165-0.675c0.027-0.24,0.041-0.465,0.041-0.672     c0-0.202-0.013-0.425-0.041-0.668c-0.027-0.243-0.082-0.468-0.165-0.675c-0.083-0.207-0.206-0.38-0.368-0.52     s-0.378-0.21-0.648-0.21S29.301,122.415,29.139,122.554z"/>
			<path d="M34.333,122.587c-0.173-0.162-0.397-0.243-0.671-0.243s-0.498,0.07-0.668,0.21s-0.304,0.314-0.398,0.526     c-0.095,0.212-0.158,0.439-0.189,0.685c-0.032,0.246-0.047,0.477-0.047,0.692h0.014c0.112-0.234,0.282-0.423,0.509-0.567     c0.227-0.144,0.476-0.216,0.746-0.216c0.238,0,0.453,0.04,0.645,0.118c0.191,0.079,0.354,0.188,0.489,0.327     c0.135,0.14,0.24,0.307,0.314,0.5s0.111,0.405,0.111,0.635s-0.04,0.441-0.118,0.638c-0.079,0.195-0.189,0.364-0.331,0.506     s-0.311,0.252-0.506,0.331c-0.196,0.078-0.411,0.118-0.645,0.118c-0.288,0-0.536-0.044-0.743-0.132s-0.378-0.23-0.513-0.429     c-0.135-0.198-0.235-0.455-0.301-0.772c-0.065-0.317-0.098-0.708-0.098-1.172c0-0.094,0.005-0.218,0.017-0.371     c0.011-0.152,0.037-0.315,0.077-0.489c0.041-0.173,0.098-0.349,0.172-0.526s0.173-0.339,0.297-0.482     c0.124-0.145,0.278-0.261,0.462-0.352c0.185-0.09,0.405-0.135,0.662-0.135c0.423,0,0.758,0.102,1.006,0.304     c0.247,0.203,0.396,0.513,0.445,0.932h-0.425C34.61,122.961,34.506,122.75,34.333,122.587z M33.125,124.13     c-0.146,0.065-0.27,0.154-0.371,0.267c-0.102,0.112-0.178,0.244-0.229,0.395c-0.052,0.151-0.078,0.313-0.078,0.489     c0,0.167,0.022,0.324,0.067,0.473s0.116,0.278,0.212,0.388c0.097,0.11,0.22,0.197,0.368,0.261     c0.148,0.062,0.326,0.094,0.533,0.094c0.171,0,0.325-0.032,0.462-0.098c0.137-0.065,0.256-0.152,0.357-0.263     c0.102-0.11,0.179-0.24,0.233-0.389c0.054-0.148,0.081-0.304,0.081-0.466c0-0.171-0.026-0.333-0.078-0.485     c-0.052-0.153-0.126-0.286-0.223-0.398s-0.216-0.201-0.358-0.267c-0.142-0.065-0.303-0.099-0.482-0.099     C33.436,124.032,33.271,124.065,33.125,124.13z"/>
		</g>
	</g>
	<g>
		<g>
			<path d="M21.349,114.179c0.214,0.15,0.38,0.343,0.5,0.577c0.119,0.233,0.2,0.495,0.243,0.782     c0.042,0.288,0.064,0.569,0.064,0.844c0,0.279-0.021,0.563-0.064,0.851c-0.043,0.288-0.124,0.55-0.243,0.783     c-0.119,0.234-0.286,0.426-0.5,0.574s-0.494,0.223-0.84,0.223c-0.342,0-0.621-0.074-0.837-0.223s-0.384-0.34-0.503-0.574     c-0.119-0.233-0.2-0.495-0.243-0.783c-0.042-0.287-0.064-0.569-0.064-0.844c0-0.278,0.021-0.562,0.064-0.851     c0.043-0.287,0.124-0.549,0.243-0.782c0.119-0.234,0.287-0.427,0.503-0.577c0.216-0.151,0.495-0.227,0.837-0.227     C20.855,113.953,21.135,114.028,21.349,114.179z M19.86,114.52c-0.162,0.14-0.285,0.312-0.368,0.52     c-0.083,0.207-0.139,0.432-0.166,0.675s-0.041,0.466-0.041,0.668c0,0.207,0.014,0.432,0.041,0.672     c0.027,0.241,0.082,0.466,0.166,0.675c0.083,0.21,0.206,0.384,0.368,0.523s0.378,0.209,0.648,0.209s0.486-0.069,0.648-0.209     s0.285-0.313,0.368-0.523c0.083-0.209,0.138-0.434,0.165-0.675c0.027-0.24,0.041-0.465,0.041-0.672     c0-0.202-0.013-0.425-0.041-0.668c-0.027-0.243-0.082-0.468-0.165-0.675c-0.083-0.207-0.206-0.38-0.368-0.52     s-0.378-0.21-0.648-0.21S20.022,114.38,19.86,114.52z"/>
		</g>
	</g>
	<g>
		<g>
			<path d="M15.122,90.4c0.004-0.234,0.045-0.441,0.121-0.621c0.077-0.18,0.178-0.342,0.304-0.486     c0.125-0.144,0.268-0.275,0.425-0.395c0.158-0.119,0.32-0.233,0.486-0.344s0.332-0.224,0.496-0.338     c0.164-0.115,0.312-0.237,0.442-0.368c0.131-0.13,0.229-0.264,0.294-0.401c0.065-0.138,0.098-0.301,0.098-0.489     c0-0.153-0.028-0.289-0.084-0.408s-0.133-0.221-0.229-0.304c-0.097-0.084-0.209-0.146-0.337-0.189s-0.264-0.064-0.408-0.064     c-0.194,0-0.359,0.036-0.496,0.108c-0.138,0.072-0.249,0.169-0.334,0.29c-0.085,0.122-0.147,0.262-0.186,0.419     s-0.055,0.324-0.05,0.499h-0.425c-0.005-0.243,0.023-0.467,0.084-0.671c0.061-0.205,0.154-0.382,0.28-0.53     s0.285-0.265,0.476-0.348c0.191-0.083,0.415-0.125,0.671-0.125c0.207,0,0.399,0.028,0.577,0.085     c0.178,0.056,0.333,0.139,0.466,0.249s0.236,0.249,0.311,0.415c0.074,0.167,0.111,0.36,0.111,0.581     c0,0.198-0.033,0.378-0.098,0.54c-0.065,0.162-0.153,0.311-0.264,0.445c-0.11,0.135-0.236,0.26-0.378,0.375     c-0.142,0.114-0.291,0.222-0.449,0.32c-0.112,0.076-0.245,0.161-0.398,0.253c-0.153,0.093-0.3,0.194-0.442,0.308     c-0.142,0.112-0.267,0.234-0.375,0.367s-0.176,0.278-0.203,0.436h2.626V90.4H15.122z"/>
			<path d="M21.349,85.861c0.214,0.15,0.38,0.343,0.5,0.577c0.119,0.233,0.2,0.495,0.243,0.782c0.042,0.288,0.064,0.569,0.064,0.844     c0,0.279-0.021,0.563-0.064,0.851c-0.043,0.288-0.124,0.55-0.243,0.783c-0.119,0.234-0.286,0.426-0.5,0.574     s-0.494,0.223-0.84,0.223c-0.342,0-0.621-0.074-0.837-0.223s-0.384-0.34-0.503-0.574c-0.119-0.233-0.2-0.495-0.243-0.783     c-0.042-0.287-0.064-0.569-0.064-0.844c0-0.278,0.021-0.562,0.064-0.851c0.043-0.287,0.124-0.549,0.243-0.782     c0.119-0.234,0.287-0.427,0.503-0.577c0.216-0.151,0.495-0.227,0.837-0.227C20.855,85.634,21.135,85.709,21.349,85.861z      M19.86,86.202c-0.162,0.14-0.285,0.312-0.368,0.52c-0.083,0.207-0.139,0.432-0.166,0.675s-0.041,0.466-0.041,0.668     c0,0.207,0.014,0.432,0.041,0.672c0.027,0.241,0.082,0.466,0.166,0.675c0.083,0.21,0.206,0.384,0.368,0.523     s0.378,0.209,0.648,0.209s0.486-0.069,0.648-0.209s0.285-0.313,0.368-0.523c0.083-0.209,0.138-0.434,0.165-0.675     c0.027-0.24,0.041-0.465,0.041-0.672c0-0.202-0.013-0.425-0.041-0.668c-0.027-0.243-0.082-0.468-0.165-0.675     c-0.083-0.207-0.206-0.38-0.368-0.52s-0.378-0.21-0.648-0.21S20.022,86.062,19.86,86.202z"/>
		</g>
	</g>
	<g>
		<g>
			<path d="M17.269,57.357h0.385v3.193h0.708v0.358h-0.708v1.174h-0.392v-1.174h-2.18v-0.412L17.269,57.357z M17.262,57.979h-0.014     l-1.782,2.572h1.795V57.979z"/>
			<path d="M21.349,57.543c0.214,0.151,0.38,0.343,0.5,0.577c0.119,0.235,0.2,0.496,0.243,0.784     c0.042,0.288,0.064,0.569,0.064,0.844c0,0.278-0.021,0.562-0.064,0.851c-0.043,0.287-0.124,0.549-0.243,0.782     c-0.119,0.234-0.286,0.426-0.5,0.574s-0.494,0.223-0.84,0.223c-0.342,0-0.621-0.074-0.837-0.223s-0.384-0.34-0.503-0.574     c-0.119-0.233-0.2-0.495-0.243-0.782c-0.042-0.289-0.064-0.569-0.064-0.844c0-0.279,0.021-0.562,0.064-0.851     c0.043-0.288,0.124-0.549,0.243-0.784c0.119-0.234,0.287-0.426,0.503-0.577c0.216-0.15,0.495-0.226,0.837-0.226     C20.855,57.317,21.135,57.393,21.349,57.543z M19.86,57.884c-0.162,0.14-0.285,0.313-0.368,0.52     c-0.083,0.207-0.139,0.433-0.166,0.675c-0.027,0.243-0.041,0.466-0.041,0.669c0,0.207,0.014,0.431,0.041,0.671     c0.027,0.241,0.082,0.466,0.166,0.675c0.083,0.21,0.206,0.384,0.368,0.523s0.378,0.209,0.648,0.209s0.486-0.069,0.648-0.209     s0.285-0.313,0.368-0.523c0.083-0.209,0.138-0.434,0.165-0.675c0.027-0.24,0.041-0.464,0.041-0.671     c0-0.203-0.013-0.426-0.041-0.669c-0.027-0.242-0.082-0.468-0.165-0.675c-0.083-0.207-0.206-0.38-0.368-0.52     c-0.162-0.139-0.378-0.209-0.648-0.209S20.022,57.745,19.86,57.884z"/>
		</g>
	</g>
	<g>
		<g>
			<path d="M17.548,29.6c-0.173-0.162-0.397-0.243-0.671-0.243s-0.498,0.07-0.668,0.209c-0.171,0.14-0.304,0.315-0.398,0.527     c-0.095,0.211-0.158,0.44-0.189,0.685c-0.032,0.245-0.047,0.476-0.047,0.692h0.014c0.112-0.234,0.282-0.423,0.509-0.567     s0.476-0.216,0.746-0.216c0.238,0,0.453,0.04,0.645,0.118c0.191,0.079,0.354,0.188,0.489,0.328c0.135,0.139,0.24,0.306,0.314,0.5     c0.074,0.193,0.111,0.405,0.111,0.634s-0.04,0.442-0.118,0.638c-0.079,0.196-0.189,0.365-0.331,0.506     c-0.142,0.142-0.311,0.252-0.506,0.331c-0.196,0.079-0.411,0.118-0.645,0.118c-0.288,0-0.536-0.044-0.743-0.132     s-0.378-0.23-0.513-0.429c-0.135-0.198-0.235-0.456-0.301-0.773c-0.065-0.317-0.098-0.708-0.098-1.171     c0-0.095,0.005-0.218,0.017-0.371c0.011-0.153,0.037-0.316,0.077-0.49c0.041-0.173,0.098-0.349,0.172-0.526     s0.173-0.338,0.297-0.482c0.124-0.144,0.278-0.261,0.462-0.351c0.185-0.09,0.405-0.135,0.662-0.135     c0.423,0,0.758,0.102,1.006,0.304c0.247,0.203,0.396,0.513,0.445,0.932h-0.425C17.826,29.974,17.722,29.762,17.548,29.6z      M16.34,31.142c-0.146,0.065-0.27,0.154-0.371,0.267c-0.102,0.113-0.178,0.244-0.229,0.395c-0.052,0.151-0.078,0.314-0.078,0.489     c0,0.167,0.022,0.324,0.067,0.473s0.116,0.278,0.212,0.388s0.22,0.197,0.368,0.26s0.326,0.095,0.533,0.095     c0.171,0,0.325-0.033,0.462-0.098c0.137-0.065,0.256-0.153,0.357-0.263c0.102-0.11,0.179-0.24,0.233-0.388     c0.054-0.148,0.081-0.304,0.081-0.466c0-0.171-0.026-0.333-0.078-0.486s-0.126-0.286-0.223-0.398     c-0.097-0.112-0.216-0.201-0.358-0.267c-0.142-0.065-0.303-0.098-0.482-0.098C16.652,31.044,16.486,31.077,16.34,31.142z"/>
			<path d="M21.349,29.225c0.214,0.151,0.38,0.343,0.5,0.577c0.119,0.234,0.2,0.495,0.243,0.783     c0.042,0.288,0.064,0.569,0.064,0.844c0,0.279-0.021,0.562-0.064,0.851c-0.043,0.288-0.124,0.549-0.243,0.783     c-0.119,0.234-0.286,0.425-0.5,0.574s-0.494,0.223-0.84,0.223c-0.342,0-0.621-0.075-0.837-0.223s-0.384-0.339-0.503-0.574     c-0.119-0.234-0.2-0.495-0.243-0.783c-0.042-0.288-0.064-0.569-0.064-0.844c0-0.279,0.021-0.562,0.064-0.851     c0.043-0.288,0.124-0.549,0.243-0.783c0.119-0.234,0.287-0.426,0.503-0.577c0.216-0.15,0.495-0.226,0.837-0.226     C20.855,28.999,21.135,29.075,21.349,29.225z M19.86,29.566c-0.162,0.14-0.285,0.313-0.368,0.52     c-0.083,0.207-0.139,0.432-0.166,0.675c-0.027,0.243-0.041,0.466-0.041,0.668c0,0.207,0.014,0.431,0.041,0.671     c0.027,0.241,0.082,0.466,0.166,0.675c0.083,0.209,0.206,0.384,0.368,0.523c0.162,0.14,0.378,0.209,0.648,0.209     s0.486-0.07,0.648-0.209c0.162-0.139,0.285-0.314,0.368-0.523c0.083-0.209,0.138-0.434,0.165-0.675     c0.027-0.241,0.041-0.464,0.041-0.671c0-0.203-0.013-0.425-0.041-0.668c-0.027-0.243-0.082-0.468-0.165-0.675     c-0.083-0.207-0.206-0.38-0.368-0.52c-0.162-0.139-0.378-0.209-0.648-0.209S20.022,29.427,19.86,29.566z"/>
		</g>
	</g>
	<g>
		<g>
			<path d="M12.041,4.816c0.191,0.209,0.465,0.334,0.82,0.375V3.193c-0.189-0.041-0.37-0.089-0.543-0.145     c-0.173-0.057-0.324-0.135-0.452-0.236c-0.128-0.102-0.231-0.229-0.307-0.385c-0.077-0.155-0.115-0.35-0.115-0.584     c0-0.203,0.037-0.385,0.111-0.547s0.175-0.3,0.304-0.415s0.279-0.203,0.452-0.263s0.356-0.091,0.55-0.091V0h0.263v0.526     c0.198,0,0.383,0.035,0.557,0.105S14.007,0.8,14.14,0.928c0.133,0.128,0.236,0.282,0.311,0.462     c0.074,0.18,0.109,0.38,0.105,0.601H14.13c-0.005-0.337-0.099-0.606-0.284-0.807s-0.425-0.3-0.722-0.3v1.944     c0.193,0.041,0.383,0.09,0.57,0.148c0.187,0.059,0.353,0.14,0.5,0.243c0.146,0.104,0.264,0.233,0.354,0.388     c0.09,0.155,0.135,0.352,0.135,0.591c0,0.22-0.044,0.415-0.131,0.583c-0.088,0.169-0.205,0.31-0.351,0.422     c-0.146,0.113-0.313,0.197-0.5,0.253c-0.187,0.056-0.379,0.084-0.577,0.084v0.574h-0.263V5.535     c-0.527-0.05-0.91-0.205-1.151-0.466c-0.241-0.261-0.37-0.648-0.388-1.161h0.425C11.751,4.304,11.849,4.607,12.041,4.816z      M12.479,0.941c-0.12,0.039-0.225,0.098-0.317,0.179s-0.165,0.186-0.216,0.314c-0.052,0.128-0.078,0.28-0.078,0.456     c0,0.157,0.028,0.286,0.084,0.385c0.057,0.099,0.131,0.18,0.223,0.243c0.092,0.063,0.198,0.113,0.317,0.149     c0.119,0.036,0.242,0.07,0.368,0.101V0.884C12.726,0.884,12.599,0.903,12.479,0.941z M13.542,5.137     c0.135-0.036,0.255-0.094,0.361-0.175c0.105-0.081,0.191-0.184,0.256-0.307c0.065-0.124,0.098-0.273,0.098-0.449     c0-0.162-0.035-0.297-0.104-0.405s-0.159-0.197-0.267-0.267s-0.229-0.127-0.364-0.172c-0.135-0.045-0.268-0.083-0.398-0.115     v1.944C13.268,5.191,13.408,5.173,13.542,5.137z"/>
			<path d="M17.984,2.521c-0.135,0.183-0.324,0.31-0.567,0.381v0.014c0.311,0.063,0.549,0.199,0.715,0.408     c0.167,0.209,0.25,0.476,0.25,0.8c0,0.239-0.043,0.447-0.128,0.625s-0.203,0.325-0.351,0.442     c-0.148,0.117-0.32,0.205-0.516,0.263c-0.196,0.058-0.406,0.088-0.631,0.088c-0.221,0-0.43-0.03-0.628-0.088     c-0.198-0.059-0.371-0.146-0.52-0.263c-0.148-0.117-0.266-0.265-0.351-0.442s-0.128-0.386-0.128-0.625     c0.009-0.31,0.097-0.576,0.264-0.796c0.166-0.22,0.398-0.357,0.695-0.412V2.902c-0.247-0.076-0.438-0.204-0.57-0.381     s-0.199-0.397-0.199-0.658c0-0.202,0.042-0.378,0.125-0.526c0.083-0.148,0.192-0.271,0.328-0.368     c0.135-0.097,0.288-0.169,0.459-0.216c0.171-0.047,0.344-0.071,0.52-0.071c0.176,0,0.349,0.024,0.52,0.071     c0.171,0.047,0.325,0.12,0.462,0.216c0.137,0.097,0.247,0.219,0.331,0.368c0.083,0.148,0.125,0.324,0.125,0.526     C18.187,2.12,18.119,2.339,17.984,2.521z M17.225,5.126c0.146-0.042,0.273-0.108,0.381-0.196     c0.108-0.087,0.193-0.199,0.256-0.334c0.063-0.135,0.095-0.292,0.095-0.473c0-0.171-0.033-0.32-0.098-0.449     c-0.065-0.128-0.153-0.236-0.263-0.324c-0.11-0.088-0.238-0.153-0.385-0.196c-0.146-0.043-0.298-0.062-0.456-0.058     c-0.162-0.004-0.316,0.014-0.462,0.054c-0.146,0.041-0.273,0.104-0.381,0.192s-0.195,0.197-0.26,0.327     c-0.065,0.131-0.098,0.281-0.098,0.452c0,0.176,0.032,0.331,0.095,0.466c0.063,0.135,0.148,0.247,0.256,0.334     c0.108,0.087,0.235,0.154,0.381,0.199c0.146,0.045,0.303,0.068,0.469,0.068S17.078,5.169,17.225,5.126z M17.133,2.697     c0.122-0.034,0.229-0.087,0.321-0.159s0.167-0.164,0.223-0.277c0.056-0.112,0.084-0.245,0.084-0.398     c0-0.135-0.026-0.254-0.078-0.357s-0.123-0.189-0.213-0.257c-0.09-0.067-0.195-0.119-0.317-0.155     c-0.122-0.036-0.254-0.054-0.398-0.054c-0.13,0-0.256,0.018-0.378,0.054c-0.122,0.036-0.229,0.087-0.324,0.155     c-0.094,0.068-0.17,0.153-0.226,0.257s-0.084,0.223-0.084,0.357c0,0.158,0.029,0.293,0.088,0.405s0.135,0.205,0.229,0.277     c0.095,0.072,0.203,0.124,0.324,0.155c0.122,0.031,0.245,0.045,0.371,0.041C16.886,2.745,17.012,2.73,17.133,2.697z"/>
			<path d="M21.349,0.908c0.214,0.151,0.38,0.343,0.5,0.577c0.119,0.234,0.2,0.495,0.243,0.783c0.042,0.288,0.064,0.569,0.064,0.844     c0,0.279-0.021,0.562-0.064,0.851c-0.043,0.288-0.124,0.549-0.243,0.783c-0.119,0.234-0.286,0.425-0.5,0.574     s-0.494,0.223-0.84,0.223c-0.342,0-0.621-0.075-0.837-0.223s-0.384-0.339-0.503-0.574c-0.119-0.234-0.2-0.495-0.243-0.783     c-0.042-0.288-0.064-0.569-0.064-0.844c0-0.279,0.021-0.562,0.064-0.851c0.043-0.288,0.124-0.549,0.243-0.783     c0.119-0.234,0.287-0.426,0.503-0.577c0.216-0.15,0.495-0.226,0.837-0.226C20.855,0.682,21.135,0.757,21.349,0.908z M19.86,1.249     c-0.162,0.14-0.285,0.313-0.368,0.52c-0.083,0.207-0.139,0.432-0.166,0.675c-0.027,0.243-0.041,0.466-0.041,0.668     c0,0.207,0.014,0.431,0.041,0.671c0.027,0.241,0.082,0.466,0.166,0.675c0.083,0.209,0.206,0.384,0.368,0.523     c0.162,0.14,0.378,0.209,0.648,0.209s0.486-0.07,0.648-0.209c0.162-0.139,0.285-0.314,0.368-0.523     c0.083-0.209,0.138-0.434,0.165-0.675c0.027-0.241,0.041-0.464,0.041-0.671c0-0.203-0.013-0.425-0.041-0.668     c-0.027-0.243-0.082-0.468-0.165-0.675c-0.083-0.207-0.206-0.38-0.368-0.52c-0.162-0.139-0.378-0.209-0.648-0.209     S20.022,1.109,19.86,1.249z"/>
		</g>
	</g>
	<g>
		<g>
			<path d="M54.05,126.752c0.004-0.234,0.045-0.441,0.121-0.621c0.077-0.18,0.178-0.342,0.304-0.486     c0.125-0.144,0.268-0.275,0.425-0.395c0.158-0.119,0.32-0.233,0.486-0.344s0.332-0.224,0.496-0.338     c0.164-0.115,0.312-0.237,0.442-0.368c0.131-0.13,0.229-0.264,0.294-0.401c0.065-0.138,0.098-0.301,0.098-0.489     c0-0.153-0.028-0.289-0.084-0.408s-0.133-0.221-0.229-0.304c-0.097-0.084-0.209-0.146-0.337-0.189s-0.264-0.064-0.408-0.064     c-0.194,0-0.359,0.036-0.496,0.108c-0.138,0.072-0.249,0.169-0.334,0.29c-0.085,0.122-0.147,0.262-0.186,0.419     s-0.055,0.324-0.05,0.499h-0.425c-0.005-0.243,0.023-0.467,0.084-0.671c0.061-0.205,0.154-0.382,0.28-0.53     s0.285-0.265,0.476-0.348c0.191-0.083,0.415-0.125,0.671-0.125c0.207,0,0.399,0.028,0.577,0.085     c0.178,0.056,0.333,0.139,0.466,0.249s0.236,0.249,0.311,0.415c0.074,0.167,0.111,0.36,0.111,0.581     c0,0.198-0.033,0.378-0.098,0.54c-0.065,0.162-0.153,0.311-0.264,0.445c-0.11,0.135-0.236,0.26-0.378,0.375     c-0.142,0.114-0.291,0.222-0.449,0.32c-0.112,0.076-0.245,0.161-0.398,0.253c-0.153,0.093-0.3,0.194-0.442,0.308     c-0.142,0.112-0.267,0.234-0.375,0.367s-0.176,0.278-0.203,0.436h2.626v0.392H54.05z"/>
			<path d="M60.277,122.213c0.214,0.15,0.38,0.343,0.5,0.577c0.119,0.233,0.2,0.495,0.243,0.782     c0.042,0.288,0.064,0.569,0.064,0.844c0,0.279-0.021,0.563-0.064,0.851c-0.043,0.288-0.124,0.55-0.243,0.783     c-0.119,0.234-0.286,0.426-0.5,0.574s-0.494,0.223-0.84,0.223c-0.342,0-0.621-0.074-0.837-0.223s-0.384-0.34-0.503-0.574     c-0.119-0.233-0.2-0.495-0.243-0.783c-0.042-0.287-0.064-0.569-0.064-0.844c0-0.278,0.021-0.562,0.064-0.851     c0.043-0.287,0.124-0.549,0.243-0.782c0.119-0.234,0.287-0.427,0.503-0.577c0.216-0.151,0.495-0.227,0.837-0.227     C59.783,121.987,60.063,122.062,60.277,122.213z M58.789,122.554c-0.162,0.14-0.285,0.312-0.368,0.52     c-0.083,0.207-0.139,0.432-0.166,0.675s-0.041,0.466-0.041,0.668c0,0.207,0.014,0.432,0.041,0.672     c0.027,0.241,0.082,0.466,0.166,0.675c0.083,0.21,0.206,0.384,0.368,0.523s0.378,0.209,0.648,0.209s0.486-0.069,0.648-0.209     s0.285-0.313,0.368-0.523c0.083-0.209,0.138-0.434,0.165-0.675c0.027-0.24,0.041-0.465,0.041-0.672     c0-0.202-0.013-0.425-0.041-0.668c-0.027-0.243-0.082-0.468-0.165-0.675c-0.083-0.207-0.206-0.38-0.368-0.52     s-0.378-0.21-0.648-0.21S58.951,122.415,58.789,122.554z"/>
			<path d="M64.03,122.213c0.214,0.15,0.38,0.343,0.5,0.577c0.119,0.233,0.2,0.495,0.243,0.782c0.042,0.288,0.064,0.569,0.064,0.844     c0,0.279-0.021,0.563-0.064,0.851c-0.043,0.288-0.124,0.55-0.243,0.783c-0.119,0.234-0.286,0.426-0.5,0.574     s-0.494,0.223-0.84,0.223c-0.342,0-0.621-0.074-0.837-0.223s-0.384-0.34-0.503-0.574c-0.119-0.233-0.2-0.495-0.243-0.783     c-0.042-0.287-0.064-0.569-0.064-0.844c0-0.278,0.021-0.562,0.064-0.851c0.043-0.287,0.124-0.549,0.243-0.782     c0.119-0.234,0.287-0.427,0.503-0.577c0.216-0.151,0.495-0.227,0.837-0.227C63.536,121.987,63.816,122.062,64.03,122.213z      M62.542,122.554c-0.162,0.14-0.285,0.312-0.368,0.52c-0.083,0.207-0.139,0.432-0.166,0.675s-0.041,0.466-0.041,0.668     c0,0.207,0.014,0.432,0.041,0.672c0.027,0.241,0.082,0.466,0.166,0.675c0.083,0.21,0.206,0.384,0.368,0.523     s0.378,0.209,0.648,0.209s0.486-0.069,0.648-0.209s0.285-0.313,0.368-0.523c0.083-0.209,0.138-0.434,0.165-0.675     c0.027-0.24,0.041-0.465,0.041-0.672c0-0.202-0.013-0.425-0.041-0.668c-0.027-0.243-0.082-0.468-0.165-0.675     c-0.083-0.207-0.206-0.38-0.368-0.52s-0.378-0.21-0.648-0.21S62.704,122.415,62.542,122.554z"/>
			<path d="M68.448,122.088v0.392c-0.148,0.152-0.326,0.358-0.533,0.617s-0.409,0.567-0.604,0.925     c-0.195,0.357-0.367,0.766-0.513,1.222c-0.146,0.457-0.233,0.96-0.26,1.509h-0.459c0.027-0.4,0.082-0.778,0.165-1.134     c0.083-0.355,0.203-0.703,0.358-1.043s0.349-0.681,0.581-1.022c0.231-0.342,0.512-0.7,0.84-1.073H65.41v-0.392H68.448z"/>
		</g>
	</g>
	<g>
		<g>
			<path d="M87.453,126.752c0.004-0.234,0.045-0.441,0.121-0.621c0.077-0.18,0.178-0.342,0.304-0.486     c0.125-0.144,0.268-0.275,0.425-0.395c0.158-0.119,0.32-0.233,0.486-0.344s0.332-0.224,0.496-0.338     c0.164-0.115,0.312-0.237,0.442-0.368c0.131-0.13,0.229-0.264,0.294-0.401c0.065-0.138,0.098-0.301,0.098-0.489     c0-0.153-0.028-0.289-0.084-0.408s-0.133-0.221-0.229-0.304c-0.097-0.084-0.209-0.146-0.337-0.189s-0.264-0.064-0.408-0.064     c-0.194,0-0.359,0.036-0.496,0.108c-0.138,0.072-0.249,0.169-0.334,0.29c-0.085,0.122-0.147,0.262-0.186,0.419     s-0.055,0.324-0.05,0.499h-0.425c-0.005-0.243,0.023-0.467,0.084-0.671c0.061-0.205,0.154-0.382,0.28-0.53     s0.285-0.265,0.476-0.348c0.191-0.083,0.415-0.125,0.671-0.125c0.207,0,0.399,0.028,0.577,0.085     c0.178,0.056,0.333,0.139,0.466,0.249s0.236,0.249,0.311,0.415c0.074,0.167,0.111,0.36,0.111,0.581     c0,0.198-0.033,0.378-0.098,0.54c-0.065,0.162-0.153,0.311-0.264,0.445c-0.11,0.135-0.236,0.26-0.378,0.375     c-0.142,0.114-0.291,0.222-0.449,0.32c-0.112,0.076-0.245,0.161-0.398,0.253c-0.153,0.093-0.3,0.194-0.442,0.308     c-0.142,0.112-0.267,0.234-0.375,0.367s-0.176,0.278-0.203,0.436h2.626v0.392H87.453z"/>
			<path d="M93.68,122.213c0.214,0.15,0.38,0.343,0.5,0.577c0.119,0.233,0.2,0.495,0.243,0.782c0.042,0.288,0.064,0.569,0.064,0.844     c0,0.279-0.021,0.563-0.064,0.851c-0.043,0.288-0.124,0.55-0.243,0.783c-0.119,0.234-0.286,0.426-0.5,0.574     s-0.494,0.223-0.84,0.223c-0.342,0-0.621-0.074-0.837-0.223s-0.384-0.34-0.503-0.574c-0.119-0.233-0.2-0.495-0.243-0.783     c-0.042-0.287-0.064-0.569-0.064-0.844c0-0.278,0.021-0.562,0.064-0.851c0.043-0.287,0.124-0.549,0.243-0.782     c0.119-0.234,0.287-0.427,0.503-0.577c0.216-0.151,0.495-0.227,0.837-0.227C93.186,121.987,93.466,122.062,93.68,122.213z      M92.191,122.554c-0.162,0.14-0.285,0.312-0.368,0.52c-0.083,0.207-0.139,0.432-0.166,0.675s-0.041,0.466-0.041,0.668     c0,0.207,0.014,0.432,0.041,0.672c0.027,0.241,0.082,0.466,0.166,0.675c0.083,0.21,0.206,0.384,0.368,0.523     s0.378,0.209,0.648,0.209s0.486-0.069,0.648-0.209s0.285-0.313,0.368-0.523c0.083-0.209,0.138-0.434,0.165-0.675     c0.027-0.24,0.041-0.465,0.041-0.672c0-0.202-0.013-0.425-0.041-0.668c-0.027-0.243-0.082-0.468-0.165-0.675     c-0.083-0.207-0.206-0.38-0.368-0.52s-0.378-0.21-0.648-0.21S92.354,122.415,92.191,122.554z"/>
			<path d="M97.433,122.213c0.214,0.15,0.38,0.343,0.5,0.577c0.119,0.233,0.2,0.495,0.243,0.782     c0.042,0.288,0.064,0.569,0.064,0.844c0,0.279-0.021,0.563-0.064,0.851c-0.043,0.288-0.124,0.55-0.243,0.783     c-0.119,0.234-0.286,0.426-0.5,0.574s-0.494,0.223-0.84,0.223c-0.342,0-0.621-0.074-0.837-0.223s-0.384-0.34-0.503-0.574     c-0.119-0.233-0.2-0.495-0.243-0.783c-0.042-0.287-0.064-0.569-0.064-0.844c0-0.278,0.021-0.562,0.064-0.851     c0.043-0.287,0.124-0.549,0.243-0.782c0.119-0.234,0.287-0.427,0.503-0.577c0.216-0.151,0.495-0.227,0.837-0.227     C96.939,121.987,97.219,122.062,97.433,122.213z M95.944,122.554c-0.162,0.14-0.285,0.312-0.368,0.52     c-0.083,0.207-0.139,0.432-0.166,0.675s-0.041,0.466-0.041,0.668c0,0.207,0.014,0.432,0.041,0.672     c0.027,0.241,0.082,0.466,0.166,0.675c0.083,0.21,0.206,0.384,0.368,0.523s0.378,0.209,0.648,0.209s0.486-0.069,0.648-0.209     s0.285-0.313,0.368-0.523c0.083-0.209,0.138-0.434,0.165-0.675c0.027-0.24,0.041-0.465,0.041-0.672     c0-0.202-0.013-0.425-0.041-0.668c-0.027-0.243-0.082-0.468-0.165-0.675c-0.083-0.207-0.206-0.38-0.368-0.52     s-0.378-0.21-0.648-0.21S96.106,122.415,95.944,122.554z"/>
			<path d="M101.574,123.827c-0.135,0.182-0.324,0.31-0.567,0.381v0.014c0.311,0.063,0.549,0.199,0.715,0.408s0.25,0.476,0.25,0.8     c0,0.239-0.043,0.447-0.128,0.625s-0.203,0.325-0.351,0.441c-0.148,0.117-0.32,0.205-0.516,0.264s-0.406,0.088-0.631,0.088     c-0.221,0-0.43-0.029-0.628-0.088c-0.198-0.059-0.371-0.146-0.52-0.264c-0.148-0.116-0.266-0.264-0.351-0.441     s-0.128-0.386-0.128-0.625c0.009-0.311,0.097-0.576,0.264-0.796c0.166-0.221,0.398-0.358,0.695-0.412v-0.014     c-0.247-0.076-0.438-0.203-0.57-0.381s-0.199-0.397-0.199-0.658c0-0.203,0.042-0.378,0.125-0.526     c0.083-0.148,0.192-0.271,0.328-0.368c0.135-0.097,0.288-0.169,0.459-0.216c0.171-0.048,0.344-0.071,0.52-0.071     c0.176,0,0.349,0.023,0.52,0.071c0.171,0.047,0.325,0.119,0.462,0.216c0.137,0.097,0.247,0.22,0.331,0.368     c0.083,0.148,0.125,0.323,0.125,0.526C101.776,123.424,101.709,123.644,101.574,123.827z M100.814,126.432     c0.146-0.043,0.273-0.108,0.381-0.196s0.193-0.199,0.256-0.334s0.095-0.292,0.095-0.473c0-0.171-0.033-0.32-0.098-0.448     c-0.065-0.129-0.153-0.236-0.263-0.324s-0.238-0.153-0.385-0.196c-0.146-0.042-0.298-0.062-0.456-0.057     c-0.162-0.005-0.316,0.013-0.462,0.054c-0.146,0.04-0.273,0.104-0.381,0.192s-0.195,0.197-0.26,0.327     c-0.065,0.131-0.098,0.281-0.098,0.452c0,0.176,0.032,0.331,0.095,0.466s0.148,0.246,0.256,0.334s0.235,0.154,0.381,0.199     c0.146,0.045,0.303,0.067,0.469,0.067S100.668,126.475,100.814,126.432z M100.723,124.001c0.122-0.033,0.229-0.086,0.321-0.158     s0.167-0.164,0.223-0.276c0.056-0.113,0.084-0.246,0.084-0.398c0-0.136-0.026-0.255-0.078-0.358s-0.123-0.188-0.213-0.256     c-0.09-0.067-0.195-0.119-0.317-0.155s-0.254-0.055-0.398-0.055c-0.13,0-0.256,0.019-0.378,0.055s-0.229,0.088-0.324,0.155     c-0.094,0.067-0.17,0.152-0.226,0.256s-0.084,0.223-0.084,0.358c0,0.157,0.029,0.292,0.088,0.404     c0.059,0.113,0.135,0.205,0.229,0.277c0.095,0.072,0.203,0.124,0.324,0.155s0.245,0.045,0.371,0.04     C100.476,124.05,100.602,124.036,100.723,124.001z"/>
		</g>
	</g>
	<g>
		<g>
			<path d="M120.856,126.752c0.004-0.234,0.045-0.441,0.121-0.621c0.077-0.18,0.178-0.342,0.304-0.486     c0.125-0.144,0.268-0.275,0.425-0.395c0.158-0.119,0.32-0.233,0.486-0.344s0.332-0.224,0.496-0.338     c0.164-0.115,0.312-0.237,0.442-0.368c0.131-0.13,0.229-0.264,0.294-0.401c0.065-0.138,0.098-0.301,0.098-0.489     c0-0.153-0.028-0.289-0.084-0.408s-0.133-0.221-0.229-0.304c-0.097-0.084-0.209-0.146-0.337-0.189s-0.264-0.064-0.408-0.064     c-0.194,0-0.359,0.036-0.496,0.108c-0.138,0.072-0.249,0.169-0.334,0.29c-0.085,0.122-0.147,0.262-0.186,0.419     s-0.055,0.324-0.05,0.499h-0.425c-0.005-0.243,0.023-0.467,0.084-0.671c0.061-0.205,0.154-0.382,0.28-0.53     s0.285-0.265,0.476-0.348c0.191-0.083,0.415-0.125,0.671-0.125c0.207,0,0.399,0.028,0.577,0.085     c0.178,0.056,0.333,0.139,0.466,0.249s0.236,0.249,0.311,0.415c0.074,0.167,0.111,0.36,0.111,0.581     c0,0.198-0.033,0.378-0.098,0.54c-0.065,0.162-0.153,0.311-0.264,0.445c-0.11,0.135-0.236,0.26-0.378,0.375     c-0.142,0.114-0.291,0.222-0.449,0.32c-0.112,0.076-0.245,0.161-0.398,0.253c-0.153,0.093-0.3,0.194-0.442,0.308     c-0.142,0.112-0.267,0.234-0.375,0.367s-0.176,0.278-0.203,0.436h2.626v0.392H120.856z"/>
			<path d="M127.083,122.213c0.214,0.15,0.38,0.343,0.5,0.577c0.119,0.233,0.2,0.495,0.243,0.782     c0.042,0.288,0.064,0.569,0.064,0.844c0,0.279-0.021,0.563-0.064,0.851c-0.043,0.288-0.124,0.55-0.243,0.783     c-0.119,0.234-0.286,0.426-0.5,0.574s-0.494,0.223-0.84,0.223c-0.342,0-0.621-0.074-0.837-0.223s-0.384-0.34-0.503-0.574     c-0.119-0.233-0.2-0.495-0.243-0.783c-0.042-0.287-0.064-0.569-0.064-0.844c0-0.278,0.021-0.562,0.064-0.851     c0.043-0.287,0.124-0.549,0.243-0.782c0.119-0.234,0.287-0.427,0.503-0.577c0.216-0.151,0.495-0.227,0.837-0.227     C126.589,121.987,126.869,122.062,127.083,122.213z M125.595,122.554c-0.162,0.14-0.285,0.312-0.368,0.52     c-0.083,0.207-0.139,0.432-0.166,0.675s-0.041,0.466-0.041,0.668c0,0.207,0.014,0.432,0.041,0.672     c0.027,0.241,0.082,0.466,0.166,0.675c0.083,0.21,0.206,0.384,0.368,0.523s0.378,0.209,0.648,0.209s0.486-0.069,0.648-0.209     s0.285-0.313,0.368-0.523c0.083-0.209,0.138-0.434,0.165-0.675c0.027-0.24,0.041-0.465,0.041-0.672     c0-0.202-0.013-0.425-0.041-0.668c-0.027-0.243-0.082-0.468-0.165-0.675c-0.083-0.207-0.206-0.38-0.368-0.52     s-0.378-0.21-0.648-0.21S125.757,122.415,125.595,122.554z"/>
			<path d="M130.836,122.213c0.214,0.15,0.38,0.343,0.5,0.577c0.119,0.233,0.2,0.495,0.243,0.782     c0.042,0.288,0.064,0.569,0.064,0.844c0,0.279-0.021,0.563-0.064,0.851c-0.043,0.288-0.124,0.55-0.243,0.783     c-0.119,0.234-0.286,0.426-0.5,0.574s-0.494,0.223-0.84,0.223c-0.342,0-0.621-0.074-0.837-0.223s-0.384-0.34-0.503-0.574     c-0.119-0.233-0.2-0.495-0.243-0.783c-0.042-0.287-0.064-0.569-0.064-0.844c0-0.278,0.021-0.562,0.064-0.851     c0.043-0.287,0.124-0.549,0.243-0.782c0.119-0.234,0.287-0.427,0.503-0.577c0.216-0.151,0.495-0.227,0.837-0.227     C130.342,121.987,130.622,122.062,130.836,122.213z M129.348,122.554c-0.162,0.14-0.285,0.312-0.368,0.52     c-0.083,0.207-0.139,0.432-0.166,0.675s-0.041,0.466-0.041,0.668c0,0.207,0.014,0.432,0.041,0.672     c0.027,0.241,0.082,0.466,0.166,0.675c0.083,0.21,0.206,0.384,0.368,0.523s0.378,0.209,0.648,0.209s0.486-0.069,0.648-0.209     s0.285-0.313,0.368-0.523c0.083-0.209,0.138-0.434,0.165-0.675c0.027-0.24,0.041-0.465,0.041-0.672     c0-0.202-0.013-0.425-0.041-0.668c-0.027-0.243-0.082-0.468-0.165-0.675c-0.083-0.207-0.206-0.38-0.368-0.52     s-0.378-0.21-0.648-0.21S129.51,122.415,129.348,122.554z"/>
			<path d="M132.956,126.253c0.173,0.161,0.397,0.242,0.671,0.242c0.279,0,0.503-0.069,0.672-0.209     c0.168-0.14,0.3-0.314,0.395-0.526c0.095-0.212,0.158-0.439,0.189-0.686c0.031-0.245,0.047-0.476,0.047-0.691h-0.013     c-0.113,0.234-0.283,0.423-0.51,0.566c-0.228,0.145-0.476,0.217-0.746,0.217c-0.234,0-0.448-0.04-0.641-0.118     c-0.193-0.079-0.358-0.188-0.493-0.328c-0.135-0.139-0.24-0.306-0.314-0.499s-0.111-0.405-0.111-0.635s0.04-0.441,0.118-0.638     c0.079-0.195,0.189-0.364,0.331-0.506c0.142-0.142,0.311-0.254,0.506-0.334c0.196-0.081,0.411-0.122,0.645-0.122     c0.288,0,0.536,0.044,0.743,0.132s0.378,0.231,0.513,0.432c0.135,0.2,0.235,0.46,0.3,0.78c0.065,0.319,0.098,0.708,0.098,1.167     c0,0.095-0.005,0.219-0.017,0.372c-0.011,0.152-0.037,0.315-0.078,0.489c-0.041,0.173-0.098,0.349-0.172,0.526     s-0.173,0.337-0.297,0.479c-0.124,0.142-0.278,0.257-0.462,0.348c-0.185,0.09-0.405,0.135-0.662,0.135     c-0.423,0-0.758-0.101-1.006-0.301s-0.396-0.51-0.445-0.928h0.425C132.678,125.879,132.782,126.091,132.956,126.253z      M134.164,124.71c0.146-0.065,0.27-0.154,0.372-0.267c0.101-0.112,0.178-0.244,0.229-0.395c0.051-0.151,0.078-0.314,0.078-0.489     c0-0.171-0.023-0.33-0.068-0.477c-0.045-0.146-0.116-0.274-0.212-0.385s-0.219-0.196-0.368-0.26     c-0.148-0.062-0.326-0.095-0.533-0.095c-0.167,0-0.319,0.033-0.459,0.099c-0.139,0.065-0.26,0.152-0.361,0.263     c-0.102,0.11-0.179,0.24-0.233,0.389c-0.054,0.148-0.081,0.304-0.081,0.466c0,0.171,0.026,0.333,0.078,0.485     c0.052,0.153,0.126,0.286,0.223,0.398s0.216,0.201,0.358,0.267c0.142,0.065,0.302,0.098,0.482,0.098     C133.852,124.808,134.018,124.776,134.164,124.71z"/>
		</g>
	</g>
	<g>
		<g>
			<path d="M154.26,126.752c0.004-0.234,0.045-0.441,0.121-0.621c0.077-0.18,0.178-0.342,0.304-0.486     c0.126-0.144,0.268-0.275,0.426-0.395c0.157-0.119,0.319-0.233,0.485-0.344c0.167-0.11,0.332-0.224,0.496-0.338     c0.165-0.115,0.312-0.237,0.442-0.368c0.131-0.13,0.229-0.264,0.294-0.401s0.098-0.301,0.098-0.489     c0-0.153-0.028-0.289-0.084-0.408c-0.057-0.119-0.133-0.221-0.229-0.304c-0.097-0.084-0.21-0.146-0.338-0.189     s-0.265-0.064-0.408-0.064c-0.193,0-0.359,0.036-0.496,0.108c-0.138,0.072-0.249,0.169-0.334,0.29     c-0.086,0.122-0.147,0.262-0.186,0.419c-0.039,0.157-0.056,0.324-0.051,0.499h-0.426c-0.004-0.243,0.024-0.467,0.085-0.671     c0.061-0.205,0.154-0.382,0.28-0.53s0.284-0.265,0.476-0.348s0.415-0.125,0.672-0.125c0.207,0,0.399,0.028,0.577,0.085     c0.178,0.056,0.333,0.139,0.466,0.249c0.132,0.11,0.235,0.249,0.31,0.415c0.075,0.167,0.112,0.36,0.112,0.581     c0,0.198-0.033,0.378-0.099,0.54s-0.152,0.311-0.263,0.445s-0.236,0.26-0.378,0.375c-0.142,0.114-0.292,0.222-0.449,0.32     c-0.112,0.076-0.245,0.161-0.398,0.253c-0.152,0.093-0.3,0.194-0.442,0.308c-0.142,0.112-0.267,0.234-0.374,0.367     c-0.108,0.133-0.176,0.278-0.203,0.436h2.626v0.392H154.26z"/>
			<path d="M160.486,122.213c0.214,0.15,0.38,0.343,0.5,0.577c0.119,0.233,0.2,0.495,0.242,0.782     c0.043,0.288,0.064,0.569,0.064,0.844c0,0.279-0.021,0.563-0.064,0.851c-0.042,0.288-0.123,0.55-0.242,0.783     c-0.12,0.234-0.286,0.426-0.5,0.574s-0.494,0.223-0.84,0.223c-0.343,0-0.621-0.074-0.838-0.223     c-0.216-0.148-0.383-0.34-0.502-0.574c-0.12-0.233-0.201-0.495-0.243-0.783c-0.043-0.287-0.064-0.569-0.064-0.844     c0-0.278,0.021-0.562,0.064-0.851c0.042-0.287,0.123-0.549,0.243-0.782c0.119-0.234,0.286-0.427,0.502-0.577     c0.217-0.151,0.495-0.227,0.838-0.227C159.992,121.987,160.272,122.062,160.486,122.213z M158.998,122.554     c-0.162,0.14-0.285,0.312-0.368,0.52s-0.138,0.432-0.165,0.675s-0.041,0.466-0.041,0.668c0,0.207,0.014,0.432,0.041,0.672     c0.027,0.241,0.082,0.466,0.165,0.675c0.083,0.21,0.206,0.384,0.368,0.523s0.378,0.209,0.648,0.209     c0.27,0,0.485-0.069,0.647-0.209s0.284-0.313,0.368-0.523c0.083-0.209,0.138-0.434,0.165-0.675     c0.027-0.24,0.041-0.465,0.041-0.672c0-0.202-0.014-0.425-0.041-0.668s-0.082-0.468-0.165-0.675     c-0.084-0.207-0.206-0.38-0.368-0.52s-0.378-0.21-0.647-0.21C159.376,122.344,159.16,122.415,158.998,122.554z"/>
			<path d="M162.68,122.909c0.151-0.016,0.281-0.053,0.392-0.111s0.203-0.147,0.277-0.267s0.127-0.287,0.158-0.503h0.345v4.725     h-0.426v-3.51h-1.249v-0.304C162.361,122.934,162.529,122.924,162.68,122.909z"/>
			<path d="M167.992,122.213c0.214,0.15,0.38,0.343,0.5,0.577c0.119,0.233,0.2,0.495,0.242,0.782     c0.043,0.288,0.064,0.569,0.064,0.844c0,0.279-0.021,0.563-0.064,0.851c-0.042,0.288-0.123,0.55-0.242,0.783     c-0.12,0.234-0.286,0.426-0.5,0.574s-0.494,0.223-0.84,0.223c-0.343,0-0.621-0.074-0.838-0.223     c-0.216-0.148-0.383-0.34-0.502-0.574c-0.12-0.233-0.201-0.495-0.243-0.783c-0.043-0.287-0.064-0.569-0.064-0.844     c0-0.278,0.021-0.562,0.064-0.851c0.042-0.287,0.123-0.549,0.243-0.782c0.119-0.234,0.286-0.427,0.502-0.577     c0.217-0.151,0.495-0.227,0.838-0.227C167.498,121.987,167.778,122.062,167.992,122.213z M166.504,122.554     c-0.162,0.14-0.285,0.312-0.368,0.52s-0.138,0.432-0.165,0.675s-0.041,0.466-0.041,0.668c0,0.207,0.014,0.432,0.041,0.672     c0.027,0.241,0.082,0.466,0.165,0.675c0.083,0.21,0.206,0.384,0.368,0.523s0.378,0.209,0.648,0.209     c0.27,0,0.485-0.069,0.647-0.209s0.284-0.313,0.368-0.523c0.083-0.209,0.138-0.434,0.165-0.675     c0.027-0.24,0.041-0.465,0.041-0.672c0-0.202-0.014-0.425-0.041-0.668s-0.082-0.468-0.165-0.675     c-0.084-0.207-0.206-0.38-0.368-0.52s-0.378-0.21-0.647-0.21C166.882,122.344,166.666,122.415,166.504,122.554z"/>
		</g>
	</g>
	<g>
		<g>
			<path d="M187.663,126.752c0.004-0.234,0.045-0.441,0.121-0.621c0.077-0.18,0.178-0.342,0.304-0.486     c0.126-0.144,0.268-0.275,0.426-0.395c0.157-0.119,0.319-0.233,0.485-0.344c0.167-0.11,0.332-0.224,0.496-0.338     c0.165-0.115,0.312-0.237,0.442-0.368c0.131-0.13,0.229-0.264,0.294-0.401s0.098-0.301,0.098-0.489     c0-0.153-0.028-0.289-0.084-0.408c-0.057-0.119-0.133-0.221-0.229-0.304c-0.097-0.084-0.21-0.146-0.338-0.189     s-0.265-0.064-0.408-0.064c-0.193,0-0.359,0.036-0.496,0.108c-0.138,0.072-0.249,0.169-0.334,0.29     c-0.086,0.122-0.147,0.262-0.186,0.419c-0.039,0.157-0.056,0.324-0.051,0.499h-0.426c-0.004-0.243,0.024-0.467,0.085-0.671     c0.061-0.205,0.154-0.382,0.28-0.53s0.284-0.265,0.476-0.348s0.415-0.125,0.672-0.125c0.207,0,0.399,0.028,0.577,0.085     c0.178,0.056,0.333,0.139,0.466,0.249c0.132,0.11,0.235,0.249,0.31,0.415c0.075,0.167,0.112,0.36,0.112,0.581     c0,0.198-0.033,0.378-0.099,0.54s-0.152,0.311-0.263,0.445s-0.236,0.26-0.378,0.375c-0.142,0.114-0.292,0.222-0.449,0.32     c-0.112,0.076-0.245,0.161-0.398,0.253c-0.152,0.093-0.3,0.194-0.442,0.308c-0.142,0.112-0.267,0.234-0.374,0.367     c-0.108,0.133-0.176,0.278-0.203,0.436h2.626v0.392H187.663z"/>
			<path d="M193.89,122.213c0.214,0.15,0.38,0.343,0.5,0.577c0.119,0.233,0.2,0.495,0.242,0.782     c0.043,0.288,0.064,0.569,0.064,0.844c0,0.279-0.021,0.563-0.064,0.851c-0.042,0.288-0.123,0.55-0.242,0.783     c-0.12,0.234-0.286,0.426-0.5,0.574s-0.494,0.223-0.84,0.223c-0.343,0-0.621-0.074-0.838-0.223     c-0.216-0.148-0.383-0.34-0.502-0.574c-0.12-0.233-0.201-0.495-0.243-0.783c-0.043-0.287-0.064-0.569-0.064-0.844     c0-0.278,0.021-0.562,0.064-0.851c0.042-0.287,0.123-0.549,0.243-0.782c0.119-0.234,0.286-0.427,0.502-0.577     c0.217-0.151,0.495-0.227,0.838-0.227C193.396,121.987,193.676,122.062,193.89,122.213z M192.401,122.554     c-0.162,0.14-0.285,0.312-0.368,0.52s-0.138,0.432-0.165,0.675s-0.041,0.466-0.041,0.668c0,0.207,0.014,0.432,0.041,0.672     c0.027,0.241,0.082,0.466,0.165,0.675c0.083,0.21,0.206,0.384,0.368,0.523s0.378,0.209,0.648,0.209     c0.27,0,0.485-0.069,0.647-0.209s0.284-0.313,0.368-0.523c0.083-0.209,0.138-0.434,0.165-0.675     c0.027-0.24,0.041-0.465,0.041-0.672c0-0.202-0.014-0.425-0.041-0.668s-0.082-0.468-0.165-0.675     c-0.084-0.207-0.206-0.38-0.368-0.52s-0.378-0.21-0.647-0.21C192.779,122.344,192.563,122.415,192.401,122.554z"/>
			<path d="M196.083,122.909c0.151-0.016,0.281-0.053,0.392-0.111s0.203-0.147,0.277-0.267s0.127-0.287,0.158-0.503h0.345v4.725     h-0.426v-3.51h-1.249v-0.304C195.765,122.934,195.933,122.924,196.083,122.909z"/>
			<path d="M199.836,122.909c0.151-0.016,0.281-0.053,0.392-0.111s0.203-0.147,0.277-0.267s0.127-0.287,0.158-0.503h0.345v4.725     h-0.426v-3.51h-1.249v-0.304C199.518,122.934,199.686,122.924,199.836,122.909z"/>
		</g>
	</g>
	<g>
		<g>
			<path d="M221.065,126.752c0.004-0.234,0.045-0.441,0.121-0.621c0.077-0.18,0.178-0.342,0.304-0.486     c0.126-0.144,0.268-0.275,0.426-0.395c0.157-0.119,0.319-0.233,0.485-0.344c0.167-0.11,0.332-0.224,0.496-0.338     c0.165-0.115,0.312-0.237,0.442-0.368c0.131-0.13,0.229-0.264,0.294-0.401s0.098-0.301,0.098-0.489     c0-0.153-0.028-0.289-0.084-0.408c-0.057-0.119-0.133-0.221-0.229-0.304c-0.097-0.084-0.21-0.146-0.338-0.189     s-0.265-0.064-0.408-0.064c-0.193,0-0.359,0.036-0.496,0.108c-0.138,0.072-0.249,0.169-0.334,0.29     c-0.086,0.122-0.147,0.262-0.186,0.419c-0.039,0.157-0.056,0.324-0.051,0.499h-0.426c-0.004-0.243,0.024-0.467,0.085-0.671     c0.061-0.205,0.154-0.382,0.28-0.53s0.284-0.265,0.476-0.348s0.415-0.125,0.672-0.125c0.207,0,0.399,0.028,0.577,0.085     c0.178,0.056,0.333,0.139,0.466,0.249c0.132,0.11,0.235,0.249,0.31,0.415c0.075,0.167,0.112,0.36,0.112,0.581     c0,0.198-0.033,0.378-0.099,0.54s-0.152,0.311-0.263,0.445s-0.236,0.26-0.378,0.375c-0.142,0.114-0.292,0.222-0.449,0.32     c-0.112,0.076-0.245,0.161-0.398,0.253c-0.152,0.093-0.3,0.194-0.442,0.308c-0.142,0.112-0.267,0.234-0.374,0.367     c-0.108,0.133-0.176,0.278-0.203,0.436h2.626v0.392H221.065z"/>
			<path d="M227.292,122.213c0.214,0.15,0.38,0.343,0.5,0.577c0.119,0.233,0.2,0.495,0.242,0.782     c0.043,0.288,0.064,0.569,0.064,0.844c0,0.279-0.021,0.563-0.064,0.851c-0.042,0.288-0.123,0.55-0.242,0.783     c-0.12,0.234-0.286,0.426-0.5,0.574s-0.494,0.223-0.84,0.223c-0.343,0-0.621-0.074-0.838-0.223     c-0.216-0.148-0.383-0.34-0.502-0.574c-0.12-0.233-0.201-0.495-0.243-0.783c-0.043-0.287-0.064-0.569-0.064-0.844     c0-0.278,0.021-0.562,0.064-0.851c0.042-0.287,0.123-0.549,0.243-0.782c0.119-0.234,0.286-0.427,0.502-0.577     c0.217-0.151,0.495-0.227,0.838-0.227C226.798,121.987,227.078,122.062,227.292,122.213z M225.804,122.554     c-0.162,0.14-0.285,0.312-0.368,0.52s-0.138,0.432-0.165,0.675s-0.041,0.466-0.041,0.668c0,0.207,0.014,0.432,0.041,0.672     c0.027,0.241,0.082,0.466,0.165,0.675c0.083,0.21,0.206,0.384,0.368,0.523s0.378,0.209,0.648,0.209     c0.27,0,0.485-0.069,0.647-0.209s0.284-0.313,0.368-0.523c0.083-0.209,0.138-0.434,0.165-0.675     c0.027-0.24,0.041-0.465,0.041-0.672c0-0.202-0.014-0.425-0.041-0.668s-0.082-0.468-0.165-0.675     c-0.084-0.207-0.206-0.38-0.368-0.52s-0.378-0.21-0.647-0.21C226.182,122.344,225.966,122.415,225.804,122.554z"/>
			<path d="M229.485,122.909c0.151-0.016,0.281-0.053,0.392-0.111s0.203-0.147,0.277-0.267s0.127-0.287,0.158-0.503h0.345v4.725     h-0.426v-3.51h-1.249v-0.304C229.167,122.934,229.335,122.924,229.485,122.909z"/>
			<path d="M232.324,126.752c0.004-0.234,0.045-0.441,0.121-0.621c0.077-0.18,0.178-0.342,0.304-0.486     c0.126-0.144,0.268-0.275,0.426-0.395c0.157-0.119,0.319-0.233,0.485-0.344c0.167-0.11,0.332-0.224,0.496-0.338     c0.165-0.115,0.312-0.237,0.442-0.368c0.131-0.13,0.229-0.264,0.294-0.401s0.098-0.301,0.098-0.489     c0-0.153-0.028-0.289-0.084-0.408c-0.057-0.119-0.133-0.221-0.229-0.304c-0.097-0.084-0.21-0.146-0.338-0.189     s-0.265-0.064-0.408-0.064c-0.193,0-0.359,0.036-0.496,0.108c-0.138,0.072-0.249,0.169-0.334,0.29     c-0.086,0.122-0.147,0.262-0.186,0.419c-0.039,0.157-0.056,0.324-0.051,0.499h-0.426c-0.004-0.243,0.024-0.467,0.085-0.671     c0.061-0.205,0.154-0.382,0.28-0.53s0.284-0.265,0.476-0.348s0.415-0.125,0.672-0.125c0.207,0,0.399,0.028,0.577,0.085     c0.178,0.056,0.333,0.139,0.466,0.249c0.132,0.11,0.235,0.249,0.31,0.415c0.075,0.167,0.112,0.36,0.112,0.581     c0,0.198-0.033,0.378-0.099,0.54s-0.152,0.311-0.263,0.445s-0.236,0.26-0.378,0.375c-0.142,0.114-0.292,0.222-0.449,0.32     c-0.112,0.076-0.245,0.161-0.398,0.253c-0.152,0.093-0.3,0.194-0.442,0.308c-0.142,0.112-0.267,0.234-0.374,0.367     c-0.108,0.133-0.176,0.278-0.203,0.436h2.626v0.392H232.324z"/>
		</g>
	</g>
	<g>
		<g>
			<path d="M254.469,126.752c0.004-0.234,0.045-0.441,0.121-0.621c0.077-0.18,0.178-0.342,0.304-0.486     c0.126-0.144,0.268-0.275,0.426-0.395c0.157-0.119,0.319-0.233,0.485-0.344c0.167-0.11,0.332-0.224,0.496-0.338     c0.165-0.115,0.312-0.237,0.442-0.368c0.131-0.13,0.229-0.264,0.294-0.401s0.098-0.301,0.098-0.489     c0-0.153-0.028-0.289-0.084-0.408c-0.057-0.119-0.133-0.221-0.229-0.304c-0.097-0.084-0.21-0.146-0.338-0.189     s-0.265-0.064-0.408-0.064c-0.193,0-0.359,0.036-0.496,0.108c-0.138,0.072-0.249,0.169-0.334,0.29     c-0.086,0.122-0.147,0.262-0.186,0.419c-0.039,0.157-0.056,0.324-0.051,0.499h-0.426c-0.004-0.243,0.024-0.467,0.085-0.671     c0.061-0.205,0.154-0.382,0.28-0.53s0.284-0.265,0.476-0.348s0.415-0.125,0.672-0.125c0.207,0,0.399,0.028,0.577,0.085     c0.178,0.056,0.333,0.139,0.466,0.249c0.132,0.11,0.235,0.249,0.31,0.415c0.075,0.167,0.112,0.36,0.112,0.581     c0,0.198-0.033,0.378-0.099,0.54s-0.152,0.311-0.263,0.445s-0.236,0.26-0.378,0.375c-0.142,0.114-0.292,0.222-0.449,0.32     c-0.112,0.076-0.245,0.161-0.398,0.253c-0.152,0.093-0.3,0.194-0.442,0.308c-0.142,0.112-0.267,0.234-0.374,0.367     c-0.108,0.133-0.176,0.278-0.203,0.436h2.626v0.392H254.469z"/>
			<path d="M260.695,122.213c0.214,0.15,0.38,0.343,0.5,0.577c0.119,0.233,0.2,0.495,0.242,0.782     c0.043,0.288,0.064,0.569,0.064,0.844c0,0.279-0.021,0.563-0.064,0.851c-0.042,0.288-0.123,0.55-0.242,0.783     c-0.12,0.234-0.286,0.426-0.5,0.574s-0.494,0.223-0.84,0.223c-0.343,0-0.621-0.074-0.838-0.223     c-0.216-0.148-0.383-0.34-0.502-0.574c-0.12-0.233-0.201-0.495-0.243-0.783c-0.043-0.287-0.064-0.569-0.064-0.844     c0-0.278,0.021-0.562,0.064-0.851c0.042-0.287,0.123-0.549,0.243-0.782c0.119-0.234,0.286-0.427,0.502-0.577     c0.217-0.151,0.495-0.227,0.838-0.227C260.201,121.987,260.481,122.062,260.695,122.213z M259.207,122.554     c-0.162,0.14-0.285,0.312-0.368,0.52s-0.138,0.432-0.165,0.675s-0.041,0.466-0.041,0.668c0,0.207,0.014,0.432,0.041,0.672     c0.027,0.241,0.082,0.466,0.165,0.675c0.083,0.21,0.206,0.384,0.368,0.523s0.378,0.209,0.648,0.209     c0.27,0,0.485-0.069,0.647-0.209s0.284-0.313,0.368-0.523c0.083-0.209,0.138-0.434,0.165-0.675     c0.027-0.24,0.041-0.465,0.041-0.672c0-0.202-0.014-0.425-0.041-0.668s-0.082-0.468-0.165-0.675     c-0.084-0.207-0.206-0.38-0.368-0.52s-0.378-0.21-0.647-0.21C259.585,122.344,259.369,122.415,259.207,122.554z"/>
			<path d="M262.889,122.909c0.151-0.016,0.281-0.053,0.392-0.111s0.203-0.147,0.277-0.267s0.127-0.287,0.158-0.503h0.345v4.725     h-0.426v-3.51h-1.249v-0.304C262.57,122.934,262.738,122.924,262.889,122.909z"/>
			<path d="M266.196,125.76c0.052,0.153,0.129,0.283,0.229,0.392c0.102,0.107,0.228,0.192,0.378,0.253     c0.151,0.061,0.321,0.091,0.51,0.091c0.157,0,0.309-0.022,0.452-0.067c0.145-0.045,0.272-0.112,0.385-0.202     s0.203-0.2,0.271-0.331c0.067-0.13,0.101-0.278,0.101-0.445c0-0.171-0.029-0.318-0.087-0.442     c-0.059-0.123-0.14-0.227-0.243-0.311c-0.104-0.083-0.225-0.145-0.361-0.186c-0.138-0.04-0.285-0.061-0.442-0.061h-0.357v-0.357     h0.357c0.108,0,0.22-0.018,0.334-0.051c0.115-0.034,0.219-0.086,0.311-0.155c0.093-0.07,0.168-0.159,0.227-0.267     c0.059-0.108,0.088-0.236,0.088-0.385c0-0.157-0.027-0.291-0.081-0.401c-0.055-0.11-0.129-0.203-0.223-0.277     c-0.095-0.074-0.204-0.128-0.328-0.162c-0.123-0.033-0.257-0.051-0.401-0.051c-0.176,0-0.331,0.029-0.466,0.088     s-0.248,0.141-0.341,0.247c-0.092,0.105-0.161,0.231-0.206,0.378c-0.045,0.146-0.064,0.307-0.061,0.482h-0.425     c0-0.225,0.034-0.432,0.104-0.621c0.069-0.189,0.169-0.353,0.297-0.489c0.128-0.138,0.284-0.245,0.469-0.324     c0.185-0.078,0.392-0.118,0.621-0.118c0.185,0,0.364,0.023,0.54,0.071c0.176,0.047,0.332,0.119,0.47,0.216     c0.137,0.097,0.247,0.221,0.33,0.371s0.125,0.332,0.125,0.543c0,0.257-0.068,0.479-0.206,0.669     c-0.137,0.188-0.334,0.314-0.59,0.378v0.014c0.31,0.049,0.55,0.179,0.719,0.388c0.168,0.209,0.253,0.469,0.253,0.779     c0,0.234-0.044,0.44-0.132,0.618s-0.206,0.327-0.354,0.449c-0.148,0.121-0.321,0.212-0.52,0.272     c-0.198,0.062-0.405,0.092-0.621,0.092c-0.243,0-0.467-0.036-0.672-0.108c-0.204-0.071-0.38-0.176-0.526-0.311     s-0.256-0.301-0.331-0.499c-0.074-0.198-0.102-0.426-0.084-0.682h0.426C266.123,125.436,266.145,125.607,266.196,125.76z"/>
		</g>
	</g>
	<path fill="none" stroke="#7A9AA8" stroke-width="2.5" stroke-linecap="round" stroke-linejoin="round" stroke-miterlimit="10" d="   M28.234,99.104l1.169,0.923l0.84-1.155v-0.84l0.787-0.786v0.839l1.889-1.102l2.204,1.102v-1.102l0.839,0.263l0.682-1.889   l0.524,1.153l1.417-0.314l0.577-0.839l0.42-1.364l-0.262,2.046l0.892-0.734l-0.419,1.206l0.839,0.5l1.259-0.972l0.839,2.938   l0.472-1.206l0.787-0.524v0.734l0.997-1.47l0.892,2.938l1.626-1.836l0.734,1.259l1.259-1.049l0.419-0.812l1.836,1.389l1.312-1.389   l0.21-1.076l0.472-0.577l1.364,0.682v-1.154l0.472,1.154l1.049-0.577l0.263-0.892l0.839-0.21l0.367,0.944l0.524-1.731l1.207-0.944   h1.207l0.787,0.84l0.734-0.84l0.945,0.734l1.154-1.153l0.787,0.943l0.839-0.943v1.416l1.364-0.053l1.679-2.518l1.312-0.734   l0.525,0.786l1.259-1.153l0.944,0.682l0.315-1.836l0.577-0.315l0.892-0.629l0.21,1.783l0.892-1.783l0.629-0.683l0.472,0.997v-1.364   h0.577l0.367,0.21v-0.682l0.997-0.472v0.786l0.577,0.524l0.787,0.473l-0.419,0.787l1.049,1.363v1.68l0.629,0.419l0.367-0.787   l1.312-0.786l0.839,0.944l1.154,1.679L84.7,90.95l0.892,0.84l0.787-0.734l1.102-1.941l0.787,1.102L87.9,90.95l0.735-0.367   l0.839,1.521l0.577-2.046l1.049,2.309l0.682-1.417l0.682,0.683l0.682,2.15l1.521-1.993v1.154l0.524,0.629l0.525-0.157l0.734,2.676   l0.787-2.256l0.262-1.784l0.682,1.941l0.629-1.836l1.102-0.105l0.21,0.893l0.892,0.314v-0.63l0.734,0.315l1.364-2.046l1.312,1.153   l0.944-0.996l0.367-0.944l0.524,0.839l0.315-1.469l0.682-2.309v-2.045l0.944,1.888l1.312-2.15l1.679,3.567l0.42,0.996l0.997,1.26   v-1.627l0.42-0.629l0.577,0.787v-0.893l1.049-5.561l2.151-1.259l0.577,1.679v0.42v1.049l0.525,2.78v2.151v0.786l1.102-1.73   l0.367,0.577l0.315,0.262v1.286l0.262,1.18l0.263,1.102l0.892-2.281l-0.472,2.491l-0.21,1.102l0.682-0.892l0.42,0.839v0.944   l0.419,2.203V95.2l0.63,1.153l0.262-3.147l0.524,2.78l0.472,1.102l0.262,4.984l0.368,1.469l0.419-1.521l0.315-0.63l0.367-0.262   v0.997l0.892-0.63l0.682,1.364l1.259-0.997l0.21-0.577l0.577-0.157v0.472l-0.368,0.21l1.626,1.731l1.102-0.682l-0.263,0.944   l-0.314,0.682l0.577-0.787l1.102,1.259v0.473l1.259-0.315l0.314-0.892l1.312-2.57l0.682,0.21l0.63-2.256l-0.21-0.42l1.207-1.363   l0.315,0.052l-0.21-1.679l0.734-0.524v0.839l1.102-2.779l0.609,2.938c0,0,0.23-5.456,0.492-5.562   c0.262-0.104,0.524,2.361,0.524,2.361L142.095,92l0.682-0.63l-0.524,1.312l1.73,1.312l-1.101-1.836l1.417,0.42l0.314-0.84   l0.577,1.312l0.84-1.626l0.734-2.78l0.42,0.262l0.787-1.94v-1.994l0.262-0.104l0.84,2.203v-1.573l0.629-0.473l0.577,0.944   l0.263,2.046l0.367-2.518l0.63-1.574l0.419,0.314l-0.472,1.417l0.944-1.26v1.47l0.787,1.679l1.259-3.096l1.154,1.836v1.469   l0.472,0.734l0.263-1.836l0.577-0.314v-1.626l0.42-1.05l0.367-0.367l0.787,0.683l-0.473-1.417l0.734-1.312v1.784l1.154-0.944   l0.473-0.84l0.996-0.787l0.525-2.675l0.21,1.521l0.367-1.521v1.363l0.892,0.525l-0.263,1.626l0.734,0.892l0.734-2.203l-0.262,1.731   l0.892,1.259l0.734-1.364l0.734-1.836v-2.36l0.315-1.915l0.42-0.682l0.184,0.235l0.262-1.18l0.63-1.05l0.812-0.892v-0.682   l0.42,0.604l0.683-0.604l0.761-0.184v-0.761l0.367,0.445l0.472-0.445l0.132,0.445l0.157,0.893l0.21,0.761l0.734,4.904v-6.006   l0.184-2.598l0.445,1.495v-2.046l0.315-0.865l0.498,5.272l0.157-4.459l0.315-0.263l1.049,1.391l-0.655-2.178l0.524,0.105   l1.18-2.388l0.289,1.653l0.21,0.551l0.21,0.314l0.262,2.229l0.473-3.331l1.022,0.629l-0.551-2.255l0.734,1.783l-0.288-2.02   l0.944-0.944l0.157-5.666l1.181-1.259l0.21,2.466v1.548l0.63-0.185l0.288,1.548l0.367-1.836l0.498-0.314V56.72l0.761-0.839v-1.547   l0.525-0.787l0.655-1.207v-1.862l0.314-1.338l0.132-1.731l0.551,1.364V46.91l0.341-0.551l0.367-6.977l0.184-1.469l0.551-1.417   l0.289-5.062l0.394,3.725l0.367-1.941l0.603-2.702v2.177l0.951,1.528l-0.472,1.278l0.394,0.905l0.491,0.748l0.275,1.121   l0.57-10.525l0.787-0.865v-4.898l0.512,2.321l0.099-2.125l0.688,1.535l-0.079-2.656l0.649,2.203l0.473-4.505l0.138,8.38   l0.472-2.754l0.099,3.305l0.551,2.145l0.413,5.705l0.275-4.387l0.787,4.84l1.043-8.912l0.157,3.993l0.512-0.57l0.196,3.718   l0.492-6.236v3.108l0.728-2.066l0.708,7.791l0.315-3.758l0.236-0.118l0.354-3.128l0.374-4.525l0.846,2.734l0.649,3.521l0.314-5.606   l0.413-0.571l0.473-3.187l0.609,0.925l0.217,3.403l0.314,2.164l0.768,1.062l-0.099,2.065l0.335,2.164l0.688-0.826v2.912   l0.472,3.029l0.434,7.889l0.235,1.22l0.178,0.944l0.314-0.728l0.452,8.853l0.275-4.465l0.158,4.426l0.334-3.856l0.236,3.895   l0.177-2.773l0.236,5.174l0.433-0.886l0.531,2.872l0.354-3.462l0.491,2.263l0.577,13.98l0.315,3.935l0.577-9.128v5.665l0.472,0.21   v1.626l0.63-1.206l0.524-0.21v-5.141l0.367,5.928l1.259-3.725l-1.049,5.351l1.574-3.462v3.462l0.419,0.367v0.84l0.263,1.312v1.469   v2.728l0.734-2.256l0.21-2.36l0.604,2.334l-0.105-3.2l0.446-0.445v-1.102l0.42-1.312l0.472,2.282l0.315,0.445v3.227l0.419-1.312   v2.177l0.813-1.652v2.335l1.626-1.705l-1.102,2.072l0.157,2.439L225.25,84l0.734-1.521l-0.21,2.229l0.63-0.944l0.419,2.858   l0.551,1.128l0.734,1.181l0.342-1.941V84.76l0.865,2.02l0.314-4.617l0.368-3.882l0.655,1.758l0.63-2.046l0.184,7.974l0.892-1.285   l0.367-2.676l0.551,5.719l0.42-0.761l0.604,1.862l0.655-1.915l0.236-1.075v-2.649l0.577,3.646l0.367,0.499l0.131,0.996l0.42,0.289   l0.42,0.787c0,0,0.263,1.285,0.341,1.18c0.079-0.104,0.289-0.996,0.289-0.996l0.367,1.993l0.21,1.573l0.498-1.075l0.655-0.262   h0.499l-0.761-1.469l1.022,1.18v-1.889l0.158-1.312l0.944,1.076l0.262,1.285l0.499,0.918l0.341,1.181l0.604,0.839l0.288,1.967   l0.708-1.652l0.761,2.229v-2.465l0.656-1.968l0.157,1.731l0.524,1.022l0.42-1.232l0.104-1.207l0.866,0.236v-1.312l0.42,2.755   c0,0,0.314-3.2,0.393-2.991c0.079,0.21,0.577,2.047,0.577,2.047l0.368-1.68l0.131,1.548l0.42-1.521v0.893l1.285,0.996l0.314-2.57   l0.236-2.335l0.341,2.021l0.551-1.417l0.263,1.758l0.944-1.075l0.629,2.203l0.709-2.046l0.682,2.597l0.787-2.256l0.761,1.941   l0.341,3.278l1.442-0.157l0.656-1.417l0.446-1.153l0.754-1.212l-0.244-1.024l1.122,0.829"/>
	<polyline fill="none" stroke="#000000" stroke-width="0.5" stroke-miterlimit="10" points="25.098,3.447 27.83,3.447    27.83,116.282  "/>
	<line fill="none" stroke="#000000" stroke-width="0.5" stroke-miterlimit="10" x1="27.83" y1="31.655" x2="25.098" y2="31.655"/>
	<line fill="none" stroke="#000000" stroke-width="0.5" stroke-miterlimit="10" x1="27.83" y1="59.864" x2="25.098" y2="59.864"/>
	<line fill="none" stroke="#000000" stroke-width="0.5" stroke-miterlimit="10" x1="27.83" y1="88.073" x2="25.098" y2="88.073"/>
	<line fill="none" stroke="#000000" stroke-width="0.5" stroke-miterlimit="10" x1="27.83" y1="116.282" x2="25.098" y2="116.282"/>
</g>
<g id="Layer_1">
	<g>
		<path d="M0,81.534c0-0.323,0.047-0.599,0.141-0.826s0.219-0.412,0.374-0.555s0.331-0.246,0.529-0.312s0.403-0.099,0.616-0.099    c0.208,0,0.412,0.033,0.612,0.099c0.201,0.065,0.378,0.169,0.533,0.312s0.279,0.327,0.373,0.555S3.32,81.21,3.32,81.534v1.196    h1.856v1.139H0V81.534z M2.436,81.845c0-0.13-0.009-0.256-0.029-0.377c-0.019-0.12-0.057-0.227-0.112-0.318    s-0.134-0.166-0.236-0.222s-0.234-0.083-0.398-0.083c-0.165,0-0.297,0.027-0.399,0.083s-0.18,0.13-0.235,0.222    c-0.056,0.092-0.093,0.198-0.113,0.318c-0.019,0.121-0.029,0.247-0.029,0.377v0.885h1.551V81.845z"/>
		<path d="M1.428,78.163h0.696v-0.015C2.008,78.1,1.9,78.035,1.801,77.953c-0.099-0.083-0.184-0.177-0.253-0.283    c-0.07-0.106-0.125-0.22-0.164-0.341c-0.039-0.121-0.058-0.246-0.058-0.377c0-0.067,0.012-0.143,0.036-0.225H2.32    c-0.01,0.048-0.018,0.106-0.025,0.174s-0.011,0.133-0.011,0.196c0,0.188,0.031,0.348,0.094,0.479    c0.062,0.13,0.148,0.235,0.257,0.314c0.108,0.08,0.235,0.137,0.38,0.171s0.302,0.051,0.471,0.051h1.689v1.029H1.428V78.163z"/>
		<path d="M0.848,76.292H0v-1.029h0.848V76.292z M1.428,75.262h3.748v1.029H1.428V75.262z"/>
		<path d="M2.102,72.66c0,0.165,0.038,0.303,0.113,0.414c0.075,0.11,0.171,0.201,0.29,0.271c0.118,0.07,0.249,0.119,0.391,0.148    s0.284,0.044,0.424,0.044c0.135,0,0.273-0.015,0.413-0.044S4,73.417,4.114,73.352c0.113-0.064,0.207-0.153,0.279-0.265    c0.073-0.11,0.109-0.246,0.109-0.405c0-0.247-0.069-0.437-0.207-0.569s-0.323-0.217-0.555-0.25V70.87    c0.498,0.067,0.877,0.261,1.138,0.58c0.261,0.318,0.392,0.728,0.392,1.225c0,0.28-0.047,0.538-0.142,0.772    c-0.094,0.234-0.226,0.434-0.395,0.598c-0.169,0.165-0.371,0.293-0.605,0.385c-0.234,0.092-0.492,0.138-0.772,0.138    c-0.29,0-0.559-0.042-0.808-0.127s-0.464-0.209-0.646-0.373c-0.181-0.165-0.323-0.365-0.424-0.603    c-0.102-0.236-0.152-0.507-0.152-0.812c0-0.223,0.029-0.437,0.087-0.642s0.146-0.389,0.265-0.551s0.266-0.294,0.442-0.396    c0.176-0.102,0.385-0.159,0.627-0.174v1.008C2.317,71.966,2.102,72.22,2.102,72.66z"/>
		<path d="M4.277,69.188c0.15-0.155,0.225-0.377,0.225-0.667c0-0.208-0.052-0.387-0.156-0.537c-0.104-0.149-0.214-0.241-0.33-0.275    v-0.906c0.45,0.146,0.771,0.367,0.964,0.667s0.29,0.662,0.29,1.088c0,0.295-0.047,0.561-0.142,0.797    c-0.094,0.237-0.228,0.438-0.402,0.603c-0.174,0.164-0.381,0.291-0.624,0.38c-0.241,0.09-0.507,0.135-0.797,0.135    c-0.28,0-0.541-0.046-0.783-0.138s-0.451-0.223-0.627-0.392c-0.176-0.169-0.315-0.371-0.417-0.605    c-0.102-0.234-0.152-0.494-0.152-0.779c0-0.319,0.062-0.597,0.185-0.834c0.124-0.236,0.289-0.432,0.497-0.584    c0.208-0.152,0.445-0.262,0.711-0.329c0.266-0.068,0.543-0.092,0.833-0.073v2.704C3.886,69.427,4.127,69.342,4.277,69.188z     M2.305,68.024c-0.135,0.123-0.203,0.311-0.203,0.562c0,0.165,0.028,0.302,0.083,0.41c0.056,0.108,0.125,0.195,0.207,0.261    c0.083,0.065,0.169,0.111,0.261,0.138c0.092,0.027,0.174,0.043,0.247,0.047v-1.674C2.639,67.815,2.44,67.901,2.305,68.024z"/>
		<path d="M1.428,63.134h0.479V63.12c-0.203-0.126-0.351-0.285-0.442-0.479s-0.138-0.406-0.138-0.638    c0-0.295,0.056-0.549,0.167-0.762c0.111-0.213,0.259-0.389,0.442-0.529c0.184-0.14,0.397-0.244,0.642-0.312    s0.499-0.102,0.765-0.102c0.251,0,0.493,0.034,0.725,0.102s0.438,0.17,0.616,0.309c0.179,0.138,0.322,0.309,0.428,0.515    c0.106,0.205,0.16,0.445,0.16,0.721c0,0.232-0.047,0.446-0.142,0.642c-0.094,0.196-0.233,0.356-0.417,0.482v0.015h1.776v1.029    h-5.06V63.134z M4.4,61.796c-0.067-0.113-0.156-0.205-0.265-0.275c-0.108-0.07-0.235-0.119-0.38-0.148s-0.292-0.044-0.442-0.044    s-0.297,0.016-0.442,0.048c-0.145,0.031-0.274,0.083-0.388,0.155c-0.113,0.072-0.206,0.166-0.275,0.279    c-0.07,0.113-0.105,0.253-0.105,0.417c0,0.169,0.035,0.311,0.105,0.424c0.07,0.114,0.161,0.206,0.272,0.275    c0.111,0.07,0.239,0.12,0.384,0.148c0.145,0.029,0.295,0.044,0.45,0.044c0.15,0,0.297-0.016,0.442-0.047s0.272-0.082,0.38-0.152    c0.109-0.07,0.197-0.163,0.265-0.279c0.068-0.116,0.102-0.256,0.102-0.421C4.502,62.051,4.468,61.91,4.4,61.796z"/>
		<path d="M4.277,58.582c0.15-0.155,0.225-0.377,0.225-0.667c0-0.208-0.052-0.387-0.156-0.536c-0.104-0.15-0.214-0.242-0.33-0.276    v-0.906c0.45,0.145,0.771,0.368,0.964,0.667c0.193,0.3,0.29,0.663,0.29,1.088c0,0.295-0.047,0.561-0.142,0.797    c-0.094,0.237-0.228,0.438-0.402,0.603c-0.174,0.164-0.381,0.291-0.624,0.38c-0.241,0.09-0.507,0.135-0.797,0.135    c-0.28,0-0.541-0.046-0.783-0.138s-0.451-0.223-0.627-0.392c-0.176-0.169-0.315-0.371-0.417-0.605    c-0.102-0.234-0.152-0.494-0.152-0.779c0-0.319,0.062-0.597,0.185-0.834c0.124-0.237,0.289-0.431,0.497-0.583    c0.208-0.152,0.445-0.262,0.711-0.33c0.266-0.067,0.543-0.092,0.833-0.072v2.704C3.886,58.821,4.127,58.736,4.277,58.582z     M2.305,57.417c-0.135,0.124-0.203,0.311-0.203,0.562c0,0.165,0.028,0.301,0.083,0.41c0.056,0.108,0.125,0.195,0.207,0.261    c0.083,0.065,0.169,0.111,0.261,0.138c0.092,0.027,0.174,0.043,0.247,0.047V57.16C2.639,57.208,2.44,57.294,2.305,57.417z"/>
		<path d="M1.428,54.543h0.696v-0.015C2.008,54.48,1.9,54.415,1.801,54.333c-0.099-0.082-0.184-0.176-0.253-0.283    c-0.07-0.106-0.125-0.22-0.164-0.341c-0.039-0.121-0.058-0.247-0.058-0.377c0-0.067,0.012-0.143,0.036-0.225H2.32    c-0.01,0.048-0.018,0.106-0.025,0.174c-0.007,0.068-0.011,0.133-0.011,0.196c0,0.188,0.031,0.348,0.094,0.479    c0.062,0.13,0.148,0.236,0.257,0.315c0.108,0.08,0.235,0.137,0.38,0.17s0.302,0.051,0.471,0.051h1.689v1.029H1.428V54.543z"/>
		<path d="M4.245,49.819c0.08-0.046,0.145-0.105,0.196-0.178c0.051-0.072,0.088-0.156,0.112-0.25    c0.024-0.094,0.036-0.192,0.036-0.294c0-0.072-0.008-0.148-0.025-0.228c-0.017-0.08-0.043-0.152-0.08-0.218    c-0.036-0.065-0.084-0.12-0.145-0.163s-0.137-0.065-0.229-0.065c-0.154,0-0.271,0.103-0.348,0.308    c-0.078,0.206-0.155,0.492-0.232,0.859c-0.034,0.15-0.074,0.296-0.12,0.438c-0.046,0.143-0.106,0.27-0.182,0.381    c-0.075,0.111-0.169,0.201-0.283,0.268C2.833,50.746,2.694,50.78,2.53,50.78c-0.241,0-0.439-0.047-0.594-0.141    s-0.277-0.219-0.366-0.374s-0.152-0.329-0.188-0.522s-0.054-0.392-0.054-0.595c0-0.203,0.019-0.4,0.058-0.591    c0.039-0.191,0.104-0.361,0.196-0.511c0.092-0.15,0.214-0.274,0.366-0.374s0.344-0.158,0.577-0.178v0.979    c-0.198,0.014-0.333,0.089-0.402,0.225c-0.07,0.135-0.105,0.295-0.105,0.479c0,0.058,0.004,0.121,0.011,0.188    c0.007,0.068,0.023,0.129,0.047,0.185c0.024,0.056,0.059,0.103,0.105,0.142c0.046,0.039,0.108,0.058,0.185,0.058    c0.092,0,0.167-0.034,0.225-0.102s0.105-0.156,0.142-0.265s0.069-0.233,0.098-0.374c0.029-0.14,0.061-0.283,0.094-0.428    c0.034-0.149,0.075-0.296,0.124-0.438s0.112-0.27,0.192-0.381c0.08-0.111,0.179-0.2,0.297-0.268    c0.119-0.067,0.265-0.102,0.438-0.102c0.247,0,0.453,0.05,0.62,0.149c0.167,0.099,0.301,0.228,0.402,0.388    s0.173,0.342,0.214,0.547s0.062,0.415,0.062,0.627c0,0.218-0.022,0.43-0.065,0.638s-0.116,0.393-0.217,0.555    s-0.236,0.295-0.402,0.398c-0.167,0.104-0.376,0.161-0.627,0.17v-0.979C4.069,49.888,4.165,49.865,4.245,49.819z"/>
		<path d="M0,45.763h1.95v-0.022c-0.218-0.13-0.376-0.297-0.475-0.5c-0.099-0.203-0.148-0.401-0.148-0.595    c0-0.275,0.038-0.501,0.112-0.678s0.179-0.315,0.312-0.417c0.133-0.102,0.295-0.173,0.486-0.214s0.402-0.062,0.634-0.062h2.306    v1.029H3.059c-0.309,0-0.54,0.048-0.692,0.145c-0.152,0.097-0.228,0.269-0.228,0.515c0,0.28,0.083,0.483,0.25,0.609    c0.167,0.125,0.441,0.188,0.823,0.188h1.965v1.029H0V45.763z"/>
		<path d="M2.581,42.537c-0.241-0.014-0.442-0.075-0.602-0.181s-0.288-0.242-0.384-0.406c-0.097-0.165-0.166-0.349-0.207-0.555    s-0.062-0.412-0.062-0.62c0-0.188,0.013-0.379,0.04-0.573c0.027-0.193,0.079-0.37,0.156-0.529c0.077-0.159,0.185-0.29,0.322-0.391    c0.138-0.102,0.32-0.152,0.547-0.152h1.95c0.169,0,0.332-0.01,0.486-0.029c0.155-0.019,0.271-0.053,0.348-0.102v1.044    c-0.058,0.019-0.117,0.035-0.178,0.047c-0.06,0.012-0.122,0.021-0.185,0.025c0.169,0.165,0.288,0.358,0.355,0.58    c0.068,0.222,0.102,0.449,0.102,0.682c0,0.179-0.022,0.345-0.065,0.5s-0.111,0.29-0.203,0.406    c-0.092,0.116-0.208,0.207-0.348,0.271c-0.14,0.065-0.307,0.098-0.5,0.098c-0.212,0-0.388-0.038-0.525-0.112    c-0.138-0.075-0.248-0.172-0.33-0.29c-0.082-0.119-0.144-0.254-0.185-0.406c-0.041-0.152-0.074-0.306-0.098-0.46    c-0.024-0.154-0.043-0.307-0.058-0.457c-0.015-0.15-0.037-0.283-0.065-0.399c-0.029-0.116-0.071-0.208-0.127-0.275    c-0.056-0.067-0.137-0.099-0.243-0.094c-0.111,0-0.2,0.018-0.265,0.055c-0.065,0.036-0.116,0.084-0.152,0.145    c-0.036,0.061-0.061,0.131-0.073,0.21c-0.012,0.08-0.018,0.166-0.018,0.257c0,0.203,0.043,0.363,0.131,0.479    c0.087,0.116,0.232,0.184,0.435,0.203V42.537z M3.342,40.159c0.039,0.043,0.069,0.098,0.091,0.163    c0.022,0.065,0.04,0.135,0.054,0.21c0.015,0.075,0.027,0.153,0.037,0.235c0.01,0.083,0.021,0.165,0.036,0.247    c0.015,0.078,0.034,0.154,0.058,0.229c0.024,0.075,0.057,0.14,0.098,0.196s0.093,0.1,0.156,0.134    c0.063,0.034,0.143,0.05,0.239,0.05c0.092,0,0.169-0.017,0.232-0.05c0.063-0.034,0.113-0.08,0.149-0.138    c0.036-0.058,0.062-0.125,0.076-0.203c0.014-0.078,0.021-0.157,0.021-0.239c0-0.203-0.034-0.36-0.102-0.471    c-0.067-0.111-0.148-0.193-0.243-0.247s-0.189-0.086-0.286-0.098c-0.097-0.012-0.174-0.018-0.232-0.018H3.342z"/>
		<path d="M1.428,37.353h0.696v-0.015C2.008,37.29,1.9,37.225,1.801,37.143c-0.099-0.082-0.184-0.176-0.253-0.283    c-0.07-0.106-0.125-0.22-0.164-0.341c-0.039-0.121-0.058-0.247-0.058-0.377c0-0.067,0.012-0.143,0.036-0.225H2.32    c-0.01,0.048-0.018,0.106-0.025,0.174c-0.007,0.068-0.011,0.133-0.011,0.196c0,0.188,0.031,0.348,0.094,0.479    c0.062,0.13,0.148,0.236,0.257,0.315c0.108,0.08,0.235,0.137,0.38,0.17s0.302,0.051,0.471,0.051h1.689v1.029H1.428V37.353z"/>
		<path d="M4.277,34.54c0.15-0.154,0.225-0.377,0.225-0.667c0-0.208-0.052-0.387-0.156-0.536c-0.104-0.15-0.214-0.242-0.33-0.276    v-0.906c0.45,0.145,0.771,0.368,0.964,0.667c0.193,0.3,0.29,0.663,0.29,1.088c0,0.294-0.047,0.561-0.142,0.797    c-0.094,0.237-0.228,0.438-0.402,0.602c-0.174,0.165-0.381,0.292-0.624,0.381c-0.241,0.089-0.507,0.134-0.797,0.134    c-0.28,0-0.541-0.046-0.783-0.138s-0.451-0.222-0.627-0.391c-0.176-0.169-0.315-0.371-0.417-0.605    c-0.102-0.234-0.152-0.494-0.152-0.779c0-0.319,0.062-0.597,0.185-0.834c0.124-0.237,0.289-0.431,0.497-0.583    c0.208-0.152,0.445-0.262,0.711-0.33c0.266-0.067,0.543-0.092,0.833-0.072v2.704C3.886,34.779,4.127,34.694,4.277,34.54z     M2.305,33.376C2.17,33.5,2.102,33.687,2.102,33.938c0,0.165,0.028,0.301,0.083,0.41c0.056,0.109,0.125,0.196,0.207,0.261    c0.083,0.065,0.169,0.111,0.261,0.138c0.092,0.027,0.174,0.042,0.247,0.047v-1.675C2.639,33.167,2.44,33.253,2.305,33.376z"/>
	</g>
</g>
</svg>