<svg xmlns="http://www.w3.org/2000/svg" xmlns:xlink="http://www.w3.org/1999/xlink" version="1.1" id="Layer_1" x="0px" y="0px" width="194.579px" height="194.579px" viewBox="0 0 194.579 194.579" enable-background="new 0 0 194.579 194.579" xml:space="preserve">
<g>
	<path d="M60.27,0.382c0.24,0,0.457,0.039,0.649,0.116s0.357,0.184,0.495,0.319c0.137,0.135,0.242,0.291,0.315,0.469   c0.072,0.177,0.109,0.369,0.109,0.574c0,0.315-0.066,0.587-0.199,0.817c-0.133,0.23-0.349,0.405-0.649,0.525v0.015   c0.145,0.04,0.265,0.101,0.36,0.184c0.095,0.083,0.173,0.18,0.232,0.292c0.06,0.113,0.104,0.236,0.131,0.372   C61.741,4.2,61.76,4.335,61.77,4.47c0.005,0.085,0.01,0.185,0.015,0.3c0.005,0.115,0.014,0.232,0.026,0.352   c0.012,0.12,0.032,0.234,0.06,0.341c0.027,0.108,0.068,0.199,0.124,0.274h-1.177c-0.065-0.17-0.105-0.373-0.12-0.607   S60.66,4.67,60.63,4.455c-0.04-0.28-0.125-0.485-0.255-0.615c-0.13-0.13-0.342-0.195-0.637-0.195H58.56v2.092h-1.177V0.382H60.27z    M59.85,2.805c0.27,0,0.473-0.06,0.607-0.18c0.135-0.12,0.203-0.315,0.203-0.585c0-0.26-0.067-0.449-0.203-0.566   c-0.135-0.118-0.337-0.176-0.607-0.176h-1.29v1.507H59.85z"/>
	<path d="M63.825,4.807c0.16,0.155,0.39,0.233,0.69,0.233c0.215,0,0.4-0.054,0.555-0.162c0.155-0.107,0.25-0.221,0.285-0.341h0.938   c-0.15,0.465-0.38,0.798-0.69,0.998c-0.31,0.2-0.685,0.3-1.125,0.3c-0.305,0-0.58-0.049-0.825-0.146   C63.408,5.591,63.2,5.452,63.03,5.272c-0.17-0.18-0.301-0.395-0.394-0.645c-0.093-0.25-0.139-0.525-0.139-0.825   c0-0.29,0.048-0.56,0.143-0.81c0.095-0.25,0.23-0.466,0.405-0.648c0.175-0.183,0.383-0.327,0.626-0.432s0.511-0.157,0.806-0.157   c0.33,0,0.618,0.063,0.863,0.191c0.245,0.127,0.446,0.299,0.604,0.514c0.158,0.215,0.271,0.46,0.341,0.735   c0.07,0.275,0.095,0.562,0.075,0.862h-2.797C63.578,4.402,63.665,4.652,63.825,4.807z M65.029,2.767   c-0.127-0.14-0.321-0.21-0.581-0.21c-0.17,0-0.311,0.029-0.424,0.086c-0.112,0.058-0.203,0.129-0.27,0.214s-0.115,0.175-0.143,0.27   c-0.027,0.095-0.043,0.18-0.048,0.255h1.732C65.245,3.112,65.157,2.907,65.029,2.767z"/>
	<path d="M69.12,1.86v0.712h-0.78v1.92c0,0.18,0.03,0.3,0.09,0.36c0.06,0.06,0.18,0.09,0.36,0.09c0.06,0,0.117-0.002,0.172-0.008   c0.055-0.005,0.107-0.012,0.158-0.022v0.825c-0.09,0.015-0.19,0.025-0.3,0.03c-0.11,0.005-0.217,0.008-0.322,0.008   c-0.165,0-0.321-0.011-0.469-0.034s-0.278-0.066-0.39-0.131s-0.201-0.158-0.266-0.277c-0.065-0.12-0.098-0.278-0.098-0.473V2.572   H66.63V1.86h0.645V0.697h1.065V1.86H69.12z"/>
	<path d="M72.255,5.737v-0.54h-0.022c-0.135,0.225-0.31,0.388-0.525,0.487c-0.215,0.1-0.435,0.15-0.66,0.15   c-0.285,0-0.519-0.038-0.701-0.113c-0.183-0.075-0.326-0.181-0.431-0.319c-0.105-0.137-0.179-0.305-0.221-0.502   c-0.042-0.197-0.064-0.416-0.064-0.656V1.86h1.065v2.19c0,0.32,0.05,0.559,0.15,0.716c0.1,0.157,0.277,0.236,0.532,0.236   c0.29,0,0.5-0.086,0.63-0.259c0.13-0.172,0.195-0.457,0.195-0.852V1.86h1.065v3.877H72.255z"/>
	<path d="M75.09,1.86v0.72h0.015c0.05-0.12,0.117-0.231,0.202-0.333s0.183-0.19,0.293-0.263c0.11-0.072,0.227-0.128,0.352-0.168   s0.255-0.06,0.39-0.06c0.07,0,0.147,0.013,0.232,0.038v0.99c-0.05-0.01-0.11-0.019-0.18-0.026c-0.07-0.007-0.138-0.011-0.203-0.011   c-0.195,0-0.36,0.033-0.495,0.098c-0.135,0.065-0.244,0.154-0.326,0.266c-0.083,0.113-0.141,0.244-0.176,0.394   s-0.052,0.312-0.052,0.487v1.748h-1.065V1.86H75.09z"/>
	<path d="M78.142,1.86V2.4h0.022c0.135-0.225,0.31-0.389,0.525-0.491s0.435-0.154,0.66-0.154c0.285,0,0.519,0.039,0.701,0.116   s0.326,0.185,0.431,0.322c0.105,0.138,0.179,0.305,0.221,0.503c0.042,0.197,0.064,0.416,0.064,0.656v2.385h-1.065v-2.19   c0-0.32-0.05-0.559-0.15-0.716c-0.1-0.158-0.278-0.236-0.533-0.236c-0.29,0-0.5,0.086-0.63,0.259s-0.195,0.457-0.195,0.851v2.033   h-1.065V1.86H78.142z"/>
	<path d="M83.685,2.958c0.095-0.252,0.229-0.467,0.405-0.645c0.175-0.177,0.385-0.315,0.63-0.413   c0.245-0.097,0.52-0.146,0.825-0.146c0.305,0,0.581,0.049,0.829,0.146c0.248,0.098,0.458,0.235,0.634,0.413   c0.175,0.178,0.31,0.393,0.405,0.645c0.095,0.252,0.143,0.534,0.143,0.844s-0.047,0.59-0.143,0.84   c-0.095,0.25-0.23,0.464-0.405,0.642c-0.175,0.177-0.386,0.313-0.634,0.409c-0.248,0.095-0.524,0.143-0.829,0.143   c-0.305,0-0.58-0.048-0.825-0.143c-0.245-0.095-0.455-0.231-0.63-0.409c-0.175-0.178-0.31-0.391-0.405-0.642   c-0.095-0.25-0.143-0.53-0.143-0.84S83.589,3.211,83.685,2.958z M84.652,4.256c0.03,0.148,0.081,0.28,0.154,0.397   c0.072,0.118,0.168,0.211,0.289,0.281c0.12,0.07,0.27,0.105,0.45,0.105c0.18,0,0.331-0.035,0.454-0.105   c0.123-0.07,0.22-0.164,0.292-0.281c0.072-0.117,0.124-0.25,0.154-0.397c0.03-0.147,0.045-0.298,0.045-0.454   c0-0.155-0.015-0.308-0.045-0.458s-0.082-0.282-0.154-0.397c-0.072-0.115-0.17-0.208-0.292-0.281   c-0.123-0.072-0.274-0.109-0.454-0.109c-0.18,0-0.33,0.037-0.45,0.109c-0.12,0.073-0.216,0.167-0.289,0.281   c-0.073,0.115-0.124,0.248-0.154,0.397s-0.045,0.303-0.045,0.458C84.607,3.958,84.622,4.108,84.652,4.256z"/>
	<path d="M89.257,1.86V2.4h0.022c0.135-0.225,0.31-0.389,0.525-0.491s0.435-0.154,0.66-0.154c0.285,0,0.519,0.039,0.701,0.116   s0.326,0.185,0.431,0.322c0.105,0.138,0.179,0.305,0.221,0.503c0.042,0.197,0.064,0.416,0.064,0.656v2.385h-1.065v-2.19   c0-0.32-0.05-0.559-0.15-0.716c-0.1-0.158-0.278-0.236-0.533-0.236c-0.29,0-0.5,0.086-0.63,0.259S89.31,3.31,89.31,3.705v2.033   h-1.065V1.86H89.257z"/>
	<path d="M58.167,13.773c0.047,0.083,0.109,0.15,0.184,0.203c0.075,0.052,0.162,0.091,0.259,0.116   c0.098,0.025,0.199,0.038,0.304,0.038c0.075,0,0.154-0.009,0.236-0.026s0.158-0.045,0.225-0.083s0.124-0.087,0.169-0.15   c0.045-0.062,0.067-0.141,0.067-0.236c0-0.16-0.106-0.28-0.319-0.36s-0.509-0.16-0.889-0.24c-0.155-0.035-0.307-0.076-0.454-0.124   c-0.148-0.047-0.279-0.11-0.394-0.188s-0.208-0.175-0.277-0.292c-0.07-0.118-0.105-0.261-0.105-0.431   c0-0.25,0.049-0.455,0.146-0.615c0.098-0.16,0.226-0.286,0.386-0.379c0.16-0.092,0.34-0.157,0.54-0.195   c0.2-0.038,0.405-0.056,0.615-0.056s0.414,0.02,0.611,0.06c0.197,0.04,0.374,0.107,0.528,0.202   c0.155,0.095,0.284,0.222,0.387,0.379c0.102,0.158,0.164,0.356,0.184,0.596h-1.013c-0.015-0.205-0.092-0.344-0.232-0.416   c-0.14-0.073-0.305-0.109-0.495-0.109c-0.06,0-0.125,0.004-0.195,0.011c-0.07,0.007-0.134,0.024-0.191,0.049   s-0.106,0.061-0.146,0.109c-0.04,0.047-0.06,0.111-0.06,0.191c0,0.095,0.035,0.173,0.105,0.232c0.07,0.06,0.161,0.109,0.274,0.146   c0.112,0.038,0.241,0.071,0.386,0.101c0.145,0.03,0.292,0.063,0.442,0.098c0.155,0.035,0.306,0.078,0.454,0.127   c0.147,0.05,0.279,0.116,0.394,0.199c0.115,0.083,0.207,0.185,0.277,0.308c0.07,0.123,0.105,0.274,0.105,0.454   c0,0.255-0.051,0.469-0.154,0.642c-0.103,0.172-0.236,0.311-0.401,0.416s-0.354,0.179-0.566,0.221   c-0.213,0.042-0.429,0.064-0.649,0.064c-0.225,0-0.445-0.022-0.66-0.068c-0.215-0.045-0.406-0.12-0.574-0.225   s-0.305-0.244-0.413-0.417s-0.166-0.389-0.176-0.648h1.013C58.095,13.592,58.119,13.691,58.167,13.773z"/>
	<path d="M63.428,10.86v0.712h-0.78v1.92c0,0.18,0.03,0.3,0.09,0.36c0.06,0.06,0.18,0.09,0.36,0.09c0.06,0,0.117-0.002,0.172-0.008   c0.055-0.005,0.107-0.012,0.158-0.022v0.825c-0.09,0.015-0.19,0.025-0.3,0.03c-0.11,0.005-0.217,0.008-0.322,0.008   c-0.165,0-0.321-0.011-0.469-0.034s-0.278-0.066-0.39-0.131s-0.201-0.158-0.266-0.277c-0.065-0.12-0.098-0.278-0.098-0.473v-2.288   h-0.645V10.86h0.645V9.697h1.065v1.163H63.428z"/>
	<path d="M63.96,11.958c0.095-0.252,0.229-0.467,0.405-0.645c0.175-0.177,0.385-0.315,0.63-0.413   c0.245-0.097,0.52-0.146,0.825-0.146c0.305,0,0.581,0.049,0.829,0.146c0.248,0.098,0.458,0.235,0.634,0.413   c0.175,0.178,0.31,0.393,0.405,0.645c0.095,0.252,0.143,0.534,0.143,0.844s-0.047,0.59-0.143,0.84   c-0.095,0.25-0.23,0.464-0.405,0.642c-0.175,0.177-0.386,0.313-0.634,0.409c-0.248,0.095-0.524,0.143-0.829,0.143   c-0.305,0-0.58-0.048-0.825-0.143c-0.245-0.095-0.455-0.231-0.63-0.409c-0.175-0.178-0.31-0.391-0.405-0.642   c-0.095-0.25-0.143-0.53-0.143-0.84S63.865,12.211,63.96,11.958z M64.928,13.256c0.03,0.148,0.081,0.28,0.154,0.397   c0.072,0.118,0.168,0.211,0.289,0.281c0.12,0.07,0.27,0.105,0.45,0.105c0.18,0,0.331-0.035,0.454-0.105   c0.123-0.07,0.22-0.164,0.292-0.281c0.072-0.117,0.124-0.25,0.154-0.397c0.03-0.147,0.045-0.298,0.045-0.454   c0-0.155-0.015-0.308-0.045-0.458s-0.082-0.282-0.154-0.397c-0.072-0.115-0.17-0.208-0.292-0.281   c-0.123-0.072-0.274-0.109-0.454-0.109c-0.18,0-0.33,0.037-0.45,0.109c-0.12,0.073-0.216,0.167-0.289,0.281   c-0.073,0.115-0.124,0.248-0.154,0.397s-0.045,0.303-0.045,0.458C64.883,12.958,64.898,13.108,64.928,13.256z"/>
	<path d="M70.373,11.557c-0.17,0-0.312,0.039-0.427,0.116c-0.115,0.078-0.209,0.178-0.281,0.3c-0.073,0.123-0.124,0.257-0.154,0.405   s-0.045,0.294-0.045,0.439c0,0.14,0.015,0.282,0.045,0.427s0.079,0.276,0.146,0.394c0.068,0.117,0.159,0.214,0.274,0.289   c0.115,0.075,0.255,0.113,0.42,0.113c0.255,0,0.451-0.071,0.589-0.214s0.224-0.334,0.259-0.574h1.027   c-0.07,0.515-0.27,0.907-0.6,1.177c-0.33,0.27-0.752,0.405-1.267,0.405c-0.29,0-0.557-0.049-0.799-0.146   c-0.243-0.098-0.449-0.233-0.619-0.409c-0.17-0.175-0.303-0.384-0.397-0.626c-0.095-0.242-0.143-0.508-0.143-0.798   c0-0.3,0.043-0.579,0.131-0.836c0.088-0.257,0.216-0.48,0.387-0.667c0.17-0.188,0.377-0.334,0.622-0.439   c0.245-0.105,0.525-0.157,0.84-0.157c0.23,0,0.451,0.03,0.664,0.09s0.402,0.151,0.57,0.274s0.304,0.275,0.409,0.458   s0.165,0.398,0.18,0.648H71.16C71.09,11.78,70.828,11.557,70.373,11.557z"/>
	<path d="M73.987,9.382v2.873l1.343-1.395h1.26l-1.462,1.425l1.627,2.453h-1.29L74.4,13.005l-0.413,0.397v1.335h-1.065V9.382H73.987   z"/>
</g>
<g>
	<path d="M161.941,99.847c0.24,0,0.457,0.039,0.649,0.116c0.192,0.078,0.357,0.184,0.495,0.319c0.137,0.135,0.242,0.291,0.314,0.469   c0.072,0.177,0.109,0.368,0.109,0.573c0,0.315-0.066,0.588-0.199,0.817c-0.133,0.23-0.349,0.405-0.648,0.525v0.015   c0.145,0.04,0.265,0.102,0.359,0.184c0.096,0.083,0.173,0.181,0.232,0.293c0.061,0.112,0.104,0.236,0.132,0.371   s0.046,0.271,0.056,0.405c0.006,0.085,0.011,0.185,0.016,0.3s0.014,0.232,0.026,0.353c0.012,0.12,0.032,0.233,0.06,0.341   c0.027,0.108,0.068,0.199,0.124,0.274h-1.178c-0.064-0.17-0.104-0.373-0.12-0.607c-0.015-0.235-0.037-0.46-0.067-0.676   c-0.04-0.279-0.125-0.484-0.255-0.614s-0.343-0.195-0.638-0.195h-1.178v2.093h-1.177v-5.355H161.941z M161.521,102.27   c0.271,0,0.473-0.061,0.607-0.18c0.136-0.12,0.203-0.315,0.203-0.585c0-0.261-0.067-0.449-0.203-0.566   c-0.135-0.118-0.337-0.177-0.607-0.177h-1.29v1.508H161.521z"/>
	<path d="M165.497,104.271c0.16,0.155,0.39,0.233,0.689,0.233c0.215,0,0.4-0.054,0.556-0.162c0.154-0.107,0.25-0.221,0.285-0.341   h0.938c-0.15,0.465-0.381,0.798-0.69,0.997c-0.311,0.2-0.686,0.301-1.125,0.301c-0.305,0-0.58-0.049-0.825-0.146   s-0.452-0.236-0.622-0.416c-0.17-0.181-0.302-0.396-0.394-0.646c-0.093-0.25-0.14-0.524-0.14-0.825c0-0.29,0.048-0.56,0.143-0.81   c0.096-0.25,0.23-0.466,0.405-0.648s0.384-0.327,0.626-0.432c0.243-0.105,0.512-0.157,0.807-0.157c0.33,0,0.617,0.063,0.862,0.191   c0.245,0.127,0.446,0.299,0.604,0.514c0.158,0.215,0.271,0.46,0.342,0.734c0.07,0.275,0.095,0.562,0.075,0.862h-2.798   C165.249,103.867,165.337,104.117,165.497,104.271z M166.7,102.231c-0.127-0.14-0.321-0.21-0.581-0.21   c-0.17,0-0.311,0.029-0.424,0.087c-0.112,0.058-0.202,0.129-0.27,0.214s-0.115,0.175-0.143,0.27s-0.044,0.18-0.049,0.255h1.732   C166.917,102.577,166.828,102.372,166.7,102.231z"/>
	<path d="M170.792,101.324v0.713h-0.78v1.92c0,0.18,0.03,0.3,0.09,0.36c0.06,0.06,0.18,0.09,0.36,0.09   c0.06,0,0.117-0.003,0.172-0.008c0.056-0.005,0.107-0.013,0.158-0.022v0.825c-0.091,0.015-0.19,0.024-0.301,0.029   c-0.109,0.006-0.217,0.008-0.322,0.008c-0.165,0-0.321-0.011-0.469-0.033s-0.277-0.066-0.39-0.132   c-0.112-0.064-0.201-0.157-0.267-0.277c-0.064-0.12-0.098-0.277-0.098-0.473v-2.287h-0.645v-0.713h0.645v-1.162h1.065v1.162   H170.792z"/>
	<path d="M173.927,105.202v-0.54h-0.022c-0.135,0.225-0.311,0.388-0.525,0.487s-0.435,0.15-0.66,0.15   c-0.284,0-0.519-0.038-0.701-0.113c-0.183-0.074-0.326-0.181-0.431-0.318c-0.105-0.138-0.179-0.305-0.222-0.503   c-0.042-0.197-0.063-0.416-0.063-0.656v-2.385h1.065v2.19c0,0.319,0.05,0.559,0.149,0.716s0.277,0.236,0.532,0.236   c0.29,0,0.5-0.086,0.631-0.259c0.13-0.172,0.194-0.456,0.194-0.852v-2.032h1.065v3.878H173.927z"/>
	<path d="M176.762,101.324v0.72h0.015c0.05-0.119,0.117-0.23,0.202-0.333s0.183-0.19,0.293-0.263s0.228-0.129,0.353-0.169   s0.255-0.06,0.39-0.06c0.07,0,0.147,0.013,0.232,0.037v0.99c-0.05-0.01-0.109-0.019-0.18-0.026s-0.138-0.012-0.202-0.012   c-0.195,0-0.36,0.033-0.495,0.098c-0.135,0.065-0.244,0.154-0.326,0.267c-0.083,0.112-0.142,0.244-0.177,0.394   c-0.035,0.15-0.052,0.312-0.052,0.487v1.748h-1.065v-3.878H176.762z"/>
	<path d="M179.813,101.324v0.54h0.022c0.136-0.225,0.311-0.389,0.525-0.491s0.435-0.153,0.66-0.153c0.285,0,0.519,0.038,0.701,0.116   c0.183,0.077,0.326,0.185,0.431,0.322c0.105,0.138,0.179,0.305,0.222,0.503c0.042,0.197,0.063,0.416,0.063,0.656v2.385h-1.064   v-2.19c0-0.319-0.051-0.559-0.15-0.716c-0.1-0.158-0.277-0.236-0.532-0.236c-0.29,0-0.5,0.086-0.63,0.259   c-0.13,0.172-0.195,0.456-0.195,0.851v2.033h-1.065v-3.878H179.813z"/>
	<path d="M185.356,102.423c0.095-0.252,0.229-0.467,0.404-0.645s0.385-0.315,0.63-0.413c0.245-0.097,0.521-0.146,0.825-0.146   s0.581,0.049,0.829,0.146c0.247,0.098,0.458,0.235,0.634,0.413c0.175,0.178,0.31,0.393,0.404,0.645   c0.096,0.253,0.143,0.534,0.143,0.844c0,0.311-0.047,0.591-0.143,0.84c-0.095,0.251-0.229,0.464-0.404,0.642   c-0.176,0.178-0.387,0.313-0.634,0.409c-0.248,0.095-0.524,0.143-0.829,0.143s-0.58-0.048-0.825-0.143   c-0.245-0.096-0.455-0.231-0.63-0.409s-0.31-0.391-0.404-0.642c-0.096-0.249-0.143-0.529-0.143-0.84   C185.214,102.957,185.261,102.676,185.356,102.423z M186.323,103.721c0.03,0.147,0.081,0.28,0.154,0.397   c0.072,0.117,0.168,0.211,0.288,0.281s0.271,0.105,0.45,0.105s0.331-0.035,0.454-0.105c0.122-0.07,0.22-0.164,0.292-0.281   s0.124-0.25,0.154-0.397c0.029-0.147,0.045-0.299,0.045-0.454c0-0.154-0.016-0.308-0.045-0.457c-0.03-0.15-0.082-0.282-0.154-0.397   s-0.17-0.209-0.292-0.281c-0.123-0.072-0.274-0.109-0.454-0.109s-0.33,0.037-0.45,0.109s-0.216,0.166-0.288,0.281   c-0.073,0.115-0.124,0.247-0.154,0.397c-0.029,0.149-0.045,0.303-0.045,0.457C186.278,103.422,186.294,103.573,186.323,103.721z"/>
	<path d="M190.929,101.324v0.54h0.022c0.135-0.225,0.31-0.389,0.524-0.491s0.436-0.153,0.66-0.153c0.285,0,0.519,0.038,0.701,0.116   c0.183,0.077,0.326,0.185,0.432,0.322c0.104,0.138,0.179,0.305,0.221,0.503c0.043,0.197,0.064,0.416,0.064,0.656v2.385h-1.065   v-2.19c0-0.319-0.05-0.559-0.149-0.716c-0.101-0.158-0.278-0.236-0.533-0.236c-0.29,0-0.5,0.086-0.63,0.259   c-0.13,0.172-0.194,0.456-0.194,0.851v2.033h-1.065v-3.878H190.929z"/>
	<path d="M159.977,110.324v0.525h0.016c0.14-0.2,0.309-0.355,0.506-0.465c0.197-0.11,0.424-0.165,0.679-0.165   c0.245,0,0.469,0.047,0.671,0.143c0.203,0.095,0.356,0.262,0.462,0.502c0.115-0.17,0.271-0.319,0.469-0.45   c0.197-0.13,0.431-0.194,0.701-0.194c0.205,0,0.395,0.024,0.57,0.074c0.175,0.051,0.324,0.131,0.449,0.24   c0.125,0.11,0.223,0.254,0.293,0.432s0.104,0.392,0.104,0.641v2.596h-1.064v-2.197c0-0.131-0.005-0.253-0.016-0.368   c-0.01-0.115-0.037-0.215-0.082-0.3s-0.111-0.152-0.199-0.202c-0.087-0.05-0.206-0.075-0.355-0.075   c-0.15,0-0.271,0.028-0.364,0.086s-0.165,0.133-0.218,0.226c-0.052,0.092-0.087,0.197-0.104,0.314s-0.026,0.236-0.026,0.356v2.16   h-1.064v-2.175c0-0.115-0.003-0.229-0.008-0.342s-0.026-0.216-0.063-0.312c-0.038-0.095-0.101-0.171-0.188-0.229   c-0.088-0.058-0.217-0.086-0.387-0.086c-0.05,0-0.116,0.011-0.198,0.033c-0.083,0.022-0.163,0.065-0.24,0.128   c-0.078,0.062-0.144,0.152-0.199,0.27c-0.055,0.118-0.082,0.271-0.082,0.462v2.25h-1.065v-3.878H159.977z"/>
	<path d="M165.691,111.517c0.016-0.25,0.078-0.457,0.188-0.622c0.11-0.165,0.25-0.298,0.42-0.397   c0.17-0.101,0.361-0.171,0.574-0.214c0.213-0.042,0.426-0.063,0.642-0.063c0.194,0,0.393,0.014,0.592,0.041   c0.2,0.027,0.383,0.081,0.548,0.161s0.3,0.191,0.405,0.334c0.104,0.143,0.157,0.331,0.157,0.566v2.018   c0,0.175,0.01,0.342,0.03,0.502c0.02,0.16,0.055,0.28,0.104,0.36h-1.08c-0.02-0.061-0.036-0.121-0.049-0.184   c-0.012-0.062-0.021-0.127-0.025-0.191c-0.171,0.175-0.37,0.297-0.601,0.367c-0.229,0.07-0.465,0.105-0.705,0.105   c-0.185,0-0.357-0.022-0.518-0.068c-0.16-0.045-0.3-0.114-0.42-0.21c-0.12-0.095-0.214-0.215-0.281-0.359   c-0.067-0.146-0.101-0.317-0.101-0.518c0-0.22,0.038-0.401,0.116-0.544c0.077-0.143,0.177-0.256,0.3-0.341   c0.122-0.085,0.263-0.149,0.42-0.191c0.157-0.043,0.316-0.076,0.477-0.102c0.159-0.024,0.317-0.045,0.472-0.06   c0.155-0.016,0.293-0.038,0.413-0.067c0.12-0.03,0.215-0.074,0.285-0.132c0.069-0.058,0.102-0.141,0.097-0.251   c0-0.115-0.019-0.206-0.056-0.273c-0.038-0.068-0.088-0.12-0.15-0.158c-0.062-0.037-0.135-0.062-0.217-0.075   c-0.083-0.012-0.172-0.019-0.267-0.019c-0.21,0-0.375,0.045-0.495,0.136c-0.12,0.09-0.19,0.239-0.21,0.449H165.691z    M168.151,112.305c-0.045,0.04-0.101,0.071-0.168,0.094s-0.141,0.041-0.218,0.056c-0.078,0.016-0.159,0.028-0.244,0.038   s-0.17,0.022-0.255,0.037c-0.08,0.015-0.158,0.035-0.236,0.061c-0.077,0.024-0.145,0.059-0.202,0.101   c-0.058,0.043-0.104,0.097-0.139,0.161c-0.035,0.065-0.053,0.147-0.053,0.248c0,0.095,0.018,0.175,0.053,0.24   c0.035,0.064,0.082,0.116,0.143,0.153c0.06,0.037,0.13,0.063,0.21,0.079c0.08,0.015,0.162,0.022,0.247,0.022   c0.21,0,0.373-0.035,0.487-0.105c0.115-0.069,0.2-0.153,0.256-0.251c0.055-0.098,0.088-0.196,0.101-0.296   c0.013-0.101,0.019-0.181,0.019-0.24V112.305z"/>
	<path d="M171.054,110.324v0.72h0.016c0.05-0.119,0.117-0.23,0.202-0.333s0.183-0.19,0.293-0.263   c0.109-0.072,0.227-0.129,0.352-0.169s0.256-0.06,0.391-0.06c0.069,0,0.147,0.013,0.232,0.037v0.99   c-0.05-0.01-0.11-0.019-0.18-0.026c-0.07-0.008-0.138-0.012-0.203-0.012c-0.194,0-0.359,0.033-0.495,0.098   c-0.135,0.065-0.243,0.154-0.326,0.267c-0.082,0.112-0.141,0.244-0.176,0.394c-0.035,0.15-0.053,0.312-0.053,0.487v1.748h-1.065   v-3.878H171.054z"/>
	<path d="M174.121,108.847v2.873l1.343-1.396h1.26l-1.462,1.425l1.627,2.453h-1.29l-1.064-1.732l-0.413,0.397v1.335h-1.064v-5.355   H174.121z"/>
	<path d="M178.403,113.271c0.16,0.155,0.391,0.233,0.69,0.233c0.215,0,0.399-0.054,0.555-0.162c0.155-0.107,0.25-0.221,0.285-0.341   h0.938c-0.15,0.465-0.38,0.798-0.69,0.997c-0.31,0.2-0.685,0.301-1.125,0.301c-0.305,0-0.58-0.049-0.824-0.146   c-0.245-0.098-0.453-0.236-0.623-0.416c-0.17-0.181-0.301-0.396-0.394-0.646s-0.139-0.524-0.139-0.825   c0-0.29,0.048-0.56,0.143-0.81s0.229-0.466,0.405-0.648c0.175-0.183,0.383-0.327,0.626-0.432c0.242-0.105,0.511-0.157,0.806-0.157   c0.33,0,0.618,0.063,0.863,0.191c0.244,0.127,0.446,0.299,0.604,0.514s0.271,0.46,0.341,0.734c0.07,0.275,0.096,0.562,0.075,0.862   h-2.797C178.156,112.867,178.243,113.117,178.403,113.271z M179.607,111.231c-0.128-0.14-0.321-0.21-0.581-0.21   c-0.17,0-0.312,0.029-0.424,0.087s-0.203,0.129-0.271,0.214s-0.114,0.175-0.143,0.27c-0.027,0.095-0.043,0.18-0.048,0.255h1.732   C179.823,111.577,179.735,111.372,179.607,111.231z"/>
	<path d="M183.698,110.324v0.713h-0.78v1.92c0,0.18,0.03,0.3,0.091,0.36c0.06,0.06,0.18,0.09,0.359,0.09   c0.061,0,0.117-0.003,0.173-0.008c0.055-0.005,0.107-0.013,0.157-0.022v0.825c-0.09,0.015-0.19,0.024-0.3,0.029   c-0.11,0.006-0.218,0.008-0.322,0.008c-0.165,0-0.321-0.011-0.469-0.033s-0.278-0.066-0.391-0.132   c-0.112-0.064-0.201-0.157-0.266-0.277c-0.065-0.12-0.098-0.277-0.098-0.473v-2.287h-0.646v-0.713h0.646v-1.162h1.064v1.162   H183.698z"/>
</g>
<g>
	<g>
		<line fill="none" stroke="#000000" stroke-width="0.5" stroke-miterlimit="10" x1="97.29" y1="2.691" x2="97.29" y2="191.888"/>
		<g>
			<polygon points="95.419,3.238 97.29,0 99.159,3.238    "/>
		</g>
		<g>
			<polygon points="95.419,191.341 97.29,194.579 99.159,191.341    "/>
		</g>
	</g>
</g>
<g>
	<g>
		<line fill="none" stroke="#000000" stroke-width="0.5" stroke-miterlimit="10" x1="2.691" y1="97.289" x2="191.888" y2="97.289"/>
		<g>
			<polygon points="3.238,99.159 0,97.289 3.238,95.419    "/>
		</g>
		<g>
			<polygon points="191.341,99.159 194.579,97.289 191.341,95.419    "/>
		</g>
	</g>
</g>
<line fill="none" stroke="#F47920" stroke-width="2.5" stroke-miterlimit="10" x1="172.105" y1="39.349" x2="28.939" y2="141.183"/>
<circle fill="#7A9AA8" cx="146.977" cy="43.49" r="2.001"/>
<circle fill="#7A9AA8" cx="121.045" cy="52.416" r="2.001"/>
<circle fill="#7A9AA8" cx="104.501" cy="71.268" r="2.001"/>
<circle fill="#7A9AA8" cx="91.343" cy="75.501" r="2.001"/>
<circle fill="#7A9AA8" cx="66.026" cy="84.196" r="2"/>
<circle fill="#7A9AA8" cx="49.867" cy="103.587" r="2.001"/>
<circle fill="#7A9AA8" cx="108.349" cy="110.666" r="2.001"/>
<circle fill="#7A9AA8" cx="106.655" cy="105.126" r="2.001"/>
<circle fill="#7A9AA8" cx="108.271" cy="90.505" r="2"/>
<circle fill="#7A9AA8" cx="125.97" cy="82.426" r="2.001"/>
<circle fill="#7A9AA8" cx="140.205" cy="71.038" r="2"/>
<circle fill="#7A9AA8" cx="161.442" cy="72.654" r="2.001"/>
<circle fill="#7A9AA8" cx="150.055" cy="111.436" r="2.001"/>
<circle fill="#7A9AA8" cx="85.264" cy="103.202" r="2.001"/>
<circle fill="#7A9AA8" cx="70.49" cy="114.745" r="2"/>
<circle fill="#7A9AA8" cx="53.176" cy="122.439" r="2"/>
<circle fill="#7A9AA8" cx="52.792" cy="142.753" r="2"/>
<circle fill="#7A9AA8" cx="95.113" cy="144.292" r="2"/>
</svg>