<svg xmlns="http://www.w3.org/2000/svg" xmlns:xlink="http://www.w3.org/1999/xlink" version="1.1" id="Layer_1" x="0px" y="0px" width="235.774px" height="169.231px" viewBox="0 0 235.774 169.231" enable-background="new 0 0 235.774 169.231" xml:space="preserve">
<g>
	<path d="M3.667,4.963C3.597,4.851,3.51,4.752,3.405,4.667C3.3,4.582,3.181,4.516,3.049,4.468C2.916,4.42,2.777,4.396,2.632,4.396   c-0.265,0-0.49,0.051-0.675,0.154c-0.185,0.103-0.335,0.24-0.45,0.413C1.392,5.135,1.309,5.332,1.256,5.552   c-0.052,0.22-0.079,0.447-0.079,0.683c0,0.225,0.026,0.443,0.079,0.656c0.053,0.212,0.136,0.404,0.251,0.574   c0.115,0.17,0.265,0.306,0.45,0.409c0.185,0.103,0.41,0.154,0.675,0.154c0.36,0,0.641-0.11,0.844-0.33   c0.203-0.22,0.326-0.51,0.371-0.87h1.14C4.958,7.162,4.88,7.464,4.755,7.734s-0.29,0.5-0.495,0.69S3.815,8.759,3.54,8.859   c-0.275,0.1-0.578,0.15-0.908,0.15c-0.41,0-0.779-0.071-1.106-0.214C1.199,8.653,0.922,8.457,0.697,8.207S0.3,7.663,0.18,7.325   C0.06,6.988,0,6.624,0,6.234c0-0.4,0.06-0.771,0.18-1.114C0.3,4.778,0.472,4.479,0.697,4.224s0.501-0.455,0.829-0.6   c0.328-0.145,0.696-0.217,1.106-0.217c0.295,0,0.574,0.042,0.836,0.127c0.262,0.085,0.497,0.209,0.705,0.371   c0.207,0.163,0.378,0.364,0.514,0.604c0.135,0.24,0.22,0.515,0.255,0.825h-1.14C3.782,5.199,3.737,5.075,3.667,4.963z"/>
	<path d="M5.7,6.11C5.795,5.858,5.93,5.643,6.105,5.465C6.28,5.288,6.49,5.15,6.735,5.053C6.98,4.956,7.255,4.907,7.56,4.907   c0.305,0,0.581,0.049,0.829,0.146C8.636,5.15,8.847,5.288,9.022,5.465c0.175,0.178,0.31,0.393,0.405,0.645   C9.522,6.363,9.57,6.644,9.57,6.954s-0.047,0.59-0.143,0.84c-0.095,0.25-0.23,0.464-0.405,0.642   C8.847,8.613,8.636,8.749,8.389,8.844C8.141,8.939,7.865,8.987,7.56,8.987c-0.305,0-0.58-0.048-0.825-0.143   C6.49,8.749,6.28,8.613,6.105,8.436C5.93,8.258,5.795,8.044,5.7,7.794c-0.095-0.25-0.143-0.53-0.143-0.84S5.605,6.363,5.7,6.11z    M6.667,7.408c0.03,0.148,0.081,0.28,0.154,0.397C6.894,7.923,6.99,8.017,7.11,8.086c0.12,0.07,0.27,0.105,0.45,0.105   c0.18,0,0.331-0.035,0.454-0.105c0.123-0.07,0.22-0.164,0.292-0.281C8.378,7.688,8.43,7.556,8.46,7.408   C8.49,7.26,8.505,7.109,8.505,6.954c0-0.155-0.015-0.308-0.045-0.458S8.378,6.214,8.306,6.099c-0.072-0.115-0.17-0.208-0.292-0.281   C7.891,5.746,7.74,5.709,7.56,5.709c-0.18,0-0.33,0.037-0.45,0.109C6.99,5.891,6.894,5.984,6.821,6.099   C6.749,6.214,6.697,6.347,6.667,6.497S6.623,6.799,6.623,6.954C6.623,7.109,6.638,7.26,6.667,7.408z"/>
	<path d="M11.156,7.925c0.047,0.083,0.109,0.15,0.184,0.203c0.075,0.052,0.162,0.091,0.259,0.116   c0.098,0.025,0.199,0.038,0.304,0.038c0.075,0,0.154-0.009,0.236-0.026s0.158-0.045,0.225-0.083s0.124-0.087,0.169-0.15   C12.578,7.96,12.6,7.882,12.6,7.787c0-0.16-0.106-0.28-0.319-0.36s-0.509-0.16-0.889-0.24c-0.155-0.035-0.307-0.076-0.454-0.124   c-0.148-0.047-0.279-0.11-0.394-0.188s-0.208-0.175-0.277-0.292c-0.07-0.118-0.105-0.261-0.105-0.431   c0-0.25,0.049-0.455,0.146-0.615c0.098-0.16,0.226-0.286,0.386-0.379c0.16-0.092,0.34-0.157,0.54-0.195   c0.2-0.038,0.405-0.056,0.615-0.056s0.414,0.02,0.611,0.06c0.197,0.04,0.374,0.107,0.528,0.202   c0.155,0.095,0.284,0.222,0.387,0.379c0.102,0.158,0.164,0.356,0.184,0.596h-1.013c-0.015-0.205-0.092-0.344-0.232-0.416   c-0.14-0.073-0.305-0.109-0.495-0.109c-0.06,0-0.125,0.004-0.195,0.011c-0.07,0.007-0.134,0.024-0.191,0.049   s-0.106,0.061-0.146,0.109c-0.04,0.047-0.06,0.111-0.06,0.191c0,0.095,0.035,0.173,0.105,0.232c0.07,0.06,0.161,0.109,0.274,0.146   c0.112,0.038,0.241,0.071,0.386,0.101c0.145,0.03,0.292,0.063,0.442,0.098c0.155,0.035,0.306,0.078,0.454,0.127   c0.147,0.05,0.279,0.116,0.394,0.199c0.115,0.083,0.207,0.185,0.277,0.308c0.07,0.123,0.105,0.274,0.105,0.454   c0,0.255-0.051,0.469-0.154,0.642c-0.103,0.172-0.236,0.311-0.401,0.416s-0.354,0.179-0.566,0.221   c-0.213,0.042-0.429,0.064-0.649,0.064c-0.225,0-0.445-0.022-0.66-0.068c-0.215-0.045-0.406-0.12-0.574-0.225   s-0.305-0.244-0.413-0.417s-0.166-0.389-0.176-0.648h1.013C11.085,7.744,11.109,7.843,11.156,7.925z"/>
	<path d="M16.417,5.012v0.712h-0.78v1.92c0,0.18,0.03,0.3,0.09,0.36c0.06,0.06,0.18,0.09,0.36,0.09c0.06,0,0.117-0.002,0.172-0.008   c0.055-0.005,0.107-0.012,0.158-0.022v0.825c-0.09,0.015-0.19,0.025-0.3,0.03c-0.11,0.005-0.217,0.008-0.322,0.008   c-0.165,0-0.321-0.011-0.469-0.034s-0.278-0.066-0.39-0.131s-0.201-0.158-0.266-0.277c-0.065-0.12-0.098-0.278-0.098-0.473V5.724   h-0.645V5.012h0.645V3.849h1.065v1.163H16.417z"/>
	<path d="M19.035,6.11c0.095-0.252,0.229-0.467,0.405-0.645c0.175-0.177,0.385-0.315,0.63-0.413c0.245-0.097,0.52-0.146,0.825-0.146   c0.305,0,0.581,0.049,0.829,0.146c0.248,0.098,0.458,0.235,0.634,0.413c0.175,0.178,0.31,0.393,0.405,0.645   c0.095,0.252,0.143,0.534,0.143,0.844s-0.047,0.59-0.143,0.84c-0.095,0.25-0.23,0.464-0.405,0.642   c-0.175,0.177-0.386,0.313-0.634,0.409c-0.248,0.095-0.524,0.143-0.829,0.143c-0.305,0-0.58-0.048-0.825-0.143   c-0.245-0.095-0.455-0.231-0.63-0.409c-0.175-0.178-0.31-0.391-0.405-0.642c-0.095-0.25-0.143-0.53-0.143-0.84   S18.94,6.363,19.035,6.11z M20.002,7.408c0.03,0.148,0.081,0.28,0.154,0.397c0.072,0.118,0.168,0.211,0.289,0.281   c0.12,0.07,0.27,0.105,0.45,0.105c0.18,0,0.331-0.035,0.454-0.105c0.123-0.07,0.22-0.164,0.292-0.281   c0.072-0.117,0.124-0.25,0.154-0.397c0.03-0.147,0.045-0.298,0.045-0.454c0-0.155-0.015-0.308-0.045-0.458   s-0.082-0.282-0.154-0.397c-0.072-0.115-0.17-0.208-0.292-0.281c-0.123-0.072-0.274-0.109-0.454-0.109   c-0.18,0-0.33,0.037-0.45,0.109c-0.12,0.073-0.216,0.167-0.289,0.281c-0.073,0.115-0.124,0.248-0.154,0.397   s-0.045,0.303-0.045,0.458C19.958,7.109,19.973,7.26,20.002,7.408z"/>
	<path d="M23.19,5.724V5.012h0.638v-0.3c0-0.345,0.107-0.627,0.322-0.847s0.54-0.33,0.975-0.33c0.095,0,0.19,0.004,0.285,0.011   c0.095,0.007,0.188,0.014,0.277,0.019v0.795c-0.125-0.015-0.255-0.023-0.39-0.023c-0.145,0-0.249,0.034-0.311,0.102   s-0.094,0.181-0.094,0.341v0.232h0.735v0.712h-0.735v3.165h-1.065V5.724H23.19z"/>
	<path d="M1.972,14.709c-0.17,0-0.312,0.039-0.427,0.116c-0.115,0.078-0.209,0.178-0.281,0.3C1.191,15.248,1.14,15.383,1.11,15.53   s-0.045,0.294-0.045,0.439c0,0.14,0.015,0.282,0.045,0.427s0.079,0.276,0.146,0.394c0.068,0.117,0.159,0.214,0.274,0.289   c0.115,0.075,0.255,0.113,0.42,0.113c0.255,0,0.451-0.071,0.589-0.214s0.224-0.334,0.259-0.574h1.027   c-0.07,0.515-0.27,0.907-0.6,1.177c-0.33,0.27-0.752,0.405-1.267,0.405c-0.29,0-0.557-0.049-0.799-0.146   c-0.243-0.098-0.449-0.233-0.619-0.409c-0.17-0.175-0.303-0.384-0.397-0.626C0.047,16.563,0,16.297,0,16.007   c0-0.3,0.043-0.579,0.131-0.836c0.088-0.257,0.216-0.48,0.387-0.667c0.17-0.188,0.377-0.334,0.622-0.439   c0.245-0.105,0.525-0.157,0.84-0.157c0.23,0,0.451,0.03,0.664,0.09s0.402,0.151,0.57,0.274s0.304,0.275,0.409,0.458   s0.165,0.398,0.18,0.648H2.76C2.69,14.932,2.427,14.709,1.972,14.709z"/>
	<path d="M4.379,15.204c0.015-0.25,0.078-0.458,0.188-0.623s0.25-0.297,0.42-0.397s0.361-0.171,0.574-0.214   c0.213-0.042,0.426-0.063,0.642-0.063c0.195,0,0.393,0.014,0.592,0.041c0.2,0.028,0.383,0.082,0.547,0.162   c0.165,0.08,0.3,0.191,0.405,0.333s0.157,0.332,0.157,0.566v2.018c0,0.175,0.01,0.342,0.03,0.502s0.055,0.28,0.105,0.36h-1.08   c-0.02-0.06-0.036-0.121-0.049-0.184c-0.012-0.062-0.021-0.126-0.026-0.191c-0.17,0.175-0.37,0.297-0.6,0.368   c-0.23,0.07-0.465,0.105-0.705,0.105c-0.185,0-0.357-0.022-0.518-0.068c-0.16-0.045-0.3-0.115-0.42-0.21   c-0.12-0.095-0.214-0.215-0.281-0.36S4.26,17.032,4.26,16.832c0-0.22,0.039-0.401,0.116-0.543c0.077-0.143,0.177-0.256,0.3-0.341   s0.263-0.149,0.42-0.191c0.158-0.042,0.316-0.076,0.477-0.101c0.16-0.025,0.317-0.045,0.472-0.06s0.292-0.038,0.413-0.067   c0.12-0.03,0.215-0.074,0.285-0.131c0.07-0.058,0.102-0.141,0.097-0.251c0-0.115-0.019-0.206-0.056-0.273   c-0.038-0.068-0.087-0.12-0.15-0.158s-0.135-0.062-0.217-0.075c-0.083-0.012-0.171-0.019-0.267-0.019   c-0.21,0-0.375,0.045-0.495,0.135c-0.12,0.09-0.19,0.24-0.21,0.45H4.379z M6.839,15.992c-0.045,0.04-0.101,0.071-0.168,0.094   s-0.14,0.041-0.218,0.056s-0.159,0.028-0.244,0.038c-0.085,0.01-0.17,0.022-0.255,0.038c-0.08,0.015-0.159,0.035-0.236,0.06   c-0.078,0.025-0.145,0.059-0.203,0.101s-0.104,0.096-0.139,0.161s-0.052,0.147-0.052,0.248c0,0.095,0.017,0.175,0.052,0.24   s0.083,0.116,0.143,0.153c0.06,0.038,0.13,0.064,0.21,0.079c0.08,0.015,0.163,0.022,0.248,0.022c0.21,0,0.373-0.035,0.487-0.105   c0.115-0.07,0.2-0.154,0.255-0.251c0.055-0.097,0.088-0.196,0.101-0.296c0.012-0.1,0.019-0.18,0.019-0.24V15.992z"/>
	<path d="M9.742,14.012v0.495h0.015c0.13-0.21,0.295-0.363,0.495-0.458c0.2-0.095,0.42-0.143,0.66-0.143   c0.305,0,0.567,0.058,0.788,0.172c0.22,0.115,0.402,0.268,0.547,0.458s0.252,0.411,0.323,0.664c0.07,0.253,0.105,0.517,0.105,0.792   c0,0.26-0.035,0.51-0.105,0.75c-0.07,0.24-0.176,0.453-0.319,0.638c-0.143,0.185-0.32,0.333-0.533,0.442   c-0.212,0.11-0.461,0.165-0.746,0.165c-0.24,0-0.461-0.049-0.664-0.146c-0.203-0.098-0.369-0.241-0.499-0.431H9.794v1.837H8.729   v-5.235H9.742z M11.125,17.086c0.117-0.07,0.212-0.161,0.285-0.273c0.072-0.113,0.124-0.244,0.154-0.394   c0.03-0.15,0.045-0.302,0.045-0.458c0-0.155-0.017-0.307-0.049-0.457c-0.033-0.15-0.086-0.284-0.161-0.401   c-0.075-0.118-0.171-0.212-0.289-0.285c-0.117-0.072-0.261-0.109-0.431-0.109c-0.175,0-0.321,0.037-0.439,0.109   c-0.117,0.073-0.212,0.167-0.285,0.281c-0.073,0.115-0.124,0.248-0.154,0.397c-0.03,0.15-0.045,0.305-0.045,0.465   c0,0.155,0.016,0.308,0.049,0.458c0.032,0.15,0.085,0.281,0.157,0.394c0.072,0.112,0.169,0.204,0.289,0.273   c0.12,0.07,0.265,0.105,0.435,0.105C10.862,17.192,11.008,17.157,11.125,17.086z"/>
	<path d="M13.342,13.412v-0.877h1.065v0.877H13.342z M14.407,14.012v3.877h-1.065v-3.877H14.407z"/>
	<path d="M17.377,14.012v0.712h-0.78v1.92c0,0.18,0.03,0.3,0.09,0.36c0.06,0.06,0.18,0.09,0.36,0.09c0.06,0,0.117-0.002,0.172-0.008   c0.055-0.005,0.107-0.012,0.158-0.022v0.825c-0.09,0.015-0.19,0.025-0.3,0.03c-0.11,0.005-0.217,0.008-0.322,0.008   c-0.165,0-0.321-0.011-0.469-0.034s-0.278-0.066-0.39-0.131s-0.201-0.158-0.266-0.277c-0.065-0.12-0.098-0.278-0.098-0.473v-2.288   h-0.645v-0.712h0.645v-1.163h1.065v1.163H17.377z"/>
	<path d="M17.842,15.204c0.015-0.25,0.078-0.458,0.188-0.623s0.25-0.297,0.42-0.397s0.361-0.171,0.574-0.214   c0.213-0.042,0.426-0.063,0.642-0.063c0.195,0,0.393,0.014,0.592,0.041c0.2,0.028,0.383,0.082,0.547,0.162   c0.165,0.08,0.3,0.191,0.405,0.333s0.157,0.332,0.157,0.566v2.018c0,0.175,0.01,0.342,0.03,0.502s0.055,0.28,0.105,0.36h-1.08   c-0.02-0.06-0.036-0.121-0.049-0.184c-0.012-0.062-0.021-0.126-0.026-0.191c-0.17,0.175-0.37,0.297-0.6,0.368   c-0.23,0.07-0.465,0.105-0.705,0.105c-0.185,0-0.357-0.022-0.518-0.068c-0.16-0.045-0.3-0.115-0.42-0.21   c-0.12-0.095-0.214-0.215-0.281-0.36s-0.101-0.317-0.101-0.518c0-0.22,0.039-0.401,0.116-0.543c0.077-0.143,0.177-0.256,0.3-0.341   s0.263-0.149,0.42-0.191c0.158-0.042,0.316-0.076,0.477-0.101c0.16-0.025,0.317-0.045,0.472-0.06s0.292-0.038,0.413-0.067   c0.12-0.03,0.215-0.074,0.285-0.131c0.07-0.058,0.102-0.141,0.097-0.251c0-0.115-0.019-0.206-0.056-0.273   c-0.038-0.068-0.087-0.12-0.15-0.158s-0.135-0.062-0.217-0.075c-0.083-0.012-0.171-0.019-0.267-0.019   c-0.21,0-0.375,0.045-0.495,0.135c-0.12,0.09-0.19,0.24-0.21,0.45H17.842z M20.302,15.992c-0.045,0.04-0.101,0.071-0.168,0.094   s-0.14,0.041-0.218,0.056s-0.159,0.028-0.244,0.038c-0.085,0.01-0.17,0.022-0.255,0.038c-0.08,0.015-0.159,0.035-0.236,0.06   c-0.078,0.025-0.145,0.059-0.203,0.101s-0.104,0.096-0.139,0.161s-0.052,0.147-0.052,0.248c0,0.095,0.017,0.175,0.052,0.24   s0.083,0.116,0.143,0.153c0.06,0.038,0.13,0.064,0.21,0.079c0.08,0.015,0.163,0.022,0.248,0.022c0.21,0,0.373-0.035,0.487-0.105   c0.115-0.07,0.2-0.154,0.255-0.251c0.055-0.097,0.088-0.196,0.101-0.296c0.012-0.1,0.019-0.18,0.019-0.24V15.992z"/>
	<path d="M23.287,12.534v5.355h-1.065v-5.355H23.287z"/>
</g>
<g>
	<path d="M55.785,163.129l1.89,4.819h-0.493l-0.587-1.498h-2.194l-0.581,1.498h-0.486l1.938-4.819H55.785z M56.439,166.058   l-0.932-2.47l-0.965,2.47H56.439z"/>
	<path d="M58.346,166.798c0.043,0.164,0.111,0.311,0.206,0.441c0.094,0.131,0.214,0.238,0.358,0.324   c0.144,0.086,0.317,0.129,0.52,0.129c0.311,0,0.554-0.082,0.729-0.244s0.297-0.377,0.364-0.647h0.425   c-0.09,0.396-0.255,0.702-0.496,0.918s-0.582,0.324-1.022,0.324c-0.274,0-0.512-0.049-0.712-0.146   c-0.201-0.097-0.364-0.229-0.49-0.398c-0.126-0.168-0.219-0.364-0.28-0.587c-0.061-0.223-0.091-0.458-0.091-0.706   c0-0.229,0.03-0.453,0.091-0.674c0.061-0.221,0.154-0.418,0.28-0.592c0.126-0.172,0.289-0.312,0.49-0.418   c0.2-0.105,0.438-0.158,0.712-0.158c0.279,0,0.518,0.057,0.715,0.168c0.198,0.113,0.359,0.26,0.483,0.443   c0.124,0.182,0.212,0.391,0.267,0.627c0.054,0.236,0.076,0.477,0.067,0.719h-2.68C58.282,166.475,58.304,166.634,58.346,166.798z    M60.452,165.498c-0.052-0.148-0.125-0.28-0.219-0.396c-0.094-0.114-0.209-0.207-0.344-0.276c-0.135-0.069-0.288-0.104-0.459-0.104   c-0.175,0-0.331,0.035-0.466,0.104c-0.135,0.069-0.25,0.162-0.344,0.276c-0.094,0.115-0.17,0.248-0.226,0.398   c-0.056,0.151-0.093,0.305-0.111,0.463h2.254C60.532,165.802,60.504,165.646,60.452,165.498z"/>
	<path d="M61.927,164.466v0.816h0.014c0.108-0.283,0.275-0.502,0.503-0.654c0.227-0.154,0.498-0.224,0.813-0.21v0.425   c-0.194-0.008-0.369,0.018-0.527,0.078c-0.157,0.061-0.293,0.147-0.408,0.26c-0.115,0.113-0.204,0.246-0.267,0.402   c-0.063,0.154-0.095,0.324-0.095,0.509v1.856h-0.425v-3.482H61.927z"/>
	<path d="M65.717,164.513c0.205,0.099,0.376,0.231,0.516,0.398c0.14,0.166,0.245,0.361,0.317,0.584   c0.072,0.223,0.108,0.459,0.108,0.711c0,0.253-0.036,0.49-0.108,0.713c-0.072,0.223-0.178,0.418-0.317,0.584   s-0.312,0.298-0.516,0.395c-0.205,0.097-0.44,0.146-0.706,0.146s-0.5-0.049-0.706-0.146c-0.205-0.097-0.377-0.229-0.516-0.395   c-0.14-0.166-0.245-0.361-0.317-0.584c-0.072-0.223-0.108-0.46-0.108-0.713c0-0.252,0.036-0.488,0.108-0.711   c0.072-0.223,0.178-0.418,0.317-0.584c0.139-0.167,0.312-0.3,0.516-0.398c0.205-0.1,0.44-0.148,0.706-0.148   S65.512,164.413,65.717,164.513z M64.479,164.851c-0.153,0.085-0.28,0.197-0.381,0.337s-0.178,0.298-0.229,0.476   s-0.078,0.359-0.078,0.543c0,0.186,0.026,0.366,0.078,0.544s0.128,0.337,0.229,0.476c0.101,0.141,0.229,0.252,0.381,0.338   s0.331,0.129,0.533,0.129s0.38-0.043,0.533-0.129s0.28-0.197,0.381-0.338c0.102-0.139,0.178-0.298,0.229-0.476   s0.078-0.358,0.078-0.544c0-0.184-0.026-0.365-0.078-0.543s-0.128-0.336-0.229-0.476c-0.101-0.14-0.229-0.252-0.381-0.337   c-0.153-0.086-0.331-0.129-0.533-0.129S64.631,164.765,64.479,164.851z"/>
	<path d="M69.298,165.144c-0.049-0.097-0.116-0.176-0.199-0.24c-0.083-0.062-0.179-0.108-0.287-0.138s-0.223-0.044-0.344-0.044   c-0.095,0-0.19,0.01-0.287,0.03s-0.186,0.054-0.267,0.102c-0.081,0.047-0.146,0.108-0.196,0.186   c-0.049,0.077-0.074,0.171-0.074,0.283c0,0.095,0.024,0.175,0.071,0.239c0.047,0.066,0.107,0.121,0.179,0.166   c0.072,0.045,0.15,0.082,0.236,0.111c0.085,0.029,0.164,0.053,0.236,0.07l0.567,0.129c0.122,0.018,0.242,0.051,0.361,0.098   s0.225,0.109,0.317,0.186s0.167,0.172,0.226,0.283c0.059,0.113,0.088,0.246,0.088,0.398c0,0.189-0.043,0.35-0.128,0.482   s-0.195,0.241-0.327,0.324c-0.133,0.084-0.283,0.143-0.449,0.18c-0.167,0.035-0.331,0.054-0.493,0.054   c-0.409,0-0.741-0.097-0.996-0.29s-0.399-0.504-0.435-0.932h0.425c0.018,0.287,0.123,0.505,0.314,0.65   c0.191,0.146,0.429,0.221,0.712,0.221c0.104,0,0.21-0.012,0.32-0.034s0.213-0.062,0.307-0.114c0.095-0.055,0.172-0.123,0.233-0.207   c0.061-0.082,0.091-0.186,0.091-0.307c0-0.104-0.021-0.189-0.064-0.26c-0.043-0.07-0.101-0.129-0.172-0.176   s-0.154-0.086-0.247-0.118c-0.092-0.031-0.186-0.058-0.28-0.081l-0.547-0.121c-0.14-0.036-0.268-0.078-0.385-0.125   s-0.219-0.105-0.307-0.176c-0.088-0.069-0.156-0.154-0.206-0.256c-0.049-0.102-0.074-0.227-0.074-0.375   c0-0.176,0.04-0.326,0.118-0.452s0.181-0.228,0.307-0.304s0.267-0.133,0.422-0.169s0.31-0.054,0.462-0.054   c0.176,0,0.339,0.022,0.489,0.067c0.151,0.045,0.284,0.114,0.398,0.209s0.206,0.212,0.273,0.351   c0.067,0.141,0.105,0.305,0.115,0.493h-0.425C69.375,165.354,69.347,165.24,69.298,165.144z"/>
	<path d="M70.931,164.466v0.661h0.014c0.099-0.243,0.26-0.431,0.482-0.563s0.476-0.199,0.759-0.199c0.266,0,0.497,0.049,0.692,0.148   c0.196,0.099,0.359,0.232,0.49,0.401c0.13,0.169,0.227,0.364,0.29,0.587s0.095,0.459,0.095,0.705c0,0.248-0.032,0.483-0.095,0.706   s-0.16,0.419-0.29,0.587c-0.131,0.169-0.294,0.302-0.49,0.398c-0.195,0.097-0.426,0.146-0.692,0.146   c-0.126,0-0.252-0.017-0.378-0.048s-0.243-0.078-0.351-0.142c-0.108-0.062-0.204-0.142-0.287-0.235   c-0.083-0.096-0.147-0.205-0.192-0.332h-0.014v1.945H70.54v-4.766H70.931z M73.263,165.67c-0.042-0.178-0.11-0.336-0.202-0.476   c-0.092-0.14-0.21-0.254-0.354-0.341c-0.144-0.088-0.317-0.132-0.52-0.132c-0.234,0-0.43,0.041-0.587,0.121   c-0.158,0.082-0.284,0.189-0.378,0.324c-0.095,0.135-0.161,0.293-0.199,0.473c-0.039,0.18-0.058,0.369-0.058,0.566   c0,0.181,0.021,0.359,0.064,0.537c0.042,0.178,0.112,0.336,0.209,0.477c0.097,0.139,0.223,0.252,0.378,0.34s0.346,0.133,0.57,0.133   c0.203,0,0.376-0.045,0.52-0.133s0.262-0.201,0.354-0.34c0.092-0.141,0.16-0.299,0.202-0.477c0.043-0.178,0.064-0.356,0.064-0.537   C73.328,166.026,73.306,165.849,73.263,165.67z"/>
	<path d="M74.502,165.005c0.072-0.148,0.17-0.27,0.293-0.364c0.124-0.095,0.269-0.164,0.436-0.209s0.351-0.067,0.554-0.067   c0.153,0,0.306,0.014,0.459,0.043c0.153,0.029,0.29,0.085,0.412,0.166s0.22,0.195,0.297,0.341c0.077,0.146,0.115,0.337,0.115,0.57   v1.85c0,0.171,0.083,0.257,0.25,0.257c0.049,0,0.094-0.01,0.135-0.027v0.357c-0.049,0.01-0.093,0.016-0.131,0.021   c-0.039,0.005-0.087,0.007-0.146,0.007c-0.108,0-0.194-0.015-0.26-0.044c-0.065-0.029-0.116-0.071-0.152-0.125   s-0.06-0.118-0.071-0.192s-0.017-0.156-0.017-0.246h-0.013c-0.077,0.112-0.154,0.213-0.233,0.301s-0.167,0.16-0.263,0.219   c-0.097,0.059-0.207,0.104-0.331,0.135c-0.124,0.031-0.271,0.048-0.442,0.048c-0.162,0-0.314-0.02-0.456-0.058   c-0.142-0.038-0.266-0.1-0.372-0.182c-0.105-0.084-0.189-0.189-0.25-0.318c-0.061-0.128-0.091-0.279-0.091-0.455   c0-0.243,0.054-0.434,0.162-0.57s0.251-0.242,0.429-0.314c0.178-0.071,0.378-0.122,0.601-0.151s0.449-0.058,0.679-0.085   c0.09-0.008,0.168-0.02,0.236-0.033c0.068-0.014,0.124-0.037,0.169-0.07c0.045-0.034,0.08-0.08,0.104-0.139   c0.025-0.059,0.037-0.135,0.037-0.23c0-0.143-0.023-0.262-0.071-0.354s-0.112-0.166-0.196-0.22c-0.083-0.054-0.18-0.091-0.29-0.111   s-0.229-0.03-0.354-0.03c-0.27,0-0.49,0.064-0.662,0.192c-0.171,0.128-0.261,0.334-0.27,0.618h-0.425   C74.387,165.329,74.43,165.153,74.502,165.005z M76.628,166.045c-0.027,0.05-0.079,0.085-0.155,0.108   c-0.077,0.021-0.144,0.037-0.203,0.047c-0.18,0.031-0.366,0.06-0.557,0.084c-0.191,0.025-0.366,0.062-0.523,0.111   c-0.158,0.05-0.287,0.121-0.388,0.213c-0.101,0.092-0.152,0.225-0.152,0.395c0,0.108,0.021,0.204,0.064,0.287   c0.042,0.084,0.1,0.155,0.172,0.217c0.072,0.061,0.155,0.106,0.25,0.138c0.094,0.032,0.191,0.048,0.29,0.048   c0.162,0,0.317-0.025,0.466-0.074c0.148-0.051,0.278-0.122,0.388-0.217c0.11-0.094,0.198-0.209,0.263-0.344   c0.065-0.135,0.098-0.288,0.098-0.459v-0.554H76.628z"/>
	<path d="M80.051,164.944c-0.158-0.148-0.378-0.223-0.662-0.223c-0.203,0-0.38,0.043-0.533,0.129   c-0.153,0.085-0.28,0.197-0.381,0.337s-0.178,0.298-0.229,0.476s-0.078,0.359-0.078,0.543c0,0.186,0.026,0.366,0.078,0.544   s0.128,0.337,0.229,0.476c0.101,0.141,0.229,0.252,0.381,0.338s0.331,0.129,0.533,0.129c0.13,0,0.254-0.025,0.371-0.074   c0.117-0.051,0.221-0.119,0.311-0.207c0.09-0.088,0.165-0.191,0.223-0.313c0.059-0.122,0.095-0.254,0.108-0.397h0.425   c-0.059,0.422-0.214,0.752-0.466,0.988c-0.252,0.236-0.576,0.354-0.972,0.354c-0.266,0-0.5-0.049-0.706-0.146   c-0.205-0.097-0.377-0.229-0.516-0.395c-0.14-0.166-0.245-0.361-0.317-0.584c-0.072-0.223-0.108-0.46-0.108-0.713   c0-0.252,0.036-0.488,0.108-0.711c0.072-0.223,0.178-0.418,0.317-0.584c0.139-0.167,0.312-0.3,0.516-0.398   c0.205-0.1,0.44-0.148,0.706-0.148c0.374,0,0.689,0.099,0.948,0.297c0.259,0.197,0.413,0.497,0.462,0.897h-0.425   C80.316,165.298,80.208,165.093,80.051,164.944z"/>
	<path d="M81.735,166.798c0.043,0.164,0.111,0.311,0.206,0.441c0.094,0.131,0.214,0.238,0.358,0.324   c0.144,0.086,0.317,0.129,0.52,0.129c0.311,0,0.554-0.082,0.729-0.244s0.297-0.377,0.364-0.647h0.425   c-0.09,0.396-0.255,0.702-0.496,0.918s-0.582,0.324-1.022,0.324c-0.274,0-0.512-0.049-0.712-0.146   c-0.201-0.097-0.364-0.229-0.49-0.398c-0.126-0.168-0.219-0.364-0.28-0.587c-0.061-0.223-0.091-0.458-0.091-0.706   c0-0.229,0.03-0.453,0.091-0.674c0.061-0.221,0.154-0.418,0.28-0.592c0.126-0.172,0.289-0.312,0.49-0.418   c0.2-0.105,0.438-0.158,0.712-0.158c0.279,0,0.518,0.057,0.715,0.168c0.198,0.113,0.359,0.26,0.483,0.443   c0.124,0.182,0.212,0.391,0.267,0.627c0.054,0.236,0.076,0.477,0.067,0.719h-2.68C81.671,166.475,81.692,166.634,81.735,166.798z    M83.841,165.498c-0.052-0.148-0.125-0.28-0.219-0.396c-0.094-0.114-0.209-0.207-0.344-0.276c-0.135-0.069-0.288-0.104-0.459-0.104   c-0.175,0-0.331,0.035-0.466,0.104c-0.135,0.069-0.25,0.162-0.344,0.276c-0.094,0.115-0.17,0.248-0.226,0.398   c-0.056,0.151-0.093,0.305-0.111,0.463h2.254C83.921,165.802,83.893,165.646,83.841,165.498z"/>
</g>
<g>
	<path d="M94.584,163.129v2.093h2.862v-2.093h0.459v4.819h-0.459v-2.336h-2.862v2.336h-0.459v-4.819H94.584z"/>
	<path d="M99.11,166.798c0.043,0.164,0.111,0.311,0.206,0.441c0.094,0.131,0.214,0.238,0.358,0.324   c0.144,0.086,0.317,0.129,0.52,0.129c0.311,0,0.554-0.082,0.729-0.244s0.297-0.377,0.364-0.647h0.425   c-0.09,0.396-0.255,0.702-0.496,0.918s-0.582,0.324-1.022,0.324c-0.274,0-0.512-0.049-0.712-0.146   c-0.201-0.097-0.364-0.229-0.49-0.398c-0.126-0.168-0.219-0.364-0.28-0.587c-0.061-0.223-0.091-0.458-0.091-0.706   c0-0.229,0.03-0.453,0.091-0.674c0.061-0.221,0.154-0.418,0.28-0.592c0.126-0.172,0.289-0.312,0.49-0.418   c0.2-0.105,0.438-0.158,0.712-0.158c0.279,0,0.518,0.057,0.715,0.168c0.198,0.113,0.359,0.26,0.483,0.443   c0.124,0.182,0.212,0.391,0.267,0.627c0.054,0.236,0.076,0.477,0.067,0.719h-2.68C99.046,166.475,99.067,166.634,99.11,166.798z    M101.216,165.498c-0.052-0.148-0.125-0.28-0.219-0.396c-0.094-0.114-0.209-0.207-0.344-0.276   c-0.135-0.069-0.288-0.104-0.459-0.104c-0.175,0-0.331,0.035-0.466,0.104c-0.135,0.069-0.25,0.162-0.344,0.276   c-0.094,0.115-0.17,0.248-0.226,0.398c-0.056,0.151-0.093,0.305-0.111,0.463h2.254   C101.296,165.802,101.268,165.646,101.216,165.498z"/>
	<path d="M102.387,165.005c0.072-0.148,0.17-0.27,0.293-0.364c0.124-0.095,0.269-0.164,0.436-0.209s0.351-0.067,0.554-0.067   c0.153,0,0.306,0.014,0.459,0.043c0.153,0.029,0.29,0.085,0.412,0.166s0.22,0.195,0.297,0.341c0.077,0.146,0.115,0.337,0.115,0.57   v1.85c0,0.171,0.083,0.257,0.25,0.257c0.049,0,0.094-0.01,0.135-0.027v0.357c-0.049,0.01-0.093,0.016-0.131,0.021   c-0.039,0.005-0.087,0.007-0.146,0.007c-0.108,0-0.194-0.015-0.26-0.044c-0.065-0.029-0.116-0.071-0.152-0.125   s-0.06-0.118-0.071-0.192s-0.017-0.156-0.017-0.246h-0.013c-0.077,0.112-0.154,0.213-0.233,0.301s-0.167,0.16-0.263,0.219   c-0.097,0.059-0.207,0.104-0.331,0.135c-0.124,0.031-0.271,0.048-0.442,0.048c-0.162,0-0.314-0.02-0.456-0.058   c-0.142-0.038-0.266-0.1-0.372-0.182c-0.105-0.084-0.189-0.189-0.25-0.318c-0.061-0.128-0.091-0.279-0.091-0.455   c0-0.243,0.054-0.434,0.162-0.57s0.251-0.242,0.429-0.314c0.178-0.071,0.378-0.122,0.601-0.151s0.449-0.058,0.679-0.085   c0.09-0.008,0.168-0.02,0.236-0.033c0.068-0.014,0.124-0.037,0.169-0.07c0.045-0.034,0.08-0.08,0.104-0.139   c0.025-0.059,0.037-0.135,0.037-0.23c0-0.143-0.023-0.262-0.071-0.354s-0.112-0.166-0.196-0.22c-0.083-0.054-0.18-0.091-0.29-0.111   s-0.229-0.03-0.354-0.03c-0.27,0-0.49,0.064-0.662,0.192c-0.171,0.128-0.261,0.334-0.27,0.618h-0.425   C102.272,165.329,102.315,165.153,102.387,165.005z M104.514,166.045c-0.027,0.05-0.079,0.085-0.155,0.108   c-0.077,0.021-0.144,0.037-0.203,0.047c-0.18,0.031-0.366,0.06-0.557,0.084c-0.191,0.025-0.366,0.062-0.523,0.111   c-0.158,0.05-0.287,0.121-0.388,0.213c-0.101,0.092-0.152,0.225-0.152,0.395c0,0.108,0.021,0.204,0.064,0.287   c0.042,0.084,0.1,0.155,0.172,0.217c0.072,0.061,0.155,0.106,0.25,0.138c0.094,0.032,0.191,0.048,0.29,0.048   c0.162,0,0.317-0.025,0.466-0.074c0.148-0.051,0.278-0.122,0.388-0.217c0.11-0.094,0.198-0.209,0.263-0.344   c0.065-0.135,0.098-0.288,0.098-0.459v-0.554H104.514z"/>
	<path d="M106.235,163.129v4.819h-0.425v-4.819H106.235z"/>
	<path d="M108.436,164.466v0.357h-0.709v2.349c0,0.14,0.02,0.249,0.058,0.327c0.038,0.079,0.134,0.123,0.287,0.132   c0.121,0,0.243-0.007,0.364-0.021v0.357c-0.063,0-0.126,0.003-0.189,0.008c-0.062,0.004-0.126,0.006-0.188,0.006   c-0.283,0-0.481-0.055-0.594-0.165c-0.113-0.11-0.167-0.313-0.162-0.61v-2.383h-0.608v-0.357h0.608v-1.047h0.425v1.047H108.436z"/>
	<path d="M109.469,163.129v1.937h0.013c0.081-0.211,0.226-0.381,0.433-0.51c0.207-0.127,0.434-0.191,0.682-0.191   c0.243,0,0.446,0.031,0.61,0.094c0.165,0.063,0.296,0.152,0.396,0.268c0.099,0.114,0.169,0.255,0.209,0.422   c0.04,0.166,0.061,0.354,0.061,0.56v2.241h-0.425v-2.174c0-0.148-0.014-0.287-0.041-0.415c-0.026-0.128-0.074-0.239-0.142-0.334   s-0.158-0.169-0.273-0.223c-0.114-0.054-0.258-0.081-0.429-0.081s-0.322,0.03-0.455,0.092c-0.133,0.061-0.246,0.144-0.338,0.249   c-0.092,0.106-0.164,0.231-0.216,0.378s-0.08,0.305-0.084,0.477v2.031h-0.426v-4.819H109.469z"/>
	<path d="M116.684,164.944c-0.157-0.148-0.378-0.223-0.661-0.223c-0.203,0-0.381,0.043-0.533,0.129   c-0.153,0.085-0.28,0.197-0.382,0.337c-0.101,0.14-0.178,0.298-0.229,0.476s-0.077,0.359-0.077,0.543   c0,0.186,0.025,0.366,0.077,0.544s0.129,0.337,0.229,0.476c0.102,0.141,0.229,0.252,0.382,0.338   c0.152,0.086,0.33,0.129,0.533,0.129c0.13,0,0.254-0.025,0.371-0.074c0.117-0.051,0.221-0.119,0.311-0.207s0.164-0.191,0.223-0.313   s0.095-0.254,0.108-0.397h0.425c-0.059,0.422-0.214,0.752-0.466,0.988s-0.576,0.354-0.972,0.354c-0.266,0-0.501-0.049-0.706-0.146   c-0.204-0.097-0.377-0.229-0.516-0.395c-0.14-0.166-0.245-0.361-0.317-0.584s-0.108-0.46-0.108-0.713   c0-0.252,0.036-0.488,0.108-0.711s0.178-0.418,0.317-0.584c0.139-0.167,0.312-0.3,0.516-0.398c0.205-0.1,0.44-0.148,0.706-0.148   c0.373,0,0.689,0.099,0.948,0.297c0.259,0.197,0.413,0.497,0.462,0.897h-0.425C116.949,165.298,116.841,165.093,116.684,164.944z"/>
	<path d="M118.142,165.005c0.072-0.148,0.17-0.27,0.294-0.364s0.269-0.164,0.436-0.209c0.166-0.045,0.351-0.067,0.554-0.067   c0.152,0,0.306,0.014,0.459,0.043c0.152,0.029,0.29,0.085,0.411,0.166c0.122,0.081,0.221,0.195,0.297,0.341   c0.077,0.146,0.115,0.337,0.115,0.57v1.85c0,0.171,0.083,0.257,0.25,0.257c0.049,0,0.094-0.01,0.135-0.027v0.357   c-0.05,0.01-0.094,0.016-0.132,0.021s-0.087,0.007-0.146,0.007c-0.107,0-0.194-0.015-0.26-0.044   c-0.064-0.029-0.115-0.071-0.151-0.125s-0.06-0.118-0.071-0.192c-0.011-0.074-0.017-0.156-0.017-0.246h-0.014   c-0.076,0.112-0.154,0.213-0.232,0.301c-0.079,0.088-0.167,0.16-0.264,0.219s-0.207,0.104-0.331,0.135   c-0.123,0.031-0.271,0.048-0.441,0.048c-0.162,0-0.314-0.02-0.456-0.058s-0.266-0.1-0.371-0.182   c-0.105-0.084-0.189-0.189-0.25-0.318c-0.061-0.128-0.091-0.279-0.091-0.455c0-0.243,0.054-0.434,0.162-0.57   c0.107-0.137,0.251-0.242,0.429-0.314c0.178-0.071,0.378-0.122,0.601-0.151s0.449-0.058,0.679-0.085   c0.09-0.008,0.168-0.02,0.235-0.033c0.068-0.014,0.124-0.037,0.169-0.07c0.045-0.034,0.08-0.08,0.104-0.139   c0.025-0.059,0.037-0.135,0.037-0.23c0-0.143-0.023-0.262-0.07-0.354c-0.048-0.092-0.112-0.166-0.196-0.22   c-0.083-0.054-0.18-0.091-0.29-0.111s-0.229-0.03-0.354-0.03c-0.27,0-0.49,0.064-0.661,0.192s-0.261,0.334-0.271,0.618h-0.425   C118.027,165.329,118.07,165.153,118.142,165.005z M120.269,166.045c-0.027,0.05-0.079,0.085-0.155,0.108   c-0.077,0.021-0.145,0.037-0.203,0.047c-0.18,0.031-0.365,0.06-0.557,0.084c-0.191,0.025-0.365,0.062-0.523,0.111   c-0.157,0.05-0.286,0.121-0.388,0.213s-0.152,0.225-0.152,0.395c0,0.108,0.021,0.204,0.064,0.287   c0.043,0.084,0.101,0.155,0.172,0.217c0.072,0.061,0.155,0.106,0.25,0.138c0.095,0.032,0.191,0.048,0.29,0.048   c0.162,0,0.317-0.025,0.466-0.074c0.148-0.051,0.278-0.122,0.389-0.217c0.109-0.094,0.197-0.209,0.263-0.344   s0.098-0.288,0.098-0.459v-0.554H120.269z"/>
	<path d="M121.949,164.466v0.816h0.014c0.107-0.283,0.275-0.502,0.503-0.654c0.227-0.154,0.498-0.224,0.813-0.21v0.425   c-0.194-0.008-0.369,0.018-0.527,0.078c-0.157,0.061-0.293,0.147-0.408,0.26c-0.114,0.113-0.203,0.246-0.267,0.402   c-0.062,0.154-0.095,0.324-0.095,0.509v1.856h-0.425v-3.482H121.949z"/>
	<path d="M123.876,166.798c0.043,0.164,0.111,0.311,0.206,0.441c0.094,0.131,0.214,0.238,0.357,0.324s0.317,0.129,0.52,0.129   c0.311,0,0.554-0.082,0.729-0.244c0.175-0.162,0.297-0.377,0.364-0.647h0.425c-0.09,0.396-0.255,0.702-0.496,0.918   c-0.24,0.216-0.581,0.324-1.022,0.324c-0.274,0-0.512-0.049-0.712-0.146s-0.363-0.229-0.489-0.398   c-0.126-0.168-0.22-0.364-0.28-0.587s-0.091-0.458-0.091-0.706c0-0.229,0.03-0.453,0.091-0.674s0.154-0.418,0.28-0.592   c0.126-0.172,0.289-0.312,0.489-0.418s0.438-0.158,0.712-0.158c0.279,0,0.518,0.057,0.716,0.168   c0.198,0.113,0.358,0.26,0.482,0.443c0.124,0.182,0.213,0.391,0.267,0.627s0.076,0.477,0.067,0.719h-2.68   C123.812,166.475,123.833,166.634,123.876,166.798z M125.981,165.498c-0.052-0.148-0.124-0.28-0.219-0.396   c-0.095-0.114-0.209-0.207-0.345-0.276c-0.135-0.069-0.288-0.104-0.459-0.104c-0.175,0-0.33,0.035-0.466,0.104   c-0.135,0.069-0.249,0.162-0.344,0.276c-0.095,0.115-0.17,0.248-0.227,0.398c-0.056,0.151-0.093,0.305-0.111,0.463h2.255   C126.062,165.802,126.033,165.646,125.981,165.498z"/>
</g>
<g>
	<path d="M156.462,163.129l1.6,4.226l1.66-4.226h0.675v4.819h-0.459v-4.164h-0.013l-1.647,4.164h-0.432l-1.587-4.164h-0.013v4.164   h-0.459v-4.819H156.462z"/>
	<path d="M161.574,166.798c0.043,0.164,0.111,0.311,0.206,0.441s0.214,0.238,0.358,0.324c0.144,0.086,0.316,0.129,0.52,0.129   c0.311,0,0.554-0.082,0.729-0.244c0.176-0.162,0.297-0.377,0.364-0.647h0.426c-0.09,0.396-0.256,0.702-0.496,0.918   c-0.241,0.216-0.582,0.324-1.022,0.324c-0.274,0-0.512-0.049-0.712-0.146c-0.201-0.097-0.364-0.229-0.49-0.398   c-0.126-0.168-0.219-0.364-0.279-0.587c-0.062-0.223-0.092-0.458-0.092-0.706c0-0.229,0.03-0.453,0.092-0.674   c0.061-0.221,0.153-0.418,0.279-0.592c0.126-0.172,0.289-0.312,0.49-0.418c0.2-0.105,0.438-0.158,0.712-0.158   c0.278,0,0.518,0.057,0.715,0.168c0.198,0.113,0.359,0.26,0.483,0.443c0.123,0.182,0.212,0.391,0.267,0.627   c0.054,0.236,0.076,0.477,0.067,0.719h-2.68C161.511,166.475,161.532,166.634,161.574,166.798z M163.681,165.498   c-0.052-0.148-0.125-0.28-0.22-0.396c-0.094-0.114-0.209-0.207-0.344-0.276s-0.288-0.104-0.459-0.104   c-0.176,0-0.331,0.035-0.466,0.104s-0.25,0.162-0.345,0.276c-0.094,0.115-0.17,0.248-0.226,0.398   c-0.057,0.151-0.094,0.305-0.111,0.463h2.254C163.761,165.802,163.732,165.646,163.681,165.498z"/>
	<path d="M167.438,167.948v-0.662h-0.014c-0.045,0.113-0.111,0.217-0.199,0.311c-0.088,0.096-0.188,0.175-0.301,0.24   s-0.232,0.115-0.36,0.152c-0.129,0.035-0.256,0.054-0.382,0.054c-0.266,0-0.496-0.049-0.691-0.146   c-0.196-0.097-0.359-0.229-0.49-0.398c-0.13-0.168-0.227-0.364-0.29-0.587c-0.062-0.223-0.095-0.458-0.095-0.706   c0-0.246,0.032-0.482,0.095-0.705c0.063-0.223,0.16-0.418,0.29-0.587c0.131-0.169,0.294-0.303,0.49-0.401   c0.195-0.1,0.426-0.148,0.691-0.148c0.131,0,0.258,0.016,0.382,0.047c0.123,0.031,0.239,0.08,0.347,0.145   c0.108,0.066,0.204,0.146,0.287,0.24c0.083,0.095,0.147,0.205,0.192,0.331h0.014v-1.998h0.426v4.819H167.438z M165.105,166.743   c0.042,0.178,0.109,0.336,0.202,0.477c0.092,0.139,0.21,0.252,0.354,0.34c0.144,0.088,0.317,0.133,0.52,0.133   c0.225,0,0.415-0.045,0.57-0.133s0.281-0.201,0.378-0.34c0.097-0.141,0.167-0.299,0.209-0.477c0.043-0.178,0.064-0.356,0.064-0.537   c0-0.18-0.021-0.357-0.064-0.536c-0.042-0.178-0.112-0.336-0.209-0.476s-0.223-0.254-0.378-0.341   c-0.155-0.088-0.346-0.132-0.57-0.132c-0.202,0-0.376,0.044-0.52,0.132c-0.145,0.087-0.263,0.201-0.354,0.341   c-0.093,0.14-0.16,0.298-0.202,0.476c-0.043,0.179-0.064,0.356-0.064,0.536C165.041,166.387,165.062,166.565,165.105,166.743z"/>
	<path d="M169.07,163.129v0.682h-0.425v-0.682H169.07z M169.07,164.466v3.482h-0.425v-3.482H169.07z"/>
	<path d="M169.975,165.005c0.072-0.148,0.17-0.27,0.294-0.364s0.269-0.164,0.436-0.209c0.166-0.045,0.351-0.067,0.554-0.067   c0.152,0,0.306,0.014,0.459,0.043c0.152,0.029,0.29,0.085,0.411,0.166c0.122,0.081,0.221,0.195,0.297,0.341   c0.077,0.146,0.115,0.337,0.115,0.57v1.85c0,0.171,0.083,0.257,0.25,0.257c0.049,0,0.094-0.01,0.135-0.027v0.357   c-0.05,0.01-0.094,0.016-0.132,0.021s-0.087,0.007-0.146,0.007c-0.107,0-0.194-0.015-0.26-0.044   c-0.064-0.029-0.115-0.071-0.151-0.125s-0.06-0.118-0.071-0.192c-0.011-0.074-0.017-0.156-0.017-0.246h-0.014   c-0.076,0.112-0.154,0.213-0.232,0.301c-0.079,0.088-0.167,0.16-0.264,0.219s-0.207,0.104-0.331,0.135   c-0.123,0.031-0.271,0.048-0.441,0.048c-0.162,0-0.314-0.02-0.456-0.058s-0.266-0.1-0.371-0.182   c-0.105-0.084-0.189-0.189-0.25-0.318c-0.061-0.128-0.091-0.279-0.091-0.455c0-0.243,0.054-0.434,0.162-0.57   c0.107-0.137,0.251-0.242,0.429-0.314c0.178-0.071,0.378-0.122,0.601-0.151s0.449-0.058,0.679-0.085   c0.09-0.008,0.168-0.02,0.235-0.033c0.068-0.014,0.124-0.037,0.169-0.07c0.045-0.034,0.08-0.08,0.104-0.139   c0.025-0.059,0.037-0.135,0.037-0.23c0-0.143-0.023-0.262-0.07-0.354c-0.048-0.092-0.112-0.166-0.196-0.22   c-0.083-0.054-0.18-0.091-0.29-0.111s-0.229-0.03-0.354-0.03c-0.27,0-0.49,0.064-0.661,0.192s-0.261,0.334-0.271,0.618h-0.425   C169.86,165.329,169.903,165.153,169.975,165.005z M172.102,166.045c-0.027,0.05-0.079,0.085-0.155,0.108   c-0.077,0.021-0.145,0.037-0.203,0.047c-0.18,0.031-0.365,0.06-0.557,0.084c-0.191,0.025-0.365,0.062-0.523,0.111   c-0.157,0.05-0.286,0.121-0.388,0.213s-0.152,0.225-0.152,0.395c0,0.108,0.021,0.204,0.064,0.287   c0.043,0.084,0.101,0.155,0.172,0.217c0.072,0.061,0.155,0.106,0.25,0.138c0.095,0.032,0.191,0.048,0.29,0.048   c0.162,0,0.317-0.025,0.466-0.074c0.148-0.051,0.278-0.122,0.389-0.217c0.109-0.094,0.197-0.209,0.263-0.344   s0.098-0.288,0.098-0.459v-0.554H172.102z"/>
</g>
<g>
	<path d="M209.604,58.603h0.998l2.062,5.355h-1.005l-0.503-1.417h-2.138l-0.502,1.417h-0.968L209.604,58.603z M209.274,61.828h1.636   l-0.803-2.303h-0.022L209.274,61.828z"/>
	<path d="M212.537,60.08h0.931l0.982,2.978h0.015l0.945-2.978h0.885l-1.388,3.877h-0.96L212.537,60.08z"/>
	<path d="M217.48,62.24c0,0.15,0.021,0.295,0.063,0.435c0.042,0.14,0.106,0.263,0.191,0.368s0.192,0.189,0.322,0.251   s0.285,0.094,0.465,0.094c0.25,0,0.451-0.054,0.604-0.162c0.152-0.107,0.267-0.269,0.342-0.483h0.81   c-0.045,0.21-0.122,0.397-0.232,0.562s-0.242,0.304-0.397,0.416c-0.155,0.113-0.329,0.198-0.521,0.255   c-0.192,0.058-0.394,0.086-0.604,0.086c-0.305,0-0.575-0.05-0.81-0.15c-0.235-0.1-0.435-0.24-0.597-0.42   c-0.162-0.18-0.285-0.395-0.367-0.645c-0.083-0.25-0.124-0.525-0.124-0.825c0-0.275,0.044-0.536,0.131-0.784   c0.088-0.248,0.213-0.465,0.375-0.652c0.163-0.188,0.359-0.336,0.589-0.446c0.23-0.11,0.49-0.165,0.78-0.165   c0.305,0,0.579,0.063,0.821,0.191c0.242,0.127,0.443,0.296,0.604,0.506s0.276,0.452,0.349,0.724   c0.073,0.272,0.092,0.554,0.057,0.844H217.48z M219.475,61.678c-0.01-0.135-0.038-0.265-0.086-0.39s-0.112-0.234-0.195-0.326   c-0.082-0.093-0.183-0.167-0.3-0.225s-0.249-0.086-0.394-0.086c-0.15,0-0.286,0.026-0.409,0.079   c-0.122,0.052-0.228,0.125-0.314,0.217c-0.088,0.093-0.157,0.201-0.21,0.326s-0.081,0.26-0.086,0.405H219.475z"/>
	<path d="M220.982,60.08h0.803v0.75h0.015c0.025-0.105,0.074-0.208,0.146-0.308s0.16-0.191,0.263-0.274   c0.103-0.082,0.216-0.148,0.341-0.199c0.125-0.05,0.253-0.075,0.383-0.075c0.1,0,0.169,0.002,0.206,0.007   c0.037,0.005,0.076,0.01,0.116,0.015v0.825c-0.06-0.01-0.121-0.019-0.184-0.026c-0.062-0.008-0.124-0.011-0.184-0.011   c-0.146,0-0.281,0.029-0.409,0.086c-0.127,0.058-0.238,0.143-0.334,0.255c-0.095,0.112-0.17,0.251-0.225,0.416   s-0.082,0.355-0.082,0.57v1.845h-0.855V60.08z"/>
	<path d="M226.87,63.095c0,0.105,0.014,0.18,0.041,0.225c0.027,0.045,0.081,0.068,0.161,0.068c0.025,0,0.056,0,0.091,0   c0.034,0,0.074-0.005,0.119-0.015v0.592c-0.029,0.01-0.068,0.021-0.116,0.034c-0.047,0.013-0.096,0.024-0.146,0.034   c-0.051,0.01-0.101,0.017-0.15,0.022c-0.05,0.005-0.093,0.007-0.128,0.007c-0.175,0-0.319-0.035-0.435-0.105   s-0.19-0.192-0.225-0.368c-0.171,0.165-0.379,0.285-0.627,0.36c-0.247,0.075-0.486,0.112-0.716,0.112   c-0.175,0-0.343-0.024-0.503-0.071s-0.301-0.117-0.424-0.21c-0.122-0.092-0.22-0.21-0.292-0.353s-0.108-0.309-0.108-0.499   c0-0.24,0.043-0.435,0.131-0.585c0.087-0.15,0.202-0.268,0.345-0.353s0.303-0.146,0.48-0.184c0.177-0.037,0.356-0.066,0.536-0.086   c0.154-0.03,0.303-0.051,0.442-0.064c0.14-0.012,0.264-0.034,0.371-0.063c0.107-0.03,0.192-0.076,0.255-0.139   c0.062-0.062,0.094-0.156,0.094-0.281c0-0.11-0.026-0.2-0.078-0.27c-0.053-0.07-0.118-0.124-0.195-0.161   c-0.078-0.038-0.164-0.062-0.259-0.075c-0.095-0.013-0.186-0.019-0.271-0.019c-0.239,0-0.438,0.05-0.592,0.15   c-0.155,0.1-0.243,0.255-0.263,0.465h-0.855c0.016-0.25,0.075-0.458,0.181-0.623c0.104-0.165,0.238-0.297,0.401-0.397   c0.162-0.1,0.346-0.17,0.551-0.21s0.415-0.06,0.63-0.06c0.19,0,0.378,0.02,0.562,0.06c0.186,0.04,0.352,0.105,0.499,0.195   s0.267,0.206,0.356,0.349s0.135,0.316,0.135,0.521V63.095z M226.015,62.015c-0.13,0.085-0.29,0.136-0.479,0.154   c-0.19,0.018-0.38,0.043-0.57,0.079c-0.09,0.015-0.178,0.036-0.263,0.063c-0.085,0.028-0.159,0.065-0.225,0.113   s-0.116,0.11-0.153,0.188c-0.038,0.078-0.057,0.171-0.057,0.281c0,0.095,0.027,0.175,0.083,0.24   c0.055,0.065,0.121,0.116,0.198,0.154s0.162,0.064,0.255,0.079c0.093,0.015,0.177,0.022,0.251,0.022   c0.096,0,0.198-0.013,0.308-0.038c0.11-0.025,0.214-0.067,0.312-0.127s0.179-0.136,0.244-0.229   c0.064-0.092,0.097-0.206,0.097-0.341V62.015z"/>
	<path d="M231.378,63.755c0,0.585-0.164,1.021-0.491,1.309c-0.328,0.287-0.799,0.431-1.414,0.431c-0.195,0-0.392-0.02-0.589-0.06   s-0.378-0.107-0.54-0.203c-0.162-0.095-0.299-0.22-0.409-0.375c-0.109-0.155-0.175-0.345-0.194-0.57h0.854   c0.025,0.12,0.067,0.217,0.128,0.292c0.06,0.075,0.131,0.134,0.214,0.176c0.082,0.042,0.174,0.07,0.273,0.083   c0.1,0.012,0.205,0.019,0.315,0.019c0.345,0,0.597-0.085,0.757-0.255s0.24-0.415,0.24-0.735v-0.593h-0.015   c-0.12,0.215-0.284,0.383-0.491,0.502c-0.208,0.12-0.432,0.18-0.672,0.18c-0.31,0-0.573-0.054-0.791-0.161s-0.397-0.255-0.54-0.442   s-0.246-0.404-0.312-0.649c-0.064-0.245-0.097-0.507-0.097-0.788c0-0.26,0.039-0.507,0.119-0.743   c0.08-0.235,0.195-0.441,0.346-0.619c0.149-0.177,0.333-0.319,0.551-0.424s0.464-0.157,0.739-0.157c0.244,0,0.47,0.051,0.675,0.154   s0.362,0.264,0.473,0.483h0.015V60.08h0.855V63.755z M229.48,63.283c0.189,0,0.351-0.039,0.483-0.116   c0.133-0.078,0.24-0.18,0.322-0.308c0.083-0.127,0.143-0.272,0.18-0.435c0.038-0.163,0.057-0.326,0.057-0.491   s-0.02-0.325-0.06-0.48c-0.04-0.155-0.102-0.292-0.185-0.413c-0.082-0.12-0.189-0.215-0.322-0.285   c-0.132-0.07-0.291-0.105-0.476-0.105c-0.19,0-0.351,0.04-0.48,0.12s-0.235,0.184-0.315,0.311   c-0.079,0.128-0.137,0.273-0.172,0.435c-0.035,0.163-0.053,0.324-0.053,0.484s0.02,0.316,0.061,0.469   c0.039,0.153,0.101,0.289,0.184,0.409c0.082,0.12,0.188,0.218,0.314,0.292C229.146,63.245,229.3,63.283,229.48,63.283z"/>
	<path d="M232.907,62.24c0,0.15,0.021,0.295,0.063,0.435c0.043,0.14,0.106,0.263,0.191,0.368s0.192,0.189,0.322,0.251   c0.131,0.062,0.285,0.094,0.466,0.094c0.25,0,0.451-0.054,0.604-0.162c0.152-0.107,0.266-0.269,0.341-0.483h0.811   c-0.045,0.21-0.123,0.397-0.232,0.562c-0.11,0.165-0.243,0.304-0.397,0.416c-0.155,0.113-0.329,0.198-0.521,0.255   c-0.192,0.058-0.394,0.086-0.604,0.086c-0.306,0-0.575-0.05-0.811-0.15s-0.434-0.24-0.596-0.42   c-0.163-0.18-0.285-0.395-0.368-0.645c-0.082-0.25-0.123-0.525-0.123-0.825c0-0.275,0.043-0.536,0.131-0.784   c0.087-0.248,0.213-0.465,0.375-0.652s0.358-0.336,0.589-0.446c0.229-0.11,0.49-0.165,0.78-0.165c0.305,0,0.578,0.063,0.821,0.191   c0.242,0.127,0.443,0.296,0.604,0.506s0.276,0.452,0.349,0.724s0.091,0.554,0.056,0.844H232.907z M234.902,61.678   c-0.01-0.135-0.039-0.265-0.086-0.39c-0.048-0.125-0.113-0.234-0.195-0.326c-0.083-0.093-0.183-0.167-0.3-0.225   c-0.118-0.058-0.249-0.086-0.394-0.086c-0.15,0-0.287,0.026-0.409,0.079c-0.123,0.052-0.228,0.125-0.315,0.217   c-0.087,0.093-0.157,0.201-0.21,0.326c-0.052,0.125-0.081,0.26-0.086,0.405H234.902z"/>
	<path d="M210.67,70.377c-0.035-0.24-0.132-0.421-0.289-0.543s-0.356-0.184-0.596-0.184c-0.11,0-0.228,0.019-0.353,0.056   c-0.125,0.038-0.24,0.108-0.346,0.21c-0.104,0.103-0.192,0.245-0.262,0.427c-0.07,0.183-0.105,0.421-0.105,0.716   c0,0.16,0.019,0.32,0.057,0.48c0.037,0.16,0.098,0.303,0.18,0.427c0.082,0.125,0.188,0.227,0.318,0.304   c0.13,0.077,0.288,0.116,0.473,0.116c0.25,0,0.456-0.078,0.619-0.233c0.162-0.155,0.264-0.372,0.304-0.652h0.854   c-0.08,0.505-0.271,0.892-0.573,1.159c-0.303,0.268-0.704,0.401-1.204,0.401c-0.305,0-0.573-0.051-0.806-0.154   s-0.429-0.242-0.589-0.42c-0.16-0.177-0.281-0.389-0.364-0.634c-0.082-0.245-0.123-0.51-0.123-0.795   c0-0.29,0.039-0.562,0.119-0.817c0.08-0.255,0.2-0.477,0.36-0.664s0.358-0.335,0.597-0.442c0.237-0.107,0.516-0.161,0.836-0.161   c0.225,0,0.438,0.029,0.642,0.086c0.202,0.058,0.382,0.144,0.54,0.259c0.157,0.115,0.286,0.26,0.386,0.435   c0.1,0.175,0.16,0.383,0.18,0.623H210.67z"/>
	<path d="M214,73.062c-0.311,0-0.587-0.051-0.829-0.154s-0.447-0.244-0.615-0.424c-0.167-0.18-0.295-0.395-0.382-0.645   c-0.088-0.25-0.132-0.525-0.132-0.825c0-0.295,0.044-0.567,0.132-0.817c0.087-0.25,0.215-0.465,0.382-0.645   c0.168-0.18,0.373-0.321,0.615-0.424s0.519-0.154,0.829-0.154c0.31,0,0.586,0.051,0.828,0.154c0.243,0.103,0.448,0.244,0.615,0.424   c0.168,0.18,0.295,0.395,0.383,0.645c0.087,0.25,0.131,0.522,0.131,0.817c0,0.3-0.044,0.575-0.131,0.825   c-0.088,0.25-0.215,0.465-0.383,0.645c-0.167,0.18-0.372,0.321-0.615,0.424C214.586,73.011,214.31,73.062,214,73.062z M214,72.388   c0.189,0,0.354-0.04,0.495-0.12c0.14-0.08,0.255-0.185,0.345-0.315s0.156-0.276,0.198-0.439c0.043-0.162,0.064-0.329,0.064-0.499   c0-0.165-0.021-0.33-0.064-0.495c-0.042-0.165-0.108-0.311-0.198-0.439c-0.09-0.127-0.205-0.231-0.345-0.311   c-0.141-0.08-0.306-0.12-0.495-0.12c-0.19,0-0.355,0.04-0.495,0.12c-0.141,0.08-0.255,0.184-0.345,0.311   c-0.091,0.128-0.157,0.274-0.199,0.439c-0.043,0.165-0.063,0.33-0.063,0.495c0,0.17,0.021,0.336,0.063,0.499   c0.042,0.163,0.108,0.309,0.199,0.439c0.09,0.13,0.204,0.235,0.345,0.315C213.645,72.348,213.81,72.388,214,72.388z"/>
	<path d="M217.314,71.712c0.025,0.25,0.12,0.425,0.285,0.525c0.165,0.1,0.362,0.15,0.593,0.15c0.079,0,0.171-0.006,0.273-0.019   c0.103-0.012,0.198-0.036,0.289-0.071c0.09-0.035,0.163-0.086,0.221-0.154c0.058-0.067,0.084-0.156,0.079-0.266   c-0.005-0.11-0.045-0.2-0.12-0.27c-0.075-0.07-0.172-0.126-0.289-0.168s-0.251-0.079-0.401-0.109   c-0.149-0.03-0.302-0.062-0.457-0.098c-0.16-0.035-0.313-0.077-0.461-0.127c-0.148-0.05-0.28-0.117-0.397-0.203   c-0.118-0.085-0.212-0.193-0.281-0.326c-0.07-0.132-0.105-0.296-0.105-0.491c0-0.21,0.051-0.386,0.153-0.529   s0.233-0.257,0.391-0.345s0.332-0.149,0.524-0.184c0.192-0.035,0.377-0.052,0.552-0.052c0.2,0,0.391,0.021,0.573,0.063   c0.183,0.043,0.348,0.111,0.495,0.207c0.147,0.095,0.271,0.219,0.368,0.371c0.097,0.153,0.158,0.336,0.184,0.551h-0.893   c-0.04-0.205-0.134-0.342-0.281-0.413c-0.147-0.07-0.316-0.105-0.507-0.105c-0.06,0-0.131,0.005-0.213,0.015   c-0.083,0.01-0.16,0.029-0.233,0.056c-0.072,0.028-0.134,0.067-0.184,0.12c-0.05,0.052-0.074,0.121-0.074,0.206   c0,0.105,0.036,0.19,0.108,0.255s0.167,0.119,0.285,0.161c0.117,0.042,0.251,0.079,0.401,0.109c0.149,0.03,0.305,0.062,0.465,0.097   c0.154,0.035,0.308,0.078,0.457,0.127c0.15,0.05,0.284,0.118,0.401,0.203s0.213,0.192,0.285,0.323   c0.072,0.13,0.108,0.29,0.108,0.48c0,0.23-0.052,0.425-0.157,0.585c-0.104,0.16-0.241,0.29-0.409,0.39   c-0.167,0.1-0.354,0.173-0.559,0.218s-0.407,0.067-0.607,0.067c-0.245,0-0.471-0.027-0.679-0.083   c-0.207-0.055-0.388-0.139-0.54-0.251c-0.152-0.113-0.272-0.252-0.359-0.42c-0.088-0.167-0.134-0.366-0.139-0.596H217.314z"/>
	<path d="M220.172,69.08h0.646v-1.163h0.854v1.163h0.772v0.637h-0.772v2.07c0,0.09,0.004,0.167,0.012,0.232   c0.007,0.065,0.024,0.12,0.052,0.165c0.028,0.045,0.069,0.079,0.124,0.101s0.13,0.034,0.226,0.034c0.06,0,0.119-0.001,0.18-0.003   c0.06-0.002,0.12-0.011,0.18-0.026v0.66c-0.095,0.01-0.188,0.02-0.277,0.03c-0.09,0.01-0.183,0.015-0.277,0.015   c-0.225,0-0.406-0.021-0.544-0.064s-0.245-0.105-0.322-0.188c-0.078-0.083-0.13-0.186-0.157-0.311   c-0.028-0.125-0.044-0.268-0.049-0.428v-2.288h-0.646V69.08z"/>
	<path d="M226.922,73.062c-0.31,0-0.586-0.051-0.828-0.154c-0.243-0.103-0.448-0.244-0.615-0.424   c-0.168-0.18-0.295-0.395-0.383-0.645c-0.088-0.25-0.131-0.525-0.131-0.825c0-0.295,0.043-0.567,0.131-0.817   s0.215-0.465,0.383-0.645c0.167-0.18,0.372-0.321,0.615-0.424c0.242-0.103,0.519-0.154,0.828-0.154   c0.311,0,0.586,0.051,0.829,0.154c0.242,0.103,0.447,0.244,0.615,0.424c0.167,0.18,0.295,0.395,0.382,0.645   c0.088,0.25,0.132,0.522,0.132,0.817c0,0.3-0.044,0.575-0.132,0.825c-0.087,0.25-0.215,0.465-0.382,0.645   c-0.168,0.18-0.373,0.321-0.615,0.424C227.508,73.011,227.232,73.062,226.922,73.062z M226.922,72.388   c0.19,0,0.355-0.04,0.495-0.12s0.255-0.185,0.345-0.315c0.091-0.13,0.156-0.276,0.199-0.439c0.042-0.162,0.063-0.329,0.063-0.499   c0-0.165-0.021-0.33-0.063-0.495c-0.043-0.165-0.108-0.311-0.199-0.439c-0.09-0.127-0.205-0.231-0.345-0.311   s-0.305-0.12-0.495-0.12c-0.189,0-0.354,0.04-0.495,0.12c-0.14,0.08-0.255,0.184-0.345,0.311c-0.09,0.128-0.156,0.274-0.198,0.439   c-0.043,0.165-0.064,0.33-0.064,0.495c0,0.17,0.021,0.336,0.064,0.499c0.042,0.163,0.108,0.309,0.198,0.439   s0.205,0.235,0.345,0.315C226.567,72.348,226.732,72.388,226.922,72.388z"/>
	<path d="M229.209,69.08h0.638v-0.323c0-0.245,0.03-0.443,0.09-0.596c0.061-0.152,0.141-0.27,0.24-0.353s0.214-0.137,0.342-0.165   c0.127-0.027,0.261-0.041,0.4-0.041c0.275,0,0.476,0.018,0.601,0.052v0.668c-0.056-0.015-0.114-0.026-0.177-0.034   c-0.062-0.007-0.136-0.011-0.221-0.011c-0.115,0-0.214,0.028-0.297,0.083c-0.082,0.055-0.123,0.163-0.123,0.323v0.397h0.728v0.637   h-0.728v3.24h-0.855v-3.24h-0.638V69.08z"/>
	<path d="M210.67,79.377c-0.035-0.24-0.132-0.421-0.289-0.543s-0.356-0.184-0.596-0.184c-0.11,0-0.228,0.019-0.353,0.056   c-0.125,0.038-0.24,0.108-0.346,0.21c-0.104,0.103-0.192,0.245-0.262,0.427c-0.07,0.183-0.105,0.421-0.105,0.716   c0,0.16,0.019,0.32,0.057,0.48c0.037,0.16,0.098,0.303,0.18,0.427c0.082,0.125,0.188,0.227,0.318,0.304   c0.13,0.077,0.288,0.116,0.473,0.116c0.25,0,0.456-0.078,0.619-0.233c0.162-0.155,0.264-0.372,0.304-0.652h0.854   c-0.08,0.505-0.271,0.892-0.573,1.159c-0.303,0.268-0.704,0.401-1.204,0.401c-0.305,0-0.573-0.051-0.806-0.154   s-0.429-0.242-0.589-0.42c-0.16-0.177-0.281-0.389-0.364-0.634c-0.082-0.245-0.123-0.51-0.123-0.795   c0-0.29,0.039-0.562,0.119-0.817c0.08-0.255,0.2-0.477,0.36-0.664s0.358-0.335,0.597-0.442c0.237-0.107,0.516-0.161,0.836-0.161   c0.225,0,0.438,0.029,0.642,0.086c0.202,0.058,0.382,0.144,0.54,0.259c0.157,0.115,0.286,0.26,0.386,0.435   c0.1,0.175,0.16,0.383,0.18,0.623H210.67z"/>
	<path d="M215.47,81.095c0,0.105,0.014,0.18,0.041,0.225c0.027,0.045,0.081,0.068,0.161,0.068c0.025,0,0.056,0,0.091,0   c0.034,0,0.074-0.005,0.119-0.015v0.592c-0.029,0.01-0.068,0.021-0.116,0.034c-0.047,0.013-0.096,0.024-0.146,0.034   c-0.051,0.01-0.101,0.017-0.15,0.022c-0.05,0.005-0.093,0.007-0.128,0.007c-0.175,0-0.319-0.035-0.435-0.105   s-0.19-0.192-0.225-0.368c-0.171,0.165-0.379,0.285-0.627,0.36c-0.247,0.075-0.486,0.112-0.716,0.112   c-0.175,0-0.343-0.024-0.503-0.071s-0.301-0.117-0.424-0.21c-0.122-0.092-0.22-0.21-0.292-0.353s-0.108-0.309-0.108-0.499   c0-0.24,0.043-0.435,0.131-0.585c0.087-0.15,0.202-0.268,0.345-0.353s0.303-0.146,0.48-0.184c0.177-0.037,0.356-0.066,0.536-0.086   c0.154-0.03,0.303-0.051,0.442-0.064c0.14-0.012,0.264-0.034,0.371-0.063c0.107-0.03,0.192-0.076,0.255-0.139   c0.062-0.062,0.094-0.156,0.094-0.281c0-0.11-0.026-0.2-0.078-0.27c-0.053-0.07-0.118-0.124-0.195-0.161   c-0.078-0.038-0.164-0.062-0.259-0.075c-0.095-0.013-0.186-0.019-0.271-0.019c-0.239,0-0.438,0.05-0.592,0.15   c-0.155,0.1-0.243,0.255-0.263,0.465h-0.855c0.016-0.25,0.075-0.458,0.181-0.623c0.104-0.165,0.238-0.297,0.401-0.397   c0.162-0.1,0.346-0.17,0.551-0.21s0.415-0.06,0.63-0.06c0.19,0,0.378,0.02,0.562,0.06c0.186,0.04,0.352,0.105,0.499,0.195   s0.267,0.206,0.356,0.349s0.135,0.316,0.135,0.521V81.095z M214.614,80.015c-0.13,0.085-0.29,0.136-0.479,0.154   c-0.19,0.018-0.38,0.043-0.57,0.079c-0.09,0.015-0.178,0.036-0.263,0.063c-0.085,0.028-0.159,0.065-0.225,0.113   s-0.116,0.11-0.153,0.188c-0.038,0.078-0.057,0.171-0.057,0.281c0,0.095,0.027,0.175,0.083,0.24   c0.055,0.065,0.121,0.116,0.198,0.154s0.162,0.064,0.255,0.079c0.093,0.015,0.177,0.022,0.251,0.022   c0.096,0,0.198-0.013,0.308-0.038c0.11-0.025,0.214-0.067,0.312-0.127s0.179-0.136,0.244-0.229   c0.064-0.092,0.097-0.206,0.097-0.341V80.015z"/>
	<path d="M216.415,78.08h0.81v0.525h0.015c0.12-0.225,0.288-0.386,0.503-0.484c0.215-0.097,0.447-0.146,0.697-0.146   c0.305,0,0.571,0.054,0.799,0.161s0.416,0.255,0.566,0.442s0.263,0.406,0.338,0.656c0.074,0.25,0.112,0.518,0.112,0.803   c0,0.26-0.034,0.513-0.102,0.757c-0.067,0.245-0.17,0.461-0.308,0.649s-0.312,0.337-0.521,0.45   c-0.21,0.113-0.457,0.169-0.742,0.169c-0.125,0-0.25-0.011-0.375-0.034s-0.245-0.059-0.36-0.109   c-0.114-0.05-0.221-0.114-0.318-0.191c-0.098-0.078-0.179-0.169-0.244-0.274h-0.015v1.935h-0.854V78.08z M219.399,80.022   c0-0.175-0.022-0.345-0.067-0.51s-0.112-0.312-0.202-0.439s-0.203-0.23-0.338-0.308c-0.135-0.077-0.29-0.116-0.465-0.116   c-0.36,0-0.631,0.125-0.813,0.375s-0.274,0.583-0.274,0.998c0,0.195,0.024,0.376,0.071,0.544c0.048,0.167,0.119,0.311,0.214,0.431   s0.209,0.215,0.342,0.285c0.132,0.07,0.286,0.105,0.461,0.105c0.195,0,0.36-0.04,0.495-0.12s0.246-0.184,0.334-0.312   c0.087-0.127,0.149-0.272,0.188-0.435C219.381,80.359,219.399,80.192,219.399,80.022z"/>
	<path d="M220.997,76.603h0.855v0.81h-0.855V76.603z M220.997,78.08h0.855v3.877h-0.855V78.08z"/>
	<path d="M222.393,78.08h0.645v-1.163h0.855v1.163h0.772v0.637h-0.772v2.07c0,0.09,0.004,0.167,0.011,0.232   c0.008,0.065,0.025,0.12,0.053,0.165s0.068,0.079,0.124,0.101c0.055,0.022,0.13,0.034,0.225,0.034c0.061,0,0.12-0.001,0.18-0.003   c0.061-0.002,0.12-0.011,0.181-0.026v0.66c-0.096,0.01-0.188,0.02-0.277,0.03c-0.091,0.01-0.183,0.015-0.278,0.015   c-0.225,0-0.406-0.021-0.543-0.064c-0.138-0.042-0.245-0.105-0.323-0.188c-0.077-0.083-0.13-0.186-0.157-0.311   s-0.044-0.268-0.049-0.428v-2.288h-0.645V78.08z"/>
	<path d="M228.527,81.095c0,0.105,0.014,0.18,0.041,0.225c0.027,0.045,0.081,0.068,0.161,0.068c0.025,0,0.056,0,0.091,0   c0.034,0,0.074-0.005,0.119-0.015v0.592c-0.029,0.01-0.068,0.021-0.116,0.034c-0.047,0.013-0.096,0.024-0.146,0.034   c-0.051,0.01-0.101,0.017-0.15,0.022c-0.05,0.005-0.093,0.007-0.128,0.007c-0.175,0-0.319-0.035-0.435-0.105   s-0.19-0.192-0.225-0.368c-0.171,0.165-0.379,0.285-0.627,0.36c-0.247,0.075-0.486,0.112-0.716,0.112   c-0.175,0-0.343-0.024-0.503-0.071s-0.301-0.117-0.424-0.21c-0.122-0.092-0.22-0.21-0.292-0.353s-0.108-0.309-0.108-0.499   c0-0.24,0.043-0.435,0.131-0.585c0.087-0.15,0.202-0.268,0.345-0.353s0.303-0.146,0.48-0.184c0.177-0.037,0.356-0.066,0.536-0.086   c0.154-0.03,0.303-0.051,0.442-0.064c0.14-0.012,0.264-0.034,0.371-0.063c0.107-0.03,0.192-0.076,0.255-0.139   c0.062-0.062,0.094-0.156,0.094-0.281c0-0.11-0.026-0.2-0.078-0.27c-0.053-0.07-0.118-0.124-0.195-0.161   c-0.078-0.038-0.164-0.062-0.259-0.075c-0.095-0.013-0.186-0.019-0.271-0.019c-0.239,0-0.438,0.05-0.592,0.15   c-0.155,0.1-0.243,0.255-0.263,0.465h-0.855c0.016-0.25,0.075-0.458,0.181-0.623c0.104-0.165,0.238-0.297,0.401-0.397   c0.162-0.1,0.346-0.17,0.551-0.21s0.415-0.06,0.63-0.06c0.19,0,0.378,0.02,0.562,0.06c0.186,0.04,0.352,0.105,0.499,0.195   s0.267,0.206,0.356,0.349s0.135,0.316,0.135,0.521V81.095z M227.672,80.015c-0.13,0.085-0.29,0.136-0.479,0.154   c-0.19,0.018-0.38,0.043-0.57,0.079c-0.09,0.015-0.178,0.036-0.263,0.063c-0.085,0.028-0.159,0.065-0.225,0.113   s-0.116,0.11-0.153,0.188c-0.038,0.078-0.057,0.171-0.057,0.281c0,0.095,0.027,0.175,0.083,0.24   c0.055,0.065,0.121,0.116,0.198,0.154s0.162,0.064,0.255,0.079c0.093,0.015,0.177,0.022,0.251,0.022   c0.096,0,0.198-0.013,0.308-0.038c0.11-0.025,0.214-0.067,0.312-0.127s0.179-0.136,0.244-0.229   c0.064-0.092,0.097-0.206,0.097-0.341V80.015z"/>
	<path d="M229.473,76.603h0.854v5.355h-0.854V76.603z"/>
</g>
<g>
	<g>
		<path d="M221.547,163.219c0.255,0,0.487,0.022,0.697,0.067s0.39,0.119,0.54,0.222c0.149,0.103,0.266,0.238,0.349,0.408    c0.082,0.171,0.124,0.381,0.124,0.631c0,0.27-0.062,0.494-0.184,0.675c-0.123,0.18-0.305,0.327-0.544,0.442    c0.33,0.095,0.576,0.262,0.738,0.499c0.163,0.237,0.244,0.523,0.244,0.858c0,0.27-0.053,0.504-0.157,0.701    c-0.105,0.197-0.247,0.359-0.424,0.483c-0.178,0.125-0.381,0.218-0.607,0.278c-0.229,0.06-0.462,0.09-0.702,0.09h-2.595v-5.355    H221.547z M221.396,165.387c0.21,0,0.383-0.05,0.518-0.15c0.135-0.1,0.202-0.263,0.202-0.487c0-0.125-0.022-0.228-0.067-0.308    s-0.104-0.143-0.18-0.188s-0.161-0.076-0.259-0.094s-0.199-0.026-0.304-0.026h-1.103v1.253H221.396z M221.464,167.659    c0.115,0,0.226-0.012,0.33-0.034c0.105-0.022,0.197-0.06,0.277-0.112s0.144-0.124,0.191-0.214s0.071-0.205,0.071-0.345    c0-0.275-0.077-0.472-0.232-0.589s-0.36-0.176-0.615-0.176h-1.282v1.47H221.464z"/>
		<path d="M225.334,167.644c0.16,0.155,0.39,0.233,0.689,0.233c0.215,0,0.4-0.054,0.556-0.162c0.154-0.107,0.25-0.221,0.285-0.341    h0.938c-0.15,0.465-0.381,0.798-0.69,0.997c-0.311,0.2-0.686,0.301-1.125,0.301c-0.305,0-0.58-0.049-0.825-0.146    s-0.452-0.236-0.622-0.416c-0.17-0.181-0.302-0.396-0.394-0.646c-0.093-0.25-0.14-0.524-0.14-0.825c0-0.29,0.048-0.56,0.143-0.81    c0.096-0.25,0.23-0.466,0.405-0.648s0.384-0.327,0.626-0.432c0.243-0.105,0.512-0.157,0.807-0.157c0.33,0,0.617,0.063,0.862,0.191    c0.245,0.127,0.446,0.299,0.604,0.514c0.158,0.215,0.271,0.46,0.342,0.734c0.07,0.275,0.095,0.562,0.075,0.862h-2.798    C225.086,167.239,225.174,167.489,225.334,167.644z M226.537,165.604c-0.127-0.14-0.321-0.21-0.581-0.21    c-0.17,0-0.311,0.029-0.424,0.087c-0.112,0.058-0.202,0.129-0.27,0.214s-0.115,0.175-0.143,0.27s-0.044,0.18-0.049,0.255h1.732    C226.754,165.949,226.665,165.744,226.537,165.604z"/>
		<path d="M230.629,164.696v0.713h-0.78v1.92c0,0.18,0.03,0.3,0.09,0.36c0.06,0.06,0.18,0.09,0.36,0.09    c0.06,0,0.117-0.003,0.172-0.008c0.056-0.005,0.107-0.013,0.158-0.022v0.825c-0.091,0.015-0.19,0.024-0.301,0.029    c-0.109,0.006-0.217,0.008-0.322,0.008c-0.165,0-0.321-0.011-0.469-0.033s-0.277-0.066-0.39-0.132    c-0.112-0.064-0.201-0.157-0.267-0.277c-0.064-0.12-0.098-0.277-0.098-0.473v-2.287h-0.645v-0.713h0.645v-1.162h1.065v1.162    H230.629z"/>
		<path d="M231.094,165.889c0.015-0.25,0.077-0.457,0.188-0.622c0.109-0.165,0.25-0.298,0.42-0.397    c0.17-0.101,0.361-0.171,0.573-0.214c0.213-0.042,0.427-0.063,0.642-0.063c0.195,0,0.393,0.014,0.593,0.041    s0.383,0.081,0.547,0.161c0.165,0.08,0.301,0.191,0.405,0.334c0.105,0.143,0.157,0.331,0.157,0.566v2.018    c0,0.175,0.011,0.342,0.03,0.502c0.021,0.16,0.055,0.28,0.105,0.36h-1.08c-0.021-0.061-0.036-0.121-0.049-0.184    s-0.021-0.127-0.026-0.191c-0.17,0.175-0.37,0.297-0.6,0.367c-0.23,0.07-0.466,0.105-0.705,0.105    c-0.186,0-0.357-0.022-0.518-0.068c-0.16-0.045-0.3-0.114-0.42-0.21c-0.12-0.095-0.214-0.215-0.281-0.359    c-0.067-0.146-0.102-0.317-0.102-0.518c0-0.22,0.039-0.401,0.116-0.544s0.178-0.256,0.3-0.341c0.123-0.085,0.263-0.149,0.42-0.191    c0.158-0.043,0.316-0.076,0.477-0.102c0.16-0.024,0.317-0.045,0.473-0.06c0.154-0.016,0.292-0.038,0.412-0.067    c0.12-0.03,0.215-0.074,0.285-0.132s0.103-0.141,0.098-0.251c0-0.115-0.019-0.206-0.057-0.273    c-0.037-0.068-0.087-0.12-0.149-0.158c-0.062-0.037-0.136-0.062-0.218-0.075c-0.082-0.012-0.171-0.019-0.267-0.019    c-0.21,0-0.375,0.045-0.495,0.136c-0.119,0.09-0.189,0.239-0.21,0.449H231.094z M233.554,166.677    c-0.045,0.04-0.102,0.071-0.169,0.094s-0.14,0.041-0.218,0.056c-0.077,0.016-0.158,0.028-0.243,0.038s-0.17,0.022-0.255,0.037    c-0.08,0.015-0.159,0.035-0.236,0.061c-0.078,0.024-0.146,0.059-0.203,0.101c-0.058,0.043-0.104,0.097-0.139,0.161    c-0.035,0.065-0.052,0.147-0.052,0.248c0,0.095,0.017,0.175,0.052,0.24c0.035,0.064,0.083,0.116,0.143,0.153    c0.061,0.037,0.13,0.063,0.21,0.079c0.08,0.015,0.163,0.022,0.248,0.022c0.21,0,0.372-0.035,0.487-0.105    c0.115-0.069,0.2-0.153,0.255-0.251s0.089-0.196,0.102-0.296c0.012-0.101,0.019-0.181,0.019-0.24V166.677z"/>
	</g>
</g>
<g>
	<g>
		<line fill="none" stroke="#999999" stroke-miterlimit="10" x1="203.831" y1="70.347" x2="201.831" y2="70.347"/>
		<polyline fill="none" stroke="#999999" stroke-miterlimit="10" stroke-dasharray="4.0121,2.006" points="199.825,70.347     167.59,70.347 161.026,70.347 32.32,70.347   "/>
		<line fill="none" stroke="#999999" stroke-miterlimit="10" x1="31.317" y1="70.347" x2="29.317" y2="70.347"/>
	</g>
</g>
<line fill="none" stroke="#F47920" stroke-width="2.5" stroke-miterlimit="10" x1="71.214" y1="91.681" x2="71.214" y2="159.342"/>
<line fill="none" stroke="#F47920" stroke-width="2.5" stroke-miterlimit="10" x1="110.149" y1="70.347" x2="110.149" y2="159.342"/>
<line fill="none" stroke="#F47920" stroke-width="2.5" stroke-miterlimit="10" x1="164.149" y1="40.366" x2="164.149" y2="159.342"/>
<g>
	<g>
		<polyline fill="none" stroke="#000000" stroke-width="0.5" stroke-miterlimit="10" points="29.317,2.691 29.317,159.342     232.348,159.342   "/>
		<g>
			<polygon points="27.447,3.238 29.317,0 31.187,3.238    "/>
		</g>
		<g>
			<polygon points="231.801,161.212 235.039,159.342 231.801,157.472    "/>
		</g>
	</g>
</g>
<line fill="none" stroke="#7A9AA8" stroke-width="2.5" stroke-miterlimit="10" x1="29.317" y1="114.814" x2="205.552" y2="17.505"/>
</svg>